<?xml version="1.0" encoding="us-ascii" standalone="no"?><svg xmlns="http://www.w3.org/2000/svg" xmlns:xlink="http://www.w3.org/1999/xlink" contentStyleType="text/css" height="1146px" preserveAspectRatio="none" style="width:1907px;height:1146px;background:#FFFFFF;" version="1.1" viewBox="0 0 1907 1146" width="1907px" zoomAndPan="magnify"><defs/><g><rect fill="#FFFFFF" height="937.0215" style="stroke:#181818;stroke-width:1.0;" width="10" x="318.5" y="116.9121"/><rect fill="#FFFFFF" height="187.7461" style="stroke:#181818;stroke-width:1.0;" width="10" x="884.5" y="179.4941"/><rect fill="#FFFFFF" height="187.7461" style="stroke:#181818;stroke-width:1.0;" width="10" x="884.5" y="478.4043"/><rect fill="#FFFFFF" height="219.0371" style="stroke:#181818;stroke-width:1.0;" width="10" x="884.5" y="794.6055"/><rect fill="#FFFFFF" height="31.291" style="stroke:#181818;stroke-width:1.0;" width="10" x="1452.5" y="304.6582"/><rect fill="#FFFFFF" height="31.291" style="stroke:#181818;stroke-width:1.0;" width="10" x="1452.5" y="951.0605"/><rect fill="#FFFFFF" height="31.291" style="stroke:#181818;stroke-width:1.0;" width="10" x="1669" y="603.5684"/><line style="stroke:#181818;stroke-width:0.5;stroke-dasharray:5.0,5.0;" x1="66" x2="66" y1="83.6211" y2="1062.9336"/><line style="stroke:#181818;stroke-width:0.5;stroke-dasharray:5.0,5.0;" x1="323.5" x2="323.5" y1="83.6211" y2="1062.9336"/><line style="stroke:#181818;stroke-width:0.5;stroke-dasharray:5.0,5.0;" x1="889.5" x2="889.5" y1="83.6211" y2="1062.9336"/><line style="stroke:#181818;stroke-width:0.5;stroke-dasharray:5.0,5.0;" x1="1160.5" x2="1160.5" y1="83.6211" y2="1062.9336"/><line style="stroke:#181818;stroke-width:0.5;stroke-dasharray:5.0,5.0;" x1="1303.5" x2="1303.5" y1="83.6211" y2="1062.9336"/><line style="stroke:#181818;stroke-width:0.5;stroke-dasharray:5.0,5.0;" x1="1457.5" x2="1457.5" y1="83.6211" y2="1062.9336"/><line style="stroke:#181818;stroke-width:0.5;stroke-dasharray:5.0,5.0;" x1="1673.5" x2="1673.5" y1="83.6211" y2="1062.9336"/><line style="stroke:#181818;stroke-width:0.5;stroke-dasharray:5.0,5.0;" x1="1856.5" x2="1856.5" y1="83.6211" y2="1062.9336"/><text fill="#000000" font-family="sans-serif" font-size="14" lengthAdjust="spacing" textLength="117" x="5" y="80.1074">CustomerManager</text><ellipse cx="66.5" cy="13.5" fill="#E2E2F0" rx="8" ry="8" style="stroke:#181818;stroke-width:0.5;"/><path d="M66.5,21.5 L66.5,48.5 M53.5,29.5 L79.5,29.5 M66.5,48.5 L53.5,63.5 M66.5,48.5 L79.5,63.5 " fill="none" style="stroke:#181818;stroke-width:0.5;"/><text fill="#000000" font-family="sans-serif" font-size="14" lengthAdjust="spacing" textLength="117" x="5" y="1077.041">CustomerManager</text><ellipse cx="66.5" cy="1089.0547" fill="#E2E2F0" rx="8" ry="8" style="stroke:#181818;stroke-width:0.5;"/><path d="M66.5,1097.0547 L66.5,1124.0547 M53.5,1105.0547 L79.5,1105.0547 M66.5,1124.0547 L53.5,1139.0547 M66.5,1124.0547 L79.5,1139.0547 " fill="none" style="stroke:#181818;stroke-width:0.5;"/><rect fill="#E2E2F0" height="51.2422" rx="2.5" ry="2.5" style="stroke:#181818;stroke-width:0.5;" width="336" x="155.5" y="31.3789"/><text fill="#000000" font-family="sans-serif" font-size="14" font-style="italic" lengthAdjust="spacing" textLength="95" x="276" y="53.4863">&#171;presentation&#187;</text><text fill="#000000" font-family="sans-serif" font-size="14" lengthAdjust="spacing" textLength="322" x="162.5" y="72.1074">SelectInterviewModelSpecificationForJobOpeningUI</text><rect fill="#E2E2F0" height="51.2422" rx="2.5" ry="2.5" style="stroke:#181818;stroke-width:0.5;" width="336" x="155.5" y="1061.9336"/><text fill="#000000" font-family="sans-serif" font-size="14" font-style="italic" lengthAdjust="spacing" textLength="95" x="276" y="1084.041">&#171;presentation&#187;</text><text fill="#000000" font-family="sans-serif" font-size="14" lengthAdjust="spacing" textLength="322" x="162.5" y="1102.6621">SelectInterviewModelSpecificationForJobOpeningUI</text><rect fill="#E2E2F0" height="51.2422" rx="2.5" ry="2.5" style="stroke:#181818;stroke-width:0.5;" width="386" x="696.5" y="31.3789"/><text fill="#000000" font-family="sans-serif" font-size="14" font-style="italic" lengthAdjust="spacing" textLength="84" x="847.5" y="53.4863">&#171;application&#187;</text><text fill="#000000" font-family="sans-serif" font-size="14" lengthAdjust="spacing" textLength="372" x="703.5" y="72.1074">SelectInterviewModelSpecificationForJobOpeningController</text><rect fill="#E2E2F0" height="51.2422" rx="2.5" ry="2.5" style="stroke:#181818;stroke-width:0.5;" width="386" x="696.5" y="1061.9336"/><text fill="#000000" font-family="sans-serif" font-size="14" font-style="italic" lengthAdjust="spacing" textLength="84" x="847.5" y="1084.041">&#171;application&#187;</text><text fill="#000000" font-family="sans-serif" font-size="14" lengthAdjust="spacing" textLength="372" x="703.5" y="1102.6621">SelectInterviewModelSpecificationForJobOpeningController</text><rect fill="#E2E2F0" height="32.6211" rx="2.5" ry="2.5" style="stroke:#181818;stroke-width:0.5;" width="136" x="1092.5" y="50"/><text fill="#000000" font-family="sans-serif" font-size="14" lengthAdjust="spacing" textLength="122" x="1099.5" y="72.1074">PersistenceContext</text><rect fill="#E2E2F0" height="32.6211" rx="2.5" ry="2.5" style="stroke:#181818;stroke-width:0.5;" width="136" x="1092.5" y="1061.9336"/><text fill="#000000" font-family="sans-serif" font-size="14" lengthAdjust="spacing" textLength="122" x="1099.5" y="1084.041">PersistenceContext</text><rect fill="#E2E2F0" height="32.6211" rx="2.5" ry="2.5" style="stroke:#181818;stroke-width:0.5;" width="130" x="1238.5" y="50"/><text fill="#000000" font-family="sans-serif" font-size="14" lengthAdjust="spacing" textLength="116" x="1245.5" y="72.1074">RepositoryFactory</text><rect fill="#E2E2F0" height="32.6211" rx="2.5" ry="2.5" style="stroke:#181818;stroke-width:0.5;" width="130" x="1238.5" y="1061.9336"/><text fill="#000000" font-family="sans-serif" font-size="14" lengthAdjust="spacing" textLength="116" x="1245.5" y="1084.041">RepositoryFactory</text><rect fill="#E2E2F0" height="51.2422" rx="2.5" ry="2.5" style="stroke:#181818;stroke-width:0.5;" width="158" x="1378.5" y="31.3789"/><text fill="#000000" font-family="sans-serif" font-size="14" font-style="italic" lengthAdjust="spacing" textLength="79" x="1418" y="53.4863">&#171;repository&#187;</text><text fill="#000000" font-family="sans-serif" font-size="14" lengthAdjust="spacing" textLength="144" x="1385.5" y="72.1074">JobOpeningRepository</text><rect fill="#E2E2F0" height="51.2422" rx="2.5" ry="2.5" style="stroke:#181818;stroke-width:0.5;" width="158" x="1378.5" y="1061.9336"/><text fill="#000000" font-family="sans-serif" font-size="14" font-style="italic" lengthAdjust="spacing" textLength="79" x="1418" y="1084.041">&#171;repository&#187;</text><text fill="#000000" font-family="sans-serif" font-size="14" lengthAdjust="spacing" textLength="144" x="1385.5" y="1102.6621">JobOpeningRepository</text><rect fill="#E2E2F0" height="51.2422" rx="2.5" ry="2.5" style="stroke:#181818;stroke-width:0.5;" width="255" x="1546.5" y="31.3789"/><text fill="#000000" font-family="sans-serif" font-size="14" font-style="italic" lengthAdjust="spacing" textLength="79" x="1634.5" y="53.4863">&#171;repository&#187;</text><text fill="#000000" font-family="sans-serif" font-size="14" lengthAdjust="spacing" textLength="241" x="1553.5" y="72.1074">InterviewModelSpecificationRepository</text><rect fill="#E2E2F0" height="51.2422" rx="2.5" ry="2.5" style="stroke:#181818;stroke-width:0.5;" width="255" x="1546.5" y="1061.9336"/><text fill="#000000" font-family="sans-serif" font-size="14" font-style="italic" lengthAdjust="spacing" textLength="79" x="1634.5" y="1084.041">&#171;repository&#187;</text><text fill="#000000" font-family="sans-serif" font-size="14" lengthAdjust="spacing" textLength="241" x="1553.5" y="1102.6621">InterviewModelSpecificationRepository</text><rect fill="#E2E2F0" height="51.2422" rx="2.5" ry="2.5" style="stroke:#181818;stroke-width:0.5;" width="90" x="1811.5" y="31.3789"/><text fill="#000000" font-family="sans-serif" font-size="14" font-style="italic" lengthAdjust="spacing" textLength="62" x="1825.5" y="53.4863">&#171;domain&#187;</text><text fill="#000000" font-family="sans-serif" font-size="14" lengthAdjust="spacing" textLength="76" x="1818.5" y="72.1074">JobOpening</text><rect fill="#E2E2F0" height="51.2422" rx="2.5" ry="2.5" style="stroke:#181818;stroke-width:0.5;" width="90" x="1811.5" y="1061.9336"/><text fill="#000000" font-family="sans-serif" font-size="14" font-style="italic" lengthAdjust="spacing" textLength="62" x="1825.5" y="1084.041">&#171;domain&#187;</text><text fill="#000000" font-family="sans-serif" font-size="14" lengthAdjust="spacing" textLength="76" x="1818.5" y="1102.6621">JobOpening</text><rect fill="#FFFFFF" height="937.0215" style="stroke:#181818;stroke-width:1.0;" width="10" x="318.5" y="116.9121"/><rect fill="#FFFFFF" height="187.7461" style="stroke:#181818;stroke-width:1.0;" width="10" x="884.5" y="179.4941"/><rect fill="#FFFFFF" height="187.7461" style="stroke:#181818;stroke-width:1.0;" width="10" x="884.5" y="478.4043"/><rect fill="#FFFFFF" height="219.0371" style="stroke:#181818;stroke-width:1.0;" width="10" x="884.5" y="794.6055"/><rect fill="#FFFFFF" height="31.291" style="stroke:#181818;stroke-width:1.0;" width="10" x="1452.5" y="304.6582"/><rect fill="#FFFFFF" height="31.291" style="stroke:#181818;stroke-width:1.0;" width="10" x="1452.5" y="951.0605"/><rect fill="#FFFFFF" height="31.291" style="stroke:#181818;stroke-width:1.0;" width="10" x="1669" y="603.5684"/><polygon fill="#181818" points="306.5,112.9121,316.5,116.9121,306.5,120.9121,310.5,116.9121" style="stroke:#181818;stroke-width:1.0;"/><line style="stroke:#181818;stroke-width:1.0;" x1="0" x2="312.5" y1="116.9121" y2="116.9121"/><text fill="#000000" font-family="sans-serif" font-size="13" font-weight="bold" lengthAdjust="spacing" textLength="7" x="7" y="111.6494">1</text><text fill="#000000" font-family="sans-serif" font-size="13" lengthAdjust="spacing" textLength="54" x="18" y="111.6494">doShow()</text><polygon fill="#181818" points="877.5,144.2031,887.5,148.2031,877.5,152.2031,881.5,148.2031" style="stroke:#181818;stroke-width:1.0;"/><line style="stroke:#181818;stroke-width:1.0;" x1="328.5" x2="883.5" y1="148.2031" y2="148.2031"/><text fill="#000000" font-family="sans-serif" font-size="13" font-weight="bold" lengthAdjust="spacing" textLength="7" x="335.5" y="142.9404">2</text><text fill="#000000" font-family="sans-serif" font-size="13" lengthAdjust="spacing" textLength="36" x="346.5" y="142.9404">create</text><polygon fill="#181818" points="872.5,175.4941,882.5,179.4941,872.5,183.4941,876.5,179.4941" style="stroke:#181818;stroke-width:1.0;"/><line style="stroke:#181818;stroke-width:1.0;" x1="328.5" x2="878.5" y1="179.4941" y2="179.4941"/><text fill="#000000" font-family="sans-serif" font-size="13" font-weight="bold" lengthAdjust="spacing" textLength="7" x="335.5" y="174.2314">3</text><text fill="#000000" font-family="sans-serif" font-size="13" lengthAdjust="spacing" textLength="100" x="346.5" y="174.2314">listJobOpenings()</text><polygon fill="#181818" points="1148.5,206.7852,1158.5,210.7852,1148.5,214.7852,1152.5,210.7852" style="stroke:#181818;stroke-width:1.0;"/><line style="stroke:#181818;stroke-width:1.0;" x1="894.5" x2="1154.5" y1="210.7852" y2="210.7852"/><text fill="#000000" font-family="sans-serif" font-size="13" font-weight="bold" lengthAdjust="spacing" textLength="7" x="901.5" y="205.5225">4</text><text fill="#000000" font-family="sans-serif" font-size="13" lengthAdjust="spacing" textLength="75" x="912.5" y="205.5225">repositories()</text><polygon fill="#181818" points="1291.5,238.0762,1301.5,242.0762,1291.5,246.0762,1295.5,242.0762" style="stroke:#181818;stroke-width:1.0;"/><line style="stroke:#181818;stroke-width:1.0;" x1="1160.5" x2="1297.5" y1="242.0762" y2="242.0762"/><text fill="#000000" font-family="sans-serif" font-size="13" font-weight="bold" lengthAdjust="spacing" textLength="7" x="1167.5" y="236.8135">5</text><text fill="#000000" font-family="sans-serif" font-size="13" lengthAdjust="spacing" textLength="36" x="1178.5" y="236.8135">create</text><polygon fill="#181818" points="1445.5,269.3672,1455.5,273.3672,1445.5,277.3672,1449.5,273.3672" style="stroke:#181818;stroke-width:1.0;"/><line style="stroke:#181818;stroke-width:1.0;" x1="1303.5" x2="1451.5" y1="273.3672" y2="273.3672"/><text fill="#000000" font-family="sans-serif" font-size="13" font-weight="bold" lengthAdjust="spacing" textLength="7" x="1310.5" y="268.1045">6</text><text fill="#000000" font-family="sans-serif" font-size="13" lengthAdjust="spacing" textLength="80" x="1321.5" y="268.1045">jobOpenings()</text><polygon fill="#181818" points="1440.5,300.6582,1450.5,304.6582,1440.5,308.6582,1444.5,304.6582" style="stroke:#181818;stroke-width:1.0;"/><line style="stroke:#181818;stroke-width:1.0;" x1="894.5" x2="1446.5" y1="304.6582" y2="304.6582"/><text fill="#000000" font-family="sans-serif" font-size="13" font-weight="bold" lengthAdjust="spacing" textLength="7" x="901.5" y="299.3955">7</text><text fill="#000000" font-family="sans-serif" font-size="13" lengthAdjust="spacing" textLength="43" x="912.5" y="299.3955">findAll()</text><polygon fill="#181818" points="905.5,331.9492,895.5,335.9492,905.5,339.9492,901.5,335.9492" style="stroke:#181818;stroke-width:1.0;"/><line style="stroke:#181818;stroke-width:1.0;stroke-dasharray:2.0,2.0;" x1="899.5" x2="1456.5" y1="335.9492" y2="335.9492"/><text fill="#000000" font-family="sans-serif" font-size="13" font-weight="bold" lengthAdjust="spacing" textLength="7" x="911.5" y="330.6865">8</text><text fill="#000000" font-family="sans-serif" font-size="13" lengthAdjust="spacing" textLength="105" x="922.5" y="330.6865">List&lt;JobOpening&gt;</text><polygon fill="#181818" points="339.5,363.2402,329.5,367.2402,339.5,371.2402,335.5,367.2402" style="stroke:#181818;stroke-width:1.0;"/><line style="stroke:#181818;stroke-width:1.0;stroke-dasharray:2.0,2.0;" x1="333.5" x2="888.5" y1="367.2402" y2="367.2402"/><text fill="#000000" font-family="sans-serif" font-size="13" font-weight="bold" lengthAdjust="spacing" textLength="7" x="345.5" y="361.9775">9</text><text fill="#000000" font-family="sans-serif" font-size="13" lengthAdjust="spacing" textLength="105" x="356.5" y="361.9775">List&lt;JobOpening&gt;</text><polygon fill="#181818" points="77.5,411.8223,67.5,415.8223,77.5,419.8223,73.5,415.8223" style="stroke:#181818;stroke-width:1.0;"/><line style="stroke:#181818;stroke-width:1.0;stroke-dasharray:2.0,2.0;" x1="71.5" x2="317.5" y1="415.8223" y2="415.8223"/><text fill="#000000" font-family="sans-serif" font-size="13" font-weight="bold" lengthAdjust="spacing" textLength="14" x="83.5" y="401.9141">10</text><text fill="#000000" font-family="sans-serif" font-size="13" lengthAdjust="spacing" textLength="155" x="101.5" y="393.2686">shows list of Job Openings</text><text fill="#000000" font-family="sans-serif" font-size="13" lengthAdjust="spacing" textLength="132" x="101.5" y="410.5596">and asks to select one</text><polygon fill="#181818" points="306.5,443.1133,316.5,447.1133,306.5,451.1133,310.5,447.1133" style="stroke:#181818;stroke-width:1.0;"/><line style="stroke:#181818;stroke-width:1.0;" x1="66.5" x2="312.5" y1="447.1133" y2="447.1133"/><text fill="#000000" font-family="sans-serif" font-size="13" font-weight="bold" lengthAdjust="spacing" textLength="14" x="73.5" y="441.8506">11</text><text fill="#000000" font-family="sans-serif" font-size="13" lengthAdjust="spacing" textLength="143" x="91.5" y="441.8506">selects one Job Opening</text><polygon fill="#181818" points="872.5,474.4043,882.5,478.4043,872.5,482.4043,876.5,478.4043" style="stroke:#181818;stroke-width:1.0;"/><line style="stroke:#181818;stroke-width:1.0;" x1="328.5" x2="878.5" y1="478.4043" y2="478.4043"/><text fill="#000000" font-family="sans-serif" font-size="13" font-weight="bold" lengthAdjust="spacing" textLength="14" x="335.5" y="473.1416">12</text><text fill="#000000" font-family="sans-serif" font-size="13" lengthAdjust="spacing" textLength="190" x="353.5" y="473.1416">listInterviewModelsSpecification()</text><polygon fill="#181818" points="1148.5,505.6953,1158.5,509.6953,1148.5,513.6953,1152.5,509.6953" style="stroke:#181818;stroke-width:1.0;"/><line style="stroke:#181818;stroke-width:1.0;" x1="894.5" x2="1154.5" y1="509.6953" y2="509.6953"/><text fill="#000000" font-family="sans-serif" font-size="13" font-weight="bold" lengthAdjust="spacing" textLength="14" x="901.5" y="504.4326">13</text><text fill="#000000" font-family="sans-serif" font-size="13" lengthAdjust="spacing" textLength="75" x="919.5" y="504.4326">repositories()</text><polygon fill="#181818" points="1291.5,536.9863,1301.5,540.9863,1291.5,544.9863,1295.5,540.9863" style="stroke:#181818;stroke-width:1.0;"/><line style="stroke:#181818;stroke-width:1.0;" x1="1160.5" x2="1297.5" y1="540.9863" y2="540.9863"/><text fill="#000000" font-family="sans-serif" font-size="13" font-weight="bold" lengthAdjust="spacing" textLength="14" x="1167.5" y="535.7236">14</text><text fill="#000000" font-family="sans-serif" font-size="13" lengthAdjust="spacing" textLength="36" x="1185.5" y="535.7236">create</text><polygon fill="#181818" points="1662,568.2773,1672,572.2773,1662,576.2773,1666,572.2773" style="stroke:#181818;stroke-width:1.0;"/><line style="stroke:#181818;stroke-width:1.0;" x1="1303.5" x2="1668" y1="572.2773" y2="572.2773"/><text fill="#000000" font-family="sans-serif" font-size="13" font-weight="bold" lengthAdjust="spacing" textLength="14" x="1310.5" y="567.0146">15</text><text fill="#000000" font-family="sans-serif" font-size="13" lengthAdjust="spacing" textLength="36" x="1328.5" y="567.0146">create</text><polygon fill="#181818" points="1657,599.5684,1667,603.5684,1657,607.5684,1661,603.5684" style="stroke:#181818;stroke-width:1.0;"/><line style="stroke:#181818;stroke-width:1.0;" x1="894.5" x2="1663" y1="603.5684" y2="603.5684"/><text fill="#000000" font-family="sans-serif" font-size="13" font-weight="bold" lengthAdjust="spacing" textLength="14" x="901.5" y="598.3057">16</text><text fill="#000000" font-family="sans-serif" font-size="13" lengthAdjust="spacing" textLength="43" x="919.5" y="598.3057">findAll()</text><polygon fill="#181818" points="905.5,630.8594,895.5,634.8594,905.5,638.8594,901.5,634.8594" style="stroke:#181818;stroke-width:1.0;"/><line style="stroke:#181818;stroke-width:1.0;stroke-dasharray:2.0,2.0;" x1="899.5" x2="1673" y1="634.8594" y2="634.8594"/><text fill="#000000" font-family="sans-serif" font-size="13" font-weight="bold" lengthAdjust="spacing" textLength="14" x="911.5" y="629.5967">17</text><text fill="#000000" font-family="sans-serif" font-size="13" lengthAdjust="spacing" textLength="195" x="929.5" y="629.5967">List&lt;InterviewModelSpecification&gt;</text><polygon fill="#181818" points="339.5,662.1504,329.5,666.1504,339.5,670.1504,335.5,666.1504" style="stroke:#181818;stroke-width:1.0;"/><line style="stroke:#181818;stroke-width:1.0;stroke-dasharray:2.0,2.0;" x1="333.5" x2="888.5" y1="666.1504" y2="666.1504"/><text fill="#000000" font-family="sans-serif" font-size="13" font-weight="bold" lengthAdjust="spacing" textLength="14" x="345.5" y="660.8877">18</text><text fill="#000000" font-family="sans-serif" font-size="13" lengthAdjust="spacing" textLength="195" x="363.5" y="660.8877">List&lt;InterviewModelSpecification&gt;</text><polygon fill="#181818" points="77.5,710.7324,67.5,714.7324,77.5,718.7324,73.5,714.7324" style="stroke:#181818;stroke-width:1.0;"/><line style="stroke:#181818;stroke-width:1.0;stroke-dasharray:2.0,2.0;" x1="71.5" x2="317.5" y1="714.7324" y2="714.7324"/><text fill="#000000" font-family="sans-serif" font-size="13" font-weight="bold" lengthAdjust="spacing" textLength="14" x="83.5" y="700.8242">19</text><text fill="#000000" font-family="sans-serif" font-size="13" lengthAdjust="spacing" textLength="180" x="101.5" y="692.1787">shows list of Job Requirements</text><text fill="#000000" font-family="sans-serif" font-size="13" lengthAdjust="spacing" textLength="210" x="101.5" y="709.4697">Specification and asks to select one</text><polygon fill="#181818" points="306.5,759.3145,316.5,763.3145,306.5,767.3145,310.5,763.3145" style="stroke:#181818;stroke-width:1.0;"/><line style="stroke:#181818;stroke-width:1.0;" x1="66.5" x2="312.5" y1="763.3145" y2="763.3145"/><text fill="#000000" font-family="sans-serif" font-size="13" font-weight="bold" lengthAdjust="spacing" textLength="14" x="73.5" y="749.4063">20</text><text fill="#000000" font-family="sans-serif" font-size="13" lengthAdjust="spacing" textLength="120" x="91.5" y="740.7607">selects one Interview</text><text fill="#000000" font-family="sans-serif" font-size="13" lengthAdjust="spacing" textLength="113" x="91.5" y="758.0518">Model Specification</text><polygon fill="#181818" points="872.5,790.6055,882.5,794.6055,872.5,798.6055,876.5,794.6055" style="stroke:#181818;stroke-width:1.0;"/><line style="stroke:#181818;stroke-width:1.0;" x1="328.5" x2="878.5" y1="794.6055" y2="794.6055"/><text fill="#000000" font-family="sans-serif" font-size="13" font-weight="bold" lengthAdjust="spacing" textLength="14" x="335.5" y="789.3428">21</text><text fill="#000000" font-family="sans-serif" font-size="13" lengthAdjust="spacing" textLength="519" x="353.5" y="789.3428">selectInterviewModelSpecificationForJobOpening(interviewModelSpecification, jobOpening)</text><polygon fill="#181818" points="1844.5,821.8965,1854.5,825.8965,1844.5,829.8965,1848.5,825.8965" style="stroke:#181818;stroke-width:1.0;"/><line style="stroke:#181818;stroke-width:1.0;" x1="894.5" x2="1850.5" y1="825.8965" y2="825.8965"/><text fill="#000000" font-family="sans-serif" font-size="13" font-weight="bold" lengthAdjust="spacing" textLength="14" x="901.5" y="820.6338">22</text><text fill="#000000" font-family="sans-serif" font-size="13" lengthAdjust="spacing" textLength="359" x="919.5" y="820.6338">selectInterviewModelSpecification(interviewModelSpecification)</text><polygon fill="#181818" points="1148.5,853.1875,1158.5,857.1875,1148.5,861.1875,1152.5,857.1875" style="stroke:#181818;stroke-width:1.0;"/><line style="stroke:#181818;stroke-width:1.0;" x1="894.5" x2="1154.5" y1="857.1875" y2="857.1875"/><text fill="#000000" font-family="sans-serif" font-size="13" font-weight="bold" lengthAdjust="spacing" textLength="14" x="901.5" y="851.9248">23</text><text fill="#000000" font-family="sans-serif" font-size="13" lengthAdjust="spacing" textLength="75" x="919.5" y="851.9248">repositories()</text><polygon fill="#181818" points="1291.5,884.4785,1301.5,888.4785,1291.5,892.4785,1295.5,888.4785" style="stroke:#181818;stroke-width:1.0;"/><line style="stroke:#181818;stroke-width:1.0;" x1="1160.5" x2="1297.5" y1="888.4785" y2="888.4785"/><text fill="#000000" font-family="sans-serif" font-size="13" font-weight="bold" lengthAdjust="spacing" textLength="14" x="1167.5" y="883.2158">24</text><text fill="#000000" font-family="sans-serif" font-size="13" lengthAdjust="spacing" textLength="36" x="1185.5" y="883.2158">create</text><polygon fill="#181818" points="1445.5,915.7695,1455.5,919.7695,1445.5,923.7695,1449.5,919.7695" style="stroke:#181818;stroke-width:1.0;"/><line style="stroke:#181818;stroke-width:1.0;" x1="1303.5" x2="1451.5" y1="919.7695" y2="919.7695"/><text fill="#000000" font-family="sans-serif" font-size="13" font-weight="bold" lengthAdjust="spacing" textLength="14" x="1310.5" y="914.5068">25</text><text fill="#000000" font-family="sans-serif" font-size="13" lengthAdjust="spacing" textLength="36" x="1328.5" y="914.5068">create</text><polygon fill="#181818" points="1440.5,947.0605,1450.5,951.0605,1440.5,955.0605,1444.5,951.0605" style="stroke:#181818;stroke-width:1.0;"/><line style="stroke:#181818;stroke-width:1.0;" x1="894.5" x2="1446.5" y1="951.0605" y2="951.0605"/><text fill="#000000" font-family="sans-serif" font-size="13" font-weight="bold" lengthAdjust="spacing" textLength="14" x="901.5" y="945.7979">26</text><text fill="#000000" font-family="sans-serif" font-size="13" lengthAdjust="spacing" textLength="99" x="919.5" y="945.7979">save(jobOpening)</text><polygon fill="#181818" points="905.5,978.3516,895.5,982.3516,905.5,986.3516,901.5,982.3516" style="stroke:#181818;stroke-width:1.0;"/><line style="stroke:#181818;stroke-width:1.0;stroke-dasharray:2.0,2.0;" x1="899.5" x2="1456.5" y1="982.3516" y2="982.3516"/><text fill="#000000" font-family="sans-serif" font-size="13" font-weight="bold" lengthAdjust="spacing" textLength="14" x="911.5" y="977.0889">27</text><text fill="#000000" font-family="sans-serif" font-size="13" lengthAdjust="spacing" textLength="65" x="929.5" y="977.0889">jobOpening</text><polygon fill="#181818" points="339.5,1009.6426,329.5,1013.6426,339.5,1017.6426,335.5,1013.6426" style="stroke:#181818;stroke-width:1.0;"/><line style="stroke:#181818;stroke-width:1.0;stroke-dasharray:2.0,2.0;" x1="333.5" x2="888.5" y1="1013.6426" y2="1013.6426"/><text fill="#000000" font-family="sans-serif" font-size="13" font-weight="bold" lengthAdjust="spacing" textLength="14" x="345.5" y="1008.3799">28</text><text fill="#000000" font-family="sans-serif" font-size="13" lengthAdjust="spacing" textLength="65" x="363.5" y="1008.3799">jobOpening</text><polygon fill="#181818" points="77.5,1040.9336,67.5,1044.9336,77.5,1048.9336,73.5,1044.9336" style="stroke:#181818;stroke-width:1.0;"/><line style="stroke:#181818;stroke-width:1.0;stroke-dasharray:2.0,2.0;" x1="71.5" x2="317.5" y1="1044.9336" y2="1044.9336"/><text fill="#000000" font-family="sans-serif" font-size="13" font-weight="bold" lengthAdjust="spacing" textLength="14" x="83.5" y="1039.6709">29</text><text fill="#000000" font-family="sans-serif" font-size="13" lengthAdjust="spacing" textLength="86" x="101.5" y="1039.6709">backs to menu</text><!--SRC=[vLPDR-8m4BtxL_XMa9PoHmYfgbIfgqLT5VNMYt46wgtZyTeERVzz9-cMn11e4YhegZTWPjwy-V1ZpXv2i7uq75ejJCXIVIun7Nhucu6HC4YKM3gHCYQoW2PBv-3eimpe-6Nc0wRWfiA8PVwp5IuegIpXy1beaE7Q170h1KzJJ43FB4YrK584XUOAtK-StrWmoYplhlbuR1ruCA6mJYO7e5sY2Gwr1aUembhzpsa3z3Suhtp8oymZu3b4vbkmw1KL-d9LrFiIMSjifHzbS-il6ydsS6y6K2OahmHJeV9ws63IkjKZdk3i0Pzw_NoGQYK2jCPWhUVRccXbYYCk7H3DOsVLj1wboNTlM8dAEjEXKhOtbaYkDqP1ph36XoAtbhdiwRQ9_6lNUyJ_HCquf9GT2HRA91TQLpjTvybgmmU7JViNjMrSsYOiWVqakjVVuTL-GB3pFdPuKyH-G_k9d2T5ySMBuRZ8-yNVD-NU29DmuHyz3yXzaOwZ0RO9qgqhRu0-HwocPQSGYpZGHv7VI3sQ_TbrLFMugAQfQeIbKIXhbk0pf6TFPFJKc_4-YJWrBU4BgjKjNRpAGKeNA2bM1CcFfb_hG7vlYbWU1HzTqtohq9xQxVYZSZkSMWWhftI34lTLrV-_pxbFqDyTo5wie5SxyQETSsNsBtV8rLCxkIZEXNpJE1B1ZBq2]--></g></svg>