<?xml version="1.0" encoding="us-ascii" standalone="no"?><svg xmlns="http://www.w3.org/2000/svg" xmlns:xlink="http://www.w3.org/1999/xlink" contentStyleType="text/css" height="377.6px" preserveAspectRatio="none" style="width:846px;height:377px;background:#FFFFFF;" version="1.1" viewBox="0 0 846 377" width="846.4px" zoomAndPan="magnify"><defs/><g><rect fill="#FFFFFF" height="303.3102" style="stroke:#181818;stroke-width:0.4000000000000001;" width="4" x="24.6" y="37.4484"/><rect fill="#FFFFFF" height="276.5609" style="stroke:#181818;stroke-width:0.4000000000000001;" width="4" x="115.8" y="60.5977"/><rect fill="#FFFFFF" height="222.7789" style="stroke:#181818;stroke-width:0.4000000000000001;" width="4" x="222.6" y="105.0633"/><rect fill="#FFFFFF" height="198.1461" style="stroke:#181818;stroke-width:0.4000000000000001;" width="4" x="337.8" y="142.6125"/><rect fill="#FFFFFF" height="12.5164" style="stroke:#181818;stroke-width:0.4000000000000001;" width="4" x="488.4" y="117.5797"/><rect fill="#FFFFFF" height="12.5164" style="stroke:#181818;stroke-width:0.4000000000000001;" width="4" x="548" y="165.6453"/><rect fill="#FFFFFF" height="139.5641" style="stroke:#181818;stroke-width:0.4000000000000001;" width="4" x="548" y="201.1945"/><rect fill="#FFFFFF" height="21.7164" style="stroke:#181818;stroke-width:0.4000000000000001;" width="4" x="550" y="319.0422"/><rect fill="#FFFFFF" height="37.5492" style="stroke:#181818;stroke-width:0.4000000000000001;" width="4" x="591" y="268.9766"/><rect fill="#FFFFFF" height="12.5164" style="stroke:#181818;stroke-width:0.4000000000000001;" width="4" x="676.2" y="281.493"/><rect fill="#FFFFFF" height="30.2328" style="stroke:#181818;stroke-width:0.4000000000000001;" width="4" x="747.8" y="213.7109"/><rect fill="none" height="176.4297" style="stroke:#000000;stroke-width:0.6000000000000001;" width="557.2" x="287" y="148.6125"/><rect fill="none" height="138.0805" style="stroke:#000000;stroke-width:0.6000000000000001;" width="549.2" x="291" y="184.1617"/><line style="stroke:#181818;stroke-width:0.20000000000000004;stroke-dasharray:5.0,5.0;" x1="26.4" x2="26.4" y1="33.4484" y2="344.3586"/><line style="stroke:#181818;stroke-width:0.20000000000000004;stroke-dasharray:5.0,5.0;" x1="117.6" x2="117.6" y1="33.4484" y2="344.3586"/><line style="stroke:#181818;stroke-width:0.20000000000000004;stroke-dasharray:5.0,5.0;" x1="224.4" x2="224.4" y1="33.4484" y2="344.3586"/><line style="stroke:#181818;stroke-width:0.20000000000000004;stroke-dasharray:5.0,5.0;" x1="339.8" x2="339.8" y1="33.4484" y2="344.3586"/><line style="stroke:#181818;stroke-width:0.20000000000000004;stroke-dasharray:5.0,5.0;" x1="420.2" x2="420.2" y1="33.4484" y2="344.3586"/><line style="stroke:#181818;stroke-width:0.20000000000000004;stroke-dasharray:5.0,5.0;" x1="490.2" x2="490.2" y1="33.4484" y2="344.3586"/><line style="stroke:#181818;stroke-width:0.20000000000000004;stroke-dasharray:5.0,5.0;" x1="549.8" x2="549.8" y1="33.4484" y2="344.3586"/><line style="stroke:#181818;stroke-width:0.20000000000000004;stroke-dasharray:5.0,5.0;" x1="593" x2="593" y1="33.4484" y2="344.3586"/><line style="stroke:#181818;stroke-width:0.20000000000000004;stroke-dasharray:5.0,5.0;" x1="678" x2="678" y1="33.4484" y2="344.3586"/><line style="stroke:#181818;stroke-width:0.20000000000000004;stroke-dasharray:5.0,5.0;" x1="749.6" x2="749.6" y1="33.4484" y2="344.3586"/><text fill="#000000" font-family="sans-serif" font-size="5.6" lengthAdjust="spacing" textLength="46.8" x="2" y="32.043">CustomerManager</text><ellipse cx="26.6" cy="5.4" fill="#E2E2F0" rx="3.2" ry="3.2" style="stroke:#181818;stroke-width:0.20000000000000004;"/><path d="M26.6,8.6 L26.6,19.4 M21.4,11.8 L31.8,11.8 M26.6,19.4 L21.4,25.4 M26.6,19.4 L31.8,25.4 " fill="none" style="stroke:#181818;stroke-width:0.20000000000000004;"/><text fill="#000000" font-family="sans-serif" font-size="5.6" lengthAdjust="spacing" textLength="46.8" x="2" y="350.0016">CustomerManager</text><ellipse cx="26.6" cy="354.807" fill="#E2E2F0" rx="3.2" ry="3.2" style="stroke:#181818;stroke-width:0.20000000000000004;"/><path d="M26.6,358.007 L26.6,368.807 M21.4,361.207 L31.8,361.207 M26.6,368.807 L21.4,374.807 M26.6,368.807 L31.8,374.807 " fill="none" style="stroke:#181818;stroke-width:0.20000000000000004;"/><rect fill="#E2E2F0" height="20.4969" rx="1" ry="1" style="stroke:#181818;stroke-width:0.20000000000000004;" width="89.2" x="73.2" y="12.5516"/><text fill="#000000" font-family="sans-serif" font-size="5.6" font-style="italic" lengthAdjust="spacing" textLength="38" x="98.8" y="21.3945">&#171;presentation&#187;</text><text fill="#000000" font-family="sans-serif" font-size="5.6" lengthAdjust="spacing" textLength="83.6" x="76" y="28.843">ExecuteRequirementEvaluationUI</text><rect fill="#E2E2F0" height="20.4969" rx="1" ry="1" style="stroke:#181818;stroke-width:0.20000000000000004;" width="89.2" x="73.2" y="343.9586"/><text fill="#000000" font-family="sans-serif" font-size="5.6" font-style="italic" lengthAdjust="spacing" textLength="38" x="98.8" y="352.8016">&#171;presentation&#187;</text><text fill="#000000" font-family="sans-serif" font-size="5.6" lengthAdjust="spacing" textLength="83.6" x="76" y="360.25">ExecuteRequirementEvaluationUI</text><rect fill="#E2E2F0" height="20.4969" rx="1" ry="1" style="stroke:#181818;stroke-width:0.20000000000000004;" width="109.2" x="170" y="12.5516"/><text fill="#000000" font-family="sans-serif" font-size="5.6" font-style="italic" lengthAdjust="spacing" textLength="33.6" x="207.8" y="21.3945">&#171;application&#187;</text><text fill="#000000" font-family="sans-serif" font-size="5.6" lengthAdjust="spacing" textLength="103.6" x="172.8" y="28.843">ExecuteRequirementEvaluationController</text><rect fill="#E2E2F0" height="20.4969" rx="1" ry="1" style="stroke:#181818;stroke-width:0.20000000000000004;" width="109.2" x="170" y="343.9586"/><text fill="#000000" font-family="sans-serif" font-size="5.6" font-style="italic" lengthAdjust="spacing" textLength="33.6" x="207.8" y="352.8016">&#171;application&#187;</text><text fill="#000000" font-family="sans-serif" font-size="5.6" lengthAdjust="spacing" textLength="103.6" x="172.8" y="360.25">ExecuteRequirementEvaluationController</text><rect fill="#E2E2F0" height="20.4969" rx="1" ry="1" style="stroke:#181818;stroke-width:0.20000000000000004;" width="89.6" x="295" y="12.5516"/><text fill="#000000" font-family="sans-serif" font-size="5.6" font-style="italic" lengthAdjust="spacing" textLength="24" x="327.8" y="21.3945">&#171;service&#187;</text><text fill="#000000" font-family="sans-serif" font-size="5.6" lengthAdjust="spacing" textLength="84" x="297.8" y="28.843">ExecuteListOfApplicationsService</text><rect fill="#E2E2F0" height="20.4969" rx="1" ry="1" style="stroke:#181818;stroke-width:0.20000000000000004;" width="89.6" x="295" y="343.9586"/><text fill="#000000" font-family="sans-serif" font-size="5.6" font-style="italic" lengthAdjust="spacing" textLength="24" x="327.8" y="352.8016">&#171;service&#187;</text><text fill="#000000" font-family="sans-serif" font-size="5.6" lengthAdjust="spacing" textLength="84" x="297.8" y="360.25">ExecuteListOfApplicationsService</text><rect fill="#E2E2F0" height="20.4969" rx="1" ry="1" style="stroke:#181818;stroke-width:0.20000000000000004;" width="63.2" x="388.6" y="12.5516"/><text fill="#000000" font-family="sans-serif" font-size="5.6" font-style="italic" lengthAdjust="spacing" textLength="31.6" x="404.4" y="21.3945">&#171;repository&#187;</text><text fill="#000000" font-family="sans-serif" font-size="5.6" lengthAdjust="spacing" textLength="57.6" x="391.4" y="28.843">JobOpeningRepository</text><rect fill="#E2E2F0" height="20.4969" rx="1" ry="1" style="stroke:#181818;stroke-width:0.20000000000000004;" width="63.2" x="388.6" y="343.9586"/><text fill="#000000" font-family="sans-serif" font-size="5.6" font-style="italic" lengthAdjust="spacing" textLength="31.6" x="404.4" y="352.8016">&#171;repository&#187;</text><text fill="#000000" font-family="sans-serif" font-size="5.6" lengthAdjust="spacing" textLength="57.6" x="391.4" y="360.25">JobOpeningRepository</text><rect fill="#E2E2F0" height="20.4969" rx="1" ry="1" style="stroke:#181818;stroke-width:0.20000000000000004;" width="69.2" x="455.8" y="12.5516"/><text fill="#000000" font-family="sans-serif" font-size="5.6" font-style="italic" lengthAdjust="spacing" textLength="31.6" x="474.6" y="21.3945">&#171;repository&#187;</text><text fill="#000000" font-family="sans-serif" font-size="5.6" lengthAdjust="spacing" textLength="63.6" x="458.6" y="28.843">JobApplicationRepository</text><rect fill="#E2E2F0" height="20.4969" rx="1" ry="1" style="stroke:#181818;stroke-width:0.20000000000000004;" width="69.2" x="455.8" y="343.9586"/><text fill="#000000" font-family="sans-serif" font-size="5.6" font-style="italic" lengthAdjust="spacing" textLength="31.6" x="474.6" y="352.8016">&#171;repository&#187;</text><text fill="#000000" font-family="sans-serif" font-size="5.6" lengthAdjust="spacing" textLength="63.6" x="458.6" y="360.25">JobApplicationRepository</text><rect fill="#E2E2F0" height="20.4969" rx="1" ry="1" style="stroke:#181818;stroke-width:0.20000000000000004;" width="42" x="529" y="12.5516"/><text fill="#000000" font-family="sans-serif" font-size="5.6" font-style="italic" lengthAdjust="spacing" textLength="24.8" x="537.6" y="21.3945">&#171;domain&#187;</text><text fill="#000000" font-family="sans-serif" font-size="5.6" lengthAdjust="spacing" textLength="36.4" x="531.8" y="28.843">JobApplication</text><rect fill="#E2E2F0" height="20.4969" rx="1" ry="1" style="stroke:#181818;stroke-width:0.20000000000000004;" width="42" x="529" y="343.9586"/><text fill="#000000" font-family="sans-serif" font-size="5.6" font-style="italic" lengthAdjust="spacing" textLength="24.8" x="537.6" y="352.8016">&#171;domain&#187;</text><text fill="#000000" font-family="sans-serif" font-size="5.6" lengthAdjust="spacing" textLength="36.4" x="531.8" y="360.25">JobApplication</text><rect fill="#E2E2F0" height="20.4969" rx="1" ry="1" style="stroke:#181818;stroke-width:0.20000000000000004;" width="36" x="575" y="12.5516"/><text fill="#000000" font-family="sans-serif" font-size="5.6" font-style="italic" lengthAdjust="spacing" textLength="24.8" x="580.6" y="21.3945">&#171;domain&#187;</text><text fill="#000000" font-family="sans-serif" font-size="5.6" lengthAdjust="spacing" textLength="30.4" x="577.8" y="28.843">JobOpening</text><rect fill="#E2E2F0" height="20.4969" rx="1" ry="1" style="stroke:#181818;stroke-width:0.20000000000000004;" width="36" x="575" y="343.9586"/><text fill="#000000" font-family="sans-serif" font-size="5.6" font-style="italic" lengthAdjust="spacing" textLength="24.8" x="580.6" y="352.8016">&#171;domain&#187;</text><text fill="#000000" font-family="sans-serif" font-size="5.6" lengthAdjust="spacing" textLength="30.4" x="577.8" y="360.25">JobOpening</text><rect fill="#E2E2F0" height="20.4969" rx="1" ry="1" style="stroke:#181818;stroke-width:0.20000000000000004;" width="78.8" x="638.8" y="12.5516"/><text fill="#000000" font-family="sans-serif" font-size="5.6" font-style="italic" lengthAdjust="spacing" textLength="24.8" x="665.8" y="21.3945">&#171;domain&#187;</text><text fill="#000000" font-family="sans-serif" font-size="5.6" lengthAdjust="spacing" textLength="73.2" x="641.6" y="28.843">JobRequirementSpecification</text><rect fill="#E2E2F0" height="20.4969" rx="1" ry="1" style="stroke:#181818;stroke-width:0.20000000000000004;" width="78.8" x="638.8" y="343.9586"/><text fill="#000000" font-family="sans-serif" font-size="5.6" font-style="italic" lengthAdjust="spacing" textLength="24.8" x="665.8" y="352.8016">&#171;domain&#187;</text><text fill="#000000" font-family="sans-serif" font-size="5.6" lengthAdjust="spacing" textLength="73.2" x="641.6" y="360.25">JobRequirementSpecification</text><rect fill="#E2E2F0" height="20.4969" rx="1" ry="1" style="stroke:#181818;stroke-width:0.20000000000000004;" width="56.4" x="721.6" y="12.5516"/><text fill="#000000" font-family="sans-serif" font-size="5.6" font-style="italic" lengthAdjust="spacing" textLength="24.8" x="737.4" y="21.3945">&#171;domain&#187;</text><text fill="#000000" font-family="sans-serif" font-size="5.6" lengthAdjust="spacing" textLength="50.8" x="724.4" y="28.843">RequirementAnswer</text><rect fill="#E2E2F0" height="20.4969" rx="1" ry="1" style="stroke:#181818;stroke-width:0.20000000000000004;" width="56.4" x="721.6" y="343.9586"/><text fill="#000000" font-family="sans-serif" font-size="5.6" font-style="italic" lengthAdjust="spacing" textLength="24.8" x="737.4" y="352.8016">&#171;domain&#187;</text><text fill="#000000" font-family="sans-serif" font-size="5.6" lengthAdjust="spacing" textLength="50.8" x="724.4" y="360.25">RequirementAnswer</text><rect fill="#FFFFFF" height="303.3102" style="stroke:#181818;stroke-width:0.4000000000000001;" width="4" x="24.6" y="37.4484"/><rect fill="#FFFFFF" height="276.5609" style="stroke:#181818;stroke-width:0.4000000000000001;" width="4" x="115.8" y="60.5977"/><rect fill="#FFFFFF" height="222.7789" style="stroke:#181818;stroke-width:0.4000000000000001;" width="4" x="222.6" y="105.0633"/><rect fill="#FFFFFF" height="198.1461" style="stroke:#181818;stroke-width:0.4000000000000001;" width="4" x="337.8" y="142.6125"/><rect fill="#FFFFFF" height="12.5164" style="stroke:#181818;stroke-width:0.4000000000000001;" width="4" x="488.4" y="117.5797"/><rect fill="#FFFFFF" height="12.5164" style="stroke:#181818;stroke-width:0.4000000000000001;" width="4" x="548" y="165.6453"/><rect fill="#FFFFFF" height="139.5641" style="stroke:#181818;stroke-width:0.4000000000000001;" width="4" x="548" y="201.1945"/><rect fill="#FFFFFF" height="21.7164" style="stroke:#181818;stroke-width:0.4000000000000001;" width="4" x="550" y="319.0422"/><rect fill="#FFFFFF" height="37.5492" style="stroke:#181818;stroke-width:0.4000000000000001;" width="4" x="591" y="268.9766"/><rect fill="#FFFFFF" height="12.5164" style="stroke:#181818;stroke-width:0.4000000000000001;" width="4" x="676.2" y="281.493"/><rect fill="#FFFFFF" height="30.2328" style="stroke:#181818;stroke-width:0.4000000000000001;" width="4" x="747.8" y="213.7109"/><polygon fill="#181818" points="111,58.9977,115,60.5977,111,62.1977,112.6,60.5977" style="stroke:#181818;stroke-width:0.4000000000000001;"/><line style="stroke:#181818;stroke-width:0.4000000000000001;" x1="28.6" x2="113.4" y1="60.5977" y2="60.5977"/><text fill="#000000" font-family="sans-serif" font-size="5.2" font-weight="bold" lengthAdjust="spacing" textLength="2.8" x="31.4" y="51.5762">1</text><text fill="#000000" font-family="sans-serif" font-size="5.2" lengthAdjust="spacing" textLength="46" x="35.8" y="44.6598">asks to execute the</text><text fill="#000000" font-family="sans-serif" font-size="5.2" lengthAdjust="spacing" textLength="52.4" x="37.4" y="51.5762">process of verifications</text><text fill="#000000" font-family="sans-serif" font-size="5.2" lengthAdjust="spacing" textLength="75.2" x="35.8" y="58.4926">of requirements for a job opening</text><polygon fill="#181818" points="33,78.4305,29,80.0305,33,81.6305,31.4,80.0305" style="stroke:#181818;stroke-width:0.4000000000000001;"/><line style="stroke:#181818;stroke-width:0.4000000000000001;stroke-dasharray:2.0,2.0;" x1="30.6" x2="115.4" y1="80.0305" y2="80.0305"/><text fill="#000000" font-family="sans-serif" font-size="5.2" font-weight="bold" lengthAdjust="spacing" textLength="2.8" x="35.4" y="74.4672">2</text><text fill="#000000" font-family="sans-serif" font-size="5.2" lengthAdjust="spacing" textLength="59.6" x="39.8" y="71.009">shows list of job openings</text><text fill="#000000" font-family="sans-serif" font-size="5.2" lengthAdjust="spacing" textLength="52.8" x="39.8" y="77.9254">and asks to select one</text><polygon fill="#181818" points="111,90.9469,115,92.5469,111,94.1469,112.6,92.5469" style="stroke:#181818;stroke-width:0.4000000000000001;"/><line style="stroke:#181818;stroke-width:0.4000000000000001;" x1="28.6" x2="113.4" y1="92.5469" y2="92.5469"/><text fill="#000000" font-family="sans-serif" font-size="5.2" font-weight="bold" lengthAdjust="spacing" textLength="2.8" x="31.4" y="90.4418">3</text><text fill="#000000" font-family="sans-serif" font-size="5.2" lengthAdjust="spacing" textLength="56" x="35.8" y="90.4418">selects one job Opening</text><polygon fill="#181818" points="217.8,103.4633,221.8,105.0633,217.8,106.6633,219.4,105.0633" style="stroke:#181818;stroke-width:0.4000000000000001;"/><line style="stroke:#181818;stroke-width:0.4000000000000001;" x1="119.8" x2="220.2" y1="105.0633" y2="105.0633"/><text fill="#000000" font-family="sans-serif" font-size="5.2" font-weight="bold" lengthAdjust="spacing" textLength="2.8" x="122.6" y="102.9582">4</text><text fill="#000000" font-family="sans-serif" font-size="5.2" lengthAdjust="spacing" textLength="90.8" x="127" y="102.9582">executeInterviewEvaluation(jobOpening)</text><polygon fill="#181818" points="483.6,115.9797,487.6,117.5797,483.6,119.1797,485.2,117.5797" style="stroke:#181818;stroke-width:0.4000000000000001;"/><line style="stroke:#181818;stroke-width:0.4000000000000001;" x1="226.6" x2="486" y1="117.5797" y2="117.5797"/><text fill="#000000" font-family="sans-serif" font-size="5.2" font-weight="bold" lengthAdjust="spacing" textLength="2.8" x="229.4" y="115.4746">5</text><text fill="#000000" font-family="sans-serif" font-size="5.2" lengthAdjust="spacing" textLength="137.2" x="233.8" y="115.4746">findByJobOpeningAndWithRequirementAnswer(jobOpening)</text><polygon fill="#181818" points="231,128.4961,227,130.0961,231,131.6961,229.4,130.0961" style="stroke:#181818;stroke-width:0.4000000000000001;"/><line style="stroke:#181818;stroke-width:0.4000000000000001;stroke-dasharray:2.0,2.0;" x1="228.6" x2="490" y1="130.0961" y2="130.0961"/><text fill="#000000" font-family="sans-serif" font-size="5.2" font-weight="bold" lengthAdjust="spacing" textLength="2.8" x="233.4" y="127.991">6</text><text fill="#000000" font-family="sans-serif" font-size="5.2" lengthAdjust="spacing" textLength="35.2" x="237.8" y="127.991">jobApplications</text><polygon fill="#181818" points="333,141.0125,337,142.6125,333,144.2125,334.6,142.6125" style="stroke:#181818;stroke-width:0.4000000000000001;"/><line style="stroke:#181818;stroke-width:0.4000000000000001;" x1="226.6" x2="335.4" y1="142.6125" y2="142.6125"/><text fill="#000000" font-family="sans-serif" font-size="5.2" font-weight="bold" lengthAdjust="spacing" textLength="2.8" x="229.4" y="140.5074">7</text><text fill="#000000" font-family="sans-serif" font-size="5.2" lengthAdjust="spacing" textLength="99.2" x="233.8" y="140.5074">evaluateListOfApplications(jobApplications)</text><path d="M287,148.6125 L316.2,148.6125 L316.2,152.3289 L312.2,156.3289 L287,156.3289 L287,148.6125 " fill="#EEEEEE" style="stroke:#000000;stroke-width:0.6000000000000001;"/><rect fill="none" height="176.4297" style="stroke:#000000;stroke-width:0.6000000000000001;" width="557.2" x="287" y="148.6125"/><text fill="#000000" font-family="sans-serif" font-size="5.2" font-weight="bold" lengthAdjust="spacing" textLength="11.2" x="293" y="154.6238">loop</text><text fill="#000000" font-family="sans-serif" font-size="4.4" font-weight="bold" lengthAdjust="spacing" textLength="54" x="322.2" y="154.1605">[for each job application]</text><polygon fill="#181818" points="543.2,164.0453,547.2,165.6453,543.2,167.2453,544.8,165.6453" style="stroke:#181818;stroke-width:0.4000000000000001;"/><line style="stroke:#181818;stroke-width:0.4000000000000001;" x1="341.8" x2="545.6" y1="165.6453" y2="165.6453"/><text fill="#000000" font-family="sans-serif" font-size="5.2" font-weight="bold" lengthAdjust="spacing" textLength="2.8" x="344.6" y="163.5402">8</text><text fill="#000000" font-family="sans-serif" font-size="5.2" lengthAdjust="spacing" textLength="29.2" x="349" y="163.5402">jobOpening()</text><polygon fill="#181818" points="346.2,176.5617,342.2,178.1617,346.2,179.7617,344.6,178.1617" style="stroke:#181818;stroke-width:0.4000000000000001;"/><line style="stroke:#181818;stroke-width:0.4000000000000001;stroke-dasharray:2.0,2.0;" x1="343.8" x2="549.6" y1="178.1617" y2="178.1617"/><text fill="#000000" font-family="sans-serif" font-size="5.2" font-weight="bold" lengthAdjust="spacing" textLength="2.8" x="348.6" y="176.0566">9</text><text fill="#000000" font-family="sans-serif" font-size="5.2" lengthAdjust="spacing" textLength="26" x="353" y="176.0566">jobOpening</text><path d="M291,184.1617 L315.4,184.1617 L315.4,187.8781 L311.4,191.8781 L291,191.8781 L291,184.1617 " fill="#EEEEEE" style="stroke:#000000;stroke-width:0.6000000000000001;"/><rect fill="none" height="138.0805" style="stroke:#000000;stroke-width:0.6000000000000001;" width="549.2" x="291" y="184.1617"/><text fill="#000000" font-family="sans-serif" font-size="5.2" font-weight="bold" lengthAdjust="spacing" textLength="6.4" x="297" y="190.173">alt</text><text fill="#000000" font-family="sans-serif" font-size="4.4" font-weight="bold" lengthAdjust="spacing" textLength="77.2" x="321.4" y="189.7098">[jobOpening is in screening phase]</text><polygon fill="#181818" points="543.2,199.5945,547.2,201.1945,543.2,202.7945,544.8,201.1945" style="stroke:#181818;stroke-width:0.4000000000000001;"/><line style="stroke:#181818;stroke-width:0.4000000000000001;" x1="341.8" x2="545.6" y1="201.1945" y2="201.1945"/><text fill="#000000" font-family="sans-serif" font-size="5.2" font-weight="bold" lengthAdjust="spacing" textLength="5.6" x="344.6" y="199.0895">10</text><text fill="#000000" font-family="sans-serif" font-size="5.2" lengthAdjust="spacing" textLength="47.6" x="351.8" y="199.0895">requirementAnswer()</text><polygon fill="#181818" points="743,212.1109,747,213.7109,743,215.3109,744.6,213.7109" style="stroke:#181818;stroke-width:0.4000000000000001;"/><line style="stroke:#181818;stroke-width:0.4000000000000001;" x1="552" x2="745.4" y1="213.7109" y2="213.7109"/><text fill="#000000" font-family="sans-serif" font-size="5.2" font-weight="bold" lengthAdjust="spacing" textLength="5.6" x="554.8" y="211.6059">11</text><text fill="#000000" font-family="sans-serif" font-size="5.2" lengthAdjust="spacing" textLength="47.6" x="562" y="211.6059">requirementAnswer()</text><line style="stroke:#181818;stroke-width:0.4000000000000001;" x1="751.8" x2="768.6" y1="226.2273" y2="226.2273"/><line style="stroke:#181818;stroke-width:0.4000000000000001;" x1="768.6" x2="768.6" y1="226.2273" y2="231.4273"/><line style="stroke:#181818;stroke-width:0.4000000000000001;" x1="752.2" x2="768.6" y1="231.4273" y2="231.4273"/><polygon fill="#181818" points="756.2,229.8273,752.2,231.4273,756.2,233.0273,754.6,231.4273" style="stroke:#181818;stroke-width:0.4000000000000001;"/><text fill="#000000" font-family="sans-serif" font-size="5.2" font-weight="bold" lengthAdjust="spacing" textLength="5.6" x="754.6" y="224.1223">12</text><text fill="#000000" font-family="sans-serif" font-size="5.2" lengthAdjust="spacing" textLength="73.6" x="761.8" y="224.1223">inputStreamFromResourceFile()</text><polygon fill="#181818" points="556.4,242.3438,552.4,243.9438,556.4,245.5438,554.8,243.9438" style="stroke:#181818;stroke-width:0.4000000000000001;"/><line style="stroke:#181818;stroke-width:0.4000000000000001;stroke-dasharray:2.0,2.0;" x1="554" x2="749.4" y1="243.9438" y2="243.9438"/><text fill="#000000" font-family="sans-serif" font-size="5.2" font-weight="bold" lengthAdjust="spacing" textLength="5.6" x="558.8" y="241.8387">13</text><text fill="#000000" font-family="sans-serif" font-size="5.2" lengthAdjust="spacing" textLength="44.4" x="566" y="241.8387">requirementAnswer</text><polygon fill="#181818" points="346.2,254.8602,342.2,256.4602,346.2,258.0602,344.6,256.4602" style="stroke:#181818;stroke-width:0.4000000000000001;"/><line style="stroke:#181818;stroke-width:0.4000000000000001;stroke-dasharray:2.0,2.0;" x1="343.8" x2="547.6" y1="256.4602" y2="256.4602"/><text fill="#000000" font-family="sans-serif" font-size="5.2" font-weight="bold" lengthAdjust="spacing" textLength="5.6" x="348.6" y="254.3551">14</text><text fill="#000000" font-family="sans-serif" font-size="5.2" lengthAdjust="spacing" textLength="44.4" x="355.8" y="254.3551">requirementAnswer</text><polygon fill="#181818" points="586.2,267.3766,590.2,268.9766,586.2,270.5766,587.8,268.9766" style="stroke:#181818;stroke-width:0.4000000000000001;"/><line style="stroke:#181818;stroke-width:0.4000000000000001;" x1="341.8" x2="588.6" y1="268.9766" y2="268.9766"/><text fill="#000000" font-family="sans-serif" font-size="5.2" font-weight="bold" lengthAdjust="spacing" textLength="5.6" x="344.6" y="266.8715">15</text><text fill="#000000" font-family="sans-serif" font-size="5.2" lengthAdjust="spacing" textLength="66.4" x="351.8" y="266.8715">evaluate(requirementAnswer)</text><polygon fill="#181818" points="671.4,279.893,675.4,281.493,671.4,283.093,673,281.493" style="stroke:#181818;stroke-width:0.4000000000000001;"/><line style="stroke:#181818;stroke-width:0.4000000000000001;" x1="595" x2="673.8" y1="281.493" y2="281.493"/><text fill="#000000" font-family="sans-serif" font-size="5.2" font-weight="bold" lengthAdjust="spacing" textLength="5.6" x="597.8" y="279.3879">16</text><text fill="#000000" font-family="sans-serif" font-size="5.2" lengthAdjust="spacing" textLength="66.4" x="605" y="279.3879">evaluate(requirementAnswer)</text><polygon fill="#181818" points="599.4,292.4094,595.4,294.0094,599.4,295.6094,597.8,294.0094" style="stroke:#181818;stroke-width:0.4000000000000001;"/><line style="stroke:#181818;stroke-width:0.4000000000000001;stroke-dasharray:2.0,2.0;" x1="597" x2="677.8" y1="294.0094" y2="294.0094"/><text fill="#000000" font-family="sans-serif" font-size="5.2" font-weight="bold" lengthAdjust="spacing" textLength="5.6" x="601.8" y="291.9043">17</text><text fill="#000000" font-family="sans-serif" font-size="5.2" lengthAdjust="spacing" textLength="12.8" x="609" y="291.9043">result</text><polygon fill="#181818" points="346.2,304.9258,342.2,306.5258,346.2,308.1258,344.6,306.5258" style="stroke:#181818;stroke-width:0.4000000000000001;"/><line style="stroke:#181818;stroke-width:0.4000000000000001;stroke-dasharray:2.0,2.0;" x1="343.8" x2="592.6" y1="306.5258" y2="306.5258"/><text fill="#000000" font-family="sans-serif" font-size="5.2" font-weight="bold" lengthAdjust="spacing" textLength="5.6" x="348.6" y="304.4207">18</text><text fill="#000000" font-family="sans-serif" font-size="5.2" lengthAdjust="spacing" textLength="12.8" x="355.8" y="304.4207">result</text><polygon fill="#181818" points="545.2,317.4422,549.2,319.0422,545.2,320.6422,546.8,319.0422" style="stroke:#181818;stroke-width:0.4000000000000001;"/><line style="stroke:#181818;stroke-width:0.4000000000000001;" x1="341.8" x2="547.6" y1="319.0422" y2="319.0422"/><text fill="#000000" font-family="sans-serif" font-size="5.2" font-weight="bold" lengthAdjust="spacing" textLength="5.6" x="344.6" y="316.9371">19</text><text fill="#000000" font-family="sans-serif" font-size="5.2" lengthAdjust="spacing" textLength="44.4" x="351.8" y="316.9371">defineResult(result)</text><polygon fill="#181818" points="33,335.5586,29,337.1586,33,338.7586,31.4,337.1586" style="stroke:#181818;stroke-width:0.4000000000000001;"/><line style="stroke:#181818;stroke-width:0.4000000000000001;stroke-dasharray:2.0,2.0;" x1="30.6" x2="117.4" y1="337.1586" y2="337.1586"/><text fill="#000000" font-family="sans-serif" font-size="5.2" font-weight="bold" lengthAdjust="spacing" textLength="5.6" x="35.4" y="335.0535">20</text><text fill="#000000" font-family="sans-serif" font-size="5.2" lengthAdjust="spacing" textLength="34.4" x="42.6" y="335.0535">backs to menu</text><!--SRC=[hLR1Rjim3BtxAtHRTiXo3ue0MT427JOKI33iqeiYCx4oMT94ELd_VhJTsAuTsMgmastXyV6HZvByAVFUudAni8fhN-JgYp3v0k5F0Lh0F9Nyu7YU9BpmHXVv3Xoz2sySko_GcnpS3wxvWPOjTruAQOc6FVm5KNZO48rqa8Fs3oUk2kwbqJ-VsDsTTO2qMYsiLj6nzqPxPvG2HnpSMYN52CLtYVvvlsvXk0LtaW8e6EktNk0titkseAK-RC0Qb5JdAu5Typ74T-XlYI5aQd8kTL392ABJewq58VSJf1tyMkEvwc83h7oL9-vXO6tlcyrNKmul6SVVoBnXK0EPp-15C-kC04Hczkm4hX6CBvfMN4k6R4yZnjdHx9Yf-z3A6y-TJ4YRa_f-GKk6cJaZKpGnfRPEMfB6TTgKWw1044R3JLsfmx6ChvAyUJofUHMxBPQNXZzfNuuud5lOxDWCrUUuRhR4IMH-KXhS54ksbphz-jhEzbgdlwJF1dDvNMc8E0bcd7-aSSTtB9YaC9qvlYkJPn8vLuTUmSnwseRs1NaJPOojTXELarL3rpauaqbP0qFhJhsvCmlQqpEbQyLO3rhgSFyJhdm7o2GogHaA1_MtpJZ2RPMvmIJ65xYwShvEC0u2aY55W5TgM_YjTy3pHsVo3Q0fd817gO0oNA69AhVRzA6usomT9ecqvk9lkpDc0wxtzbn6fnDSKmLlodZk44KoHZ_lLqB_FONolTaUesxgY6ts5VxUBVEnBP42dTfqmfMyive-l2UWl2efV_ai3vwkaFzmqGIlxnqNzVrC-28sAVqh_0C0]--></g></svg>