<?xml version="1.0" encoding="us-ascii" standalone="no"?><svg xmlns="http://www.w3.org/2000/svg" xmlns:xlink="http://www.w3.org/1999/xlink" contentStyleType="text/css" height="558px" preserveAspectRatio="none" style="width:1627px;height:558px;background:#FFFFFF;" version="1.1" viewBox="0 0 1627 558" width="1627px" zoomAndPan="magnify"><defs/><g><!--class SelectInterviewModelSpecificationForJobOpeningUI--><g id="elem_SelectInterviewModelSpecificationForJobOpeningUI"><rect codeLine="3" fill="#F1F1F1" height="60.582" id="SelectInterviewModelSpecificationForJobOpeningUI" rx="2.5" ry="2.5" style="stroke:#181818;stroke-width:0.5;" width="354" x="74.8" y="7"/><ellipse cx="89.8" cy="29.291" fill="#ADD1B2" rx="11" ry="11" style="stroke:#181818;stroke-width:1.0;"/><path d="M92.5656,25.166 Q92.7219,24.9473 92.9094,24.8379 Q93.0969,24.7285 93.3156,24.7285 Q93.6906,24.7285 93.925,24.9941 Q94.1594,25.2441 94.1594,25.8535 L94.1594,27.3066 Q94.1594,27.916 93.925,28.1816 Q93.6906,28.4473 93.3156,28.4473 Q92.9719,28.4473 92.7688,28.2441 Q92.5656,28.0566 92.4563,27.541 Q92.4094,27.1816 92.2219,26.9941 Q91.8938,26.6191 91.2844,26.4004 Q90.675,26.1816 90.05,26.1816 Q89.2844,26.1816 88.6438,26.5098 Q88.0188,26.8379 87.5188,27.5879 Q87.0344,28.3379 87.0344,29.3691 L87.0344,30.4629 Q87.0344,31.6973 87.925,32.5254 Q88.8156,33.3379 90.4094,33.3379 Q91.3469,33.3379 92.0031,33.0879 Q92.3938,32.9316 92.8156,32.4941 Q93.0813,32.2285 93.2219,32.1504 Q93.3781,32.0723 93.5813,32.0723 Q93.9094,32.0723 94.1594,32.3379 Q94.425,32.5879 94.425,32.9316 Q94.425,33.2754 94.0813,33.6816 Q93.5813,34.2598 92.7844,34.5879 Q91.7063,35.041 90.4094,35.041 Q88.8938,35.041 87.6906,34.416 Q86.7063,33.916 86.0188,32.8535 Q85.3313,31.7754 85.3313,30.4941 L85.3313,29.3379 Q85.3313,28.0098 85.9406,26.8691 Q86.5656,25.7129 87.6594,25.1035 Q88.7531,24.4785 89.9875,24.4785 Q90.7219,24.4785 91.3625,24.6504 Q92.0188,24.8066 92.5656,25.166 Z " fill="#000000"/><text fill="#000000" font-family="sans-serif" font-size="12" font-style="italic" lengthAdjust="spacing" textLength="82" x="223.8" y="24.9492">&#171;presentation&#187;</text><text fill="#000000" font-family="sans-serif" font-size="14" lengthAdjust="spacing" textLength="322" x="103.8" y="43.0684">SelectInterviewModelSpecificationForJobOpeningUI</text><line style="stroke:#181818;stroke-width:0.5;" x1="75.8" x2="427.8" y1="51.582" y2="51.582"/><line style="stroke:#181818;stroke-width:0.5;" x1="75.8" x2="427.8" y1="59.582" y2="59.582"/></g><!--class SelectInterviewModelSpecificationForJobOpeningController--><g id="elem_SelectInterviewModelSpecificationForJobOpeningController"><rect codeLine="4" fill="#F1F1F1" height="60.582" id="SelectInterviewModelSpecificationForJobOpeningController" rx="2.5" ry="2.5" style="stroke:#181818;stroke-width:0.5;" width="404" x="463.8" y="7"/><ellipse cx="478.8" cy="29.291" fill="#ADD1B2" rx="11" ry="11" style="stroke:#181818;stroke-width:1.0;"/><path d="M481.5656,25.166 Q481.7219,24.9473 481.9094,24.8379 Q482.0969,24.7285 482.3156,24.7285 Q482.6906,24.7285 482.925,24.9941 Q483.1594,25.2441 483.1594,25.8535 L483.1594,27.3066 Q483.1594,27.916 482.925,28.1816 Q482.6906,28.4473 482.3156,28.4473 Q481.9719,28.4473 481.7688,28.2441 Q481.5656,28.0566 481.4563,27.541 Q481.4094,27.1816 481.2219,26.9941 Q480.8938,26.6191 480.2844,26.4004 Q479.675,26.1816 479.05,26.1816 Q478.2844,26.1816 477.6438,26.5098 Q477.0188,26.8379 476.5188,27.5879 Q476.0344,28.3379 476.0344,29.3691 L476.0344,30.4629 Q476.0344,31.6973 476.925,32.5254 Q477.8156,33.3379 479.4094,33.3379 Q480.3469,33.3379 481.0031,33.0879 Q481.3938,32.9316 481.8156,32.4941 Q482.0813,32.2285 482.2219,32.1504 Q482.3781,32.0723 482.5813,32.0723 Q482.9094,32.0723 483.1594,32.3379 Q483.425,32.5879 483.425,32.9316 Q483.425,33.2754 483.0813,33.6816 Q482.5813,34.2598 481.7844,34.5879 Q480.7063,35.041 479.4094,35.041 Q477.8938,35.041 476.6906,34.416 Q475.7063,33.916 475.0188,32.8535 Q474.3313,31.7754 474.3313,30.4941 L474.3313,29.3379 Q474.3313,28.0098 474.9406,26.8691 Q475.5656,25.7129 476.6594,25.1035 Q477.7531,24.4785 478.9875,24.4785 Q479.7219,24.4785 480.3625,24.6504 Q481.0188,24.8066 481.5656,25.166 Z " fill="#000000"/><text fill="#000000" font-family="sans-serif" font-size="12" font-style="italic" lengthAdjust="spacing" textLength="74" x="641.8" y="24.9492">&#171;application&#187;</text><text fill="#000000" font-family="sans-serif" font-size="14" lengthAdjust="spacing" textLength="372" x="492.8" y="43.0684">SelectInterviewModelSpecificationForJobOpeningController</text><line style="stroke:#181818;stroke-width:0.5;" x1="464.8" x2="866.8" y1="51.582" y2="51.582"/><line style="stroke:#181818;stroke-width:0.5;" x1="464.8" x2="866.8" y1="59.582" y2="59.582"/></g><!--class PersistenceContext--><g id="elem_PersistenceContext"><rect codeLine="5" fill="#F1F1F1" height="48" id="PersistenceContext" rx="2.5" ry="2.5" style="stroke:#181818;stroke-width:0.5;" width="154" x="902.8" y="13.5"/><ellipse cx="917.8" cy="29.5" fill="#ADD1B2" rx="11" ry="11" style="stroke:#181818;stroke-width:1.0;"/><path d="M920.5656,25.375 Q920.7219,25.1563 920.9094,25.0469 Q921.0969,24.9375 921.3156,24.9375 Q921.6906,24.9375 921.925,25.2031 Q922.1594,25.4531 922.1594,26.0625 L922.1594,27.5156 Q922.1594,28.125 921.925,28.3906 Q921.6906,28.6563 921.3156,28.6563 Q920.9719,28.6563 920.7688,28.4531 Q920.5656,28.2656 920.4563,27.75 Q920.4094,27.3906 920.2219,27.2031 Q919.8938,26.8281 919.2844,26.6094 Q918.675,26.3906 918.05,26.3906 Q917.2844,26.3906 916.6438,26.7188 Q916.0188,27.0469 915.5188,27.7969 Q915.0344,28.5469 915.0344,29.5781 L915.0344,30.6719 Q915.0344,31.9063 915.925,32.7344 Q916.8156,33.5469 918.4094,33.5469 Q919.3469,33.5469 920.0031,33.2969 Q920.3938,33.1406 920.8156,32.7031 Q921.0813,32.4375 921.2219,32.3594 Q921.3781,32.2813 921.5813,32.2813 Q921.9094,32.2813 922.1594,32.5469 Q922.425,32.7969 922.425,33.1406 Q922.425,33.4844 922.0813,33.8906 Q921.5813,34.4688 920.7844,34.7969 Q919.7063,35.25 918.4094,35.25 Q916.8938,35.25 915.6906,34.625 Q914.7063,34.125 914.0188,33.0625 Q913.3313,31.9844 913.3313,30.7031 L913.3313,29.5469 Q913.3313,28.2188 913.9406,27.0781 Q914.5656,25.9219 915.6594,25.3125 Q916.7531,24.6875 917.9875,24.6875 Q918.7219,24.6875 919.3625,24.8594 Q920.0188,25.0156 920.5656,25.375 Z " fill="#000000"/><text fill="#000000" font-family="sans-serif" font-size="14" lengthAdjust="spacing" textLength="122" x="931.8" y="35.2969">PersistenceContext</text><line style="stroke:#181818;stroke-width:0.5;" x1="903.8" x2="1055.8" y1="45.5" y2="45.5"/><line style="stroke:#181818;stroke-width:0.5;" x1="903.8" x2="1055.8" y1="53.5" y2="53.5"/></g><!--class RepositoryFactory--><g id="elem_RepositoryFactory"><rect codeLine="6" fill="#F1F1F1" height="48" id="RepositoryFactory" rx="2.5" ry="2.5" style="stroke:#181818;stroke-width:0.5;" width="148" x="812.8" y="134.5"/><ellipse cx="827.8" cy="150.5" fill="#B4A7E5" rx="11" ry="11" style="stroke:#181818;stroke-width:1.0;"/><path d="M828.7531,147.1406 L828.7531,153.7969 L830.4719,153.7969 Q831.0813,153.7969 831.3469,154.0313 Q831.6125,154.2656 831.6125,154.6563 Q831.6125,155.0313 831.3469,155.2656 Q831.0813,155.5 830.4719,155.5 L825.3313,155.5 Q824.7219,155.5 824.4563,155.2656 Q824.1906,155.0313 824.1906,154.6406 Q824.1906,154.2656 824.4563,154.0313 Q824.7219,153.7969 825.3313,153.7969 L827.05,153.7969 L827.05,147.1406 L825.3313,147.1406 Q824.7219,147.1406 824.4563,146.9063 Q824.1906,146.6719 824.1906,146.2813 Q824.1906,145.9063 824.4563,145.6719 Q824.7219,145.4375 825.3313,145.4375 L830.4719,145.4375 Q831.0813,145.4375 831.3469,145.6719 Q831.6125,145.9063 831.6125,146.2813 Q831.6125,146.6719 831.3469,146.9063 Q831.0813,147.1406 830.4719,147.1406 L828.7531,147.1406 Z " fill="#000000"/><text fill="#000000" font-family="sans-serif" font-size="14" font-style="italic" lengthAdjust="spacing" textLength="116" x="841.8" y="156.2969">RepositoryFactory</text><line style="stroke:#181818;stroke-width:0.5;" x1="813.8" x2="959.8" y1="166.5" y2="166.5"/><line style="stroke:#181818;stroke-width:0.5;" x1="813.8" x2="959.8" y1="174.5" y2="174.5"/></g><!--class JobOpeningRepository--><g id="elem_JobOpeningRepository"><rect codeLine="7" fill="#F1F1F1" height="60.582" id="JobOpeningRepository" rx="2.5" ry="2.5" style="stroke:#181818;stroke-width:0.5;" width="177" x="912.3" y="249"/><ellipse cx="927.3" cy="271.291" fill="#B4A7E5" rx="11" ry="11" style="stroke:#181818;stroke-width:1.0;"/><path d="M928.2531,267.9316 L928.2531,274.5879 L929.9719,274.5879 Q930.5813,274.5879 930.8469,274.8223 Q931.1125,275.0566 931.1125,275.4473 Q931.1125,275.8223 930.8469,276.0566 Q930.5813,276.291 929.9719,276.291 L924.8313,276.291 Q924.2219,276.291 923.9563,276.0566 Q923.6906,275.8223 923.6906,275.4316 Q923.6906,275.0566 923.9563,274.8223 Q924.2219,274.5879 924.8313,274.5879 L926.55,274.5879 L926.55,267.9316 L924.8313,267.9316 Q924.2219,267.9316 923.9563,267.6973 Q923.6906,267.4629 923.6906,267.0723 Q923.6906,266.6973 923.9563,266.4629 Q924.2219,266.2285 924.8313,266.2285 L929.9719,266.2285 Q930.5813,266.2285 930.8469,266.4629 Q931.1125,266.6973 931.1125,267.0723 Q931.1125,267.4629 930.8469,267.6973 Q930.5813,267.9316 929.9719,267.9316 L928.2531,267.9316 Z " fill="#000000"/><text fill="#000000" font-family="sans-serif" font-size="12" font-style="italic" lengthAdjust="spacing" textLength="68" x="979.8" y="266.9492">&#171;repository&#187;</text><text fill="#000000" font-family="sans-serif" font-size="14" font-style="italic" lengthAdjust="spacing" textLength="145" x="941.3" y="285.0684">JobOpeningRepository</text><line style="stroke:#181818;stroke-width:0.5;" x1="913.3" x2="1088.3" y1="293.582" y2="293.582"/><line style="stroke:#181818;stroke-width:0.5;" x1="913.3" x2="1088.3" y1="301.582" y2="301.582"/></g><!--class InterviewModelSpecificationRepository--><g id="elem_InterviewModelSpecificationRepository"><rect codeLine="8" fill="#F1F1F1" height="60.582" id="InterviewModelSpecificationRepository" rx="2.5" ry="2.5" style="stroke:#181818;stroke-width:0.5;" width="274" x="421.8" y="249"/><ellipse cx="436.8" cy="271.291" fill="#B4A7E5" rx="11" ry="11" style="stroke:#181818;stroke-width:1.0;"/><path d="M437.7531,267.9316 L437.7531,274.5879 L439.4719,274.5879 Q440.0813,274.5879 440.3469,274.8223 Q440.6125,275.0566 440.6125,275.4473 Q440.6125,275.8223 440.3469,276.0566 Q440.0813,276.291 439.4719,276.291 L434.3313,276.291 Q433.7219,276.291 433.4563,276.0566 Q433.1906,275.8223 433.1906,275.4316 Q433.1906,275.0566 433.4563,274.8223 Q433.7219,274.5879 434.3313,274.5879 L436.05,274.5879 L436.05,267.9316 L434.3313,267.9316 Q433.7219,267.9316 433.4563,267.6973 Q433.1906,267.4629 433.1906,267.0723 Q433.1906,266.6973 433.4563,266.4629 Q433.7219,266.2285 434.3313,266.2285 L439.4719,266.2285 Q440.0813,266.2285 440.3469,266.4629 Q440.6125,266.6973 440.6125,267.0723 Q440.6125,267.4629 440.3469,267.6973 Q440.0813,267.9316 439.4719,267.9316 L437.7531,267.9316 Z " fill="#000000"/><text fill="#000000" font-family="sans-serif" font-size="12" font-style="italic" lengthAdjust="spacing" textLength="68" x="537.8" y="266.9492">&#171;repository&#187;</text><text fill="#000000" font-family="sans-serif" font-size="14" font-style="italic" lengthAdjust="spacing" textLength="242" x="450.8" y="285.0684">InterviewModelSpecificationRepository</text><line style="stroke:#181818;stroke-width:0.5;" x1="422.8" x2="694.8" y1="293.582" y2="293.582"/><line style="stroke:#181818;stroke-width:0.5;" x1="422.8" x2="694.8" y1="301.582" y2="301.582"/></g><!--class InMemoryJobOpeningRepository--><g id="elem_InMemoryJobOpeningRepository"><rect codeLine="9" fill="#F1F1F1" height="60.582" id="InMemoryJobOpeningRepository" rx="2.5" ry="2.5" style="stroke:#181818;stroke-width:0.5;" width="237" x="996.3" y="128"/><ellipse cx="1011.3" cy="150.291" fill="#ADD1B2" rx="11" ry="11" style="stroke:#181818;stroke-width:1.0;"/><path d="M1014.0656,146.166 Q1014.2219,145.9473 1014.4094,145.8379 Q1014.5969,145.7285 1014.8156,145.7285 Q1015.1906,145.7285 1015.425,145.9941 Q1015.6594,146.2441 1015.6594,146.8535 L1015.6594,148.3066 Q1015.6594,148.916 1015.425,149.1816 Q1015.1906,149.4473 1014.8156,149.4473 Q1014.4719,149.4473 1014.2688,149.2441 Q1014.0656,149.0566 1013.9563,148.541 Q1013.9094,148.1816 1013.7219,147.9941 Q1013.3938,147.6191 1012.7844,147.4004 Q1012.175,147.1816 1011.55,147.1816 Q1010.7844,147.1816 1010.1438,147.5098 Q1009.5188,147.8379 1009.0188,148.5879 Q1008.5344,149.3379 1008.5344,150.3691 L1008.5344,151.4629 Q1008.5344,152.6973 1009.425,153.5254 Q1010.3156,154.3379 1011.9094,154.3379 Q1012.8469,154.3379 1013.5031,154.0879 Q1013.8938,153.9316 1014.3156,153.4941 Q1014.5813,153.2285 1014.7219,153.1504 Q1014.8781,153.0723 1015.0813,153.0723 Q1015.4094,153.0723 1015.6594,153.3379 Q1015.925,153.5879 1015.925,153.9316 Q1015.925,154.2754 1015.5813,154.6816 Q1015.0813,155.2598 1014.2844,155.5879 Q1013.2063,156.041 1011.9094,156.041 Q1010.3938,156.041 1009.1906,155.416 Q1008.2063,154.916 1007.5188,153.8535 Q1006.8313,152.7754 1006.8313,151.4941 L1006.8313,150.3379 Q1006.8313,149.0098 1007.4406,147.8691 Q1008.0656,146.7129 1009.1594,146.1035 Q1010.2531,145.4785 1011.4875,145.4785 Q1012.2219,145.4785 1012.8625,145.6504 Q1013.5188,145.8066 1014.0656,146.166 Z " fill="#000000"/><text fill="#000000" font-family="sans-serif" font-size="12" font-style="italic" lengthAdjust="spacing" textLength="77" x="1089.3" y="145.9492">&#171;persistence&#187;</text><text fill="#000000" font-family="sans-serif" font-size="14" lengthAdjust="spacing" textLength="205" x="1025.3" y="164.0684">InMemoryJobOpeningRepository</text><line style="stroke:#181818;stroke-width:0.5;" x1="997.3" x2="1232.3" y1="172.582" y2="172.582"/><line style="stroke:#181818;stroke-width:0.5;" x1="997.3" x2="1232.3" y1="180.582" y2="180.582"/></g><!--class JpaJobOpeningRepository--><g id="elem_JpaJobOpeningRepository"><rect codeLine="10" fill="#F1F1F1" height="60.582" id="JpaJobOpeningRepository" rx="2.5" ry="2.5" style="stroke:#181818;stroke-width:0.5;" width="198" x="1268.8" y="128"/><ellipse cx="1283.8" cy="150.291" fill="#ADD1B2" rx="11" ry="11" style="stroke:#181818;stroke-width:1.0;"/><path d="M1286.5656,146.166 Q1286.7219,145.9473 1286.9094,145.8379 Q1287.0969,145.7285 1287.3156,145.7285 Q1287.6906,145.7285 1287.925,145.9941 Q1288.1594,146.2441 1288.1594,146.8535 L1288.1594,148.3066 Q1288.1594,148.916 1287.925,149.1816 Q1287.6906,149.4473 1287.3156,149.4473 Q1286.9719,149.4473 1286.7688,149.2441 Q1286.5656,149.0566 1286.4563,148.541 Q1286.4094,148.1816 1286.2219,147.9941 Q1285.8938,147.6191 1285.2844,147.4004 Q1284.675,147.1816 1284.05,147.1816 Q1283.2844,147.1816 1282.6438,147.5098 Q1282.0188,147.8379 1281.5188,148.5879 Q1281.0344,149.3379 1281.0344,150.3691 L1281.0344,151.4629 Q1281.0344,152.6973 1281.925,153.5254 Q1282.8156,154.3379 1284.4094,154.3379 Q1285.3469,154.3379 1286.0031,154.0879 Q1286.3938,153.9316 1286.8156,153.4941 Q1287.0813,153.2285 1287.2219,153.1504 Q1287.3781,153.0723 1287.5813,153.0723 Q1287.9094,153.0723 1288.1594,153.3379 Q1288.425,153.5879 1288.425,153.9316 Q1288.425,154.2754 1288.0813,154.6816 Q1287.5813,155.2598 1286.7844,155.5879 Q1285.7063,156.041 1284.4094,156.041 Q1282.8938,156.041 1281.6906,155.416 Q1280.7063,154.916 1280.0188,153.8535 Q1279.3313,152.7754 1279.3313,151.4941 L1279.3313,150.3379 Q1279.3313,149.0098 1279.9406,147.8691 Q1280.5656,146.7129 1281.6594,146.1035 Q1282.7531,145.4785 1283.9875,145.4785 Q1284.7219,145.4785 1285.3625,145.6504 Q1286.0188,145.8066 1286.5656,146.166 Z " fill="#000000"/><text fill="#000000" font-family="sans-serif" font-size="12" font-style="italic" lengthAdjust="spacing" textLength="77" x="1342.3" y="145.9492">&#171;persistence&#187;</text><text fill="#000000" font-family="sans-serif" font-size="14" lengthAdjust="spacing" textLength="166" x="1297.8" y="164.0684">JpaJobOpeningRepository</text><line style="stroke:#181818;stroke-width:0.5;" x1="1269.8" x2="1465.8" y1="172.582" y2="172.582"/><line style="stroke:#181818;stroke-width:0.5;" x1="1269.8" x2="1465.8" y1="180.582" y2="180.582"/></g><!--class InMemoryInterviewModelSpecificationRepository--><g id="elem_InMemoryInterviewModelSpecificationRepository"><rect codeLine="11" fill="#F1F1F1" height="60.582" id="InMemoryInterviewModelSpecificationRepository" rx="2.5" ry="2.5" style="stroke:#181818;stroke-width:0.5;" width="334" x="41.8" y="128"/><ellipse cx="56.8" cy="150.291" fill="#ADD1B2" rx="11" ry="11" style="stroke:#181818;stroke-width:1.0;"/><path d="M59.5656,146.166 Q59.7219,145.9473 59.9094,145.8379 Q60.0969,145.7285 60.3156,145.7285 Q60.6906,145.7285 60.925,145.9941 Q61.1594,146.2441 61.1594,146.8535 L61.1594,148.3066 Q61.1594,148.916 60.925,149.1816 Q60.6906,149.4473 60.3156,149.4473 Q59.9719,149.4473 59.7688,149.2441 Q59.5656,149.0566 59.4563,148.541 Q59.4094,148.1816 59.2219,147.9941 Q58.8938,147.6191 58.2844,147.4004 Q57.675,147.1816 57.05,147.1816 Q56.2844,147.1816 55.6438,147.5098 Q55.0188,147.8379 54.5188,148.5879 Q54.0344,149.3379 54.0344,150.3691 L54.0344,151.4629 Q54.0344,152.6973 54.925,153.5254 Q55.8156,154.3379 57.4094,154.3379 Q58.3469,154.3379 59.0031,154.0879 Q59.3938,153.9316 59.8156,153.4941 Q60.0813,153.2285 60.2219,153.1504 Q60.3781,153.0723 60.5813,153.0723 Q60.9094,153.0723 61.1594,153.3379 Q61.425,153.5879 61.425,153.9316 Q61.425,154.2754 61.0813,154.6816 Q60.5813,155.2598 59.7844,155.5879 Q58.7063,156.041 57.4094,156.041 Q55.8938,156.041 54.6906,155.416 Q53.7063,154.916 53.0188,153.8535 Q52.3313,152.7754 52.3313,151.4941 L52.3313,150.3379 Q52.3313,149.0098 52.9406,147.8691 Q53.5656,146.7129 54.6594,146.1035 Q55.7531,145.4785 56.9875,145.4785 Q57.7219,145.4785 58.3625,145.6504 Q59.0188,145.8066 59.5656,146.166 Z " fill="#000000"/><text fill="#000000" font-family="sans-serif" font-size="12" font-style="italic" lengthAdjust="spacing" textLength="77" x="183.3" y="145.9492">&#171;persistence&#187;</text><text fill="#000000" font-family="sans-serif" font-size="14" lengthAdjust="spacing" textLength="302" x="70.8" y="164.0684">InMemoryInterviewModelSpecificationRepository</text><line style="stroke:#181818;stroke-width:0.5;" x1="42.8" x2="374.8" y1="172.582" y2="172.582"/><line style="stroke:#181818;stroke-width:0.5;" x1="42.8" x2="374.8" y1="180.582" y2="180.582"/></g><!--class JpaInterviewModelSpecificationRepository--><g id="elem_JpaInterviewModelSpecificationRepository"><rect codeLine="12" fill="#F1F1F1" height="60.582" id="JpaInterviewModelSpecificationRepository" rx="2.5" ry="2.5" style="stroke:#181818;stroke-width:0.5;" width="295" x="411.3" y="128"/><ellipse cx="426.3" cy="150.291" fill="#ADD1B2" rx="11" ry="11" style="stroke:#181818;stroke-width:1.0;"/><path d="M429.0656,146.166 Q429.2219,145.9473 429.4094,145.8379 Q429.5969,145.7285 429.8156,145.7285 Q430.1906,145.7285 430.425,145.9941 Q430.6594,146.2441 430.6594,146.8535 L430.6594,148.3066 Q430.6594,148.916 430.425,149.1816 Q430.1906,149.4473 429.8156,149.4473 Q429.4719,149.4473 429.2688,149.2441 Q429.0656,149.0566 428.9563,148.541 Q428.9094,148.1816 428.7219,147.9941 Q428.3938,147.6191 427.7844,147.4004 Q427.175,147.1816 426.55,147.1816 Q425.7844,147.1816 425.1438,147.5098 Q424.5188,147.8379 424.0188,148.5879 Q423.5344,149.3379 423.5344,150.3691 L423.5344,151.4629 Q423.5344,152.6973 424.425,153.5254 Q425.3156,154.3379 426.9094,154.3379 Q427.8469,154.3379 428.5031,154.0879 Q428.8938,153.9316 429.3156,153.4941 Q429.5813,153.2285 429.7219,153.1504 Q429.8781,153.0723 430.0813,153.0723 Q430.4094,153.0723 430.6594,153.3379 Q430.925,153.5879 430.925,153.9316 Q430.925,154.2754 430.5813,154.6816 Q430.0813,155.2598 429.2844,155.5879 Q428.2063,156.041 426.9094,156.041 Q425.3938,156.041 424.1906,155.416 Q423.2063,154.916 422.5188,153.8535 Q421.8313,152.7754 421.8313,151.4941 L421.8313,150.3379 Q421.8313,149.0098 422.4406,147.8691 Q423.0656,146.7129 424.1594,146.1035 Q425.2531,145.4785 426.4875,145.4785 Q427.2219,145.4785 427.8625,145.6504 Q428.5188,145.8066 429.0656,146.166 Z " fill="#000000"/><text fill="#000000" font-family="sans-serif" font-size="12" font-style="italic" lengthAdjust="spacing" textLength="77" x="533.3" y="145.9492">&#171;persistence&#187;</text><text fill="#000000" font-family="sans-serif" font-size="14" lengthAdjust="spacing" textLength="263" x="440.3" y="164.0684">JpaInterviewModelSpecificationRepository</text><line style="stroke:#181818;stroke-width:0.5;" x1="412.3" x2="705.3" y1="172.582" y2="172.582"/><line style="stroke:#181818;stroke-width:0.5;" x1="412.3" x2="705.3" y1="180.582" y2="180.582"/></g><!--class JobOpening--><g id="elem_JobOpening"><rect codeLine="13" fill="#F1F1F1" height="60.582" id="JobOpening" rx="2.5" ry="2.5" style="stroke:#181818;stroke-width:0.5;" width="108" x="946.8" y="370"/><ellipse cx="961.8" cy="392.291" fill="#ADD1B2" rx="11" ry="11" style="stroke:#181818;stroke-width:1.0;"/><path d="M964.5656,388.166 Q964.7219,387.9473 964.9094,387.8379 Q965.0969,387.7285 965.3156,387.7285 Q965.6906,387.7285 965.925,387.9941 Q966.1594,388.2441 966.1594,388.8535 L966.1594,390.3066 Q966.1594,390.916 965.925,391.1816 Q965.6906,391.4473 965.3156,391.4473 Q964.9719,391.4473 964.7688,391.2441 Q964.5656,391.0566 964.4563,390.541 Q964.4094,390.1816 964.2219,389.9941 Q963.8938,389.6191 963.2844,389.4004 Q962.675,389.1816 962.05,389.1816 Q961.2844,389.1816 960.6438,389.5098 Q960.0188,389.8379 959.5188,390.5879 Q959.0344,391.3379 959.0344,392.3691 L959.0344,393.4629 Q959.0344,394.6973 959.925,395.5254 Q960.8156,396.3379 962.4094,396.3379 Q963.3469,396.3379 964.0031,396.0879 Q964.3938,395.9316 964.8156,395.4941 Q965.0813,395.2285 965.2219,395.1504 Q965.3781,395.0723 965.5813,395.0723 Q965.9094,395.0723 966.1594,395.3379 Q966.425,395.5879 966.425,395.9316 Q966.425,396.2754 966.0813,396.6816 Q965.5813,397.2598 964.7844,397.5879 Q963.7063,398.041 962.4094,398.041 Q960.8938,398.041 959.6906,397.416 Q958.7063,396.916 958.0188,395.8535 Q957.3313,394.7754 957.3313,393.4941 L957.3313,392.3379 Q957.3313,391.0098 957.9406,389.8691 Q958.5656,388.7129 959.6594,388.1035 Q960.7531,387.4785 961.9875,387.4785 Q962.7219,387.4785 963.3625,387.6504 Q964.0188,387.8066 964.5656,388.166 Z " fill="#000000"/><text fill="#000000" font-family="sans-serif" font-size="12" font-style="italic" lengthAdjust="spacing" textLength="56" x="985.8" y="387.9492">&#171;domain&#187;</text><text fill="#000000" font-family="sans-serif" font-size="14" lengthAdjust="spacing" textLength="76" x="975.8" y="406.0684">JobOpening</text><line style="stroke:#181818;stroke-width:0.5;" x1="947.8" x2="1053.8" y1="414.582" y2="414.582"/><line style="stroke:#181818;stroke-width:0.5;" x1="947.8" x2="1053.8" y1="422.582" y2="422.582"/></g><!--class InterviewModelSpecification--><g id="elem_InterviewModelSpecification"><rect codeLine="14" fill="#F1F1F1" height="60.582" id="InterviewModelSpecification" rx="2.5" ry="2.5" style="stroke:#181818;stroke-width:0.5;" width="205" x="734.3" y="491"/><ellipse cx="749.3" cy="513.291" fill="#ADD1B2" rx="11" ry="11" style="stroke:#181818;stroke-width:1.0;"/><path d="M752.0656,509.166 Q752.2219,508.9473 752.4094,508.8379 Q752.5969,508.7285 752.8156,508.7285 Q753.1906,508.7285 753.425,508.9941 Q753.6594,509.2441 753.6594,509.8535 L753.6594,511.3066 Q753.6594,511.916 753.425,512.1816 Q753.1906,512.4473 752.8156,512.4473 Q752.4719,512.4473 752.2688,512.2441 Q752.0656,512.0566 751.9563,511.541 Q751.9094,511.1816 751.7219,510.9941 Q751.3938,510.6191 750.7844,510.4004 Q750.175,510.1816 749.55,510.1816 Q748.7844,510.1816 748.1438,510.5098 Q747.5188,510.8379 747.0188,511.5879 Q746.5344,512.3379 746.5344,513.3691 L746.5344,514.4629 Q746.5344,515.6973 747.425,516.5254 Q748.3156,517.3379 749.9094,517.3379 Q750.8469,517.3379 751.5031,517.0879 Q751.8938,516.9316 752.3156,516.4941 Q752.5813,516.2285 752.7219,516.1504 Q752.8781,516.0723 753.0813,516.0723 Q753.4094,516.0723 753.6594,516.3379 Q753.925,516.5879 753.925,516.9316 Q753.925,517.2754 753.5813,517.6816 Q753.0813,518.2598 752.2844,518.5879 Q751.2063,519.041 749.9094,519.041 Q748.3938,519.041 747.1906,518.416 Q746.2063,517.916 745.5188,516.8535 Q744.8313,515.7754 744.8313,514.4941 L744.8313,513.3379 Q744.8313,512.0098 745.4406,510.8691 Q746.0656,509.7129 747.1594,509.1035 Q748.2531,508.4785 749.4875,508.4785 Q750.2219,508.4785 750.8625,508.6504 Q751.5188,508.8066 752.0656,509.166 Z " fill="#000000"/><text fill="#000000" font-family="sans-serif" font-size="12" font-style="italic" lengthAdjust="spacing" textLength="56" x="821.8" y="508.9492">&#171;domain&#187;</text><text fill="#000000" font-family="sans-serif" font-size="14" lengthAdjust="spacing" textLength="173" x="763.3" y="527.0684">InterviewModelSpecification</text><line style="stroke:#181818;stroke-width:0.5;" x1="735.3" x2="938.3" y1="535.582" y2="535.582"/><line style="stroke:#181818;stroke-width:0.5;" x1="735.3" x2="938.3" y1="543.582" y2="543.582"/></g><!--link SelectInterviewModelSpecificationForJobOpeningUI to SelectInterviewModelSpecificationForJobOpeningController--><g id="link_SelectInterviewModelSpecificationForJobOpeningUI_SelectInterviewModelSpecificationForJobOpeningController"><path codeLine="16" d="M428.88,37.5 C440.45,37.5 446.02,37.5 457.59,37.5 " fill="none" id="SelectInterviewModelSpecificationForJobOpeningUI-to-SelectInterviewModelSpecificationForJobOpeningController" style="stroke:#181818;stroke-width:1.0;"/><polygon fill="#181818" points="463.59,37.5,454.59,33.5,458.59,37.5,454.59,41.5,463.59,37.5" style="stroke:#181818;stroke-width:1.0;"/></g><!--link SelectInterviewModelSpecificationForJobOpeningController to PersistenceContext--><g id="link_SelectInterviewModelSpecificationForJobOpeningController_PersistenceContext"><path codeLine="17" d="M867.88,37.5 C879.39,37.5 884.9,37.5 896.42,37.5 " fill="none" id="SelectInterviewModelSpecificationForJobOpeningController-to-PersistenceContext" style="stroke:#181818;stroke-width:1.0;"/><polygon fill="#181818" points="902.42,37.5,893.42,33.5,897.42,37.5,893.42,41.5,902.42,37.5" style="stroke:#181818;stroke-width:1.0;"/></g><!--link PersistenceContext to RepositoryFactory--><g id="link_PersistenceContext_RepositoryFactory"><path codeLine="18" d="M961.65,61.73 C945.26,82.69 924.9743,108.6522 908.6043,129.6022 " fill="none" id="PersistenceContext-to-RepositoryFactory" style="stroke:#181818;stroke-width:1.0;"/><polygon fill="#181818" points="904.91,134.33,913.6033,129.7011,907.9885,130.3901,907.2995,124.7754,904.91,134.33" style="stroke:#181818;stroke-width:1.0;"/></g><!--link SelectInterviewModelSpecificationForJobOpeningController to JobOpeningRepository--><g id="link_SelectInterviewModelSpecificationForJobOpeningController_JobOpeningRepository"><path codeLine="19" d="M684.97,68.04 C707.76,101.22 748.57,154.86 794.8,189 C830.01,215 868.3505,233.2546 906.5905,247.9746 " fill="none" id="SelectInterviewModelSpecificationForJobOpeningController-to-JobOpeningRepository" style="stroke:#181818;stroke-width:1.0;stroke-dasharray:7.0,7.0;"/><polygon fill="#181818" points="912.19,250.13,905.2278,243.1639,907.5238,248.3338,902.3538,250.6298,912.19,250.13" style="stroke:#181818;stroke-width:1.0;"/></g><!--link SelectInterviewModelSpecificationForJobOpeningController to InterviewModelSpecificationRepository--><g id="link_SelectInterviewModelSpecificationForJobOpeningController_InterviewModelSpecificationRepository"><path codeLine="20" d="M463.45,65.92 C275.97,91.45 25.65,125.88 23.8,128 C6,148.45 6.28,168.31 23.8,189 C73.85,248.12 274.487,267.9208 415.807,274.7408 " fill="none" id="SelectInterviewModelSpecificationForJobOpeningController-to-InterviewModelSpecificationRepository" style="stroke:#181818;stroke-width:1.0;stroke-dasharray:7.0,7.0;"/><polygon fill="#181818" points="421.8,275.03,413.0033,270.6008,416.8058,274.789,412.6176,278.5915,421.8,275.03" style="stroke:#181818;stroke-width:1.0;"/></g><!--link RepositoryFactory to JobOpeningRepository--><g id="link_RepositoryFactory_JobOpeningRepository"><path codeLine="21" d="M909.05,182.73 C927.19,201.67 948.7794,224.1973 968.3794,244.6573 " fill="none" id="RepositoryFactory-to-JobOpeningRepository" style="stroke:#181818;stroke-width:1.0;"/><polygon fill="#181818" points="972.53,248.99,969.1926,239.7238,969.0712,245.3794,963.4156,245.258,972.53,248.99" style="stroke:#181818;stroke-width:1.0;"/></g><!--link RepositoryFactory to InterviewModelSpecificationRepository--><g id="link_RepositoryFactory_InterviewModelSpecificationRepository"><path codeLine="22" d="M823.17,182.59 C771.01,201.51 702.4703,226.3739 645.9603,246.8739 " fill="none" id="RepositoryFactory-to-InterviewModelSpecificationRepository" style="stroke:#181818;stroke-width:1.0;"/><polygon fill="#181818" points="640.32,248.92,650.1446,249.611,645.0203,247.2149,647.4164,242.0906,640.32,248.92" style="stroke:#181818;stroke-width:1.0;"/></g><!--link SelectInterviewModelSpecificationForJobOpeningController to JobOpening--><g id="link_SelectInterviewModelSpecificationForJobOpeningController_JobOpening"><path codeLine="23" d="M868.02,66 C873.67,66.68 879.28,67.35 884.8,68 C951.34,75.81 1439.84,78.32 1484.8,128 C1620.64,278.1 1213.3232,363.6931 1060.8532,389.9131 " fill="none" id="SelectInterviewModelSpecificationForJobOpeningController-to-JobOpening" style="stroke:#181818;stroke-width:1.0;stroke-dasharray:7.0,7.0;"/><polygon fill="#181818" points="1054.94,390.93,1064.4877,393.3468,1059.8677,390.0826,1063.1319,385.4625,1054.94,390.93" style="stroke:#181818;stroke-width:1.0;"/></g><!--link JobOpeningRepository to JobOpening--><g id="link_JobOpeningRepository_JobOpening"><path codeLine="24" d="M1000.8,310.22 C1000.8,328.4 1000.8,345.56 1000.8,363.74 " fill="none" id="JobOpeningRepository-to-JobOpening" style="stroke:#181818;stroke-width:1.0;"/><polygon fill="#181818" points="1000.8,369.74,1004.8,360.74,1000.8,364.74,996.8,360.74,1000.8,369.74" style="stroke:#181818;stroke-width:1.0;"/></g><!--link InterviewModelSpecificationRepository to InterviewModelSpecification--><g id="link_InterviewModelSpecificationRepository_InterviewModelSpecification"><path codeLine="25" d="M593.17,310.17 C646.63,356.32 744.5584,440.8691 797.9684,486.9791 " fill="none" id="InterviewModelSpecificationRepository-to-InterviewModelSpecification" style="stroke:#181818;stroke-width:1.0;"/><polygon fill="#181818" points="802.51,490.9,798.3115,481.9909,798.7253,487.6326,793.0836,488.0464,802.51,490.9" style="stroke:#181818;stroke-width:1.0;"/></g><!--link JpaJobOpeningRepository to JobOpeningRepository--><g id="link_JpaJobOpeningRepository_JobOpeningRepository"><path codeLine="26" d="M1276.61,189.07 C1219.4,207.62 1163.1228,225.8694 1106.4228,244.2494 " fill="none" id="JpaJobOpeningRepository-to-JobOpeningRepository" style="stroke:#181818;stroke-width:1.0;"/><polygon fill="none" points="1089.3,249.8,1108.273,249.957,1104.5726,238.5418,1089.3,249.8" style="stroke:#181818;stroke-width:1.0;"/></g><!--link InMemoryJobOpeningRepository to JobOpeningRepository--><g id="link_InMemoryJobOpeningRepository_JobOpeningRepository"><path codeLine="27" d="M1086.33,189.22 C1068.92,207.4 1059.1696,217.5597 1041.7596,235.7397 " fill="none" id="InMemoryJobOpeningRepository-to-JobOpeningRepository" style="stroke:#181818;stroke-width:1.0;"/><polygon fill="none" points="1029.31,248.74,1046.0931,239.8896,1037.4262,231.5899,1029.31,248.74" style="stroke:#181818;stroke-width:1.0;"/></g><!--link InMemoryInterviewModelSpecificationRepository to InterviewModelSpecificationRepository--><g id="link_InMemoryInterviewModelSpecificationRepository_InterviewModelSpecificationRepository"><path codeLine="28" d="M295.77,189.07 C349.52,207.34 401.2083,224.9152 454.9383,243.1852 " fill="none" id="InMemoryInterviewModelSpecificationRepository-to-InterviewModelSpecificationRepository" style="stroke:#181818;stroke-width:1.0;"/><polygon fill="none" points="471.98,248.98,456.8699,237.5047,453.0067,248.8658,471.98,248.98" style="stroke:#181818;stroke-width:1.0;"/></g><!--link JpaInterviewModelSpecificationRepository to InterviewModelSpecificationRepository--><g id="link_JpaInterviewModelSpecificationRepository_InterviewModelSpecificationRepository"><path codeLine="29" d="M558.8,189.22 C558.8,207.4 558.8,212.56 558.8,230.74 " fill="none" id="JpaInterviewModelSpecificationRepository-to-InterviewModelSpecificationRepository" style="stroke:#181818;stroke-width:1.0;"/><polygon fill="none" points="558.8,248.74,564.8,230.74,552.8,230.74,558.8,248.74" style="stroke:#181818;stroke-width:1.0;"/></g><!--link JobOpening to InterviewModelSpecification--><g id="link_JobOpening_InterviewModelSpecification"><path codeLine="30" d="M959.84,431.22 C934.7,449.46 907.4765,469.2166 882.3765,487.4266 " fill="none" id="JobOpening-to-InterviewModelSpecification" style="stroke:#181818;stroke-width:1.0;"/><polygon fill="#181818" points="877.52,490.95,887.1537,488.9026,881.5671,488.0138,882.4558,482.4272,877.52,490.95" style="stroke:#181818;stroke-width:1.0;"/></g><!--SRC=[hLJBReCm4BpxAxZr1DohY4kbI4IAMZNg1xXcarhoI_Rs9UNZQsYBgS31a9wGxTcPsMNicnT4usxBqWYgy5MAWcbPCa6TonjEJvPAGhfbTW0136k5ODyulEzr0-9WWF4ZPnIvLbjjT_hvte3YwlHKPvkDiU10ONTQLQjuxhH2guK0w_ceCU87rDCzW7NS8IW6BHO-aF2M-qWPP8zWjEEexUUMilOpE0iQ0UKrRB_m4W5zmM-y_DjXhVOW_KP4q8G6-fATeGlGlmAf7YEALvNtRZsWqP9oDR0NvHs2oUA0vTNgC97LAVIY4v4RRsMvHuxpjrgtAAh9o5x7cFJFoQYDhhb9DzFGD9b_cWsPl3f_7PEqiCzu9x5xckVdo7mkFWRpPQcspwapJxxtIpZ3Op0tm2y0]--></g></svg>