<?xml version="1.0" encoding="us-ascii" standalone="no"?><svg xmlns="http://www.w3.org/2000/svg" xmlns:xlink="http://www.w3.org/1999/xlink" contentStyleType="text/css" height="1314px" preserveAspectRatio="none" style="width:2234px;height:1314px;background:#FFFFFF;" version="1.1" viewBox="0 0 2234 1314" width="2234px" zoomAndPan="magnify"><defs/><g><!--class Candidate--><g id="elem_Candidate"><rect codeLine="2" fill="#F1F1F1" height="290.0742" id="Candidate" rx="2.5" ry="2.5" style="stroke:#181818;stroke-width:0.5;" width="524" x="711.5" y="7"/><ellipse cx="936.75" cy="23" fill="#ADD1B2" rx="11" ry="11" style="stroke:#181818;stroke-width:1.0;"/><path d="M939.5156,18.875 Q939.6719,18.6563 939.8594,18.5469 Q940.0469,18.4375 940.2656,18.4375 Q940.6406,18.4375 940.875,18.7031 Q941.1094,18.9531 941.1094,19.5625 L941.1094,21.0156 Q941.1094,21.625 940.875,21.8906 Q940.6406,22.1563 940.2656,22.1563 Q939.9219,22.1563 939.7188,21.9531 Q939.5156,21.7656 939.4063,21.25 Q939.3594,20.8906 939.1719,20.7031 Q938.8438,20.3281 938.2344,20.1094 Q937.625,19.8906 937,19.8906 Q936.2344,19.8906 935.5938,20.2188 Q934.9688,20.5469 934.4688,21.2969 Q933.9844,22.0469 933.9844,23.0781 L933.9844,24.1719 Q933.9844,25.4063 934.875,26.2344 Q935.7656,27.0469 937.3594,27.0469 Q938.2969,27.0469 938.9531,26.7969 Q939.3438,26.6406 939.7656,26.2031 Q940.0313,25.9375 940.1719,25.8594 Q940.3281,25.7813 940.5313,25.7813 Q940.8594,25.7813 941.1094,26.0469 Q941.375,26.2969 941.375,26.6406 Q941.375,26.9844 941.0313,27.3906 Q940.5313,27.9688 939.7344,28.2969 Q938.6563,28.75 937.3594,28.75 Q935.8438,28.75 934.6406,28.125 Q933.6563,27.625 932.9688,26.5625 Q932.2813,25.4844 932.2813,24.2031 L932.2813,23.0469 Q932.2813,21.7188 932.8906,20.5781 Q933.5156,19.4219 934.6094,18.8125 Q935.7031,18.1875 936.9375,18.1875 Q937.6719,18.1875 938.3125,18.3594 Q938.9688,18.5156 939.5156,18.875 Z " fill="#000000"/><text fill="#000000" font-family="sans-serif" font-size="14" lengthAdjust="spacing" textLength="65" x="957.25" y="28.7969">Candidate</text><line style="stroke:#181818;stroke-width:0.5;" x1="712.5" x2="1234.5" y1="39" y2="39"/><rect fill="none" height="6" style="stroke:#C82930;stroke-width:1.0;" width="6" x="719.5" y="50.8105"/><text fill="#000000" font-family="sans-serif" font-size="14" lengthAdjust="spacing" textLength="123" x="731.5" y="58.1074">EmailAddress email</text><rect fill="none" height="6" style="stroke:#C82930;stroke-width:1.0;" width="6" x="719.5" y="69.4316"/><text fill="#000000" font-family="sans-serif" font-size="14" lengthAdjust="spacing" textLength="183" x="731.5" y="76.7285">PhoneNumber phoneNumber</text><rect fill="none" height="6" style="stroke:#C82930;stroke-width:1.0;" width="6" x="719.5" y="88.0527"/><text fill="#000000" font-family="sans-serif" font-size="14" lengthAdjust="spacing" textLength="75" x="731.5" y="95.3496">Name name</text><line style="stroke:#181818;stroke-width:0.5;" x1="712.5" x2="1234.5" y1="102.8633" y2="102.8633"/><ellipse cx="722.5" cy="117.6738" fill="#84BE84" rx="3" ry="3" style="stroke:#038048;stroke-width:1.0;"/><text fill="#000000" font-family="sans-serif" font-size="14" lengthAdjust="spacing" textLength="498" x="731.5" y="121.9707">Candidate(String firstname, String surname, String email, String phoneNumber)</text><ellipse cx="722.5" cy="136.2949" fill="#84BE84" rx="3" ry="3" style="stroke:#038048;stroke-width:1.0;"/><text fill="#000000" font-family="sans-serif" font-size="14" lengthAdjust="spacing" textLength="206" x="731.5" y="140.5918">Candidate(Candidate candidate)</text><ellipse cx="722.5" cy="154.916" fill="#84BE84" rx="3" ry="3" style="stroke:#038048;stroke-width:1.0;"/><text fill="#000000" font-family="sans-serif" font-size="14" lengthAdjust="spacing" textLength="189" x="731.5" y="159.2129">emailAddress(): EmailAddress</text><ellipse cx="722.5" cy="173.5371" fill="#84BE84" rx="3" ry="3" style="stroke:#038048;stroke-width:1.0;"/><text fill="#000000" font-family="sans-serif" font-size="14" lengthAdjust="spacing" textLength="89" x="731.5" y="177.834">name(): Name</text><ellipse cx="722.5" cy="192.1582" fill="#84BE84" rx="3" ry="3" style="stroke:#038048;stroke-width:1.0;"/><text fill="#000000" font-family="sans-serif" font-size="14" lengthAdjust="spacing" textLength="127" x="731.5" y="196.4551">nameString(): String</text><ellipse cx="722.5" cy="210.7793" fill="#84BE84" rx="3" ry="3" style="stroke:#038048;stroke-width:1.0;"/><text fill="#000000" font-family="sans-serif" font-size="14" lengthAdjust="spacing" textLength="197" x="731.5" y="215.0762">phoneNumber(): PhoneNumber</text><ellipse cx="722.5" cy="229.4004" fill="#84BE84" rx="3" ry="3" style="stroke:#038048;stroke-width:1.0;"/><text fill="#000000" font-family="sans-serif" font-size="14" lengthAdjust="spacing" textLength="164" x="731.5" y="233.6973">equals(Object o): boolean</text><ellipse cx="722.5" cy="248.0215" fill="#84BE84" rx="3" ry="3" style="stroke:#038048;stroke-width:1.0;"/><text fill="#000000" font-family="sans-serif" font-size="14" lengthAdjust="spacing" textLength="98" x="731.5" y="252.3184">hashCode(): int</text><ellipse cx="722.5" cy="266.6426" fill="#84BE84" rx="3" ry="3" style="stroke:#038048;stroke-width:1.0;"/><text fill="#000000" font-family="sans-serif" font-size="14" lengthAdjust="spacing" textLength="197" x="731.5" y="270.9395">sameAs(Object other): boolean</text><ellipse cx="722.5" cy="285.2637" fill="#84BE84" rx="3" ry="3" style="stroke:#038048;stroke-width:1.0;"/><text fill="#000000" font-family="sans-serif" font-size="14" lengthAdjust="spacing" textLength="149" x="731.5" y="289.5605">identity(): EmailAddress</text></g><!--class RegisterCandidateController--><g id="elem_RegisterCandidateController"><rect codeLine="18" fill="#F1F1F1" height="178.3477" id="RegisterCandidateController" rx="2.5" ry="2.5" style="stroke:#181818;stroke-width:0.5;" width="925" x="511" y="376"/><ellipse cx="879.25" cy="392" fill="#ADD1B2" rx="11" ry="11" style="stroke:#181818;stroke-width:1.0;"/><path d="M882.0156,387.875 Q882.1719,387.6563 882.3594,387.5469 Q882.5469,387.4375 882.7656,387.4375 Q883.1406,387.4375 883.375,387.7031 Q883.6094,387.9531 883.6094,388.5625 L883.6094,390.0156 Q883.6094,390.625 883.375,390.8906 Q883.1406,391.1563 882.7656,391.1563 Q882.4219,391.1563 882.2188,390.9531 Q882.0156,390.7656 881.9063,390.25 Q881.8594,389.8906 881.6719,389.7031 Q881.3438,389.3281 880.7344,389.1094 Q880.125,388.8906 879.5,388.8906 Q878.7344,388.8906 878.0938,389.2188 Q877.4688,389.5469 876.9688,390.2969 Q876.4844,391.0469 876.4844,392.0781 L876.4844,393.1719 Q876.4844,394.4063 877.375,395.2344 Q878.2656,396.0469 879.8594,396.0469 Q880.7969,396.0469 881.4531,395.7969 Q881.8438,395.6406 882.2656,395.2031 Q882.5313,394.9375 882.6719,394.8594 Q882.8281,394.7813 883.0313,394.7813 Q883.3594,394.7813 883.6094,395.0469 Q883.875,395.2969 883.875,395.6406 Q883.875,395.9844 883.5313,396.3906 Q883.0313,396.9688 882.2344,397.2969 Q881.1563,397.75 879.8594,397.75 Q878.3438,397.75 877.1406,397.125 Q876.1563,396.625 875.4688,395.5625 Q874.7813,394.4844 874.7813,393.2031 L874.7813,392.0469 Q874.7813,390.7188 875.3906,389.5781 Q876.0156,388.4219 877.1094,387.8125 Q878.2031,387.1875 879.4375,387.1875 Q880.1719,387.1875 880.8125,387.3594 Q881.4688,387.5156 882.0156,387.875 Z " fill="#000000"/><text fill="#000000" font-family="sans-serif" font-size="14" lengthAdjust="spacing" textLength="180" x="899.75" y="397.7969">RegisterCandidateController</text><line style="stroke:#181818;stroke-width:0.5;" x1="512" x2="1435" y1="408" y2="408"/><rect fill="none" height="6" style="stroke:#C82930;stroke-width:1.0;" width="6" x="519" y="419.8105"/><text fill="#000000" font-family="sans-serif" font-size="14" lengthAdjust="spacing" textLength="267" x="531" y="427.1074">CandidateRepository candidateRepository</text><rect fill="none" height="6" style="stroke:#C82930;stroke-width:1.0;" width="6" x="519" y="438.4316"/><text fill="#000000" font-family="sans-serif" font-size="14" lengthAdjust="spacing" textLength="261" x="531" y="445.7285">AuthorizationService authorizationService</text><rect fill="none" height="6" style="stroke:#C82930;stroke-width:1.0;" width="6" x="519" y="457.0527"/><text fill="#000000" font-family="sans-serif" font-size="14" lengthAdjust="spacing" textLength="165" x="531" y="464.3496">EventPublisher dispatcher</text><line style="stroke:#181818;stroke-width:0.5;" x1="512" x2="1435" y1="471.8633" y2="471.8633"/><ellipse cx="522" cy="486.6738" fill="#84BE84" rx="3" ry="3" style="stroke:#038048;stroke-width:1.0;"/><text fill="#000000" font-family="sans-serif" font-size="14" lengthAdjust="spacing" textLength="899" x="531" y="490.9707">RegisterCandidateController(CandidateRepository candidateRepository, AuthorizationService authorizationService, EventPublisher dispatcher)</text><ellipse cx="522" cy="505.2949" fill="#84BE84" rx="3" ry="3" style="stroke:#038048;stroke-width:1.0;"/><text fill="#000000" font-family="sans-serif" font-size="14" lengthAdjust="spacing" textLength="619" x="531" y="509.5918">registerCandidate(String email, String firstname, String surname, String phoneNumber): Candidate</text><ellipse cx="522" cy="523.916" fill="#84BE84" rx="3" ry="3" style="stroke:#038048;stroke-width:1.0;"/><text fill="#000000" font-family="sans-serif" font-size="14" lengthAdjust="spacing" textLength="335" x="531" y="528.2129">registerCandidate(Candidate candidate1): Candidate</text><rect fill="#F24D5C" height="6" style="stroke:#C82930;stroke-width:1.0;" width="6" x="519" y="539.5371"/><text fill="#000000" font-family="sans-serif" font-size="14" lengthAdjust="spacing" textLength="740" x="531" y="546.834">saveCandidate(Candidate candidate, String email, String firstname, String surname, String phoneNumber): Candidate</text></g><!--class RegisterCandidateUI--><g id="elem_RegisterCandidateUI"><rect codeLine="28" fill="#F1F1F1" height="103.8633" id="RegisterCandidateUI" rx="2.5" ry="2.5" style="stroke:#181818;stroke-width:0.5;" width="269" x="7" y="983"/><ellipse cx="72.25" cy="999" fill="#ADD1B2" rx="11" ry="11" style="stroke:#181818;stroke-width:1.0;"/><path d="M75.0156,994.875 Q75.1719,994.6563 75.3594,994.5469 Q75.5469,994.4375 75.7656,994.4375 Q76.1406,994.4375 76.375,994.7031 Q76.6094,994.9531 76.6094,995.5625 L76.6094,997.0156 Q76.6094,997.625 76.375,997.8906 Q76.1406,998.1563 75.7656,998.1563 Q75.4219,998.1563 75.2188,997.9531 Q75.0156,997.7656 74.9063,997.25 Q74.8594,996.8906 74.6719,996.7031 Q74.3438,996.3281 73.7344,996.1094 Q73.125,995.8906 72.5,995.8906 Q71.7344,995.8906 71.0938,996.2188 Q70.4688,996.5469 69.9688,997.2969 Q69.4844,998.0469 69.4844,999.0781 L69.4844,1000.1719 Q69.4844,1001.4063 70.375,1002.2344 Q71.2656,1003.0469 72.8594,1003.0469 Q73.7969,1003.0469 74.4531,1002.7969 Q74.8438,1002.6406 75.2656,1002.2031 Q75.5313,1001.9375 75.6719,1001.8594 Q75.8281,1001.7813 76.0313,1001.7813 Q76.3594,1001.7813 76.6094,1002.0469 Q76.875,1002.2969 76.875,1002.6406 Q76.875,1002.9844 76.5313,1003.3906 Q76.0313,1003.9688 75.2344,1004.2969 Q74.1563,1004.75 72.8594,1004.75 Q71.3438,1004.75 70.1406,1004.125 Q69.1563,1003.625 68.4688,1002.5625 Q67.7813,1001.4844 67.7813,1000.2031 L67.7813,999.0469 Q67.7813,997.7188 68.3906,996.5781 Q69.0156,995.4219 70.1094,994.8125 Q71.2031,994.1875 72.4375,994.1875 Q73.1719,994.1875 73.8125,994.3594 Q74.4688,994.5156 75.0156,994.875 Z " fill="#000000"/><text fill="#000000" font-family="sans-serif" font-size="14" lengthAdjust="spacing" textLength="130" x="92.75" y="1004.7969">RegisterCandidateUI</text><line style="stroke:#181818;stroke-width:0.5;" x1="8" x2="275" y1="1015" y2="1015"/><rect fill="none" height="6" style="stroke:#C82930;stroke-width:1.0;" width="6" x="15" y="1026.8105"/><text fill="#000000" font-family="sans-serif" font-size="14" lengthAdjust="spacing" textLength="243" x="27" y="1034.1074">RegisterCandidateController controller</text><line style="stroke:#181818;stroke-width:0.5;" x1="8" x2="275" y1="1041.6211" y2="1041.6211"/><ellipse cx="18" cy="1056.4316" fill="#84BE84" rx="3" ry="3" style="stroke:#038048;stroke-width:1.0;"/><text fill="#000000" font-family="sans-serif" font-size="14" lengthAdjust="spacing" textLength="119" x="27" y="1060.7285">doShow(): boolean</text><ellipse cx="18" cy="1075.0527" fill="#84BE84" rx="3" ry="3" style="stroke:#038048;stroke-width:1.0;"/><text fill="#000000" font-family="sans-serif" font-size="14" lengthAdjust="spacing" textLength="109" x="27" y="1079.3496">headline(): String</text></g><!--class Jobs4uPasswordGenerator--><g id="elem_Jobs4uPasswordGenerator"><rect codeLine="34" fill="#F1F1F1" height="159.7266" id="Jobs4uPasswordGenerator" rx="2.5" ry="2.5" style="stroke:#181818;stroke-width:0.5;" width="387" x="1840" y="1148"/><ellipse cx="1943.75" cy="1164" fill="#ADD1B2" rx="11" ry="11" style="stroke:#181818;stroke-width:1.0;"/><path d="M1946.5156,1159.875 Q1946.6719,1159.6563 1946.8594,1159.5469 Q1947.0469,1159.4375 1947.2656,1159.4375 Q1947.6406,1159.4375 1947.875,1159.7031 Q1948.1094,1159.9531 1948.1094,1160.5625 L1948.1094,1162.0156 Q1948.1094,1162.625 1947.875,1162.8906 Q1947.6406,1163.1563 1947.2656,1163.1563 Q1946.9219,1163.1563 1946.7188,1162.9531 Q1946.5156,1162.7656 1946.4063,1162.25 Q1946.3594,1161.8906 1946.1719,1161.7031 Q1945.8438,1161.3281 1945.2344,1161.1094 Q1944.625,1160.8906 1944,1160.8906 Q1943.2344,1160.8906 1942.5938,1161.2188 Q1941.9688,1161.5469 1941.4688,1162.2969 Q1940.9844,1163.0469 1940.9844,1164.0781 L1940.9844,1165.1719 Q1940.9844,1166.4063 1941.875,1167.2344 Q1942.7656,1168.0469 1944.3594,1168.0469 Q1945.2969,1168.0469 1945.9531,1167.7969 Q1946.3438,1167.6406 1946.7656,1167.2031 Q1947.0313,1166.9375 1947.1719,1166.8594 Q1947.3281,1166.7813 1947.5313,1166.7813 Q1947.8594,1166.7813 1948.1094,1167.0469 Q1948.375,1167.2969 1948.375,1167.6406 Q1948.375,1167.9844 1948.0313,1168.3906 Q1947.5313,1168.9688 1946.7344,1169.2969 Q1945.6563,1169.75 1944.3594,1169.75 Q1942.8438,1169.75 1941.6406,1169.125 Q1940.6563,1168.625 1939.9688,1167.5625 Q1939.2813,1166.4844 1939.2813,1165.2031 L1939.2813,1164.0469 Q1939.2813,1162.7188 1939.8906,1161.5781 Q1940.5156,1160.4219 1941.6094,1159.8125 Q1942.7031,1159.1875 1943.9375,1159.1875 Q1944.6719,1159.1875 1945.3125,1159.3594 Q1945.9688,1159.5156 1946.5156,1159.875 Z " fill="#000000"/><text fill="#000000" font-family="sans-serif" font-size="14" lengthAdjust="spacing" textLength="171" x="1964.25" y="1169.7969">Jobs4uPasswordGenerator</text><line style="stroke:#181818;stroke-width:0.5;" x1="1841" x2="2226" y1="1180" y2="1180"/><rect fill="none" height="6" style="stroke:#C82930;stroke-width:1.0;" width="6" x="1848" y="1191.8105"/><text fill="#000000" font-family="sans-serif" font-size="14" lengthAdjust="spacing" textLength="153" x="1860" y="1199.1074">String CAPITAL_CHARS</text><rect fill="none" height="6" style="stroke:#C82930;stroke-width:1.0;" width="6" x="1848" y="1210.4316"/><text fill="#000000" font-family="sans-serif" font-size="14" lengthAdjust="spacing" textLength="107" x="1860" y="1217.7285">String NUMBERS</text><rect fill="none" height="6" style="stroke:#C82930;stroke-width:1.0;" width="6" x="1848" y="1229.0527"/><text fill="#000000" font-family="sans-serif" font-size="14" lengthAdjust="spacing" textLength="162" x="1860" y="1236.3496">int PASSWORD_LENGTH</text><rect fill="none" height="6" style="stroke:#C82930;stroke-width:1.0;" width="6" x="1848" y="1247.6738"/><text fill="#000000" font-family="sans-serif" font-size="14" lengthAdjust="spacing" textLength="244" x="1860" y="1254.9707">Jobs4uPasswordPolicy passwordPolicy</text><line style="stroke:#181818;stroke-width:0.5;" x1="1841" x2="2226" y1="1262.4844" y2="1262.4844"/><ellipse cx="1851" cy="1277.2949" fill="#84BE84" rx="3" ry="3" style="stroke:#038048;stroke-width:1.0;"/><text fill="#000000" font-family="sans-serif" font-size="14" lengthAdjust="spacing" textLength="173" x="1860" y="1281.5918">generatePassword(): String</text><rect fill="#F24D5C" height="6" style="stroke:#C82930;stroke-width:1.0;" width="6" x="1848" y="1292.916"/><text fill="#000000" font-family="sans-serif" font-size="14" lengthAdjust="spacing" textLength="361" x="1860" y="1300.2129">validatePasswordPolicy(StringBuilder password): boolean</text></g><!--class CandidateRegisteredEvent--><g id="elem_CandidateRegisteredEvent"><rect codeLine="43" fill="#F1F1F1" height="271.4531" id="CandidateRegisteredEvent" rx="2.5" ry="2.5" style="stroke:#181818;stroke-width:0.5;" width="801" x="259" y="633"/><ellipse cx="570.25" cy="649" fill="#ADD1B2" rx="11" ry="11" style="stroke:#181818;stroke-width:1.0;"/><path d="M573.0156,644.875 Q573.1719,644.6563 573.3594,644.5469 Q573.5469,644.4375 573.7656,644.4375 Q574.1406,644.4375 574.375,644.7031 Q574.6094,644.9531 574.6094,645.5625 L574.6094,647.0156 Q574.6094,647.625 574.375,647.8906 Q574.1406,648.1563 573.7656,648.1563 Q573.4219,648.1563 573.2188,647.9531 Q573.0156,647.7656 572.9063,647.25 Q572.8594,646.8906 572.6719,646.7031 Q572.3438,646.3281 571.7344,646.1094 Q571.125,645.8906 570.5,645.8906 Q569.7344,645.8906 569.0938,646.2188 Q568.4688,646.5469 567.9688,647.2969 Q567.4844,648.0469 567.4844,649.0781 L567.4844,650.1719 Q567.4844,651.4063 568.375,652.2344 Q569.2656,653.0469 570.8594,653.0469 Q571.7969,653.0469 572.4531,652.7969 Q572.8438,652.6406 573.2656,652.2031 Q573.5313,651.9375 573.6719,651.8594 Q573.8281,651.7813 574.0313,651.7813 Q574.3594,651.7813 574.6094,652.0469 Q574.875,652.2969 574.875,652.6406 Q574.875,652.9844 574.5313,653.3906 Q574.0313,653.9688 573.2344,654.2969 Q572.1563,654.75 570.8594,654.75 Q569.3438,654.75 568.1406,654.125 Q567.1563,653.625 566.4688,652.5625 Q565.7813,651.4844 565.7813,650.2031 L565.7813,649.0469 Q565.7813,647.7188 566.3906,646.5781 Q567.0156,645.4219 568.1094,644.8125 Q569.2031,644.1875 570.4375,644.1875 Q571.1719,644.1875 571.8125,644.3594 Q572.4688,644.5156 573.0156,644.875 Z " fill="#000000"/><text fill="#000000" font-family="sans-serif" font-size="14" lengthAdjust="spacing" textLength="170" x="590.75" y="654.7969">CandidateRegisteredEvent</text><line style="stroke:#181818;stroke-width:0.5;" x1="260" x2="1059" y1="665" y2="665"/><rect fill="none" height="6" style="stroke:#C82930;stroke-width:1.0;" width="6" x="267" y="676.8105"/><text fill="#000000" font-family="sans-serif" font-size="14" lengthAdjust="spacing" textLength="131" x="279" y="684.1074">Candidate candidate</text><rect fill="none" height="6" style="stroke:#C82930;stroke-width:1.0;" width="6" x="267" y="695.4316"/><text fill="#000000" font-family="sans-serif" font-size="14" lengthAdjust="spacing" textLength="175" x="279" y="702.7285">EmailAddress emailAddress</text><rect fill="none" height="6" style="stroke:#C82930;stroke-width:1.0;" width="6" x="267" y="714.0527"/><text fill="#000000" font-family="sans-serif" font-size="14" lengthAdjust="spacing" textLength="75" x="279" y="721.3496">Name name</text><rect fill="none" height="6" style="stroke:#C82930;stroke-width:1.0;" width="6" x="267" y="732.6738"/><text fill="#000000" font-family="sans-serif" font-size="14" lengthAdjust="spacing" textLength="183" x="279" y="739.9707">PhoneNumber phoneNumber</text><rect fill="none" height="6" style="stroke:#C82930;stroke-width:1.0;" width="6" x="267" y="751.2949"/><text fill="#000000" font-family="sans-serif" font-size="14" lengthAdjust="spacing" textLength="101" x="279" y="758.5918">String password</text><line style="stroke:#181818;stroke-width:0.5;" x1="260" x2="1059" y1="766.1055" y2="766.1055"/><ellipse cx="270" cy="780.916" fill="#84BE84" rx="3" ry="3" style="stroke:#038048;stroke-width:1.0;"/><text fill="#000000" font-family="sans-serif" font-size="14" lengthAdjust="spacing" textLength="775" x="279" y="785.2129">CandidateRegisteredEvent(Candidate candidate, Name name, String emailAddress, String password, String phoneNumber)</text><ellipse cx="270" cy="799.5371" fill="#84BE84" rx="3" ry="3" style="stroke:#038048;stroke-width:1.0;"/><text fill="#000000" font-family="sans-serif" font-size="14" lengthAdjust="spacing" textLength="145" x="279" y="803.834">candidate(): Candidate</text><ellipse cx="270" cy="818.1582" fill="#84BE84" rx="3" ry="3" style="stroke:#038048;stroke-width:1.0;"/><text fill="#000000" font-family="sans-serif" font-size="14" lengthAdjust="spacing" textLength="89" x="279" y="822.4551">name(): Name</text><ellipse cx="270" cy="836.7793" fill="#84BE84" rx="3" ry="3" style="stroke:#038048;stroke-width:1.0;"/><text fill="#000000" font-family="sans-serif" font-size="14" lengthAdjust="spacing" textLength="189" x="279" y="841.0762">emailAddress(): EmailAddress</text><ellipse cx="270" cy="855.4004" fill="#84BE84" rx="3" ry="3" style="stroke:#038048;stroke-width:1.0;"/><text fill="#000000" font-family="sans-serif" font-size="14" lengthAdjust="spacing" textLength="115" x="279" y="859.6973">password(): String</text><ellipse cx="270" cy="874.0215" fill="#84BE84" rx="3" ry="3" style="stroke:#038048;stroke-width:1.0;"/><text fill="#000000" font-family="sans-serif" font-size="14" lengthAdjust="spacing" textLength="197" x="279" y="878.3184">phoneNumber(): PhoneNumber</text><ellipse cx="270" cy="892.6426" fill="#84BE84" rx="3" ry="3" style="stroke:#038048;stroke-width:1.0;"/><text fill="#000000" font-family="sans-serif" font-size="14" lengthAdjust="spacing" textLength="104" x="279" y="896.9395">toString(): String</text></g><!--class CandidateRepository--><g id="elem_CandidateRepository"><rect codeLine="58" fill="#F1F1F1" height="122.4844" id="CandidateRepository" rx="2.5" ry="2.5" style="stroke:#181818;stroke-width:0.5;" width="385" x="1095" y="707.5"/><ellipse cx="1216.75" cy="723.5" fill="#ADD1B2" rx="11" ry="11" style="stroke:#181818;stroke-width:1.0;"/><path d="M1219.5156,719.375 Q1219.6719,719.1563 1219.8594,719.0469 Q1220.0469,718.9375 1220.2656,718.9375 Q1220.6406,718.9375 1220.875,719.2031 Q1221.1094,719.4531 1221.1094,720.0625 L1221.1094,721.5156 Q1221.1094,722.125 1220.875,722.3906 Q1220.6406,722.6563 1220.2656,722.6563 Q1219.9219,722.6563 1219.7188,722.4531 Q1219.5156,722.2656 1219.4063,721.75 Q1219.3594,721.3906 1219.1719,721.2031 Q1218.8438,720.8281 1218.2344,720.6094 Q1217.625,720.3906 1217,720.3906 Q1216.2344,720.3906 1215.5938,720.7188 Q1214.9688,721.0469 1214.4688,721.7969 Q1213.9844,722.5469 1213.9844,723.5781 L1213.9844,724.6719 Q1213.9844,725.9063 1214.875,726.7344 Q1215.7656,727.5469 1217.3594,727.5469 Q1218.2969,727.5469 1218.9531,727.2969 Q1219.3438,727.1406 1219.7656,726.7031 Q1220.0313,726.4375 1220.1719,726.3594 Q1220.3281,726.2813 1220.5313,726.2813 Q1220.8594,726.2813 1221.1094,726.5469 Q1221.375,726.7969 1221.375,727.1406 Q1221.375,727.4844 1221.0313,727.8906 Q1220.5313,728.4688 1219.7344,728.7969 Q1218.6563,729.25 1217.3594,729.25 Q1215.8438,729.25 1214.6406,728.625 Q1213.6563,728.125 1212.9688,727.0625 Q1212.2813,725.9844 1212.2813,724.7031 L1212.2813,723.5469 Q1212.2813,722.2188 1212.8906,721.0781 Q1213.5156,719.9219 1214.6094,719.3125 Q1215.7031,718.6875 1216.9375,718.6875 Q1217.6719,718.6875 1218.3125,718.8594 Q1218.9688,719.0156 1219.5156,719.375 Z " fill="#000000"/><text fill="#000000" font-family="sans-serif" font-size="14" lengthAdjust="spacing" textLength="133" x="1237.25" y="729.2969">CandidateRepository</text><line style="stroke:#181818;stroke-width:0.5;" x1="1096" x2="1479" y1="739.5" y2="739.5"/><line style="stroke:#181818;stroke-width:0.5;" x1="1096" x2="1479" y1="747.5" y2="747.5"/><ellipse cx="1106" cy="762.3105" fill="#84BE84" rx="3" ry="3" style="stroke:#038048;stroke-width:1.0;"/><text fill="#000000" font-family="sans-serif" font-size="14" lengthAdjust="spacing" textLength="143" x="1115" y="766.6074">CandidateRepository()</text><ellipse cx="1106" cy="780.9316" fill="#84BE84" rx="3" ry="3" style="stroke:#038048;stroke-width:1.0;"/><text fill="#000000" font-family="sans-serif" font-size="14" lengthAdjust="spacing" textLength="244" x="1115" y="785.2285">save(Candidate candidate): Candidate</text><ellipse cx="1106" cy="799.5527" fill="#84BE84" rx="3" ry="3" style="stroke:#038048;stroke-width:1.0;"/><text fill="#000000" font-family="sans-serif" font-size="14" lengthAdjust="spacing" textLength="348" x="1115" y="803.8496">findByEmail(EmailAddress email): Optional&lt;Candidate&gt;</text><ellipse cx="1106" cy="818.1738" fill="#84BE84" rx="3" ry="3" style="stroke:#038048;stroke-width:1.0;"/><text fill="#000000" font-family="sans-serif" font-size="14" lengthAdjust="spacing" textLength="359" x="1115" y="822.4707">findByIdentity(EmailAddress email): Optional&lt;Candidate&gt;</text></g><!--class AuthorizationService--><g id="elem_AuthorizationService"><rect codeLine="65" fill="#F1F1F1" height="234.2109" id="AuthorizationService" rx="2.5" ry="2.5" style="stroke:#181818;stroke-width:0.5;" width="465" x="1515" y="651.5"/><ellipse cx="1678.75" cy="667.5" fill="#ADD1B2" rx="11" ry="11" style="stroke:#181818;stroke-width:1.0;"/><path d="M1681.5156,663.375 Q1681.6719,663.1563 1681.8594,663.0469 Q1682.0469,662.9375 1682.2656,662.9375 Q1682.6406,662.9375 1682.875,663.2031 Q1683.1094,663.4531 1683.1094,664.0625 L1683.1094,665.5156 Q1683.1094,666.125 1682.875,666.3906 Q1682.6406,666.6563 1682.2656,666.6563 Q1681.9219,666.6563 1681.7188,666.4531 Q1681.5156,666.2656 1681.4063,665.75 Q1681.3594,665.3906 1681.1719,665.2031 Q1680.8438,664.8281 1680.2344,664.6094 Q1679.625,664.3906 1679,664.3906 Q1678.2344,664.3906 1677.5938,664.7188 Q1676.9688,665.0469 1676.4688,665.7969 Q1675.9844,666.5469 1675.9844,667.5781 L1675.9844,668.6719 Q1675.9844,669.9063 1676.875,670.7344 Q1677.7656,671.5469 1679.3594,671.5469 Q1680.2969,671.5469 1680.9531,671.2969 Q1681.3438,671.1406 1681.7656,670.7031 Q1682.0313,670.4375 1682.1719,670.3594 Q1682.3281,670.2813 1682.5313,670.2813 Q1682.8594,670.2813 1683.1094,670.5469 Q1683.375,670.7969 1683.375,671.1406 Q1683.375,671.4844 1683.0313,671.8906 Q1682.5313,672.4688 1681.7344,672.7969 Q1680.6563,673.25 1679.3594,673.25 Q1677.8438,673.25 1676.6406,672.625 Q1675.6563,672.125 1674.9688,671.0625 Q1674.2813,669.9844 1674.2813,668.7031 L1674.2813,667.5469 Q1674.2813,666.2188 1674.8906,665.0781 Q1675.5156,663.9219 1676.6094,663.3125 Q1677.7031,662.6875 1678.9375,662.6875 Q1679.6719,662.6875 1680.3125,662.8594 Q1680.9688,663.0156 1681.5156,663.375 Z " fill="#000000"/><text fill="#000000" font-family="sans-serif" font-size="14" lengthAdjust="spacing" textLength="129" x="1699.25" y="673.2969">AuthorizationService</text><line style="stroke:#181818;stroke-width:0.5;" x1="1516" x2="1979" y1="683.5" y2="683.5"/><rect fill="none" height="6" style="stroke:#C82930;stroke-width:1.0;" width="6" x="1523" y="695.3105"/><text fill="#000000" font-family="sans-serif" font-size="14" lengthAdjust="spacing" textLength="109" x="1535" y="702.6074">Logger LOGGER</text><rect fill="none" height="6" style="stroke:#C82930;stroke-width:1.0;" width="6" x="1523" y="713.9316"/><text fill="#000000" font-family="sans-serif" font-size="14" lengthAdjust="spacing" textLength="153" x="1535" y="721.2285">UserSession theSession</text><line style="stroke:#181818;stroke-width:0.5;" x1="1516" x2="1979" y1="728.7422" y2="728.7422"/><ellipse cx="1526" cy="743.5527" fill="#84BE84" rx="3" ry="3" style="stroke:#038048;stroke-width:1.0;"/><text fill="#000000" font-family="sans-serif" font-size="14" lengthAdjust="spacing" textLength="139" x="1535" y="747.8496">AuthorizationService()</text><ellipse cx="1526" cy="762.1738" fill="#84BE84" rx="3" ry="3" style="stroke:#038048;stroke-width:1.0;"/><text fill="#000000" font-family="sans-serif" font-size="14" lengthAdjust="spacing" textLength="414" x="1535" y="766.4707">createSessionForUser(SystemUser user): Optional&lt;UserSession&gt;</text><ellipse cx="1526" cy="780.7949" fill="#84BE84" rx="3" ry="3" style="stroke:#038048;stroke-width:1.0;"/><text fill="#000000" font-family="sans-serif" font-size="14" lengthAdjust="spacing" textLength="247" x="1535" y="785.0918">clearSession(): Optional&lt;UserSession&gt;</text><ellipse cx="1526" cy="799.416" fill="#84BE84" rx="3" ry="3" style="stroke:#038048;stroke-width:1.0;"/><text fill="#000000" font-family="sans-serif" font-size="14" lengthAdjust="spacing" textLength="142" x="1535" y="803.7129">hasSession(): boolean</text><ellipse cx="1526" cy="818.0371" fill="#84BE84" rx="3" ry="3" style="stroke:#038048;stroke-width:1.0;"/><text fill="#000000" font-family="sans-serif" font-size="14" lengthAdjust="spacing" textLength="214" x="1535" y="822.334">session(): Optional&lt;UserSession&gt;</text><ellipse cx="1526" cy="836.6582" fill="#84BE84" rx="3" ry="3" style="stroke:#038048;stroke-width:1.0;"/><text fill="#000000" font-family="sans-serif" font-size="14" lengthAdjust="spacing" textLength="369" x="1535" y="840.9551">isAuthenticatedUserAuthorizedTo(Role... actions): boolean</text><ellipse cx="1526" cy="855.2793" fill="#84BE84" rx="3" ry="3" style="stroke:#038048;stroke-width:1.0;"/><text fill="#000000" font-family="sans-serif" font-size="14" lengthAdjust="spacing" textLength="357" x="1535" y="859.5762">ensureAuthenticatedUserHasAnyOf(Role... actions): void</text><ellipse cx="1526" cy="873.9004" fill="#84BE84" rx="3" ry="3" style="stroke:#038048;stroke-width:1.0;"/><text fill="#000000" font-family="sans-serif" font-size="14" lengthAdjust="spacing" textLength="439" x="1535" y="878.1973">loggedinUserWithPermissions(Role... actions): Optional&lt;SystemUser&gt;</text></g><!--reverse link Candidate to RegisterCandidateController--><g id="link_Candidate_RegisterCandidateController"><path codeLine="79" d="M973.5,303.12 C973.5,329.97 973.5,351.28 973.5,375.82 " fill="none" id="Candidate-backto-RegisterCandidateController" style="stroke:#181818;stroke-width:1.0;stroke-dasharray:7.0,7.0;"/><polygon fill="#181818" points="973.5,297.12,969.5,306.12,973.5,302.12,977.5,306.12,973.5,297.12" style="stroke:#181818;stroke-width:1.0;"/><text fill="#000000" font-family="sans-serif" font-size="13" lengthAdjust="spacing" textLength="36" x="974.5" y="342.0283">create</text><text fill="#000000" font-family="sans-serif" font-size="13" lengthAdjust="spacing" textLength="7" x="966.3195" y="319.0749">1</text><text fill="#000000" font-family="sans-serif" font-size="13" lengthAdjust="spacing" textLength="7" x="966.2102" y="364.7569">1</text></g><!--link RegisterCandidateController to RegisterCandidateUI--><g id="link_RegisterCandidateController_RegisterCandidateUI"><path codeLine="80" d="M504.9378,492.3925 C353.9478,509.4225 216.37,537.02 159.5,584 C43.31,679.98 88.1901,875.1114 119.2801,971.3214 " fill="none" id="RegisterCandidateController-RegisterCandidateUI" style="stroke:#181818;stroke-width:1.0;"/><polygon fill="#181818" points="510.9,491.72,501.5084,488.7539,505.9315,492.2804,502.405,496.7035,510.9,491.72" style="stroke:#181818;stroke-width:1.0;"/><polygon fill="none" points="122.97,982.74,124.9313,975.8007,119.2801,971.3214,117.3188,978.2607,122.97,982.74" style="stroke:#181818;stroke-width:1.0;"/><text fill="#000000" font-family="sans-serif" font-size="13" lengthAdjust="spacing" textLength="7" x="495.8889" y="489.061">1</text><text fill="#000000" font-family="sans-serif" font-size="13" lengthAdjust="spacing" textLength="7" x="113.0097" y="971.6324">1</text></g><!--link RegisterCandidateUI to RegisterCandidateController--><g id="link_RegisterCandidateUI_RegisterCandidateController"><path codeLine="83" d="M142.43,982.84 C145.26,886.33 156.78,682.62 203.5,633 C249.77,583.86 368.8947,548.9059 505.0847,523.1259 " fill="none" id="RegisterCandidateUI-to-RegisterCandidateController" style="stroke:#181818;stroke-width:1.0;stroke-dasharray:7.0,7.0;"/><polygon fill="#181818" points="510.98,522.01,501.3931,519.7537,506.0672,522.94,502.881,527.6141,510.98,522.01" style="stroke:#181818;stroke-width:1.0;"/><text fill="#000000" font-family="sans-serif" font-size="13" lengthAdjust="spacing" textLength="36" x="204.5" y="774.0283">create</text></g><!--link RegisterCandidateController to CandidateRegisteredEvent--><g id="link_RegisterCandidateController_CandidateRegisteredEvent"><path codeLine="81" d="M881.83,554.02 C856.13,578.7 827.58,606.11 799.74,632.84 " fill="none" id="RegisterCandidateController-CandidateRegisteredEvent" style="stroke:#181818;stroke-width:1.0;"/><text fill="#000000" font-family="sans-serif" font-size="13" lengthAdjust="spacing" textLength="36" x="846.5" y="599.0283">create</text><text fill="#000000" font-family="sans-serif" font-size="13" lengthAdjust="spacing" textLength="7" x="866.6513" y="576.4265">1</text><text fill="#000000" font-family="sans-serif" font-size="13" lengthAdjust="spacing" textLength="7" x="800.6453" y="621.5294">1</text></g><!--link RegisterCandidateController to Jobs4uPasswordGenerator--><g id="link_RegisterCandidateController_Jobs4uPasswordGenerator"><path codeLine="82" d="M1436.21,486.11 C1670.43,506.74 1921.15,548.51 1997.5,633 C2125.65,774.81 2088.8155,1016.0443 2057.7355,1142.1743 " fill="none" id="RegisterCandidateController-to-Jobs4uPasswordGenerator" style="stroke:#181818;stroke-width:1.0;stroke-dasharray:7.0,7.0;"/><polygon fill="#181818" points="2056.3,1148,2062.3371,1140.2184,2057.4963,1143.1452,2054.5695,1138.3044,2056.3,1148" style="stroke:#181818;stroke-width:1.0;"/><text fill="#000000" font-family="sans-serif" font-size="13" lengthAdjust="spacing" textLength="107" x="2087.5" y="949.0283">generatePassword</text><text fill="#000000" font-family="sans-serif" font-size="13" lengthAdjust="spacing" textLength="7" x="1444.223" y="483.3546">1</text><text fill="#000000" font-family="sans-serif" font-size="13" lengthAdjust="spacing" textLength="7" x="2051.1395" y="1136.6201">1</text></g><!--link RegisterCandidateController to AuthorizationService--><g id="link_RegisterCandidateController_AuthorizationService"><path codeLine="84" d="M1294.2122,557.8098 C1365.6422,581.0298 1429.26,604.07 1497.5,633 C1511,638.72 1519.3178,642.361 1533.0578,648.871 " fill="none" id="RegisterCandidateController-AuthorizationService" style="stroke:#181818;stroke-width:1.0;"/><polygon fill="none" points="1282.8,554.1,1287.2695,559.7589,1294.2122,557.8098,1289.7427,552.1508,1282.8,554.1" style="stroke:#181818;stroke-width:1.0;"/><polygon fill="#181818" points="1538.48,651.44,1532.0594,643.9717,1533.9615,649.2991,1528.634,651.2013,1538.48,651.44" style="stroke:#181818;stroke-width:1.0;"/><text fill="#000000" font-family="sans-serif" font-size="13" lengthAdjust="spacing" textLength="32" x="1415.5" y="599.0283">authz</text><text fill="#000000" font-family="sans-serif" font-size="13" lengthAdjust="spacing" textLength="7" x="1302.0797" y="576.5134">1</text><text fill="#000000" font-family="sans-serif" font-size="13" lengthAdjust="spacing" textLength="7" x="1517.8654" y="640.4272">1</text></g><!--link RegisterCandidateController to CandidateRepository--><g id="link_RegisterCandidateController_CandidateRepository"><path codeLine="85" d="M1073.8251,562.332 C1125.0451,611.522 1174.592,659.0845 1220.272,702.9445 " fill="none" id="RegisterCandidateController-CandidateRepository" style="stroke:#181818;stroke-width:1.0;"/><polygon fill="none" points="1065.17,554.02,1066.7269,561.061,1073.8251,562.332,1072.2682,555.291,1065.17,554.02" style="stroke:#181818;stroke-width:1.0;"/><polygon fill="#181818" points="1224.6,707.1,1220.8784,697.9814,1220.9933,703.637,1215.3377,703.752,1224.6,707.1" style="stroke:#181818;stroke-width:1.0;"/><text fill="#000000" font-family="sans-serif" font-size="13" lengthAdjust="spacing" textLength="26" x="1113.5" y="599.0283">save</text><text fill="#000000" font-family="sans-serif" font-size="13" lengthAdjust="spacing" textLength="7" x="1065.7471" y="576.4265">1</text><text fill="#000000" font-family="sans-serif" font-size="13" lengthAdjust="spacing" textLength="7" x="1209.9225" y="696.035">1</text></g><!--SRC=[dLPBR-8m4BxpAonEgTeWLTeJgYgbB4jPiH2HeXuh4xl4gs2pjaD5g_tlwt7UmJoqbsBFynlFp9V6ALOAZJ0dZ61DqLSF8N-ynImD297Kw2XSG1ecWjDvjbrJYNRr6LHplAM8cp_cSbi5yo8j6T-WToQL1kqTAYGgawsxpL7T6i5lsW5hd75viXQq0TYx6Q9c0Q27P22V5n3XdYS3QNu2UICpAC9MbRVqJuPJvItMlsciaJ06Qo5IYZae4woIaI0s3UCQHCfa2MfxdPXwMZwCKAwPFXn1_jlhnROnIxfXIbDP5JuIN4kHfgO7jbMLOabtGZ4jvA5-cre6fa6c4o7P9zPCy8ZAFOifmWwX7O6zWHPcwvGf0niHfdPOnqd-46TGULS2kaDNmxb39y7Oviik6iyvLPUdi3btmtedt3aSetZVyV8LtjEp7YSMuF-XdXwSrJGVc7CJ5LT7g9c8A14VNcVCAIOfuxInDrNEdsAjlcMXENu8IIQKKubDh_Ey1V1H44vVWjdRw3bOHWtvVFNhQPnBpFQWC8YYryNo-zjiF9-yF8Eu7JqKAOiFQDUw0i1DdfQMXgq5z_SujKMtmnG3yvInb02v5Sf6vLMDZV7Etv4IEvsTRQnRxERJcfjQt7cEOylE5-1QnDW1unwrAb5xwWeezMWL2KxISHNIwsv9bsOlqVBErQCB9Ap54N6xcbDnprVdeKg5TvDJzDxzLUbKziuuUJfO_DvnDutrOWUCXTE7oksnzfkMF7-rQrMIaoNjhCt4PcEcPBQOJCPB4AmKbP49R0oH-TOKHq3X2fBN7qjgyXMcFuI465vqCBEqXIFAb2MO2c8ZXwqlDjjH2hnpXkRps31h48gwmfafg03UC3Pe2QZBaYXv4TxIH1iC1WZ7442r4r1ko9CU1NZ6Ak27nRl3UI-ONQyKNfWm3kQlJ2SXbLjcKIc7LuM-VZxRnruzNltxFdemJl1xZeU7AEzBxvoH3URxmXrjDRtexFlsvoIZNOt27mpyHtiwzGKOeYujzrmVA1FeySB3z7DC_OkWX5zWScxGqFwdyOdGzN5Sv394G22zVm00]--></g></svg>