<?xml version="1.0" encoding="us-ascii" standalone="no"?><svg xmlns="http://www.w3.org/2000/svg" xmlns:xlink="http://www.w3.org/1999/xlink" contentStyleType="text/css" height="506px" preserveAspectRatio="none" style="width:477px;height:506px;background:#FFFFFF;" version="1.1" viewBox="0 0 477 506" width="477px" zoomAndPan="magnify"><defs/><g><rect fill="#FFFFFF" height="324.7266" style="stroke:#181818;stroke-width:1.0;" width="10" x="66.5" y="91.4883"/><rect fill="#FFFFFF" height="324.7266" style="stroke:#181818;stroke-width:1.0;" width="10" x="435.5" y="91.4883"/><line style="stroke:#181818;stroke-width:0.5;stroke-dasharray:5.0,5.0;" x1="71" x2="71" y1="81.4883" y2="425.2148"/><line style="stroke:#181818;stroke-width:0.5;stroke-dasharray:5.0,5.0;" x1="440.5" x2="440.5" y1="81.4883" y2="425.2148"/><text fill="#000000" font-family="sans-serif" font-size="14" lengthAdjust="spacing" textLength="127" x="5" y="78.5352">CustomerManager</text><ellipse cx="71.5" cy="13.5" fill="#E2E2F0" rx="8" ry="8" style="stroke:#181818;stroke-width:0.5;"/><path d="M71.5,21.5 L71.5,48.5 M58.5,29.5 L84.5,29.5 M71.5,48.5 L58.5,63.5 M71.5,48.5 L84.5,63.5 " fill="none" style="stroke:#181818;stroke-width:0.5;"/><text fill="#000000" font-family="sans-serif" font-size="14" lengthAdjust="spacing" textLength="127" x="5" y="437.75">CustomerManager</text><ellipse cx="71.5" cy="449.2031" fill="#E2E2F0" rx="8" ry="8" style="stroke:#181818;stroke-width:0.5;"/><path d="M71.5,457.2031 L71.5,484.2031 M58.5,465.2031 L84.5,465.2031 M71.5,484.2031 L58.5,499.2031 M71.5,484.2031 L84.5,499.2031 " fill="none" style="stroke:#181818;stroke-width:0.5;"/><rect fill="#E2E2F0" height="30.4883" rx="2.5" ry="2.5" style="stroke:#181818;stroke-width:0.5;" width="62" x="409.5" y="50"/><text fill="#000000" font-family="sans-serif" font-size="14" lengthAdjust="spacing" textLength="48" x="416.5" y="70.5352">System</text><rect fill="#E2E2F0" height="30.4883" rx="2.5" ry="2.5" style="stroke:#181818;stroke-width:0.5;" width="62" x="409.5" y="424.2148"/><text fill="#000000" font-family="sans-serif" font-size="14" lengthAdjust="spacing" textLength="48" x="416.5" y="444.75">System</text><rect fill="#FFFFFF" height="324.7266" style="stroke:#181818;stroke-width:1.0;" width="10" x="66.5" y="91.4883"/><rect fill="#FFFFFF" height="324.7266" style="stroke:#181818;stroke-width:1.0;" width="10" x="435.5" y="91.4883"/><polygon fill="#181818" points="423.5,108.7988,433.5,112.7988,423.5,116.7988,427.5,112.7988" style="stroke:#181818;stroke-width:1.0;"/><line style="stroke:#181818;stroke-width:1.0;" x1="76.5" x2="429.5" y1="112.7988" y2="112.7988"/><text fill="#000000" font-family="sans-serif" font-size="13" lengthAdjust="spacing" textLength="185" x="83.5" y="108.0566">select the job opening option</text><polygon fill="#181818" points="87.5,138.1094,77.5,142.1094,87.5,146.1094,83.5,142.1094" style="stroke:#181818;stroke-width:1.0;"/><line style="stroke:#181818;stroke-width:1.0;" x1="81.5" x2="434.5" y1="142.1094" y2="142.1094"/><text fill="#000000" font-family="sans-serif" font-size="13" lengthAdjust="spacing" textLength="175" x="93.5" y="137.3672">show the job opening menu</text><polygon fill="#181818" points="423.5,167.4199,433.5,171.4199,423.5,175.4199,427.5,171.4199" style="stroke:#181818;stroke-width:1.0;"/><line style="stroke:#181818;stroke-width:1.0;" x1="76.5" x2="429.5" y1="171.4199" y2="171.4199"/><text fill="#000000" font-family="sans-serif" font-size="13" lengthAdjust="spacing" textLength="210" x="83.5" y="166.6777">select the rank candidates option</text><polygon fill="#181818" points="87.5,227.3516,77.5,231.3516,87.5,235.3516,83.5,231.3516" style="stroke:#181818;stroke-width:1.0;"/><line style="stroke:#181818;stroke-width:1.0;" x1="81.5" x2="434.5" y1="231.3516" y2="231.3516"/><text fill="#000000" font-family="sans-serif" font-size="13" lengthAdjust="spacing" textLength="143" x="93.5" y="195.9883">show the job openings</text><text fill="#000000" font-family="sans-serif" font-size="13" lengthAdjust="spacing" textLength="186" x="93.5" y="211.2988">that are in the Analysis phase</text><text fill="#000000" font-family="sans-serif" font-size="13" lengthAdjust="spacing" textLength="212" x="93.5" y="226.6094">and are his responsibility as a list</text><polygon fill="#181818" points="423.5,256.6621,433.5,260.6621,423.5,264.6621,427.5,260.6621" style="stroke:#181818;stroke-width:1.0;"/><line style="stroke:#181818;stroke-width:1.0;" x1="76.5" x2="429.5" y1="260.6621" y2="260.6621"/><text fill="#000000" font-family="sans-serif" font-size="13" lengthAdjust="spacing" textLength="140" x="83.5" y="255.9199">select the job opening</text><polygon fill="#181818" points="87.5,285.9727,77.5,289.9727,87.5,293.9727,83.5,289.9727" style="stroke:#181818;stroke-width:1.0;"/><line style="stroke:#181818;stroke-width:1.0;" x1="81.5" x2="434.5" y1="289.9727" y2="289.9727"/><text fill="#000000" font-family="sans-serif" font-size="13" lengthAdjust="spacing" textLength="335" x="93.5" y="285.2305">show the candidates list and asks for the ordered list</text><polygon fill="#181818" points="423.5,315.2832,433.5,319.2832,423.5,323.2832,427.5,319.2832" style="stroke:#181818;stroke-width:1.0;"/><line style="stroke:#181818;stroke-width:1.0;" x1="76.5" x2="429.5" y1="319.2832" y2="319.2832"/><text fill="#000000" font-family="sans-serif" font-size="13" lengthAdjust="spacing" textLength="304" x="83.5" y="314.541">Insert the candidates email separated by comma</text><polygon fill="#181818" points="87.5,344.5938,77.5,348.5938,87.5,352.5938,83.5,348.5938" style="stroke:#181818;stroke-width:1.0;"/><line style="stroke:#181818;stroke-width:1.0;" x1="81.5" x2="434.5" y1="348.5938" y2="348.5938"/><text fill="#000000" font-family="sans-serif" font-size="13" lengthAdjust="spacing" textLength="219" x="93.5" y="343.8516">show the rank and asks to confirm</text><polygon fill="#181818" points="423.5,373.9043,433.5,377.9043,423.5,381.9043,427.5,377.9043" style="stroke:#181818;stroke-width:1.0;"/><line style="stroke:#181818;stroke-width:1.0;" x1="76.5" x2="429.5" y1="377.9043" y2="377.9043"/><text fill="#000000" font-family="sans-serif" font-size="13" lengthAdjust="spacing" textLength="105" x="83.5" y="373.1621">confirm the rank</text><polygon fill="#181818" points="87.5,403.2148,77.5,407.2148,87.5,411.2148,83.5,407.2148" style="stroke:#181818;stroke-width:1.0;"/><line style="stroke:#181818;stroke-width:1.0;" x1="81.5" x2="434.5" y1="407.2148" y2="407.2148"/><text fill="#000000" font-family="sans-serif" font-size="13" lengthAdjust="spacing" textLength="180" x="93.5" y="402.4727">show the rank save message</text><!--SRC=[dL8nRiCm3Dpz2dwW7yXGeEZK8LFNBhJCH6mioY2P5FvzQJSr0gSet4w2T7Uy4qbCNXMUp-QraEvHy4ZQ3AZEYGSKXzVHd4hJO7A-eDCTUG6-cIi2F3nUeHqOzPGSF1EyrnRgGC9oZDEvIlF5clYh4Y7CzUDELaZE6zqKvGG9fUCkeje_7GtUn3Cwe1AmpF2JO3yQ6mmPZO8G9ZEUuqt9XYh6BVVi8w01Gi_cV-_HfgWt7vnSO8vY9uD337aYLEr8gVinmqs45p5INvUaWjn7lDYEk7VGZf1gARWfsZo09O_NaCg1jVpMYIjbqMytChnGh8TPW9y0]--></g></svg>