<?xml version="1.0" encoding="us-ascii" standalone="no"?><svg xmlns="http://www.w3.org/2000/svg" xmlns:xlink="http://www.w3.org/1999/xlink" contentStyleType="text/css" height="770px" preserveAspectRatio="none" style="width:893px;height:770px;background:#FFFFFF;" version="1.1" viewBox="0 0 893 770" width="893px" zoomAndPan="magnify"><defs/><g><rect fill="#FFFFFF" height="584.8203" style="stroke:#181818;stroke-width:1.0;" width="10" x="61.5" y="93.6211"/><rect fill="#FFFFFF" height="552.5293" style="stroke:#181818;stroke-width:1.0;" width="10" x="302.5" y="116.9121"/><rect fill="#FFFFFF" height="93.873" style="stroke:#181818;stroke-width:1.0;" width="10" x="526.5" y="148.2031"/><rect fill="#FFFFFF" height="125.1641" style="stroke:#181818;stroke-width:1.0;" width="10" x="526.5" y="512.9863"/><rect fill="#FFFFFF" height="31.291" style="stroke:#181818;stroke-width:1.0;" width="10" x="703.5" y="179.4941"/><rect fill="#FFFFFF" height="31.291" style="stroke:#181818;stroke-width:1.0;" width="10" x="703.5" y="575.5684"/><line style="stroke:#181818;stroke-width:0.5;stroke-dasharray:5.0,5.0;" x1="66" x2="66" y1="83.6211" y2="687.4414"/><line style="stroke:#181818;stroke-width:0.5;stroke-dasharray:5.0,5.0;" x1="307.5" x2="307.5" y1="83.6211" y2="687.4414"/><line style="stroke:#181818;stroke-width:0.5;stroke-dasharray:5.0,5.0;" x1="531.5" x2="531.5" y1="83.6211" y2="687.4414"/><line style="stroke:#181818;stroke-width:0.5;stroke-dasharray:5.0,5.0;" x1="708.5" x2="708.5" y1="83.6211" y2="687.4414"/><line style="stroke:#181818;stroke-width:0.5;stroke-dasharray:5.0,5.0;" x1="842.5" x2="842.5" y1="83.6211" y2="687.4414"/><text fill="#000000" font-family="sans-serif" font-size="14" lengthAdjust="spacing" textLength="117" x="5" y="80.1074">CustomerManager</text><ellipse cx="66.5" cy="13.5" fill="#E2E2F0" rx="8" ry="8" style="stroke:#181818;stroke-width:0.5;"/><path d="M66.5,21.5 L66.5,48.5 M53.5,29.5 L79.5,29.5 M66.5,48.5 L53.5,63.5 M66.5,48.5 L79.5,63.5 " fill="none" style="stroke:#181818;stroke-width:0.5;"/><text fill="#000000" font-family="sans-serif" font-size="14" lengthAdjust="spacing" textLength="117" x="5" y="701.5488">CustomerManager</text><ellipse cx="66.5" cy="713.5625" fill="#E2E2F0" rx="8" ry="8" style="stroke:#181818;stroke-width:0.5;"/><path d="M66.5,721.5625 L66.5,748.5625 M53.5,729.5625 L79.5,729.5625 M66.5,748.5625 L53.5,763.5625 M66.5,748.5625 L79.5,763.5625 " fill="none" style="stroke:#181818;stroke-width:0.5;"/><rect fill="#E2E2F0" height="51.2422" rx="2.5" ry="2.5" style="stroke:#181818;stroke-width:0.5;" width="126" x="244.5" y="31.3789"/><text fill="#000000" font-family="sans-serif" font-size="14" font-style="italic" lengthAdjust="spacing" textLength="95" x="260" y="53.4863">&#171;presentation&#187;</text><text fill="#000000" font-family="sans-serif" font-size="14" lengthAdjust="spacing" textLength="112" x="251.5" y="72.1074">EditJobOpeningUI</text><rect fill="#E2E2F0" height="51.2422" rx="2.5" ry="2.5" style="stroke:#181818;stroke-width:0.5;" width="126" x="244.5" y="686.4414"/><text fill="#000000" font-family="sans-serif" font-size="14" font-style="italic" lengthAdjust="spacing" textLength="95" x="260" y="708.5488">&#171;presentation&#187;</text><text fill="#000000" font-family="sans-serif" font-size="14" lengthAdjust="spacing" textLength="112" x="251.5" y="727.1699">EditJobOpeningUI</text><rect fill="#E2E2F0" height="51.2422" rx="2.5" ry="2.5" style="stroke:#181818;stroke-width:0.5;" width="176" x="443.5" y="31.3789"/><text fill="#000000" font-family="sans-serif" font-size="14" font-style="italic" lengthAdjust="spacing" textLength="84" x="489.5" y="53.4863">&#171;application&#187;</text><text fill="#000000" font-family="sans-serif" font-size="14" lengthAdjust="spacing" textLength="162" x="450.5" y="72.1074">EditJobOpeningController</text><rect fill="#E2E2F0" height="51.2422" rx="2.5" ry="2.5" style="stroke:#181818;stroke-width:0.5;" width="176" x="443.5" y="686.4414"/><text fill="#000000" font-family="sans-serif" font-size="14" font-style="italic" lengthAdjust="spacing" textLength="84" x="489.5" y="708.5488">&#171;application&#187;</text><text fill="#000000" font-family="sans-serif" font-size="14" lengthAdjust="spacing" textLength="162" x="450.5" y="727.1699">EditJobOpeningController</text><rect fill="#E2E2F0" height="51.2422" rx="2.5" ry="2.5" style="stroke:#181818;stroke-width:0.5;" width="158" x="629.5" y="31.3789"/><text fill="#000000" font-family="sans-serif" font-size="14" font-style="italic" lengthAdjust="spacing" textLength="79" x="669" y="53.4863">&#171;repository&#187;</text><text fill="#000000" font-family="sans-serif" font-size="14" lengthAdjust="spacing" textLength="144" x="636.5" y="72.1074">JobOpeningRepository</text><rect fill="#E2E2F0" height="51.2422" rx="2.5" ry="2.5" style="stroke:#181818;stroke-width:0.5;" width="158" x="629.5" y="686.4414"/><text fill="#000000" font-family="sans-serif" font-size="14" font-style="italic" lengthAdjust="spacing" textLength="79" x="669" y="708.5488">&#171;repository&#187;</text><text fill="#000000" font-family="sans-serif" font-size="14" lengthAdjust="spacing" textLength="144" x="636.5" y="727.1699">JobOpeningRepository</text><rect fill="#E2E2F0" height="51.2422" rx="2.5" ry="2.5" style="stroke:#181818;stroke-width:0.5;" width="90" x="797.5" y="31.3789"/><text fill="#000000" font-family="sans-serif" font-size="14" font-style="italic" lengthAdjust="spacing" textLength="62" x="811.5" y="53.4863">&#171;domain&#187;</text><text fill="#000000" font-family="sans-serif" font-size="14" lengthAdjust="spacing" textLength="76" x="804.5" y="72.1074">JobOpening</text><rect fill="#E2E2F0" height="51.2422" rx="2.5" ry="2.5" style="stroke:#181818;stroke-width:0.5;" width="90" x="797.5" y="686.4414"/><text fill="#000000" font-family="sans-serif" font-size="14" font-style="italic" lengthAdjust="spacing" textLength="62" x="811.5" y="708.5488">&#171;domain&#187;</text><text fill="#000000" font-family="sans-serif" font-size="14" lengthAdjust="spacing" textLength="76" x="804.5" y="727.1699">JobOpening</text><rect fill="#FFFFFF" height="584.8203" style="stroke:#181818;stroke-width:1.0;" width="10" x="61.5" y="93.6211"/><rect fill="#FFFFFF" height="552.5293" style="stroke:#181818;stroke-width:1.0;" width="10" x="302.5" y="116.9121"/><rect fill="#FFFFFF" height="93.873" style="stroke:#181818;stroke-width:1.0;" width="10" x="526.5" y="148.2031"/><rect fill="#FFFFFF" height="125.1641" style="stroke:#181818;stroke-width:1.0;" width="10" x="526.5" y="512.9863"/><rect fill="#FFFFFF" height="31.291" style="stroke:#181818;stroke-width:1.0;" width="10" x="703.5" y="179.4941"/><rect fill="#FFFFFF" height="31.291" style="stroke:#181818;stroke-width:1.0;" width="10" x="703.5" y="575.5684"/><polygon fill="#181818" points="290.5,112.9121,300.5,116.9121,290.5,120.9121,294.5,116.9121" style="stroke:#181818;stroke-width:1.0;"/><line style="stroke:#181818;stroke-width:1.0;" x1="71.5" x2="296.5" y1="116.9121" y2="116.9121"/><text fill="#000000" font-family="sans-serif" font-size="13" font-weight="bold" lengthAdjust="spacing" textLength="7" x="78.5" y="111.6494">1</text><text fill="#000000" font-family="sans-serif" font-size="13" lengthAdjust="spacing" textLength="149" x="89.5" y="111.6494">asks to edit a job opening</text><polygon fill="#181818" points="514.5,144.2031,524.5,148.2031,514.5,152.2031,518.5,148.2031" style="stroke:#181818;stroke-width:1.0;"/><line style="stroke:#181818;stroke-width:1.0;" x1="312.5" x2="520.5" y1="148.2031" y2="148.2031"/><text fill="#000000" font-family="sans-serif" font-size="13" font-weight="bold" lengthAdjust="spacing" textLength="7" x="319.5" y="142.9404">2</text><text fill="#000000" font-family="sans-serif" font-size="13" lengthAdjust="spacing" textLength="126" x="330.5" y="142.9404">inactiveJobOpenings()</text><polygon fill="#181818" points="691.5,175.4941,701.5,179.4941,691.5,183.4941,695.5,179.4941" style="stroke:#181818;stroke-width:1.0;"/><line style="stroke:#181818;stroke-width:1.0;" x1="536.5" x2="697.5" y1="179.4941" y2="179.4941"/><text fill="#000000" font-family="sans-serif" font-size="13" font-weight="bold" lengthAdjust="spacing" textLength="7" x="543.5" y="174.2314">3</text><text fill="#000000" font-family="sans-serif" font-size="13" lengthAdjust="spacing" textLength="119" x="554.5" y="174.2314">findInInactiveStatus()</text><polygon fill="#181818" points="547.5,206.7852,537.5,210.7852,547.5,214.7852,543.5,210.7852" style="stroke:#181818;stroke-width:1.0;"/><line style="stroke:#181818;stroke-width:1.0;stroke-dasharray:2.0,2.0;" x1="541.5" x2="707.5" y1="210.7852" y2="210.7852"/><text fill="#000000" font-family="sans-serif" font-size="13" font-weight="bold" lengthAdjust="spacing" textLength="7" x="553.5" y="205.5225">4</text><text fill="#000000" font-family="sans-serif" font-size="13" lengthAdjust="spacing" textLength="72" x="564.5" y="205.5225">jobOpenings</text><polygon fill="#181818" points="323.5,238.0762,313.5,242.0762,323.5,246.0762,319.5,242.0762" style="stroke:#181818;stroke-width:1.0;"/><line style="stroke:#181818;stroke-width:1.0;stroke-dasharray:2.0,2.0;" x1="317.5" x2="530.5" y1="242.0762" y2="242.0762"/><text fill="#000000" font-family="sans-serif" font-size="13" font-weight="bold" lengthAdjust="spacing" textLength="7" x="329.5" y="236.8135">5</text><text fill="#000000" font-family="sans-serif" font-size="13" lengthAdjust="spacing" textLength="72" x="340.5" y="236.8135">jobOpenings</text><polygon fill="#181818" points="82.5,286.6582,72.5,290.6582,82.5,294.6582,78.5,290.6582" style="stroke:#181818;stroke-width:1.0;"/><line style="stroke:#181818;stroke-width:1.0;stroke-dasharray:2.0,2.0;" x1="76.5" x2="301.5" y1="290.6582" y2="290.6582"/><text fill="#000000" font-family="sans-serif" font-size="13" font-weight="bold" lengthAdjust="spacing" textLength="7" x="88.5" y="276.75">6</text><text fill="#000000" font-family="sans-serif" font-size="13" lengthAdjust="spacing" textLength="196" x="99.5" y="268.1045">shows list of inactive job openings</text><text fill="#000000" font-family="sans-serif" font-size="13" lengthAdjust="spacing" textLength="132" x="99.5" y="285.3955">and asks to select one</text><polygon fill="#181818" points="290.5,317.9492,300.5,321.9492,290.5,325.9492,294.5,321.9492" style="stroke:#181818;stroke-width:1.0;"/><line style="stroke:#181818;stroke-width:1.0;" x1="71.5" x2="296.5" y1="321.9492" y2="321.9492"/><text fill="#000000" font-family="sans-serif" font-size="13" font-weight="bold" lengthAdjust="spacing" textLength="7" x="78.5" y="316.6865">7</text><text fill="#000000" font-family="sans-serif" font-size="13" lengthAdjust="spacing" textLength="137" x="89.5" y="316.6865">selects one job opening</text><polygon fill="#181818" points="82.5,366.5313,72.5,370.5313,82.5,374.5313,78.5,370.5313" style="stroke:#181818;stroke-width:1.0;"/><line style="stroke:#181818;stroke-width:1.0;stroke-dasharray:2.0,2.0;" x1="76.5" x2="301.5" y1="370.5313" y2="370.5313"/><text fill="#000000" font-family="sans-serif" font-size="13" font-weight="bold" lengthAdjust="spacing" textLength="7" x="88.5" y="356.623">8</text><text fill="#000000" font-family="sans-serif" font-size="13" lengthAdjust="spacing" textLength="145" x="99.5" y="347.9775">shows list of attributes to</text><text fill="#000000" font-family="sans-serif" font-size="13" lengthAdjust="spacing" textLength="157" x="99.5" y="365.2686">edit and asks to select one</text><polygon fill="#181818" points="290.5,397.8223,300.5,401.8223,290.5,405.8223,294.5,401.8223" style="stroke:#181818;stroke-width:1.0;"/><line style="stroke:#181818;stroke-width:1.0;" x1="71.5" x2="296.5" y1="401.8223" y2="401.8223"/><text fill="#000000" font-family="sans-serif" font-size="13" font-weight="bold" lengthAdjust="spacing" textLength="7" x="78.5" y="396.5596">9</text><text fill="#000000" font-family="sans-serif" font-size="13" lengthAdjust="spacing" textLength="173" x="89.5" y="396.5596">selects contract type attribute</text><polygon fill="#181818" points="82.5,446.4043,72.5,450.4043,82.5,454.4043,78.5,450.4043" style="stroke:#181818;stroke-width:1.0;"/><line style="stroke:#181818;stroke-width:1.0;stroke-dasharray:2.0,2.0;" x1="76.5" x2="301.5" y1="450.4043" y2="450.4043"/><text fill="#000000" font-family="sans-serif" font-size="13" font-weight="bold" lengthAdjust="spacing" textLength="14" x="88.5" y="436.4961">10</text><text fill="#000000" font-family="sans-serif" font-size="13" lengthAdjust="spacing" textLength="152" x="106.5" y="427.8506">shows list of contract type</text><text fill="#000000" font-family="sans-serif" font-size="13" lengthAdjust="spacing" textLength="159" x="106.5" y="445.1416">and asks to select new one</text><polygon fill="#181818" points="290.5,477.6953,300.5,481.6953,290.5,485.6953,294.5,481.6953" style="stroke:#181818;stroke-width:1.0;"/><line style="stroke:#181818;stroke-width:1.0;" x1="71.5" x2="296.5" y1="481.6953" y2="481.6953"/><text fill="#000000" font-family="sans-serif" font-size="13" font-weight="bold" lengthAdjust="spacing" textLength="14" x="78.5" y="476.4326">11</text><text fill="#000000" font-family="sans-serif" font-size="13" lengthAdjust="spacing" textLength="149" x="96.5" y="476.4326">selects new contract type</text><polygon fill="#181818" points="514.5,508.9863,524.5,512.9863,514.5,516.9863,518.5,512.9863" style="stroke:#181818;stroke-width:1.0;"/><line style="stroke:#181818;stroke-width:1.0;" x1="312.5" x2="520.5" y1="512.9863" y2="512.9863"/><text fill="#000000" font-family="sans-serif" font-size="13" font-weight="bold" lengthAdjust="spacing" textLength="14" x="319.5" y="507.7236">12</text><text fill="#000000" font-family="sans-serif" font-size="13" lengthAdjust="spacing" textLength="177" x="337.5" y="507.7236">edit(jobOpening, contractType)</text><polygon fill="#181818" points="830.5,540.2773,840.5,544.2773,830.5,548.2773,834.5,544.2773" style="stroke:#181818;stroke-width:1.0;"/><line style="stroke:#181818;stroke-width:1.0;" x1="536.5" x2="836.5" y1="544.2773" y2="544.2773"/><text fill="#000000" font-family="sans-serif" font-size="13" font-weight="bold" lengthAdjust="spacing" textLength="14" x="543.5" y="539.0146">13</text><text fill="#000000" font-family="sans-serif" font-size="13" lengthAdjust="spacing" textLength="181" x="561.5" y="539.0146">editContractType(contractType)</text><polygon fill="#181818" points="691.5,571.5684,701.5,575.5684,691.5,579.5684,695.5,575.5684" style="stroke:#181818;stroke-width:1.0;"/><line style="stroke:#181818;stroke-width:1.0;" x1="536.5" x2="697.5" y1="575.5684" y2="575.5684"/><text fill="#000000" font-family="sans-serif" font-size="13" font-weight="bold" lengthAdjust="spacing" textLength="14" x="543.5" y="570.3057">14</text><text fill="#000000" font-family="sans-serif" font-size="13" lengthAdjust="spacing" textLength="99" x="561.5" y="570.3057">save(jobOpening)</text><polygon fill="#181818" points="547.5,602.8594,537.5,606.8594,547.5,610.8594,543.5,606.8594" style="stroke:#181818;stroke-width:1.0;"/><line style="stroke:#181818;stroke-width:1.0;stroke-dasharray:2.0,2.0;" x1="541.5" x2="707.5" y1="606.8594" y2="606.8594"/><text fill="#000000" font-family="sans-serif" font-size="13" font-weight="bold" lengthAdjust="spacing" textLength="14" x="553.5" y="601.5967">15</text><text fill="#000000" font-family="sans-serif" font-size="13" lengthAdjust="spacing" textLength="4" x="571.5" y="601.5967">&#160;</text><polygon fill="#181818" points="323.5,634.1504,313.5,638.1504,323.5,642.1504,319.5,638.1504" style="stroke:#181818;stroke-width:1.0;"/><line style="stroke:#181818;stroke-width:1.0;stroke-dasharray:2.0,2.0;" x1="317.5" x2="530.5" y1="638.1504" y2="638.1504"/><text fill="#000000" font-family="sans-serif" font-size="13" font-weight="bold" lengthAdjust="spacing" textLength="14" x="329.5" y="632.8877">16</text><text fill="#000000" font-family="sans-serif" font-size="13" lengthAdjust="spacing" textLength="4" x="347.5" y="632.8877">&#160;</text><polygon fill="#181818" points="82.5,665.4414,72.5,669.4414,82.5,673.4414,78.5,669.4414" style="stroke:#181818;stroke-width:1.0;"/><line style="stroke:#181818;stroke-width:1.0;stroke-dasharray:2.0,2.0;" x1="76.5" x2="306.5" y1="669.4414" y2="669.4414"/><text fill="#000000" font-family="sans-serif" font-size="13" font-weight="bold" lengthAdjust="spacing" textLength="14" x="88.5" y="664.1787">17</text><text fill="#000000" font-family="sans-serif" font-size="13" lengthAdjust="spacing" textLength="86" x="106.5" y="664.1787">backs to menu</text><!--SRC=[jPGxRy8m4CVtV0flfL8fUuHOK0SgLPNws5WkoG6coTcrBo2-VUq6vK4IHADqY-Fx_-xjknspjk5ifbCWphFqCLRPpE9tZXJZD96mDP050UIiACyYDEuxPcN4ChUiCZGlGB1rlpKObh7K3YEU4idFAdhLI9Asdoindsk35ec1fQB5uehrKX4RbQPed0gqJcNS9Qe4RwYLbIwaanEOyj1hxwmIbO7qH9-BF01ZAvsBivWksbc50koN5Qm4kYi1OgyYeOhhYdmf2rgS5hjMWr18-aLXTMqdzttuIXdq8fsxpkg5OYCfMT7gxF3TTIjl-EgI1PsiwVMSzbKkGOBN-VrvTFUaXtrZdNmx7FUo_Q6mEtMq8fMMXTgKJQcttAu9A2bdmcAAiJCcl76O2e7rYiOa3GeGc8sCSaOVovgA0HqZkjXNpYKl-AInSZCioWQiito4nm51UbM3_TUby_MQL9FqKD8-76oyxJjxMjRWawQd0LjiuO2rsFzXVyVUsJ7tD8Au6A0CAUy7ktVu1m00]--></g></svg>