<?xml version="1.0" encoding="us-ascii" standalone="no"?><svg xmlns="http://www.w3.org/2000/svg" xmlns:xlink="http://www.w3.org/1999/xlink" contentStyleType="text/css" height="741px" preserveAspectRatio="none" style="width:904px;height:741px;background:#FFFFFF;" version="1.1" viewBox="0 0 904 741" width="904px" zoomAndPan="magnify"><defs/><g><rect fill="#FFFFFF" height="555.5293" style="stroke:#181818;stroke-width:1.0;" width="10" x="61.5" y="93.6211"/><rect fill="#FFFFFF" height="523.2383" style="stroke:#181818;stroke-width:1.0;" width="10" x="302.5" y="116.9121"/><rect fill="#FFFFFF" height="93.873" style="stroke:#181818;stroke-width:1.0;" width="10" x="527.5" y="148.2031"/><rect fill="#FFFFFF" height="95.873" style="stroke:#181818;stroke-width:1.0;" width="10" x="527.5" y="512.9863"/><rect fill="#FFFFFF" height="31.291" style="stroke:#181818;stroke-width:1.0;" width="10" x="704.5" y="179.4941"/><rect fill="none" height="50.582" style="stroke:#000000;stroke-width:1.5;" width="464" x="434.5" y="527.9863"/><line style="stroke:#181818;stroke-width:0.5;stroke-dasharray:5.0,5.0;" x1="66" x2="66" y1="83.6211" y2="658.1504"/><line style="stroke:#181818;stroke-width:0.5;stroke-dasharray:5.0,5.0;" x1="307.5" x2="307.5" y1="83.6211" y2="658.1504"/><line style="stroke:#181818;stroke-width:0.5;stroke-dasharray:5.0,5.0;" x1="532.5" x2="532.5" y1="83.6211" y2="658.1504"/><line style="stroke:#181818;stroke-width:0.5;stroke-dasharray:5.0,5.0;" x1="709.5" x2="709.5" y1="83.6211" y2="658.1504"/><line style="stroke:#181818;stroke-width:0.5;stroke-dasharray:5.0,5.0;" x1="843.5" x2="843.5" y1="83.6211" y2="658.1504"/><text fill="#000000" font-family="sans-serif" font-size="14" lengthAdjust="spacing" textLength="117" x="5" y="80.1074">CustomerManager</text><ellipse cx="66.5" cy="13.5" fill="#E2E2F0" rx="8" ry="8" style="stroke:#181818;stroke-width:0.5;"/><path d="M66.5,21.5 L66.5,48.5 M53.5,29.5 L79.5,29.5 M66.5,48.5 L53.5,63.5 M66.5,48.5 L79.5,63.5 " fill="none" style="stroke:#181818;stroke-width:0.5;"/><text fill="#000000" font-family="sans-serif" font-size="14" lengthAdjust="spacing" textLength="117" x="5" y="672.2578">CustomerManager</text><ellipse cx="66.5" cy="684.2715" fill="#E2E2F0" rx="8" ry="8" style="stroke:#181818;stroke-width:0.5;"/><path d="M66.5,692.2715 L66.5,719.2715 M53.5,700.2715 L79.5,700.2715 M66.5,719.2715 L53.5,734.2715 M66.5,719.2715 L79.5,734.2715 " fill="none" style="stroke:#181818;stroke-width:0.5;"/><rect fill="#E2E2F0" height="51.2422" rx="2.5" ry="2.5" style="stroke:#181818;stroke-width:0.5;" width="126" x="244.5" y="31.3789"/><text fill="#000000" font-family="sans-serif" font-size="14" font-style="italic" lengthAdjust="spacing" textLength="95" x="260" y="53.4863">&#171;presentation&#187;</text><text fill="#000000" font-family="sans-serif" font-size="14" lengthAdjust="spacing" textLength="112" x="251.5" y="72.1074">EditJobOpeningUI</text><rect fill="#E2E2F0" height="51.2422" rx="2.5" ry="2.5" style="stroke:#181818;stroke-width:0.5;" width="126" x="244.5" y="657.1504"/><text fill="#000000" font-family="sans-serif" font-size="14" font-style="italic" lengthAdjust="spacing" textLength="95" x="260" y="679.2578">&#171;presentation&#187;</text><text fill="#000000" font-family="sans-serif" font-size="14" lengthAdjust="spacing" textLength="112" x="251.5" y="697.8789">EditJobOpeningUI</text><rect fill="#E2E2F0" height="51.2422" rx="2.5" ry="2.5" style="stroke:#181818;stroke-width:0.5;" width="176" x="444.5" y="31.3789"/><text fill="#000000" font-family="sans-serif" font-size="14" font-style="italic" lengthAdjust="spacing" textLength="84" x="490.5" y="53.4863">&#171;application&#187;</text><text fill="#000000" font-family="sans-serif" font-size="14" lengthAdjust="spacing" textLength="162" x="451.5" y="72.1074">EditJobOpeningController</text><rect fill="#E2E2F0" height="51.2422" rx="2.5" ry="2.5" style="stroke:#181818;stroke-width:0.5;" width="176" x="444.5" y="657.1504"/><text fill="#000000" font-family="sans-serif" font-size="14" font-style="italic" lengthAdjust="spacing" textLength="84" x="490.5" y="679.2578">&#171;application&#187;</text><text fill="#000000" font-family="sans-serif" font-size="14" lengthAdjust="spacing" textLength="162" x="451.5" y="697.8789">EditJobOpeningController</text><rect fill="#E2E2F0" height="51.2422" rx="2.5" ry="2.5" style="stroke:#181818;stroke-width:0.5;" width="158" x="630.5" y="31.3789"/><text fill="#000000" font-family="sans-serif" font-size="14" font-style="italic" lengthAdjust="spacing" textLength="79" x="670" y="53.4863">&#171;repository&#187;</text><text fill="#000000" font-family="sans-serif" font-size="14" lengthAdjust="spacing" textLength="144" x="637.5" y="72.1074">JobOpeningRepository</text><rect fill="#E2E2F0" height="51.2422" rx="2.5" ry="2.5" style="stroke:#181818;stroke-width:0.5;" width="158" x="630.5" y="657.1504"/><text fill="#000000" font-family="sans-serif" font-size="14" font-style="italic" lengthAdjust="spacing" textLength="79" x="670" y="679.2578">&#171;repository&#187;</text><text fill="#000000" font-family="sans-serif" font-size="14" lengthAdjust="spacing" textLength="144" x="637.5" y="697.8789">JobOpeningRepository</text><rect fill="#E2E2F0" height="51.2422" rx="2.5" ry="2.5" style="stroke:#181818;stroke-width:0.5;" width="90" x="798.5" y="31.3789"/><text fill="#000000" font-family="sans-serif" font-size="14" font-style="italic" lengthAdjust="spacing" textLength="62" x="812.5" y="53.4863">&#171;domain&#187;</text><text fill="#000000" font-family="sans-serif" font-size="14" lengthAdjust="spacing" textLength="76" x="805.5" y="72.1074">JobOpening</text><rect fill="#E2E2F0" height="51.2422" rx="2.5" ry="2.5" style="stroke:#181818;stroke-width:0.5;" width="90" x="798.5" y="657.1504"/><text fill="#000000" font-family="sans-serif" font-size="14" font-style="italic" lengthAdjust="spacing" textLength="62" x="812.5" y="679.2578">&#171;domain&#187;</text><text fill="#000000" font-family="sans-serif" font-size="14" lengthAdjust="spacing" textLength="76" x="805.5" y="697.8789">JobOpening</text><rect fill="#FFFFFF" height="555.5293" style="stroke:#181818;stroke-width:1.0;" width="10" x="61.5" y="93.6211"/><rect fill="#FFFFFF" height="523.2383" style="stroke:#181818;stroke-width:1.0;" width="10" x="302.5" y="116.9121"/><rect fill="#FFFFFF" height="93.873" style="stroke:#181818;stroke-width:1.0;" width="10" x="527.5" y="148.2031"/><rect fill="#FFFFFF" height="95.873" style="stroke:#181818;stroke-width:1.0;" width="10" x="527.5" y="512.9863"/><rect fill="#FFFFFF" height="31.291" style="stroke:#181818;stroke-width:1.0;" width="10" x="704.5" y="179.4941"/><polygon fill="#181818" points="290.5,112.9121,300.5,116.9121,290.5,120.9121,294.5,116.9121" style="stroke:#181818;stroke-width:1.0;"/><line style="stroke:#181818;stroke-width:1.0;" x1="71.5" x2="296.5" y1="116.9121" y2="116.9121"/><text fill="#000000" font-family="sans-serif" font-size="13" font-weight="bold" lengthAdjust="spacing" textLength="7" x="78.5" y="111.6494">1</text><text fill="#000000" font-family="sans-serif" font-size="13" lengthAdjust="spacing" textLength="149" x="89.5" y="111.6494">asks to edit a job opening</text><polygon fill="#181818" points="515.5,144.2031,525.5,148.2031,515.5,152.2031,519.5,148.2031" style="stroke:#181818;stroke-width:1.0;"/><line style="stroke:#181818;stroke-width:1.0;" x1="312.5" x2="521.5" y1="148.2031" y2="148.2031"/><text fill="#000000" font-family="sans-serif" font-size="13" font-weight="bold" lengthAdjust="spacing" textLength="7" x="319.5" y="142.9404">2</text><text fill="#000000" font-family="sans-serif" font-size="13" lengthAdjust="spacing" textLength="126" x="330.5" y="142.9404">inactiveJobOpenings()</text><polygon fill="#181818" points="692.5,175.4941,702.5,179.4941,692.5,183.4941,696.5,179.4941" style="stroke:#181818;stroke-width:1.0;"/><line style="stroke:#181818;stroke-width:1.0;" x1="537.5" x2="698.5" y1="179.4941" y2="179.4941"/><text fill="#000000" font-family="sans-serif" font-size="13" font-weight="bold" lengthAdjust="spacing" textLength="7" x="544.5" y="174.2314">3</text><text fill="#000000" font-family="sans-serif" font-size="13" lengthAdjust="spacing" textLength="119" x="555.5" y="174.2314">findInInactiveStatus()</text><polygon fill="#181818" points="548.5,206.7852,538.5,210.7852,548.5,214.7852,544.5,210.7852" style="stroke:#181818;stroke-width:1.0;"/><line style="stroke:#181818;stroke-width:1.0;stroke-dasharray:2.0,2.0;" x1="542.5" x2="708.5" y1="210.7852" y2="210.7852"/><text fill="#000000" font-family="sans-serif" font-size="13" font-weight="bold" lengthAdjust="spacing" textLength="7" x="554.5" y="205.5225">4</text><text fill="#000000" font-family="sans-serif" font-size="13" lengthAdjust="spacing" textLength="72" x="565.5" y="205.5225">jobOpenings</text><polygon fill="#181818" points="323.5,238.0762,313.5,242.0762,323.5,246.0762,319.5,242.0762" style="stroke:#181818;stroke-width:1.0;"/><line style="stroke:#181818;stroke-width:1.0;stroke-dasharray:2.0,2.0;" x1="317.5" x2="531.5" y1="242.0762" y2="242.0762"/><text fill="#000000" font-family="sans-serif" font-size="13" font-weight="bold" lengthAdjust="spacing" textLength="7" x="329.5" y="236.8135">5</text><text fill="#000000" font-family="sans-serif" font-size="13" lengthAdjust="spacing" textLength="72" x="340.5" y="236.8135">jobOpenings</text><polygon fill="#181818" points="82.5,286.6582,72.5,290.6582,82.5,294.6582,78.5,290.6582" style="stroke:#181818;stroke-width:1.0;"/><line style="stroke:#181818;stroke-width:1.0;stroke-dasharray:2.0,2.0;" x1="76.5" x2="301.5" y1="290.6582" y2="290.6582"/><text fill="#000000" font-family="sans-serif" font-size="13" font-weight="bold" lengthAdjust="spacing" textLength="7" x="88.5" y="276.75">6</text><text fill="#000000" font-family="sans-serif" font-size="13" lengthAdjust="spacing" textLength="196" x="99.5" y="268.1045">shows list of inactive job openings</text><text fill="#000000" font-family="sans-serif" font-size="13" lengthAdjust="spacing" textLength="132" x="99.5" y="285.3955">and asks to select one</text><polygon fill="#181818" points="290.5,317.9492,300.5,321.9492,290.5,325.9492,294.5,321.9492" style="stroke:#181818;stroke-width:1.0;"/><line style="stroke:#181818;stroke-width:1.0;" x1="71.5" x2="296.5" y1="321.9492" y2="321.9492"/><text fill="#000000" font-family="sans-serif" font-size="13" font-weight="bold" lengthAdjust="spacing" textLength="7" x="78.5" y="316.6865">7</text><text fill="#000000" font-family="sans-serif" font-size="13" lengthAdjust="spacing" textLength="137" x="89.5" y="316.6865">selects one job opening</text><polygon fill="#181818" points="82.5,366.5313,72.5,370.5313,82.5,374.5313,78.5,370.5313" style="stroke:#181818;stroke-width:1.0;"/><line style="stroke:#181818;stroke-width:1.0;stroke-dasharray:2.0,2.0;" x1="76.5" x2="301.5" y1="370.5313" y2="370.5313"/><text fill="#000000" font-family="sans-serif" font-size="13" font-weight="bold" lengthAdjust="spacing" textLength="7" x="88.5" y="356.623">8</text><text fill="#000000" font-family="sans-serif" font-size="13" lengthAdjust="spacing" textLength="145" x="99.5" y="347.9775">shows list of attributes to</text><text fill="#000000" font-family="sans-serif" font-size="13" lengthAdjust="spacing" textLength="157" x="99.5" y="365.2686">edit and asks to select one</text><polygon fill="#181818" points="290.5,397.8223,300.5,401.8223,290.5,405.8223,294.5,401.8223" style="stroke:#181818;stroke-width:1.0;"/><line style="stroke:#181818;stroke-width:1.0;" x1="71.5" x2="296.5" y1="401.8223" y2="401.8223"/><text fill="#000000" font-family="sans-serif" font-size="13" font-weight="bold" lengthAdjust="spacing" textLength="7" x="78.5" y="396.5596">9</text><text fill="#000000" font-family="sans-serif" font-size="13" lengthAdjust="spacing" textLength="177" x="89.5" y="396.5596">selects working mode attribute</text><polygon fill="#181818" points="82.5,446.4043,72.5,450.4043,82.5,454.4043,78.5,450.4043" style="stroke:#181818;stroke-width:1.0;"/><line style="stroke:#181818;stroke-width:1.0;stroke-dasharray:2.0,2.0;" x1="76.5" x2="301.5" y1="450.4043" y2="450.4043"/><text fill="#000000" font-family="sans-serif" font-size="13" font-weight="bold" lengthAdjust="spacing" textLength="14" x="88.5" y="436.4961">10</text><text fill="#000000" font-family="sans-serif" font-size="13" lengthAdjust="spacing" textLength="156" x="106.5" y="427.8506">shows list of working mode</text><text fill="#000000" font-family="sans-serif" font-size="13" lengthAdjust="spacing" textLength="159" x="106.5" y="445.1416">and asks to select new one</text><polygon fill="#181818" points="290.5,477.6953,300.5,481.6953,290.5,485.6953,294.5,481.6953" style="stroke:#181818;stroke-width:1.0;"/><line style="stroke:#181818;stroke-width:1.0;" x1="71.5" x2="296.5" y1="481.6953" y2="481.6953"/><text fill="#000000" font-family="sans-serif" font-size="13" font-weight="bold" lengthAdjust="spacing" textLength="14" x="78.5" y="476.4326">11</text><text fill="#000000" font-family="sans-serif" font-size="13" lengthAdjust="spacing" textLength="153" x="96.5" y="476.4326">selects new working mode</text><polygon fill="#181818" points="515.5,508.9863,525.5,512.9863,515.5,516.9863,519.5,512.9863" style="stroke:#181818;stroke-width:1.0;"/><line style="stroke:#181818;stroke-width:1.0;" x1="312.5" x2="521.5" y1="512.9863" y2="512.9863"/><text fill="#000000" font-family="sans-serif" font-size="13" font-weight="bold" lengthAdjust="spacing" textLength="14" x="319.5" y="507.7236">12</text><text fill="#000000" font-family="sans-serif" font-size="13" lengthAdjust="spacing" textLength="178" x="337.5" y="507.7236">edit(jobOpening, workingMode)</text><path d="M434.5,527.9863 L495.5,527.9863 L495.5,537.2773 L485.5,547.2773 L434.5,547.2773 L434.5,527.9863 " fill="#EEEEEE" style="stroke:#000000;stroke-width:1.5;"/><rect fill="none" height="50.582" style="stroke:#000000;stroke-width:1.5;" width="464" x="434.5" y="527.9863"/><text fill="#000000" font-family="sans-serif" font-size="13" font-weight="bold" lengthAdjust="spacing" textLength="16" x="449.5" y="543.0146">alt</text><text fill="#000000" font-family="sans-serif" font-size="11" font-weight="bold" lengthAdjust="spacing" textLength="131" x="510.5" y="541.8564">[job opening is inactive]</text><polygon fill="#181818" points="831.5,566.5684,841.5,570.5684,831.5,574.5684,835.5,570.5684" style="stroke:#181818;stroke-width:1.0;"/><line style="stroke:#181818;stroke-width:1.0;" x1="537.5" x2="837.5" y1="570.5684" y2="570.5684"/><text fill="#000000" font-family="sans-serif" font-size="13" font-weight="bold" lengthAdjust="spacing" textLength="14" x="544.5" y="565.3057">13</text><text fill="#000000" font-family="sans-serif" font-size="13" lengthAdjust="spacing" textLength="185" x="562.5" y="565.3057">editWorkingMode(workingMode)</text><polygon fill="#181818" points="697.5,604.8594,707.5,608.8594,697.5,612.8594,701.5,608.8594" style="stroke:#181818;stroke-width:1.0;"/><line style="stroke:#181818;stroke-width:1.0;" x1="532.5" x2="703.5" y1="608.8594" y2="608.8594"/><text fill="#000000" font-family="sans-serif" font-size="13" font-weight="bold" lengthAdjust="spacing" textLength="14" x="539.5" y="603.5967">14</text><text fill="#000000" font-family="sans-serif" font-size="13" lengthAdjust="spacing" textLength="99" x="557.5" y="603.5967">save(jobOpening)</text><polygon fill="#181818" points="82.5,636.1504,72.5,640.1504,82.5,644.1504,78.5,640.1504" style="stroke:#181818;stroke-width:1.0;"/><line style="stroke:#181818;stroke-width:1.0;stroke-dasharray:2.0,2.0;" x1="76.5" x2="306.5" y1="640.1504" y2="640.1504"/><text fill="#000000" font-family="sans-serif" font-size="13" font-weight="bold" lengthAdjust="spacing" textLength="14" x="88.5" y="634.8877">15</text><text fill="#000000" font-family="sans-serif" font-size="13" lengthAdjust="spacing" textLength="86" x="106.5" y="634.8877">backs to menu</text><!--SRC=[hPHDJyCm38Rl_HMviKcCtIkqoyHXI0W9XBZiuhPc158x92uJ_vw4GjjjxLIctTecx-EFr-x5guZrwNnk3P1KfRdAkPnx_AYGSfmL6ZOEoYI1IfYgCaCNddDXfvQL5oxHtG719dosu4JdsWQCkYcqt79sRv4qRPvMwlhQElH80gAP5eiZjvTCujWOT445rXgTzubQmGDQzZgaz1K4hdaPl1zk5Lo2ZiHOY_u4mODozjxLR75OLQh0ltibh30SAL1ld2ckZrlolYmvu1omEpr8bQOV5BR7VZ8TmhVAP10PmlLsBrKlceeLhNu3FWQtgfrOVRAabpKxNjDRMqjIu77-S1tzdWomH_OfsX6u-_Qdoh_orYkZlIX-QKpfMkxN15GqC-7HO1uk4uuSfbhWes9daavA44ISpYh1cCkQwW4zHtPRTkznYqeki8roMf9TLc_p2BSdf1XLNVH_DousQzAEqUKVx2wmncmU6EaQgBHlvcNaLlucyTp6dUpaWB5LHaxPSG-Vs2bkUiuToI2lxIkHgc5m-0T-0m00]--></g></svg>