<?xml version="1.0" encoding="us-ascii" standalone="no"?><svg xmlns="http://www.w3.org/2000/svg" xmlns:xlink="http://www.w3.org/1999/xlink" contentStyleType="text/css" height="770px" preserveAspectRatio="none" style="width:1164px;height:770px;background:#FFFFFF;" version="1.1" viewBox="0 0 1164 770" width="1164px" zoomAndPan="magnify"><defs/><g><rect fill="#FFFFFF" height="584.8203" style="stroke:#181818;stroke-width:1.0;" width="10" x="61.5" y="93.6211"/><rect fill="#FFFFFF" height="552.5293" style="stroke:#181818;stroke-width:1.0;" width="10" x="302.5" y="116.9121"/><rect fill="#FFFFFF" height="93.873" style="stroke:#181818;stroke-width:1.0;" width="10" x="756.5" y="148.2031"/><rect fill="#FFFFFF" height="125.1641" style="stroke:#181818;stroke-width:1.0;" width="10" x="756.5" y="512.9863"/><rect fill="#FFFFFF" height="31.291" style="stroke:#181818;stroke-width:1.0;" width="10" x="974.5" y="179.4941"/><rect fill="#FFFFFF" height="31.291" style="stroke:#181818;stroke-width:1.0;" width="10" x="974.5" y="575.5684"/><line style="stroke:#181818;stroke-width:0.5;stroke-dasharray:5.0,5.0;" x1="66" x2="66" y1="83.6211" y2="687.4414"/><line style="stroke:#181818;stroke-width:0.5;stroke-dasharray:5.0,5.0;" x1="307.5" x2="307.5" y1="83.6211" y2="687.4414"/><line style="stroke:#181818;stroke-width:0.5;stroke-dasharray:5.0,5.0;" x1="761.5" x2="761.5" y1="83.6211" y2="687.4414"/><line style="stroke:#181818;stroke-width:0.5;stroke-dasharray:5.0,5.0;" x1="979.5" x2="979.5" y1="83.6211" y2="687.4414"/><line style="stroke:#181818;stroke-width:0.5;stroke-dasharray:5.0,5.0;" x1="1113.5" x2="1113.5" y1="83.6211" y2="687.4414"/><text fill="#000000" font-family="sans-serif" font-size="14" lengthAdjust="spacing" textLength="117" x="5" y="80.1074">CustomerManager</text><ellipse cx="66.5" cy="13.5" fill="#E2E2F0" rx="8" ry="8" style="stroke:#181818;stroke-width:0.5;"/><path d="M66.5,21.5 L66.5,48.5 M53.5,29.5 L79.5,29.5 M66.5,48.5 L53.5,63.5 M66.5,48.5 L79.5,63.5 " fill="none" style="stroke:#181818;stroke-width:0.5;"/><text fill="#000000" font-family="sans-serif" font-size="14" lengthAdjust="spacing" textLength="117" x="5" y="701.5488">CustomerManager</text><ellipse cx="66.5" cy="713.5625" fill="#E2E2F0" rx="8" ry="8" style="stroke:#181818;stroke-width:0.5;"/><path d="M66.5,721.5625 L66.5,748.5625 M53.5,729.5625 L79.5,729.5625 M66.5,748.5625 L53.5,763.5625 M66.5,748.5625 L79.5,763.5625 " fill="none" style="stroke:#181818;stroke-width:0.5;"/><rect fill="#E2E2F0" height="51.2422" rx="2.5" ry="2.5" style="stroke:#181818;stroke-width:0.5;" width="126" x="244.5" y="31.3789"/><text fill="#000000" font-family="sans-serif" font-size="14" font-style="italic" lengthAdjust="spacing" textLength="95" x="260" y="53.4863">&#171;presentation&#187;</text><text fill="#000000" font-family="sans-serif" font-size="14" lengthAdjust="spacing" textLength="112" x="251.5" y="72.1074">EditJobOpeningUI</text><rect fill="#E2E2F0" height="51.2422" rx="2.5" ry="2.5" style="stroke:#181818;stroke-width:0.5;" width="126" x="244.5" y="686.4414"/><text fill="#000000" font-family="sans-serif" font-size="14" font-style="italic" lengthAdjust="spacing" textLength="95" x="260" y="708.5488">&#171;presentation&#187;</text><text fill="#000000" font-family="sans-serif" font-size="14" lengthAdjust="spacing" textLength="112" x="251.5" y="727.1699">EditJobOpeningUI</text><rect fill="#E2E2F0" height="51.2422" rx="2.5" ry="2.5" style="stroke:#181818;stroke-width:0.5;" width="176" x="673.5" y="31.3789"/><text fill="#000000" font-family="sans-serif" font-size="14" font-style="italic" lengthAdjust="spacing" textLength="84" x="719.5" y="53.4863">&#171;application&#187;</text><text fill="#000000" font-family="sans-serif" font-size="14" lengthAdjust="spacing" textLength="162" x="680.5" y="72.1074">EditJobOpeningController</text><rect fill="#E2E2F0" height="51.2422" rx="2.5" ry="2.5" style="stroke:#181818;stroke-width:0.5;" width="176" x="673.5" y="686.4414"/><text fill="#000000" font-family="sans-serif" font-size="14" font-style="italic" lengthAdjust="spacing" textLength="84" x="719.5" y="708.5488">&#171;application&#187;</text><text fill="#000000" font-family="sans-serif" font-size="14" lengthAdjust="spacing" textLength="162" x="680.5" y="727.1699">EditJobOpeningController</text><rect fill="#E2E2F0" height="51.2422" rx="2.5" ry="2.5" style="stroke:#181818;stroke-width:0.5;" width="158" x="900.5" y="31.3789"/><text fill="#000000" font-family="sans-serif" font-size="14" font-style="italic" lengthAdjust="spacing" textLength="79" x="940" y="53.4863">&#171;repository&#187;</text><text fill="#000000" font-family="sans-serif" font-size="14" lengthAdjust="spacing" textLength="144" x="907.5" y="72.1074">JobOpeningRepository</text><rect fill="#E2E2F0" height="51.2422" rx="2.5" ry="2.5" style="stroke:#181818;stroke-width:0.5;" width="158" x="900.5" y="686.4414"/><text fill="#000000" font-family="sans-serif" font-size="14" font-style="italic" lengthAdjust="spacing" textLength="79" x="940" y="708.5488">&#171;repository&#187;</text><text fill="#000000" font-family="sans-serif" font-size="14" lengthAdjust="spacing" textLength="144" x="907.5" y="727.1699">JobOpeningRepository</text><rect fill="#E2E2F0" height="51.2422" rx="2.5" ry="2.5" style="stroke:#181818;stroke-width:0.5;" width="90" x="1068.5" y="31.3789"/><text fill="#000000" font-family="sans-serif" font-size="14" font-style="italic" lengthAdjust="spacing" textLength="62" x="1082.5" y="53.4863">&#171;domain&#187;</text><text fill="#000000" font-family="sans-serif" font-size="14" lengthAdjust="spacing" textLength="76" x="1075.5" y="72.1074">JobOpening</text><rect fill="#E2E2F0" height="51.2422" rx="2.5" ry="2.5" style="stroke:#181818;stroke-width:0.5;" width="90" x="1068.5" y="686.4414"/><text fill="#000000" font-family="sans-serif" font-size="14" font-style="italic" lengthAdjust="spacing" textLength="62" x="1082.5" y="708.5488">&#171;domain&#187;</text><text fill="#000000" font-family="sans-serif" font-size="14" lengthAdjust="spacing" textLength="76" x="1075.5" y="727.1699">JobOpening</text><rect fill="#FFFFFF" height="584.8203" style="stroke:#181818;stroke-width:1.0;" width="10" x="61.5" y="93.6211"/><rect fill="#FFFFFF" height="552.5293" style="stroke:#181818;stroke-width:1.0;" width="10" x="302.5" y="116.9121"/><rect fill="#FFFFFF" height="93.873" style="stroke:#181818;stroke-width:1.0;" width="10" x="756.5" y="148.2031"/><rect fill="#FFFFFF" height="125.1641" style="stroke:#181818;stroke-width:1.0;" width="10" x="756.5" y="512.9863"/><rect fill="#FFFFFF" height="31.291" style="stroke:#181818;stroke-width:1.0;" width="10" x="974.5" y="179.4941"/><rect fill="#FFFFFF" height="31.291" style="stroke:#181818;stroke-width:1.0;" width="10" x="974.5" y="575.5684"/><polygon fill="#181818" points="290.5,112.9121,300.5,116.9121,290.5,120.9121,294.5,116.9121" style="stroke:#181818;stroke-width:1.0;"/><line style="stroke:#181818;stroke-width:1.0;" x1="71.5" x2="296.5" y1="116.9121" y2="116.9121"/><text fill="#000000" font-family="sans-serif" font-size="13" font-weight="bold" lengthAdjust="spacing" textLength="7" x="78.5" y="111.6494">1</text><text fill="#000000" font-family="sans-serif" font-size="13" lengthAdjust="spacing" textLength="149" x="89.5" y="111.6494">asks to edit a job opening</text><polygon fill="#181818" points="744.5,144.2031,754.5,148.2031,744.5,152.2031,748.5,148.2031" style="stroke:#181818;stroke-width:1.0;"/><line style="stroke:#181818;stroke-width:1.0;" x1="312.5" x2="750.5" y1="148.2031" y2="148.2031"/><text fill="#000000" font-family="sans-serif" font-size="13" font-weight="bold" lengthAdjust="spacing" textLength="7" x="319.5" y="142.9404">2</text><text fill="#000000" font-family="sans-serif" font-size="13" lengthAdjust="spacing" textLength="143" x="330.5" y="142.9404">listInactiveJobOpenings()</text><polygon fill="#181818" points="962.5,175.4941,972.5,179.4941,962.5,183.4941,966.5,179.4941" style="stroke:#181818;stroke-width:1.0;"/><line style="stroke:#181818;stroke-width:1.0;" x1="766.5" x2="968.5" y1="179.4941" y2="179.4941"/><text fill="#000000" font-family="sans-serif" font-size="13" font-weight="bold" lengthAdjust="spacing" textLength="7" x="773.5" y="174.2314">3</text><text fill="#000000" font-family="sans-serif" font-size="13" lengthAdjust="spacing" textLength="161" x="784.5" y="174.2314">findAllInactiveJobOpenings()</text><polygon fill="#181818" points="777.5,206.7852,767.5,210.7852,777.5,214.7852,773.5,210.7852" style="stroke:#181818;stroke-width:1.0;"/><line style="stroke:#181818;stroke-width:1.0;stroke-dasharray:2.0,2.0;" x1="771.5" x2="978.5" y1="210.7852" y2="210.7852"/><text fill="#000000" font-family="sans-serif" font-size="13" font-weight="bold" lengthAdjust="spacing" textLength="7" x="783.5" y="205.5225">4</text><text fill="#000000" font-family="sans-serif" font-size="13" lengthAdjust="spacing" textLength="105" x="794.5" y="205.5225">List&lt;JobOpening&gt;</text><polygon fill="#181818" points="323.5,238.0762,313.5,242.0762,323.5,246.0762,319.5,242.0762" style="stroke:#181818;stroke-width:1.0;"/><line style="stroke:#181818;stroke-width:1.0;stroke-dasharray:2.0,2.0;" x1="317.5" x2="760.5" y1="242.0762" y2="242.0762"/><text fill="#000000" font-family="sans-serif" font-size="13" font-weight="bold" lengthAdjust="spacing" textLength="7" x="329.5" y="236.8135">5</text><text fill="#000000" font-family="sans-serif" font-size="13" lengthAdjust="spacing" textLength="105" x="340.5" y="236.8135">List&lt;JobOpening&gt;</text><polygon fill="#181818" points="82.5,286.6582,72.5,290.6582,82.5,294.6582,78.5,290.6582" style="stroke:#181818;stroke-width:1.0;"/><line style="stroke:#181818;stroke-width:1.0;stroke-dasharray:2.0,2.0;" x1="76.5" x2="301.5" y1="290.6582" y2="290.6582"/><text fill="#000000" font-family="sans-serif" font-size="13" font-weight="bold" lengthAdjust="spacing" textLength="7" x="88.5" y="276.75">6</text><text fill="#000000" font-family="sans-serif" font-size="13" lengthAdjust="spacing" textLength="196" x="99.5" y="268.1045">shows list of inactive job openings</text><text fill="#000000" font-family="sans-serif" font-size="13" lengthAdjust="spacing" textLength="132" x="99.5" y="285.3955">and asks to select one</text><polygon fill="#181818" points="290.5,317.9492,300.5,321.9492,290.5,325.9492,294.5,321.9492" style="stroke:#181818;stroke-width:1.0;"/><line style="stroke:#181818;stroke-width:1.0;" x1="71.5" x2="296.5" y1="321.9492" y2="321.9492"/><text fill="#000000" font-family="sans-serif" font-size="13" font-weight="bold" lengthAdjust="spacing" textLength="7" x="78.5" y="316.6865">7</text><text fill="#000000" font-family="sans-serif" font-size="13" lengthAdjust="spacing" textLength="137" x="89.5" y="316.6865">selects one job opening</text><polygon fill="#181818" points="82.5,366.5313,72.5,370.5313,82.5,374.5313,78.5,370.5313" style="stroke:#181818;stroke-width:1.0;"/><line style="stroke:#181818;stroke-width:1.0;stroke-dasharray:2.0,2.0;" x1="76.5" x2="301.5" y1="370.5313" y2="370.5313"/><text fill="#000000" font-family="sans-serif" font-size="13" font-weight="bold" lengthAdjust="spacing" textLength="7" x="88.5" y="356.623">8</text><text fill="#000000" font-family="sans-serif" font-size="13" lengthAdjust="spacing" textLength="145" x="99.5" y="347.9775">shows list of attributes to</text><text fill="#000000" font-family="sans-serif" font-size="13" lengthAdjust="spacing" textLength="157" x="99.5" y="365.2686">edit and asks to select one</text><polygon fill="#181818" points="290.5,397.8223,300.5,401.8223,290.5,405.8223,294.5,401.8223" style="stroke:#181818;stroke-width:1.0;"/><line style="stroke:#181818;stroke-width:1.0;" x1="71.5" x2="296.5" y1="401.8223" y2="401.8223"/><text fill="#000000" font-family="sans-serif" font-size="13" font-weight="bold" lengthAdjust="spacing" textLength="7" x="78.5" y="396.5596">9</text><text fill="#000000" font-family="sans-serif" font-size="13" lengthAdjust="spacing" textLength="173" x="89.5" y="396.5596">selects contract type attribute</text><polygon fill="#181818" points="82.5,446.4043,72.5,450.4043,82.5,454.4043,78.5,450.4043" style="stroke:#181818;stroke-width:1.0;"/><line style="stroke:#181818;stroke-width:1.0;stroke-dasharray:2.0,2.0;" x1="76.5" x2="301.5" y1="450.4043" y2="450.4043"/><text fill="#000000" font-family="sans-serif" font-size="13" font-weight="bold" lengthAdjust="spacing" textLength="14" x="88.5" y="436.4961">10</text><text fill="#000000" font-family="sans-serif" font-size="13" lengthAdjust="spacing" textLength="152" x="106.5" y="427.8506">shows list of contract type</text><text fill="#000000" font-family="sans-serif" font-size="13" lengthAdjust="spacing" textLength="159" x="106.5" y="445.1416">and asks to select new one</text><polygon fill="#181818" points="290.5,477.6953,300.5,481.6953,290.5,485.6953,294.5,481.6953" style="stroke:#181818;stroke-width:1.0;"/><line style="stroke:#181818;stroke-width:1.0;" x1="71.5" x2="296.5" y1="481.6953" y2="481.6953"/><text fill="#000000" font-family="sans-serif" font-size="13" font-weight="bold" lengthAdjust="spacing" textLength="14" x="78.5" y="476.4326">11</text><text fill="#000000" font-family="sans-serif" font-size="13" lengthAdjust="spacing" textLength="149" x="96.5" y="476.4326">selects new contract type</text><polygon fill="#181818" points="744.5,508.9863,754.5,512.9863,744.5,516.9863,748.5,512.9863" style="stroke:#181818;stroke-width:1.0;"/><line style="stroke:#181818;stroke-width:1.0;" x1="312.5" x2="750.5" y1="512.9863" y2="512.9863"/><text fill="#000000" font-family="sans-serif" font-size="13" font-weight="bold" lengthAdjust="spacing" textLength="14" x="319.5" y="507.7236">12</text><text fill="#000000" font-family="sans-serif" font-size="13" lengthAdjust="spacing" textLength="407" x="337.5" y="507.7236">editContractType(JobOpening jobOpening, ContractType contractType)</text><polygon fill="#181818" points="1101.5,540.2773,1111.5,544.2773,1101.5,548.2773,1105.5,544.2773" style="stroke:#181818;stroke-width:1.0;"/><line style="stroke:#181818;stroke-width:1.0;" x1="766.5" x2="1107.5" y1="544.2773" y2="544.2773"/><text fill="#000000" font-family="sans-serif" font-size="13" font-weight="bold" lengthAdjust="spacing" textLength="14" x="773.5" y="539.0146">13</text><text fill="#000000" font-family="sans-serif" font-size="13" lengthAdjust="spacing" textLength="262" x="791.5" y="539.0146">editContractType(ContractType contractType)</text><polygon fill="#181818" points="962.5,571.5684,972.5,575.5684,962.5,579.5684,966.5,575.5684" style="stroke:#181818;stroke-width:1.0;"/><line style="stroke:#181818;stroke-width:1.0;" x1="766.5" x2="968.5" y1="575.5684" y2="575.5684"/><text fill="#000000" font-family="sans-serif" font-size="13" font-weight="bold" lengthAdjust="spacing" textLength="14" x="773.5" y="570.3057">14</text><text fill="#000000" font-family="sans-serif" font-size="13" lengthAdjust="spacing" textLength="171" x="791.5" y="570.3057">save(JobOpening jobOpening)</text><polygon fill="#181818" points="777.5,602.8594,767.5,606.8594,777.5,610.8594,773.5,606.8594" style="stroke:#181818;stroke-width:1.0;"/><line style="stroke:#181818;stroke-width:1.0;stroke-dasharray:2.0,2.0;" x1="771.5" x2="978.5" y1="606.8594" y2="606.8594"/><text fill="#000000" font-family="sans-serif" font-size="13" font-weight="bold" lengthAdjust="spacing" textLength="14" x="783.5" y="601.5967">15</text><text fill="#000000" font-family="sans-serif" font-size="13" lengthAdjust="spacing" textLength="65" x="801.5" y="601.5967">jobOpening</text><polygon fill="#181818" points="323.5,634.1504,313.5,638.1504,323.5,642.1504,319.5,638.1504" style="stroke:#181818;stroke-width:1.0;"/><line style="stroke:#181818;stroke-width:1.0;stroke-dasharray:2.0,2.0;" x1="317.5" x2="760.5" y1="638.1504" y2="638.1504"/><text fill="#000000" font-family="sans-serif" font-size="13" font-weight="bold" lengthAdjust="spacing" textLength="14" x="329.5" y="632.8877">16</text><text fill="#000000" font-family="sans-serif" font-size="13" lengthAdjust="spacing" textLength="65" x="347.5" y="632.8877">jobOpening</text><polygon fill="#181818" points="82.5,665.4414,72.5,669.4414,82.5,673.4414,78.5,669.4414" style="stroke:#181818;stroke-width:1.0;"/><line style="stroke:#181818;stroke-width:1.0;stroke-dasharray:2.0,2.0;" x1="76.5" x2="306.5" y1="669.4414" y2="669.4414"/><text fill="#000000" font-family="sans-serif" font-size="13" font-weight="bold" lengthAdjust="spacing" textLength="14" x="88.5" y="664.1787">17</text><text fill="#000000" font-family="sans-serif" font-size="13" lengthAdjust="spacing" textLength="86" x="106.5" y="664.1787">backs to menu</text><!--SRC=[jLHDJyCm3BttL_W6I8pTgsaIcZWCWP0Gt7PnMs_BI9sGkA3zUv9jMlVH5XZZrZH-x_avjY_c8jQd_RxLo5AL-YOtPT_JUqMSKwzGE7DO9WbMOhWgCtBXEnVZO5HvCIMvHsISXTyMdQXSsK03TuMIUvCzMMB5izSn30RMaISM56LuEEo87XaMPxGc5r1ehLPv4wW6F9CrNeMKbW7WjeVM-11Lc19LP8nUr0SA7TavE4DlUEmg1VHl7iG0XIj0M9WCpFgwPZw49KSyHzmxDKX1AozZNj5H7U8lhzeaQdJIIXia6okOmbHnSQlrDufDuAIHiTVjxY6u6zHtmwIWRf5sIyrFr2Nmmxh59mhaXosHWf-RJxzw831JK9kIxRQ1dp1oiUqJJvho4CpqmmPR0tn4x7NNIGcYY5DP9HHpcV2wQS-HNHuh5yo3B2tLCgTbkKVMM3wcpnEIZAWzxjyEOgpNQ4Fm4l2NEpjbiVsyXjsOhM8yd6zYcxBfa3rX3NZyQ37u7rkWPZ_x_3TJ_tNoCypNBLaIL-t4OTj_0G00]--></g></svg>