<?xml version="1.0" encoding="us-ascii" standalone="no"?><svg xmlns="http://www.w3.org/2000/svg" xmlns:xlink="http://www.w3.org/1999/xlink" contentStyleType="text/css" height="1901px" preserveAspectRatio="none" style="width:1300px;height:1901px;background:#FFFFFF;" version="1.1" viewBox="0 0 1300 1901" width="1300px" zoomAndPan="magnify"><defs/><g><rect fill="#FFFFFF" height="1683.5879" style="stroke:#181818;stroke-width:1.0;" width="10" x="319.5" y="116.9121"/><rect fill="#FFFFFF" height="187.7461" style="stroke:#181818;stroke-width:1.0;" width="10" x="637.5" y="179.4941"/><rect fill="#FFFFFF" height="1104.7676" style="stroke:#181818;stroke-width:1.0;" width="10" x="637.5" y="664.4414"/><rect fill="#FFFFFF" height="31.291" style="stroke:#181818;stroke-width:1.0;" width="10" x="1100.5" y="304.6582"/><rect fill="#FFFFFF" height="31.291" style="stroke:#181818;stroke-width:1.0;" width="10" x="1100.5" y="1706.627"/><rect fill="none" height="161.7461" style="stroke:#000000;stroke-width:1.5;" width="1284.5" x="10" y="541.9863"/><rect fill="none" height="161.7461" style="stroke:#000000;stroke-width:1.5;" width="1284.5" x="10" y="717.7324"/><rect fill="none" height="161.7461" style="stroke:#000000;stroke-width:1.5;" width="1284.5" x="10" y="893.4785"/><rect fill="none" height="161.7461" style="stroke:#000000;stroke-width:1.5;" width="1284.5" x="10" y="1069.2246"/><rect fill="none" height="161.7461" style="stroke:#000000;stroke-width:1.5;" width="1284.5" x="10" y="1244.9707"/><rect fill="none" height="161.7461" style="stroke:#000000;stroke-width:1.5;" width="1284.5" x="10" y="1420.7168"/><line style="stroke:#181818;stroke-width:0.5;stroke-dasharray:5.0,5.0;" x1="81" x2="81" y1="83.6211" y2="1818.5"/><line style="stroke:#181818;stroke-width:0.5;stroke-dasharray:5.0,5.0;" x1="324.5" x2="324.5" y1="83.6211" y2="1818.5"/><line style="stroke:#181818;stroke-width:0.5;stroke-dasharray:5.0,5.0;" x1="642.5" x2="642.5" y1="83.6211" y2="1818.5"/><line style="stroke:#181818;stroke-width:0.5;stroke-dasharray:5.0,5.0;" x1="808.5" x2="808.5" y1="83.6211" y2="1818.5"/><line style="stroke:#181818;stroke-width:0.5;stroke-dasharray:5.0,5.0;" x1="951.5" x2="951.5" y1="83.6211" y2="1818.5"/><line style="stroke:#181818;stroke-width:0.5;stroke-dasharray:5.0,5.0;" x1="1105.5" x2="1105.5" y1="83.6211" y2="1818.5"/><line style="stroke:#181818;stroke-width:0.5;stroke-dasharray:5.0,5.0;" x1="1239.5" x2="1239.5" y1="83.6211" y2="1818.5"/><text fill="#000000" font-family="sans-serif" font-size="14" lengthAdjust="spacing" textLength="117" x="20" y="80.1074">CustomerManager</text><ellipse cx="81.5" cy="13.5" fill="#E2E2F0" rx="8" ry="8" style="stroke:#181818;stroke-width:0.5;"/><path d="M81.5,21.5 L81.5,48.5 M68.5,29.5 L94.5,29.5 M81.5,48.5 L68.5,63.5 M81.5,48.5 L94.5,63.5 " fill="none" style="stroke:#181818;stroke-width:0.5;"/><text fill="#000000" font-family="sans-serif" font-size="14" lengthAdjust="spacing" textLength="117" x="20" y="1832.6074">CustomerManager</text><ellipse cx="81.5" cy="1844.6211" fill="#E2E2F0" rx="8" ry="8" style="stroke:#181818;stroke-width:0.5;"/><path d="M81.5,1852.6211 L81.5,1879.6211 M68.5,1860.6211 L94.5,1860.6211 M81.5,1879.6211 L68.5,1894.6211 M81.5,1879.6211 L94.5,1894.6211 " fill="none" style="stroke:#181818;stroke-width:0.5;"/><rect fill="#E2E2F0" height="51.2422" rx="2.5" ry="2.5" style="stroke:#181818;stroke-width:0.5;" width="126" x="261.5" y="31.3789"/><text fill="#000000" font-family="sans-serif" font-size="14" font-style="italic" lengthAdjust="spacing" textLength="95" x="277" y="53.4863">&#171;presentation&#187;</text><text fill="#000000" font-family="sans-serif" font-size="14" lengthAdjust="spacing" textLength="112" x="268.5" y="72.1074">EditJobOpeningUI</text><rect fill="#E2E2F0" height="51.2422" rx="2.5" ry="2.5" style="stroke:#181818;stroke-width:0.5;" width="126" x="261.5" y="1817.5"/><text fill="#000000" font-family="sans-serif" font-size="14" font-style="italic" lengthAdjust="spacing" textLength="95" x="277" y="1839.6074">&#171;presentation&#187;</text><text fill="#000000" font-family="sans-serif" font-size="14" lengthAdjust="spacing" textLength="112" x="268.5" y="1858.2285">EditJobOpeningUI</text><rect fill="#E2E2F0" height="51.2422" rx="2.5" ry="2.5" style="stroke:#181818;stroke-width:0.5;" width="176" x="554.5" y="31.3789"/><text fill="#000000" font-family="sans-serif" font-size="14" font-style="italic" lengthAdjust="spacing" textLength="84" x="600.5" y="53.4863">&#171;application&#187;</text><text fill="#000000" font-family="sans-serif" font-size="14" lengthAdjust="spacing" textLength="162" x="561.5" y="72.1074">EditJobOpeningController</text><rect fill="#E2E2F0" height="51.2422" rx="2.5" ry="2.5" style="stroke:#181818;stroke-width:0.5;" width="176" x="554.5" y="1817.5"/><text fill="#000000" font-family="sans-serif" font-size="14" font-style="italic" lengthAdjust="spacing" textLength="84" x="600.5" y="1839.6074">&#171;application&#187;</text><text fill="#000000" font-family="sans-serif" font-size="14" lengthAdjust="spacing" textLength="162" x="561.5" y="1858.2285">EditJobOpeningController</text><rect fill="#E2E2F0" height="32.6211" rx="2.5" ry="2.5" style="stroke:#181818;stroke-width:0.5;" width="136" x="740.5" y="50"/><text fill="#000000" font-family="sans-serif" font-size="14" lengthAdjust="spacing" textLength="122" x="747.5" y="72.1074">PersistenceContext</text><rect fill="#E2E2F0" height="32.6211" rx="2.5" ry="2.5" style="stroke:#181818;stroke-width:0.5;" width="136" x="740.5" y="1817.5"/><text fill="#000000" font-family="sans-serif" font-size="14" lengthAdjust="spacing" textLength="122" x="747.5" y="1839.6074">PersistenceContext</text><rect fill="#E2E2F0" height="32.6211" rx="2.5" ry="2.5" style="stroke:#181818;stroke-width:0.5;" width="130" x="886.5" y="50"/><text fill="#000000" font-family="sans-serif" font-size="14" lengthAdjust="spacing" textLength="116" x="893.5" y="72.1074">RepositoryFactory</text><rect fill="#E2E2F0" height="32.6211" rx="2.5" ry="2.5" style="stroke:#181818;stroke-width:0.5;" width="130" x="886.5" y="1817.5"/><text fill="#000000" font-family="sans-serif" font-size="14" lengthAdjust="spacing" textLength="116" x="893.5" y="1839.6074">RepositoryFactory</text><rect fill="#E2E2F0" height="51.2422" rx="2.5" ry="2.5" style="stroke:#181818;stroke-width:0.5;" width="158" x="1026.5" y="31.3789"/><text fill="#000000" font-family="sans-serif" font-size="14" font-style="italic" lengthAdjust="spacing" textLength="79" x="1066" y="53.4863">&#171;repository&#187;</text><text fill="#000000" font-family="sans-serif" font-size="14" lengthAdjust="spacing" textLength="144" x="1033.5" y="72.1074">JobOpeningRepository</text><rect fill="#E2E2F0" height="51.2422" rx="2.5" ry="2.5" style="stroke:#181818;stroke-width:0.5;" width="158" x="1026.5" y="1817.5"/><text fill="#000000" font-family="sans-serif" font-size="14" font-style="italic" lengthAdjust="spacing" textLength="79" x="1066" y="1839.6074">&#171;repository&#187;</text><text fill="#000000" font-family="sans-serif" font-size="14" lengthAdjust="spacing" textLength="144" x="1033.5" y="1858.2285">JobOpeningRepository</text><rect fill="#E2E2F0" height="51.2422" rx="2.5" ry="2.5" style="stroke:#181818;stroke-width:0.5;" width="90" x="1194.5" y="31.3789"/><text fill="#000000" font-family="sans-serif" font-size="14" font-style="italic" lengthAdjust="spacing" textLength="62" x="1208.5" y="53.4863">&#171;domain&#187;</text><text fill="#000000" font-family="sans-serif" font-size="14" lengthAdjust="spacing" textLength="76" x="1201.5" y="72.1074">JobOpening</text><rect fill="#E2E2F0" height="51.2422" rx="2.5" ry="2.5" style="stroke:#181818;stroke-width:0.5;" width="90" x="1194.5" y="1817.5"/><text fill="#000000" font-family="sans-serif" font-size="14" font-style="italic" lengthAdjust="spacing" textLength="62" x="1208.5" y="1839.6074">&#171;domain&#187;</text><text fill="#000000" font-family="sans-serif" font-size="14" lengthAdjust="spacing" textLength="76" x="1201.5" y="1858.2285">JobOpening</text><rect fill="#FFFFFF" height="1683.5879" style="stroke:#181818;stroke-width:1.0;" width="10" x="319.5" y="116.9121"/><rect fill="#FFFFFF" height="187.7461" style="stroke:#181818;stroke-width:1.0;" width="10" x="637.5" y="179.4941"/><rect fill="#FFFFFF" height="1104.7676" style="stroke:#181818;stroke-width:1.0;" width="10" x="637.5" y="664.4414"/><rect fill="#FFFFFF" height="31.291" style="stroke:#181818;stroke-width:1.0;" width="10" x="1100.5" y="304.6582"/><rect fill="#FFFFFF" height="31.291" style="stroke:#181818;stroke-width:1.0;" width="10" x="1100.5" y="1706.627"/><polygon fill="#181818" points="307.5,112.9121,317.5,116.9121,307.5,120.9121,311.5,116.9121" style="stroke:#181818;stroke-width:1.0;"/><line style="stroke:#181818;stroke-width:1.0;" x1="0" x2="313.5" y1="116.9121" y2="116.9121"/><text fill="#000000" font-family="sans-serif" font-size="13" lengthAdjust="spacing" textLength="54" x="7" y="111.6494">doShow()</text><polygon fill="#181818" points="630.5,144.2031,640.5,148.2031,630.5,152.2031,634.5,148.2031" style="stroke:#181818;stroke-width:1.0;"/><line style="stroke:#181818;stroke-width:1.0;" x1="329.5" x2="636.5" y1="148.2031" y2="148.2031"/><text fill="#000000" font-family="sans-serif" font-size="13" lengthAdjust="spacing" textLength="36" x="336.5" y="142.9404">create</text><polygon fill="#181818" points="625.5,175.4941,635.5,179.4941,625.5,183.4941,629.5,179.4941" style="stroke:#181818;stroke-width:1.0;"/><line style="stroke:#181818;stroke-width:1.0;" x1="329.5" x2="631.5" y1="179.4941" y2="179.4941"/><text fill="#000000" font-family="sans-serif" font-size="13" lengthAdjust="spacing" textLength="100" x="336.5" y="174.2314">listJobOpenings()</text><polygon fill="#181818" points="796.5,206.7852,806.5,210.7852,796.5,214.7852,800.5,210.7852" style="stroke:#181818;stroke-width:1.0;"/><line style="stroke:#181818;stroke-width:1.0;" x1="647.5" x2="802.5" y1="210.7852" y2="210.7852"/><text fill="#000000" font-family="sans-serif" font-size="13" lengthAdjust="spacing" textLength="75" x="654.5" y="205.5225">repositories()</text><polygon fill="#181818" points="939.5,238.0762,949.5,242.0762,939.5,246.0762,943.5,242.0762" style="stroke:#181818;stroke-width:1.0;"/><line style="stroke:#181818;stroke-width:1.0;" x1="808.5" x2="945.5" y1="242.0762" y2="242.0762"/><text fill="#000000" font-family="sans-serif" font-size="13" lengthAdjust="spacing" textLength="36" x="815.5" y="236.8135">create</text><polygon fill="#181818" points="1093.5,269.3672,1103.5,273.3672,1093.5,277.3672,1097.5,273.3672" style="stroke:#181818;stroke-width:1.0;"/><line style="stroke:#181818;stroke-width:1.0;" x1="951.5" x2="1099.5" y1="273.3672" y2="273.3672"/><text fill="#000000" font-family="sans-serif" font-size="13" lengthAdjust="spacing" textLength="36" x="958.5" y="268.1045">create</text><polygon fill="#181818" points="1088.5,300.6582,1098.5,304.6582,1088.5,308.6582,1092.5,304.6582" style="stroke:#181818;stroke-width:1.0;"/><line style="stroke:#181818;stroke-width:1.0;" x1="647.5" x2="1094.5" y1="304.6582" y2="304.6582"/><text fill="#000000" font-family="sans-serif" font-size="13" lengthAdjust="spacing" textLength="43" x="654.5" y="299.3955">findAll()</text><polygon fill="#181818" points="658.5,331.9492,648.5,335.9492,658.5,339.9492,654.5,335.9492" style="stroke:#181818;stroke-width:1.0;"/><line style="stroke:#181818;stroke-width:1.0;stroke-dasharray:2.0,2.0;" x1="652.5" x2="1104.5" y1="335.9492" y2="335.9492"/><text fill="#000000" font-family="sans-serif" font-size="13" lengthAdjust="spacing" textLength="105" x="664.5" y="330.6865">List&lt;JobOpening&gt;</text><polygon fill="#181818" points="340.5,363.2402,330.5,367.2402,340.5,371.2402,336.5,367.2402" style="stroke:#181818;stroke-width:1.0;"/><line style="stroke:#181818;stroke-width:1.0;stroke-dasharray:2.0,2.0;" x1="334.5" x2="641.5" y1="367.2402" y2="367.2402"/><text fill="#000000" font-family="sans-serif" font-size="13" lengthAdjust="spacing" textLength="105" x="346.5" y="361.9775">List&lt;JobOpening&gt;</text><polygon fill="#181818" points="92.5,411.8223,82.5,415.8223,92.5,419.8223,88.5,415.8223" style="stroke:#181818;stroke-width:1.0;"/><line style="stroke:#181818;stroke-width:1.0;stroke-dasharray:2.0,2.0;" x1="86.5" x2="318.5" y1="415.8223" y2="415.8223"/><text fill="#000000" font-family="sans-serif" font-size="13" lengthAdjust="spacing" textLength="155" x="98.5" y="393.2686">shows list of Job Openings</text><text fill="#000000" font-family="sans-serif" font-size="13" lengthAdjust="spacing" textLength="132" x="98.5" y="410.5596">and asks to select one</text><polygon fill="#181818" points="307.5,443.1133,317.5,447.1133,307.5,451.1133,311.5,447.1133" style="stroke:#181818;stroke-width:1.0;"/><line style="stroke:#181818;stroke-width:1.0;" x1="81.5" x2="313.5" y1="447.1133" y2="447.1133"/><text fill="#000000" font-family="sans-serif" font-size="13" lengthAdjust="spacing" textLength="143" x="88.5" y="441.8506">selects one Job Opening</text><polygon fill="#181818" points="92.5,491.6953,82.5,495.6953,92.5,499.6953,88.5,495.6953" style="stroke:#181818;stroke-width:1.0;"/><line style="stroke:#181818;stroke-width:1.0;stroke-dasharray:2.0,2.0;" x1="86.5" x2="318.5" y1="495.6953" y2="495.6953"/><text fill="#000000" font-family="sans-serif" font-size="13" lengthAdjust="spacing" textLength="163" x="98.5" y="473.1416">show list of attributes to edit</text><text fill="#000000" font-family="sans-serif" font-size="13" lengthAdjust="spacing" textLength="132" x="98.5" y="490.4326">and asks to select one</text><polygon fill="#181818" points="307.5,522.9863,317.5,526.9863,307.5,530.9863,311.5,526.9863" style="stroke:#181818;stroke-width:1.0;"/><line style="stroke:#181818;stroke-width:1.0;" x1="81.5" x2="313.5" y1="526.9863" y2="526.9863"/><text fill="#000000" font-family="sans-serif" font-size="13" lengthAdjust="spacing" textLength="158" x="88.5" y="521.7236">selects one attribute to edit</text><path d="M10,541.9863 L71,541.9863 L71,551.2773 L61,561.2773 L10,561.2773 L10,541.9863 " fill="#EEEEEE" style="stroke:#000000;stroke-width:1.5;"/><rect fill="none" height="161.7461" style="stroke:#000000;stroke-width:1.5;" width="1284.5" x="10" y="541.9863"/><text fill="#000000" font-family="sans-serif" font-size="13" font-weight="bold" lengthAdjust="spacing" textLength="16" x="25" y="557.0146">alt</text><text fill="#000000" font-family="sans-serif" font-size="11" font-weight="bold" lengthAdjust="spacing" textLength="152" x="86" y="555.8564">[attribute is working mode]</text><polygon fill="#181818" points="92.5,580.5684,82.5,584.5684,92.5,588.5684,88.5,584.5684" style="stroke:#181818;stroke-width:1.0;"/><line style="stroke:#181818;stroke-width:1.0;stroke-dasharray:2.0,2.0;" x1="86.5" x2="318.5" y1="584.5684" y2="584.5684"/><text fill="#000000" font-family="sans-serif" font-size="13" lengthAdjust="spacing" textLength="193" x="98.5" y="579.3057">asks to select new working mode</text><polygon fill="#181818" points="307.5,611.8594,317.5,615.8594,307.5,619.8594,311.5,615.8594" style="stroke:#181818;stroke-width:1.0;"/><line style="stroke:#181818;stroke-width:1.0;" x1="81.5" x2="313.5" y1="615.8594" y2="615.8594"/><text fill="#000000" font-family="sans-serif" font-size="13" lengthAdjust="spacing" textLength="151" x="88.5" y="610.5967">selects one working mode</text><polygon fill="#181818" points="625.5,660.4414,635.5,664.4414,625.5,668.4414,629.5,664.4414" style="stroke:#181818;stroke-width:1.0;"/><line style="stroke:#181818;stroke-width:1.0;" x1="329.5" x2="631.5" y1="664.4414" y2="664.4414"/><text fill="#000000" font-family="sans-serif" font-size="13" lengthAdjust="spacing" textLength="173" x="336.5" y="641.8877">editWorkingMode(JobOpening</text><text fill="#000000" font-family="sans-serif" font-size="13" lengthAdjust="spacing" textLength="264" x="336.5" y="659.1787">jobOpening, WorkingMode newWorkingMode)</text><polygon fill="#181818" points="1227.5,691.7324,1237.5,695.7324,1227.5,699.7324,1231.5,695.7324" style="stroke:#181818;stroke-width:1.0;"/><line style="stroke:#181818;stroke-width:1.0;" x1="647.5" x2="1233.5" y1="695.7324" y2="695.7324"/><text fill="#000000" font-family="sans-serif" font-size="13" lengthAdjust="spacing" textLength="296" x="654.5" y="690.4697">editWorkingMode(WorkingMode newWorkingMode)</text><path d="M10,717.7324 L71,717.7324 L71,727.0234 L61,737.0234 L10,737.0234 L10,717.7324 " fill="#EEEEEE" style="stroke:#000000;stroke-width:1.5;"/><rect fill="none" height="161.7461" style="stroke:#000000;stroke-width:1.5;" width="1284.5" x="10" y="717.7324"/><text fill="#000000" font-family="sans-serif" font-size="13" font-weight="bold" lengthAdjust="spacing" textLength="16" x="25" y="732.7607">alt</text><text fill="#000000" font-family="sans-serif" font-size="11" font-weight="bold" lengthAdjust="spacing" textLength="175" x="86" y="731.6025">[attribute is number of vacancy]</text><polygon fill="#181818" points="92.5,756.3145,82.5,760.3145,92.5,764.3145,88.5,760.3145" style="stroke:#181818;stroke-width:1.0;"/><line style="stroke:#181818;stroke-width:1.0;stroke-dasharray:2.0,2.0;" x1="86.5" x2="318.5" y1="760.3145" y2="760.3145"/><text fill="#000000" font-family="sans-serif" font-size="13" lengthAdjust="spacing" textLength="214" x="98.5" y="755.0518">asks to input new number of vacancy</text><polygon fill="#181818" points="307.5,787.6055,317.5,791.6055,307.5,795.6055,311.5,791.6055" style="stroke:#181818;stroke-width:1.0;"/><line style="stroke:#181818;stroke-width:1.0;" x1="81.5" x2="313.5" y1="791.6055" y2="791.6055"/><text fill="#000000" font-family="sans-serif" font-size="13" lengthAdjust="spacing" textLength="174" x="88.5" y="786.3428">inputs new number of vacancy</text><polygon fill="#181818" points="625.5,836.1875,635.5,840.1875,625.5,844.1875,629.5,840.1875" style="stroke:#181818;stroke-width:1.0;"/><line style="stroke:#181818;stroke-width:1.0;" x1="329.5" x2="631.5" y1="840.1875" y2="840.1875"/><text fill="#000000" font-family="sans-serif" font-size="13" lengthAdjust="spacing" textLength="199" x="336.5" y="817.6338">editNumberVacancies(JobOpening</text><text fill="#000000" font-family="sans-serif" font-size="13" lengthAdjust="spacing" textLength="232" x="336.5" y="834.9248">jobOpening, NrVacancy newNrVacancy)</text><polygon fill="#181818" points="1227.5,867.4785,1237.5,871.4785,1227.5,875.4785,1231.5,871.4785" style="stroke:#181818;stroke-width:1.0;"/><line style="stroke:#181818;stroke-width:1.0;" x1="647.5" x2="1233.5" y1="871.4785" y2="871.4785"/><text fill="#000000" font-family="sans-serif" font-size="13" lengthAdjust="spacing" textLength="248" x="654.5" y="866.2158">editNrVacancy(NrVacancy newNrVacancy)</text><path d="M10,893.4785 L71,893.4785 L71,902.7695 L61,912.7695 L10,912.7695 L10,893.4785 " fill="#EEEEEE" style="stroke:#000000;stroke-width:1.5;"/><rect fill="none" height="161.7461" style="stroke:#000000;stroke-width:1.5;" width="1284.5" x="10" y="893.4785"/><text fill="#000000" font-family="sans-serif" font-size="13" font-weight="bold" lengthAdjust="spacing" textLength="16" x="25" y="908.5068">alt</text><text fill="#000000" font-family="sans-serif" font-size="11" font-weight="bold" lengthAdjust="spacing" textLength="154" x="86" y="907.3486">[attribute is postal address]</text><polygon fill="#181818" points="92.5,932.0605,82.5,936.0605,92.5,940.0605,88.5,936.0605" style="stroke:#181818;stroke-width:1.0;"/><line style="stroke:#181818;stroke-width:1.0;" x1="86.5" x2="318.5" y1="936.0605" y2="936.0605"/><text fill="#000000" font-family="sans-serif" font-size="13" lengthAdjust="spacing" textLength="191" x="98.5" y="930.7979">asks to input new postal address</text><polygon fill="#181818" points="307.5,963.3516,317.5,967.3516,307.5,971.3516,311.5,967.3516" style="stroke:#181818;stroke-width:1.0;"/><line style="stroke:#181818;stroke-width:1.0;" x1="81.5" x2="313.5" y1="967.3516" y2="967.3516"/><text fill="#000000" font-family="sans-serif" font-size="13" lengthAdjust="spacing" textLength="151" x="88.5" y="962.0889">inputs new postal address</text><polygon fill="#181818" points="625.5,1011.9336,635.5,1015.9336,625.5,1019.9336,629.5,1015.9336" style="stroke:#181818;stroke-width:1.0;"/><line style="stroke:#181818;stroke-width:1.0;" x1="329.5" x2="631.5" y1="1015.9336" y2="1015.9336"/><text fill="#000000" font-family="sans-serif" font-size="13" lengthAdjust="spacing" textLength="251" x="336.5" y="993.3799">editPostalAddress(JobOpening jobOpening,</text><text fill="#000000" font-family="sans-serif" font-size="13" lengthAdjust="spacing" textLength="201" x="336.5" y="1010.6709">PostalAddress newPostalAddress)</text><polygon fill="#181818" points="1227.5,1043.2246,1237.5,1047.2246,1227.5,1051.2246,1231.5,1047.2246" style="stroke:#181818;stroke-width:1.0;"/><line style="stroke:#181818;stroke-width:1.0;" x1="647.5" x2="1233.5" y1="1047.2246" y2="1047.2246"/><text fill="#000000" font-family="sans-serif" font-size="13" lengthAdjust="spacing" textLength="311" x="654.5" y="1041.9619">editPostalAddress(PostalAddress newPostalAddress)</text><path d="M10,1069.2246 L71,1069.2246 L71,1078.5156 L61,1088.5156 L10,1088.5156 L10,1069.2246 " fill="#EEEEEE" style="stroke:#000000;stroke-width:1.5;"/><rect fill="none" height="161.7461" style="stroke:#000000;stroke-width:1.5;" width="1284.5" x="10" y="1069.2246"/><text fill="#000000" font-family="sans-serif" font-size="13" font-weight="bold" lengthAdjust="spacing" textLength="16" x="25" y="1084.2529">alt</text><text fill="#000000" font-family="sans-serif" font-size="11" font-weight="bold" lengthAdjust="spacing" textLength="134" x="86" y="1083.0947">[attribute is description]</text><polygon fill="#181818" points="92.5,1107.8066,82.5,1111.8066,92.5,1115.8066,88.5,1111.8066" style="stroke:#181818;stroke-width:1.0;"/><line style="stroke:#181818;stroke-width:1.0;stroke-dasharray:2.0,2.0;" x1="86.5" x2="318.5" y1="1111.8066" y2="1111.8066"/><text fill="#000000" font-family="sans-serif" font-size="13" lengthAdjust="spacing" textLength="169" x="98.5" y="1106.5439">asks to input new description</text><polygon fill="#181818" points="307.5,1139.0977,317.5,1143.0977,307.5,1147.0977,311.5,1143.0977" style="stroke:#181818;stroke-width:1.0;"/><line style="stroke:#181818;stroke-width:1.0;" x1="81.5" x2="313.5" y1="1143.0977" y2="1143.0977"/><text fill="#000000" font-family="sans-serif" font-size="13" lengthAdjust="spacing" textLength="122" x="88.5" y="1137.835">input new description</text><polygon fill="#181818" points="625.5,1187.6797,635.5,1191.6797,625.5,1195.6797,629.5,1191.6797" style="stroke:#181818;stroke-width:1.0;"/><line style="stroke:#181818;stroke-width:1.0;" x1="329.5" x2="631.5" y1="1191.6797" y2="1191.6797"/><text fill="#000000" font-family="sans-serif" font-size="13" lengthAdjust="spacing" textLength="158" x="336.5" y="1169.126">editDescription(JobOpening</text><text fill="#000000" font-family="sans-serif" font-size="13" lengthAdjust="spacing" textLength="234" x="336.5" y="1186.417">jobOpening, Description newDescription)</text><polygon fill="#181818" points="1227.5,1218.9707,1237.5,1222.9707,1227.5,1226.9707,1231.5,1222.9707" style="stroke:#181818;stroke-width:1.0;"/><line style="stroke:#181818;stroke-width:1.0;" x1="647.5" x2="1233.5" y1="1222.9707" y2="1222.9707"/><text fill="#000000" font-family="sans-serif" font-size="13" lengthAdjust="spacing" textLength="251" x="654.5" y="1217.708">editDescription(Description newDescription)</text><path d="M10,1244.9707 L71,1244.9707 L71,1254.2617 L61,1264.2617 L10,1264.2617 L10,1244.9707 " fill="#EEEEEE" style="stroke:#000000;stroke-width:1.5;"/><rect fill="none" height="161.7461" style="stroke:#000000;stroke-width:1.5;" width="1284.5" x="10" y="1244.9707"/><text fill="#000000" font-family="sans-serif" font-size="13" font-weight="bold" lengthAdjust="spacing" textLength="16" x="25" y="1259.999">alt</text><text fill="#000000" font-family="sans-serif" font-size="11" font-weight="bold" lengthAdjust="spacing" textLength="116" x="86" y="1258.8408">[attribute is function]</text><polygon fill="#181818" points="92.5,1283.5527,82.5,1287.5527,92.5,1291.5527,88.5,1287.5527" style="stroke:#181818;stroke-width:1.0;"/><line style="stroke:#181818;stroke-width:1.0;stroke-dasharray:2.0,2.0;" x1="86.5" x2="318.5" y1="1287.5527" y2="1287.5527"/><text fill="#000000" font-family="sans-serif" font-size="13" lengthAdjust="spacing" textLength="151" x="98.5" y="1282.29">asks to input new function</text><polygon fill="#181818" points="307.5,1314.8438,317.5,1318.8438,307.5,1322.8438,311.5,1318.8438" style="stroke:#181818;stroke-width:1.0;"/><line style="stroke:#181818;stroke-width:1.0;" x1="81.5" x2="313.5" y1="1318.8438" y2="1318.8438"/><text fill="#000000" font-family="sans-serif" font-size="13" lengthAdjust="spacing" textLength="111" x="88.5" y="1313.5811">inputs new function</text><polygon fill="#181818" points="625.5,1363.4258,635.5,1367.4258,625.5,1371.4258,629.5,1367.4258" style="stroke:#181818;stroke-width:1.0;"/><line style="stroke:#181818;stroke-width:1.0;" x1="329.5" x2="631.5" y1="1367.4258" y2="1367.4258"/><text fill="#000000" font-family="sans-serif" font-size="13" lengthAdjust="spacing" textLength="143" x="336.5" y="1344.8721">editFunction(JobOpening</text><text fill="#000000" font-family="sans-serif" font-size="13" lengthAdjust="spacing" textLength="222" x="336.5" y="1362.1631">jobOpening, Designation newFunction)</text><polygon fill="#181818" points="1227.5,1394.7168,1237.5,1398.7168,1227.5,1402.7168,1231.5,1398.7168" style="stroke:#181818;stroke-width:1.0;"/><line style="stroke:#181818;stroke-width:1.0;" x1="647.5" x2="1233.5" y1="1398.7168" y2="1398.7168"/><text fill="#000000" font-family="sans-serif" font-size="13" lengthAdjust="spacing" textLength="224" x="654.5" y="1393.4541">editFunction(Designation newFunction)</text><path d="M10,1420.7168 L71,1420.7168 L71,1430.0078 L61,1440.0078 L10,1440.0078 L10,1420.7168 " fill="#EEEEEE" style="stroke:#000000;stroke-width:1.5;"/><rect fill="none" height="161.7461" style="stroke:#000000;stroke-width:1.5;" width="1284.5" x="10" y="1420.7168"/><text fill="#000000" font-family="sans-serif" font-size="13" font-weight="bold" lengthAdjust="spacing" textLength="16" x="25" y="1435.7451">alt</text><text fill="#000000" font-family="sans-serif" font-size="11" font-weight="bold" lengthAdjust="spacing" textLength="143" x="86" y="1434.5869">[attribute is contract type]</text><polygon fill="#181818" points="92.5,1459.2988,82.5,1463.2988,92.5,1467.2988,88.5,1463.2988" style="stroke:#181818;stroke-width:1.0;"/><line style="stroke:#181818;stroke-width:1.0;stroke-dasharray:2.0,2.0;" x1="86.5" x2="318.5" y1="1463.2988" y2="1463.2988"/><text fill="#000000" font-family="sans-serif" font-size="13" lengthAdjust="spacing" textLength="189" x="98.5" y="1458.0361">asks to select new contract type</text><polygon fill="#181818" points="307.5,1490.5898,317.5,1494.5898,307.5,1498.5898,311.5,1494.5898" style="stroke:#181818;stroke-width:1.0;"/><line style="stroke:#181818;stroke-width:1.0;" x1="81.5" x2="313.5" y1="1494.5898" y2="1494.5898"/><text fill="#000000" font-family="sans-serif" font-size="13" lengthAdjust="spacing" textLength="149" x="88.5" y="1489.3271">selects new contract type</text><polygon fill="#181818" points="625.5,1539.1719,635.5,1543.1719,625.5,1547.1719,629.5,1543.1719" style="stroke:#181818;stroke-width:1.0;"/><line style="stroke:#181818;stroke-width:1.0;" x1="329.5" x2="631.5" y1="1543.1719" y2="1543.1719"/><text fill="#000000" font-family="sans-serif" font-size="13" lengthAdjust="spacing" textLength="170" x="336.5" y="1520.6182">editContractType(JobOpening</text><text fill="#000000" font-family="sans-serif" font-size="13" lengthAdjust="spacing" textLength="284" x="336.5" y="1537.9092">newJobOpening, ContractType newContractType)</text><polygon fill="#181818" points="1227.5,1570.4629,1237.5,1574.4629,1227.5,1578.4629,1231.5,1574.4629" style="stroke:#181818;stroke-width:1.0;"/><line style="stroke:#181818;stroke-width:1.0;" x1="647.5" x2="1233.5" y1="1574.4629" y2="1574.4629"/><text fill="#000000" font-family="sans-serif" font-size="13" lengthAdjust="spacing" textLength="287" x="654.5" y="1569.2002">editContractType(ContractType newContractType)</text><polygon fill="#181818" points="796.5,1608.7539,806.5,1612.7539,796.5,1616.7539,800.5,1612.7539" style="stroke:#181818;stroke-width:1.0;"/><line style="stroke:#181818;stroke-width:1.0;" x1="647.5" x2="802.5" y1="1612.7539" y2="1612.7539"/><text fill="#000000" font-family="sans-serif" font-size="13" lengthAdjust="spacing" textLength="75" x="654.5" y="1607.4912">repositories()</text><polygon fill="#181818" points="939.5,1640.0449,949.5,1644.0449,939.5,1648.0449,943.5,1644.0449" style="stroke:#181818;stroke-width:1.0;"/><line style="stroke:#181818;stroke-width:1.0;" x1="808.5" x2="945.5" y1="1644.0449" y2="1644.0449"/><text fill="#000000" font-family="sans-serif" font-size="13" lengthAdjust="spacing" textLength="36" x="815.5" y="1638.7822">create</text><polygon fill="#181818" points="1093.5,1671.3359,1103.5,1675.3359,1093.5,1679.3359,1097.5,1675.3359" style="stroke:#181818;stroke-width:1.0;"/><line style="stroke:#181818;stroke-width:1.0;" x1="951.5" x2="1099.5" y1="1675.3359" y2="1675.3359"/><text fill="#000000" font-family="sans-serif" font-size="13" lengthAdjust="spacing" textLength="36" x="958.5" y="1670.0732">create</text><polygon fill="#181818" points="1088.5,1702.627,1098.5,1706.627,1088.5,1710.627,1092.5,1706.627" style="stroke:#181818;stroke-width:1.0;"/><line style="stroke:#181818;stroke-width:1.0;" x1="647.5" x2="1094.5" y1="1706.627" y2="1706.627"/><text fill="#000000" font-family="sans-serif" font-size="13" lengthAdjust="spacing" textLength="171" x="654.5" y="1701.3643">save(JobOpening jobOpening)</text><polygon fill="#181818" points="658.5,1733.918,648.5,1737.918,658.5,1741.918,654.5,1737.918" style="stroke:#181818;stroke-width:1.0;"/><line style="stroke:#181818;stroke-width:1.0;stroke-dasharray:2.0,2.0;" x1="652.5" x2="1104.5" y1="1737.918" y2="1737.918"/><text fill="#000000" font-family="sans-serif" font-size="13" lengthAdjust="spacing" textLength="65" x="664.5" y="1732.6553">jobOpening</text><polygon fill="#181818" points="340.5,1765.209,330.5,1769.209,340.5,1773.209,336.5,1769.209" style="stroke:#181818;stroke-width:1.0;"/><line style="stroke:#181818;stroke-width:1.0;stroke-dasharray:2.0,2.0;" x1="334.5" x2="641.5" y1="1769.209" y2="1769.209"/><text fill="#000000" font-family="sans-serif" font-size="13" lengthAdjust="spacing" textLength="65" x="346.5" y="1763.9463">jobOpening</text><polygon fill="#181818" points="92.5,1796.5,82.5,1800.5,92.5,1804.5,88.5,1800.5" style="stroke:#181818;stroke-width:1.0;"/><line style="stroke:#181818;stroke-width:1.0;stroke-dasharray:2.0,2.0;" x1="86.5" x2="323.5" y1="1800.5" y2="1800.5"/><text fill="#000000" font-family="sans-serif" font-size="13" lengthAdjust="spacing" textLength="91" x="98.5" y="1795.2373">returns to menu</text><!--SRC=[tLTBZzem4BxdL_XMLYhbZX3IYdQbhhhRLPyNBiOPM7SJsxKTAF- -um29G-A0ONlfqNY-Xx-P9ERDixNAZ4SZbL5XYpnxnsG-Cl2x0C5Wc7AwqZHF4igir6HM62jpq0zKq1Ne955KMywuGYpva79xBnUV5GWkLjy_aib4QJ0WBBLSYkcqftecXTKooq0ZYYgLSTO5UW9jkB7EcaF07zlO_W9A6ev6jtUbtsrZjrQhwr1DLuiZiReUgrAPK-xi9CDf-wHZaiglpt8pk751yJMrq2fAMgWMavV2c30DI1EBoZ2UUik43TMe94Y7Kkt4KQIAZ8DJwAX1PAiPzPdQMrZVsPv034sF0UIIY_Gso_m8kYgJJlYmF-PFUDv9lJTDKkWN2VlldgS-WJCRwMO5oO-UMUGsEAccd1GYbyukEOpBN52H4cfU3B6I6CY0OOs0v9Yas_GEO1p2futnLTcYrcg-A2oKLW0Po2kwgzWFv0dDhFShDsGZzOjxzdEPmhadEF8cODEaYJTwmaNlaBfp_TpX7n0-y5veS_6hMhmbNf7px2slVNruacq_VRBWEfrrj4KK-GAvSKBMb571jh6zuK8LkzQqgSxhJybW0XGNzEYn9FbH4hWtQh1FZ_kYhTEk5ZTn7QXmWn1TC7jycrcQ4Pgc-5qtdKSz9_SZckZGpx1n8l6dak5sH-3dxQKz5uqgfzpu8JBsfkGfwc0BKZ1CS-NkHfSFlayIaNuBUq7oxsjuUCwz8gVfBID3zzNwI8DnBml1hikwOeWUynxjap7VxR6z6VELe8Su3e38W2kT85qmMkQOyUj2x5PTyu5jyiHzOTlu2xAUxGc-8RwPDzBVUv7xXKxQNqVctj3ivpqqu3-zvHkwXkut-B-uzzVihtxZxwQ-zgwlmHPQbCzC3g88K-CVrBy0]--></g></svg>