<?xml version="1.0" encoding="us-ascii" standalone="no"?><svg xmlns="http://www.w3.org/2000/svg" xmlns:xlink="http://www.w3.org/1999/xlink" contentStyleType="text/css" height="352px" preserveAspectRatio="none" style="width:1067px;height:352px;background:#FFFFFF;" version="1.1" viewBox="0 0 1067 352" width="1067px" zoomAndPan="magnify"><defs/><g><!--class ExecuteRequirementEvaluationUI--><g id="elem_ExecuteRequirementEvaluationUI"><rect codeLine="3" fill="#F1F1F1" height="48" id="ExecuteRequirementEvaluationUI" rx="2.5" ry="2.5" style="stroke:#181818;stroke-width:0.5;" width="241" x="7" y="16.5"/><ellipse cx="22" cy="32.5" fill="#ADD1B2" rx="11" ry="11" style="stroke:#181818;stroke-width:1.0;"/><path d="M24.7656,28.375 Q24.9219,28.1563 25.1094,28.0469 Q25.2969,27.9375 25.5156,27.9375 Q25.8906,27.9375 26.125,28.2031 Q26.3594,28.4531 26.3594,29.0625 L26.3594,30.5156 Q26.3594,31.125 26.125,31.3906 Q25.8906,31.6563 25.5156,31.6563 Q25.1719,31.6563 24.9688,31.4531 Q24.7656,31.2656 24.6563,30.75 Q24.6094,30.3906 24.4219,30.2031 Q24.0938,29.8281 23.4844,29.6094 Q22.875,29.3906 22.25,29.3906 Q21.4844,29.3906 20.8438,29.7188 Q20.2188,30.0469 19.7188,30.7969 Q19.2344,31.5469 19.2344,32.5781 L19.2344,33.6719 Q19.2344,34.9063 20.125,35.7344 Q21.0156,36.5469 22.6094,36.5469 Q23.5469,36.5469 24.2031,36.2969 Q24.5938,36.1406 25.0156,35.7031 Q25.2813,35.4375 25.4219,35.3594 Q25.5781,35.2813 25.7813,35.2813 Q26.1094,35.2813 26.3594,35.5469 Q26.625,35.7969 26.625,36.1406 Q26.625,36.4844 26.2813,36.8906 Q25.7813,37.4688 24.9844,37.7969 Q23.9063,38.25 22.6094,38.25 Q21.0938,38.25 19.8906,37.625 Q18.9063,37.125 18.2188,36.0625 Q17.5313,34.9844 17.5313,33.7031 L17.5313,32.5469 Q17.5313,31.2188 18.1406,30.0781 Q18.7656,28.9219 19.8594,28.3125 Q20.9531,27.6875 22.1875,27.6875 Q22.9219,27.6875 23.5625,27.8594 Q24.2188,28.0156 24.7656,28.375 Z " fill="#000000"/><text fill="#000000" font-family="sans-serif" font-size="14" lengthAdjust="spacing" textLength="209" x="36" y="38.2969">ExecuteRequirementEvaluationUI</text><line style="stroke:#181818;stroke-width:0.5;" x1="8" x2="247" y1="48.5" y2="48.5"/><line style="stroke:#181818;stroke-width:0.5;" x1="8" x2="247" y1="56.5" y2="56.5"/></g><!--class ExecuteRequirementEvaluationController--><g id="elem_ExecuteRequirementEvaluationController"><rect codeLine="4" fill="#F1F1F1" height="48" id="ExecuteRequirementEvaluationController" rx="2.5" ry="2.5" style="stroke:#181818;stroke-width:0.5;" width="291" x="283" y="16.5"/><ellipse cx="298" cy="32.5" fill="#ADD1B2" rx="11" ry="11" style="stroke:#181818;stroke-width:1.0;"/><path d="M300.7656,28.375 Q300.9219,28.1563 301.1094,28.0469 Q301.2969,27.9375 301.5156,27.9375 Q301.8906,27.9375 302.125,28.2031 Q302.3594,28.4531 302.3594,29.0625 L302.3594,30.5156 Q302.3594,31.125 302.125,31.3906 Q301.8906,31.6563 301.5156,31.6563 Q301.1719,31.6563 300.9688,31.4531 Q300.7656,31.2656 300.6563,30.75 Q300.6094,30.3906 300.4219,30.2031 Q300.0938,29.8281 299.4844,29.6094 Q298.875,29.3906 298.25,29.3906 Q297.4844,29.3906 296.8438,29.7188 Q296.2188,30.0469 295.7188,30.7969 Q295.2344,31.5469 295.2344,32.5781 L295.2344,33.6719 Q295.2344,34.9063 296.125,35.7344 Q297.0156,36.5469 298.6094,36.5469 Q299.5469,36.5469 300.2031,36.2969 Q300.5938,36.1406 301.0156,35.7031 Q301.2813,35.4375 301.4219,35.3594 Q301.5781,35.2813 301.7813,35.2813 Q302.1094,35.2813 302.3594,35.5469 Q302.625,35.7969 302.625,36.1406 Q302.625,36.4844 302.2813,36.8906 Q301.7813,37.4688 300.9844,37.7969 Q299.9063,38.25 298.6094,38.25 Q297.0938,38.25 295.8906,37.625 Q294.9063,37.125 294.2188,36.0625 Q293.5313,34.9844 293.5313,33.7031 L293.5313,32.5469 Q293.5313,31.2188 294.1406,30.0781 Q294.7656,28.9219 295.8594,28.3125 Q296.9531,27.6875 298.1875,27.6875 Q298.9219,27.6875 299.5625,27.8594 Q300.2188,28.0156 300.7656,28.375 Z " fill="#000000"/><text fill="#000000" font-family="sans-serif" font-size="14" lengthAdjust="spacing" textLength="259" x="312" y="38.2969">ExecuteRequirementEvaluationController</text><line style="stroke:#181818;stroke-width:0.5;" x1="284" x2="573" y1="48.5" y2="48.5"/><line style="stroke:#181818;stroke-width:0.5;" x1="284" x2="573" y1="56.5" y2="56.5"/></g><!--class ExecuteListOfApplicationsService--><g id="elem_ExecuteListOfApplicationsService"><rect codeLine="6" fill="#F1F1F1" height="66.6211" id="ExecuteListOfApplicationsService" rx="2.5" ry="2.5" style="stroke:#181818;stroke-width:0.5;" width="284" x="609.5" y="7"/><ellipse cx="643.4" cy="23" fill="#ADD1B2" rx="11" ry="11" style="stroke:#181818;stroke-width:1.0;"/><path d="M646.1656,18.875 Q646.3219,18.6563 646.5094,18.5469 Q646.6969,18.4375 646.9156,18.4375 Q647.2906,18.4375 647.525,18.7031 Q647.7594,18.9531 647.7594,19.5625 L647.7594,21.0156 Q647.7594,21.625 647.525,21.8906 Q647.2906,22.1563 646.9156,22.1563 Q646.5719,22.1563 646.3688,21.9531 Q646.1656,21.7656 646.0563,21.25 Q646.0094,20.8906 645.8219,20.7031 Q645.4938,20.3281 644.8844,20.1094 Q644.275,19.8906 643.65,19.8906 Q642.8844,19.8906 642.2438,20.2188 Q641.6188,20.5469 641.1188,21.2969 Q640.6344,22.0469 640.6344,23.0781 L640.6344,24.1719 Q640.6344,25.4063 641.525,26.2344 Q642.4156,27.0469 644.0094,27.0469 Q644.9469,27.0469 645.6031,26.7969 Q645.9938,26.6406 646.4156,26.2031 Q646.6813,25.9375 646.8219,25.8594 Q646.9781,25.7813 647.1813,25.7813 Q647.5094,25.7813 647.7594,26.0469 Q648.025,26.2969 648.025,26.6406 Q648.025,26.9844 647.6813,27.3906 Q647.1813,27.9688 646.3844,28.2969 Q645.3063,28.75 644.0094,28.75 Q642.4938,28.75 641.2906,28.125 Q640.3063,27.625 639.6188,26.5625 Q638.9313,25.4844 638.9313,24.2031 L638.9313,23.0469 Q638.9313,21.7188 639.5406,20.5781 Q640.1656,19.4219 641.2594,18.8125 Q642.3531,18.1875 643.5875,18.1875 Q644.3219,18.1875 644.9625,18.3594 Q645.6188,18.5156 646.1656,18.875 Z " fill="#000000"/><text fill="#000000" font-family="sans-serif" font-size="14" lengthAdjust="spacing" textLength="210" x="661.6" y="28.7969">ExecuteListOfApplicationsService</text><line style="stroke:#181818;stroke-width:0.5;" x1="610.5" x2="892.5" y1="39" y2="39"/><line style="stroke:#181818;stroke-width:0.5;" x1="610.5" x2="892.5" y1="47" y2="47"/><text fill="#000000" font-family="sans-serif" font-size="14" lengthAdjust="spacing" textLength="272" x="615.5" y="66.1074">evaluateListOfApplications(jobApplications)</text></g><!--class JobApplicationRepository--><g id="elem_JobApplicationRepository"><rect codeLine="9" fill="#F1F1F1" height="85.2422" id="JobApplicationRepository" rx="2.5" ry="2.5" style="stroke:#181818;stroke-width:0.5;" width="390" x="252.5" y="134"/><ellipse cx="363.25" cy="150" fill="#B4A7E5" rx="11" ry="11" style="stroke:#181818;stroke-width:1.0;"/><path d="M364.2031,146.6406 L364.2031,153.2969 L365.9219,153.2969 Q366.5313,153.2969 366.7969,153.5313 Q367.0625,153.7656 367.0625,154.1563 Q367.0625,154.5313 366.7969,154.7656 Q366.5313,155 365.9219,155 L360.7813,155 Q360.1719,155 359.9063,154.7656 Q359.6406,154.5313 359.6406,154.1406 Q359.6406,153.7656 359.9063,153.5313 Q360.1719,153.2969 360.7813,153.2969 L362.5,153.2969 L362.5,146.6406 L360.7813,146.6406 Q360.1719,146.6406 359.9063,146.4063 Q359.6406,146.1719 359.6406,145.7813 Q359.6406,145.4063 359.9063,145.1719 Q360.1719,144.9375 360.7813,144.9375 L365.9219,144.9375 Q366.5313,144.9375 366.7969,145.1719 Q367.0625,145.4063 367.0625,145.7813 Q367.0625,146.1719 366.7969,146.4063 Q366.5313,146.6406 365.9219,146.6406 L364.2031,146.6406 Z " fill="#000000"/><text fill="#000000" font-family="sans-serif" font-size="14" font-style="italic" lengthAdjust="spacing" textLength="160" x="383.75" y="155.7969">JobApplicationRepository</text><line style="stroke:#181818;stroke-width:0.5;" x1="253.5" x2="641.5" y1="166" y2="166"/><line style="stroke:#181818;stroke-width:0.5;" x1="253.5" x2="641.5" y1="174" y2="174"/><text fill="#000000" font-family="sans-serif" font-size="14" lengthAdjust="spacing" textLength="378" x="258.5" y="193.1074">findByJobOpeningAndWithRequirementAnswer(jobOpening)</text><text fill="#000000" font-family="sans-serif" font-size="14" lengthAdjust="spacing" textLength="128" x="258.5" y="211.7285">save(jobApplication)</text></g><!--class JobOpening--><g id="elem_JobOpening"><rect codeLine="13" fill="#F1F1F1" height="48" id="JobOpening" rx="2.5" ry="2.5" style="stroke:#181818;stroke-width:0.5;" width="108" x="687.5" y="152.5"/><ellipse cx="702.5" cy="168.5" fill="#ADD1B2" rx="11" ry="11" style="stroke:#181818;stroke-width:1.0;"/><path d="M705.2656,164.375 Q705.4219,164.1563 705.6094,164.0469 Q705.7969,163.9375 706.0156,163.9375 Q706.3906,163.9375 706.625,164.2031 Q706.8594,164.4531 706.8594,165.0625 L706.8594,166.5156 Q706.8594,167.125 706.625,167.3906 Q706.3906,167.6563 706.0156,167.6563 Q705.6719,167.6563 705.4688,167.4531 Q705.2656,167.2656 705.1563,166.75 Q705.1094,166.3906 704.9219,166.2031 Q704.5938,165.8281 703.9844,165.6094 Q703.375,165.3906 702.75,165.3906 Q701.9844,165.3906 701.3438,165.7188 Q700.7188,166.0469 700.2188,166.7969 Q699.7344,167.5469 699.7344,168.5781 L699.7344,169.6719 Q699.7344,170.9063 700.625,171.7344 Q701.5156,172.5469 703.1094,172.5469 Q704.0469,172.5469 704.7031,172.2969 Q705.0938,172.1406 705.5156,171.7031 Q705.7813,171.4375 705.9219,171.3594 Q706.0781,171.2813 706.2813,171.2813 Q706.6094,171.2813 706.8594,171.5469 Q707.125,171.7969 707.125,172.1406 Q707.125,172.4844 706.7813,172.8906 Q706.2813,173.4688 705.4844,173.7969 Q704.4063,174.25 703.1094,174.25 Q701.5938,174.25 700.3906,173.625 Q699.4063,173.125 698.7188,172.0625 Q698.0313,170.9844 698.0313,169.7031 L698.0313,168.5469 Q698.0313,167.2188 698.6406,166.0781 Q699.2656,164.9219 700.3594,164.3125 Q701.4531,163.6875 702.6875,163.6875 Q703.4219,163.6875 704.0625,163.8594 Q704.7188,164.0156 705.2656,164.375 Z " fill="#000000"/><text fill="#000000" font-family="sans-serif" font-size="14" lengthAdjust="spacing" textLength="76" x="716.5" y="174.2969">JobOpening</text><line style="stroke:#181818;stroke-width:0.5;" x1="688.5" x2="794.5" y1="184.5" y2="184.5"/><line style="stroke:#181818;stroke-width:0.5;" x1="688.5" x2="794.5" y1="192.5" y2="192.5"/></g><!--class JobApplication--><g id="elem_JobApplication"><rect codeLine="14" fill="#F1F1F1" height="66.6211" id="JobApplication" rx="2.5" ry="2.5" style="stroke:#181818;stroke-width:0.5;" width="136" x="872.5" y="143"/><ellipse cx="893.35" cy="159" fill="#ADD1B2" rx="11" ry="11" style="stroke:#181818;stroke-width:1.0;"/><path d="M896.1156,154.875 Q896.2719,154.6563 896.4594,154.5469 Q896.6469,154.4375 896.8656,154.4375 Q897.2406,154.4375 897.475,154.7031 Q897.7094,154.9531 897.7094,155.5625 L897.7094,157.0156 Q897.7094,157.625 897.475,157.8906 Q897.2406,158.1563 896.8656,158.1563 Q896.5219,158.1563 896.3188,157.9531 Q896.1156,157.7656 896.0063,157.25 Q895.9594,156.8906 895.7719,156.7031 Q895.4438,156.3281 894.8344,156.1094 Q894.225,155.8906 893.6,155.8906 Q892.8344,155.8906 892.1938,156.2188 Q891.5688,156.5469 891.0688,157.2969 Q890.5844,158.0469 890.5844,159.0781 L890.5844,160.1719 Q890.5844,161.4063 891.475,162.2344 Q892.3656,163.0469 893.9594,163.0469 Q894.8969,163.0469 895.5531,162.7969 Q895.9438,162.6406 896.3656,162.2031 Q896.6313,161.9375 896.7719,161.8594 Q896.9281,161.7813 897.1313,161.7813 Q897.4594,161.7813 897.7094,162.0469 Q897.975,162.2969 897.975,162.6406 Q897.975,162.9844 897.6313,163.3906 Q897.1313,163.9688 896.3344,164.2969 Q895.2563,164.75 893.9594,164.75 Q892.4438,164.75 891.2406,164.125 Q890.2563,163.625 889.5688,162.5625 Q888.8813,161.4844 888.8813,160.2031 L888.8813,159.0469 Q888.8813,157.7188 889.4906,156.5781 Q890.1156,155.4219 891.2094,154.8125 Q892.3031,154.1875 893.5375,154.1875 Q894.2719,154.1875 894.9125,154.3594 Q895.5688,154.5156 896.1156,154.875 Z " fill="#000000"/><text fill="#000000" font-family="sans-serif" font-size="14" lengthAdjust="spacing" textLength="91" x="908.65" y="164.7969">JobApplication</text><line style="stroke:#181818;stroke-width:0.5;" x1="873.5" x2="1007.5" y1="175" y2="175"/><line style="stroke:#181818;stroke-width:0.5;" x1="873.5" x2="1007.5" y1="183" y2="183"/><text fill="#000000" font-family="sans-serif" font-size="14" lengthAdjust="spacing" textLength="124" x="878.5" y="202.1074">defineResult(result)</text></g><!--class JobRequirementSpecification--><g id="elem_JobRequirementSpecification"><rect codeLine="17" fill="#F1F1F1" height="66.6211" id="JobRequirementSpecification" rx="2.5" ry="2.5" style="stroke:#181818;stroke-width:0.5;" width="215" x="612" y="279"/><ellipse cx="627" cy="295" fill="#ADD1B2" rx="11" ry="11" style="stroke:#181818;stroke-width:1.0;"/><path d="M629.7656,290.875 Q629.9219,290.6563 630.1094,290.5469 Q630.2969,290.4375 630.5156,290.4375 Q630.8906,290.4375 631.125,290.7031 Q631.3594,290.9531 631.3594,291.5625 L631.3594,293.0156 Q631.3594,293.625 631.125,293.8906 Q630.8906,294.1563 630.5156,294.1563 Q630.1719,294.1563 629.9688,293.9531 Q629.7656,293.7656 629.6563,293.25 Q629.6094,292.8906 629.4219,292.7031 Q629.0938,292.3281 628.4844,292.1094 Q627.875,291.8906 627.25,291.8906 Q626.4844,291.8906 625.8438,292.2188 Q625.2188,292.5469 624.7188,293.2969 Q624.2344,294.0469 624.2344,295.0781 L624.2344,296.1719 Q624.2344,297.4063 625.125,298.2344 Q626.0156,299.0469 627.6094,299.0469 Q628.5469,299.0469 629.2031,298.7969 Q629.5938,298.6406 630.0156,298.2031 Q630.2813,297.9375 630.4219,297.8594 Q630.5781,297.7813 630.7813,297.7813 Q631.1094,297.7813 631.3594,298.0469 Q631.625,298.2969 631.625,298.6406 Q631.625,298.9844 631.2813,299.3906 Q630.7813,299.9688 629.9844,300.2969 Q628.9063,300.75 627.6094,300.75 Q626.0938,300.75 624.8906,300.125 Q623.9063,299.625 623.2188,298.5625 Q622.5313,297.4844 622.5313,296.2031 L622.5313,295.0469 Q622.5313,293.7188 623.1406,292.5781 Q623.7656,291.4219 624.8594,290.8125 Q625.9531,290.1875 627.1875,290.1875 Q627.9219,290.1875 628.5625,290.3594 Q629.2188,290.5156 629.7656,290.875 Z " fill="#000000"/><text fill="#000000" font-family="sans-serif" font-size="14" lengthAdjust="spacing" textLength="183" x="641" y="300.7969">JobRequirementSpecification</text><line style="stroke:#181818;stroke-width:0.5;" x1="613" x2="826" y1="311" y2="311"/><line style="stroke:#181818;stroke-width:0.5;" x1="613" x2="826" y1="319" y2="319"/><text fill="#000000" font-family="sans-serif" font-size="14" lengthAdjust="spacing" textLength="186" x="618" y="338.1074">evaluate(requirementAnswer)</text></g><!--class RequirementAnswer--><g id="elem_RequirementAnswer"><rect codeLine="20" fill="#F1F1F1" height="66.6211" id="RequirementAnswer" rx="2.5" ry="2.5" style="stroke:#181818;stroke-width:0.5;" width="198" x="862.5" y="279"/><ellipse cx="895.05" cy="295" fill="#ADD1B2" rx="11" ry="11" style="stroke:#181818;stroke-width:1.0;"/><path d="M897.8156,290.875 Q897.9719,290.6563 898.1594,290.5469 Q898.3469,290.4375 898.5656,290.4375 Q898.9406,290.4375 899.175,290.7031 Q899.4094,290.9531 899.4094,291.5625 L899.4094,293.0156 Q899.4094,293.625 899.175,293.8906 Q898.9406,294.1563 898.5656,294.1563 Q898.2219,294.1563 898.0188,293.9531 Q897.8156,293.7656 897.7063,293.25 Q897.6594,292.8906 897.4719,292.7031 Q897.1438,292.3281 896.5344,292.1094 Q895.925,291.8906 895.3,291.8906 Q894.5344,291.8906 893.8938,292.2188 Q893.2688,292.5469 892.7688,293.2969 Q892.2844,294.0469 892.2844,295.0781 L892.2844,296.1719 Q892.2844,297.4063 893.175,298.2344 Q894.0656,299.0469 895.6594,299.0469 Q896.5969,299.0469 897.2531,298.7969 Q897.6438,298.6406 898.0656,298.2031 Q898.3313,297.9375 898.4719,297.8594 Q898.6281,297.7813 898.8313,297.7813 Q899.1594,297.7813 899.4094,298.0469 Q899.675,298.2969 899.675,298.6406 Q899.675,298.9844 899.3313,299.3906 Q898.8313,299.9688 898.0344,300.2969 Q896.9563,300.75 895.6594,300.75 Q894.1438,300.75 892.9406,300.125 Q891.9563,299.625 891.2688,298.5625 Q890.5813,297.4844 890.5813,296.2031 L890.5813,295.0469 Q890.5813,293.7188 891.1906,292.5781 Q891.8156,291.4219 892.9094,290.8125 Q894.0031,290.1875 895.2375,290.1875 Q895.9719,290.1875 896.6125,290.3594 Q897.2688,290.5156 897.8156,290.875 Z " fill="#000000"/><text fill="#000000" font-family="sans-serif" font-size="14" lengthAdjust="spacing" textLength="127" x="912.95" y="300.7969">RequirementAnswer</text><line style="stroke:#181818;stroke-width:0.5;" x1="863.5" x2="1059.5" y1="311" y2="311"/><line style="stroke:#181818;stroke-width:0.5;" x1="863.5" x2="1059.5" y1="319" y2="319"/><text fill="#000000" font-family="sans-serif" font-size="14" lengthAdjust="spacing" textLength="186" x="868.5" y="338.1074">inputStreamOrResourceFile()</text></g><!--link ExecuteRequirementEvaluationUI to ExecuteRequirementEvaluationController--><g id="link_ExecuteRequirementEvaluationUI_ExecuteRequirementEvaluationController"><path codeLine="25" d="M248.02,40.5 C259.65,40.5 265.28,40.5 276.92,40.5 " fill="none" id="ExecuteRequirementEvaluationUI-to-ExecuteRequirementEvaluationController" style="stroke:#181818;stroke-width:1.0;"/><polygon fill="#181818" points="282.92,40.5,273.92,36.5,277.92,40.5,273.92,44.5,282.92,40.5" style="stroke:#181818;stroke-width:1.0;"/></g><!--link ExecuteRequirementEvaluationController to JobApplicationRepository--><g id="link_ExecuteRequirementEvaluationController_JobApplicationRepository"><path codeLine="26" d="M431.77,64.54 C434.46,83.54 437.5077,105.0594 440.7477,127.9094 " fill="none" id="ExecuteRequirementEvaluationController-to-JobApplicationRepository" style="stroke:#181818;stroke-width:1.0;"/><polygon fill="#181818" points="441.59,133.85,444.2869,124.3776,440.888,128.8995,436.3661,125.5007,441.59,133.85" style="stroke:#181818;stroke-width:1.0;"/></g><!--link ExecuteRequirementEvaluationController to ExecuteListOfApplicationsService--><g id="link_ExecuteRequirementEvaluationController_ExecuteListOfApplicationsService"><path codeLine="27" d="M574.23,40.5 C585.89,40.5 591.54,40.5 603.2,40.5 " fill="none" id="ExecuteRequirementEvaluationController-to-ExecuteListOfApplicationsService" style="stroke:#181818;stroke-width:1.0;"/><polygon fill="#181818" points="609.2,40.5,600.2,36.5,604.2,40.5,600.2,44.5,609.2,40.5" style="stroke:#181818;stroke-width:1.0;"/></g><!--link ExecuteListOfApplicationsService to JobApplicationRepository--><g id="link_ExecuteListOfApplicationsService_JobApplicationRepository"><path codeLine="28" d="M677.52,74.11 C636.66,92.12 590.9701,112.2596 547.2601,131.5296 " fill="none" id="ExecuteListOfApplicationsService-to-JobApplicationRepository" style="stroke:#181818;stroke-width:1.0;"/><polygon fill="#181818" points="541.77,133.95,551.6188,133.9795,546.3451,131.933,548.3916,126.6593,541.77,133.95" style="stroke:#181818;stroke-width:1.0;"/></g><!--link ExecuteListOfApplicationsService to JobOpening--><g id="link_ExecuteListOfApplicationsService_JobOpening"><path codeLine="29" d="M749.05,74.28 C747.25,98.45 745.287,124.7667 743.677,146.3167 " fill="none" id="ExecuteListOfApplicationsService-to-JobOpening" style="stroke:#181818;stroke-width:1.0;"/><polygon fill="#181818" points="743.23,152.3,747.8894,143.623,743.6025,147.3139,739.9116,143.027,743.23,152.3" style="stroke:#181818;stroke-width:1.0;"/></g><!--link ExecuteListOfApplicationsService to JobApplication--><g id="link_ExecuteListOfApplicationsService_JobApplication"><path codeLine="30" d="M797.73,74.28 C827.13,95.12 860.1559,118.529 889.5259,139.359 " fill="none" id="ExecuteListOfApplicationsService-to-JobApplication" style="stroke:#181818;stroke-width:1.0;"/><polygon fill="#181818" points="894.42,142.83,889.3929,134.3608,890.3416,139.9375,884.7649,140.8862,894.42,142.83" style="stroke:#181818;stroke-width:1.0;"/></g><!--link JobOpening to JobRequirementSpecification--><g id="link_JobOpening_JobRequirementSpecification"><path codeLine="31" d="M737.72,200.54 C734.17,222.16 729.7914,248.8091 725.8114,273.0691 " fill="none" id="JobOpening-to-JobRequirementSpecification" style="stroke:#181818;stroke-width:1.0;"/><polygon fill="#181818" points="724.84,278.99,730.2443,270.7563,725.6495,274.056,722.3498,269.4612,724.84,278.99" style="stroke:#181818;stroke-width:1.0;"/></g><!--link JobApplication to RequirementAnswer--><g id="link_JobApplication_RequirementAnswer"><path codeLine="32" d="M945.64,210.28 C948.89,231.05 952.1633,251.872 955.4133,272.662 " fill="none" id="JobApplication-to-RequirementAnswer" style="stroke:#181818;stroke-width:1.0;"/><polygon fill="#181818" points="956.34,278.59,958.902,269.0802,955.5678,273.65,950.998,270.3158,956.34,278.59" style="stroke:#181818;stroke-width:1.0;"/></g><!--SRC=[dLAzJiCm4Dxz5Db8XzATeL90HG8XLMg4c8rpQGyvjZcV0nNYtJ59eoOjRIEyMBQ_l_FTrORP-PlPp6bfE5JwMjbgfhJqVbgWN9EiX6YEoU8JL61OmNj0WWeCBsgfWsIqvlbX1EZE6YQhDL3o9PAuleUa9_IyB3FdDAg6u7EW6XMqQ6Y5_e2bR_QrVvxirD4mK2aL98y3m0gSzSYMjgroYQQutKRCqe51iyvCyOAywHMH6Vy1zEkpWxGMNjPmO3uPLBRNt5_qmArz0J50_38VDAVKR1FHK-Zbo1qeB0VixbiYyo3kCCfHDIqTZGkSCu6ibXGps40Axb53sj65ED_vP3eVsNOnSZgcKV5KnqPhp2-EbRW461Na8hiRW7-uYJszUpqr36B8RE17BHS_]--></g></svg>