<?xml version="1.0" encoding="us-ascii" standalone="no"?><svg xmlns="http://www.w3.org/2000/svg" xmlns:xlink="http://www.w3.org/1999/xlink" contentStyleType="text/css" height="447px" preserveAspectRatio="none" style="width:420px;height:447px;background:#FFFFFF;" version="1.1" viewBox="0 0 420 447" width="420px" zoomAndPan="magnify"><defs/><g><rect fill="#FFFFFF" height="261.9102" style="stroke:#181818;stroke-width:1.0;" width="10" x="76.5" y="93.6211"/><rect fill="#FFFFFF" height="220.3281" style="stroke:#181818;stroke-width:1.0;" width="10" x="346.5" y="134.2031"/><rect fill="none" height="101.1641" style="stroke:#000000;stroke-width:1.5;" width="403" x="10" y="246.3672"/><line style="stroke:#181818;stroke-width:0.5;stroke-dasharray:5.0,5.0;" x1="81" x2="81" y1="83.6211" y2="364.5313"/><line style="stroke:#181818;stroke-width:0.5;stroke-dasharray:5.0,5.0;" x1="351.5" x2="351.5" y1="83.6211" y2="364.5313"/><text fill="#000000" font-family="sans-serif" font-size="14" lengthAdjust="spacing" textLength="117" x="20" y="80.1074">CustomerManager</text><ellipse cx="81.5" cy="13.5" fill="#E2E2F0" rx="8" ry="8" style="stroke:#181818;stroke-width:0.5;"/><path d="M81.5,21.5 L81.5,48.5 M68.5,29.5 L94.5,29.5 M81.5,48.5 L68.5,63.5 M81.5,48.5 L94.5,63.5 " fill="none" style="stroke:#181818;stroke-width:0.5;"/><text fill="#000000" font-family="sans-serif" font-size="14" lengthAdjust="spacing" textLength="117" x="20" y="378.6387">CustomerManager</text><ellipse cx="81.5" cy="390.6523" fill="#E2E2F0" rx="8" ry="8" style="stroke:#181818;stroke-width:0.5;"/><path d="M81.5,398.6523 L81.5,425.6523 M68.5,406.6523 L94.5,406.6523 M81.5,425.6523 L68.5,440.6523 M81.5,425.6523 L94.5,440.6523 " fill="none" style="stroke:#181818;stroke-width:0.5;"/><rect fill="#E2E2F0" height="32.6211" rx="2.5" ry="2.5" style="stroke:#181818;stroke-width:0.5;" width="60" x="321.5" y="50"/><text fill="#000000" font-family="sans-serif" font-size="14" lengthAdjust="spacing" textLength="46" x="328.5" y="72.1074">System</text><rect fill="#E2E2F0" height="32.6211" rx="2.5" ry="2.5" style="stroke:#181818;stroke-width:0.5;" width="60" x="321.5" y="363.5313"/><text fill="#000000" font-family="sans-serif" font-size="14" lengthAdjust="spacing" textLength="46" x="328.5" y="385.6387">System</text><rect fill="#FFFFFF" height="261.9102" style="stroke:#181818;stroke-width:1.0;" width="10" x="76.5" y="93.6211"/><rect fill="#FFFFFF" height="220.3281" style="stroke:#181818;stroke-width:1.0;" width="10" x="346.5" y="134.2031"/><polygon fill="#181818" points="334.5,130.2031,344.5,134.2031,334.5,138.2031,338.5,134.2031" style="stroke:#181818;stroke-width:1.0;"/><line style="stroke:#181818;stroke-width:1.0;" x1="86.5" x2="340.5" y1="134.2031" y2="134.2031"/><text fill="#000000" font-family="sans-serif" font-size="13" font-weight="bold" lengthAdjust="spacing" textLength="7" x="93.5" y="120.2949">1</text><text fill="#000000" font-family="sans-serif" font-size="13" lengthAdjust="spacing" textLength="165" x="104.5" y="111.6494">asks to get an ordered list of</text><text fill="#000000" font-family="sans-serif" font-size="13" lengthAdjust="spacing" textLength="208" x="104.5" y="128.9404">candidates based in interview points</text><polygon fill="#181818" points="97.5,196.0762,87.5,200.0762,97.5,204.0762,93.5,200.0762" style="stroke:#181818;stroke-width:1.0;"/><line style="stroke:#181818;stroke-width:1.0;stroke-dasharray:2.0,2.0;" x1="91.5" x2="345.5" y1="200.0762" y2="200.0762"/><text fill="#000000" font-family="sans-serif" font-size="13" font-weight="bold" lengthAdjust="spacing" textLength="7" x="103.5" y="177.5225">2</text><text fill="#000000" font-family="sans-serif" font-size="13" lengthAdjust="spacing" textLength="163" x="114.5" y="160.2314">shows list of job openings in</text><text fill="#000000" font-family="sans-serif" font-size="13" lengthAdjust="spacing" textLength="155" x="114.5" y="177.5225">analysis phase and had an</text><text fill="#000000" font-family="sans-serif" font-size="13" lengthAdjust="spacing" textLength="199" x="114.5" y="194.8135">interview phase and asks to select</text><polygon fill="#181818" points="334.5,227.3672,344.5,231.3672,334.5,235.3672,338.5,231.3672" style="stroke:#181818;stroke-width:1.0;"/><line style="stroke:#181818;stroke-width:1.0;" x1="86.5" x2="340.5" y1="231.3672" y2="231.3672"/><text fill="#000000" font-family="sans-serif" font-size="13" font-weight="bold" lengthAdjust="spacing" textLength="7" x="93.5" y="226.1045">3</text><text fill="#000000" font-family="sans-serif" font-size="13" lengthAdjust="spacing" textLength="123" x="104.5" y="226.1045">selects a job opening</text><path d="M10,246.3672 L71,246.3672 L71,255.6582 L61,265.6582 L10,265.6582 L10,246.3672 " fill="#EEEEEE" style="stroke:#000000;stroke-width:1.5;"/><rect fill="none" height="101.1641" style="stroke:#000000;stroke-width:1.5;" width="403" x="10" y="246.3672"/><text fill="#000000" font-family="sans-serif" font-size="13" font-weight="bold" lengthAdjust="spacing" textLength="16" x="25" y="261.3955">alt</text><text fill="#000000" font-family="sans-serif" font-size="11" font-weight="bold" lengthAdjust="spacing" textLength="322" x="86" y="260.2373">[job opening is in analysis phase and had interivew phase]</text><polygon fill="#181818" points="97.5,302.2402,87.5,306.2402,97.5,310.2402,93.5,306.2402" style="stroke:#181818;stroke-width:1.0;"/><line style="stroke:#181818;stroke-width:1.0;stroke-dasharray:2.0,2.0;" x1="91.5" x2="345.5" y1="306.2402" y2="306.2402"/><text fill="#000000" font-family="sans-serif" font-size="13" font-weight="bold" lengthAdjust="spacing" textLength="7" x="103.5" y="292.332">4</text><text fill="#000000" font-family="sans-serif" font-size="13" lengthAdjust="spacing" textLength="225" x="114.5" y="283.6865">shows ordered list of candidates based</text><text fill="#000000" font-family="sans-serif" font-size="13" lengthAdjust="spacing" textLength="217" x="114.5" y="300.9775">in interview points and backs to menu</text><line style="stroke:#000000;stroke-width:1.0;stroke-dasharray:2.0,2.0;" x1="10" x2="413" y1="315.2402" y2="315.2402"/><polygon fill="#181818" points="97.5,335.5313,87.5,339.5313,97.5,343.5313,93.5,339.5313" style="stroke:#181818;stroke-width:1.0;"/><line style="stroke:#181818;stroke-width:1.0;stroke-dasharray:2.0,2.0;" x1="91.5" x2="345.5" y1="339.5313" y2="339.5313"/><text fill="#000000" font-family="sans-serif" font-size="13" font-weight="bold" lengthAdjust="spacing" textLength="7" x="103.5" y="334.2686">5</text><text fill="#000000" font-family="sans-serif" font-size="13" lengthAdjust="spacing" textLength="108" x="114.5" y="334.2686">shows a exception</text><!--SRC=[ZP6nKiCm38RtF8Ksfj2z0mip4siNnHQ9m9QDfQJqxN7J1dBfmVNETxOiMT__om-3MTRzRfS3YeqnFBeKTqgV8ucZrZFs1MFJu6X9njXHgMTdgS3pg9OYbHSKxEjrncBiEDSsy7fIepXNyeH6DyMR6DgdwnlO0-g7WYNeoG05Kl5Ko4DWDKXl1t4eddtjgj2XrWnBNKPbOZf2JlMil-Ihb6ltjeAsx3tea8ww0E0zTP0o2Kklvzu7gONXfAoGXmgieZmCwEj-a1Nu9xSOK0hax5-lbn85N5CR3BQEWMSTVwYO5V2qABZ7wMQai9tesTRDI6TWX-xYBPAC3ONxU0ZqvIWR9sdeFA1WZQVj5tq3]--></g></svg>