<?xml version="1.0" encoding="us-ascii" standalone="no"?><svg xmlns="http://www.w3.org/2000/svg" xmlns:xlink="http://www.w3.org/1999/xlink" contentStyleType="text/css" height="1737px" preserveAspectRatio="none" style="width:2691px;height:1737px;background:#FFFFFF;" version="1.1" viewBox="0 0 2691 1737" width="2691px" zoomAndPan="magnify"><defs/><g><rect fill="#FFFFFF" height="1551.2598" style="stroke:#181818;stroke-width:1.0;" width="10" x="61.5" y="93.6211"/><rect fill="#FFFFFF" height="1484.3867" style="stroke:#181818;stroke-width:1.0;" width="10" x="322.5" y="151.4941"/><rect fill="#FFFFFF" height="93.873" style="stroke:#181818;stroke-width:1.0;" width="10" x="589.5" y="182.7852"/><rect fill="#FFFFFF" height="1224.7676" style="stroke:#181818;stroke-width:1.0;" width="10" x="589.5" y="387.8223"/><rect fill="#FFFFFF" height="1116.8945" style="stroke:#181818;stroke-width:1.0;" width="10" x="959.5" y="481.6953"/><rect fill="#FFFFFF" height="640.5293" style="stroke:#181818;stroke-width:1.0;" width="10" x="964.5" y="958.0605"/><rect fill="#FFFFFF" height="269.3281" style="stroke:#181818;stroke-width:1.0;" width="10" x="969.5" y="1028.6426"/><rect fill="#FFFFFF" height="269.3281" style="stroke:#181818;stroke-width:1.0;" width="10" x="969.5" y="1329.2617"/><rect fill="#FFFFFF" height="31.291" style="stroke:#181818;stroke-width:1.0;" width="10" x="1372.5" y="214.0762"/><rect fill="#FFFFFF" height="31.291" style="stroke:#181818;stroke-width:1.0;" width="10" x="1548" y="419.1133"/><rect fill="#FFFFFF" height="93.873" style="stroke:#181818;stroke-width:1.0;" width="10" x="1689.5" y="717.0234"/><rect fill="#FFFFFF" height="31.291" style="stroke:#181818;stroke-width:1.0;" width="10" x="1883.5" y="748.3145"/><rect fill="#FFFFFF" height="93.873" style="stroke:#181818;stroke-width:1.0;" width="10" x="2367.5" y="591.8594"/><rect fill="#FFFFFF" height="31.291" style="stroke:#181818;stroke-width:1.0;" width="10" x="2367.5" y="842.1875"/><rect fill="#FFFFFF" height="191.7461" style="stroke:#181818;stroke-width:1.0;" width="10" x="2367.5" y="1091.2246"/><rect fill="#FFFFFF" height="191.7461" style="stroke:#181818;stroke-width:1.0;" width="10" x="2367.5" y="1391.8438"/><rect fill="#FFFFFF" height="31.291" style="stroke:#181818;stroke-width:1.0;" width="10" x="2612.5" y="623.1504"/><rect fill="none" height="1108.8945" style="stroke:#000000;stroke-width:1.5;" width="1867" x="818.5" y="496.6953"/><rect fill="none" height="396.7832" style="stroke:#000000;stroke-width:1.5;" width="1847" x="828.5" y="522.9863"/><rect fill="none" height="363.4922" style="stroke:#000000;stroke-width:1.5;" width="1827" x="838.5" y="549.2773"/><rect fill="none" height="620.5293" style="stroke:#000000;stroke-width:1.5;" width="1616.5" x="828.5" y="978.0605"/><rect fill="none" height="50.582" style="stroke:#000000;stroke-width:1.5;" width="1596.5" x="838.5" y="1048.6426"/><rect fill="none" height="177.7461" style="stroke:#000000;stroke-width:1.5;" width="1596.5" x="838.5" y="1113.2246"/><rect fill="none" height="50.582" style="stroke:#000000;stroke-width:1.5;" width="1596.5" x="838.5" y="1349.2617"/><rect fill="none" height="177.7461" style="stroke:#000000;stroke-width:1.5;" width="1596.5" x="838.5" y="1413.8438"/><line style="stroke:#181818;stroke-width:0.5;stroke-dasharray:5.0,5.0;" x1="66" x2="66" y1="83.6211" y2="1653.8809"/><line style="stroke:#181818;stroke-width:0.5;stroke-dasharray:5.0,5.0;" x1="327" x2="327" y1="83.6211" y2="1653.8809"/><line style="stroke:#181818;stroke-width:0.5;stroke-dasharray:5.0,5.0;" x1="594" x2="594" y1="83.6211" y2="1653.8809"/><line style="stroke:#181818;stroke-width:0.5;stroke-dasharray:5.0,5.0;" x1="964.5" x2="964.5" y1="83.6211" y2="1653.8809"/><line style="stroke:#181818;stroke-width:0.5;stroke-dasharray:5.0,5.0;" x1="1377.5" x2="1377.5" y1="83.6211" y2="1653.8809"/><line style="stroke:#181818;stroke-width:0.5;stroke-dasharray:5.0,5.0;" x1="1552.5" x2="1552.5" y1="83.6211" y2="1653.8809"/><line style="stroke:#181818;stroke-width:0.5;stroke-dasharray:5.0,5.0;" x1="1694.5" x2="1694.5" y1="83.6211" y2="1653.8809"/><line style="stroke:#181818;stroke-width:0.5;stroke-dasharray:5.0,5.0;" x1="1888" x2="1888" y1="83.6211" y2="1653.8809"/><line style="stroke:#181818;stroke-width:0.5;stroke-dasharray:5.0,5.0;" x1="2065" x2="2065" y1="83.6211" y2="1653.8809"/><line style="stroke:#181818;stroke-width:0.5;stroke-dasharray:5.0,5.0;" x1="2272" x2="2272" y1="83.6211" y2="1653.8809"/><line style="stroke:#181818;stroke-width:0.5;stroke-dasharray:5.0,5.0;" x1="2372" x2="2372" y1="83.6211" y2="1653.8809"/><line style="stroke:#181818;stroke-width:0.5;stroke-dasharray:5.0,5.0;" x1="2617.5" x2="2617.5" y1="83.6211" y2="1653.8809"/><text fill="#000000" font-family="sans-serif" font-size="14" lengthAdjust="spacing" textLength="117" x="5" y="80.1074">CustomerManager</text><ellipse cx="66.5" cy="13.5" fill="#E2E2F0" rx="8" ry="8" style="stroke:#181818;stroke-width:0.5;"/><path d="M66.5,21.5 L66.5,48.5 M53.5,29.5 L79.5,29.5 M66.5,48.5 L53.5,63.5 M66.5,48.5 L79.5,63.5 " fill="none" style="stroke:#181818;stroke-width:0.5;"/><text fill="#000000" font-family="sans-serif" font-size="14" lengthAdjust="spacing" textLength="117" x="5" y="1667.9883">CustomerManager</text><ellipse cx="66.5" cy="1680.002" fill="#E2E2F0" rx="8" ry="8" style="stroke:#181818;stroke-width:0.5;"/><path d="M66.5,1688.002 L66.5,1715.002 M53.5,1696.002 L79.5,1696.002 M66.5,1715.002 L53.5,1730.002 M66.5,1715.002 L79.5,1730.002 " fill="none" style="stroke:#181818;stroke-width:0.5;"/><rect fill="#E2E2F0" height="51.2422" rx="2.5" ry="2.5" style="stroke:#181818;stroke-width:0.5;" width="197" x="229" y="31.3789"/><text fill="#000000" font-family="sans-serif" font-size="14" font-style="italic" lengthAdjust="spacing" textLength="95" x="280" y="53.4863">&#171;presentation&#187;</text><text fill="#000000" font-family="sans-serif" font-size="14" lengthAdjust="spacing" textLength="183" x="236" y="72.1074">ExecuteInterviewEvaluationUI</text><rect fill="#E2E2F0" height="51.2422" rx="2.5" ry="2.5" style="stroke:#181818;stroke-width:0.5;" width="197" x="229" y="1652.8809"/><text fill="#000000" font-family="sans-serif" font-size="14" font-style="italic" lengthAdjust="spacing" textLength="95" x="280" y="1674.9883">&#171;presentation&#187;</text><text fill="#000000" font-family="sans-serif" font-size="14" lengthAdjust="spacing" textLength="183" x="236" y="1693.6094">ExecuteInterviewEvaluationUI</text><rect fill="#E2E2F0" height="51.2422" rx="2.5" ry="2.5" style="stroke:#181818;stroke-width:0.5;" width="247" x="471" y="31.3789"/><text fill="#000000" font-family="sans-serif" font-size="14" font-style="italic" lengthAdjust="spacing" textLength="84" x="552.5" y="53.4863">&#171;application&#187;</text><text fill="#000000" font-family="sans-serif" font-size="14" lengthAdjust="spacing" textLength="233" x="478" y="72.1074">ExecuteInterviewEvaluationController</text><rect fill="#E2E2F0" height="51.2422" rx="2.5" ry="2.5" style="stroke:#181818;stroke-width:0.5;" width="247" x="471" y="1652.8809"/><text fill="#000000" font-family="sans-serif" font-size="14" font-style="italic" lengthAdjust="spacing" textLength="84" x="552.5" y="1674.9883">&#171;application&#187;</text><text fill="#000000" font-family="sans-serif" font-size="14" lengthAdjust="spacing" textLength="233" x="478" y="1693.6094">ExecuteInterviewEvaluationController</text><rect fill="#E2E2F0" height="51.2422" rx="2.5" ry="2.5" style="stroke:#181818;stroke-width:0.5;" width="232" x="848.5" y="31.3789"/><text fill="#000000" font-family="sans-serif" font-size="14" font-style="italic" lengthAdjust="spacing" textLength="60" x="934.5" y="53.4863">&#171;service&#187;</text><text fill="#000000" font-family="sans-serif" font-size="14" lengthAdjust="spacing" textLength="218" x="855.5" y="72.1074">ExecuteInterviewEvaluationService</text><rect fill="#E2E2F0" height="51.2422" rx="2.5" ry="2.5" style="stroke:#181818;stroke-width:0.5;" width="232" x="848.5" y="1652.8809"/><text fill="#000000" font-family="sans-serif" font-size="14" font-style="italic" lengthAdjust="spacing" textLength="60" x="934.5" y="1674.9883">&#171;service&#187;</text><text fill="#000000" font-family="sans-serif" font-size="14" lengthAdjust="spacing" textLength="218" x="855.5" y="1693.6094">ExecuteInterviewEvaluationService</text><rect fill="#E2E2F0" height="51.2422" rx="2.5" ry="2.5" style="stroke:#181818;stroke-width:0.5;" width="158" x="1298.5" y="31.3789"/><text fill="#000000" font-family="sans-serif" font-size="14" font-style="italic" lengthAdjust="spacing" textLength="79" x="1338" y="53.4863">&#171;repository&#187;</text><text fill="#000000" font-family="sans-serif" font-size="14" lengthAdjust="spacing" textLength="144" x="1305.5" y="72.1074">JobOpeningRepository</text><rect fill="#E2E2F0" height="51.2422" rx="2.5" ry="2.5" style="stroke:#181818;stroke-width:0.5;" width="158" x="1298.5" y="1652.8809"/><text fill="#000000" font-family="sans-serif" font-size="14" font-style="italic" lengthAdjust="spacing" textLength="79" x="1338" y="1674.9883">&#171;repository&#187;</text><text fill="#000000" font-family="sans-serif" font-size="14" lengthAdjust="spacing" textLength="144" x="1305.5" y="1693.6094">JobOpeningRepository</text><rect fill="#E2E2F0" height="51.2422" rx="2.5" ry="2.5" style="stroke:#181818;stroke-width:0.5;" width="173" x="1466.5" y="31.3789"/><text fill="#000000" font-family="sans-serif" font-size="14" font-style="italic" lengthAdjust="spacing" textLength="79" x="1513.5" y="53.4863">&#171;repository&#187;</text><text fill="#000000" font-family="sans-serif" font-size="14" lengthAdjust="spacing" textLength="159" x="1473.5" y="72.1074">JobApplicationRepository</text><rect fill="#E2E2F0" height="51.2422" rx="2.5" ry="2.5" style="stroke:#181818;stroke-width:0.5;" width="173" x="1466.5" y="1652.8809"/><text fill="#000000" font-family="sans-serif" font-size="14" font-style="italic" lengthAdjust="spacing" textLength="79" x="1513.5" y="1674.9883">&#171;repository&#187;</text><text fill="#000000" font-family="sans-serif" font-size="14" lengthAdjust="spacing" textLength="159" x="1473.5" y="1693.6094">JobApplicationRepository</text><rect fill="#E2E2F0" height="51.2422" rx="2.5" ry="2.5" style="stroke:#181818;stroke-width:0.5;" width="90" x="1649.5" y="31.3789"/><text fill="#000000" font-family="sans-serif" font-size="14" font-style="italic" lengthAdjust="spacing" textLength="62" x="1663.5" y="53.4863">&#171;domain&#187;</text><text fill="#000000" font-family="sans-serif" font-size="14" lengthAdjust="spacing" textLength="76" x="1656.5" y="72.1074">JobOpening</text><rect fill="#E2E2F0" height="51.2422" rx="2.5" ry="2.5" style="stroke:#181818;stroke-width:0.5;" width="90" x="1649.5" y="1652.8809"/><text fill="#000000" font-family="sans-serif" font-size="14" font-style="italic" lengthAdjust="spacing" textLength="62" x="1663.5" y="1674.9883">&#171;domain&#187;</text><text fill="#000000" font-family="sans-serif" font-size="14" lengthAdjust="spacing" textLength="76" x="1656.5" y="1693.6094">JobOpening</text><rect fill="#E2E2F0" height="51.2422" rx="2.5" ry="2.5" style="stroke:#181818;stroke-width:0.5;" width="187" x="1795" y="31.3789"/><text fill="#000000" font-family="sans-serif" font-size="14" font-style="italic" lengthAdjust="spacing" textLength="62" x="1857.5" y="53.4863">&#171;domain&#187;</text><text fill="#000000" font-family="sans-serif" font-size="14" lengthAdjust="spacing" textLength="173" x="1802" y="72.1074">InterviewModelSpecification</text><rect fill="#E2E2F0" height="51.2422" rx="2.5" ry="2.5" style="stroke:#181818;stroke-width:0.5;" width="187" x="1795" y="1652.8809"/><text fill="#000000" font-family="sans-serif" font-size="14" font-style="italic" lengthAdjust="spacing" textLength="62" x="1857.5" y="1674.9883">&#171;domain&#187;</text><text fill="#000000" font-family="sans-serif" font-size="14" lengthAdjust="spacing" textLength="173" x="1802" y="1693.6094">InterviewModelSpecification</text><rect fill="#E2E2F0" height="51.2422" rx="2.5" ry="2.5" style="stroke:#181818;stroke-width:0.5;" width="146" x="1992" y="31.3789"/><text fill="#000000" font-family="sans-serif" font-size="14" font-style="italic" lengthAdjust="spacing" textLength="62" x="2034" y="53.4863">&#171;domain&#187;</text><text fill="#000000" font-family="sans-serif" font-size="14" lengthAdjust="spacing" textLength="132" x="1999" y="72.1074">RequirementProcess</text><rect fill="#E2E2F0" height="51.2422" rx="2.5" ry="2.5" style="stroke:#181818;stroke-width:0.5;" width="146" x="1992" y="1652.8809"/><text fill="#000000" font-family="sans-serif" font-size="14" font-style="italic" lengthAdjust="spacing" textLength="62" x="2034" y="1674.9883">&#171;domain&#187;</text><text fill="#000000" font-family="sans-serif" font-size="14" lengthAdjust="spacing" textLength="132" x="1999" y="1693.6094">RequirementProcess</text><rect fill="#E2E2F0" height="51.2422" rx="2.5" ry="2.5" style="stroke:#181818;stroke-width:0.5;" width="76" x="2234" y="31.3789"/><text fill="#000000" font-family="sans-serif" font-size="14" font-style="italic" lengthAdjust="spacing" textLength="62" x="2241" y="53.4863">&#171;domain&#187;</text><text fill="#000000" font-family="sans-serif" font-size="14" lengthAdjust="spacing" textLength="40" x="2252" y="72.1074">Phase</text><rect fill="#E2E2F0" height="51.2422" rx="2.5" ry="2.5" style="stroke:#181818;stroke-width:0.5;" width="76" x="2234" y="1652.8809"/><text fill="#000000" font-family="sans-serif" font-size="14" font-style="italic" lengthAdjust="spacing" textLength="62" x="2241" y="1674.9883">&#171;domain&#187;</text><text fill="#000000" font-family="sans-serif" font-size="14" lengthAdjust="spacing" textLength="40" x="2252" y="1693.6094">Phase</text><rect fill="#E2E2F0" height="51.2422" rx="2.5" ry="2.5" style="stroke:#181818;stroke-width:0.5;" width="105" x="2320" y="31.3789"/><text fill="#000000" font-family="sans-serif" font-size="14" font-style="italic" lengthAdjust="spacing" textLength="62" x="2341.5" y="53.4863">&#171;domain&#187;</text><text fill="#000000" font-family="sans-serif" font-size="14" lengthAdjust="spacing" textLength="91" x="2327" y="72.1074">JobApplication</text><rect fill="#E2E2F0" height="51.2422" rx="2.5" ry="2.5" style="stroke:#181818;stroke-width:0.5;" width="105" x="2320" y="1652.8809"/><text fill="#000000" font-family="sans-serif" font-size="14" font-style="italic" lengthAdjust="spacing" textLength="62" x="2341.5" y="1674.9883">&#171;domain&#187;</text><text fill="#000000" font-family="sans-serif" font-size="14" lengthAdjust="spacing" textLength="91" x="2327" y="1693.6094">JobApplication</text><rect fill="#E2E2F0" height="51.2422" rx="2.5" ry="2.5" style="stroke:#181818;stroke-width:0.5;" width="76" x="2579.5" y="31.3789"/><text fill="#000000" font-family="sans-serif" font-size="14" font-style="italic" lengthAdjust="spacing" textLength="62" x="2586.5" y="53.4863">&#171;domain&#187;</text><text fill="#000000" font-family="sans-serif" font-size="14" lengthAdjust="spacing" textLength="55" x="2590" y="72.1074">Interview</text><rect fill="#E2E2F0" height="51.2422" rx="2.5" ry="2.5" style="stroke:#181818;stroke-width:0.5;" width="76" x="2579.5" y="1652.8809"/><text fill="#000000" font-family="sans-serif" font-size="14" font-style="italic" lengthAdjust="spacing" textLength="62" x="2586.5" y="1674.9883">&#171;domain&#187;</text><text fill="#000000" font-family="sans-serif" font-size="14" lengthAdjust="spacing" textLength="55" x="2590" y="1693.6094">Interview</text><rect fill="#FFFFFF" height="1551.2598" style="stroke:#181818;stroke-width:1.0;" width="10" x="61.5" y="93.6211"/><rect fill="#FFFFFF" height="1484.3867" style="stroke:#181818;stroke-width:1.0;" width="10" x="322.5" y="151.4941"/><rect fill="#FFFFFF" height="93.873" style="stroke:#181818;stroke-width:1.0;" width="10" x="589.5" y="182.7852"/><rect fill="#FFFFFF" height="1224.7676" style="stroke:#181818;stroke-width:1.0;" width="10" x="589.5" y="387.8223"/><rect fill="#FFFFFF" height="1116.8945" style="stroke:#181818;stroke-width:1.0;" width="10" x="959.5" y="481.6953"/><rect fill="#FFFFFF" height="640.5293" style="stroke:#181818;stroke-width:1.0;" width="10" x="964.5" y="958.0605"/><rect fill="#FFFFFF" height="269.3281" style="stroke:#181818;stroke-width:1.0;" width="10" x="969.5" y="1028.6426"/><rect fill="#FFFFFF" height="269.3281" style="stroke:#181818;stroke-width:1.0;" width="10" x="969.5" y="1329.2617"/><rect fill="#FFFFFF" height="31.291" style="stroke:#181818;stroke-width:1.0;" width="10" x="1372.5" y="214.0762"/><rect fill="#FFFFFF" height="31.291" style="stroke:#181818;stroke-width:1.0;" width="10" x="1548" y="419.1133"/><rect fill="#FFFFFF" height="93.873" style="stroke:#181818;stroke-width:1.0;" width="10" x="1689.5" y="717.0234"/><rect fill="#FFFFFF" height="31.291" style="stroke:#181818;stroke-width:1.0;" width="10" x="1883.5" y="748.3145"/><rect fill="#FFFFFF" height="93.873" style="stroke:#181818;stroke-width:1.0;" width="10" x="2367.5" y="591.8594"/><rect fill="#FFFFFF" height="31.291" style="stroke:#181818;stroke-width:1.0;" width="10" x="2367.5" y="842.1875"/><rect fill="#FFFFFF" height="191.7461" style="stroke:#181818;stroke-width:1.0;" width="10" x="2367.5" y="1091.2246"/><rect fill="#FFFFFF" height="191.7461" style="stroke:#181818;stroke-width:1.0;" width="10" x="2367.5" y="1391.8438"/><rect fill="#FFFFFF" height="31.291" style="stroke:#181818;stroke-width:1.0;" width="10" x="2612.5" y="623.1504"/><polygon fill="#181818" points="310.5,147.4941,320.5,151.4941,310.5,155.4941,314.5,151.4941" style="stroke:#181818;stroke-width:1.0;"/><line style="stroke:#181818;stroke-width:1.0;" x1="71.5" x2="316.5" y1="151.4941" y2="151.4941"/><text fill="#000000" font-family="sans-serif" font-size="13" font-weight="bold" lengthAdjust="spacing" textLength="7" x="78.5" y="128.9404">1</text><text fill="#000000" font-family="sans-serif" font-size="13" lengthAdjust="spacing" textLength="115" x="89.5" y="111.6494">asks to execute the</text><text fill="#000000" font-family="sans-serif" font-size="13" lengthAdjust="spacing" textLength="128" x="93.5" y="128.9404">process of evaluations</text><text fill="#000000" font-family="sans-serif" font-size="13" lengthAdjust="spacing" textLength="169" x="89.5" y="146.2314">of interviews for a job opening</text><polygon fill="#181818" points="577.5,178.7852,587.5,182.7852,577.5,186.7852,581.5,182.7852" style="stroke:#181818;stroke-width:1.0;"/><line style="stroke:#181818;stroke-width:1.0;" x1="332.5" x2="583.5" y1="182.7852" y2="182.7852"/><text fill="#000000" font-family="sans-serif" font-size="13" font-weight="bold" lengthAdjust="spacing" textLength="7" x="339.5" y="177.5225">2</text><text fill="#000000" font-family="sans-serif" font-size="13" lengthAdjust="spacing" textLength="176" x="350.5" y="177.5225">jobOpeningsInInterviewPhase()</text><polygon fill="#181818" points="1360.5,210.0762,1370.5,214.0762,1360.5,218.0762,1364.5,214.0762" style="stroke:#181818;stroke-width:1.0;"/><line style="stroke:#181818;stroke-width:1.0;" x1="599.5" x2="1366.5" y1="214.0762" y2="214.0762"/><text fill="#000000" font-family="sans-serif" font-size="13" font-weight="bold" lengthAdjust="spacing" textLength="7" x="606.5" y="208.8135">3</text><text fill="#000000" font-family="sans-serif" font-size="13" lengthAdjust="spacing" textLength="124" x="617.5" y="208.8135">findInInterviewPhase()</text><polygon fill="#181818" points="610.5,241.3672,600.5,245.3672,610.5,249.3672,606.5,245.3672" style="stroke:#181818;stroke-width:1.0;"/><line style="stroke:#181818;stroke-width:1.0;stroke-dasharray:2.0,2.0;" x1="604.5" x2="1376.5" y1="245.3672" y2="245.3672"/><text fill="#000000" font-family="sans-serif" font-size="13" font-weight="bold" lengthAdjust="spacing" textLength="7" x="616.5" y="240.1045">4</text><text fill="#000000" font-family="sans-serif" font-size="13" lengthAdjust="spacing" textLength="72" x="627.5" y="240.1045">jobOpenings</text><polygon fill="#181818" points="343.5,272.6582,333.5,276.6582,343.5,280.6582,339.5,276.6582" style="stroke:#181818;stroke-width:1.0;"/><line style="stroke:#181818;stroke-width:1.0;stroke-dasharray:2.0,2.0;" x1="337.5" x2="593.5" y1="276.6582" y2="276.6582"/><text fill="#000000" font-family="sans-serif" font-size="13" font-weight="bold" lengthAdjust="spacing" textLength="7" x="349.5" y="271.3955">5</text><text fill="#000000" font-family="sans-serif" font-size="13" lengthAdjust="spacing" textLength="72" x="360.5" y="271.3955">jobOpenings</text><polygon fill="#181818" points="82.5,321.2402,72.5,325.2402,82.5,329.2402,78.5,325.2402" style="stroke:#181818;stroke-width:1.0;"/><line style="stroke:#181818;stroke-width:1.0;stroke-dasharray:2.0,2.0;" x1="76.5" x2="321.5" y1="325.2402" y2="325.2402"/><text fill="#000000" font-family="sans-serif" font-size="13" font-weight="bold" lengthAdjust="spacing" textLength="7" x="88.5" y="311.332">6</text><text fill="#000000" font-family="sans-serif" font-size="13" lengthAdjust="spacing" textLength="216" x="99.5" y="302.6865">shows list of job openings in interview</text><text fill="#000000" font-family="sans-serif" font-size="13" lengthAdjust="spacing" textLength="171" x="99.5" y="319.9775">phase and asks to select one</text><polygon fill="#181818" points="310.5,352.5313,320.5,356.5313,310.5,360.5313,314.5,356.5313" style="stroke:#181818;stroke-width:1.0;"/><line style="stroke:#181818;stroke-width:1.0;" x1="71.5" x2="316.5" y1="356.5313" y2="356.5313"/><text fill="#000000" font-family="sans-serif" font-size="13" font-weight="bold" lengthAdjust="spacing" textLength="7" x="78.5" y="351.2686">7</text><text fill="#000000" font-family="sans-serif" font-size="13" lengthAdjust="spacing" textLength="140" x="89.5" y="351.2686">selects one job Opening</text><polygon fill="#181818" points="577.5,383.8223,587.5,387.8223,577.5,391.8223,581.5,387.8223" style="stroke:#181818;stroke-width:1.0;"/><line style="stroke:#181818;stroke-width:1.0;" x1="332.5" x2="583.5" y1="387.8223" y2="387.8223"/><text fill="#000000" font-family="sans-serif" font-size="13" font-weight="bold" lengthAdjust="spacing" textLength="7" x="339.5" y="382.5596">8</text><text fill="#000000" font-family="sans-serif" font-size="13" lengthAdjust="spacing" textLength="227" x="350.5" y="382.5596">executeInterviewEvaluation(jobOpening)</text><polygon fill="#181818" points="1536,415.1133,1546,419.1133,1536,423.1133,1540,419.1133" style="stroke:#181818;stroke-width:1.0;"/><line style="stroke:#181818;stroke-width:1.0;" x1="599.5" x2="1542" y1="419.1133" y2="419.1133"/><text fill="#000000" font-family="sans-serif" font-size="13" font-weight="bold" lengthAdjust="spacing" textLength="7" x="606.5" y="413.8506">9</text><text fill="#000000" font-family="sans-serif" font-size="13" lengthAdjust="spacing" textLength="638" x="617.5" y="413.8506">findByJobOpeningAndWithInterviewAnswerWithoutInterviewPointsAndRequirementResultAccepted(jobOpening)</text><polygon fill="#181818" points="610.5,446.4043,600.5,450.4043,610.5,454.4043,606.5,450.4043" style="stroke:#181818;stroke-width:1.0;"/><line style="stroke:#181818;stroke-width:1.0;stroke-dasharray:2.0,2.0;" x1="604.5" x2="1552" y1="450.4043" y2="450.4043"/><text fill="#000000" font-family="sans-serif" font-size="13" font-weight="bold" lengthAdjust="spacing" textLength="14" x="616.5" y="445.1416">10</text><text fill="#000000" font-family="sans-serif" font-size="13" lengthAdjust="spacing" textLength="88" x="634.5" y="445.1416">jobApplications</text><polygon fill="#181818" points="947.5,477.6953,957.5,481.6953,947.5,485.6953,951.5,481.6953" style="stroke:#181818;stroke-width:1.0;"/><line style="stroke:#181818;stroke-width:1.0;" x1="599.5" x2="953.5" y1="481.6953" y2="481.6953"/><text fill="#000000" font-family="sans-serif" font-size="13" font-weight="bold" lengthAdjust="spacing" textLength="14" x="606.5" y="476.4326">11</text><text fill="#000000" font-family="sans-serif" font-size="13" lengthAdjust="spacing" textLength="323" x="624.5" y="476.4326">executeInterviewEvaluation(jobOpening, jobApplications)</text><path d="M818.5,496.6953 L879.5,496.6953 L879.5,505.9863 L869.5,515.9863 L818.5,515.9863 L818.5,496.6953 " fill="#EEEEEE" style="stroke:#000000;stroke-width:1.5;"/><rect fill="none" height="1108.8945" style="stroke:#000000;stroke-width:1.5;" width="1867" x="818.5" y="496.6953"/><text fill="#000000" font-family="sans-serif" font-size="13" font-weight="bold" lengthAdjust="spacing" textLength="16" x="833.5" y="511.7236">alt</text><text fill="#000000" font-family="sans-serif" font-size="11" font-weight="bold" lengthAdjust="spacing" textLength="191" x="894.5" y="510.5654">[job opening is in interview phase]</text><path d="M828.5,522.9863 L901.5,522.9863 L901.5,532.2773 L891.5,542.2773 L828.5,542.2773 L828.5,522.9863 " fill="#EEEEEE" style="stroke:#000000;stroke-width:1.5;"/><rect fill="none" height="396.7832" style="stroke:#000000;stroke-width:1.5;" width="1847" x="828.5" y="522.9863"/><text fill="#000000" font-family="sans-serif" font-size="13" font-weight="bold" lengthAdjust="spacing" textLength="28" x="843.5" y="538.0146">loop</text><text fill="#000000" font-family="sans-serif" font-size="11" font-weight="bold" lengthAdjust="spacing" textLength="135" x="916.5" y="536.8564">[for each job application]</text><path d="M838.5,549.2773 L899.5,549.2773 L899.5,558.5684 L889.5,568.5684 L838.5,568.5684 L838.5,549.2773 " fill="#EEEEEE" style="stroke:#000000;stroke-width:1.5;"/><rect fill="none" height="363.4922" style="stroke:#000000;stroke-width:1.5;" width="1827" x="838.5" y="549.2773"/><text fill="#000000" font-family="sans-serif" font-size="13" font-weight="bold" lengthAdjust="spacing" textLength="16" x="853.5" y="564.3057">alt</text><text fill="#000000" font-family="sans-serif" font-size="11" font-weight="bold" lengthAdjust="spacing" textLength="558" x="914.5" y="563.1475">[job application has interview answer, not had interview points and had requirement result accepted]</text><polygon fill="#181818" points="2355.5,587.8594,2365.5,591.8594,2355.5,595.8594,2359.5,591.8594" style="stroke:#181818;stroke-width:1.0;"/><line style="stroke:#181818;stroke-width:1.0;" x1="969.5" x2="2361.5" y1="591.8594" y2="591.8594"/><text fill="#000000" font-family="sans-serif" font-size="13" font-weight="bold" lengthAdjust="spacing" textLength="14" x="976.5" y="586.5967">12</text><text fill="#000000" font-family="sans-serif" font-size="13" lengthAdjust="spacing" textLength="100" x="994.5" y="586.5967">interviewAnswer()</text><polygon fill="#181818" points="2600.5,619.1504,2610.5,623.1504,2600.5,627.1504,2604.5,623.1504" style="stroke:#181818;stroke-width:1.0;"/><line style="stroke:#181818;stroke-width:1.0;" x1="2377.5" x2="2606.5" y1="623.1504" y2="623.1504"/><text fill="#000000" font-family="sans-serif" font-size="13" font-weight="bold" lengthAdjust="spacing" textLength="14" x="2384.5" y="617.8877">13</text><text fill="#000000" font-family="sans-serif" font-size="13" lengthAdjust="spacing" textLength="198" x="2402.5" y="617.8877">inputStreamFromResourceOrFile()</text><polygon fill="#181818" points="2388.5,650.4414,2378.5,654.4414,2388.5,658.4414,2384.5,654.4414" style="stroke:#181818;stroke-width:1.0;"/><line style="stroke:#181818;stroke-width:1.0;stroke-dasharray:2.0,2.0;" x1="2382.5" x2="2616.5" y1="654.4414" y2="654.4414"/><text fill="#000000" font-family="sans-serif" font-size="13" font-weight="bold" lengthAdjust="spacing" textLength="14" x="2394.5" y="649.1787">14</text><text fill="#000000" font-family="sans-serif" font-size="13" lengthAdjust="spacing" textLength="92" x="2412.5" y="649.1787">interviewAnswer</text><polygon fill="#181818" points="980.5,681.7324,970.5,685.7324,980.5,689.7324,976.5,685.7324" style="stroke:#181818;stroke-width:1.0;"/><line style="stroke:#181818;stroke-width:1.0;stroke-dasharray:2.0,2.0;" x1="974.5" x2="2371.5" y1="685.7324" y2="685.7324"/><text fill="#000000" font-family="sans-serif" font-size="13" font-weight="bold" lengthAdjust="spacing" textLength="14" x="986.5" y="680.4697">15</text><text fill="#000000" font-family="sans-serif" font-size="13" lengthAdjust="spacing" textLength="92" x="1004.5" y="680.4697">interviewAnswer</text><polygon fill="#181818" points="1677.5,713.0234,1687.5,717.0234,1677.5,721.0234,1681.5,717.0234" style="stroke:#181818;stroke-width:1.0;"/><line style="stroke:#181818;stroke-width:1.0;" x1="969.5" x2="1683.5" y1="717.0234" y2="717.0234"/><text fill="#000000" font-family="sans-serif" font-size="13" font-weight="bold" lengthAdjust="spacing" textLength="14" x="976.5" y="711.7607">16</text><text fill="#000000" font-family="sans-serif" font-size="13" lengthAdjust="spacing" textLength="196" x="994.5" y="711.7607">evaluateInterview(interviewAnswer)</text><polygon fill="#181818" points="1871.5,744.3145,1881.5,748.3145,1871.5,752.3145,1875.5,748.3145" style="stroke:#181818;stroke-width:1.0;"/><line style="stroke:#181818;stroke-width:1.0;" x1="1699.5" x2="1877.5" y1="748.3145" y2="748.3145"/><text fill="#000000" font-family="sans-serif" font-size="13" font-weight="bold" lengthAdjust="spacing" textLength="14" x="1706.5" y="743.0518">17</text><text fill="#000000" font-family="sans-serif" font-size="13" lengthAdjust="spacing" textLength="147" x="1724.5" y="743.0518">evaluate(interviewAnswer)</text><polygon fill="#181818" points="1710.5,775.6055,1700.5,779.6055,1710.5,783.6055,1706.5,779.6055" style="stroke:#181818;stroke-width:1.0;"/><line style="stroke:#181818;stroke-width:1.0;stroke-dasharray:2.0,2.0;" x1="1704.5" x2="1887.5" y1="779.6055" y2="779.6055"/><text fill="#000000" font-family="sans-serif" font-size="13" font-weight="bold" lengthAdjust="spacing" textLength="14" x="1716.5" y="774.3428">18</text><text fill="#000000" font-family="sans-serif" font-size="13" lengthAdjust="spacing" textLength="86" x="1734.5" y="774.3428">interviewPoints</text><polygon fill="#181818" points="980.5,806.8965,970.5,810.8965,980.5,814.8965,976.5,810.8965" style="stroke:#181818;stroke-width:1.0;"/><line style="stroke:#181818;stroke-width:1.0;stroke-dasharray:2.0,2.0;" x1="974.5" x2="1693.5" y1="810.8965" y2="810.8965"/><text fill="#000000" font-family="sans-serif" font-size="13" font-weight="bold" lengthAdjust="spacing" textLength="14" x="986.5" y="805.6338">19</text><text fill="#000000" font-family="sans-serif" font-size="13" lengthAdjust="spacing" textLength="86" x="1004.5" y="805.6338">interviewPoints</text><polygon fill="#181818" points="2355.5,838.1875,2365.5,842.1875,2355.5,846.1875,2359.5,842.1875" style="stroke:#181818;stroke-width:1.0;"/><line style="stroke:#181818;stroke-width:1.0;" x1="969.5" x2="2361.5" y1="842.1875" y2="842.1875"/><text fill="#000000" font-family="sans-serif" font-size="13" font-weight="bold" lengthAdjust="spacing" textLength="14" x="976.5" y="836.9248">20</text><text fill="#000000" font-family="sans-serif" font-size="13" lengthAdjust="spacing" textLength="175" x="994.5" y="836.9248">gradeInterview(interviewPoints)</text><polygon fill="#181818" points="2605.5,869.4785,2615.5,873.4785,2605.5,877.4785,2609.5,873.4785" style="stroke:#181818;stroke-width:1.0;"/><line style="stroke:#181818;stroke-width:1.0;" x1="2372.5" x2="2611.5" y1="873.4785" y2="873.4785"/><text fill="#000000" font-family="sans-serif" font-size="13" font-weight="bold" lengthAdjust="spacing" textLength="14" x="2379.5" y="868.2158">21</text><text fill="#000000" font-family="sans-serif" font-size="13" lengthAdjust="spacing" textLength="126" x="2397.5" y="868.2158">grade(interviewPoints)</text><polygon fill="#181818" points="1541,900.7695,1551,904.7695,1541,908.7695,1545,904.7695" style="stroke:#181818;stroke-width:1.0;"/><line style="stroke:#181818;stroke-width:1.0;" x1="969.5" x2="1547" y1="904.7695" y2="904.7695"/><text fill="#000000" font-family="sans-serif" font-size="13" font-weight="bold" lengthAdjust="spacing" textLength="14" x="976.5" y="899.5068">22</text><text fill="#000000" font-family="sans-serif" font-size="13" lengthAdjust="spacing" textLength="115" x="994.5" y="899.5068">save(jobApplication)</text><line style="stroke:#181818;stroke-width:1.0;" x1="969.5" x2="1016.5" y1="945.0605" y2="945.0605"/><line style="stroke:#181818;stroke-width:1.0;" x1="1016.5" x2="1016.5" y1="945.0605" y2="958.0605"/><line style="stroke:#181818;stroke-width:1.0;" x1="975.5" x2="1016.5" y1="958.0605" y2="958.0605"/><polygon fill="#181818" points="985.5,954.0605,975.5,958.0605,985.5,962.0605,981.5,958.0605" style="stroke:#181818;stroke-width:1.0;"/><text fill="#000000" font-family="sans-serif" font-size="13" font-weight="bold" lengthAdjust="spacing" textLength="14" x="981.5" y="939.7979">23</text><text fill="#000000" font-family="sans-serif" font-size="13" lengthAdjust="spacing" textLength="371" x="999.5" y="939.7979">checkIfInterviewPhaseStateChanges(jobOpening, jobApplication)</text><path d="M828.5,978.0605 L889.5,978.0605 L889.5,987.3516 L879.5,997.3516 L828.5,997.3516 L828.5,978.0605 " fill="#EEEEEE" style="stroke:#000000;stroke-width:1.5;"/><rect fill="none" height="620.5293" style="stroke:#000000;stroke-width:1.5;" width="1616.5" x="828.5" y="978.0605"/><text fill="#000000" font-family="sans-serif" font-size="13" font-weight="bold" lengthAdjust="spacing" textLength="16" x="843.5" y="993.0889">alt</text><text fill="#000000" font-family="sans-serif" font-size="11" font-weight="bold" lengthAdjust="spacing" textLength="212" x="904.5" y="991.9307">[exists job applications in job opening]</text><line style="stroke:#181818;stroke-width:1.0;" x1="974.5" x2="1021.5" y1="1015.6426" y2="1015.6426"/><line style="stroke:#181818;stroke-width:1.0;" x1="1021.5" x2="1021.5" y1="1015.6426" y2="1028.6426"/><line style="stroke:#181818;stroke-width:1.0;" x1="980.5" x2="1021.5" y1="1028.6426" y2="1028.6426"/><polygon fill="#181818" points="990.5,1024.6426,980.5,1028.6426,990.5,1032.6426,986.5,1028.6426" style="stroke:#181818;stroke-width:1.0;"/><text fill="#000000" font-family="sans-serif" font-size="13" font-weight="bold" lengthAdjust="spacing" textLength="14" x="986.5" y="1010.3799">24</text><text fill="#000000" font-family="sans-serif" font-size="13" lengthAdjust="spacing" textLength="253" x="1004.5" y="1010.3799">isInterviewPhaseConcluded(jobApplications)</text><path d="M838.5,1048.6426 L911.5,1048.6426 L911.5,1057.9336 L901.5,1067.9336 L838.5,1067.9336 L838.5,1048.6426 " fill="#EEEEEE" style="stroke:#000000;stroke-width:1.5;"/><rect fill="none" height="50.582" style="stroke:#000000;stroke-width:1.5;" width="1596.5" x="838.5" y="1048.6426"/><text fill="#000000" font-family="sans-serif" font-size="13" font-weight="bold" lengthAdjust="spacing" textLength="28" x="853.5" y="1063.6709">loop</text><text fill="#000000" font-family="sans-serif" font-size="11" font-weight="bold" lengthAdjust="spacing" textLength="135" x="926.5" y="1062.5127">[for each job application]</text><polygon fill="#181818" points="2355.5,1087.2246,2365.5,1091.2246,2355.5,1095.2246,2359.5,1091.2246" style="stroke:#181818;stroke-width:1.0;"/><line style="stroke:#181818;stroke-width:1.0;" x1="979.5" x2="2361.5" y1="1091.2246" y2="1091.2246"/><text fill="#000000" font-family="sans-serif" font-size="13" font-weight="bold" lengthAdjust="spacing" textLength="14" x="986.5" y="1085.9619">25</text><text fill="#000000" font-family="sans-serif" font-size="13" lengthAdjust="spacing" textLength="216" x="1004.5" y="1085.9619">isApplicationInterviewAvaliationDone()</text><path d="M838.5,1113.2246 L899.5,1113.2246 L899.5,1122.5156 L889.5,1132.5156 L838.5,1132.5156 L838.5,1113.2246 " fill="#EEEEEE" style="stroke:#000000;stroke-width:1.5;"/><rect fill="none" height="177.7461" style="stroke:#000000;stroke-width:1.5;" width="1596.5" x="838.5" y="1113.2246"/><text fill="#000000" font-family="sans-serif" font-size="13" font-weight="bold" lengthAdjust="spacing" textLength="16" x="853.5" y="1128.2529">alt</text><text fill="#000000" font-family="sans-serif" font-size="11" font-weight="bold" lengthAdjust="spacing" textLength="254" x="914.5" y="1127.0947">[all job applications interview evaluation done]</text><polygon fill="#181818" points="990.5,1151.8066,980.5,1155.8066,990.5,1159.8066,986.5,1155.8066" style="stroke:#181818;stroke-width:1.0;"/><line style="stroke:#181818;stroke-width:1.0;stroke-dasharray:2.0,2.0;" x1="984.5" x2="2366.5" y1="1155.8066" y2="1155.8066"/><text fill="#000000" font-family="sans-serif" font-size="13" font-weight="bold" lengthAdjust="spacing" textLength="14" x="996.5" y="1150.5439">26</text><text fill="#000000" font-family="sans-serif" font-size="13" lengthAdjust="spacing" textLength="22" x="1014.5" y="1150.5439">true</text><polygon fill="#181818" points="1682.5,1183.0977,1692.5,1187.0977,1682.5,1191.0977,1686.5,1187.0977" style="stroke:#181818;stroke-width:1.0;"/><line style="stroke:#181818;stroke-width:1.0;" x1="979.5" x2="1688.5" y1="1187.0977" y2="1187.0977"/><text fill="#000000" font-family="sans-serif" font-size="13" font-weight="bold" lengthAdjust="spacing" textLength="14" x="986.5" y="1181.835">27</text><text fill="#000000" font-family="sans-serif" font-size="13" lengthAdjust="spacing" textLength="124" x="1004.5" y="1181.835">requirementProcess()</text><polygon fill="#181818" points="2053,1214.3887,2063,1218.3887,2053,1222.3887,2057,1218.3887" style="stroke:#181818;stroke-width:1.0;"/><line style="stroke:#181818;stroke-width:1.0;" x1="1694.5" x2="2059" y1="1218.3887" y2="1218.3887"/><text fill="#000000" font-family="sans-serif" font-size="13" font-weight="bold" lengthAdjust="spacing" textLength="14" x="1701.5" y="1213.126">28</text><text fill="#000000" font-family="sans-serif" font-size="13" lengthAdjust="spacing" textLength="94" x="1719.5" y="1213.126">interviewPhase()</text><polygon fill="#181818" points="2260,1245.6797,2270,1249.6797,2260,1253.6797,2264,1249.6797" style="stroke:#181818;stroke-width:1.0;"/><line style="stroke:#181818;stroke-width:1.0;" x1="2065" x2="2266" y1="1249.6797" y2="1249.6797"/><text fill="#000000" font-family="sans-serif" font-size="13" font-weight="bold" lengthAdjust="spacing" textLength="14" x="2072" y="1244.417">29</text><text fill="#000000" font-family="sans-serif" font-size="13" lengthAdjust="spacing" textLength="165" x="2090" y="1244.417">setStatus(Status.FINISHED)</text><line style="stroke:#000000;stroke-width:1.0;stroke-dasharray:2.0,2.0;" x1="838.5" x2="2435" y1="1258.6797" y2="1258.6797"/><polygon fill="#181818" points="990.5,1278.9707,980.5,1282.9707,990.5,1286.9707,986.5,1282.9707" style="stroke:#181818;stroke-width:1.0;"/><line style="stroke:#181818;stroke-width:1.0;stroke-dasharray:2.0,2.0;" x1="984.5" x2="2371.5" y1="1282.9707" y2="1282.9707"/><text fill="#000000" font-family="sans-serif" font-size="13" font-weight="bold" lengthAdjust="spacing" textLength="14" x="996.5" y="1277.708">30</text><text fill="#000000" font-family="sans-serif" font-size="13" lengthAdjust="spacing" textLength="27" x="1014.5" y="1277.708">false</text><line style="stroke:#181818;stroke-width:1.0;" x1="974.5" x2="1021.5" y1="1316.2617" y2="1316.2617"/><line style="stroke:#181818;stroke-width:1.0;" x1="1021.5" x2="1021.5" y1="1316.2617" y2="1329.2617"/><line style="stroke:#181818;stroke-width:1.0;" x1="980.5" x2="1021.5" y1="1329.2617" y2="1329.2617"/><polygon fill="#181818" points="990.5,1325.2617,980.5,1329.2617,990.5,1333.2617,986.5,1329.2617" style="stroke:#181818;stroke-width:1.0;"/><text fill="#000000" font-family="sans-serif" font-size="13" font-weight="bold" lengthAdjust="spacing" textLength="14" x="986.5" y="1310.999">31</text><text fill="#000000" font-family="sans-serif" font-size="13" lengthAdjust="spacing" textLength="234" x="1004.5" y="1310.999">isInterviewPhaseStarted(jobApplications)</text><path d="M838.5,1349.2617 L911.5,1349.2617 L911.5,1358.5527 L901.5,1368.5527 L838.5,1368.5527 L838.5,1349.2617 " fill="#EEEEEE" style="stroke:#000000;stroke-width:1.5;"/><rect fill="none" height="50.582" style="stroke:#000000;stroke-width:1.5;" width="1596.5" x="838.5" y="1349.2617"/><text fill="#000000" font-family="sans-serif" font-size="13" font-weight="bold" lengthAdjust="spacing" textLength="28" x="853.5" y="1364.29">loop</text><text fill="#000000" font-family="sans-serif" font-size="11" font-weight="bold" lengthAdjust="spacing" textLength="135" x="926.5" y="1363.1318">[for each job application]</text><polygon fill="#181818" points="2355.5,1387.8438,2365.5,1391.8438,2355.5,1395.8438,2359.5,1391.8438" style="stroke:#181818;stroke-width:1.0;"/><line style="stroke:#181818;stroke-width:1.0;" x1="979.5" x2="2361.5" y1="1391.8438" y2="1391.8438"/><text fill="#000000" font-family="sans-serif" font-size="13" font-weight="bold" lengthAdjust="spacing" textLength="14" x="986.5" y="1386.5811">32</text><text fill="#000000" font-family="sans-serif" font-size="13" lengthAdjust="spacing" textLength="216" x="1004.5" y="1386.5811">isApplicationInterviewAvaliationDone()</text><path d="M838.5,1413.8438 L899.5,1413.8438 L899.5,1423.1348 L889.5,1433.1348 L838.5,1433.1348 L838.5,1413.8438 " fill="#EEEEEE" style="stroke:#000000;stroke-width:1.5;"/><rect fill="none" height="177.7461" style="stroke:#000000;stroke-width:1.5;" width="1596.5" x="838.5" y="1413.8438"/><text fill="#000000" font-family="sans-serif" font-size="13" font-weight="bold" lengthAdjust="spacing" textLength="16" x="853.5" y="1428.8721">alt</text><text fill="#000000" font-family="sans-serif" font-size="11" font-weight="bold" lengthAdjust="spacing" textLength="255" x="914.5" y="1427.7139">[job application has interview evaluation done]</text><polygon fill="#181818" points="990.5,1452.4258,980.5,1456.4258,990.5,1460.4258,986.5,1456.4258" style="stroke:#181818;stroke-width:1.0;"/><line style="stroke:#181818;stroke-width:1.0;stroke-dasharray:2.0,2.0;" x1="984.5" x2="2366.5" y1="1456.4258" y2="1456.4258"/><text fill="#000000" font-family="sans-serif" font-size="13" font-weight="bold" lengthAdjust="spacing" textLength="14" x="996.5" y="1451.1631">33</text><text fill="#000000" font-family="sans-serif" font-size="13" lengthAdjust="spacing" textLength="22" x="1014.5" y="1451.1631">true</text><polygon fill="#181818" points="1682.5,1483.7168,1692.5,1487.7168,1682.5,1491.7168,1686.5,1487.7168" style="stroke:#181818;stroke-width:1.0;"/><line style="stroke:#181818;stroke-width:1.0;" x1="979.5" x2="1688.5" y1="1487.7168" y2="1487.7168"/><text fill="#000000" font-family="sans-serif" font-size="13" font-weight="bold" lengthAdjust="spacing" textLength="14" x="986.5" y="1482.4541">34</text><text fill="#000000" font-family="sans-serif" font-size="13" lengthAdjust="spacing" textLength="124" x="1004.5" y="1482.4541">requirementProcess()</text><polygon fill="#181818" points="2053,1515.0078,2063,1519.0078,2053,1523.0078,2057,1519.0078" style="stroke:#181818;stroke-width:1.0;"/><line style="stroke:#181818;stroke-width:1.0;" x1="1694.5" x2="2059" y1="1519.0078" y2="1519.0078"/><text fill="#000000" font-family="sans-serif" font-size="13" font-weight="bold" lengthAdjust="spacing" textLength="14" x="1701.5" y="1513.7451">35</text><text fill="#000000" font-family="sans-serif" font-size="13" lengthAdjust="spacing" textLength="94" x="1719.5" y="1513.7451">interviewPhase()</text><polygon fill="#181818" points="2260,1546.2988,2270,1550.2988,2260,1554.2988,2264,1550.2988" style="stroke:#181818;stroke-width:1.0;"/><line style="stroke:#181818;stroke-width:1.0;" x1="2065" x2="2266" y1="1550.2988" y2="1550.2988"/><text fill="#000000" font-family="sans-serif" font-size="13" font-weight="bold" lengthAdjust="spacing" textLength="14" x="2072" y="1545.0361">36</text><text fill="#000000" font-family="sans-serif" font-size="13" lengthAdjust="spacing" textLength="152" x="2090" y="1545.0361">setStatus(Status.ACTIVE)</text><line style="stroke:#000000;stroke-width:1.0;stroke-dasharray:2.0,2.0;" x1="838.5" x2="2435" y1="1559.2988" y2="1559.2988"/><polygon fill="#181818" points="990.5,1579.5898,980.5,1583.5898,990.5,1587.5898,986.5,1583.5898" style="stroke:#181818;stroke-width:1.0;"/><line style="stroke:#181818;stroke-width:1.0;stroke-dasharray:2.0,2.0;" x1="984.5" x2="2371.5" y1="1583.5898" y2="1583.5898"/><text fill="#000000" font-family="sans-serif" font-size="13" font-weight="bold" lengthAdjust="spacing" textLength="14" x="996.5" y="1578.3271">37</text><text fill="#000000" font-family="sans-serif" font-size="13" lengthAdjust="spacing" textLength="27" x="1014.5" y="1578.3271">false</text><polygon fill="#181818" points="82.5,1631.8809,72.5,1635.8809,82.5,1639.8809,78.5,1635.8809" style="stroke:#181818;stroke-width:1.0;"/><line style="stroke:#181818;stroke-width:1.0;stroke-dasharray:2.0,2.0;" x1="76.5" x2="326.5" y1="1635.8809" y2="1635.8809"/><text fill="#000000" font-family="sans-serif" font-size="13" font-weight="bold" lengthAdjust="spacing" textLength="14" x="88.5" y="1630.6182">38</text><text fill="#000000" font-family="sans-serif" font-size="13" lengthAdjust="spacing" textLength="86" x="106.5" y="1630.6182">backs to menu</text><!--SRC=[vLVDJzim5B_dh_1jHQ9mhn1ILuhMIGn4ntRXuZglhOTZPxPJuB_VSz8cJfgaQG1fsav9dFVzVk_3dzRMncPqVXuBAcqIYJEcedC3lnEG38OXfojDeo2WYLKoYHQWyPrPfSaaCLP5e6-ef2iyZgcsdF4OnP3f2x34manQq1iEpzCD5GcrNCc76RcuY3KOa3OzkBpio3bHqceb16YKGEDOS7QSWBaxO83S9dkhS7vLYziO99UhUuYLuUZaAnBh_6EVVboOqPbdgmEfGXLHNhK_D_n6XI3cCJ2-tAfeOhd7R74D4ORqJYi6nZHHtgsfWQQVPNyEskSJf9ZW6sfX3nQLRpAyR4V7Y53pP8XL138oOjVmA4cyzKmj2UJqvb7YDzy9CcI9mAJabreGbOMvCAnDQz1gKgl97Yn7Jl4slMOcS-8qweEJBgOKqe9EAj6qMjYEo9BBiCs6EhQWLjQmb_z12Eswklbt62uDEjyOOvTsr5r5xuYOjKAS2MwiWwA7D8CuBA3uAEEqrgWCSq0R4C2GJKAFgiYOZUDEjMvzVY_aGYFPe0Zm1qAulfDcCFxyMW1eBCEVtAvpaMDfda6x8vNO0kqA4s6GrckDzs0IOSUCGMmXhFUgoP2WqSBZYiEJKIsGUhrT8tXuwdLCyMdLp4uvtoe9gB1-IH1UBWgIraGWb8hJJeq1MAVqtZZFPNXd1DayAJJD-IcHokAVq9UVvZqjElT35zd7TvT-GhVv3mv7R0-O64DUnjsW4JiLn3XXnUHqSkB4pgq66brh5I4sLQ8PtEfhBafjEcSA2lPX1yjyT1KogaPrH4wBx8hNNQEwMu96ks5Ui0mgscfdbZUfIg6jMPeA5IsIMmG4RSA7LNTukGNLfg56X-_EiKdPr-J5gH_CSUSFwpAIgUeB-bJglh2tewbfU1YwWK6vdvq4u2QoiEdJTQ9kMhfaXAs1FSsMvPrhZjSScAofN85fwRD7jrbumHN4L3jbsc_zzVVTdCDUNdOC1n0JIPYDqjuJetqMz6pInlikDWNavUdH5UvGBPqx1uOBCnMYBiOxK1TN4HAwlQvdWxKwWHwzK-zT_D2jScUikHlwhMDxAwYXGjxijkXMJ-jGd9X1zZYxddsRpRzChx2OXEdjz98wvkRgtnLgfwL-XwTtmtiLxkYwjlyusDlNhlyJw-F9zzcFwL-8z8yZzYTaPxFUTgjUK9RTaJ4jIJU53xFW3m00]--></g></svg>