<?xml version="1.0" encoding="us-ascii" standalone="no"?><svg xmlns="http://www.w3.org/2000/svg" xmlns:xlink="http://www.w3.org/1999/xlink" contentStyleType="text/css" height="991px" preserveAspectRatio="none" style="width:1945px;height:991px;background:#FFFFFF;" version="1.1" viewBox="0 0 1945 991" width="1945px" zoomAndPan="magnify"><defs/><g><rect fill="#FFFFFF" height="805.8574" style="stroke:#181818;stroke-width:1.0;" width="10" x="61.5" y="93.6211"/><rect fill="#FFFFFF" height="738.9844" style="stroke:#181818;stroke-width:1.0;" width="10" x="322.5" y="151.4941"/><rect fill="#FFFFFF" height="93.873" style="stroke:#181818;stroke-width:1.0;" width="10" x="589.5" y="182.7852"/><rect fill="#FFFFFF" height="479.3652" style="stroke:#181818;stroke-width:1.0;" width="10" x="589.5" y="387.8223"/><rect fill="#FFFFFF" height="370.4922" style="stroke:#181818;stroke-width:1.0;" width="10" x="959.5" y="481.6953"/><rect fill="#FFFFFF" height="31.291" style="stroke:#181818;stroke-width:1.0;" width="10" x="1164.5" y="214.0762"/><rect fill="#FFFFFF" height="31.291" style="stroke:#181818;stroke-width:1.0;" width="10" x="1340" y="419.1133"/><rect fill="#FFFFFF" height="93.873" style="stroke:#181818;stroke-width:1.0;" width="10" x="1481.5" y="664.4414"/><rect fill="#FFFFFF" height="93.873" style="stroke:#181818;stroke-width:1.0;" width="10" x="1589" y="539.2773"/><rect fill="#FFFFFF" height="31.291" style="stroke:#181818;stroke-width:1.0;" width="10" x="1589" y="789.6055"/><rect fill="#FFFFFF" height="31.291" style="stroke:#181818;stroke-width:1.0;" width="10" x="1745" y="695.7324"/><rect fill="#FFFFFF" height="31.291" style="stroke:#181818;stroke-width:1.0;" width="10" x="1886.5" y="570.5684"/><rect fill="none" height="363.4922" style="stroke:#000000;stroke-width:1.5;" width="1101" x="838.5" y="496.6953"/><line style="stroke:#181818;stroke-width:0.5;stroke-dasharray:5.0,5.0;" x1="66" x2="66" y1="83.6211" y2="908.4785"/><line style="stroke:#181818;stroke-width:0.5;stroke-dasharray:5.0,5.0;" x1="327" x2="327" y1="83.6211" y2="908.4785"/><line style="stroke:#181818;stroke-width:0.5;stroke-dasharray:5.0,5.0;" x1="594" x2="594" y1="83.6211" y2="908.4785"/><line style="stroke:#181818;stroke-width:0.5;stroke-dasharray:5.0,5.0;" x1="964.5" x2="964.5" y1="83.6211" y2="908.4785"/><line style="stroke:#181818;stroke-width:0.5;stroke-dasharray:5.0,5.0;" x1="1169.5" x2="1169.5" y1="83.6211" y2="908.4785"/><line style="stroke:#181818;stroke-width:0.5;stroke-dasharray:5.0,5.0;" x1="1344.5" x2="1344.5" y1="83.6211" y2="908.4785"/><line style="stroke:#181818;stroke-width:0.5;stroke-dasharray:5.0,5.0;" x1="1486.5" x2="1486.5" y1="83.6211" y2="908.4785"/><line style="stroke:#181818;stroke-width:0.5;stroke-dasharray:5.0,5.0;" x1="1593.5" x2="1593.5" y1="83.6211" y2="908.4785"/><line style="stroke:#181818;stroke-width:0.5;stroke-dasharray:5.0,5.0;" x1="1749.5" x2="1749.5" y1="83.6211" y2="908.4785"/><line style="stroke:#181818;stroke-width:0.5;stroke-dasharray:5.0,5.0;" x1="1891.5" x2="1891.5" y1="83.6211" y2="908.4785"/><text fill="#000000" font-family="sans-serif" font-size="14" lengthAdjust="spacing" textLength="117" x="5" y="80.1074">CustomerManager</text><ellipse cx="66.5" cy="13.5" fill="#E2E2F0" rx="8" ry="8" style="stroke:#181818;stroke-width:0.5;"/><path d="M66.5,21.5 L66.5,48.5 M53.5,29.5 L79.5,29.5 M66.5,48.5 L53.5,63.5 M66.5,48.5 L79.5,63.5 " fill="none" style="stroke:#181818;stroke-width:0.5;"/><text fill="#000000" font-family="sans-serif" font-size="14" lengthAdjust="spacing" textLength="117" x="5" y="922.5859">CustomerManager</text><ellipse cx="66.5" cy="934.5996" fill="#E2E2F0" rx="8" ry="8" style="stroke:#181818;stroke-width:0.5;"/><path d="M66.5,942.5996 L66.5,969.5996 M53.5,950.5996 L79.5,950.5996 M66.5,969.5996 L53.5,984.5996 M66.5,969.5996 L79.5,984.5996 " fill="none" style="stroke:#181818;stroke-width:0.5;"/><rect fill="#E2E2F0" height="51.2422" rx="2.5" ry="2.5" style="stroke:#181818;stroke-width:0.5;" width="197" x="229" y="31.3789"/><text fill="#000000" font-family="sans-serif" font-size="14" font-style="italic" lengthAdjust="spacing" textLength="95" x="280" y="53.4863">&#171;presentation&#187;</text><text fill="#000000" font-family="sans-serif" font-size="14" lengthAdjust="spacing" textLength="183" x="236" y="72.1074">ExecuteInterviewEvaluationUI</text><rect fill="#E2E2F0" height="51.2422" rx="2.5" ry="2.5" style="stroke:#181818;stroke-width:0.5;" width="197" x="229" y="907.4785"/><text fill="#000000" font-family="sans-serif" font-size="14" font-style="italic" lengthAdjust="spacing" textLength="95" x="280" y="929.5859">&#171;presentation&#187;</text><text fill="#000000" font-family="sans-serif" font-size="14" lengthAdjust="spacing" textLength="183" x="236" y="948.207">ExecuteInterviewEvaluationUI</text><rect fill="#E2E2F0" height="51.2422" rx="2.5" ry="2.5" style="stroke:#181818;stroke-width:0.5;" width="247" x="471" y="31.3789"/><text fill="#000000" font-family="sans-serif" font-size="14" font-style="italic" lengthAdjust="spacing" textLength="75" x="557" y="53.4863">&#171;controller&#187;</text><text fill="#000000" font-family="sans-serif" font-size="14" lengthAdjust="spacing" textLength="233" x="478" y="72.1074">ExecuteInterviewEvaluationController</text><rect fill="#E2E2F0" height="51.2422" rx="2.5" ry="2.5" style="stroke:#181818;stroke-width:0.5;" width="247" x="471" y="907.4785"/><text fill="#000000" font-family="sans-serif" font-size="14" font-style="italic" lengthAdjust="spacing" textLength="75" x="557" y="929.5859">&#171;controller&#187;</text><text fill="#000000" font-family="sans-serif" font-size="14" lengthAdjust="spacing" textLength="233" x="478" y="948.207">ExecuteInterviewEvaluationController</text><rect fill="#E2E2F0" height="51.2422" rx="2.5" ry="2.5" style="stroke:#181818;stroke-width:0.5;" width="232" x="848.5" y="31.3789"/><text fill="#000000" font-family="sans-serif" font-size="14" font-style="italic" lengthAdjust="spacing" textLength="60" x="934.5" y="53.4863">&#171;service&#187;</text><text fill="#000000" font-family="sans-serif" font-size="14" lengthAdjust="spacing" textLength="218" x="855.5" y="72.1074">ExecuteInterviewEvaluationService</text><rect fill="#E2E2F0" height="51.2422" rx="2.5" ry="2.5" style="stroke:#181818;stroke-width:0.5;" width="232" x="848.5" y="907.4785"/><text fill="#000000" font-family="sans-serif" font-size="14" font-style="italic" lengthAdjust="spacing" textLength="60" x="934.5" y="929.5859">&#171;service&#187;</text><text fill="#000000" font-family="sans-serif" font-size="14" lengthAdjust="spacing" textLength="218" x="855.5" y="948.207">ExecuteInterviewEvaluationService</text><rect fill="#E2E2F0" height="51.2422" rx="2.5" ry="2.5" style="stroke:#181818;stroke-width:0.5;" width="158" x="1090.5" y="31.3789"/><text fill="#000000" font-family="sans-serif" font-size="14" font-style="italic" lengthAdjust="spacing" textLength="79" x="1130" y="53.4863">&#171;repository&#187;</text><text fill="#000000" font-family="sans-serif" font-size="14" lengthAdjust="spacing" textLength="144" x="1097.5" y="72.1074">JobOpeningRepository</text><rect fill="#E2E2F0" height="51.2422" rx="2.5" ry="2.5" style="stroke:#181818;stroke-width:0.5;" width="158" x="1090.5" y="907.4785"/><text fill="#000000" font-family="sans-serif" font-size="14" font-style="italic" lengthAdjust="spacing" textLength="79" x="1130" y="929.5859">&#171;repository&#187;</text><text fill="#000000" font-family="sans-serif" font-size="14" lengthAdjust="spacing" textLength="144" x="1097.5" y="948.207">JobOpeningRepository</text><rect fill="#E2E2F0" height="51.2422" rx="2.5" ry="2.5" style="stroke:#181818;stroke-width:0.5;" width="173" x="1258.5" y="31.3789"/><text fill="#000000" font-family="sans-serif" font-size="14" font-style="italic" lengthAdjust="spacing" textLength="79" x="1305.5" y="53.4863">&#171;repository&#187;</text><text fill="#000000" font-family="sans-serif" font-size="14" lengthAdjust="spacing" textLength="159" x="1265.5" y="72.1074">JobApplicationRepository</text><rect fill="#E2E2F0" height="51.2422" rx="2.5" ry="2.5" style="stroke:#181818;stroke-width:0.5;" width="173" x="1258.5" y="907.4785"/><text fill="#000000" font-family="sans-serif" font-size="14" font-style="italic" lengthAdjust="spacing" textLength="79" x="1305.5" y="929.5859">&#171;repository&#187;</text><text fill="#000000" font-family="sans-serif" font-size="14" lengthAdjust="spacing" textLength="159" x="1265.5" y="948.207">JobApplicationRepository</text><rect fill="#E2E2F0" height="51.2422" rx="2.5" ry="2.5" style="stroke:#181818;stroke-width:0.5;" width="90" x="1441.5" y="31.3789"/><text fill="#000000" font-family="sans-serif" font-size="14" font-style="italic" lengthAdjust="spacing" textLength="62" x="1455.5" y="53.4863">&#171;domain&#187;</text><text fill="#000000" font-family="sans-serif" font-size="14" lengthAdjust="spacing" textLength="76" x="1448.5" y="72.1074">JobOpening</text><rect fill="#E2E2F0" height="51.2422" rx="2.5" ry="2.5" style="stroke:#181818;stroke-width:0.5;" width="90" x="1441.5" y="907.4785"/><text fill="#000000" font-family="sans-serif" font-size="14" font-style="italic" lengthAdjust="spacing" textLength="62" x="1455.5" y="929.5859">&#171;domain&#187;</text><text fill="#000000" font-family="sans-serif" font-size="14" lengthAdjust="spacing" textLength="76" x="1448.5" y="948.207">JobOpening</text><rect fill="#E2E2F0" height="51.2422" rx="2.5" ry="2.5" style="stroke:#181818;stroke-width:0.5;" width="105" x="1541.5" y="31.3789"/><text fill="#000000" font-family="sans-serif" font-size="14" font-style="italic" lengthAdjust="spacing" textLength="62" x="1563" y="53.4863">&#171;domain&#187;</text><text fill="#000000" font-family="sans-serif" font-size="14" lengthAdjust="spacing" textLength="91" x="1548.5" y="72.1074">JobApplication</text><rect fill="#E2E2F0" height="51.2422" rx="2.5" ry="2.5" style="stroke:#181818;stroke-width:0.5;" width="105" x="1541.5" y="907.4785"/><text fill="#000000" font-family="sans-serif" font-size="14" font-style="italic" lengthAdjust="spacing" textLength="62" x="1563" y="929.5859">&#171;domain&#187;</text><text fill="#000000" font-family="sans-serif" font-size="14" lengthAdjust="spacing" textLength="91" x="1548.5" y="948.207">JobApplication</text><rect fill="#E2E2F0" height="51.2422" rx="2.5" ry="2.5" style="stroke:#181818;stroke-width:0.5;" width="187" x="1656.5" y="31.3789"/><text fill="#000000" font-family="sans-serif" font-size="14" font-style="italic" lengthAdjust="spacing" textLength="62" x="1719" y="53.4863">&#171;domain&#187;</text><text fill="#000000" font-family="sans-serif" font-size="14" lengthAdjust="spacing" textLength="173" x="1663.5" y="72.1074">InterviewModelSpecification</text><rect fill="#E2E2F0" height="51.2422" rx="2.5" ry="2.5" style="stroke:#181818;stroke-width:0.5;" width="187" x="1656.5" y="907.4785"/><text fill="#000000" font-family="sans-serif" font-size="14" font-style="italic" lengthAdjust="spacing" textLength="62" x="1719" y="929.5859">&#171;domain&#187;</text><text fill="#000000" font-family="sans-serif" font-size="14" lengthAdjust="spacing" textLength="173" x="1663.5" y="948.207">InterviewModelSpecification</text><rect fill="#E2E2F0" height="51.2422" rx="2.5" ry="2.5" style="stroke:#181818;stroke-width:0.5;" width="76" x="1853.5" y="31.3789"/><text fill="#000000" font-family="sans-serif" font-size="14" font-style="italic" lengthAdjust="spacing" textLength="62" x="1860.5" y="53.4863">&#171;domain&#187;</text><text fill="#000000" font-family="sans-serif" font-size="14" lengthAdjust="spacing" textLength="55" x="1864" y="72.1074">Interview</text><rect fill="#E2E2F0" height="51.2422" rx="2.5" ry="2.5" style="stroke:#181818;stroke-width:0.5;" width="76" x="1853.5" y="907.4785"/><text fill="#000000" font-family="sans-serif" font-size="14" font-style="italic" lengthAdjust="spacing" textLength="62" x="1860.5" y="929.5859">&#171;domain&#187;</text><text fill="#000000" font-family="sans-serif" font-size="14" lengthAdjust="spacing" textLength="55" x="1864" y="948.207">Interview</text><rect fill="#FFFFFF" height="805.8574" style="stroke:#181818;stroke-width:1.0;" width="10" x="61.5" y="93.6211"/><rect fill="#FFFFFF" height="738.9844" style="stroke:#181818;stroke-width:1.0;" width="10" x="322.5" y="151.4941"/><rect fill="#FFFFFF" height="93.873" style="stroke:#181818;stroke-width:1.0;" width="10" x="589.5" y="182.7852"/><rect fill="#FFFFFF" height="479.3652" style="stroke:#181818;stroke-width:1.0;" width="10" x="589.5" y="387.8223"/><rect fill="#FFFFFF" height="370.4922" style="stroke:#181818;stroke-width:1.0;" width="10" x="959.5" y="481.6953"/><rect fill="#FFFFFF" height="31.291" style="stroke:#181818;stroke-width:1.0;" width="10" x="1164.5" y="214.0762"/><rect fill="#FFFFFF" height="31.291" style="stroke:#181818;stroke-width:1.0;" width="10" x="1340" y="419.1133"/><rect fill="#FFFFFF" height="93.873" style="stroke:#181818;stroke-width:1.0;" width="10" x="1481.5" y="664.4414"/><rect fill="#FFFFFF" height="93.873" style="stroke:#181818;stroke-width:1.0;" width="10" x="1589" y="539.2773"/><rect fill="#FFFFFF" height="31.291" style="stroke:#181818;stroke-width:1.0;" width="10" x="1589" y="789.6055"/><rect fill="#FFFFFF" height="31.291" style="stroke:#181818;stroke-width:1.0;" width="10" x="1745" y="695.7324"/><rect fill="#FFFFFF" height="31.291" style="stroke:#181818;stroke-width:1.0;" width="10" x="1886.5" y="570.5684"/><polygon fill="#181818" points="310.5,147.4941,320.5,151.4941,310.5,155.4941,314.5,151.4941" style="stroke:#181818;stroke-width:1.0;"/><line style="stroke:#181818;stroke-width:1.0;" x1="71.5" x2="316.5" y1="151.4941" y2="151.4941"/><text fill="#000000" font-family="sans-serif" font-size="13" font-weight="bold" lengthAdjust="spacing" textLength="7" x="78.5" y="128.9404">1</text><text fill="#000000" font-family="sans-serif" font-size="13" lengthAdjust="spacing" textLength="115" x="89.5" y="111.6494">asks to execute the</text><text fill="#000000" font-family="sans-serif" font-size="13" lengthAdjust="spacing" textLength="128" x="93.5" y="128.9404">process of evaluations</text><text fill="#000000" font-family="sans-serif" font-size="13" lengthAdjust="spacing" textLength="169" x="89.5" y="146.2314">of interviews for a job opening</text><polygon fill="#181818" points="577.5,178.7852,587.5,182.7852,577.5,186.7852,581.5,182.7852" style="stroke:#181818;stroke-width:1.0;"/><line style="stroke:#181818;stroke-width:1.0;" x1="332.5" x2="583.5" y1="182.7852" y2="182.7852"/><text fill="#000000" font-family="sans-serif" font-size="13" font-weight="bold" lengthAdjust="spacing" textLength="7" x="339.5" y="177.5225">2</text><text fill="#000000" font-family="sans-serif" font-size="13" lengthAdjust="spacing" textLength="176" x="350.5" y="177.5225">jobOpeningsInInterviewPhase()</text><polygon fill="#181818" points="1152.5,210.0762,1162.5,214.0762,1152.5,218.0762,1156.5,214.0762" style="stroke:#181818;stroke-width:1.0;"/><line style="stroke:#181818;stroke-width:1.0;" x1="599.5" x2="1158.5" y1="214.0762" y2="214.0762"/><text fill="#000000" font-family="sans-serif" font-size="13" font-weight="bold" lengthAdjust="spacing" textLength="7" x="606.5" y="208.8135">3</text><text fill="#000000" font-family="sans-serif" font-size="13" lengthAdjust="spacing" textLength="124" x="617.5" y="208.8135">findInInterviewPhase()</text><polygon fill="#181818" points="610.5,241.3672,600.5,245.3672,610.5,249.3672,606.5,245.3672" style="stroke:#181818;stroke-width:1.0;"/><line style="stroke:#181818;stroke-width:1.0;stroke-dasharray:2.0,2.0;" x1="604.5" x2="1168.5" y1="245.3672" y2="245.3672"/><text fill="#000000" font-family="sans-serif" font-size="13" font-weight="bold" lengthAdjust="spacing" textLength="7" x="616.5" y="240.1045">4</text><text fill="#000000" font-family="sans-serif" font-size="13" lengthAdjust="spacing" textLength="72" x="627.5" y="240.1045">jobOpenings</text><polygon fill="#181818" points="343.5,272.6582,333.5,276.6582,343.5,280.6582,339.5,276.6582" style="stroke:#181818;stroke-width:1.0;"/><line style="stroke:#181818;stroke-width:1.0;stroke-dasharray:2.0,2.0;" x1="337.5" x2="593.5" y1="276.6582" y2="276.6582"/><text fill="#000000" font-family="sans-serif" font-size="13" font-weight="bold" lengthAdjust="spacing" textLength="7" x="349.5" y="271.3955">5</text><text fill="#000000" font-family="sans-serif" font-size="13" lengthAdjust="spacing" textLength="72" x="360.5" y="271.3955">jobOpenings</text><polygon fill="#181818" points="82.5,321.2402,72.5,325.2402,82.5,329.2402,78.5,325.2402" style="stroke:#181818;stroke-width:1.0;"/><line style="stroke:#181818;stroke-width:1.0;stroke-dasharray:2.0,2.0;" x1="76.5" x2="321.5" y1="325.2402" y2="325.2402"/><text fill="#000000" font-family="sans-serif" font-size="13" font-weight="bold" lengthAdjust="spacing" textLength="7" x="88.5" y="311.332">6</text><text fill="#000000" font-family="sans-serif" font-size="13" lengthAdjust="spacing" textLength="216" x="99.5" y="302.6865">shows list of job openings in interview</text><text fill="#000000" font-family="sans-serif" font-size="13" lengthAdjust="spacing" textLength="171" x="99.5" y="319.9775">phase and asks to select one</text><polygon fill="#181818" points="310.5,352.5313,320.5,356.5313,310.5,360.5313,314.5,356.5313" style="stroke:#181818;stroke-width:1.0;"/><line style="stroke:#181818;stroke-width:1.0;" x1="71.5" x2="316.5" y1="356.5313" y2="356.5313"/><text fill="#000000" font-family="sans-serif" font-size="13" font-weight="bold" lengthAdjust="spacing" textLength="7" x="78.5" y="351.2686">7</text><text fill="#000000" font-family="sans-serif" font-size="13" lengthAdjust="spacing" textLength="140" x="89.5" y="351.2686">selects one job Opening</text><polygon fill="#181818" points="577.5,383.8223,587.5,387.8223,577.5,391.8223,581.5,387.8223" style="stroke:#181818;stroke-width:1.0;"/><line style="stroke:#181818;stroke-width:1.0;" x1="332.5" x2="583.5" y1="387.8223" y2="387.8223"/><text fill="#000000" font-family="sans-serif" font-size="13" font-weight="bold" lengthAdjust="spacing" textLength="7" x="339.5" y="382.5596">8</text><text fill="#000000" font-family="sans-serif" font-size="13" lengthAdjust="spacing" textLength="227" x="350.5" y="382.5596">executeInterviewEvaluation(jobOpening)</text><polygon fill="#181818" points="1328,415.1133,1338,419.1133,1328,423.1133,1332,419.1133" style="stroke:#181818;stroke-width:1.0;"/><line style="stroke:#181818;stroke-width:1.0;" x1="599.5" x2="1334" y1="419.1133" y2="419.1133"/><text fill="#000000" font-family="sans-serif" font-size="13" font-weight="bold" lengthAdjust="spacing" textLength="7" x="606.5" y="413.8506">9</text><text fill="#000000" font-family="sans-serif" font-size="13" lengthAdjust="spacing" textLength="319" x="617.5" y="413.8506">findByJobOpeningAndWithInterviewAnswer(jobOpening)</text><polygon fill="#181818" points="610.5,446.4043,600.5,450.4043,610.5,454.4043,606.5,450.4043" style="stroke:#181818;stroke-width:1.0;"/><line style="stroke:#181818;stroke-width:1.0;stroke-dasharray:2.0,2.0;" x1="604.5" x2="1344" y1="450.4043" y2="450.4043"/><text fill="#000000" font-family="sans-serif" font-size="13" font-weight="bold" lengthAdjust="spacing" textLength="14" x="616.5" y="445.1416">10</text><text fill="#000000" font-family="sans-serif" font-size="13" lengthAdjust="spacing" textLength="88" x="634.5" y="445.1416">jobApplications</text><polygon fill="#181818" points="947.5,477.6953,957.5,481.6953,947.5,485.6953,951.5,481.6953" style="stroke:#181818;stroke-width:1.0;"/><line style="stroke:#181818;stroke-width:1.0;" x1="599.5" x2="953.5" y1="481.6953" y2="481.6953"/><text fill="#000000" font-family="sans-serif" font-size="13" font-weight="bold" lengthAdjust="spacing" textLength="14" x="606.5" y="476.4326">11</text><text fill="#000000" font-family="sans-serif" font-size="13" lengthAdjust="spacing" textLength="323" x="624.5" y="476.4326">executeInterviewEvaluation(jobOpening, jobApplications)</text><path d="M838.5,496.6953 L911.5,496.6953 L911.5,505.9863 L901.5,515.9863 L838.5,515.9863 L838.5,496.6953 " fill="#EEEEEE" style="stroke:#000000;stroke-width:1.5;"/><rect fill="none" height="363.4922" style="stroke:#000000;stroke-width:1.5;" width="1101" x="838.5" y="496.6953"/><text fill="#000000" font-family="sans-serif" font-size="13" font-weight="bold" lengthAdjust="spacing" textLength="28" x="853.5" y="511.7236">loop</text><text fill="#000000" font-family="sans-serif" font-size="11" font-weight="bold" lengthAdjust="spacing" textLength="135" x="926.5" y="510.5654">[for each job application]</text><polygon fill="#181818" points="1577,535.2773,1587,539.2773,1577,543.2773,1581,539.2773" style="stroke:#181818;stroke-width:1.0;"/><line style="stroke:#181818;stroke-width:1.0;" x1="969.5" x2="1583" y1="539.2773" y2="539.2773"/><text fill="#000000" font-family="sans-serif" font-size="13" font-weight="bold" lengthAdjust="spacing" textLength="14" x="976.5" y="534.0146">12</text><text fill="#000000" font-family="sans-serif" font-size="13" lengthAdjust="spacing" textLength="100" x="994.5" y="534.0146">interviewAnswer()</text><polygon fill="#181818" points="1874.5,566.5684,1884.5,570.5684,1874.5,574.5684,1878.5,570.5684" style="stroke:#181818;stroke-width:1.0;"/><line style="stroke:#181818;stroke-width:1.0;" x1="1599" x2="1880.5" y1="570.5684" y2="570.5684"/><text fill="#000000" font-family="sans-serif" font-size="13" font-weight="bold" lengthAdjust="spacing" textLength="14" x="1606" y="565.3057">13</text><text fill="#000000" font-family="sans-serif" font-size="13" lengthAdjust="spacing" textLength="198" x="1624" y="565.3057">inputStreamFromResourceOrFile()</text><polygon fill="#181818" points="1610,597.8594,1600,601.8594,1610,605.8594,1606,601.8594" style="stroke:#181818;stroke-width:1.0;"/><line style="stroke:#181818;stroke-width:1.0;stroke-dasharray:2.0,2.0;" x1="1604" x2="1890.5" y1="601.8594" y2="601.8594"/><text fill="#000000" font-family="sans-serif" font-size="13" font-weight="bold" lengthAdjust="spacing" textLength="14" x="1616" y="596.5967">14</text><text fill="#000000" font-family="sans-serif" font-size="13" lengthAdjust="spacing" textLength="92" x="1634" y="596.5967">interviewAnswer</text><polygon fill="#181818" points="980.5,629.1504,970.5,633.1504,980.5,637.1504,976.5,633.1504" style="stroke:#181818;stroke-width:1.0;"/><line style="stroke:#181818;stroke-width:1.0;stroke-dasharray:2.0,2.0;" x1="974.5" x2="1593" y1="633.1504" y2="633.1504"/><text fill="#000000" font-family="sans-serif" font-size="13" font-weight="bold" lengthAdjust="spacing" textLength="14" x="986.5" y="627.8877">15</text><text fill="#000000" font-family="sans-serif" font-size="13" lengthAdjust="spacing" textLength="92" x="1004.5" y="627.8877">interviewAnswer</text><polygon fill="#181818" points="1469.5,660.4414,1479.5,664.4414,1469.5,668.4414,1473.5,664.4414" style="stroke:#181818;stroke-width:1.0;"/><line style="stroke:#181818;stroke-width:1.0;" x1="969.5" x2="1475.5" y1="664.4414" y2="664.4414"/><text fill="#000000" font-family="sans-serif" font-size="13" font-weight="bold" lengthAdjust="spacing" textLength="14" x="976.5" y="659.1787">16</text><text fill="#000000" font-family="sans-serif" font-size="13" lengthAdjust="spacing" textLength="196" x="994.5" y="659.1787">evaluateInterview(interviewAnswer)</text><polygon fill="#181818" points="1733,691.7324,1743,695.7324,1733,699.7324,1737,695.7324" style="stroke:#181818;stroke-width:1.0;"/><line style="stroke:#181818;stroke-width:1.0;" x1="1491.5" x2="1739" y1="695.7324" y2="695.7324"/><text fill="#000000" font-family="sans-serif" font-size="13" font-weight="bold" lengthAdjust="spacing" textLength="14" x="1498.5" y="690.4697">17</text><text fill="#000000" font-family="sans-serif" font-size="13" lengthAdjust="spacing" textLength="147" x="1516.5" y="690.4697">evaluate(interviewAnswer)</text><polygon fill="#181818" points="1502.5,723.0234,1492.5,727.0234,1502.5,731.0234,1498.5,727.0234" style="stroke:#181818;stroke-width:1.0;"/><line style="stroke:#181818;stroke-width:1.0;stroke-dasharray:2.0,2.0;" x1="1496.5" x2="1749" y1="727.0234" y2="727.0234"/><text fill="#000000" font-family="sans-serif" font-size="13" font-weight="bold" lengthAdjust="spacing" textLength="14" x="1508.5" y="721.7607">18</text><text fill="#000000" font-family="sans-serif" font-size="13" lengthAdjust="spacing" textLength="86" x="1526.5" y="721.7607">interviewPoints</text><polygon fill="#181818" points="980.5,754.3145,970.5,758.3145,980.5,762.3145,976.5,758.3145" style="stroke:#181818;stroke-width:1.0;"/><line style="stroke:#181818;stroke-width:1.0;stroke-dasharray:2.0,2.0;" x1="974.5" x2="1485.5" y1="758.3145" y2="758.3145"/><text fill="#000000" font-family="sans-serif" font-size="13" font-weight="bold" lengthAdjust="spacing" textLength="14" x="986.5" y="753.0518">19</text><text fill="#000000" font-family="sans-serif" font-size="13" lengthAdjust="spacing" textLength="86" x="1004.5" y="753.0518">interviewPoints</text><polygon fill="#181818" points="1577,785.6055,1587,789.6055,1577,793.6055,1581,789.6055" style="stroke:#181818;stroke-width:1.0;"/><line style="stroke:#181818;stroke-width:1.0;" x1="969.5" x2="1583" y1="789.6055" y2="789.6055"/><text fill="#000000" font-family="sans-serif" font-size="13" font-weight="bold" lengthAdjust="spacing" textLength="14" x="976.5" y="784.3428">20</text><text fill="#000000" font-family="sans-serif" font-size="13" lengthAdjust="spacing" textLength="175" x="994.5" y="784.3428">gradeInterview(interviewPoints)</text><polygon fill="#181818" points="1879.5,816.8965,1889.5,820.8965,1879.5,824.8965,1883.5,820.8965" style="stroke:#181818;stroke-width:1.0;"/><line style="stroke:#181818;stroke-width:1.0;" x1="1594" x2="1885.5" y1="820.8965" y2="820.8965"/><text fill="#000000" font-family="sans-serif" font-size="13" font-weight="bold" lengthAdjust="spacing" textLength="14" x="1601" y="815.6338">21</text><text fill="#000000" font-family="sans-serif" font-size="13" lengthAdjust="spacing" textLength="126" x="1619" y="815.6338">grade(interviewPoints)</text><polygon fill="#181818" points="1333,848.1875,1343,852.1875,1333,856.1875,1337,852.1875" style="stroke:#181818;stroke-width:1.0;"/><line style="stroke:#181818;stroke-width:1.0;" x1="964.5" x2="1339" y1="852.1875" y2="852.1875"/><text fill="#000000" font-family="sans-serif" font-size="13" font-weight="bold" lengthAdjust="spacing" textLength="14" x="971.5" y="846.9248">22</text><text fill="#000000" font-family="sans-serif" font-size="13" lengthAdjust="spacing" textLength="115" x="989.5" y="846.9248">save(jobApplication)</text><polygon fill="#181818" points="82.5,886.4785,72.5,890.4785,82.5,894.4785,78.5,890.4785" style="stroke:#181818;stroke-width:1.0;"/><line style="stroke:#181818;stroke-width:1.0;stroke-dasharray:2.0,2.0;" x1="76.5" x2="326.5" y1="890.4785" y2="890.4785"/><text fill="#000000" font-family="sans-serif" font-size="13" font-weight="bold" lengthAdjust="spacing" textLength="14" x="88.5" y="885.2158">23</text><text fill="#000000" font-family="sans-serif" font-size="13" lengthAdjust="spacing" textLength="86" x="106.5" y="885.2158">backs to menu</text><!--SRC=[lLR1Rjim3BthAtHR2YpDtIW2P4KBP43Hei6mIowApCJQR4aJvNJz-ybsOhkEhAZfjfjbaE-HVC-KFsNMQancCvqpQSiYl-Qgc27yAa5ocAQ2xGmh266bLR8iDc3SCxVAqDiIhIh0F339TkwrPiOABhI3eNU_WPSMbjA2sGjukTkpl6HMAFbjIMzkj044QUiNytbavgsIrgWy1-CGU7k8pbzLBpYuP6oU1fbVrUPHWnHozmnQeN0zlhfWqnvEunTQvuBNwD4v1muNbQg22Hb47OjgstjGAUGh3LniOrFw0RMMOiyidCWvEDFfFAngGXd-H6eLXIQCsWpMacgZE21IjQNGnkDQkhCu0Y7TEaCn-aDjg6hcqnKMOYN1ae8bz-oKLCG7NN0fs-2dZ25Chc9AwT185AKhpUktX6w5J4Cr-DA85sjwKVyaXJ1NN7_dxJB2-S4PLx8xxg5x4ugPSZxB1ThAYZsdeVDXPyMrrDN4APDfQsY47BXBat31Lz4aOvLTinvw_blEXT6mIJVWVsXX_mfiRFpbjJFGGgRVXSrQo8N45p3-6iTWoIZV-wpUmnZQtSyREu_pbq-aO9-7PKOfU20XkLAwtgYkjQms7UkWoFaYJvHrPOk1SADo3KIgmBghfyBHfLrP0wouDwfu1bIbuV1exaN-Pi-rIQHBdqPKrXUqmnWM5IbM07lGTUnKZzT_ShmDkvJ9WCsxz7kh_ireFJy27KK0EG10Gk3JOJijnPDoZ-YLmSFHR-UzefmozUPqcStTpsxgKwIXkjJqDUefsCVTDBPzaUrXydQ5NCLTiiST0kx-g_R8_xYQDumt5sq1iemZTBz-Vm00]--></g></svg>