<?xml version="1.0" encoding="us-ascii" standalone="no"?><svg xmlns="http://www.w3.org/2000/svg" xmlns:xlink="http://www.w3.org/1999/xlink" contentStyleType="text/css" height="1146px" preserveAspectRatio="none" style="width:1907px;height:1146px;background:#FFFFFF;" version="1.1" viewBox="0 0 1907 1146" width="1907px" zoomAndPan="magnify"><defs/><g><rect fill="#FFFFFF" height="937.0215" style="stroke:#181818;stroke-width:1.0;" width="10" x="306" y="116.9121"/><rect fill="#FFFFFF" height="187.7461" style="stroke:#181818;stroke-width:1.0;" width="10" x="869" y="179.4941"/><rect fill="#FFFFFF" height="187.7461" style="stroke:#181818;stroke-width:1.0;" width="10" x="869" y="478.4043"/><rect fill="#FFFFFF" height="219.0371" style="stroke:#181818;stroke-width:1.0;" width="10" x="869" y="794.6055"/><rect fill="#FFFFFF" height="31.291" style="stroke:#181818;stroke-width:1.0;" width="10" x="1442" y="304.6582"/><rect fill="#FFFFFF" height="31.291" style="stroke:#181818;stroke-width:1.0;" width="10" x="1442" y="951.0605"/><rect fill="#FFFFFF" height="31.291" style="stroke:#181818;stroke-width:1.0;" width="10" x="1663.5" y="603.5684"/><line style="stroke:#181818;stroke-width:0.5;stroke-dasharray:5.0,5.0;" x1="66" x2="66" y1="83.6211" y2="1062.9336"/><line style="stroke:#181818;stroke-width:0.5;stroke-dasharray:5.0,5.0;" x1="311" x2="311" y1="83.6211" y2="1062.9336"/><line style="stroke:#181818;stroke-width:0.5;stroke-dasharray:5.0,5.0;" x1="874" x2="874" y1="83.6211" y2="1062.9336"/><line style="stroke:#181818;stroke-width:0.5;stroke-dasharray:5.0,5.0;" x1="1150" x2="1150" y1="83.6211" y2="1062.9336"/><line style="stroke:#181818;stroke-width:0.5;stroke-dasharray:5.0,5.0;" x1="1293" x2="1293" y1="83.6211" y2="1062.9336"/><line style="stroke:#181818;stroke-width:0.5;stroke-dasharray:5.0,5.0;" x1="1447" x2="1447" y1="83.6211" y2="1062.9336"/><line style="stroke:#181818;stroke-width:0.5;stroke-dasharray:5.0,5.0;" x1="1668" x2="1668" y1="83.6211" y2="1062.9336"/><line style="stroke:#181818;stroke-width:0.5;stroke-dasharray:5.0,5.0;" x1="1856" x2="1856" y1="83.6211" y2="1062.9336"/><text fill="#000000" font-family="sans-serif" font-size="14" lengthAdjust="spacing" textLength="117" x="5" y="80.1074">CustomerManager</text><ellipse cx="66.5" cy="13.5" fill="#E2E2F0" rx="8" ry="8" style="stroke:#181818;stroke-width:0.5;"/><path d="M66.5,21.5 L66.5,48.5 M53.5,29.5 L79.5,29.5 M66.5,48.5 L53.5,63.5 M66.5,48.5 L79.5,63.5 " fill="none" style="stroke:#181818;stroke-width:0.5;"/><text fill="#000000" font-family="sans-serif" font-size="14" lengthAdjust="spacing" textLength="117" x="5" y="1077.041">CustomerManager</text><ellipse cx="66.5" cy="1089.0547" fill="#E2E2F0" rx="8" ry="8" style="stroke:#181818;stroke-width:0.5;"/><path d="M66.5,1097.0547 L66.5,1124.0547 M53.5,1105.0547 L79.5,1105.0547 M66.5,1124.0547 L53.5,1139.0547 M66.5,1124.0547 L79.5,1139.0547 " fill="none" style="stroke:#181818;stroke-width:0.5;"/><rect fill="#E2E2F0" height="51.2422" rx="2.5" ry="2.5" style="stroke:#181818;stroke-width:0.5;" width="346" x="138" y="31.3789"/><text fill="#000000" font-family="sans-serif" font-size="14" font-style="italic" lengthAdjust="spacing" textLength="95" x="263.5" y="53.4863">&#171;presentation&#187;</text><text fill="#000000" font-family="sans-serif" font-size="14" lengthAdjust="spacing" textLength="332" x="145" y="72.1074">SelectJobRequirementSpecificationForJobOpeningUI</text><rect fill="#E2E2F0" height="51.2422" rx="2.5" ry="2.5" style="stroke:#181818;stroke-width:0.5;" width="346" x="138" y="1061.9336"/><text fill="#000000" font-family="sans-serif" font-size="14" font-style="italic" lengthAdjust="spacing" textLength="95" x="263.5" y="1084.041">&#171;presentation&#187;</text><text fill="#000000" font-family="sans-serif" font-size="14" lengthAdjust="spacing" textLength="332" x="145" y="1102.6621">SelectJobRequirementSpecificationForJobOpeningUI</text><rect fill="#E2E2F0" height="51.2422" rx="2.5" ry="2.5" style="stroke:#181818;stroke-width:0.5;" width="396" x="676" y="31.3789"/><text fill="#000000" font-family="sans-serif" font-size="14" font-style="italic" lengthAdjust="spacing" textLength="84" x="832" y="53.4863">&#171;application&#187;</text><text fill="#000000" font-family="sans-serif" font-size="14" lengthAdjust="spacing" textLength="382" x="683" y="72.1074">SelectJobRequirementSpecificationForJobOpeningController</text><rect fill="#E2E2F0" height="51.2422" rx="2.5" ry="2.5" style="stroke:#181818;stroke-width:0.5;" width="396" x="676" y="1061.9336"/><text fill="#000000" font-family="sans-serif" font-size="14" font-style="italic" lengthAdjust="spacing" textLength="84" x="832" y="1084.041">&#171;application&#187;</text><text fill="#000000" font-family="sans-serif" font-size="14" lengthAdjust="spacing" textLength="382" x="683" y="1102.6621">SelectJobRequirementSpecificationForJobOpeningController</text><rect fill="#E2E2F0" height="32.6211" rx="2.5" ry="2.5" style="stroke:#181818;stroke-width:0.5;" width="136" x="1082" y="50"/><text fill="#000000" font-family="sans-serif" font-size="14" lengthAdjust="spacing" textLength="122" x="1089" y="72.1074">PersistenceContext</text><rect fill="#E2E2F0" height="32.6211" rx="2.5" ry="2.5" style="stroke:#181818;stroke-width:0.5;" width="136" x="1082" y="1061.9336"/><text fill="#000000" font-family="sans-serif" font-size="14" lengthAdjust="spacing" textLength="122" x="1089" y="1084.041">PersistenceContext</text><rect fill="#E2E2F0" height="32.6211" rx="2.5" ry="2.5" style="stroke:#181818;stroke-width:0.5;" width="130" x="1228" y="50"/><text fill="#000000" font-family="sans-serif" font-size="14" lengthAdjust="spacing" textLength="116" x="1235" y="72.1074">RepositoryFactory</text><rect fill="#E2E2F0" height="32.6211" rx="2.5" ry="2.5" style="stroke:#181818;stroke-width:0.5;" width="130" x="1228" y="1061.9336"/><text fill="#000000" font-family="sans-serif" font-size="14" lengthAdjust="spacing" textLength="116" x="1235" y="1084.041">RepositoryFactory</text><rect fill="#E2E2F0" height="51.2422" rx="2.5" ry="2.5" style="stroke:#181818;stroke-width:0.5;" width="158" x="1368" y="31.3789"/><text fill="#000000" font-family="sans-serif" font-size="14" font-style="italic" lengthAdjust="spacing" textLength="79" x="1407.5" y="53.4863">&#171;repository&#187;</text><text fill="#000000" font-family="sans-serif" font-size="14" lengthAdjust="spacing" textLength="144" x="1375" y="72.1074">JobOpeningRepository</text><rect fill="#E2E2F0" height="51.2422" rx="2.5" ry="2.5" style="stroke:#181818;stroke-width:0.5;" width="158" x="1368" y="1061.9336"/><text fill="#000000" font-family="sans-serif" font-size="14" font-style="italic" lengthAdjust="spacing" textLength="79" x="1407.5" y="1084.041">&#171;repository&#187;</text><text fill="#000000" font-family="sans-serif" font-size="14" lengthAdjust="spacing" textLength="144" x="1375" y="1102.6621">JobOpeningRepository</text><rect fill="#E2E2F0" height="51.2422" rx="2.5" ry="2.5" style="stroke:#181818;stroke-width:0.5;" width="265" x="1536" y="31.3789"/><text fill="#000000" font-family="sans-serif" font-size="14" font-style="italic" lengthAdjust="spacing" textLength="79" x="1629" y="53.4863">&#171;repository&#187;</text><text fill="#000000" font-family="sans-serif" font-size="14" lengthAdjust="spacing" textLength="251" x="1543" y="72.1074">JobRequirementSpecificationRepository</text><rect fill="#E2E2F0" height="51.2422" rx="2.5" ry="2.5" style="stroke:#181818;stroke-width:0.5;" width="265" x="1536" y="1061.9336"/><text fill="#000000" font-family="sans-serif" font-size="14" font-style="italic" lengthAdjust="spacing" textLength="79" x="1629" y="1084.041">&#171;repository&#187;</text><text fill="#000000" font-family="sans-serif" font-size="14" lengthAdjust="spacing" textLength="251" x="1543" y="1102.6621">JobRequirementSpecificationRepository</text><rect fill="#E2E2F0" height="51.2422" rx="2.5" ry="2.5" style="stroke:#181818;stroke-width:0.5;" width="90" x="1811" y="31.3789"/><text fill="#000000" font-family="sans-serif" font-size="14" font-style="italic" lengthAdjust="spacing" textLength="62" x="1825" y="53.4863">&#171;domain&#187;</text><text fill="#000000" font-family="sans-serif" font-size="14" lengthAdjust="spacing" textLength="76" x="1818" y="72.1074">JobOpening</text><rect fill="#E2E2F0" height="51.2422" rx="2.5" ry="2.5" style="stroke:#181818;stroke-width:0.5;" width="90" x="1811" y="1061.9336"/><text fill="#000000" font-family="sans-serif" font-size="14" font-style="italic" lengthAdjust="spacing" textLength="62" x="1825" y="1084.041">&#171;domain&#187;</text><text fill="#000000" font-family="sans-serif" font-size="14" lengthAdjust="spacing" textLength="76" x="1818" y="1102.6621">JobOpening</text><rect fill="#FFFFFF" height="937.0215" style="stroke:#181818;stroke-width:1.0;" width="10" x="306" y="116.9121"/><rect fill="#FFFFFF" height="187.7461" style="stroke:#181818;stroke-width:1.0;" width="10" x="869" y="179.4941"/><rect fill="#FFFFFF" height="187.7461" style="stroke:#181818;stroke-width:1.0;" width="10" x="869" y="478.4043"/><rect fill="#FFFFFF" height="219.0371" style="stroke:#181818;stroke-width:1.0;" width="10" x="869" y="794.6055"/><rect fill="#FFFFFF" height="31.291" style="stroke:#181818;stroke-width:1.0;" width="10" x="1442" y="304.6582"/><rect fill="#FFFFFF" height="31.291" style="stroke:#181818;stroke-width:1.0;" width="10" x="1442" y="951.0605"/><rect fill="#FFFFFF" height="31.291" style="stroke:#181818;stroke-width:1.0;" width="10" x="1663.5" y="603.5684"/><polygon fill="#181818" points="294,112.9121,304,116.9121,294,120.9121,298,116.9121" style="stroke:#181818;stroke-width:1.0;"/><line style="stroke:#181818;stroke-width:1.0;" x1="0" x2="300" y1="116.9121" y2="116.9121"/><text fill="#000000" font-family="sans-serif" font-size="13" lengthAdjust="spacing" textLength="54" x="7" y="111.6494">doShow()</text><polygon fill="#181818" points="862,144.2031,872,148.2031,862,152.2031,866,148.2031" style="stroke:#181818;stroke-width:1.0;"/><line style="stroke:#181818;stroke-width:1.0;" x1="316" x2="868" y1="148.2031" y2="148.2031"/><text fill="#000000" font-family="sans-serif" font-size="13" lengthAdjust="spacing" textLength="36" x="323" y="142.9404">create</text><polygon fill="#181818" points="857,175.4941,867,179.4941,857,183.4941,861,179.4941" style="stroke:#181818;stroke-width:1.0;"/><line style="stroke:#181818;stroke-width:1.0;" x1="316" x2="863" y1="179.4941" y2="179.4941"/><text fill="#000000" font-family="sans-serif" font-size="13" lengthAdjust="spacing" textLength="100" x="323" y="174.2314">listJobOpenings()</text><polygon fill="#181818" points="1138,206.7852,1148,210.7852,1138,214.7852,1142,210.7852" style="stroke:#181818;stroke-width:1.0;"/><line style="stroke:#181818;stroke-width:1.0;" x1="879" x2="1144" y1="210.7852" y2="210.7852"/><text fill="#000000" font-family="sans-serif" font-size="13" lengthAdjust="spacing" textLength="75" x="886" y="205.5225">repositories()</text><polygon fill="#181818" points="1281,238.0762,1291,242.0762,1281,246.0762,1285,242.0762" style="stroke:#181818;stroke-width:1.0;"/><line style="stroke:#181818;stroke-width:1.0;" x1="1150" x2="1287" y1="242.0762" y2="242.0762"/><text fill="#000000" font-family="sans-serif" font-size="13" lengthAdjust="spacing" textLength="36" x="1157" y="236.8135">create</text><polygon fill="#181818" points="1435,269.3672,1445,273.3672,1435,277.3672,1439,273.3672" style="stroke:#181818;stroke-width:1.0;"/><line style="stroke:#181818;stroke-width:1.0;" x1="1293" x2="1441" y1="273.3672" y2="273.3672"/><text fill="#000000" font-family="sans-serif" font-size="13" lengthAdjust="spacing" textLength="80" x="1300" y="268.1045">jobOpenings()</text><polygon fill="#181818" points="1430,300.6582,1440,304.6582,1430,308.6582,1434,304.6582" style="stroke:#181818;stroke-width:1.0;"/><line style="stroke:#181818;stroke-width:1.0;" x1="879" x2="1436" y1="304.6582" y2="304.6582"/><text fill="#000000" font-family="sans-serif" font-size="13" lengthAdjust="spacing" textLength="43" x="886" y="299.3955">findAll()</text><polygon fill="#181818" points="890,331.9492,880,335.9492,890,339.9492,886,335.9492" style="stroke:#181818;stroke-width:1.0;"/><line style="stroke:#181818;stroke-width:1.0;stroke-dasharray:2.0,2.0;" x1="884" x2="1446" y1="335.9492" y2="335.9492"/><text fill="#000000" font-family="sans-serif" font-size="13" lengthAdjust="spacing" textLength="105" x="896" y="330.6865">List&lt;JobOpening&gt;</text><polygon fill="#181818" points="327,363.2402,317,367.2402,327,371.2402,323,367.2402" style="stroke:#181818;stroke-width:1.0;"/><line style="stroke:#181818;stroke-width:1.0;stroke-dasharray:2.0,2.0;" x1="321" x2="873" y1="367.2402" y2="367.2402"/><text fill="#000000" font-family="sans-serif" font-size="13" lengthAdjust="spacing" textLength="105" x="333" y="361.9775">List&lt;JobOpening&gt;</text><polygon fill="#181818" points="77.5,411.8223,67.5,415.8223,77.5,419.8223,73.5,415.8223" style="stroke:#181818;stroke-width:1.0;"/><line style="stroke:#181818;stroke-width:1.0;stroke-dasharray:2.0,2.0;" x1="71.5" x2="305" y1="415.8223" y2="415.8223"/><text fill="#000000" font-family="sans-serif" font-size="13" lengthAdjust="spacing" textLength="155" x="83.5" y="393.2686">shows list of Job Openings</text><text fill="#000000" font-family="sans-serif" font-size="13" lengthAdjust="spacing" textLength="132" x="83.5" y="410.5596">and asks to select one</text><polygon fill="#181818" points="294,443.1133,304,447.1133,294,451.1133,298,447.1133" style="stroke:#181818;stroke-width:1.0;"/><line style="stroke:#181818;stroke-width:1.0;" x1="66.5" x2="300" y1="447.1133" y2="447.1133"/><text fill="#000000" font-family="sans-serif" font-size="13" lengthAdjust="spacing" textLength="143" x="73.5" y="441.8506">selects one Job Opening</text><polygon fill="#181818" points="857,474.4043,867,478.4043,857,482.4043,861,478.4043" style="stroke:#181818;stroke-width:1.0;"/><line style="stroke:#181818;stroke-width:1.0;" x1="316" x2="863" y1="478.4043" y2="478.4043"/><text fill="#000000" font-family="sans-serif" font-size="13" lengthAdjust="spacing" textLength="199" x="323" y="473.1416">listJobRequirementsSpecification()</text><polygon fill="#181818" points="1138,505.6953,1148,509.6953,1138,513.6953,1142,509.6953" style="stroke:#181818;stroke-width:1.0;"/><line style="stroke:#181818;stroke-width:1.0;" x1="879" x2="1144" y1="509.6953" y2="509.6953"/><text fill="#000000" font-family="sans-serif" font-size="13" lengthAdjust="spacing" textLength="75" x="886" y="504.4326">repositories()</text><polygon fill="#181818" points="1281,536.9863,1291,540.9863,1281,544.9863,1285,540.9863" style="stroke:#181818;stroke-width:1.0;"/><line style="stroke:#181818;stroke-width:1.0;" x1="1150" x2="1287" y1="540.9863" y2="540.9863"/><text fill="#000000" font-family="sans-serif" font-size="13" lengthAdjust="spacing" textLength="36" x="1157" y="535.7236">create</text><polygon fill="#181818" points="1656.5,568.2773,1666.5,572.2773,1656.5,576.2773,1660.5,572.2773" style="stroke:#181818;stroke-width:1.0;"/><line style="stroke:#181818;stroke-width:1.0;" x1="1293" x2="1662.5" y1="572.2773" y2="572.2773"/><text fill="#000000" font-family="sans-serif" font-size="13" lengthAdjust="spacing" textLength="36" x="1300" y="567.0146">create</text><polygon fill="#181818" points="1651.5,599.5684,1661.5,603.5684,1651.5,607.5684,1655.5,603.5684" style="stroke:#181818;stroke-width:1.0;"/><line style="stroke:#181818;stroke-width:1.0;" x1="879" x2="1657.5" y1="603.5684" y2="603.5684"/><text fill="#000000" font-family="sans-serif" font-size="13" lengthAdjust="spacing" textLength="43" x="886" y="598.3057">findAll()</text><polygon fill="#181818" points="890,630.8594,880,634.8594,890,638.8594,886,634.8594" style="stroke:#181818;stroke-width:1.0;"/><line style="stroke:#181818;stroke-width:1.0;stroke-dasharray:2.0,2.0;" x1="884" x2="1667.5" y1="634.8594" y2="634.8594"/><text fill="#000000" font-family="sans-serif" font-size="13" lengthAdjust="spacing" textLength="204" x="896" y="629.5967">List&lt;JobRequirementSpecification&gt;</text><polygon fill="#181818" points="327,662.1504,317,666.1504,327,670.1504,323,666.1504" style="stroke:#181818;stroke-width:1.0;"/><line style="stroke:#181818;stroke-width:1.0;stroke-dasharray:2.0,2.0;" x1="321" x2="873" y1="666.1504" y2="666.1504"/><text fill="#000000" font-family="sans-serif" font-size="13" lengthAdjust="spacing" textLength="204" x="333" y="660.8877">List&lt;JobRequirementSpecification&gt;</text><polygon fill="#181818" points="77.5,710.7324,67.5,714.7324,77.5,718.7324,73.5,714.7324" style="stroke:#181818;stroke-width:1.0;"/><line style="stroke:#181818;stroke-width:1.0;stroke-dasharray:2.0,2.0;" x1="71.5" x2="305" y1="714.7324" y2="714.7324"/><text fill="#000000" font-family="sans-serif" font-size="13" lengthAdjust="spacing" textLength="180" x="83.5" y="692.1787">shows list of Job Requirements</text><text fill="#000000" font-family="sans-serif" font-size="13" lengthAdjust="spacing" textLength="210" x="83.5" y="709.4697">Specification and asks to select one</text><polygon fill="#181818" points="294,759.3145,304,763.3145,294,767.3145,298,763.3145" style="stroke:#181818;stroke-width:1.0;"/><line style="stroke:#181818;stroke-width:1.0;" x1="66.5" x2="300" y1="763.3145" y2="763.3145"/><text fill="#000000" font-family="sans-serif" font-size="13" lengthAdjust="spacing" textLength="91" x="73.5" y="740.7607">selects one Job</text><text fill="#000000" font-family="sans-serif" font-size="13" lengthAdjust="spacing" textLength="151" x="73.5" y="758.0518">Requirement Specification</text><polygon fill="#181818" points="857,790.6055,867,794.6055,857,798.6055,861,794.6055" style="stroke:#181818;stroke-width:1.0;"/><line style="stroke:#181818;stroke-width:1.0;" x1="316" x2="863" y1="794.6055" y2="794.6055"/><text fill="#000000" font-family="sans-serif" font-size="13" lengthAdjust="spacing" textLength="534" x="323" y="789.3428">selectJobRequirementSpecificationForJobOpening(requirementSpecification, jobOpening)</text><polygon fill="#181818" points="1844,821.8965,1854,825.8965,1844,829.8965,1848,825.8965" style="stroke:#181818;stroke-width:1.0;"/><line style="stroke:#181818;stroke-width:1.0;" x1="879" x2="1850" y1="825.8965" y2="825.8965"/><text fill="#000000" font-family="sans-serif" font-size="13" lengthAdjust="spacing" textLength="374" x="886" y="820.6338">selectJobRequirementSpecification(requirementSpecification)</text><polygon fill="#181818" points="1138,853.1875,1148,857.1875,1138,861.1875,1142,857.1875" style="stroke:#181818;stroke-width:1.0;"/><line style="stroke:#181818;stroke-width:1.0;" x1="879" x2="1144" y1="857.1875" y2="857.1875"/><text fill="#000000" font-family="sans-serif" font-size="13" lengthAdjust="spacing" textLength="75" x="886" y="851.9248">repositories()</text><polygon fill="#181818" points="1281,884.4785,1291,888.4785,1281,892.4785,1285,888.4785" style="stroke:#181818;stroke-width:1.0;"/><line style="stroke:#181818;stroke-width:1.0;" x1="1150" x2="1287" y1="888.4785" y2="888.4785"/><text fill="#000000" font-family="sans-serif" font-size="13" lengthAdjust="spacing" textLength="36" x="1157" y="883.2158">create</text><polygon fill="#181818" points="1435,915.7695,1445,919.7695,1435,923.7695,1439,919.7695" style="stroke:#181818;stroke-width:1.0;"/><line style="stroke:#181818;stroke-width:1.0;" x1="1293" x2="1441" y1="919.7695" y2="919.7695"/><text fill="#000000" font-family="sans-serif" font-size="13" lengthAdjust="spacing" textLength="36" x="1300" y="914.5068">create</text><polygon fill="#181818" points="1430,947.0605,1440,951.0605,1430,955.0605,1434,951.0605" style="stroke:#181818;stroke-width:1.0;"/><line style="stroke:#181818;stroke-width:1.0;" x1="879" x2="1436" y1="951.0605" y2="951.0605"/><text fill="#000000" font-family="sans-serif" font-size="13" lengthAdjust="spacing" textLength="99" x="886" y="945.7979">save(jobOpening)</text><polygon fill="#181818" points="890,978.3516,880,982.3516,890,986.3516,886,982.3516" style="stroke:#181818;stroke-width:1.0;"/><line style="stroke:#181818;stroke-width:1.0;stroke-dasharray:2.0,2.0;" x1="884" x2="1446" y1="982.3516" y2="982.3516"/><text fill="#000000" font-family="sans-serif" font-size="13" lengthAdjust="spacing" textLength="65" x="896" y="977.0889">jobOpening</text><polygon fill="#181818" points="327,1009.6426,317,1013.6426,327,1017.6426,323,1013.6426" style="stroke:#181818;stroke-width:1.0;"/><line style="stroke:#181818;stroke-width:1.0;stroke-dasharray:2.0,2.0;" x1="321" x2="873" y1="1013.6426" y2="1013.6426"/><text fill="#000000" font-family="sans-serif" font-size="13" lengthAdjust="spacing" textLength="65" x="333" y="1008.3799">jobOpening</text><polygon fill="#181818" points="77.5,1040.9336,67.5,1044.9336,77.5,1048.9336,73.5,1044.9336" style="stroke:#181818;stroke-width:1.0;"/><line style="stroke:#181818;stroke-width:1.0;stroke-dasharray:2.0,2.0;" x1="71.5" x2="305" y1="1044.9336" y2="1044.9336"/><text fill="#000000" font-family="sans-serif" font-size="13" lengthAdjust="spacing" textLength="86" x="83.5" y="1039.6709">backs to menu</text><!--SRC=[vLTDJm8n4BttL_Gc929tGaYCYOb6ev5uurAx0rIxRUqKbN_lBAZxmGAxYm6CHpBpthoPJX_Tasa83dlThjF2X5cipwIDkmYlCp0IEf4I4ozYnfYGmNf-CSDWO_2tmeW9UCQSy459vGZCXw11Xclxz41mvI464uOEf1ehAOAovj9wYjuvCCfC7gzul-yy86KjeeF13cmNrWHljGPFhC8v_PLK8Bq7Zmf3qbk2W8-G2p-0iwYeqVdbejzvBffMI_Eecl_vKIYsGNjbWg-2b1NPMAYa7zOPr1vrZqTsEBNlhNPoaEfD1AZDmMgVRssXcLFiSUc1PEwxggRrI4FOV60fAsiiXrfPtLWI-RCn2XA59Jc4N5dcTAQh8SelNUyUVyuDOvTMrXGOAnETQvsTT5acAuLtTZlj6nfRFuqDM0IRHJJlly6jtIAmyJusk5Ealk3z90x9KN1nOxWT9_FYtvioCi94NE0Byc0vBifnQu0LIPfDPKc82MEsB3kGMMI0c4F-B_Uey6VNqDLNVAHIgN9ZsGvbrGhyalMiGnQzg8BkGvbJfHQEqAsoztPaSfHyh_urCXaipu7txcbO2zfwNfzucdax7De8Cq_f2Yrkwghzjvzpl-E_PSmetg1LUk9xUywbrO_k8LSkxU2c-2JaqkC8FwFF_4y0]--></g></svg>