<?xml version="1.0" encoding="us-ascii" standalone="no"?><svg xmlns="http://www.w3.org/2000/svg" xmlns:xlink="http://www.w3.org/1999/xlink" contentStyleType="text/css" height="1146px" preserveAspectRatio="none" style="width:1852px;height:1146px;background:#FFFFFF;" version="1.1" viewBox="0 0 1852 1146" width="1852px" zoomAndPan="magnify"><defs/><g><rect fill="#FFFFFF" height="937.0215" style="stroke:#181818;stroke-width:1.0;" width="10" x="300.5" y="116.9121"/><rect fill="#FFFFFF" height="187.7461" style="stroke:#181818;stroke-width:1.0;" width="10" x="863.5" y="179.4941"/><rect fill="#FFFFFF" height="187.7461" style="stroke:#181818;stroke-width:1.0;" width="10" x="863.5" y="478.4043"/><rect fill="#FFFFFF" height="219.0371" style="stroke:#181818;stroke-width:1.0;" width="10" x="863.5" y="794.6055"/><rect fill="#FFFFFF" height="31.291" style="stroke:#181818;stroke-width:1.0;" width="10" x="1387.5" y="304.6582"/><rect fill="#FFFFFF" height="31.291" style="stroke:#181818;stroke-width:1.0;" width="10" x="1387.5" y="951.0605"/><rect fill="#FFFFFF" height="31.291" style="stroke:#181818;stroke-width:1.0;" width="10" x="1609" y="603.5684"/><line style="stroke:#181818;stroke-width:0.5;stroke-dasharray:5.0,5.0;" x1="66" x2="66" y1="83.6211" y2="1062.9336"/><line style="stroke:#181818;stroke-width:0.5;stroke-dasharray:5.0,5.0;" x1="305.5" x2="305.5" y1="83.6211" y2="1062.9336"/><line style="stroke:#181818;stroke-width:0.5;stroke-dasharray:5.0,5.0;" x1="868.5" x2="868.5" y1="83.6211" y2="1062.9336"/><line style="stroke:#181818;stroke-width:0.5;stroke-dasharray:5.0,5.0;" x1="1095.5" x2="1095.5" y1="83.6211" y2="1062.9336"/><line style="stroke:#181818;stroke-width:0.5;stroke-dasharray:5.0,5.0;" x1="1238.5" x2="1238.5" y1="83.6211" y2="1062.9336"/><line style="stroke:#181818;stroke-width:0.5;stroke-dasharray:5.0,5.0;" x1="1392.5" x2="1392.5" y1="83.6211" y2="1062.9336"/><line style="stroke:#181818;stroke-width:0.5;stroke-dasharray:5.0,5.0;" x1="1613.5" x2="1613.5" y1="83.6211" y2="1062.9336"/><line style="stroke:#181818;stroke-width:0.5;stroke-dasharray:5.0,5.0;" x1="1801.5" x2="1801.5" y1="83.6211" y2="1062.9336"/><text fill="#000000" font-family="sans-serif" font-size="14" lengthAdjust="spacing" textLength="117" x="5" y="80.1074">CustomerManager</text><ellipse cx="66.5" cy="13.5" fill="#E2E2F0" rx="8" ry="8" style="stroke:#181818;stroke-width:0.5;"/><path d="M66.5,21.5 L66.5,48.5 M53.5,29.5 L79.5,29.5 M66.5,48.5 L53.5,63.5 M66.5,48.5 L79.5,63.5 " fill="none" style="stroke:#181818;stroke-width:0.5;"/><text fill="#000000" font-family="sans-serif" font-size="14" lengthAdjust="spacing" textLength="117" x="5" y="1077.041">CustomerManager</text><ellipse cx="66.5" cy="1089.0547" fill="#E2E2F0" rx="8" ry="8" style="stroke:#181818;stroke-width:0.5;"/><path d="M66.5,1097.0547 L66.5,1124.0547 M53.5,1105.0547 L79.5,1105.0547 M66.5,1124.0547 L53.5,1139.0547 M66.5,1124.0547 L79.5,1139.0547 " fill="none" style="stroke:#181818;stroke-width:0.5;"/><rect fill="#E2E2F0" height="51.2422" rx="2.5" ry="2.5" style="stroke:#181818;stroke-width:0.5;" width="248" x="181.5" y="31.3789"/><text fill="#000000" font-family="sans-serif" font-size="14" font-style="italic" lengthAdjust="spacing" textLength="95" x="258" y="53.4863">&#171;presentation&#187;</text><text fill="#000000" font-family="sans-serif" font-size="14" lengthAdjust="spacing" textLength="234" x="188.5" y="72.1074">SelectJobRequirementSpecificationUI</text><rect fill="#E2E2F0" height="51.2422" rx="2.5" ry="2.5" style="stroke:#181818;stroke-width:0.5;" width="248" x="181.5" y="1061.9336"/><text fill="#000000" font-family="sans-serif" font-size="14" font-style="italic" lengthAdjust="spacing" textLength="95" x="258" y="1084.041">&#171;presentation&#187;</text><text fill="#000000" font-family="sans-serif" font-size="14" lengthAdjust="spacing" textLength="234" x="188.5" y="1102.6621">SelectJobRequirementSpecificationUI</text><rect fill="#E2E2F0" height="51.2422" rx="2.5" ry="2.5" style="stroke:#181818;stroke-width:0.5;" width="298" x="719.5" y="31.3789"/><text fill="#000000" font-family="sans-serif" font-size="14" font-style="italic" lengthAdjust="spacing" textLength="84" x="826.5" y="53.4863">&#171;application&#187;</text><text fill="#000000" font-family="sans-serif" font-size="14" lengthAdjust="spacing" textLength="284" x="726.5" y="72.1074">SelectJobRequirementSpecificationController</text><rect fill="#E2E2F0" height="51.2422" rx="2.5" ry="2.5" style="stroke:#181818;stroke-width:0.5;" width="298" x="719.5" y="1061.9336"/><text fill="#000000" font-family="sans-serif" font-size="14" font-style="italic" lengthAdjust="spacing" textLength="84" x="826.5" y="1084.041">&#171;application&#187;</text><text fill="#000000" font-family="sans-serif" font-size="14" lengthAdjust="spacing" textLength="284" x="726.5" y="1102.6621">SelectJobRequirementSpecificationController</text><rect fill="#E2E2F0" height="32.6211" rx="2.5" ry="2.5" style="stroke:#181818;stroke-width:0.5;" width="136" x="1027.5" y="50"/><text fill="#000000" font-family="sans-serif" font-size="14" lengthAdjust="spacing" textLength="122" x="1034.5" y="72.1074">PersistenceContext</text><rect fill="#E2E2F0" height="32.6211" rx="2.5" ry="2.5" style="stroke:#181818;stroke-width:0.5;" width="136" x="1027.5" y="1061.9336"/><text fill="#000000" font-family="sans-serif" font-size="14" lengthAdjust="spacing" textLength="122" x="1034.5" y="1084.041">PersistenceContext</text><rect fill="#E2E2F0" height="32.6211" rx="2.5" ry="2.5" style="stroke:#181818;stroke-width:0.5;" width="130" x="1173.5" y="50"/><text fill="#000000" font-family="sans-serif" font-size="14" lengthAdjust="spacing" textLength="116" x="1180.5" y="72.1074">RepositoryFactory</text><rect fill="#E2E2F0" height="32.6211" rx="2.5" ry="2.5" style="stroke:#181818;stroke-width:0.5;" width="130" x="1173.5" y="1061.9336"/><text fill="#000000" font-family="sans-serif" font-size="14" lengthAdjust="spacing" textLength="116" x="1180.5" y="1084.041">RepositoryFactory</text><rect fill="#E2E2F0" height="51.2422" rx="2.5" ry="2.5" style="stroke:#181818;stroke-width:0.5;" width="158" x="1313.5" y="31.3789"/><text fill="#000000" font-family="sans-serif" font-size="14" font-style="italic" lengthAdjust="spacing" textLength="79" x="1353" y="53.4863">&#171;repository&#187;</text><text fill="#000000" font-family="sans-serif" font-size="14" lengthAdjust="spacing" textLength="144" x="1320.5" y="72.1074">JobOpeningRepository</text><rect fill="#E2E2F0" height="51.2422" rx="2.5" ry="2.5" style="stroke:#181818;stroke-width:0.5;" width="158" x="1313.5" y="1061.9336"/><text fill="#000000" font-family="sans-serif" font-size="14" font-style="italic" lengthAdjust="spacing" textLength="79" x="1353" y="1084.041">&#171;repository&#187;</text><text fill="#000000" font-family="sans-serif" font-size="14" lengthAdjust="spacing" textLength="144" x="1320.5" y="1102.6621">JobOpeningRepository</text><rect fill="#E2E2F0" height="51.2422" rx="2.5" ry="2.5" style="stroke:#181818;stroke-width:0.5;" width="265" x="1481.5" y="31.3789"/><text fill="#000000" font-family="sans-serif" font-size="14" font-style="italic" lengthAdjust="spacing" textLength="79" x="1574.5" y="53.4863">&#171;repository&#187;</text><text fill="#000000" font-family="sans-serif" font-size="14" lengthAdjust="spacing" textLength="251" x="1488.5" y="72.1074">JobRequirementSpecificationRepository</text><rect fill="#E2E2F0" height="51.2422" rx="2.5" ry="2.5" style="stroke:#181818;stroke-width:0.5;" width="265" x="1481.5" y="1061.9336"/><text fill="#000000" font-family="sans-serif" font-size="14" font-style="italic" lengthAdjust="spacing" textLength="79" x="1574.5" y="1084.041">&#171;repository&#187;</text><text fill="#000000" font-family="sans-serif" font-size="14" lengthAdjust="spacing" textLength="251" x="1488.5" y="1102.6621">JobRequirementSpecificationRepository</text><rect fill="#E2E2F0" height="51.2422" rx="2.5" ry="2.5" style="stroke:#181818;stroke-width:0.5;" width="90" x="1756.5" y="31.3789"/><text fill="#000000" font-family="sans-serif" font-size="14" font-style="italic" lengthAdjust="spacing" textLength="62" x="1770.5" y="53.4863">&#171;domain&#187;</text><text fill="#000000" font-family="sans-serif" font-size="14" lengthAdjust="spacing" textLength="76" x="1763.5" y="72.1074">JobOpening</text><rect fill="#E2E2F0" height="51.2422" rx="2.5" ry="2.5" style="stroke:#181818;stroke-width:0.5;" width="90" x="1756.5" y="1061.9336"/><text fill="#000000" font-family="sans-serif" font-size="14" font-style="italic" lengthAdjust="spacing" textLength="62" x="1770.5" y="1084.041">&#171;domain&#187;</text><text fill="#000000" font-family="sans-serif" font-size="14" lengthAdjust="spacing" textLength="76" x="1763.5" y="1102.6621">JobOpening</text><rect fill="#FFFFFF" height="937.0215" style="stroke:#181818;stroke-width:1.0;" width="10" x="300.5" y="116.9121"/><rect fill="#FFFFFF" height="187.7461" style="stroke:#181818;stroke-width:1.0;" width="10" x="863.5" y="179.4941"/><rect fill="#FFFFFF" height="187.7461" style="stroke:#181818;stroke-width:1.0;" width="10" x="863.5" y="478.4043"/><rect fill="#FFFFFF" height="219.0371" style="stroke:#181818;stroke-width:1.0;" width="10" x="863.5" y="794.6055"/><rect fill="#FFFFFF" height="31.291" style="stroke:#181818;stroke-width:1.0;" width="10" x="1387.5" y="304.6582"/><rect fill="#FFFFFF" height="31.291" style="stroke:#181818;stroke-width:1.0;" width="10" x="1387.5" y="951.0605"/><rect fill="#FFFFFF" height="31.291" style="stroke:#181818;stroke-width:1.0;" width="10" x="1609" y="603.5684"/><polygon fill="#181818" points="288.5,112.9121,298.5,116.9121,288.5,120.9121,292.5,116.9121" style="stroke:#181818;stroke-width:1.0;"/><line style="stroke:#181818;stroke-width:1.0;" x1="0" x2="294.5" y1="116.9121" y2="116.9121"/><text fill="#000000" font-family="sans-serif" font-size="13" lengthAdjust="spacing" textLength="54" x="7" y="111.6494">doShow()</text><polygon fill="#181818" points="856.5,144.2031,866.5,148.2031,856.5,152.2031,860.5,148.2031" style="stroke:#181818;stroke-width:1.0;"/><line style="stroke:#181818;stroke-width:1.0;" x1="310.5" x2="862.5" y1="148.2031" y2="148.2031"/><text fill="#000000" font-family="sans-serif" font-size="13" lengthAdjust="spacing" textLength="36" x="317.5" y="142.9404">create</text><polygon fill="#181818" points="851.5,175.4941,861.5,179.4941,851.5,183.4941,855.5,179.4941" style="stroke:#181818;stroke-width:1.0;"/><line style="stroke:#181818;stroke-width:1.0;" x1="310.5" x2="857.5" y1="179.4941" y2="179.4941"/><text fill="#000000" font-family="sans-serif" font-size="13" lengthAdjust="spacing" textLength="100" x="317.5" y="174.2314">listJobOpenings()</text><polygon fill="#181818" points="1083.5,206.7852,1093.5,210.7852,1083.5,214.7852,1087.5,210.7852" style="stroke:#181818;stroke-width:1.0;"/><line style="stroke:#181818;stroke-width:1.0;" x1="873.5" x2="1089.5" y1="210.7852" y2="210.7852"/><text fill="#000000" font-family="sans-serif" font-size="13" lengthAdjust="spacing" textLength="75" x="880.5" y="205.5225">repositories()</text><polygon fill="#181818" points="1226.5,238.0762,1236.5,242.0762,1226.5,246.0762,1230.5,242.0762" style="stroke:#181818;stroke-width:1.0;"/><line style="stroke:#181818;stroke-width:1.0;" x1="1095.5" x2="1232.5" y1="242.0762" y2="242.0762"/><text fill="#000000" font-family="sans-serif" font-size="13" lengthAdjust="spacing" textLength="36" x="1102.5" y="236.8135">create</text><polygon fill="#181818" points="1380.5,269.3672,1390.5,273.3672,1380.5,277.3672,1384.5,273.3672" style="stroke:#181818;stroke-width:1.0;"/><line style="stroke:#181818;stroke-width:1.0;" x1="1238.5" x2="1386.5" y1="273.3672" y2="273.3672"/><text fill="#000000" font-family="sans-serif" font-size="13" lengthAdjust="spacing" textLength="80" x="1245.5" y="268.1045">jobOpenings()</text><polygon fill="#181818" points="1375.5,300.6582,1385.5,304.6582,1375.5,308.6582,1379.5,304.6582" style="stroke:#181818;stroke-width:1.0;"/><line style="stroke:#181818;stroke-width:1.0;" x1="873.5" x2="1381.5" y1="304.6582" y2="304.6582"/><text fill="#000000" font-family="sans-serif" font-size="13" lengthAdjust="spacing" textLength="43" x="880.5" y="299.3955">findAll()</text><polygon fill="#181818" points="884.5,331.9492,874.5,335.9492,884.5,339.9492,880.5,335.9492" style="stroke:#181818;stroke-width:1.0;"/><line style="stroke:#181818;stroke-width:1.0;stroke-dasharray:2.0,2.0;" x1="878.5" x2="1391.5" y1="335.9492" y2="335.9492"/><text fill="#000000" font-family="sans-serif" font-size="13" lengthAdjust="spacing" textLength="105" x="890.5" y="330.6865">List&lt;JobOpening&gt;</text><polygon fill="#181818" points="321.5,363.2402,311.5,367.2402,321.5,371.2402,317.5,367.2402" style="stroke:#181818;stroke-width:1.0;"/><line style="stroke:#181818;stroke-width:1.0;stroke-dasharray:2.0,2.0;" x1="315.5" x2="867.5" y1="367.2402" y2="367.2402"/><text fill="#000000" font-family="sans-serif" font-size="13" lengthAdjust="spacing" textLength="105" x="327.5" y="361.9775">List&lt;JobOpening&gt;</text><polygon fill="#181818" points="77.5,411.8223,67.5,415.8223,77.5,419.8223,73.5,415.8223" style="stroke:#181818;stroke-width:1.0;"/><line style="stroke:#181818;stroke-width:1.0;stroke-dasharray:2.0,2.0;" x1="71.5" x2="299.5" y1="415.8223" y2="415.8223"/><text fill="#000000" font-family="sans-serif" font-size="13" lengthAdjust="spacing" textLength="155" x="83.5" y="393.2686">shows list of Job Openings</text><text fill="#000000" font-family="sans-serif" font-size="13" lengthAdjust="spacing" textLength="132" x="83.5" y="410.5596">and asks to select one</text><polygon fill="#181818" points="288.5,443.1133,298.5,447.1133,288.5,451.1133,292.5,447.1133" style="stroke:#181818;stroke-width:1.0;"/><line style="stroke:#181818;stroke-width:1.0;" x1="66.5" x2="294.5" y1="447.1133" y2="447.1133"/><text fill="#000000" font-family="sans-serif" font-size="13" lengthAdjust="spacing" textLength="143" x="73.5" y="441.8506">selects one Job Opening</text><polygon fill="#181818" points="851.5,474.4043,861.5,478.4043,851.5,482.4043,855.5,478.4043" style="stroke:#181818;stroke-width:1.0;"/><line style="stroke:#181818;stroke-width:1.0;" x1="310.5" x2="857.5" y1="478.4043" y2="478.4043"/><text fill="#000000" font-family="sans-serif" font-size="13" lengthAdjust="spacing" textLength="199" x="317.5" y="473.1416">listJobRequirementsSpecification()</text><polygon fill="#181818" points="1083.5,505.6953,1093.5,509.6953,1083.5,513.6953,1087.5,509.6953" style="stroke:#181818;stroke-width:1.0;"/><line style="stroke:#181818;stroke-width:1.0;" x1="873.5" x2="1089.5" y1="509.6953" y2="509.6953"/><text fill="#000000" font-family="sans-serif" font-size="13" lengthAdjust="spacing" textLength="75" x="880.5" y="504.4326">repositories()</text><polygon fill="#181818" points="1226.5,536.9863,1236.5,540.9863,1226.5,544.9863,1230.5,540.9863" style="stroke:#181818;stroke-width:1.0;"/><line style="stroke:#181818;stroke-width:1.0;" x1="1095.5" x2="1232.5" y1="540.9863" y2="540.9863"/><text fill="#000000" font-family="sans-serif" font-size="13" lengthAdjust="spacing" textLength="36" x="1102.5" y="535.7236">create</text><polygon fill="#181818" points="1602,568.2773,1612,572.2773,1602,576.2773,1606,572.2773" style="stroke:#181818;stroke-width:1.0;"/><line style="stroke:#181818;stroke-width:1.0;" x1="1238.5" x2="1608" y1="572.2773" y2="572.2773"/><text fill="#000000" font-family="sans-serif" font-size="13" lengthAdjust="spacing" textLength="36" x="1245.5" y="567.0146">create</text><polygon fill="#181818" points="1597,599.5684,1607,603.5684,1597,607.5684,1601,603.5684" style="stroke:#181818;stroke-width:1.0;"/><line style="stroke:#181818;stroke-width:1.0;" x1="873.5" x2="1603" y1="603.5684" y2="603.5684"/><text fill="#000000" font-family="sans-serif" font-size="13" lengthAdjust="spacing" textLength="43" x="880.5" y="598.3057">findAll()</text><polygon fill="#181818" points="884.5,630.8594,874.5,634.8594,884.5,638.8594,880.5,634.8594" style="stroke:#181818;stroke-width:1.0;"/><line style="stroke:#181818;stroke-width:1.0;stroke-dasharray:2.0,2.0;" x1="878.5" x2="1613" y1="634.8594" y2="634.8594"/><text fill="#000000" font-family="sans-serif" font-size="13" lengthAdjust="spacing" textLength="204" x="890.5" y="629.5967">List&lt;JobRequirementSpecification&gt;</text><polygon fill="#181818" points="321.5,662.1504,311.5,666.1504,321.5,670.1504,317.5,666.1504" style="stroke:#181818;stroke-width:1.0;"/><line style="stroke:#181818;stroke-width:1.0;stroke-dasharray:2.0,2.0;" x1="315.5" x2="867.5" y1="666.1504" y2="666.1504"/><text fill="#000000" font-family="sans-serif" font-size="13" lengthAdjust="spacing" textLength="204" x="327.5" y="660.8877">List&lt;JobRequirementSpecification&gt;</text><polygon fill="#181818" points="77.5,710.7324,67.5,714.7324,77.5,718.7324,73.5,714.7324" style="stroke:#181818;stroke-width:1.0;"/><line style="stroke:#181818;stroke-width:1.0;stroke-dasharray:2.0,2.0;" x1="71.5" x2="299.5" y1="714.7324" y2="714.7324"/><text fill="#000000" font-family="sans-serif" font-size="13" lengthAdjust="spacing" textLength="180" x="83.5" y="692.1787">shows list of Job Requirements</text><text fill="#000000" font-family="sans-serif" font-size="13" lengthAdjust="spacing" textLength="210" x="83.5" y="709.4697">Specification and asks to select one</text><polygon fill="#181818" points="288.5,759.3145,298.5,763.3145,288.5,767.3145,292.5,763.3145" style="stroke:#181818;stroke-width:1.0;"/><line style="stroke:#181818;stroke-width:1.0;" x1="66.5" x2="294.5" y1="763.3145" y2="763.3145"/><text fill="#000000" font-family="sans-serif" font-size="13" lengthAdjust="spacing" textLength="91" x="73.5" y="740.7607">selects one Job</text><text fill="#000000" font-family="sans-serif" font-size="13" lengthAdjust="spacing" textLength="151" x="73.5" y="758.0518">Requirement Specification</text><polygon fill="#181818" points="851.5,790.6055,861.5,794.6055,851.5,798.6055,855.5,794.6055" style="stroke:#181818;stroke-width:1.0;"/><line style="stroke:#181818;stroke-width:1.0;" x1="310.5" x2="857.5" y1="794.6055" y2="794.6055"/><text fill="#000000" font-family="sans-serif" font-size="13" lengthAdjust="spacing" textLength="534" x="317.5" y="789.3428">selectJobRequirementSpecificationForJobOpening(jobRequirementSpecification, jobOpening)</text><polygon fill="#181818" points="1789.5,821.8965,1799.5,825.8965,1789.5,829.8965,1793.5,825.8965" style="stroke:#181818;stroke-width:1.0;"/><line style="stroke:#181818;stroke-width:1.0;" x1="873.5" x2="1795.5" y1="825.8965" y2="825.8965"/><text fill="#000000" font-family="sans-serif" font-size="13" lengthAdjust="spacing" textLength="374" x="880.5" y="820.6338">selectJobRequirementSpecification(jobRequirementSpecification)</text><polygon fill="#181818" points="1083.5,853.1875,1093.5,857.1875,1083.5,861.1875,1087.5,857.1875" style="stroke:#181818;stroke-width:1.0;"/><line style="stroke:#181818;stroke-width:1.0;" x1="873.5" x2="1089.5" y1="857.1875" y2="857.1875"/><text fill="#000000" font-family="sans-serif" font-size="13" lengthAdjust="spacing" textLength="75" x="880.5" y="851.9248">repositories()</text><polygon fill="#181818" points="1226.5,884.4785,1236.5,888.4785,1226.5,892.4785,1230.5,888.4785" style="stroke:#181818;stroke-width:1.0;"/><line style="stroke:#181818;stroke-width:1.0;" x1="1095.5" x2="1232.5" y1="888.4785" y2="888.4785"/><text fill="#000000" font-family="sans-serif" font-size="13" lengthAdjust="spacing" textLength="36" x="1102.5" y="883.2158">create</text><polygon fill="#181818" points="1380.5,915.7695,1390.5,919.7695,1380.5,923.7695,1384.5,919.7695" style="stroke:#181818;stroke-width:1.0;"/><line style="stroke:#181818;stroke-width:1.0;" x1="1238.5" x2="1386.5" y1="919.7695" y2="919.7695"/><text fill="#000000" font-family="sans-serif" font-size="13" lengthAdjust="spacing" textLength="36" x="1245.5" y="914.5068">create</text><polygon fill="#181818" points="1375.5,947.0605,1385.5,951.0605,1375.5,955.0605,1379.5,951.0605" style="stroke:#181818;stroke-width:1.0;"/><line style="stroke:#181818;stroke-width:1.0;" x1="873.5" x2="1381.5" y1="951.0605" y2="951.0605"/><text fill="#000000" font-family="sans-serif" font-size="13" lengthAdjust="spacing" textLength="99" x="880.5" y="945.7979">save(jobOpening)</text><polygon fill="#181818" points="884.5,978.3516,874.5,982.3516,884.5,986.3516,880.5,982.3516" style="stroke:#181818;stroke-width:1.0;"/><line style="stroke:#181818;stroke-width:1.0;stroke-dasharray:2.0,2.0;" x1="878.5" x2="1391.5" y1="982.3516" y2="982.3516"/><text fill="#000000" font-family="sans-serif" font-size="13" lengthAdjust="spacing" textLength="65" x="890.5" y="977.0889">jobOpening</text><polygon fill="#181818" points="321.5,1009.6426,311.5,1013.6426,321.5,1017.6426,317.5,1013.6426" style="stroke:#181818;stroke-width:1.0;"/><line style="stroke:#181818;stroke-width:1.0;stroke-dasharray:2.0,2.0;" x1="315.5" x2="867.5" y1="1013.6426" y2="1013.6426"/><text fill="#000000" font-family="sans-serif" font-size="13" lengthAdjust="spacing" textLength="65" x="327.5" y="1008.3799">jobOpening</text><polygon fill="#181818" points="77.5,1040.9336,67.5,1044.9336,77.5,1048.9336,73.5,1044.9336" style="stroke:#181818;stroke-width:1.0;"/><line style="stroke:#181818;stroke-width:1.0;stroke-dasharray:2.0,2.0;" x1="71.5" x2="299.5" y1="1044.9336" y2="1044.9336"/><text fill="#000000" font-family="sans-serif" font-size="13" lengthAdjust="spacing" textLength="86" x="83.5" y="1039.6709">backs to menu</text><!--SRC=[tLTDJm8n4BttL_Gc9Y9tGaWCYOb6eu5uurAx0rQxRUqKb7_lBABxmG9TavNe4VhcpPlEpAESF8NWiD_hEIrCMAJwNDgqX_2w02EXcoWnzo9bZ0aPhEUZ1GQRWhyLHip1C-Q43qegHy5y0XfakBQFOmfN7b8mOU90gfcI8YXh7gxuOE0y81silnWEcn6Ch0dUQWsUY8HpUlDzXUSUF2eCMGLP1Bo7ql4Od4L5vQmkrrMjIgUK_iw1KMQUuoYR__vGIRP7RZJ19Y6X4fiAbTN3kiEO2-tpn4wUx5ldDEkGMee0CM4ifbSn2WeTwNFfWVAtmwsfeVbDOQDwSoBM92bft9uaalBTIGMPZXeCHMuDMNu_sqU4hnsxFdykbTnG_GxEcJB9XTR5Awn3ijhmRkFEtT3b37Ak8KjWVzv6LSQjoG4PJIOeRhn9LiKhIGBIek9wahcTPRNphzvEZJ095_Y2F5YEwmpS6c1LakXoFpam8obcOgrkPm6B9V1_NDS8ru-tnAt5ZMAlt-J3eImkmSztVHUuklmHKjjrWoYXHxE7uZvDJOc5jsqOKrE0ynA-9HF1G-XBwtC3xppl1fuLVZT_ntaAZxY8GlPfF_rpRvGVUrmT6OebT6gxr-OR9KzufDT9lO1VCfv78JzzX48Mz5_l0m00]--></g></svg>