<?xml version="1.0" encoding="us-ascii" standalone="no"?><svg xmlns="http://www.w3.org/2000/svg" xmlns:xlink="http://www.w3.org/1999/xlink" contentStyleType="text/css" height="1078px" preserveAspectRatio="none" style="width:1106px;height:1078px;background:#FFFFFF;" version="1.1" viewBox="0 0 1106 1078" width="1106px" zoomAndPan="magnify"><defs/><g><!--class JobOpening--><g id="elem_JobOpening"><rect codeLine="2" fill="#F1F1F1" height="401.8008" id="JobOpening" rx="2.5" ry="2.5" style="stroke:#181818;stroke-width:0.5;" width="814" x="285" y="374"/><ellipse cx="649.75" cy="390" fill="#ADD1B2" rx="11" ry="11" style="stroke:#181818;stroke-width:1.0;"/><path d="M652.5156,385.875 Q652.6719,385.6563 652.8594,385.5469 Q653.0469,385.4375 653.2656,385.4375 Q653.6406,385.4375 653.875,385.7031 Q654.1094,385.9531 654.1094,386.5625 L654.1094,388.0156 Q654.1094,388.625 653.875,388.8906 Q653.6406,389.1563 653.2656,389.1563 Q652.9219,389.1563 652.7188,388.9531 Q652.5156,388.7656 652.4063,388.25 Q652.3594,387.8906 652.1719,387.7031 Q651.8438,387.3281 651.2344,387.1094 Q650.625,386.8906 650,386.8906 Q649.2344,386.8906 648.5938,387.2188 Q647.9688,387.5469 647.4688,388.2969 Q646.9844,389.0469 646.9844,390.0781 L646.9844,391.1719 Q646.9844,392.4063 647.875,393.2344 Q648.7656,394.0469 650.3594,394.0469 Q651.2969,394.0469 651.9531,393.7969 Q652.3438,393.6406 652.7656,393.2031 Q653.0313,392.9375 653.1719,392.8594 Q653.3281,392.7813 653.5313,392.7813 Q653.8594,392.7813 654.1094,393.0469 Q654.375,393.2969 654.375,393.6406 Q654.375,393.9844 654.0313,394.3906 Q653.5313,394.9688 652.7344,395.2969 Q651.6563,395.75 650.3594,395.75 Q648.8438,395.75 647.6406,395.125 Q646.6563,394.625 645.9688,393.5625 Q645.2813,392.4844 645.2813,391.2031 L645.2813,390.0469 Q645.2813,388.7188 645.8906,387.5781 Q646.5156,386.4219 647.6094,385.8125 Q648.7031,385.1875 649.9375,385.1875 Q650.6719,385.1875 651.3125,385.3594 Q651.9688,385.5156 652.5156,385.875 Z " fill="#000000"/><text fill="#000000" font-family="sans-serif" font-size="14" lengthAdjust="spacing" textLength="76" x="670.25" y="395.7969">JobOpening</text><line style="stroke:#181818;stroke-width:0.5;" x1="286" x2="1098" y1="406" y2="406"/><rect fill="none" height="6" style="stroke:#C82930;stroke-width:1.0;" width="6" x="293" y="417.8105"/><text fill="#000000" font-family="sans-serif" font-size="14" lengthAdjust="spacing" textLength="177" x="305" y="425.1074">JobReference jobReference</text><rect fill="none" height="6" style="stroke:#C82930;stroke-width:1.0;" width="6" x="293" y="436.4316"/><text fill="#000000" font-family="sans-serif" font-size="14" lengthAdjust="spacing" textLength="82" x="305" y="443.7285">Long version</text><rect fill="none" height="6" style="stroke:#C82930;stroke-width:1.0;" width="6" x="293" y="455.0527"/><text fill="#000000" font-family="sans-serif" font-size="14" lengthAdjust="spacing" textLength="208" x="305" y="462.3496">List&lt;JobApplication&gt; applications</text><rect fill="none" height="6" style="stroke:#C82930;stroke-width:1.0;" width="6" x="293" y="473.6738"/><text fill="#000000" font-family="sans-serif" font-size="14" lengthAdjust="spacing" textLength="174" x="305" y="480.9707">WorkingMode workingMode</text><rect fill="none" height="6" style="stroke:#C82930;stroke-width:1.0;" width="6" x="293" y="492.2949"/><text fill="#000000" font-family="sans-serif" font-size="14" lengthAdjust="spacing" textLength="139" x="305" y="499.5918">NrVacancy nrVacancy</text><rect fill="none" height="6" style="stroke:#C82930;stroke-width:1.0;" width="6" x="293" y="510.916"/><text fill="#000000" font-family="sans-serif" font-size="14" lengthAdjust="spacing" textLength="146" x="305" y="518.2129">PostalAddress address</text><rect fill="none" height="6" style="stroke:#C82930;stroke-width:1.0;" width="6" x="293" y="529.5371"/><text fill="#000000" font-family="sans-serif" font-size="14" lengthAdjust="spacing" textLength="144" x="305" y="536.834">Description description</text><rect fill="none" height="6" style="stroke:#C82930;stroke-width:1.0;" width="6" x="293" y="548.1582"/><text fill="#000000" font-family="sans-serif" font-size="14" lengthAdjust="spacing" textLength="129" x="305" y="555.4551">Designation function</text><rect fill="none" height="6" style="stroke:#C82930;stroke-width:1.0;" width="6" x="293" y="566.7793"/><text fill="#000000" font-family="sans-serif" font-size="14" lengthAdjust="spacing" textLength="173" x="305" y="574.0762">ContractType contractType</text><rect fill="none" height="6" style="stroke:#C82930;stroke-width:1.0;" width="6" x="293" y="585.4004"/><text fill="#000000" font-family="sans-serif" font-size="14" lengthAdjust="spacing" textLength="143" x="305" y="592.6973">Calendar creationDate</text><rect fill="none" height="6" style="stroke:#C82930;stroke-width:1.0;" width="6" x="293" y="604.0215"/><text fill="#000000" font-family="sans-serif" font-size="14" lengthAdjust="spacing" textLength="158" x="305" y="611.3184">JobOpeningStatus status</text><rect fill="none" height="6" style="stroke:#C82930;stroke-width:1.0;" width="6" x="293" y="622.6426"/><text fill="#000000" font-family="sans-serif" font-size="14" lengthAdjust="spacing" textLength="73" x="305" y="629.9395">Client client</text><rect fill="none" height="6" style="stroke:#C82930;stroke-width:1.0;" width="6" x="293" y="641.2637"/><text fill="#000000" font-family="sans-serif" font-size="14" lengthAdjust="spacing" textLength="253" x="305" y="648.5605">RecruitmentProcess recruitmentProcess</text><rect fill="none" height="6" style="stroke:#C82930;stroke-width:1.0;" width="6" x="293" y="659.8848"/><text fill="#000000" font-family="sans-serif" font-size="14" lengthAdjust="spacing" textLength="367" x="305" y="667.1816">JobRequirementSpecification requirementSpecification</text><rect fill="none" height="6" style="stroke:#C82930;stroke-width:1.0;" width="6" x="293" y="678.5059"/><text fill="#000000" font-family="sans-serif" font-size="14" lengthAdjust="spacing" textLength="350" x="305" y="685.8027">InterviewModelSpecification interviewModelSpecification</text><line style="stroke:#181818;stroke-width:0.5;" x1="286" x2="1098" y1="693.3164" y2="693.3164"/><ellipse cx="296" cy="708.127" fill="#84BE84" rx="3" ry="3" style="stroke:#038048;stroke-width:1.0;"/><text fill="#000000" font-family="sans-serif" font-size="14" lengthAdjust="spacing" textLength="653" x="305" y="712.4238">JobOpening(JobReference, WorkingMode, String, String, String, String, ContractType, Calendar, Client)</text><ellipse cx="296" cy="726.748" fill="#84BE84" rx="3" ry="3" style="stroke:#038048;stroke-width:1.0;"/><text fill="#000000" font-family="sans-serif" font-size="14" lengthAdjust="spacing" textLength="788" x="305" y="731.0449">JobOpening(JobReference, WorkingMode, String, String, String, String, ContractType, Calendar, Client, RecruitmentProcess)</text><ellipse cx="296" cy="745.3691" fill="#84BE84" rx="3" ry="3" style="stroke:#038048;stroke-width:1.0;"/><text fill="#000000" font-family="sans-serif" font-size="14" lengthAdjust="spacing" textLength="315" x="305" y="749.666">addJobApplication(JobApplication): JobApplication</text><ellipse cx="296" cy="763.9902" fill="#84BE84" rx="3" ry="3" style="stroke:#038048;stroke-width:1.0;"/><text fill="#000000" font-family="sans-serif" font-size="14" lengthAdjust="spacing" textLength="234" x="305" y="768.2871">canApplicationsBeaAdded(): boolean</text></g><!--class JobApplication--><g id="elem_JobApplication"><rect codeLine="24" fill="#F1F1F1" height="234.2109" id="JobApplication" rx="2.5" ry="2.5" style="stroke:#181818;stroke-width:0.5;" width="590" x="397" y="837"/><ellipse cx="642.25" cy="853" fill="#ADD1B2" rx="11" ry="11" style="stroke:#181818;stroke-width:1.0;"/><path d="M645.0156,848.875 Q645.1719,848.6563 645.3594,848.5469 Q645.5469,848.4375 645.7656,848.4375 Q646.1406,848.4375 646.375,848.7031 Q646.6094,848.9531 646.6094,849.5625 L646.6094,851.0156 Q646.6094,851.625 646.375,851.8906 Q646.1406,852.1563 645.7656,852.1563 Q645.4219,852.1563 645.2188,851.9531 Q645.0156,851.7656 644.9063,851.25 Q644.8594,850.8906 644.6719,850.7031 Q644.3438,850.3281 643.7344,850.1094 Q643.125,849.8906 642.5,849.8906 Q641.7344,849.8906 641.0938,850.2188 Q640.4688,850.5469 639.9688,851.2969 Q639.4844,852.0469 639.4844,853.0781 L639.4844,854.1719 Q639.4844,855.4063 640.375,856.2344 Q641.2656,857.0469 642.8594,857.0469 Q643.7969,857.0469 644.4531,856.7969 Q644.8438,856.6406 645.2656,856.2031 Q645.5313,855.9375 645.6719,855.8594 Q645.8281,855.7813 646.0313,855.7813 Q646.3594,855.7813 646.6094,856.0469 Q646.875,856.2969 646.875,856.6406 Q646.875,856.9844 646.5313,857.3906 Q646.0313,857.9688 645.2344,858.2969 Q644.1563,858.75 642.8594,858.75 Q641.3438,858.75 640.1406,858.125 Q639.1563,857.625 638.4688,856.5625 Q637.7813,855.4844 637.7813,854.2031 L637.7813,853.0469 Q637.7813,851.7188 638.3906,850.5781 Q639.0156,849.4219 640.1094,848.8125 Q641.2031,848.1875 642.4375,848.1875 Q643.1719,848.1875 643.8125,848.3594 Q644.4688,848.5156 645.0156,848.875 Z " fill="#000000"/><text fill="#000000" font-family="sans-serif" font-size="14" lengthAdjust="spacing" textLength="91" x="662.75" y="858.7969">JobApplication</text><line style="stroke:#181818;stroke-width:0.5;" x1="398" x2="986" y1="869" y2="869"/><rect fill="none" height="6" style="stroke:#C82930;stroke-width:1.0;" width="6" x="405" y="880.8105"/><text fill="#000000" font-family="sans-serif" font-size="14" lengthAdjust="spacing" textLength="47" x="417" y="888.1074">Long id</text><rect fill="none" height="6" style="stroke:#C82930;stroke-width:1.0;" width="6" x="405" y="899.4316"/><text fill="#000000" font-family="sans-serif" font-size="14" lengthAdjust="spacing" textLength="82" x="417" y="906.7285">Long version</text><rect fill="none" height="6" style="stroke:#C82930;stroke-width:1.0;" width="6" x="405" y="918.0527"/><text fill="#000000" font-family="sans-serif" font-size="14" lengthAdjust="spacing" textLength="174" x="417" y="925.3496">List&lt;JobApplicationFile&gt; file</text><rect fill="none" height="6" style="stroke:#C82930;stroke-width:1.0;" width="6" x="405" y="936.6738"/><text fill="#000000" font-family="sans-serif" font-size="14" lengthAdjust="spacing" textLength="159" x="417" y="943.9707">JobApplicationState state</text><rect fill="none" height="6" style="stroke:#C82930;stroke-width:1.0;" width="6" x="405" y="955.2949"/><text fill="#000000" font-family="sans-serif" font-size="14" lengthAdjust="spacing" textLength="253" x="417" y="962.5918">RequirementAnswer requirementAnswer</text><rect fill="none" height="6" style="stroke:#C82930;stroke-width:1.0;" width="6" x="405" y="973.916"/><text fill="#000000" font-family="sans-serif" font-size="14" lengthAdjust="spacing" textLength="114" x="417" y="981.2129">Interview interview</text><rect fill="none" height="6" style="stroke:#C82930;stroke-width:1.0;" width="6" x="405" y="992.5371"/><text fill="#000000" font-family="sans-serif" font-size="14" lengthAdjust="spacing" textLength="131" x="417" y="999.834">Candidate candidate</text><rect fill="none" height="6" style="stroke:#C82930;stroke-width:1.0;" width="6" x="405" y="1011.1582"/><text fill="#000000" font-family="sans-serif" font-size="14" lengthAdjust="spacing" textLength="143" x="417" y="1018.4551">Calendar creationDate</text><line style="stroke:#181818;stroke-width:0.5;" x1="398" x2="986" y1="1025.9688" y2="1025.9688"/><ellipse cx="408" cy="1040.7793" fill="#84BE84" rx="3" ry="3" style="stroke:#038048;stroke-width:1.0;"/><text fill="#000000" font-family="sans-serif" font-size="14" lengthAdjust="spacing" textLength="564" x="417" y="1045.0762">JobApplication(Long, List&lt;JobApplicationFile&gt;, RequirementAnswer, Interview, Candidate)</text><ellipse cx="408" cy="1059.4004" fill="#84BE84" rx="3" ry="3" style="stroke:#038048;stroke-width:1.0;"/><text fill="#000000" font-family="sans-serif" font-size="14" lengthAdjust="spacing" textLength="366" x="417" y="1063.6973">JobApplication(Long, List&lt;JobApplicationFile&gt;, Candidate)</text></g><!--class ListApplicationController--><g id="elem_ListApplicationController"><rect codeLine="37" fill="#F1F1F1" height="141.1055" id="ListApplicationController" rx="2.5" ry="2.5" style="stroke:#181818;stroke-width:0.5;" width="420" x="7" y="7"/><ellipse cx="136.25" cy="23" fill="#ADD1B2" rx="11" ry="11" style="stroke:#181818;stroke-width:1.0;"/><path d="M139.0156,18.875 Q139.1719,18.6563 139.3594,18.5469 Q139.5469,18.4375 139.7656,18.4375 Q140.1406,18.4375 140.375,18.7031 Q140.6094,18.9531 140.6094,19.5625 L140.6094,21.0156 Q140.6094,21.625 140.375,21.8906 Q140.1406,22.1563 139.7656,22.1563 Q139.4219,22.1563 139.2188,21.9531 Q139.0156,21.7656 138.9063,21.25 Q138.8594,20.8906 138.6719,20.7031 Q138.3438,20.3281 137.7344,20.1094 Q137.125,19.8906 136.5,19.8906 Q135.7344,19.8906 135.0938,20.2188 Q134.4688,20.5469 133.9688,21.2969 Q133.4844,22.0469 133.4844,23.0781 L133.4844,24.1719 Q133.4844,25.4063 134.375,26.2344 Q135.2656,27.0469 136.8594,27.0469 Q137.7969,27.0469 138.4531,26.7969 Q138.8438,26.6406 139.2656,26.2031 Q139.5313,25.9375 139.6719,25.8594 Q139.8281,25.7813 140.0313,25.7813 Q140.3594,25.7813 140.6094,26.0469 Q140.875,26.2969 140.875,26.6406 Q140.875,26.9844 140.5313,27.3906 Q140.0313,27.9688 139.2344,28.2969 Q138.1563,28.75 136.8594,28.75 Q135.3438,28.75 134.1406,28.125 Q133.1563,27.625 132.4688,26.5625 Q131.7813,25.4844 131.7813,24.2031 L131.7813,23.0469 Q131.7813,21.7188 132.3906,20.5781 Q133.0156,19.4219 134.1094,18.8125 Q135.2031,18.1875 136.4375,18.1875 Q137.1719,18.1875 137.8125,18.3594 Q138.4688,18.5156 139.0156,18.875 Z " fill="#000000"/><text fill="#000000" font-family="sans-serif" font-size="14" lengthAdjust="spacing" textLength="153" x="156.75" y="28.7969">ListApplicationController</text><line style="stroke:#181818;stroke-width:0.5;" x1="8" x2="426" y1="39" y2="39"/><rect fill="none" height="6" style="stroke:#C82930;stroke-width:1.0;" width="6" x="15" y="50.8105"/><text fill="#000000" font-family="sans-serif" font-size="14" lengthAdjust="spacing" textLength="211" x="27" y="58.1074">JobOpeningRepository repository</text><rect fill="none" height="6" style="stroke:#C82930;stroke-width:1.0;" width="6" x="15" y="69.4316"/><text fill="#000000" font-family="sans-serif" font-size="14" lengthAdjust="spacing" textLength="289" x="27" y="76.7285">JobOpeningRepository jobOpeningRepository</text><line style="stroke:#181818;stroke-width:0.5;" x1="8" x2="426" y1="84.2422" y2="84.2422"/><ellipse cx="18" cy="99.0527" fill="#84BE84" rx="3" ry="3" style="stroke:#038048;stroke-width:1.0;"/><text fill="#000000" font-family="sans-serif" font-size="14" lengthAdjust="spacing" textLength="257" x="27" y="103.3496">listJobOpenings(): Iterable&lt;JobOpening&gt;</text><ellipse cx="18" cy="117.6738" fill="#84BE84" rx="3" ry="3" style="stroke:#038048;stroke-width:1.0;"/><text fill="#000000" font-family="sans-serif" font-size="14" lengthAdjust="spacing" textLength="341" x="27" y="121.9707">listApplications(JobOpening): Iterable&lt;JobApplication&gt;</text><ellipse cx="18" cy="136.2949" fill="#84BE84" rx="3" ry="3" style="stroke:#038048;stroke-width:1.0;"/><text fill="#000000" font-family="sans-serif" font-size="14" lengthAdjust="spacing" textLength="394" x="27" y="140.5918">getJobOpeningForJobApplication(JobApplication): JobOpening</text></g><!--class ListApplicationsUI--><g id="elem_ListApplicationsUI"><rect codeLine="45" fill="#F1F1F1" height="103.8633" id="ListApplicationsUI" rx="2.5" ry="2.5" style="stroke:#181818;stroke-width:0.5;" width="242" x="8" y="523"/><ellipse cx="69.75" cy="539" fill="#ADD1B2" rx="11" ry="11" style="stroke:#181818;stroke-width:1.0;"/><path d="M72.5156,534.875 Q72.6719,534.6563 72.8594,534.5469 Q73.0469,534.4375 73.2656,534.4375 Q73.6406,534.4375 73.875,534.7031 Q74.1094,534.9531 74.1094,535.5625 L74.1094,537.0156 Q74.1094,537.625 73.875,537.8906 Q73.6406,538.1563 73.2656,538.1563 Q72.9219,538.1563 72.7188,537.9531 Q72.5156,537.7656 72.4063,537.25 Q72.3594,536.8906 72.1719,536.7031 Q71.8438,536.3281 71.2344,536.1094 Q70.625,535.8906 70,535.8906 Q69.2344,535.8906 68.5938,536.2188 Q67.9688,536.5469 67.4688,537.2969 Q66.9844,538.0469 66.9844,539.0781 L66.9844,540.1719 Q66.9844,541.4063 67.875,542.2344 Q68.7656,543.0469 70.3594,543.0469 Q71.2969,543.0469 71.9531,542.7969 Q72.3438,542.6406 72.7656,542.2031 Q73.0313,541.9375 73.1719,541.8594 Q73.3281,541.7813 73.5313,541.7813 Q73.8594,541.7813 74.1094,542.0469 Q74.375,542.2969 74.375,542.6406 Q74.375,542.9844 74.0313,543.3906 Q73.5313,543.9688 72.7344,544.2969 Q71.6563,544.75 70.3594,544.75 Q68.8438,544.75 67.6406,544.125 Q66.6563,543.625 65.9688,542.5625 Q65.2813,541.4844 65.2813,540.2031 L65.2813,539.0469 Q65.2813,537.7188 65.8906,536.5781 Q66.5156,535.4219 67.6094,534.8125 Q68.7031,534.1875 69.9375,534.1875 Q70.6719,534.1875 71.3125,534.3594 Q71.9688,534.5156 72.5156,534.875 Z " fill="#000000"/><text fill="#000000" font-family="sans-serif" font-size="14" lengthAdjust="spacing" textLength="110" x="90.25" y="544.7969">ListApplicationsUI</text><line style="stroke:#181818;stroke-width:0.5;" x1="9" x2="249" y1="555" y2="555"/><rect fill="none" height="6" style="stroke:#C82930;stroke-width:1.0;" width="6" x="16" y="566.8105"/><text fill="#000000" font-family="sans-serif" font-size="14" lengthAdjust="spacing" textLength="216" x="28" y="574.1074">ListApplicationController controller</text><line style="stroke:#181818;stroke-width:0.5;" x1="9" x2="249" y1="581.6211" y2="581.6211"/><ellipse cx="19" cy="596.4316" fill="#84BE84" rx="3" ry="3" style="stroke:#038048;stroke-width:1.0;"/><text fill="#000000" font-family="sans-serif" font-size="14" lengthAdjust="spacing" textLength="119" x="28" y="600.7285">doShow(): boolean</text><ellipse cx="19" cy="615.0527" fill="#84BE84" rx="3" ry="3" style="stroke:#038048;stroke-width:1.0;"/><text fill="#000000" font-family="sans-serif" font-size="14" lengthAdjust="spacing" textLength="109" x="28" y="619.3496">headline(): String</text></g><!--class JobOpeningRepository--><g id="elem_JobOpeningRepository"><rect codeLine="51" fill="#F1F1F1" height="103.8633" id="JobOpeningRepository" rx="2.5" ry="2.5" style="stroke:#181818;stroke-width:0.5;" width="389" x="393.5" y="209"/><ellipse cx="511.25" cy="225" fill="#B4A7E5" rx="11" ry="11" style="stroke:#181818;stroke-width:1.0;"/><path d="M512.2031,221.6406 L512.2031,228.2969 L513.9219,228.2969 Q514.5313,228.2969 514.7969,228.5313 Q515.0625,228.7656 515.0625,229.1563 Q515.0625,229.5313 514.7969,229.7656 Q514.5313,230 513.9219,230 L508.7813,230 Q508.1719,230 507.9063,229.7656 Q507.6406,229.5313 507.6406,229.1406 Q507.6406,228.7656 507.9063,228.5313 Q508.1719,228.2969 508.7813,228.2969 L510.5,228.2969 L510.5,221.6406 L508.7813,221.6406 Q508.1719,221.6406 507.9063,221.4063 Q507.6406,221.1719 507.6406,220.7813 Q507.6406,220.4063 507.9063,220.1719 Q508.1719,219.9375 508.7813,219.9375 L513.9219,219.9375 Q514.5313,219.9375 514.7969,220.1719 Q515.0625,220.4063 515.0625,220.7813 Q515.0625,221.1719 514.7969,221.4063 Q514.5313,221.6406 513.9219,221.6406 L512.2031,221.6406 Z " fill="#000000"/><text fill="#000000" font-family="sans-serif" font-size="14" font-style="italic" lengthAdjust="spacing" textLength="145" x="531.75" y="230.7969">JobOpeningRepository</text><line style="stroke:#181818;stroke-width:0.5;" x1="394.5" x2="781.5" y1="241" y2="241"/><line style="stroke:#181818;stroke-width:0.5;" x1="394.5" x2="781.5" y1="249" y2="249"/><ellipse cx="404.5" cy="263.8105" fill="#84BE84" rx="3" ry="3" style="stroke:#038048;stroke-width:1.0;"/><text fill="#000000" font-family="sans-serif" font-size="14" lengthAdjust="spacing" textLength="363" x="413.5" y="268.1074">findByCustomerManager(SystemUser): List&lt;JobOpening&gt;</text><ellipse cx="404.5" cy="282.4316" fill="#84BE84" rx="3" ry="3" style="stroke:#038048;stroke-width:1.0;"/><text fill="#000000" font-family="sans-serif" font-size="14" lengthAdjust="spacing" textLength="230" x="413.5" y="286.7285">countForClientCode(ClientCode): int</text><ellipse cx="404.5" cy="301.0527" fill="#84BE84" rx="3" ry="3" style="stroke:#038048;stroke-width:1.0;"/><text fill="#000000" font-family="sans-serif" font-size="14" lengthAdjust="spacing" textLength="315" x="413.5" y="305.3496">findByJobApplication(JobApplication): JobOpening</text></g><!--reverse link JobOpening to JobApplication--><g id="link_JobOpening_JobApplication"><path codeLine="57" d="M692,788.09 C692,808.89 692,817.49 692,836.89 " fill="none" id="JobOpening-backto-JobApplication" style="stroke:#181818;stroke-width:1.0;"/><polygon fill="#181818" points="692,776.09,688,782.09,692,788.09,696,782.09,692,776.09" style="stroke:#181818;stroke-width:1.0;"/><text fill="#000000" font-family="sans-serif" font-size="13" lengthAdjust="spacing" textLength="7" x="684.8742" y="797.6593">1</text><text fill="#000000" font-family="sans-serif" font-size="13" lengthAdjust="spacing" textLength="20" x="671.3594" y="825.874">0..*</text></g><!--link ListApplicationController to JobOpeningRepository--><g id="link_ListApplicationController_JobOpeningRepository"><path codeLine="58" d="M369.8886,153.2947 C411.2886,173.5547 439.5802,187.3937 478.2002,206.2837 " fill="none" id="ListApplicationController-JobOpeningRepository" style="stroke:#181818;stroke-width:1.0;"/><polygon fill="none" points="359.11,148.02,362.741,154.2502,369.8886,153.2947,366.2575,147.0645,359.11,148.02" style="stroke:#181818;stroke-width:1.0;"/><polygon fill="#181818" points="483.59,208.92,477.2628,201.3724,479.0985,206.7231,473.7478,208.5588,483.59,208.92" style="stroke:#181818;stroke-width:1.0;"/></g><!--link ListApplicationController to ListApplicationsUI--><g id="link_ListApplicationController_ListApplicationsUI"><path codeLine="59" d="M189.3502,153.9279 C182.9302,173.3879 178.49,188.98 174,209 C149.25,319.43 138.054,439.9504 132.984,511.0104 " fill="none" id="ListApplicationController-ListApplicationsUI" style="stroke:#181818;stroke-width:1.0;"/><polygon fill="#181818" points="191.23,148.23,184.6117,155.5237,189.6635,152.9783,192.2089,158.0301,191.23,148.23" style="stroke:#181818;stroke-width:1.0;"/><polygon fill="none" points="132.13,522.98,136.5469,517.2799,132.984,511.0104,128.5671,516.7105,132.13,522.98" style="stroke:#181818;stroke-width:1.0;"/></g><!--link ListApplicationsUI to ListApplicationController--><g id="link_ListApplicationsUI_ListApplicationController"><path codeLine="60" d="M140.6,522.55 C150.88,476.04 165.94,405.63 177,344 C188.88,277.82 199.2382,207.8621 206.7482,154.2121 " fill="none" id="ListApplicationsUI-to-ListApplicationController" style="stroke:#181818;stroke-width:1.0;stroke-dasharray:7.0,7.0;"/><polygon fill="#181818" points="207.58,148.27,202.371,156.6286,206.8869,153.2217,210.2937,157.7376,207.58,148.27" style="stroke:#181818;stroke-width:1.0;"/><text fill="#000000" font-family="sans-serif" font-size="13" lengthAdjust="spacing" textLength="36" x="200" y="266.5283">create</text></g><!--link JobOpeningRepository to JobOpening--><g id="link_JobOpeningRepository_JobOpening"><path codeLine="61" d="M605.06,313.17 C610.91,330.72 615.9526,345.8679 623.3326,368.0079 " fill="none" id="JobOpeningRepository-to-JobOpening" style="stroke:#181818;stroke-width:1.0;"/><polygon fill="#181818" points="625.23,373.7,626.1787,363.8969,623.6489,368.9566,618.5892,366.4268,625.23,373.7" style="stroke:#181818;stroke-width:1.0;"/></g><!--SRC=[lLNFRzem5Bxdhx0uXPQWxLeX94fLYMdTAbYtit4Ur9snCziKeMh_-zvp4kBGfEfss2L-lv_z-NkEKDmvzicilnQWfTwobuIn3FKbRC225i2U8eMSdms6FODrqkYWI-Sdc34h2YK5zsYUCjueZe9-6FiJoz-P7DYXaSdrnNxdWcjnPBgMo7nldETgbkSMS8UyNCbn0qvOML1fbZTovP9R7RgopLwBsZutsbik_BTZ0Kn4Id1o1JhdbWaB8VM6UwXGg51PUUxtZhcmX1mbGNicmaA69GYxbtw7whqrWhPiNvbEqFxQImlaM1KWvAO2gaIwsqUf2-t1Faiu47AgdIhxVPXwsHmbZUzsnA9x6R6LjoZthp6Cg5MueHHW6FwlHYFs6ktG74dIvc7QLeTNh6sW92HSP77Nm95paASOl3P60TV9xoGHzPn4iUMiX76G-JidurOgcB8DVYioH3vY6GIIGKcf4nLcsXt08gFEB2rMD1meMQrpcLD1KKjlaVto33WwoeZr7O1ku6mh8tRQ2DrOrNBu3wMZv1Fm51r51duOfH2Jb_QaBg4mJdfZZuXMBVQ6F7KOQSSAspK9ZhYmmCFnjO99Ov_MeJ5_qiP_bXM_ZvIvXQZ7hR7le6uLt8kBUrXKfEp5Ivn4saDkLe_c47CTZO_0SoKraBcSI6eOsBNX-4FeX9BQNcwapg-FyxtpPWVsZck-1PkkZix3xi61nOBrlSSO2hFN7X4entkEJqJQY9WZmnjRLVyxcA8_s-3ZW5ra6Hjy68yl1kSlGJzY9ikcdMT-8sUIPQRZSfAE-ngFiNn_fIis2ACAWwGJz_RcakGF]--></g></svg>