<?xml version="1.0" encoding="UTF-8" standalone="no"?><svg xmlns="http://www.w3.org/2000/svg" xmlns:xlink="http://www.w3.org/1999/xlink" contentStyleType="text/css" height="512px" preserveAspectRatio="none" style="width:927px;height:512px;background:#FFFFFF;" version="1.1" viewBox="0 0 927 512" width="927px" zoomAndPan="magnify"><defs/><g><rect fill="#FFFFFF" height="304.25" style="stroke:#181818;stroke-width:1.0;" width="10" x="87.5" y="100.1563"/><rect fill="#FFFFFF" height="39.1563" style="stroke:#181818;stroke-width:1.0;" width="10" x="644.5" y="131.3125"/><rect fill="#FFFFFF" height="39.1563" style="stroke:#181818;stroke-width:1.0;" width="10" x="644.5" y="209.625"/><rect fill="#FFFFFF" height="116.4688" style="stroke:#181818;stroke-width:1.0;" width="10" x="644.5" y="287.9375"/><line style="stroke:#181818;stroke-width:0.5;stroke-dasharray:5.0,5.0;" x1="92" x2="92" y1="90.1563" y2="422.4063"/><line style="stroke:#181818;stroke-width:0.5;stroke-dasharray:5.0,5.0;" x1="649.5" x2="649.5" y1="90.1563" y2="422.4063"/><text fill="#000000" font-family="sans-serif" font-size="20" lengthAdjust="spacing" textLength="169" x="5" y="85.7617">Customer Manager</text><ellipse cx="92.5" cy="13.5" fill="#E2E2F0" rx="8" ry="8" style="stroke:#181818;stroke-width:0.5;"/><path d="M92.5,21.5 L92.5,48.5 M79.5,29.5 L105.5,29.5 M92.5,48.5 L79.5,63.5 M92.5,48.5 L105.5,63.5 " fill="none" style="stroke:#181818;stroke-width:0.5;"/><text fill="#000000" font-family="sans-serif" font-size="20" lengthAdjust="spacing" textLength="169" x="5" y="442.168">Customer Manager</text><ellipse cx="92.5" cy="455.0625" fill="#E2E2F0" rx="8" ry="8" style="stroke:#181818;stroke-width:0.5;"/><path d="M92.5,463.0625 L92.5,490.0625 M79.5,471.0625 L105.5,471.0625 M92.5,490.0625 L79.5,505.0625 M92.5,490.0625 L105.5,505.0625 " fill="none" style="stroke:#181818;stroke-width:0.5;"/><rect fill="#E2E2F0" height="39.1563" rx="2.5" ry="2.5" style="stroke:#181818;stroke-width:0.5;" width="80" x="609.5" y="50"/><text fill="#000000" font-family="sans-serif" font-size="20" lengthAdjust="spacing" textLength="66" x="616.5" y="77.7617">System</text><rect fill="#E2E2F0" height="39.1563" rx="2.5" ry="2.5" style="stroke:#181818;stroke-width:0.5;" width="80" x="609.5" y="421.4063"/><text fill="#000000" font-family="sans-serif" font-size="20" lengthAdjust="spacing" textLength="66" x="616.5" y="449.168">System</text><rect fill="#FFFFFF" height="304.25" style="stroke:#181818;stroke-width:1.0;" width="10" x="87.5" y="100.1563"/><rect fill="#FFFFFF" height="39.1563" style="stroke:#181818;stroke-width:1.0;" width="10" x="644.5" y="131.3125"/><rect fill="#FFFFFF" height="39.1563" style="stroke:#181818;stroke-width:1.0;" width="10" x="644.5" y="209.625"/><rect fill="#FFFFFF" height="116.4688" style="stroke:#181818;stroke-width:1.0;" width="10" x="644.5" y="287.9375"/><polygon fill="#181818" points="632.5,127.3125,642.5,131.3125,632.5,135.3125,636.5,131.3125" style="stroke:#181818;stroke-width:1.0;"/><line style="stroke:#181818;stroke-width:1.0;" x1="97.5" x2="638.5" y1="131.3125" y2="131.3125"/><text fill="#000000" font-family="sans-serif" font-size="20" lengthAdjust="spacing" textLength="236" x="104.5" y="124.918">Selects Job Opening Menu</text><polygon fill="#181818" points="108.5,166.4688,98.5,170.4688,108.5,174.4688,104.5,170.4688" style="stroke:#181818;stroke-width:1.0;"/><line style="stroke:#181818;stroke-width:1.0;" x1="102.5" x2="648.5" y1="170.4688" y2="170.4688"/><text fill="#000000" font-family="sans-serif" font-size="20" lengthAdjust="spacing" textLength="245" x="114.5" y="164.0742">Displays Job Opening Menu</text><polygon fill="#181818" points="632.5,205.625,642.5,209.625,632.5,213.625,636.5,209.625" style="stroke:#181818;stroke-width:1.0;"/><line style="stroke:#181818;stroke-width:1.0;" x1="97.5" x2="638.5" y1="209.625" y2="209.625"/><text fill="#000000" font-family="sans-serif" font-size="20" lengthAdjust="spacing" textLength="423" x="104.5" y="203.2305">Selects option to publish results of a job opening</text><polygon fill="#181818" points="108.5,244.7813,98.5,248.7813,108.5,252.7813,104.5,248.7813" style="stroke:#181818;stroke-width:1.0;"/><line style="stroke:#181818;stroke-width:1.0;" x1="102.5" x2="648.5" y1="248.7813" y2="248.7813"/><text fill="#000000" font-family="sans-serif" font-size="20" lengthAdjust="spacing" textLength="305" x="114.5" y="242.3867">Displays the available job openings</text><polygon fill="#181818" points="632.5,283.9375,642.5,287.9375,632.5,291.9375,636.5,287.9375" style="stroke:#181818;stroke-width:1.0;"/><line style="stroke:#181818;stroke-width:1.0;" x1="97.5" x2="638.5" y1="287.9375" y2="287.9375"/><text fill="#000000" font-family="sans-serif" font-size="20" lengthAdjust="spacing" textLength="188" x="104.5" y="281.543">Selects a job opening</text><line style="stroke:#181818;stroke-width:1.0;" x1="654.5" x2="696.5" y1="352.25" y2="352.25"/><line style="stroke:#181818;stroke-width:1.0;" x1="696.5" x2="696.5" y1="352.25" y2="365.25"/><line style="stroke:#181818;stroke-width:1.0;" x1="655.5" x2="696.5" y1="365.25" y2="365.25"/><polygon fill="#181818" points="665.5,361.25,655.5,365.25,665.5,369.25,661.5,365.25" style="stroke:#181818;stroke-width:1.0;"/><text fill="#000000" font-family="sans-serif" font-size="20" lengthAdjust="spacing" textLength="253" x="661.5" y="320.6992">Publishes results and notifies</text><text fill="#000000" font-family="sans-serif" font-size="20" lengthAdjust="spacing" textLength="253" x="667.5" y="345.8555">candidates and the customer</text><polygon fill="#181818" points="103.5,400.4063,93.5,404.4063,103.5,408.4063,99.5,404.4063" style="stroke:#181818;stroke-width:1.0;"/><line style="stroke:#181818;stroke-width:1.0;" x1="97.5" x2="648.5" y1="404.4063" y2="404.4063"/><text fill="#000000" font-family="sans-serif" font-size="20" lengthAdjust="spacing" textLength="523" x="109.5" y="398.0117">Displays a message confirming the publication of the results</text><!--SRC=[ZP4zQyGm38Rt_0gHlL0wtj0bfKFXQ25JeOlYA7VgERAnb8Fhhw-T72KjWQl1WpuUwPMa9vQ82KSVt8bww6d0oTjp46lvY-3XlghGMKXGDvDQ62d17WKFb6f0XQRAjB7ZY69GjnSr6kT8-zxEA9_HAESrSFTOd3jeoPCpXPVGmMiaOJd0dcHQfHSu_u8qEtXYZHul6qHFlv2D9Y4Q1m4B4AVEinuXaUO9SsG0XCzSCImLRtQt8m6UaJrsdjQa_aF7xLPp-jiYalH79aeF4em79lqGSDdcFgDBf6XoryDiQKOOIJMV2roGWTDOLbUWUHiEv-NaJHJNjUFVOLPcK-Nt3G00]--></g></svg>