<?xml version="1.0" encoding="us-ascii" standalone="no"?><svg xmlns="http://www.w3.org/2000/svg" xmlns:xlink="http://www.w3.org/1999/xlink" contentStyleType="text/css" height="829px" preserveAspectRatio="none" style="width:1441px;height:829px;background:#FFFFFF;" version="1.1" viewBox="0 0 1441 829" width="1441px" zoomAndPan="magnify"><defs/><g><rect fill="#FFFFFF" height="634.6855" style="stroke:#181818;stroke-width:1.0;" width="10" x="31.5" y="93.6211"/><rect fill="#FFFFFF" height="611.3945" style="stroke:#181818;stroke-width:1.0;" width="10" x="218.5" y="116.9121"/><rect fill="#FFFFFF" height="488.1914" style="stroke:#181818;stroke-width:1.0;" width="10" x="594.5" y="208.8242"/><rect fill="#FFFFFF" height="266.3672" style="stroke:#181818;stroke-width:1.0;" width="10" x="599.5" y="370.0273"/><rect fill="#FFFFFF" height="75.582" style="stroke:#181818;stroke-width:1.0;" width="10" x="848" y="406.3184"/><rect fill="#FFFFFF" height="31.291" style="stroke:#181818;stroke-width:1.0;" width="10" x="1016" y="573.8125"/><rect fill="#FFFFFF" height="90.9121" style="stroke:#181818;stroke-width:1.0;" width="10" x="1202.5" y="646.3945"/><rect fill="#FFFFFF" height="30" style="stroke:#181818;stroke-width:1.0;" width="10" x="1368" y="240.1152"/><line style="stroke:#181818;stroke-width:0.5;stroke-dasharray:5.0,5.0;" x1="36" x2="36" y1="83.6211" y2="746.3066"/><line style="stroke:#181818;stroke-width:0.5;stroke-dasharray:5.0,5.0;" x1="223.5" x2="223.5" y1="83.6211" y2="746.3066"/><line style="stroke:#181818;stroke-width:0.5;stroke-dasharray:5.0,5.0;" x1="599.5" x2="599.5" y1="165.2227" y2="746.3066"/><line style="stroke:#181818;stroke-width:0.5;stroke-dasharray:5.0,5.0;" x1="737.5" x2="737.5" y1="318.4258" y2="746.3066"/><line style="stroke:#181818;stroke-width:0.5;stroke-dasharray:5.0,5.0;" x1="852.5" x2="852.5" y1="83.6211" y2="746.3066"/><line style="stroke:#181818;stroke-width:0.5;stroke-dasharray:5.0,5.0;" x1="1020.5" x2="1020.5" y1="530.2109" y2="746.3066"/><line style="stroke:#181818;stroke-width:0.5;stroke-dasharray:5.0,5.0;" x1="1207.5" x2="1207.5" y1="653.4141" y2="746.3066"/><line style="stroke:#181818;stroke-width:0.5;stroke-dasharray:5.0,5.0;" x1="1372.5" x2="1372.5" y1="83.6211" y2="746.3066"/><text fill="#000000" font-family="sans-serif" font-size="14" lengthAdjust="spacing" textLength="57" x="5" y="80.1074">Operator</text><ellipse cx="36.5" cy="13.5" fill="#E2E2F0" rx="8" ry="8" style="stroke:#181818;stroke-width:0.5;"/><path d="M36.5,21.5 L36.5,48.5 M23.5,29.5 L49.5,29.5 M36.5,48.5 L23.5,63.5 M36.5,48.5 L49.5,63.5 " fill="none" style="stroke:#181818;stroke-width:0.5;"/><text fill="#000000" font-family="sans-serif" font-size="14" lengthAdjust="spacing" textLength="57" x="5" y="760.4141">Operator</text><ellipse cx="36.5" cy="772.4277" fill="#E2E2F0" rx="8" ry="8" style="stroke:#181818;stroke-width:0.5;"/><path d="M36.5,780.4277 L36.5,807.4277 M23.5,788.4277 L49.5,788.4277 M36.5,807.4277 L23.5,822.4277 M36.5,807.4277 L49.5,822.4277 " fill="none" style="stroke:#181818;stroke-width:0.5;"/><text fill="#000000" font-family="sans-serif" font-size="14" lengthAdjust="spacing" textLength="130" x="155.5" y="80.1074">RegisterCandidateUI</text><path d="M203,37 L203,61 M203,49 L220,49 " fill="none" style="stroke:#181818;stroke-width:0.5;"/><ellipse cx="232" cy="49" fill="#E2E2F0" rx="12" ry="12" style="stroke:#181818;stroke-width:0.5;"/><text fill="#000000" font-family="sans-serif" font-size="14" lengthAdjust="spacing" textLength="130" x="155.5" y="760.4141">RegisterCandidateUI</text><path d="M203,767.9277 L203,791.9277 M203,779.9277 L220,779.9277 " fill="none" style="stroke:#181818;stroke-width:0.5;"/><ellipse cx="232" cy="779.9277" fill="#E2E2F0" rx="12" ry="12" style="stroke:#181818;stroke-width:0.5;"/><text fill="#000000" font-family="sans-serif" font-size="14" lengthAdjust="spacing" textLength="180" x="506.5" y="760.4141">RegisterCandidateController</text><ellipse cx="599.5" cy="779.9277" fill="#E2E2F0" rx="12" ry="12" style="stroke:#181818;stroke-width:0.5;"/><polygon fill="#181818" points="595.5,767.9277,601.5,762.9277,599.5,767.9277,601.5,772.9277,595.5,767.9277" style="stroke:#181818;stroke-width:1.0;"/><text fill="#000000" font-family="sans-serif" font-size="14" lengthAdjust="spacing" textLength="65" x="702.5" y="760.4141">Candidate</text><ellipse cx="738" cy="779.9277" fill="#E2E2F0" rx="12" ry="12" style="stroke:#181818;stroke-width:0.5;"/><line style="stroke:#181818;stroke-width:0.5;" x1="726" x2="750" y1="793.9277" y2="793.9277"/><text fill="#000000" font-family="sans-serif" font-size="14" lengthAdjust="spacing" textLength="133" x="783.5" y="80.1074">CandidateRepository</text><path d="M835,29 C835,19 853,19 853,19 C853,19 871,19 871,29 L871,55 C871,65 853,65 853,65 C853,65 835,65 835,55 L835,29 " fill="#E2E2F0" style="stroke:#181818;stroke-width:1.5;"/><path d="M835,29 C835,39 853,39 853,39 C853,39 871,39 871,29 " fill="none" style="stroke:#181818;stroke-width:1.5;"/><text fill="#000000" font-family="sans-serif" font-size="14" lengthAdjust="spacing" textLength="133" x="783.5" y="760.4141">CandidateRepository</text><path d="M835,773.9277 C835,763.9277 853,763.9277 853,763.9277 C853,763.9277 871,763.9277 871,773.9277 L871,799.9277 C871,809.9277 853,809.9277 853,809.9277 C853,809.9277 835,809.9277 835,799.9277 L835,773.9277 " fill="#E2E2F0" style="stroke:#181818;stroke-width:1.5;"/><path d="M835,773.9277 C835,783.9277 853,783.9277 853,783.9277 C853,783.9277 871,783.9277 871,773.9277 " fill="none" style="stroke:#181818;stroke-width:1.5;"/><text fill="#000000" font-family="sans-serif" font-size="14" lengthAdjust="spacing" textLength="171" x="932.5" y="760.4141">Jobs4uPasswordGenerator</text><ellipse cx="1021" cy="779.9277" fill="#E2E2F0" rx="12" ry="12" style="stroke:#181818;stroke-width:0.5;"/><line style="stroke:#181818;stroke-width:0.5;" x1="1009" x2="1033" y1="793.9277" y2="793.9277"/><text fill="#000000" font-family="sans-serif" font-size="14" lengthAdjust="spacing" textLength="170" x="1119.5" y="760.4141">CandidateRegisteredEvent</text><ellipse cx="1207.5" cy="779.9277" fill="#E2E2F0" rx="12" ry="12" style="stroke:#181818;stroke-width:0.5;"/><line style="stroke:#181818;stroke-width:0.5;" x1="1195.5" x2="1219.5" y1="793.9277" y2="793.9277"/><text fill="#000000" font-family="sans-serif" font-size="14" lengthAdjust="spacing" textLength="129" x="1305.5" y="80.1074">AuthorizationService</text><ellipse cx="1373" cy="49" fill="#E2E2F0" rx="12" ry="12" style="stroke:#181818;stroke-width:0.5;"/><line style="stroke:#181818;stroke-width:0.5;" x1="1361" x2="1385" y1="63" y2="63"/><text fill="#000000" font-family="sans-serif" font-size="14" lengthAdjust="spacing" textLength="129" x="1305.5" y="760.4141">AuthorizationService</text><ellipse cx="1373" cy="779.9277" fill="#E2E2F0" rx="12" ry="12" style="stroke:#181818;stroke-width:0.5;"/><line style="stroke:#181818;stroke-width:0.5;" x1="1361" x2="1385" y1="793.9277" y2="793.9277"/><rect fill="#FFFFFF" height="634.6855" style="stroke:#181818;stroke-width:1.0;" width="10" x="31.5" y="93.6211"/><rect fill="#FFFFFF" height="611.3945" style="stroke:#181818;stroke-width:1.0;" width="10" x="218.5" y="116.9121"/><rect fill="#FFFFFF" height="488.1914" style="stroke:#181818;stroke-width:1.0;" width="10" x="594.5" y="208.8242"/><rect fill="#FFFFFF" height="266.3672" style="stroke:#181818;stroke-width:1.0;" width="10" x="599.5" y="370.0273"/><rect fill="#FFFFFF" height="75.582" style="stroke:#181818;stroke-width:1.0;" width="10" x="848" y="406.3184"/><rect fill="#FFFFFF" height="31.291" style="stroke:#181818;stroke-width:1.0;" width="10" x="1016" y="573.8125"/><rect fill="#FFFFFF" height="90.9121" style="stroke:#181818;stroke-width:1.0;" width="10" x="1202.5" y="646.3945"/><rect fill="#FFFFFF" height="30" style="stroke:#181818;stroke-width:1.0;" width="10" x="1368" y="240.1152"/><polygon fill="#181818" points="206.5,112.9121,216.5,116.9121,206.5,120.9121,210.5,116.9121" style="stroke:#181818;stroke-width:1.0;"/><line style="stroke:#181818;stroke-width:1.0;" x1="41.5" x2="212.5" y1="116.9121" y2="116.9121"/><text fill="#000000" font-family="sans-serif" font-size="13" lengthAdjust="spacing" textLength="158" x="48.5" y="111.6494">tries to register a candidate</text><polygon fill="#181818" points="494.5,144.2031,504.5,148.2031,494.5,152.2031,498.5,148.2031" style="stroke:#181818;stroke-width:1.0;"/><line style="stroke:#181818;stroke-width:1.0;" x1="228.5" x2="500.5" y1="148.2031" y2="148.2031"/><text fill="#000000" font-family="sans-serif" font-size="13" lengthAdjust="spacing" textLength="36" x="235.5" y="142.9404">create</text><text fill="#000000" font-family="sans-serif" font-size="14" lengthAdjust="spacing" textLength="180" x="506.5" y="172.0195">RegisterCandidateController</text><ellipse cx="599.5" cy="140.9121" fill="#E2E2F0" rx="12" ry="12" style="stroke:#181818;stroke-width:0.5;"/><polygon fill="#181818" points="595.5,128.9121,601.5,123.9121,599.5,128.9121,601.5,133.9121,595.5,128.9121" style="stroke:#181818;stroke-width:1.0;"/><polygon fill="#181818" points="582.5,204.8242,592.5,208.8242,582.5,212.8242,586.5,208.8242" style="stroke:#181818;stroke-width:1.0;"/><line style="stroke:#181818;stroke-width:1.0;" x1="228.5" x2="588.5" y1="208.8242" y2="208.8242"/><text fill="#000000" font-family="sans-serif" font-size="13" lengthAdjust="spacing" textLength="347" x="235.5" y="203.5615">registerCandidate(email, firstname, surname, phoneNumber)</text><polygon fill="#181818" points="1356,236.1152,1366,240.1152,1356,244.1152,1360,240.1152" style="stroke:#181818;stroke-width:1.0;"/><line style="stroke:#181818;stroke-width:1.0;" x1="604.5" x2="1362" y1="240.1152" y2="240.1152"/><text fill="#000000" font-family="sans-serif" font-size="13" lengthAdjust="spacing" textLength="213" x="611.5" y="234.8525">ensureAuthenticatedUserHasAnyOf()</text><polygon fill="#181818" points="690.5,297.4063,700.5,301.4063,690.5,305.4063,694.5,301.4063" style="stroke:#181818;stroke-width:1.0;"/><line style="stroke:#181818;stroke-width:1.0;" x1="604.5" x2="696.5" y1="301.4063" y2="301.4063"/><text fill="#000000" font-family="sans-serif" font-size="13" lengthAdjust="spacing" textLength="36" x="611.5" y="296.1436">create</text><text fill="#000000" font-family="sans-serif" font-size="14" lengthAdjust="spacing" textLength="65" x="702.5" y="325.2227">Candidate</text><ellipse cx="738" cy="294.1152" fill="#E2E2F0" rx="12" ry="12" style="stroke:#181818;stroke-width:0.5;"/><line style="stroke:#181818;stroke-width:0.5;" x1="726" x2="750" y1="308.1152" y2="308.1152"/><line style="stroke:#181818;stroke-width:1.0;" x1="604.5" x2="651.5" y1="357.0273" y2="357.0273"/><line style="stroke:#181818;stroke-width:1.0;" x1="651.5" x2="651.5" y1="357.0273" y2="370.0273"/><line style="stroke:#181818;stroke-width:1.0;" x1="610.5" x2="651.5" y1="370.0273" y2="370.0273"/><polygon fill="#181818" points="620.5,366.0273,610.5,370.0273,620.5,374.0273,616.5,370.0273" style="stroke:#181818;stroke-width:1.0;"/><text fill="#000000" font-family="sans-serif" font-size="13" lengthAdjust="spacing" textLength="92" x="616.5" y="351.7646">saveCandidate()</text><polygon fill="#181818" points="836,402.3184,846,406.3184,836,410.3184,840,406.3184" style="stroke:#181818;stroke-width:1.0;"/><line style="stroke:#181818;stroke-width:1.0;" x1="609.5" x2="842" y1="406.3184" y2="406.3184"/><text fill="#000000" font-family="sans-serif" font-size="13" lengthAdjust="spacing" textLength="90" x="616.5" y="401.0557">save(candidate)</text><line style="stroke:#181818;stroke-width:1.0;" x1="858" x2="900" y1="437.6094" y2="437.6094"/><line style="stroke:#181818;stroke-width:1.0;" x1="900" x2="900" y1="437.6094" y2="450.6094"/><line style="stroke:#181818;stroke-width:1.0;" x1="859" x2="900" y1="450.6094" y2="450.6094"/><polygon fill="#181818" points="869,446.6094,859,450.6094,869,454.6094,865,450.6094" style="stroke:#181818;stroke-width:1.0;"/><text fill="#000000" font-family="sans-serif" font-size="13" lengthAdjust="spacing" textLength="103" x="865" y="432.3467">persist(candidate)</text><polygon fill="#181818" points="620.5,477.9004,610.5,481.9004,620.5,485.9004,616.5,481.9004" style="stroke:#181818;stroke-width:1.0;"/><line style="stroke:#181818;stroke-width:1.0;" x1="614.5" x2="852" y1="481.9004" y2="481.9004"/><text fill="#000000" font-family="sans-serif" font-size="13" lengthAdjust="spacing" textLength="56" x="626.5" y="476.6377">candidate</text><polygon fill="#181818" points="920.5,509.1914,930.5,513.1914,920.5,517.1914,924.5,513.1914" style="stroke:#181818;stroke-width:1.0;"/><line style="stroke:#181818;stroke-width:1.0;" x1="609.5" x2="926.5" y1="513.1914" y2="513.1914"/><text fill="#000000" font-family="sans-serif" font-size="13" lengthAdjust="spacing" textLength="36" x="616.5" y="507.9287">create</text><text fill="#000000" font-family="sans-serif" font-size="14" lengthAdjust="spacing" textLength="171" x="932.5" y="537.0078">Jobs4uPasswordGenerator</text><ellipse cx="1021" cy="505.9004" fill="#E2E2F0" rx="12" ry="12" style="stroke:#181818;stroke-width:0.5;"/><line style="stroke:#181818;stroke-width:0.5;" x1="1009" x2="1033" y1="519.9004" y2="519.9004"/><polygon fill="#181818" points="1004,569.8125,1014,573.8125,1004,577.8125,1008,573.8125" style="stroke:#181818;stroke-width:1.0;"/><line style="stroke:#181818;stroke-width:1.0;" x1="609.5" x2="1010" y1="573.8125" y2="573.8125"/><text fill="#000000" font-family="sans-serif" font-size="13" lengthAdjust="spacing" textLength="115" x="616.5" y="568.5498">generatePassword()</text><polygon fill="#181818" points="620.5,601.1035,610.5,605.1035,620.5,609.1035,616.5,605.1035" style="stroke:#181818;stroke-width:1.0;"/><line style="stroke:#181818;stroke-width:1.0;" x1="614.5" x2="1020" y1="605.1035" y2="605.1035"/><text fill="#000000" font-family="sans-serif" font-size="13" lengthAdjust="spacing" textLength="55" x="626.5" y="599.8408">password</text><polygon fill="#181818" points="1107.5,632.3945,1117.5,636.3945,1107.5,640.3945,1111.5,636.3945" style="stroke:#181818;stroke-width:1.0;"/><line style="stroke:#181818;stroke-width:1.0;" x1="604.5" x2="1113.5" y1="636.3945" y2="636.3945"/><text fill="#000000" font-family="sans-serif" font-size="13" lengthAdjust="spacing" textLength="36" x="611.5" y="631.1318">create</text><text fill="#000000" font-family="sans-serif" font-size="14" lengthAdjust="spacing" textLength="170" x="1119.5" y="660.2109">CandidateRegisteredEvent</text><ellipse cx="1207.5" cy="629.1035" fill="#E2E2F0" rx="12" ry="12" style="stroke:#181818;stroke-width:0.5;"/><line style="stroke:#181818;stroke-width:0.5;" x1="1195.5" x2="1219.5" y1="643.1035" y2="643.1035"/><polygon fill="#181818" points="239.5,693.0156,229.5,697.0156,239.5,701.0156,235.5,697.0156" style="stroke:#181818;stroke-width:1.0;"/><line style="stroke:#181818;stroke-width:1.0;" x1="233.5" x2="598.5" y1="697.0156" y2="697.0156"/><text fill="#000000" font-family="sans-serif" font-size="13" lengthAdjust="spacing" textLength="56" x="245.5" y="691.7529">candidate</text><polygon fill="#181818" points="47.5,724.3066,37.5,728.3066,47.5,732.3066,43.5,728.3066" style="stroke:#181818;stroke-width:1.0;"/><line style="stroke:#181818;stroke-width:1.0;" x1="41.5" x2="222.5" y1="728.3066" y2="728.3066"/><text fill="#000000" font-family="sans-serif" font-size="13" lengthAdjust="spacing" textLength="28" x="53.5" y="723.0439">done</text><!--SRC=[ZLF1Ri8m3BttAo9E3B7RJXmc8JHjx30c9Zx0RSo814dbf9tOryzjIkiIa7QfulWz-_arXY8uKfiI2Pe3UENAB7ULrK1dDTdYj_41QGLM6mq1T-j90zgjiyBPGEvu0xEAcIDIYnt236qmWSlsq0YuH1b_80UF0h75qdd3siujTWZxOkykzq_L9tZ_uqY_eespjF3aDfLmaO_wfUPaIsjFFNHPXOCZyml1EFk5L9iY2cyINPnbK0HJSxt6G5UgnsSsIIrK88DU1QUewwD05Vt0FOaDPJYJ1hTcCwONX0qkINAAhdsVuWdCSQxsXdomSCAvyXN5Gtbm5Z-gKuxqC7GLlqQKvaPYCkw4bkjWSzTOKZ1JxppI6_YbFM_sKr5HMgBnvlMuKwzUZdi5aLDxg76O-3-p34-ceqzx_mLTF2n1kARpddWsNLOOeqTQX_yih12DnZgJjthVaGJAmEzunajEUfEkGLhXMdpP8QJsjCvOLxitKdRFZ1ibIYKNT_zVkqOthHIKk1-yTmkb-QLB5A-MY7Wx_m00]--></g></svg>