<?xml version="1.0" encoding="us-ascii" standalone="no"?><svg xmlns="http://www.w3.org/2000/svg" xmlns:xlink="http://www.w3.org/1999/xlink" contentStyleType="text/css" height="815px" preserveAspectRatio="none" style="width:1623px;height:815px;background:#FFFFFF;" version="1.1" viewBox="0 0 1623 815" width="1623px" zoomAndPan="magnify"><defs/><g><rect fill="#FFFFFF" height="724.543" style="stroke:#181818;stroke-width:1.0;" width="10" x="70.5" y="46.4883"/><rect fill="#FFFFFF" height="694.2324" style="stroke:#181818;stroke-width:1.0;" width="10" x="333.5" y="67.7988"/><rect fill="#FFFFFF" height="504.8809" style="stroke:#181818;stroke-width:1.0;" width="10" x="574.5" y="212.5293"/><rect fill="#FFFFFF" height="446.2598" style="stroke:#181818;stroke-width:1.0;" width="10" x="815.5" y="241.8398"/><rect fill="#FFFFFF" height="29.3105" style="stroke:#181818;stroke-width:1.0;" width="10" x="998.5" y="271.1504"/><rect fill="#FFFFFF" height="178.5977" style="stroke:#181818;stroke-width:1.0;" width="10" x="1118" y="395.5703"/><rect fill="#FFFFFF" height="142.2871" style="stroke:#181818;stroke-width:1.0;" width="10" x="1267" y="395.5703"/><rect fill="#FFFFFF" height="30" style="stroke:#181818;stroke-width:1.0;" width="10" x="1431.5" y="507.8574"/><rect fill="none" height="230.3965" style="stroke:#000000;stroke-width:1.5;" width="902.5" x="714.5" y="315.4609"/><line style="stroke:#181818;stroke-width:0.5;stroke-dasharray:5.0,5.0;" x1="75" x2="75" y1="36.4883" y2="780.0313"/><line style="stroke:#181818;stroke-width:0.5;stroke-dasharray:5.0,5.0;" x1="338.5" x2="338.5" y1="36.4883" y2="780.0313"/><line style="stroke:#181818;stroke-width:0.5;stroke-dasharray:5.0,5.0;" x1="579.5" x2="579.5" y1="106.543" y2="780.0313"/><line style="stroke:#181818;stroke-width:0.5;stroke-dasharray:5.0,5.0;" x1="820.5" x2="820.5" y1="36.4883" y2="780.0313"/><line style="stroke:#181818;stroke-width:0.5;stroke-dasharray:5.0,5.0;" x1="1003.5" x2="1003.5" y1="36.4883" y2="780.0313"/><line style="stroke:#181818;stroke-width:0.5;stroke-dasharray:5.0,5.0;" x1="1122.5" x2="1122.5" y1="363.5156" y2="780.0313"/><line style="stroke:#181818;stroke-width:0.5;stroke-dasharray:5.0,5.0;" x1="1272" x2="1272" y1="36.4883" y2="780.0313"/><line style="stroke:#181818;stroke-width:0.5;stroke-dasharray:5.0,5.0;" x1="1436" x2="1436" y1="434.3145" y2="780.0313"/><line style="stroke:#181818;stroke-width:0.5;stroke-dasharray:5.0,5.0;" x1="1561" x2="1561" y1="475.8027" y2="780.0313"/><rect fill="#E2E2F0" height="30.4883" rx="2.5" ry="2.5" style="stroke:#181818;stroke-width:0.5;" width="141" x="5" y="5"/><text fill="#000000" font-family="sans-serif" font-size="14" lengthAdjust="spacing" textLength="127" x="12" y="25.5352">CustomerManager</text><rect fill="#E2E2F0" height="30.4883" rx="2.5" ry="2.5" style="stroke:#181818;stroke-width:0.5;" width="141" x="5" y="779.0313"/><text fill="#000000" font-family="sans-serif" font-size="14" lengthAdjust="spacing" textLength="127" x="12" y="799.5664">CustomerManager</text><rect fill="#E2E2F0" height="30.4883" rx="2.5" ry="2.5" style="stroke:#181818;stroke-width:0.5;" width="174" x="251.5" y="5"/><text fill="#000000" font-family="sans-serif" font-size="14" lengthAdjust="spacing" textLength="160" x="258.5" y="25.5352">DisplayCandidateInfoUI</text><rect fill="#E2E2F0" height="30.4883" rx="2.5" ry="2.5" style="stroke:#181818;stroke-width:0.5;" width="174" x="251.5" y="779.0313"/><text fill="#000000" font-family="sans-serif" font-size="14" lengthAdjust="spacing" textLength="160" x="258.5" y="799.5664">DisplayCandidateInfoUI</text><rect fill="#E2E2F0" height="30.4883" rx="2.5" ry="2.5" style="stroke:#181818;stroke-width:0.5;" width="214" x="472.5" y="779.0313"/><text fill="#000000" font-family="sans-serif" font-size="14" lengthAdjust="spacing" textLength="200" x="479.5" y="799.5664">CountTop20WordsController</text><rect fill="#E2E2F0" height="30.4883" rx="2.5" ry="2.5" style="stroke:#181818;stroke-width:0.5;" width="192" x="724.5" y="5"/><text fill="#000000" font-family="sans-serif" font-size="14" lengthAdjust="spacing" textLength="178" x="731.5" y="25.5352">CountTop20WordsService</text><rect fill="#E2E2F0" height="30.4883" rx="2.5" ry="2.5" style="stroke:#181818;stroke-width:0.5;" width="192" x="724.5" y="779.0313"/><text fill="#000000" font-family="sans-serif" font-size="14" lengthAdjust="spacing" textLength="178" x="731.5" y="799.5664">CountTop20WordsService</text><rect fill="#E2E2F0" height="30.4883" rx="2.5" ry="2.5" style="stroke:#181818;stroke-width:0.5;" width="114" x="946.5" y="5"/><text fill="#000000" font-family="sans-serif" font-size="14" lengthAdjust="spacing" textLength="100" x="953.5" y="25.5352">JobApplication</text><rect fill="#E2E2F0" height="30.4883" rx="2.5" ry="2.5" style="stroke:#181818;stroke-width:0.5;" width="114" x="946.5" y="779.0313"/><text fill="#000000" font-family="sans-serif" font-size="14" lengthAdjust="spacing" textLength="100" x="953.5" y="799.5664">JobApplication</text><rect fill="#E2E2F0" height="30.4883" rx="2.5" ry="2.5" style="stroke:#181818;stroke-width:0.5;" width="105" x="1070.5" y="779.0313"/><text fill="#000000" font-family="sans-serif" font-size="14" lengthAdjust="spacing" textLength="91" x="1077.5" y="799.5664">FileProcessor</text><rect fill="#E2E2F0" height="30.4883" rx="2.5" ry="2.5" style="stroke:#181818;stroke-width:0.5;" width="106" x="1219" y="5"/><text fill="#000000" font-family="sans-serif" font-size="14" lengthAdjust="spacing" textLength="92" x="1226" y="25.5352">WordCounter</text><rect fill="#E2E2F0" height="30.4883" rx="2.5" ry="2.5" style="stroke:#181818;stroke-width:0.5;" width="106" x="1219" y="779.0313"/><text fill="#000000" font-family="sans-serif" font-size="14" lengthAdjust="spacing" textLength="92" x="1226" y="799.5664">WordCounter</text><rect fill="#E2E2F0" height="30.4883" rx="2.5" ry="2.5" style="stroke:#181818;stroke-width:0.5;" width="137" x="1368" y="779.0313"/><text fill="#000000" font-family="sans-serif" font-size="14" lengthAdjust="spacing" textLength="123" x="1375" y="799.5664">List&lt;WordCount&gt;</text><rect fill="#E2E2F0" height="30.4883" rx="2.5" ry="2.5" style="stroke:#181818;stroke-width:0.5;" width="92" x="1515" y="779.0313"/><text fill="#000000" font-family="sans-serif" font-size="14" lengthAdjust="spacing" textLength="78" x="1522" y="799.5664">WordCount</text><rect fill="#FFFFFF" height="724.543" style="stroke:#181818;stroke-width:1.0;" width="10" x="70.5" y="46.4883"/><rect fill="#FFFFFF" height="694.2324" style="stroke:#181818;stroke-width:1.0;" width="10" x="333.5" y="67.7988"/><rect fill="#FFFFFF" height="504.8809" style="stroke:#181818;stroke-width:1.0;" width="10" x="574.5" y="212.5293"/><rect fill="#FFFFFF" height="446.2598" style="stroke:#181818;stroke-width:1.0;" width="10" x="815.5" y="241.8398"/><rect fill="#FFFFFF" height="29.3105" style="stroke:#181818;stroke-width:1.0;" width="10" x="998.5" y="271.1504"/><rect fill="#FFFFFF" height="178.5977" style="stroke:#181818;stroke-width:1.0;" width="10" x="1118" y="395.5703"/><rect fill="#FFFFFF" height="142.2871" style="stroke:#181818;stroke-width:1.0;" width="10" x="1267" y="395.5703"/><rect fill="#FFFFFF" height="30" style="stroke:#181818;stroke-width:1.0;" width="10" x="1431.5" y="507.8574"/><polygon fill="#181818" points="321.5,63.7988,331.5,67.7988,321.5,71.7988,325.5,67.7988" style="stroke:#181818;stroke-width:1.0;"/><line style="stroke:#181818;stroke-width:1.0;" x1="80.5" x2="327.5" y1="67.7988" y2="67.7988"/><text fill="#000000" font-family="sans-serif" font-size="13" font-weight="bold" lengthAdjust="spacing" textLength="9" x="87.5" y="63.0566">1</text><text fill="#000000" font-family="sans-serif" font-size="13" lengthAdjust="spacing" textLength="141" x="100.5" y="63.0566">display Candidate Info</text><polygon fill="#181818" points="460.5,93.1094,470.5,97.1094,460.5,101.1094,464.5,97.1094" style="stroke:#181818;stroke-width:1.0;"/><line style="stroke:#181818;stroke-width:1.0;" x1="343.5" x2="466.5" y1="97.1094" y2="97.1094"/><text fill="#000000" font-family="sans-serif" font-size="13" font-weight="bold" lengthAdjust="spacing" textLength="9" x="350.5" y="92.3672">2</text><text fill="#000000" font-family="sans-serif" font-size="13" lengthAdjust="spacing" textLength="45" x="363.5" y="92.3672">creates</text><rect fill="#E2E2F0" height="30.4883" rx="2.5" ry="2.5" style="stroke:#181818;stroke-width:0.5;" width="214" x="472.5" y="75.7988"/><text fill="#000000" font-family="sans-serif" font-size="14" lengthAdjust="spacing" textLength="200" x="479.5" y="96.334">CountTop20WordsController</text><polygon fill="#181818" points="91.5,149.9082,81.5,153.9082,91.5,157.9082,87.5,153.9082" style="stroke:#181818;stroke-width:1.0;"/><line style="stroke:#181818;stroke-width:1.0;" x1="85.5" x2="332.5" y1="153.9082" y2="153.9082"/><text fill="#000000" font-family="sans-serif" font-size="13" font-weight="bold" lengthAdjust="spacing" textLength="9" x="97.5" y="141.5107">3</text><text fill="#000000" font-family="sans-serif" font-size="13" lengthAdjust="spacing" textLength="142" x="110.5" y="133.8555">Candidate Info and his</text><text fill="#000000" font-family="sans-serif" font-size="13" lengthAdjust="spacing" textLength="103" x="110.5" y="149.166">Job Applications</text><polygon fill="#181818" points="321.5,179.2188,331.5,183.2188,321.5,187.2188,325.5,183.2188" style="stroke:#181818;stroke-width:1.0;"/><line style="stroke:#181818;stroke-width:1.0;" x1="80.5" x2="327.5" y1="183.2188" y2="183.2188"/><text fill="#000000" font-family="sans-serif" font-size="13" font-weight="bold" lengthAdjust="spacing" textLength="9" x="87.5" y="178.4766">4</text><text fill="#000000" font-family="sans-serif" font-size="13" lengthAdjust="spacing" textLength="148" x="100.5" y="178.4766">select a Job Application</text><polygon fill="#181818" points="562.5,208.5293,572.5,212.5293,562.5,216.5293,566.5,212.5293" style="stroke:#181818;stroke-width:1.0;"/><line style="stroke:#181818;stroke-width:1.0;" x1="343.5" x2="568.5" y1="212.5293" y2="212.5293"/><text fill="#000000" font-family="sans-serif" font-size="13" font-weight="bold" lengthAdjust="spacing" textLength="9" x="350.5" y="207.7871">5</text><text fill="#000000" font-family="sans-serif" font-size="13" lengthAdjust="spacing" textLength="199" x="363.5" y="207.7871">getTop20Words(JobApplication)</text><polygon fill="#181818" points="803.5,237.8398,813.5,241.8398,803.5,245.8398,807.5,241.8398" style="stroke:#181818;stroke-width:1.0;"/><line style="stroke:#181818;stroke-width:1.0;" x1="584.5" x2="809.5" y1="241.8398" y2="241.8398"/><text fill="#000000" font-family="sans-serif" font-size="13" font-weight="bold" lengthAdjust="spacing" textLength="9" x="591.5" y="237.0977">6</text><text fill="#000000" font-family="sans-serif" font-size="13" lengthAdjust="spacing" textLength="199" x="604.5" y="237.0977">getTop20Words(JobApplication)</text><polygon fill="#181818" points="986.5,267.1504,996.5,271.1504,986.5,275.1504,990.5,271.1504" style="stroke:#181818;stroke-width:1.0;"/><line style="stroke:#181818;stroke-width:1.0;" x1="825.5" x2="992.5" y1="271.1504" y2="271.1504"/><text fill="#000000" font-family="sans-serif" font-size="13" font-weight="bold" lengthAdjust="spacing" textLength="9" x="832.5" y="266.4082">7</text><text fill="#000000" font-family="sans-serif" font-size="13" lengthAdjust="spacing" textLength="141" x="845.5" y="266.4082">getJobApplicationFiles</text><polygon fill="#181818" points="836.5,296.4609,826.5,300.4609,836.5,304.4609,832.5,300.4609" style="stroke:#181818;stroke-width:1.0;"/><line style="stroke:#181818;stroke-width:1.0;" x1="830.5" x2="1002.5" y1="300.4609" y2="300.4609"/><text fill="#000000" font-family="sans-serif" font-size="13" font-weight="bold" lengthAdjust="spacing" textLength="9" x="842.5" y="295.7188">8</text><text fill="#000000" font-family="sans-serif" font-size="13" lengthAdjust="spacing" textLength="65" x="855.5" y="295.7188">List&lt;File&gt;</text><path d="M714.5,315.4609 L788.5,315.4609 L788.5,322.7715 L778.5,332.7715 L714.5,332.7715 L714.5,315.4609 " fill="#EEEEEE" style="stroke:#000000;stroke-width:1.5;"/><rect fill="none" height="230.3965" style="stroke:#000000;stroke-width:1.5;" width="902.5" x="714.5" y="315.4609"/><text fill="#000000" font-family="sans-serif" font-size="13" font-weight="bold" lengthAdjust="spacing" textLength="29" x="729.5" y="329.0293">loop</text><text fill="#000000" font-family="sans-serif" font-size="11" font-weight="bold" lengthAdjust="spacing" textLength="77" x="803.5" y="328.0957">[for each file]</text><polygon fill="#181818" points="1058.5,350.082,1068.5,354.082,1058.5,358.082,1062.5,354.082" style="stroke:#181818;stroke-width:1.0;"/><line style="stroke:#181818;stroke-width:1.0;" x1="825.5" x2="1064.5" y1="354.082" y2="354.082"/><text fill="#000000" font-family="sans-serif" font-size="13" font-weight="bold" lengthAdjust="spacing" textLength="9" x="832.5" y="349.3398">9</text><text fill="#000000" font-family="sans-serif" font-size="13" lengthAdjust="spacing" textLength="45" x="845.5" y="349.3398">creates</text><rect fill="#E2E2F0" height="30.4883" rx="2.5" ry="2.5" style="stroke:#181818;stroke-width:0.5;" width="105" x="1070.5" y="332.7715"/><text fill="#000000" font-family="sans-serif" font-size="14" lengthAdjust="spacing" textLength="91" x="1077.5" y="353.3066">FileProcessor</text><polygon fill="#181818" points="1255,391.5703,1265,395.5703,1255,399.5703,1259,395.5703" style="stroke:#181818;stroke-width:1.0;"/><line style="stroke:#181818;stroke-width:1.0;" x1="1128" x2="1261" y1="395.5703" y2="395.5703"/><text fill="#000000" font-family="sans-serif" font-size="13" font-weight="bold" lengthAdjust="spacing" textLength="18" x="1135" y="390.8281">10</text><text fill="#000000" font-family="sans-serif" font-size="13" lengthAdjust="spacing" textLength="103" x="1157" y="390.8281">countWords(file)</text><polygon fill="#181818" points="1356,420.8809,1366,424.8809,1356,428.8809,1360,424.8809" style="stroke:#181818;stroke-width:1.0;"/><line style="stroke:#181818;stroke-width:1.0;" x1="1277" x2="1362" y1="424.8809" y2="424.8809"/><text fill="#000000" font-family="sans-serif" font-size="13" font-weight="bold" lengthAdjust="spacing" textLength="18" x="1284" y="420.1387">11</text><text fill="#000000" font-family="sans-serif" font-size="13" lengthAdjust="spacing" textLength="45" x="1306" y="420.1387">creates</text><rect fill="#E2E2F0" height="30.4883" rx="2.5" ry="2.5" style="stroke:#181818;stroke-width:0.5;" width="137" x="1368" y="403.5703"/><text fill="#000000" font-family="sans-serif" font-size="14" lengthAdjust="spacing" textLength="123" x="1375" y="424.1055">List&lt;WordCount&gt;</text><polygon fill="#181818" points="1503,462.3691,1513,466.3691,1503,470.3691,1507,466.3691" style="stroke:#181818;stroke-width:1.0;"/><line style="stroke:#181818;stroke-width:1.0;" x1="1277" x2="1509" y1="466.3691" y2="466.3691"/><text fill="#000000" font-family="sans-serif" font-size="13" font-weight="bold" lengthAdjust="spacing" textLength="18" x="1284" y="461.627">12</text><text fill="#000000" font-family="sans-serif" font-size="13" lengthAdjust="spacing" textLength="45" x="1306" y="461.627">creates</text><rect fill="#E2E2F0" height="30.4883" rx="2.5" ry="2.5" style="stroke:#181818;stroke-width:0.5;" width="92" x="1515" y="445.0586"/><text fill="#000000" font-family="sans-serif" font-size="14" lengthAdjust="spacing" textLength="78" x="1522" y="465.5938">WordCount</text><polygon fill="#181818" points="1419.5,503.8574,1429.5,507.8574,1419.5,511.8574,1423.5,507.8574" style="stroke:#181818;stroke-width:1.0;"/><line style="stroke:#181818;stroke-width:1.0;" x1="1277" x2="1425.5" y1="507.8574" y2="507.8574"/><text fill="#000000" font-family="sans-serif" font-size="13" font-weight="bold" lengthAdjust="spacing" textLength="18" x="1284" y="503.1152">13</text><text fill="#000000" font-family="sans-serif" font-size="13" lengthAdjust="spacing" textLength="62" x="1306" y="503.1152">add(word)</text><polygon fill="#181818" points="836.5,570.168,826.5,574.168,836.5,578.168,832.5,574.168" style="stroke:#181818;stroke-width:1.0;"/><line style="stroke:#181818;stroke-width:1.0;stroke-dasharray:2.0,2.0;" x1="830.5" x2="1122" y1="574.168" y2="574.168"/><text fill="#000000" font-family="sans-serif" font-size="13" font-weight="bold" lengthAdjust="spacing" textLength="18" x="842.5" y="569.4258">14</text><text fill="#000000" font-family="sans-serif" font-size="13" lengthAdjust="spacing" textLength="113" x="864.5" y="569.4258">List&lt;WordCount&gt;</text><line style="stroke:#181818;stroke-width:1.0;" x1="825.5" x2="867.5" y1="603.4785" y2="603.4785"/><line style="stroke:#181818;stroke-width:1.0;" x1="867.5" x2="867.5" y1="603.4785" y2="616.4785"/><line style="stroke:#181818;stroke-width:1.0;" x1="826.5" x2="867.5" y1="616.4785" y2="616.4785"/><polygon fill="#181818" points="836.5,612.4785,826.5,616.4785,836.5,620.4785,832.5,616.4785" style="stroke:#181818;stroke-width:1.0;"/><text fill="#000000" font-family="sans-serif" font-size="13" font-weight="bold" lengthAdjust="spacing" textLength="18" x="832.5" y="598.7363">15</text><text fill="#000000" font-family="sans-serif" font-size="13" lengthAdjust="spacing" textLength="72" x="854.5" y="598.7363">sortWords()</text><line style="stroke:#181818;stroke-width:1.0;" x1="825.5" x2="867.5" y1="645.7891" y2="645.7891"/><line style="stroke:#181818;stroke-width:1.0;" x1="867.5" x2="867.5" y1="645.7891" y2="658.7891"/><line style="stroke:#181818;stroke-width:1.0;" x1="826.5" x2="867.5" y1="658.7891" y2="658.7891"/><polygon fill="#181818" points="836.5,654.7891,826.5,658.7891,836.5,662.7891,832.5,658.7891" style="stroke:#181818;stroke-width:1.0;"/><text fill="#000000" font-family="sans-serif" font-size="13" font-weight="bold" lengthAdjust="spacing" textLength="18" x="832.5" y="641.0469">16</text><text fill="#000000" font-family="sans-serif" font-size="13" lengthAdjust="spacing" textLength="107" x="854.5" y="641.0469">getTop20Words()</text><polygon fill="#181818" points="595.5,684.0996,585.5,688.0996,595.5,692.0996,591.5,688.0996" style="stroke:#181818;stroke-width:1.0;"/><line style="stroke:#181818;stroke-width:1.0;stroke-dasharray:2.0,2.0;" x1="589.5" x2="819.5" y1="688.0996" y2="688.0996"/><text fill="#000000" font-family="sans-serif" font-size="13" font-weight="bold" lengthAdjust="spacing" textLength="18" x="601.5" y="683.3574">17</text><text fill="#000000" font-family="sans-serif" font-size="13" lengthAdjust="spacing" textLength="113" x="623.5" y="683.3574">List&lt;WordCount&gt;</text><polygon fill="#181818" points="354.5,713.4102,344.5,717.4102,354.5,721.4102,350.5,717.4102" style="stroke:#181818;stroke-width:1.0;"/><line style="stroke:#181818;stroke-width:1.0;stroke-dasharray:2.0,2.0;" x1="348.5" x2="578.5" y1="717.4102" y2="717.4102"/><text fill="#000000" font-family="sans-serif" font-size="13" font-weight="bold" lengthAdjust="spacing" textLength="18" x="360.5" y="712.668">18</text><text fill="#000000" font-family="sans-serif" font-size="13" lengthAdjust="spacing" textLength="113" x="382.5" y="712.668">List&lt;WordCount&gt;</text><polygon fill="#181818" points="91.5,758.0313,81.5,762.0313,91.5,766.0313,87.5,762.0313" style="stroke:#181818;stroke-width:1.0;"/><line style="stroke:#181818;stroke-width:1.0;" x1="85.5" x2="337.5" y1="762.0313" y2="762.0313"/><text fill="#000000" font-family="sans-serif" font-size="13" font-weight="bold" lengthAdjust="spacing" textLength="18" x="97.5" y="749.6338">19</text><text fill="#000000" font-family="sans-serif" font-size="13" lengthAdjust="spacing" textLength="203" x="119.5" y="741.9785">show the Job Application details</text><text fill="#000000" font-family="sans-serif" font-size="13" lengthAdjust="spacing" textLength="134" x="119.5" y="757.2891">and the top 20 words</text><!--SRC=[ZLHDRzmW4BtpAqQvD1jfir6ELhLIjLMaLArKgQrwoOK0kqPYWG9Er7_V0RCsqDeD5nlcpMDuy_6k3y7wRhUpYkemdDKjC-UT5xy6ePdOSabFZfu9eKCmUZW_2qU8fIv89YqwmDLXyC6SXVj2DJq9TmNK0sN1k1hsKNgyuVU1QYuv3U9H7ysFnuGUPCDe1Xs-6tj_zzCuxWz61sUKojnisgvwVHFkHJAHNFpuN-C_cUSFrYh9Q916Zs5RMsCUf19VdM72UpFU7dedAAzHyRvq-nHX-gz1dwKFxoVaFW4LdYrG9Vihxb1v5kGBAfPL9Ua3sptgrW4VPOL9LuZ2pZwexI0ZU9RjvgO3Xgy8mcTROkmQ3i0TzD8_QLGA2gayQMBmGWaMW48390HmjTTtS195dgxhF6oIpnH-aMmOrtmIQNDcty895V6b92PBFaXoM9i8QvPO2_uVJB5ee5Yuho9BYO_E-mh6nIA3CiR24VL5I0z7T2MLlOvshCWogIquGyOqfDBinfzHh7Z1vY-VARfSyOlsIxMtW7mURurrNWQu0eqbl_gMXhO3olbrz5fvGkgprbeau7_sonDNC9L9QBwKXErsNrV6F1BM8bX8Gb464ojEgfpOpPlmTUTiiBcp2KCjkxQDjeZkqamp77tZP5ZnAJfxaFCCyhrvnTUATfQW685AvU59nxaK4G6xvFukLOmlcN7a4V87]--></g></svg>