<?xml version="1.0" encoding="us-ascii" standalone="no"?><svg xmlns="http://www.w3.org/2000/svg" xmlns:xlink="http://www.w3.org/1999/xlink" contentStyleType="text/css" height="1613px" preserveAspectRatio="none" style="width:2644px;height:1613px;background:#FFFFFF;" version="1.1" viewBox="0 0 2644 1613" width="2644px" zoomAndPan="magnify"><defs/><g><rect fill="#FFFFFF" height="1522.8828" style="stroke:#181818;stroke-width:1.0;" width="10" x="85.5" y="46.4883"/><rect fill="#FFFFFF" height="235.7949" style="stroke:#181818;stroke-width:1.0;" width="10" x="454.5" y="67.7988"/><rect fill="#FFFFFF" height="365.9043" style="stroke:#181818;stroke-width:1.0;" width="10" x="454.5" y="332.9043"/><rect fill="#FFFFFF" height="735.3203" style="stroke:#181818;stroke-width:1.0;" width="10" x="454.5" y="728.1191"/><rect fill="#FFFFFF" height="29.3105" style="stroke:#181818;stroke-width:1.0;" width="10" x="454.5" y="1524.0605"/><rect fill="#FFFFFF" height="146.5527" style="stroke:#181818;stroke-width:1.0;" width="10" x="826.5" y="97.1094"/><rect fill="#FFFFFF" height="307.2832" style="stroke:#181818;stroke-width:1.0;" width="10" x="826.5" y="362.2148"/><rect fill="#FFFFFF" height="676.6992" style="stroke:#181818;stroke-width:1.0;" width="10" x="826.5" y="757.4297"/><rect fill="#FFFFFF" height="29.3105" style="stroke:#181818;stroke-width:1.0;" width="10" x="826.5" y="1494.75"/><rect fill="#FFFFFF" height="29.3105" style="stroke:#181818;stroke-width:1.0;" width="10" x="1270.5" y="126.4199"/><rect fill="#FFFFFF" height="708.0098" style="stroke:#181818;stroke-width:1.0;" width="10" x="1418" y="786.7402"/><rect fill="#FFFFFF" height="40.3105" style="stroke:#181818;stroke-width:1.0;" width="10" x="1423" y="824.0508"/><rect fill="#FFFFFF" height="29.3105" style="stroke:#181818;stroke-width:1.0;" width="10" x="1618" y="185.041"/><rect fill="#FFFFFF" height="29.3105" style="stroke:#181818;stroke-width:1.0;" width="10" x="1790.5" y="966.4707"/><rect fill="#FFFFFF" height="248.6621" style="stroke:#181818;stroke-width:1.0;" width="10" x="1926.5" y="391.5254"/><rect fill="#FFFFFF" height="172.5527" style="stroke:#181818;stroke-width:1.0;" width="10" x="1926.5" y="1061.4023"/><rect fill="#FFFFFF" height="40.3105" style="stroke:#181818;stroke-width:1.0;" width="10" x="1931.5" y="1157.334"/><rect fill="#FFFFFF" height="87.9316" style="stroke:#181818;stroke-width:1.0;" width="10" x="1926.5" y="1287.5762"/><rect fill="#FFFFFF" height="87.9316" style="stroke:#181818;stroke-width:1.0;" width="10" x="2402" y="486.6348"/><rect fill="#FFFFFF" height="29.3105" style="stroke:#181818;stroke-width:1.0;" width="10" x="2522" y="515.9453"/><rect fill="#FFFFFF" height="29.3105" style="stroke:#181818;stroke-width:1.0;" width="10" x="2598" y="1090.7129"/><rect fill="#FFFFFF" height="29.3105" style="stroke:#181818;stroke-width:1.0;" width="10" x="2598" y="1316.8867"/><rect fill="none" height="163.8633" style="stroke:#000000;stroke-width:1.5;" width="705" x="1874" y="448.0137"/><rect fill="none" height="105.2422" style="stroke:#000000;stroke-width:1.5;" width="996" x="1354" y="927.8496"/><rect fill="none" height="312.416" style="stroke:#000000;stroke-width:1.5;" width="2627" x="10" y="1248.9551"/><line style="stroke:#181818;stroke-width:0.5;stroke-dasharray:5.0,5.0;" x1="90" x2="90" y1="36.4883" y2="1578.3711"/><line style="stroke:#181818;stroke-width:0.5;stroke-dasharray:5.0,5.0;" x1="459.5" x2="459.5" y1="36.4883" y2="1578.3711"/><line style="stroke:#181818;stroke-width:0.5;stroke-dasharray:5.0,5.0;" x1="831.5" x2="831.5" y1="36.4883" y2="1578.3711"/><line style="stroke:#181818;stroke-width:0.5;stroke-dasharray:5.0,5.0;" x1="1275" x2="1275" y1="36.4883" y2="1578.3711"/><line style="stroke:#181818;stroke-width:0.5;stroke-dasharray:5.0,5.0;" x1="1423" x2="1423" y1="36.4883" y2="1578.3711"/><line style="stroke:#181818;stroke-width:0.5;stroke-dasharray:5.0,5.0;" x1="1623" x2="1623" y1="36.4883" y2="1578.3711"/><line style="stroke:#181818;stroke-width:0.5;stroke-dasharray:5.0,5.0;" x1="1795" x2="1795" y1="36.4883" y2="1578.3711"/><line style="stroke:#181818;stroke-width:0.5;stroke-dasharray:5.0,5.0;" x1="1931" x2="1931" y1="36.4883" y2="1578.3711"/><line style="stroke:#181818;stroke-width:0.5;stroke-dasharray:5.0,5.0;" x1="2136" x2="2136" y1="430.2695" y2="1578.3711"/><line style="stroke:#181818;stroke-width:0.5;stroke-dasharray:5.0,5.0;" x1="2275" x2="2275" y1="910.1055" y2="1578.3711"/><line style="stroke:#181818;stroke-width:0.5;stroke-dasharray:5.0,5.0;" x1="2407" x2="2407" y1="36.4883" y2="1578.3711"/><line style="stroke:#181818;stroke-width:0.5;stroke-dasharray:5.0,5.0;" x1="2527" x2="2527" y1="36.4883" y2="1578.3711"/><line style="stroke:#181818;stroke-width:0.5;stroke-dasharray:5.0,5.0;" x1="2603" x2="2603" y1="36.4883" y2="1578.3711"/><rect fill="#E2E2F0" height="30.4883" rx="2.5" ry="2.5" style="stroke:#181818;stroke-width:0.5;" width="141" x="20" y="5"/><text fill="#000000" font-family="sans-serif" font-size="14" lengthAdjust="spacing" textLength="127" x="27" y="25.5352">CustomerManager</text><rect fill="#E2E2F0" height="30.4883" rx="2.5" ry="2.5" style="stroke:#181818;stroke-width:0.5;" width="141" x="20" y="1577.3711"/><text fill="#000000" font-family="sans-serif" font-size="14" lengthAdjust="spacing" textLength="127" x="27" y="1597.9063">CustomerManager</text><rect fill="#E2E2F0" height="30.4883" rx="2.5" ry="2.5" style="stroke:#181818;stroke-width:0.5;" width="140" x="389.5" y="5"/><text fill="#000000" font-family="sans-serif" font-size="14" lengthAdjust="spacing" textLength="126" x="396.5" y="25.5352">rankJobOpeningUI</text><rect fill="#E2E2F0" height="30.4883" rx="2.5" ry="2.5" style="stroke:#181818;stroke-width:0.5;" width="140" x="389.5" y="1577.3711"/><text fill="#000000" font-family="sans-serif" font-size="14" lengthAdjust="spacing" textLength="126" x="396.5" y="1597.9063">rankJobOpeningUI</text><rect fill="#E2E2F0" height="30.4883" rx="2.5" ry="2.5" style="stroke:#181818;stroke-width:0.5;" width="196" x="733.5" y="5"/><text fill="#000000" font-family="sans-serif" font-size="14" lengthAdjust="spacing" textLength="182" x="740.5" y="25.5352">rankJobOpeningController</text><rect fill="#E2E2F0" height="30.4883" rx="2.5" ry="2.5" style="stroke:#181818;stroke-width:0.5;" width="196" x="733.5" y="1577.3711"/><text fill="#000000" font-family="sans-serif" font-size="14" lengthAdjust="spacing" textLength="182" x="740.5" y="1597.9063">rankJobOpeningController</text><rect fill="#E2E2F0" height="30.4883" rx="2.5" ry="2.5" style="stroke:#181818;stroke-width:0.5;" width="157" x="1197" y="5"/><text fill="#000000" font-family="sans-serif" font-size="14" lengthAdjust="spacing" textLength="143" x="1204" y="25.5352">AuthorizationService</text><rect fill="#E2E2F0" height="30.4883" rx="2.5" ry="2.5" style="stroke:#181818;stroke-width:0.5;" width="157" x="1197" y="1577.3711"/><text fill="#000000" font-family="sans-serif" font-size="14" lengthAdjust="spacing" textLength="143" x="1204" y="1597.9063">AuthorizationService</text><rect fill="#E2E2F0" height="30.4883" rx="2.5" ry="2.5" style="stroke:#181818;stroke-width:0.5;" width="118" x="1364" y="5"/><text fill="#000000" font-family="sans-serif" font-size="14" lengthAdjust="spacing" textLength="104" x="1371" y="25.5352">RankingService</text><rect fill="#E2E2F0" height="30.4883" rx="2.5" ry="2.5" style="stroke:#181818;stroke-width:0.5;" width="118" x="1364" y="1577.3711"/><text fill="#000000" font-family="sans-serif" font-size="14" lengthAdjust="spacing" textLength="104" x="1371" y="1597.9063">RankingService</text><rect fill="#E2E2F0" height="30.4883" rx="2.5" ry="2.5" style="stroke:#181818;stroke-width:0.5;" width="168" x="1539" y="5"/><text fill="#000000" font-family="sans-serif" font-size="14" lengthAdjust="spacing" textLength="154" x="1546" y="25.5352">jobOpeningRepository</text><rect fill="#E2E2F0" height="30.4883" rx="2.5" ry="2.5" style="stroke:#181818;stroke-width:0.5;" width="168" x="1539" y="1577.3711"/><text fill="#000000" font-family="sans-serif" font-size="14" lengthAdjust="spacing" textLength="154" x="1546" y="1597.9063">jobOpeningRepository</text><rect fill="#E2E2F0" height="30.4883" rx="2.5" ry="2.5" style="stroke:#181818;stroke-width:0.5;" width="157" x="1717" y="5"/><text fill="#000000" font-family="sans-serif" font-size="14" lengthAdjust="spacing" textLength="143" x="1724" y="25.5352">CandidateRepository</text><rect fill="#E2E2F0" height="30.4883" rx="2.5" ry="2.5" style="stroke:#181818;stroke-width:0.5;" width="157" x="1717" y="1577.3711"/><text fill="#000000" font-family="sans-serif" font-size="14" lengthAdjust="spacing" textLength="143" x="1724" y="1597.9063">CandidateRepository</text><rect fill="#E2E2F0" height="30.4883" rx="2.5" ry="2.5" style="stroke:#181818;stroke-width:0.5;" width="95" x="1884" y="5"/><text fill="#000000" font-family="sans-serif" font-size="14" lengthAdjust="spacing" textLength="81" x="1891" y="25.5352">jobOpening</text><rect fill="#E2E2F0" height="30.4883" rx="2.5" ry="2.5" style="stroke:#181818;stroke-width:0.5;" width="95" x="1884" y="1577.3711"/><text fill="#000000" font-family="sans-serif" font-size="14" lengthAdjust="spacing" textLength="81" x="1891" y="1597.9063">jobOpening</text><rect fill="#E2E2F0" height="30.4883" rx="2.5" ry="2.5" style="stroke:#181818;stroke-width:0.5;" width="129" x="2072" y="1577.3711"/><text fill="#000000" font-family="sans-serif" font-size="14" lengthAdjust="spacing" textLength="115" x="2079" y="1597.9063">List&lt;Candidate&gt;</text><rect fill="#E2E2F0" height="30.4883" rx="2.5" ry="2.5" style="stroke:#181818;stroke-width:0.5;" width="129" x="2211" y="1577.3711"/><text fill="#000000" font-family="sans-serif" font-size="14" lengthAdjust="spacing" textLength="115" x="2218" y="1597.9063">List&lt;Candidate&gt;</text><rect fill="#E2E2F0" height="30.4883" rx="2.5" ry="2.5" style="stroke:#181818;stroke-width:0.5;" width="114" x="2350" y="5"/><text fill="#000000" font-family="sans-serif" font-size="14" lengthAdjust="spacing" textLength="100" x="2357" y="25.5352">jobApplication</text><rect fill="#E2E2F0" height="30.4883" rx="2.5" ry="2.5" style="stroke:#181818;stroke-width:0.5;" width="114" x="2350" y="1577.3711"/><text fill="#000000" font-family="sans-serif" font-size="14" lengthAdjust="spacing" textLength="100" x="2357" y="1597.9063">jobApplication</text><rect fill="#E2E2F0" height="30.4883" rx="2.5" ry="2.5" style="stroke:#181818;stroke-width:0.5;" width="84" x="2485" y="5"/><text fill="#000000" font-family="sans-serif" font-size="14" lengthAdjust="spacing" textLength="70" x="2492" y="25.5352">Candidate</text><rect fill="#E2E2F0" height="30.4883" rx="2.5" ry="2.5" style="stroke:#181818;stroke-width:0.5;" width="84" x="2485" y="1577.3711"/><text fill="#000000" font-family="sans-serif" font-size="14" lengthAdjust="spacing" textLength="70" x="2492" y="1597.9063">Candidate</text><rect fill="#E2E2F0" height="30.4883" rx="2.5" ry="2.5" style="stroke:#181818;stroke-width:0.5;" width="48" x="2579" y="5"/><text fill="#000000" font-family="sans-serif" font-size="14" lengthAdjust="spacing" textLength="34" x="2586" y="25.5352">Rank</text><rect fill="#E2E2F0" height="30.4883" rx="2.5" ry="2.5" style="stroke:#181818;stroke-width:0.5;" width="48" x="2579" y="1577.3711"/><text fill="#000000" font-family="sans-serif" font-size="14" lengthAdjust="spacing" textLength="34" x="2586" y="1597.9063">Rank</text><rect fill="#FFFFFF" height="1522.8828" style="stroke:#181818;stroke-width:1.0;" width="10" x="85.5" y="46.4883"/><rect fill="#FFFFFF" height="235.7949" style="stroke:#181818;stroke-width:1.0;" width="10" x="454.5" y="67.7988"/><rect fill="#FFFFFF" height="365.9043" style="stroke:#181818;stroke-width:1.0;" width="10" x="454.5" y="332.9043"/><rect fill="#FFFFFF" height="735.3203" style="stroke:#181818;stroke-width:1.0;" width="10" x="454.5" y="728.1191"/><rect fill="#FFFFFF" height="29.3105" style="stroke:#181818;stroke-width:1.0;" width="10" x="454.5" y="1524.0605"/><rect fill="#FFFFFF" height="146.5527" style="stroke:#181818;stroke-width:1.0;" width="10" x="826.5" y="97.1094"/><rect fill="#FFFFFF" height="307.2832" style="stroke:#181818;stroke-width:1.0;" width="10" x="826.5" y="362.2148"/><rect fill="#FFFFFF" height="676.6992" style="stroke:#181818;stroke-width:1.0;" width="10" x="826.5" y="757.4297"/><rect fill="#FFFFFF" height="29.3105" style="stroke:#181818;stroke-width:1.0;" width="10" x="826.5" y="1494.75"/><rect fill="#FFFFFF" height="29.3105" style="stroke:#181818;stroke-width:1.0;" width="10" x="1270.5" y="126.4199"/><rect fill="#FFFFFF" height="708.0098" style="stroke:#181818;stroke-width:1.0;" width="10" x="1418" y="786.7402"/><rect fill="#FFFFFF" height="40.3105" style="stroke:#181818;stroke-width:1.0;" width="10" x="1423" y="824.0508"/><rect fill="#FFFFFF" height="29.3105" style="stroke:#181818;stroke-width:1.0;" width="10" x="1618" y="185.041"/><rect fill="#FFFFFF" height="29.3105" style="stroke:#181818;stroke-width:1.0;" width="10" x="1790.5" y="966.4707"/><rect fill="#FFFFFF" height="248.6621" style="stroke:#181818;stroke-width:1.0;" width="10" x="1926.5" y="391.5254"/><rect fill="#FFFFFF" height="172.5527" style="stroke:#181818;stroke-width:1.0;" width="10" x="1926.5" y="1061.4023"/><rect fill="#FFFFFF" height="40.3105" style="stroke:#181818;stroke-width:1.0;" width="10" x="1931.5" y="1157.334"/><rect fill="#FFFFFF" height="87.9316" style="stroke:#181818;stroke-width:1.0;" width="10" x="1926.5" y="1287.5762"/><rect fill="#FFFFFF" height="87.9316" style="stroke:#181818;stroke-width:1.0;" width="10" x="2402" y="486.6348"/><rect fill="#FFFFFF" height="29.3105" style="stroke:#181818;stroke-width:1.0;" width="10" x="2522" y="515.9453"/><rect fill="#FFFFFF" height="29.3105" style="stroke:#181818;stroke-width:1.0;" width="10" x="2598" y="1090.7129"/><rect fill="#FFFFFF" height="29.3105" style="stroke:#181818;stroke-width:1.0;" width="10" x="2598" y="1316.8867"/><polygon fill="#181818" points="442.5,63.7988,452.5,67.7988,442.5,71.7988,446.5,67.7988" style="stroke:#181818;stroke-width:1.0;"/><line style="stroke:#181818;stroke-width:1.0;" x1="95.5" x2="448.5" y1="67.7988" y2="67.7988"/><text fill="#000000" font-family="sans-serif" font-size="13" lengthAdjust="spacing" textLength="210" x="102.5" y="63.0566">select the rank candidates option</text><polygon fill="#181818" points="814.5,93.1094,824.5,97.1094,814.5,101.1094,818.5,97.1094" style="stroke:#181818;stroke-width:1.0;"/><line style="stroke:#181818;stroke-width:1.0;" x1="464.5" x2="820.5" y1="97.1094" y2="97.1094"/><text fill="#000000" font-family="sans-serif" font-size="13" lengthAdjust="spacing" textLength="343" x="471.5" y="92.3672">getJobOpeningsInAnalysisPhaseForCustomerManager()</text><polygon fill="#181818" points="1258.5,122.4199,1268.5,126.4199,1258.5,130.4199,1262.5,126.4199" style="stroke:#181818;stroke-width:1.0;"/><line style="stroke:#181818;stroke-width:1.0;" x1="836.5" x2="1264.5" y1="126.4199" y2="126.4199"/><text fill="#000000" font-family="sans-serif" font-size="13" lengthAdjust="spacing" textLength="415" x="843.5" y="121.6777">loggedinUserWithPermissions(Jobs4uRoles.CUSTOMER_MANAGER)</text><polygon fill="#181818" points="847.5,151.7305,837.5,155.7305,847.5,159.7305,843.5,155.7305" style="stroke:#181818;stroke-width:1.0;"/><line style="stroke:#181818;stroke-width:1.0;" x1="841.5" x2="1274.5" y1="155.7305" y2="155.7305"/><text fill="#000000" font-family="sans-serif" font-size="13" lengthAdjust="spacing" textLength="73" x="853.5" y="150.9883">SystemUser</text><polygon fill="#181818" points="1606,181.041,1616,185.041,1606,189.041,1610,185.041" style="stroke:#181818;stroke-width:1.0;"/><line style="stroke:#181818;stroke-width:1.0;" x1="836.5" x2="1612" y1="185.041" y2="185.041"/><text fill="#000000" font-family="sans-serif" font-size="13" lengthAdjust="spacing" textLength="416" x="843.5" y="180.2988">getJobOpeningsInAnalysisPhaseForCustomerManager(SystemUser)</text><polygon fill="#181818" points="847.5,210.3516,837.5,214.3516,847.5,218.3516,843.5,214.3516" style="stroke:#181818;stroke-width:1.0;"/><line style="stroke:#181818;stroke-width:1.0;" x1="841.5" x2="1622" y1="214.3516" y2="214.3516"/><text fill="#000000" font-family="sans-serif" font-size="13" lengthAdjust="spacing" textLength="116" x="853.5" y="209.6094">List&lt;JobOpening&gt;</text><polygon fill="#181818" points="475.5,239.6621,465.5,243.6621,475.5,247.6621,471.5,243.6621" style="stroke:#181818;stroke-width:1.0;"/><line style="stroke:#181818;stroke-width:1.0;" x1="469.5" x2="830.5" y1="243.6621" y2="243.6621"/><text fill="#000000" font-family="sans-serif" font-size="13" lengthAdjust="spacing" textLength="116" x="481.5" y="238.9199">List&lt;JobOpening&gt;</text><polygon fill="#181818" points="106.5,299.5938,96.5,303.5938,106.5,307.5938,102.5,303.5938" style="stroke:#181818;stroke-width:1.0;"/><line style="stroke:#181818;stroke-width:1.0;" x1="100.5" x2="458.5" y1="303.5938" y2="303.5938"/><text fill="#000000" font-family="sans-serif" font-size="13" lengthAdjust="spacing" textLength="143" x="112.5" y="268.2305">show the job openings</text><text fill="#000000" font-family="sans-serif" font-size="13" lengthAdjust="spacing" textLength="186" x="112.5" y="283.541">that are in the Analysis phase</text><text fill="#000000" font-family="sans-serif" font-size="13" lengthAdjust="spacing" textLength="212" x="112.5" y="298.8516">and are his responsibility as a list</text><polygon fill="#181818" points="442.5,328.9043,452.5,332.9043,442.5,336.9043,446.5,332.9043" style="stroke:#181818;stroke-width:1.0;"/><line style="stroke:#181818;stroke-width:1.0;" x1="95.5" x2="448.5" y1="332.9043" y2="332.9043"/><text fill="#000000" font-family="sans-serif" font-size="13" lengthAdjust="spacing" textLength="140" x="102.5" y="328.1621">select the job opening</text><polygon fill="#181818" points="814.5,358.2148,824.5,362.2148,814.5,366.2148,818.5,362.2148" style="stroke:#181818;stroke-width:1.0;"/><line style="stroke:#181818;stroke-width:1.0;" x1="464.5" x2="820.5" y1="362.2148" y2="362.2148"/><text fill="#000000" font-family="sans-serif" font-size="13" lengthAdjust="spacing" textLength="244" x="471.5" y="357.4727">getJobOpeningCandidates(jobOpening)</text><polygon fill="#181818" points="1914.5,387.5254,1924.5,391.5254,1914.5,395.5254,1918.5,391.5254" style="stroke:#181818;stroke-width:1.0;"/><line style="stroke:#181818;stroke-width:1.0;" x1="836.5" x2="1920.5" y1="391.5254" y2="391.5254"/><text fill="#000000" font-family="sans-serif" font-size="13" lengthAdjust="spacing" textLength="171" x="843.5" y="386.7832">getCandidates(jobOpening)</text><polygon fill="#181818" points="2060,416.8359,2070,420.8359,2060,424.8359,2064,420.8359" style="stroke:#181818;stroke-width:1.0;"/><line style="stroke:#181818;stroke-width:1.0;" x1="1936.5" x2="2066" y1="420.8359" y2="420.8359"/><text fill="#000000" font-family="sans-serif" font-size="13" lengthAdjust="spacing" textLength="38" x="1943.5" y="416.0938">create</text><rect fill="#E2E2F0" height="30.4883" rx="2.5" ry="2.5" style="stroke:#181818;stroke-width:0.5;" width="129" x="2072" y="399.5254"/><text fill="#000000" font-family="sans-serif" font-size="14" lengthAdjust="spacing" textLength="115" x="2079" y="420.0605">List&lt;Candidate&gt;</text><path d="M1874,448.0137 L1948,448.0137 L1948,455.3242 L1938,465.3242 L1874,465.3242 L1874,448.0137 " fill="#EEEEEE" style="stroke:#000000;stroke-width:1.5;"/><rect fill="none" height="163.8633" style="stroke:#000000;stroke-width:1.5;" width="705" x="1874" y="448.0137"/><text fill="#000000" font-family="sans-serif" font-size="13" font-weight="bold" lengthAdjust="spacing" textLength="29" x="1889" y="461.582">loop</text><text fill="#000000" font-family="sans-serif" font-size="11" font-weight="bold" lengthAdjust="spacing" textLength="122" x="1963" y="460.6484">[for each Application]</text><polygon fill="#181818" points="2390,482.6348,2400,486.6348,2390,490.6348,2394,486.6348" style="stroke:#181818;stroke-width:1.0;"/><line style="stroke:#181818;stroke-width:1.0;" x1="1936.5" x2="2396" y1="486.6348" y2="486.6348"/><text fill="#000000" font-family="sans-serif" font-size="13" lengthAdjust="spacing" textLength="91" x="1943.5" y="481.8926">getCandidate()</text><polygon fill="#181818" points="2510,511.9453,2520,515.9453,2510,519.9453,2514,515.9453" style="stroke:#181818;stroke-width:1.0;"/><line style="stroke:#181818;stroke-width:1.0;" x1="2412" x2="2516" y1="515.9453" y2="515.9453"/><text fill="#000000" font-family="sans-serif" font-size="13" lengthAdjust="spacing" textLength="91" x="2419" y="511.2031">getCandidate()</text><polygon fill="#181818" points="2423,541.2559,2413,545.2559,2423,549.2559,2419,545.2559" style="stroke:#181818;stroke-width:1.0;"/><line style="stroke:#181818;stroke-width:1.0;" x1="2417" x2="2526" y1="545.2559" y2="545.2559"/><text fill="#000000" font-family="sans-serif" font-size="13" lengthAdjust="spacing" textLength="63" x="2429" y="540.5137">Candidate</text><polygon fill="#181818" points="1947.5,570.5664,1937.5,574.5664,1947.5,578.5664,1943.5,574.5664" style="stroke:#181818;stroke-width:1.0;"/><line style="stroke:#181818;stroke-width:1.0;" x1="1941.5" x2="2406" y1="574.5664" y2="574.5664"/><text fill="#000000" font-family="sans-serif" font-size="13" lengthAdjust="spacing" textLength="63" x="1953.5" y="569.8242">Candidate</text><polygon fill="#181818" points="2124.5,599.877,2134.5,603.877,2124.5,607.877,2128.5,603.877" style="stroke:#181818;stroke-width:1.0;"/><line style="stroke:#181818;stroke-width:1.0;" x1="1936.5" x2="2130.5" y1="603.877" y2="603.877"/><text fill="#000000" font-family="sans-serif" font-size="13" lengthAdjust="spacing" textLength="92" x="1943.5" y="599.1348">add(candidate)</text><polygon fill="#181818" points="847.5,636.1875,837.5,640.1875,847.5,644.1875,843.5,640.1875" style="stroke:#181818;stroke-width:1.0;"/><line style="stroke:#181818;stroke-width:1.0;" x1="841.5" x2="1930.5" y1="640.1875" y2="640.1875"/><text fill="#000000" font-family="sans-serif" font-size="13" lengthAdjust="spacing" textLength="106" x="853.5" y="635.4453">List&lt;Candidate&gt;</text><polygon fill="#181818" points="475.5,665.498,465.5,669.498,475.5,673.498,471.5,669.498" style="stroke:#181818;stroke-width:1.0;"/><line style="stroke:#181818;stroke-width:1.0;" x1="469.5" x2="830.5" y1="669.498" y2="669.498"/><text fill="#000000" font-family="sans-serif" font-size="13" lengthAdjust="spacing" textLength="106" x="481.5" y="664.7559">List&lt;Candidate&gt;</text><polygon fill="#181818" points="106.5,694.8086,96.5,698.8086,106.5,702.8086,102.5,698.8086" style="stroke:#181818;stroke-width:1.0;"/><line style="stroke:#181818;stroke-width:1.0;" x1="100.5" x2="458.5" y1="698.8086" y2="698.8086"/><text fill="#000000" font-family="sans-serif" font-size="13" lengthAdjust="spacing" textLength="335" x="112.5" y="694.0664">show the candidates list and asks for the ordered list</text><polygon fill="#181818" points="442.5,724.1191,452.5,728.1191,442.5,732.1191,446.5,728.1191" style="stroke:#181818;stroke-width:1.0;"/><line style="stroke:#181818;stroke-width:1.0;" x1="95.5" x2="448.5" y1="728.1191" y2="728.1191"/><text fill="#000000" font-family="sans-serif" font-size="13" lengthAdjust="spacing" textLength="304" x="102.5" y="723.377">Insert the candidates email separated by comma</text><polygon fill="#181818" points="814.5,753.4297,824.5,757.4297,814.5,761.4297,818.5,757.4297" style="stroke:#181818;stroke-width:1.0;"/><line style="stroke:#181818;stroke-width:1.0;" x1="464.5" x2="820.5" y1="757.4297" y2="757.4297"/><text fill="#000000" font-family="sans-serif" font-size="13" lengthAdjust="spacing" textLength="269" x="471.5" y="752.6875">rankCandidates(jobOpening, String emails)</text><polygon fill="#181818" points="1406,782.7402,1416,786.7402,1406,790.7402,1410,786.7402" style="stroke:#181818;stroke-width:1.0;"/><line style="stroke:#181818;stroke-width:1.0;" x1="836.5" x2="1412" y1="786.7402" y2="786.7402"/><text fill="#000000" font-family="sans-serif" font-size="13" lengthAdjust="spacing" textLength="269" x="843.5" y="781.998">rankCandidates(jobOpening, String emails)</text><line style="stroke:#181818;stroke-width:1.0;" x1="1428" x2="1475" y1="811.0508" y2="811.0508"/><line style="stroke:#181818;stroke-width:1.0;" x1="1475" x2="1475" y1="811.0508" y2="824.0508"/><line style="stroke:#181818;stroke-width:1.0;" x1="1434" x2="1475" y1="824.0508" y2="824.0508"/><polygon fill="#181818" points="1444,820.0508,1434,824.0508,1444,828.0508,1440,824.0508" style="stroke:#181818;stroke-width:1.0;"/><text fill="#000000" font-family="sans-serif" font-size="13" lengthAdjust="spacing" textLength="176" x="1440" y="806.3086">convertEmailsToList(emails)</text><line style="stroke:#181818;stroke-width:1.0;" x1="1433" x2="1475" y1="863.3613" y2="863.3613"/><line style="stroke:#181818;stroke-width:1.0;" x1="1475" x2="1475" y1="863.3613" y2="876.3613"/><line style="stroke:#181818;stroke-width:1.0;" x1="1428" x2="1475" y1="876.3613" y2="876.3613"/><polygon fill="#181818" points="1438,872.3613,1428,876.3613,1438,880.3613,1434,876.3613" style="stroke:#181818;stroke-width:1.0;"/><text fill="#000000" font-family="sans-serif" font-size="13" lengthAdjust="spacing" textLength="128" x="1440" y="858.6191">List&lt;EmailAddress&gt;</text><polygon fill="#181818" points="2199,896.6719,2209,900.6719,2199,904.6719,2203,900.6719" style="stroke:#181818;stroke-width:1.0;"/><line style="stroke:#181818;stroke-width:1.0;" x1="1428" x2="2205" y1="900.6719" y2="900.6719"/><text fill="#000000" font-family="sans-serif" font-size="13" lengthAdjust="spacing" textLength="38" x="1435" y="895.9297">create</text><rect fill="#E2E2F0" height="30.4883" rx="2.5" ry="2.5" style="stroke:#181818;stroke-width:0.5;" width="129" x="2211" y="879.3613"/><text fill="#000000" font-family="sans-serif" font-size="14" lengthAdjust="spacing" textLength="115" x="2218" y="899.8965">List&lt;Candidate&gt;</text><path d="M1354,927.8496 L1428,927.8496 L1428,935.1602 L1418,945.1602 L1354,945.1602 L1354,927.8496 " fill="#EEEEEE" style="stroke:#000000;stroke-width:1.5;"/><rect fill="none" height="105.2422" style="stroke:#000000;stroke-width:1.5;" width="996" x="1354" y="927.8496"/><text fill="#000000" font-family="sans-serif" font-size="13" font-weight="bold" lengthAdjust="spacing" textLength="29" x="1369" y="941.418">loop</text><text fill="#000000" font-family="sans-serif" font-size="11" font-weight="bold" lengthAdjust="spacing" textLength="89" x="1443" y="940.4844">[for each email]</text><polygon fill="#181818" points="1778.5,962.4707,1788.5,966.4707,1778.5,970.4707,1782.5,966.4707" style="stroke:#181818;stroke-width:1.0;"/><line style="stroke:#181818;stroke-width:1.0;" x1="1428" x2="1784.5" y1="966.4707" y2="966.4707"/><text fill="#000000" font-family="sans-serif" font-size="13" lengthAdjust="spacing" textLength="115" x="1435" y="961.7285">findByEmail(email)</text><polygon fill="#181818" points="1439,991.7813,1429,995.7813,1439,999.7813,1435,995.7813" style="stroke:#181818;stroke-width:1.0;"/><line style="stroke:#181818;stroke-width:1.0;" x1="1433" x2="1794.5" y1="995.7813" y2="995.7813"/><text fill="#000000" font-family="sans-serif" font-size="13" lengthAdjust="spacing" textLength="63" x="1445" y="991.0391">Candidate</text><polygon fill="#181818" points="2263.5,1021.0918,2273.5,1025.0918,2263.5,1029.0918,2267.5,1025.0918" style="stroke:#181818;stroke-width:1.0;"/><line style="stroke:#181818;stroke-width:1.0;" x1="1428" x2="2269.5" y1="1025.0918" y2="1025.0918"/><text fill="#000000" font-family="sans-serif" font-size="13" lengthAdjust="spacing" textLength="164" x="1435" y="1020.3496">addCandidates(Candidate)</text><polygon fill="#181818" points="1914.5,1057.4023,1924.5,1061.4023,1914.5,1065.4023,1918.5,1061.4023" style="stroke:#181818;stroke-width:1.0;"/><line style="stroke:#181818;stroke-width:1.0;" x1="1428" x2="1920.5" y1="1061.4023" y2="1061.4023"/><text fill="#000000" font-family="sans-serif" font-size="13" lengthAdjust="spacing" textLength="157" x="1435" y="1056.6602">getRankSize(jobOpening)</text><polygon fill="#181818" points="2586,1086.7129,2596,1090.7129,2586,1094.7129,2590,1090.7129" style="stroke:#181818;stroke-width:1.0;"/><line style="stroke:#181818;stroke-width:1.0;" x1="1936.5" x2="2592" y1="1090.7129" y2="1090.7129"/><text fill="#000000" font-family="sans-serif" font-size="13" lengthAdjust="spacing" textLength="88" x="1943.5" y="1085.9707">getMultiplier()</text><polygon fill="#181818" points="1947.5,1116.0234,1937.5,1120.0234,1947.5,1124.0234,1943.5,1120.0234" style="stroke:#181818;stroke-width:1.0;"/><line style="stroke:#181818;stroke-width:1.0;" x1="1941.5" x2="2602" y1="1120.0234" y2="1120.0234"/><text fill="#000000" font-family="sans-serif" font-size="13" lengthAdjust="spacing" textLength="60" x="1953.5" y="1115.2813">Multiplier</text><line style="stroke:#181818;stroke-width:1.0;" x1="1936.5" x2="1983.5" y1="1144.334" y2="1144.334"/><line style="stroke:#181818;stroke-width:1.0;" x1="1983.5" x2="1983.5" y1="1144.334" y2="1157.334"/><line style="stroke:#181818;stroke-width:1.0;" x1="1942.5" x2="1983.5" y1="1157.334" y2="1157.334"/><polygon fill="#181818" points="1952.5,1153.334,1942.5,1157.334,1952.5,1161.334,1948.5,1157.334" style="stroke:#181818;stroke-width:1.0;"/><text fill="#000000" font-family="sans-serif" font-size="13" lengthAdjust="spacing" textLength="181" x="1948.5" y="1139.5918">calculateRankSize(multiplier)</text><line style="stroke:#181818;stroke-width:1.0;" x1="1941.5" x2="1983.5" y1="1196.6445" y2="1196.6445"/><line style="stroke:#181818;stroke-width:1.0;" x1="1983.5" x2="1983.5" y1="1196.6445" y2="1209.6445"/><line style="stroke:#181818;stroke-width:1.0;" x1="1936.5" x2="1983.5" y1="1209.6445" y2="1209.6445"/><polygon fill="#181818" points="1946.5,1205.6445,1936.5,1209.6445,1946.5,1213.6445,1942.5,1209.6445" style="stroke:#181818;stroke-width:1.0;"/><text fill="#000000" font-family="sans-serif" font-size="13" lengthAdjust="spacing" textLength="53" x="1948.5" y="1191.9023">rankSize</text><polygon fill="#181818" points="1439,1229.9551,1429,1233.9551,1439,1237.9551,1435,1233.9551" style="stroke:#181818;stroke-width:1.0;"/><line style="stroke:#181818;stroke-width:1.0;" x1="1433" x2="1930.5" y1="1233.9551" y2="1233.9551"/><text fill="#000000" font-family="sans-serif" font-size="13" lengthAdjust="spacing" textLength="56" x="1445" y="1229.2129">RankSize</text><path d="M10,1248.9551 L72,1248.9551 L72,1256.2656 L62,1266.2656 L10,1266.2656 L10,1248.9551 " fill="#EEEEEE" style="stroke:#000000;stroke-width:1.5;"/><rect fill="none" height="312.416" style="stroke:#000000;stroke-width:1.5;" width="2627" x="10" y="1248.9551"/><text fill="#000000" font-family="sans-serif" font-size="13" font-weight="bold" lengthAdjust="spacing" textLength="17" x="25" y="1262.5234">alt</text><text fill="#000000" font-family="sans-serif" font-size="11" font-weight="bold" lengthAdjust="spacing" textLength="193" x="87" y="1261.5898">[List&lt;Candidate&gt;.size &lt; RankSize]</text><polygon fill="#181818" points="1914.5,1283.5762,1924.5,1287.5762,1914.5,1291.5762,1918.5,1287.5762" style="stroke:#181818;stroke-width:1.0;"/><line style="stroke:#181818;stroke-width:1.0;" x1="1428" x2="1920.5" y1="1287.5762" y2="1287.5762"/><text fill="#000000" font-family="sans-serif" font-size="13" lengthAdjust="spacing" textLength="191" x="1435" y="1282.834">addRankList(List&lt;Candidate&gt;)</text><polygon fill="#181818" points="2586,1312.8867,2596,1316.8867,2586,1320.8867,2590,1316.8867" style="stroke:#181818;stroke-width:1.0;"/><line style="stroke:#181818;stroke-width:1.0;" x1="1936.5" x2="2592" y1="1316.8867" y2="1316.8867"/><text fill="#000000" font-family="sans-serif" font-size="13" lengthAdjust="spacing" textLength="224" x="1943.5" y="1312.1445">valueof(List&lt;Candidate&gt;, RankSize)</text><polygon fill="#181818" points="1947.5,1342.1973,1937.5,1346.1973,1947.5,1350.1973,1943.5,1346.1973" style="stroke:#181818;stroke-width:1.0;"/><line style="stroke:#181818;stroke-width:1.0;" x1="1941.5" x2="2602" y1="1346.1973" y2="1346.1973"/><text fill="#000000" font-family="sans-serif" font-size="13" lengthAdjust="spacing" textLength="31" x="1953.5" y="1341.4551">Rank</text><polygon fill="#181818" points="1439,1371.5078,1429,1375.5078,1439,1379.5078,1435,1375.5078" style="stroke:#181818;stroke-width:1.0;"/><line style="stroke:#181818;stroke-width:1.0;" x1="1433" x2="1930.5" y1="1375.5078" y2="1375.5078"/><text fill="#000000" font-family="sans-serif" font-size="13" lengthAdjust="spacing" textLength="31" x="1445" y="1370.7656">Rank</text><polygon fill="#181818" points="847.5,1400.8184,837.5,1404.8184,847.5,1408.8184,843.5,1404.8184" style="stroke:#181818;stroke-width:1.0;"/><line style="stroke:#181818;stroke-width:1.0;" x1="841.5" x2="1417" y1="1404.8184" y2="1404.8184"/><text fill="#000000" font-family="sans-serif" font-size="13" lengthAdjust="spacing" textLength="31" x="853.5" y="1400.0762">Rank</text><polygon fill="#181818" points="475.5,1430.1289,465.5,1434.1289,475.5,1438.1289,471.5,1434.1289" style="stroke:#181818;stroke-width:1.0;"/><line style="stroke:#181818;stroke-width:1.0;" x1="469.5" x2="830.5" y1="1434.1289" y2="1434.1289"/><text fill="#000000" font-family="sans-serif" font-size="13" lengthAdjust="spacing" textLength="31" x="481.5" y="1429.3867">Rank</text><polygon fill="#181818" points="106.5,1459.4395,96.5,1463.4395,106.5,1467.4395,102.5,1463.4395" style="stroke:#181818;stroke-width:1.0;"/><line style="stroke:#181818;stroke-width:1.0;" x1="100.5" x2="458.5" y1="1463.4395" y2="1463.4395"/><text fill="#000000" font-family="sans-serif" font-size="13" lengthAdjust="spacing" textLength="89" x="112.5" y="1458.6973">show the rank</text><line style="stroke:#000000;stroke-width:1.0;stroke-dasharray:2.0,2.0;" x1="10" x2="2637" y1="1472.4395" y2="1472.4395"/><polygon fill="#181818" points="847.5,1490.75,837.5,1494.75,847.5,1498.75,843.5,1494.75" style="stroke:#181818;stroke-width:1.0;"/><line style="stroke:#181818;stroke-width:1.0;" x1="841.5" x2="1422" y1="1494.75" y2="1494.75"/><text fill="#000000" font-family="sans-serif" font-size="13" lengthAdjust="spacing" textLength="62" x="853.5" y="1490.0078">Exception</text><polygon fill="#181818" points="475.5,1520.0605,465.5,1524.0605,475.5,1528.0605,471.5,1524.0605" style="stroke:#181818;stroke-width:1.0;"/><line style="stroke:#181818;stroke-width:1.0;" x1="469.5" x2="830.5" y1="1524.0605" y2="1524.0605"/><text fill="#000000" font-family="sans-serif" font-size="13" lengthAdjust="spacing" textLength="62" x="481.5" y="1519.3184">Exception</text><polygon fill="#181818" points="106.5,1549.3711,96.5,1553.3711,106.5,1557.3711,102.5,1553.3711" style="stroke:#181818;stroke-width:1.0;"/><line style="stroke:#181818;stroke-width:1.0;" x1="100.5" x2="458.5" y1="1553.3711" y2="1553.3711"/><text fill="#000000" font-family="sans-serif" font-size="13" lengthAdjust="spacing" textLength="182" x="112.5" y="1548.6289">Show the exception message</text><!--SRC=[dLPDRnen4Btlhx1oWgX4YjGJYf0eIYkgqaGGr4kbojbrmCIiLxP9ItvzPsQ_R6SNqd90x7hcpPkPDsCARfnCPS5pnsO7w_HUc0NF-KQOfF3E3C-Vl-h7kqBaCj-ivunRjfwVC9dft1cjb31ecZPFWSl5zE2ssiXNxgJELyAyo5HSe0E7Wz1q2V20wnlPydTWjsiOB4MXhNJQ7D5sP-0ni9pnF9CPTo8qJDyOjf0451vUV9FMtJHO4oAcqlVONCTHfaMXP4gre4Yyco-n38wmDlWMMv0aF7No1UtYXYP9z8QD9j35CHHIYTGnjnK4mT8wb6MwG3ej9ZHzFGUtjgDZjX6kRRoTvzESgwELzdxBhVYiJHHrC6pXF64axU_H1Fi_PaflDYAJ-Hew_KEwxRqmUsaj4B83Y6W_7fPQ2NirMwyUxXQtor-BwVVfbzkb5u24X5-ZYKzvTRHEx14toKHexF70-f1m_Zt7De17fXGXVREeXYIHDiB4frMwXRImRQTy_CB2k897n12wljM_gUSWFUXpcHdxcRijTumRmMHEntMghC1SmG3KGUTRU6U4BQ0Tyb4gwMY0E5F0o-S2cdc7yZmMaTpOARqrOs47xQ0EatCIezQMVJsB02EVxFHeejBBop4k27YPAAqBzgGDWpotp1lTXC5dHmtUyJ00A1yFMs2UbDQSKZnjd9QsQGtS6D9hl_KUAAROQuZnIx80gT8npx91C_h3HEGPvjsfr7QP1KBjLMctlT-QiohrbX8AZ94AxREb9g21Dfam8kkINuHQCPldC9uk1XTxBXK84nOiF6ViyGWyztj-HfIuE3kLz86jdC7BWu1jz_8BorPTRFy5Mb-AILBz2W0XpWlaV4jU3nfxC-Y5w0AWRfBxDCjW-6tGq0vFkETOxzXGQDAWvv6M6_T9vjcd8uKgASRpG5knd8bwepOq-uU3lBo8EDRNOmRQzmezYwOWObWj3hnsL_9L16iZ773T31YsahmM1-KaR0kw20Dhkhxn3Lt2LPpMF4wblEszRQCPb9chzA3mNqrDRjy0z9F3GAPoYCDKPdwafipBVfyobdBn_5zPi6SteMjONsG3_K0B4cY4C6nSOevXhL-uEWZz5Bj_Q49t0BKrZVkmh9lJrOKs-9loTFbWUQfFh7rlev1t9V1ugpR8VTiKpyvjLDC10hjDA2jEyRhzaugYkUawfZySqvZLcrnwyJpN018udaZzHEQhEdDHXsHxM65ms546clo_]--></g></svg>