<?xml version="1.0" encoding="us-ascii" standalone="no"?><svg xmlns="http://www.w3.org/2000/svg" xmlns:xlink="http://www.w3.org/1999/xlink" contentStyleType="text/css" height="1338.4px" preserveAspectRatio="none" style="width:2115px;height:1338px;background:#FFFFFF;" version="1.1" viewBox="0 0 2115 1338" width="2115.2px" zoomAndPan="magnify"><defs/><g><rect fill="#FFFFFF" height="1265.7547" style="stroke:#181818;stroke-width:0.8000000000000002;" width="8" x="68.4" y="37.1906"/><rect fill="#FFFFFF" height="188.6359" style="stroke:#181818;stroke-width:0.8000000000000002;" width="8" x="363.6" y="54.2391"/><rect fill="#FFFFFF" height="292.7234" style="stroke:#181818;stroke-width:0.8000000000000002;" width="8" x="363.6" y="266.3234"/><rect fill="#FFFFFF" height="635.7047" style="stroke:#181818;stroke-width:0.8000000000000002;" width="8" x="363.6" y="582.4953"/><rect fill="#FFFFFF" height="23.4484" style="stroke:#181818;stroke-width:0.8000000000000002;" width="8" x="363.6" y="1266.6969"/><rect fill="#FFFFFF" height="117.2422" style="stroke:#181818;stroke-width:0.8000000000000002;" width="8" x="661.2" y="77.6875"/><rect fill="#FFFFFF" height="245.8266" style="stroke:#181818;stroke-width:0.8000000000000002;" width="8" x="661.2" y="289.7719"/><rect fill="#FFFFFF" height="588.8078" style="stroke:#181818;stroke-width:0.8000000000000002;" width="8" x="661.2" y="605.9438"/><rect fill="#FFFFFF" height="23.4484" style="stroke:#181818;stroke-width:0.8000000000000002;" width="8" x="661.2" y="1243.2484"/><rect fill="#FFFFFF" height="23.4484" style="stroke:#181818;stroke-width:0.8000000000000002;" width="8" x="1016.4" y="101.1359"/><rect fill="#FFFFFF" height="613.8563" style="stroke:#181818;stroke-width:0.8000000000000002;" width="8" x="1134.4" y="629.3922"/><rect fill="#FFFFFF" height="32.2484" style="stroke:#181818;stroke-width:0.8000000000000002;" width="8" x="1138.4" y="659.2406"/><rect fill="#FFFFFF" height="23.4484" style="stroke:#181818;stroke-width:0.8000000000000002;" width="8" x="1294.4" y="148.0328"/><rect fill="#FFFFFF" height="23.4484" style="stroke:#181818;stroke-width:0.8000000000000002;" width="8" x="1432.4" y="773.1766"/><rect fill="#FFFFFF" height="198.9297" style="stroke:#181818;stroke-width:0.8000000000000002;" width="8" x="1541.2" y="313.2203"/><rect fill="#FFFFFF" height="185.4906" style="stroke:#181818;stroke-width:0.8000000000000002;" width="8" x="1541.2" y="849.1219"/><rect fill="#FFFFFF" height="32.2484" style="stroke:#181818;stroke-width:0.8000000000000002;" width="8" x="1545.2" y="925.8672"/><rect fill="#FFFFFF" height="70.3453" style="stroke:#181818;stroke-width:0.8000000000000002;" width="8" x="1541.2" y="1077.5094"/><rect fill="#FFFFFF" height="70.3453" style="stroke:#181818;stroke-width:0.8000000000000002;" width="8" x="1921.6" y="389.3078"/><rect fill="#FFFFFF" height="23.4484" style="stroke:#181818;stroke-width:0.8000000000000002;" width="8" x="2017.6" y="412.7563"/><rect fill="#FFFFFF" height="23.4484" style="stroke:#181818;stroke-width:0.8000000000000002;" width="8" x="2078.4" y="872.5703"/><rect fill="#FFFFFF" height="24" style="stroke:#181818;stroke-width:0.8000000000000002;" width="8" x="2078.4" y="987.1641"/><rect fill="#FFFFFF" height="23.4484" style="stroke:#181818;stroke-width:0.8000000000000002;" width="8" x="2078.4" y="1100.9578"/><rect fill="none" height="131.0906" style="stroke:#000000;stroke-width:1.2000000000000002;" width="564" x="1499.2" y="358.4109"/><rect fill="none" height="84.1938" style="stroke:#000000;stroke-width:1.2000000000000002;" width="796.8" x="1083.2" y="742.2797"/><rect fill="none" height="249.9328" style="stroke:#000000;stroke-width:1.2000000000000002;" width="2101.6" x="8" y="1046.6125"/><line style="stroke:#181818;stroke-width:0.4000000000000001;stroke-dasharray:5.0,5.0;" x1="72" x2="72" y1="29.1906" y2="1310.1453"/><line style="stroke:#181818;stroke-width:0.4000000000000001;stroke-dasharray:5.0,5.0;" x1="367.2" x2="367.2" y1="29.1906" y2="1310.1453"/><line style="stroke:#181818;stroke-width:0.4000000000000001;stroke-dasharray:5.0,5.0;" x1="664.8" x2="664.8" y1="29.1906" y2="1310.1453"/><line style="stroke:#181818;stroke-width:0.4000000000000001;stroke-dasharray:5.0,5.0;" x1="1020" x2="1020" y1="29.1906" y2="1310.1453"/><line style="stroke:#181818;stroke-width:0.4000000000000001;stroke-dasharray:5.0,5.0;" x1="1138.4" x2="1138.4" y1="29.1906" y2="1310.1453"/><line style="stroke:#181818;stroke-width:0.4000000000000001;stroke-dasharray:5.0,5.0;" x1="1298.4" x2="1298.4" y1="29.1906" y2="1310.1453"/><line style="stroke:#181818;stroke-width:0.4000000000000001;stroke-dasharray:5.0,5.0;" x1="1436" x2="1436" y1="29.1906" y2="1310.1453"/><line style="stroke:#181818;stroke-width:0.4000000000000001;stroke-dasharray:5.0,5.0;" x1="1544.8" x2="1544.8" y1="29.1906" y2="1310.1453"/><line style="stroke:#181818;stroke-width:0.4000000000000001;stroke-dasharray:5.0,5.0;" x1="1708.8" x2="1708.8" y1="344.2156" y2="1310.1453"/><line style="stroke:#181818;stroke-width:0.4000000000000001;stroke-dasharray:5.0,5.0;" x1="1820" x2="1820" y1="728.0844" y2="1310.1453"/><line style="stroke:#181818;stroke-width:0.4000000000000001;stroke-dasharray:5.0,5.0;" x1="1925.6" x2="1925.6" y1="29.1906" y2="1310.1453"/><line style="stroke:#181818;stroke-width:0.4000000000000001;stroke-dasharray:5.0,5.0;" x1="2021.6" x2="2021.6" y1="29.1906" y2="1310.1453"/><line style="stroke:#181818;stroke-width:0.4000000000000001;stroke-dasharray:5.0,5.0;" x1="2082.4" x2="2082.4" y1="29.1906" y2="1310.1453"/><rect fill="#E2E2F0" height="24.3906" rx="2" ry="2" style="stroke:#181818;stroke-width:0.4000000000000001;" width="112.8" x="16" y="4"/><text fill="#000000" font-family="sans-serif" font-size="11.2" lengthAdjust="spacing" textLength="101.6" x="21.6" y="20.4281">CustomerManager</text><rect fill="#E2E2F0" height="24.3906" rx="2" ry="2" style="stroke:#181818;stroke-width:0.4000000000000001;" width="112.8" x="16" y="1309.3453"/><text fill="#000000" font-family="sans-serif" font-size="11.2" lengthAdjust="spacing" textLength="101.6" x="21.6" y="1325.7734">CustomerManager</text><rect fill="#E2E2F0" height="24.3906" rx="2" ry="2" style="stroke:#181818;stroke-width:0.4000000000000001;" width="103.2" x="316" y="4"/><text fill="#000000" font-family="sans-serif" font-size="11.2" lengthAdjust="spacing" textLength="92" x="321.6" y="20.4281">rankCandidateUI</text><rect fill="#E2E2F0" height="24.3906" rx="2" ry="2" style="stroke:#181818;stroke-width:0.4000000000000001;" width="103.2" x="316" y="1309.3453"/><text fill="#000000" font-family="sans-serif" font-size="11.2" lengthAdjust="spacing" textLength="92" x="321.6" y="1325.7734">rankCandidateUI</text><rect fill="#E2E2F0" height="24.3906" rx="2" ry="2" style="stroke:#181818;stroke-width:0.4000000000000001;" width="148" x="591.2" y="4"/><text fill="#000000" font-family="sans-serif" font-size="11.2" lengthAdjust="spacing" textLength="136.8" x="596.8" y="20.4281">rankCandidateController</text><rect fill="#E2E2F0" height="24.3906" rx="2" ry="2" style="stroke:#181818;stroke-width:0.4000000000000001;" width="148" x="591.2" y="1309.3453"/><text fill="#000000" font-family="sans-serif" font-size="11.2" lengthAdjust="spacing" textLength="136.8" x="596.8" y="1325.7734">rankCandidateController</text><rect fill="#E2E2F0" height="24.3906" rx="2" ry="2" style="stroke:#181818;stroke-width:0.4000000000000001;" width="125.6" x="957.6" y="4"/><text fill="#000000" font-family="sans-serif" font-size="11.2" lengthAdjust="spacing" textLength="114.4" x="963.2" y="20.4281">AuthorizationService</text><rect fill="#E2E2F0" height="24.3906" rx="2" ry="2" style="stroke:#181818;stroke-width:0.4000000000000001;" width="125.6" x="957.6" y="1309.3453"/><text fill="#000000" font-family="sans-serif" font-size="11.2" lengthAdjust="spacing" textLength="114.4" x="963.2" y="1325.7734">AuthorizationService</text><rect fill="#E2E2F0" height="24.3906" rx="2" ry="2" style="stroke:#181818;stroke-width:0.4000000000000001;" width="94.4" x="1091.2" y="4"/><text fill="#000000" font-family="sans-serif" font-size="11.2" lengthAdjust="spacing" textLength="83.2" x="1096.8" y="20.4281">RankingService</text><rect fill="#E2E2F0" height="24.3906" rx="2" ry="2" style="stroke:#181818;stroke-width:0.4000000000000001;" width="94.4" x="1091.2" y="1309.3453"/><text fill="#000000" font-family="sans-serif" font-size="11.2" lengthAdjust="spacing" textLength="83.2" x="1096.8" y="1325.7734">RankingService</text><rect fill="#E2E2F0" height="24.3906" rx="2" ry="2" style="stroke:#181818;stroke-width:0.4000000000000001;" width="134.4" x="1231.2" y="4"/><text fill="#000000" font-family="sans-serif" font-size="11.2" lengthAdjust="spacing" textLength="123.2" x="1236.8" y="20.4281">jobOpeningRepository</text><rect fill="#E2E2F0" height="24.3906" rx="2" ry="2" style="stroke:#181818;stroke-width:0.4000000000000001;" width="134.4" x="1231.2" y="1309.3453"/><text fill="#000000" font-family="sans-serif" font-size="11.2" lengthAdjust="spacing" textLength="123.2" x="1236.8" y="1325.7734">jobOpeningRepository</text><rect fill="#E2E2F0" height="24.3906" rx="2" ry="2" style="stroke:#181818;stroke-width:0.4000000000000001;" width="125.6" x="1373.6" y="4"/><text fill="#000000" font-family="sans-serif" font-size="11.2" lengthAdjust="spacing" textLength="114.4" x="1379.2" y="20.4281">CandidateRepository</text><rect fill="#E2E2F0" height="24.3906" rx="2" ry="2" style="stroke:#181818;stroke-width:0.4000000000000001;" width="125.6" x="1373.6" y="1309.3453"/><text fill="#000000" font-family="sans-serif" font-size="11.2" lengthAdjust="spacing" textLength="114.4" x="1379.2" y="1325.7734">CandidateRepository</text><rect fill="#E2E2F0" height="24.3906" rx="2" ry="2" style="stroke:#181818;stroke-width:0.4000000000000001;" width="76" x="1507.2" y="4"/><text fill="#000000" font-family="sans-serif" font-size="11.2" lengthAdjust="spacing" textLength="64.8" x="1512.8" y="20.4281">jobOpening</text><rect fill="#E2E2F0" height="24.3906" rx="2" ry="2" style="stroke:#181818;stroke-width:0.4000000000000001;" width="76" x="1507.2" y="1309.3453"/><text fill="#000000" font-family="sans-serif" font-size="11.2" lengthAdjust="spacing" textLength="64.8" x="1512.8" y="1325.7734">jobOpening</text><rect fill="#E2E2F0" height="24.3906" rx="2" ry="2" style="stroke:#181818;stroke-width:0.4000000000000001;" width="103.2" x="1657.6" y="1309.3453"/><text fill="#000000" font-family="sans-serif" font-size="11.2" lengthAdjust="spacing" textLength="92" x="1663.2" y="1325.7734">List&lt;Candidate&gt;</text><rect fill="#E2E2F0" height="24.3906" rx="2" ry="2" style="stroke:#181818;stroke-width:0.4000000000000001;" width="103.2" x="1768.8" y="1309.3453"/><text fill="#000000" font-family="sans-serif" font-size="11.2" lengthAdjust="spacing" textLength="92" x="1774.4" y="1325.7734">List&lt;Candidate&gt;</text><rect fill="#E2E2F0" height="24.3906" rx="2" ry="2" style="stroke:#181818;stroke-width:0.4000000000000001;" width="91.2" x="1880" y="4"/><text fill="#000000" font-family="sans-serif" font-size="11.2" lengthAdjust="spacing" textLength="80" x="1885.6" y="20.4281">jobApplication</text><rect fill="#E2E2F0" height="24.3906" rx="2" ry="2" style="stroke:#181818;stroke-width:0.4000000000000001;" width="91.2" x="1880" y="1309.3453"/><text fill="#000000" font-family="sans-serif" font-size="11.2" lengthAdjust="spacing" textLength="80" x="1885.6" y="1325.7734">jobApplication</text><rect fill="#E2E2F0" height="24.3906" rx="2" ry="2" style="stroke:#181818;stroke-width:0.4000000000000001;" width="67.2" x="1988" y="4"/><text fill="#000000" font-family="sans-serif" font-size="11.2" lengthAdjust="spacing" textLength="56" x="1993.6" y="20.4281">Candidate</text><rect fill="#E2E2F0" height="24.3906" rx="2" ry="2" style="stroke:#181818;stroke-width:0.4000000000000001;" width="67.2" x="1988" y="1309.3453"/><text fill="#000000" font-family="sans-serif" font-size="11.2" lengthAdjust="spacing" textLength="56" x="1993.6" y="1325.7734">Candidate</text><rect fill="#E2E2F0" height="24.3906" rx="2" ry="2" style="stroke:#181818;stroke-width:0.4000000000000001;" width="38.4" x="2063.2" y="4"/><text fill="#000000" font-family="sans-serif" font-size="11.2" lengthAdjust="spacing" textLength="27.2" x="2068.8" y="20.4281">Rank</text><rect fill="#E2E2F0" height="24.3906" rx="2" ry="2" style="stroke:#181818;stroke-width:0.4000000000000001;" width="38.4" x="2063.2" y="1309.3453"/><text fill="#000000" font-family="sans-serif" font-size="11.2" lengthAdjust="spacing" textLength="27.2" x="2068.8" y="1325.7734">Rank</text><rect fill="#FFFFFF" height="1265.7547" style="stroke:#181818;stroke-width:0.8000000000000002;" width="8" x="68.4" y="37.1906"/><rect fill="#FFFFFF" height="188.6359" style="stroke:#181818;stroke-width:0.8000000000000002;" width="8" x="363.6" y="54.2391"/><rect fill="#FFFFFF" height="292.7234" style="stroke:#181818;stroke-width:0.8000000000000002;" width="8" x="363.6" y="266.3234"/><rect fill="#FFFFFF" height="635.7047" style="stroke:#181818;stroke-width:0.8000000000000002;" width="8" x="363.6" y="582.4953"/><rect fill="#FFFFFF" height="23.4484" style="stroke:#181818;stroke-width:0.8000000000000002;" width="8" x="363.6" y="1266.6969"/><rect fill="#FFFFFF" height="117.2422" style="stroke:#181818;stroke-width:0.8000000000000002;" width="8" x="661.2" y="77.6875"/><rect fill="#FFFFFF" height="245.8266" style="stroke:#181818;stroke-width:0.8000000000000002;" width="8" x="661.2" y="289.7719"/><rect fill="#FFFFFF" height="588.8078" style="stroke:#181818;stroke-width:0.8000000000000002;" width="8" x="661.2" y="605.9438"/><rect fill="#FFFFFF" height="23.4484" style="stroke:#181818;stroke-width:0.8000000000000002;" width="8" x="661.2" y="1243.2484"/><rect fill="#FFFFFF" height="23.4484" style="stroke:#181818;stroke-width:0.8000000000000002;" width="8" x="1016.4" y="101.1359"/><rect fill="#FFFFFF" height="613.8563" style="stroke:#181818;stroke-width:0.8000000000000002;" width="8" x="1134.4" y="629.3922"/><rect fill="#FFFFFF" height="32.2484" style="stroke:#181818;stroke-width:0.8000000000000002;" width="8" x="1138.4" y="659.2406"/><rect fill="#FFFFFF" height="23.4484" style="stroke:#181818;stroke-width:0.8000000000000002;" width="8" x="1294.4" y="148.0328"/><rect fill="#FFFFFF" height="23.4484" style="stroke:#181818;stroke-width:0.8000000000000002;" width="8" x="1432.4" y="773.1766"/><rect fill="#FFFFFF" height="198.9297" style="stroke:#181818;stroke-width:0.8000000000000002;" width="8" x="1541.2" y="313.2203"/><rect fill="#FFFFFF" height="185.4906" style="stroke:#181818;stroke-width:0.8000000000000002;" width="8" x="1541.2" y="849.1219"/><rect fill="#FFFFFF" height="32.2484" style="stroke:#181818;stroke-width:0.8000000000000002;" width="8" x="1545.2" y="925.8672"/><rect fill="#FFFFFF" height="70.3453" style="stroke:#181818;stroke-width:0.8000000000000002;" width="8" x="1541.2" y="1077.5094"/><rect fill="#FFFFFF" height="70.3453" style="stroke:#181818;stroke-width:0.8000000000000002;" width="8" x="1921.6" y="389.3078"/><rect fill="#FFFFFF" height="23.4484" style="stroke:#181818;stroke-width:0.8000000000000002;" width="8" x="2017.6" y="412.7563"/><rect fill="#FFFFFF" height="23.4484" style="stroke:#181818;stroke-width:0.8000000000000002;" width="8" x="2078.4" y="872.5703"/><rect fill="#FFFFFF" height="24" style="stroke:#181818;stroke-width:0.8000000000000002;" width="8" x="2078.4" y="987.1641"/><rect fill="#FFFFFF" height="23.4484" style="stroke:#181818;stroke-width:0.8000000000000002;" width="8" x="2078.4" y="1100.9578"/><polygon fill="#181818" points="354,51.0391,362,54.2391,354,57.4391,357.2,54.2391" style="stroke:#181818;stroke-width:0.8000000000000002;"/><line style="stroke:#181818;stroke-width:0.8000000000000002;" x1="76.4" x2="358.8" y1="54.2391" y2="54.2391"/><text fill="#000000" font-family="sans-serif" font-size="10.4" lengthAdjust="spacing" textLength="168" x="82" y="50.4453">select the rank candidates option</text><polygon fill="#181818" points="651.6,74.4875,659.6,77.6875,651.6,80.8875,654.8,77.6875" style="stroke:#181818;stroke-width:0.8000000000000002;"/><line style="stroke:#181818;stroke-width:0.8000000000000002;" x1="371.6" x2="656.4" y1="77.6875" y2="77.6875"/><text fill="#000000" font-family="sans-serif" font-size="10.4" lengthAdjust="spacing" textLength="274.4" x="377.2" y="73.8938">getJobOpeningsInAnalysisPhaseForCustomerManager()</text><polygon fill="#181818" points="1006.8,97.9359,1014.8,101.1359,1006.8,104.3359,1010,101.1359" style="stroke:#181818;stroke-width:0.8000000000000002;"/><line style="stroke:#181818;stroke-width:0.8000000000000002;" x1="669.2" x2="1011.6" y1="101.1359" y2="101.1359"/><text fill="#000000" font-family="sans-serif" font-size="10.4" lengthAdjust="spacing" textLength="332" x="674.8" y="97.3422">loggedinUserWithPermissions(Jobs4uRoles.CUSTOMER_MANAGER)</text><polygon fill="#181818" points="678,121.3844,670,124.5844,678,127.7844,674.8,124.5844" style="stroke:#181818;stroke-width:0.8000000000000002;"/><line style="stroke:#181818;stroke-width:0.8000000000000002;" x1="673.2" x2="1019.6" y1="124.5844" y2="124.5844"/><text fill="#000000" font-family="sans-serif" font-size="10.4" lengthAdjust="spacing" textLength="58.4" x="682.8" y="120.7906">SystemUser</text><polygon fill="#181818" points="1284.8,144.8328,1292.8,148.0328,1284.8,151.2328,1288,148.0328" style="stroke:#181818;stroke-width:0.8000000000000002;"/><line style="stroke:#181818;stroke-width:0.8000000000000002;" x1="669.2" x2="1289.6" y1="148.0328" y2="148.0328"/><text fill="#000000" font-family="sans-serif" font-size="10.4" lengthAdjust="spacing" textLength="332.8" x="674.8" y="144.2391">getJobOpeningsInAnalysisPhaseForCustomerManager(SystemUser)</text><polygon fill="#181818" points="678,168.2813,670,171.4813,678,174.6813,674.8,171.4813" style="stroke:#181818;stroke-width:0.8000000000000002;"/><line style="stroke:#181818;stroke-width:0.8000000000000002;" x1="673.2" x2="1297.6" y1="171.4813" y2="171.4813"/><text fill="#000000" font-family="sans-serif" font-size="10.4" lengthAdjust="spacing" textLength="92.8" x="682.8" y="167.6875">List&lt;JobOpening&gt;</text><polygon fill="#181818" points="380.4,191.7297,372.4,194.9297,380.4,198.1297,377.2,194.9297" style="stroke:#181818;stroke-width:0.8000000000000002;"/><line style="stroke:#181818;stroke-width:0.8000000000000002;" x1="375.6" x2="664.4" y1="194.9297" y2="194.9297"/><text fill="#000000" font-family="sans-serif" font-size="10.4" lengthAdjust="spacing" textLength="92.8" x="385.2" y="191.1359">List&lt;JobOpening&gt;</text><polygon fill="#181818" points="85.2,239.675,77.2,242.875,85.2,246.075,82,242.875" style="stroke:#181818;stroke-width:0.8000000000000002;"/><line style="stroke:#181818;stroke-width:0.8000000000000002;" x1="80.4" x2="366.8" y1="242.875" y2="242.875"/><text fill="#000000" font-family="sans-serif" font-size="10.4" lengthAdjust="spacing" textLength="114.4" x="90" y="214.5844">show the job openings</text><text fill="#000000" font-family="sans-serif" font-size="10.4" lengthAdjust="spacing" textLength="148.8" x="90" y="226.8328">that are in the Analysis phase</text><text fill="#000000" font-family="sans-serif" font-size="10.4" lengthAdjust="spacing" textLength="169.6" x="90" y="239.0813">and are his responsibility as a list</text><polygon fill="#181818" points="354,263.1234,362,266.3234,354,269.5234,357.2,266.3234" style="stroke:#181818;stroke-width:0.8000000000000002;"/><line style="stroke:#181818;stroke-width:0.8000000000000002;" x1="76.4" x2="358.8" y1="266.3234" y2="266.3234"/><text fill="#000000" font-family="sans-serif" font-size="10.4" lengthAdjust="spacing" textLength="112" x="82" y="262.5297">select the job opening</text><polygon fill="#181818" points="651.6,286.5719,659.6,289.7719,651.6,292.9719,654.8,289.7719" style="stroke:#181818;stroke-width:0.8000000000000002;"/><line style="stroke:#181818;stroke-width:0.8000000000000002;" x1="371.6" x2="656.4" y1="289.7719" y2="289.7719"/><text fill="#000000" font-family="sans-serif" font-size="10.4" lengthAdjust="spacing" textLength="195.2" x="377.2" y="285.9781">getJobOpeningCandidates(jobOpening)</text><polygon fill="#181818" points="1531.6,310.0203,1539.6,313.2203,1531.6,316.4203,1534.8,313.2203" style="stroke:#181818;stroke-width:0.8000000000000002;"/><line style="stroke:#181818;stroke-width:0.8000000000000002;" x1="669.2" x2="1536.4" y1="313.2203" y2="313.2203"/><text fill="#000000" font-family="sans-serif" font-size="10.4" lengthAdjust="spacing" textLength="136.8" x="674.8" y="309.4266">getCandidates(jobOpening)</text><polygon fill="#181818" points="1648,333.4688,1656,336.6688,1648,339.8688,1651.2,336.6688" style="stroke:#181818;stroke-width:0.8000000000000002;"/><line style="stroke:#181818;stroke-width:0.8000000000000002;" x1="1549.2" x2="1652.8" y1="336.6688" y2="336.6688"/><text fill="#000000" font-family="sans-serif" font-size="10.4" lengthAdjust="spacing" textLength="30.4" x="1554.8" y="332.875">create</text><rect fill="#E2E2F0" height="24.3906" rx="2" ry="2" style="stroke:#181818;stroke-width:0.4000000000000001;" width="103.2" x="1657.6" y="319.6203"/><text fill="#000000" font-family="sans-serif" font-size="11.2" lengthAdjust="spacing" textLength="92" x="1663.2" y="336.0484">List&lt;Candidate&gt;</text><path d="M1499.2,358.4109 L1558.4,358.4109 L1558.4,364.2594 L1550.4,372.2594 L1499.2,372.2594 L1499.2,358.4109 " fill="#EEEEEE" style="stroke:#000000;stroke-width:1.2000000000000002;"/><rect fill="none" height="131.0906" style="stroke:#000000;stroke-width:1.2000000000000002;" width="564" x="1499.2" y="358.4109"/><text fill="#000000" font-family="sans-serif" font-size="10.4" font-weight="bold" lengthAdjust="spacing" textLength="23.2" x="1511.2" y="369.2656">loop</text><text fill="#000000" font-family="sans-serif" font-size="8.8" font-weight="bold" lengthAdjust="spacing" textLength="97.6" x="1570.4" y="368.5188">[for each Application]</text><polygon fill="#181818" points="1912,386.1078,1920,389.3078,1912,392.5078,1915.2,389.3078" style="stroke:#181818;stroke-width:0.8000000000000002;"/><line style="stroke:#181818;stroke-width:0.8000000000000002;" x1="1549.2" x2="1916.8" y1="389.3078" y2="389.3078"/><text fill="#000000" font-family="sans-serif" font-size="10.4" lengthAdjust="spacing" textLength="72.8" x="1554.8" y="385.5141">getCandidate()</text><polygon fill="#181818" points="2008,409.5563,2016,412.7563,2008,415.9563,2011.2,412.7563" style="stroke:#181818;stroke-width:0.8000000000000002;"/><line style="stroke:#181818;stroke-width:0.8000000000000002;" x1="1929.6" x2="2012.8" y1="412.7563" y2="412.7563"/><text fill="#000000" font-family="sans-serif" font-size="10.4" lengthAdjust="spacing" textLength="72.8" x="1935.2" y="408.9625">getCandidate()</text><polygon fill="#181818" points="1938.4,433.0047,1930.4,436.2047,1938.4,439.4047,1935.2,436.2047" style="stroke:#181818;stroke-width:0.8000000000000002;"/><line style="stroke:#181818;stroke-width:0.8000000000000002;" x1="1933.6" x2="2020.8" y1="436.2047" y2="436.2047"/><text fill="#000000" font-family="sans-serif" font-size="10.4" lengthAdjust="spacing" textLength="50.4" x="1943.2" y="432.4109">Candidate</text><polygon fill="#181818" points="1558,456.4531,1550,459.6531,1558,462.8531,1554.8,459.6531" style="stroke:#181818;stroke-width:0.8000000000000002;"/><line style="stroke:#181818;stroke-width:0.8000000000000002;" x1="1553.2" x2="1924.8" y1="459.6531" y2="459.6531"/><text fill="#000000" font-family="sans-serif" font-size="10.4" lengthAdjust="spacing" textLength="50.4" x="1562.8" y="455.8594">Candidate</text><polygon fill="#181818" points="1699.6,479.9016,1707.6,483.1016,1699.6,486.3016,1702.8,483.1016" style="stroke:#181818;stroke-width:0.8000000000000002;"/><line style="stroke:#181818;stroke-width:0.8000000000000002;" x1="1549.2" x2="1704.4" y1="483.1016" y2="483.1016"/><text fill="#000000" font-family="sans-serif" font-size="10.4" lengthAdjust="spacing" textLength="73.6" x="1554.8" y="479.3078">add(candidate)</text><polygon fill="#181818" points="678,508.95,670,512.15,678,515.35,674.8,512.15" style="stroke:#181818;stroke-width:0.8000000000000002;"/><line style="stroke:#181818;stroke-width:0.8000000000000002;" x1="673.2" x2="1544.4" y1="512.15" y2="512.15"/><text fill="#000000" font-family="sans-serif" font-size="10.4" lengthAdjust="spacing" textLength="84.8" x="682.8" y="508.3563">List&lt;Candidate&gt;</text><polygon fill="#181818" points="380.4,532.3984,372.4,535.5984,380.4,538.7984,377.2,535.5984" style="stroke:#181818;stroke-width:0.8000000000000002;"/><line style="stroke:#181818;stroke-width:0.8000000000000002;" x1="375.6" x2="664.4" y1="535.5984" y2="535.5984"/><text fill="#000000" font-family="sans-serif" font-size="10.4" lengthAdjust="spacing" textLength="84.8" x="385.2" y="531.8047">List&lt;Candidate&gt;</text><polygon fill="#181818" points="85.2,555.8469,77.2,559.0469,85.2,562.2469,82,559.0469" style="stroke:#181818;stroke-width:0.8000000000000002;"/><line style="stroke:#181818;stroke-width:0.8000000000000002;" x1="80.4" x2="366.8" y1="559.0469" y2="559.0469"/><text fill="#000000" font-family="sans-serif" font-size="10.4" lengthAdjust="spacing" textLength="268" x="90" y="555.2531">show the candidates list and asks for the ordered list</text><polygon fill="#181818" points="354,579.2953,362,582.4953,354,585.6953,357.2,582.4953" style="stroke:#181818;stroke-width:0.8000000000000002;"/><line style="stroke:#181818;stroke-width:0.8000000000000002;" x1="76.4" x2="358.8" y1="582.4953" y2="582.4953"/><text fill="#000000" font-family="sans-serif" font-size="10.4" lengthAdjust="spacing" textLength="243.2" x="82" y="578.7016">Insert the candidates email separated by comma</text><polygon fill="#181818" points="651.6,602.7438,659.6,605.9438,651.6,609.1438,654.8,605.9438" style="stroke:#181818;stroke-width:0.8000000000000002;"/><line style="stroke:#181818;stroke-width:0.8000000000000002;" x1="371.6" x2="656.4" y1="605.9438" y2="605.9438"/><text fill="#000000" font-family="sans-serif" font-size="10.4" lengthAdjust="spacing" textLength="215.2" x="377.2" y="602.15">rankCandidates(jobOpening, String emails)</text><polygon fill="#181818" points="1124.8,626.1922,1132.8,629.3922,1124.8,632.5922,1128,629.3922" style="stroke:#181818;stroke-width:0.8000000000000002;"/><line style="stroke:#181818;stroke-width:0.8000000000000002;" x1="669.2" x2="1129.6" y1="629.3922" y2="629.3922"/><text fill="#000000" font-family="sans-serif" font-size="10.4" lengthAdjust="spacing" textLength="215.2" x="674.8" y="625.5984">rankCandidates(jobOpening, String emails)</text><line style="stroke:#181818;stroke-width:0.8000000000000002;" x1="1142.4" x2="1180" y1="648.8406" y2="648.8406"/><line style="stroke:#181818;stroke-width:0.8000000000000002;" x1="1180" x2="1180" y1="648.8406" y2="659.2406"/><line style="stroke:#181818;stroke-width:0.8000000000000002;" x1="1147.2" x2="1180" y1="659.2406" y2="659.2406"/><polygon fill="#181818" points="1155.2,656.0406,1147.2,659.2406,1155.2,662.4406,1152,659.2406" style="stroke:#181818;stroke-width:0.8000000000000002;"/><text fill="#000000" font-family="sans-serif" font-size="10.4" lengthAdjust="spacing" textLength="140.8" x="1152" y="645.0469">convertEmailsToList(emails)</text><line style="stroke:#181818;stroke-width:0.8000000000000002;" x1="1146.4" x2="1180" y1="690.6891" y2="690.6891"/><line style="stroke:#181818;stroke-width:0.8000000000000002;" x1="1180" x2="1180" y1="690.6891" y2="701.0891"/><line style="stroke:#181818;stroke-width:0.8000000000000002;" x1="1142.4" x2="1180" y1="701.0891" y2="701.0891"/><polygon fill="#181818" points="1150.4,697.8891,1142.4,701.0891,1150.4,704.2891,1147.2,701.0891" style="stroke:#181818;stroke-width:0.8000000000000002;"/><text fill="#000000" font-family="sans-serif" font-size="10.4" lengthAdjust="spacing" textLength="102.4" x="1152" y="686.8953">List&lt;EmailAddress&gt;</text><polygon fill="#181818" points="1759.2,717.3375,1767.2,720.5375,1759.2,723.7375,1762.4,720.5375" style="stroke:#181818;stroke-width:0.8000000000000002;"/><line style="stroke:#181818;stroke-width:0.8000000000000002;" x1="1142.4" x2="1764" y1="720.5375" y2="720.5375"/><text fill="#000000" font-family="sans-serif" font-size="10.4" lengthAdjust="spacing" textLength="30.4" x="1148" y="716.7438">create</text><rect fill="#E2E2F0" height="24.3906" rx="2" ry="2" style="stroke:#181818;stroke-width:0.4000000000000001;" width="103.2" x="1768.8" y="703.4891"/><text fill="#000000" font-family="sans-serif" font-size="11.2" lengthAdjust="spacing" textLength="92" x="1774.4" y="719.9172">List&lt;Candidate&gt;</text><path d="M1083.2,742.2797 L1142.4,742.2797 L1142.4,748.1281 L1134.4,756.1281 L1083.2,756.1281 L1083.2,742.2797 " fill="#EEEEEE" style="stroke:#000000;stroke-width:1.2000000000000002;"/><rect fill="none" height="84.1938" style="stroke:#000000;stroke-width:1.2000000000000002;" width="796.8" x="1083.2" y="742.2797"/><text fill="#000000" font-family="sans-serif" font-size="10.4" font-weight="bold" lengthAdjust="spacing" textLength="23.2" x="1095.2" y="753.1344">loop</text><text fill="#000000" font-family="sans-serif" font-size="8.8" font-weight="bold" lengthAdjust="spacing" textLength="71.2" x="1154.4" y="752.3875">[for each email]</text><polygon fill="#181818" points="1422.8,769.9766,1430.8,773.1766,1422.8,776.3766,1426,773.1766" style="stroke:#181818;stroke-width:0.8000000000000002;"/><line style="stroke:#181818;stroke-width:0.8000000000000002;" x1="1142.4" x2="1427.6" y1="773.1766" y2="773.1766"/><text fill="#000000" font-family="sans-serif" font-size="10.4" lengthAdjust="spacing" textLength="92" x="1148" y="769.3828">findByEmail(email)</text><polygon fill="#181818" points="1151.2,793.425,1143.2,796.625,1151.2,799.825,1148,796.625" style="stroke:#181818;stroke-width:0.8000000000000002;"/><line style="stroke:#181818;stroke-width:0.8000000000000002;" x1="1146.4" x2="1435.6" y1="796.625" y2="796.625"/><text fill="#000000" font-family="sans-serif" font-size="10.4" lengthAdjust="spacing" textLength="50.4" x="1156" y="792.8313">Candidate</text><polygon fill="#181818" points="1810.8,816.8734,1818.8,820.0734,1810.8,823.2734,1814,820.0734" style="stroke:#181818;stroke-width:0.8000000000000002;"/><line style="stroke:#181818;stroke-width:0.8000000000000002;" x1="1142.4" x2="1815.6" y1="820.0734" y2="820.0734"/><text fill="#000000" font-family="sans-serif" font-size="10.4" lengthAdjust="spacing" textLength="131.2" x="1148" y="816.2797">addCandidates(Candidate)</text><polygon fill="#181818" points="1531.6,845.9219,1539.6,849.1219,1531.6,852.3219,1534.8,849.1219" style="stroke:#181818;stroke-width:0.8000000000000002;"/><line style="stroke:#181818;stroke-width:0.8000000000000002;" x1="1142.4" x2="1536.4" y1="849.1219" y2="849.1219"/><text fill="#000000" font-family="sans-serif" font-size="10.4" lengthAdjust="spacing" textLength="125.6" x="1148" y="845.3281">getRankSize(jobOpening)</text><polygon fill="#181818" points="2068.8,869.3703,2076.8,872.5703,2068.8,875.7703,2072,872.5703" style="stroke:#181818;stroke-width:0.8000000000000002;"/><line style="stroke:#181818;stroke-width:0.8000000000000002;" x1="1549.2" x2="2073.6" y1="872.5703" y2="872.5703"/><text fill="#000000" font-family="sans-serif" font-size="10.4" lengthAdjust="spacing" textLength="70.4" x="1554.8" y="868.7766">getMultiplier()</text><polygon fill="#181818" points="1558,892.8188,1550,896.0188,1558,899.2188,1554.8,896.0188" style="stroke:#181818;stroke-width:0.8000000000000002;"/><line style="stroke:#181818;stroke-width:0.8000000000000002;" x1="1553.2" x2="2081.6" y1="896.0188" y2="896.0188"/><text fill="#000000" font-family="sans-serif" font-size="10.4" lengthAdjust="spacing" textLength="48" x="1562.8" y="892.225">Multiplier</text><line style="stroke:#181818;stroke-width:0.8000000000000002;" x1="1549.2" x2="1586.8" y1="915.4672" y2="915.4672"/><line style="stroke:#181818;stroke-width:0.8000000000000002;" x1="1586.8" x2="1586.8" y1="915.4672" y2="925.8672"/><line style="stroke:#181818;stroke-width:0.8000000000000002;" x1="1554" x2="1586.8" y1="925.8672" y2="925.8672"/><polygon fill="#181818" points="1562,922.6672,1554,925.8672,1562,929.0672,1558.8,925.8672" style="stroke:#181818;stroke-width:0.8000000000000002;"/><text fill="#000000" font-family="sans-serif" font-size="10.4" lengthAdjust="spacing" textLength="144.8" x="1558.8" y="911.6734">calculateRankSize(multiplier)</text><line style="stroke:#181818;stroke-width:0.8000000000000002;" x1="1553.2" x2="1586.8" y1="957.3156" y2="957.3156"/><line style="stroke:#181818;stroke-width:0.8000000000000002;" x1="1586.8" x2="1586.8" y1="957.3156" y2="967.7156"/><line style="stroke:#181818;stroke-width:0.8000000000000002;" x1="1549.2" x2="1586.8" y1="967.7156" y2="967.7156"/><polygon fill="#181818" points="1557.2,964.5156,1549.2,967.7156,1557.2,970.9156,1554,967.7156" style="stroke:#181818;stroke-width:0.8000000000000002;"/><text fill="#000000" font-family="sans-serif" font-size="10.4" lengthAdjust="spacing" textLength="42.4" x="1558.8" y="953.5219">rankSize</text><polygon fill="#181818" points="2068.8,983.9641,2076.8,987.1641,2068.8,990.3641,2072,987.1641" style="stroke:#181818;stroke-width:0.8000000000000002;"/><line style="stroke:#181818;stroke-width:0.8000000000000002;" x1="1549.2" x2="2073.6" y1="987.1641" y2="987.1641"/><text fill="#000000" font-family="sans-serif" font-size="10.4" lengthAdjust="spacing" textLength="108.8" x="1554.8" y="983.3703">setRankSize(rankSize)</text><polygon fill="#181818" points="1151.2,1031.4125,1143.2,1034.6125,1151.2,1037.8125,1148,1034.6125" style="stroke:#181818;stroke-width:0.8000000000000002;"/><line style="stroke:#181818;stroke-width:0.8000000000000002;" x1="1146.4" x2="1544.4" y1="1034.6125" y2="1034.6125"/><text fill="#000000" font-family="sans-serif" font-size="10.4" lengthAdjust="spacing" textLength="44.8" x="1156" y="1030.8188">RankSize</text><path d="M8,1046.6125 L57.6,1046.6125 L57.6,1052.4609 L49.6,1060.4609 L8,1060.4609 L8,1046.6125 " fill="#EEEEEE" style="stroke:#000000;stroke-width:1.2000000000000002;"/><rect fill="none" height="249.9328" style="stroke:#000000;stroke-width:1.2000000000000002;" width="2101.6" x="8" y="1046.6125"/><text fill="#000000" font-family="sans-serif" font-size="10.4" font-weight="bold" lengthAdjust="spacing" textLength="13.6" x="20" y="1057.4672">alt</text><text fill="#000000" font-family="sans-serif" font-size="8.8" font-weight="bold" lengthAdjust="spacing" textLength="154.4" x="69.6" y="1056.7203">[List&lt;Candidate&gt;.size &lt; RankSize]</text><polygon fill="#181818" points="1531.6,1074.3094,1539.6,1077.5094,1531.6,1080.7094,1534.8,1077.5094" style="stroke:#181818;stroke-width:0.8000000000000002;"/><line style="stroke:#181818;stroke-width:0.8000000000000002;" x1="1142.4" x2="1536.4" y1="1077.5094" y2="1077.5094"/><text fill="#000000" font-family="sans-serif" font-size="10.4" lengthAdjust="spacing" textLength="152.8" x="1148" y="1073.7156">addRankList(List&lt;Candidate&gt;)</text><polygon fill="#181818" points="2068.8,1097.7578,2076.8,1100.9578,2068.8,1104.1578,2072,1100.9578" style="stroke:#181818;stroke-width:0.8000000000000002;"/><line style="stroke:#181818;stroke-width:0.8000000000000002;" x1="1549.2" x2="2073.6" y1="1100.9578" y2="1100.9578"/><text fill="#000000" font-family="sans-serif" font-size="10.4" lengthAdjust="spacing" textLength="128" x="1554.8" y="1097.1641">valueof(List&lt;Candidate&gt;)</text><polygon fill="#181818" points="1558,1121.2063,1550,1124.4063,1558,1127.6063,1554.8,1124.4063" style="stroke:#181818;stroke-width:0.8000000000000002;"/><line style="stroke:#181818;stroke-width:0.8000000000000002;" x1="1553.2" x2="2081.6" y1="1124.4063" y2="1124.4063"/><text fill="#000000" font-family="sans-serif" font-size="10.4" lengthAdjust="spacing" textLength="24.8" x="1562.8" y="1120.6125">Rank</text><polygon fill="#181818" points="1151.2,1144.6547,1143.2,1147.8547,1151.2,1151.0547,1148,1147.8547" style="stroke:#181818;stroke-width:0.8000000000000002;"/><line style="stroke:#181818;stroke-width:0.8000000000000002;" x1="1146.4" x2="1544.4" y1="1147.8547" y2="1147.8547"/><text fill="#000000" font-family="sans-serif" font-size="10.4" lengthAdjust="spacing" textLength="24.8" x="1156" y="1144.0609">Rank</text><polygon fill="#181818" points="678,1168.1031,670,1171.3031,678,1174.5031,674.8,1171.3031" style="stroke:#181818;stroke-width:0.8000000000000002;"/><line style="stroke:#181818;stroke-width:0.8000000000000002;" x1="673.2" x2="1133.6" y1="1171.3031" y2="1171.3031"/><text fill="#000000" font-family="sans-serif" font-size="10.4" lengthAdjust="spacing" textLength="24.8" x="682.8" y="1167.5094">Rank</text><polygon fill="#181818" points="380.4,1191.5516,372.4,1194.7516,380.4,1197.9516,377.2,1194.7516" style="stroke:#181818;stroke-width:0.8000000000000002;"/><line style="stroke:#181818;stroke-width:0.8000000000000002;" x1="375.6" x2="664.4" y1="1194.7516" y2="1194.7516"/><text fill="#000000" font-family="sans-serif" font-size="10.4" lengthAdjust="spacing" textLength="24.8" x="385.2" y="1190.9578">Rank</text><polygon fill="#181818" points="85.2,1215,77.2,1218.2,85.2,1221.4,82,1218.2" style="stroke:#181818;stroke-width:0.8000000000000002;"/><line style="stroke:#181818;stroke-width:0.8000000000000002;" x1="80.4" x2="366.8" y1="1218.2" y2="1218.2"/><text fill="#000000" font-family="sans-serif" font-size="10.4" lengthAdjust="spacing" textLength="71.2" x="90" y="1214.4063">show the rank</text><line style="stroke:#000000;stroke-width:0.8000000000000002;stroke-dasharray:2.0,2.0;" x1="8" x2="2109.6" y1="1225.4" y2="1225.4"/><polygon fill="#181818" points="678,1240.0484,670,1243.2484,678,1246.4484,674.8,1243.2484" style="stroke:#181818;stroke-width:0.8000000000000002;"/><line style="stroke:#181818;stroke-width:0.8000000000000002;" x1="673.2" x2="1137.6" y1="1243.2484" y2="1243.2484"/><text fill="#000000" font-family="sans-serif" font-size="10.4" lengthAdjust="spacing" textLength="49.6" x="682.8" y="1239.4547">Exception</text><polygon fill="#181818" points="380.4,1263.4969,372.4,1266.6969,380.4,1269.8969,377.2,1266.6969" style="stroke:#181818;stroke-width:0.8000000000000002;"/><line style="stroke:#181818;stroke-width:0.8000000000000002;" x1="375.6" x2="664.4" y1="1266.6969" y2="1266.6969"/><text fill="#000000" font-family="sans-serif" font-size="10.4" lengthAdjust="spacing" textLength="49.6" x="385.2" y="1262.9031">Exception</text><polygon fill="#181818" points="85.2,1286.9453,77.2,1290.1453,85.2,1293.3453,82,1290.1453" style="stroke:#181818;stroke-width:0.8000000000000002;"/><line style="stroke:#181818;stroke-width:0.8000000000000002;" x1="80.4" x2="366.8" y1="1290.1453" y2="1290.1453"/><text fill="#000000" font-family="sans-serif" font-size="10.4" lengthAdjust="spacing" textLength="145.6" x="90" y="1286.3516">Show the exception message</text><!--SRC=[dLRVRzem47xFNs7r2QfHgTAUK8N449kOnbf1qLucJMxYWgc98zjqet_zxYuaiKq2tNX09BuVtztttPc26oTJMV3SiSdUEhqJPivplXOcARmpm_EN2SypcN4dLZF6BLlDkYqcEdT6AoKCMgRrK-1nDTwxZJRoZJkfywKmhp8LL-Z0uI0qNK1qcQzz8rl-3kos-kc-43bOBaIXhNJQ7D1sQ-0niAoXXeRfYM4JaWA5XrVVf7LtTQmH0LFfUsnkuopZeb0ofLvG9jwEbr06HzWRV8iC90bFdNn5kvZE98dUiC48I1n28vL87NCRGI5OMgMoJ1S8fua9dAzcuDOmEcHhuRxMFRApV9npTR3IFcou5P-rYRBs-aquJnX9ytimGlw7JEdrMcGoNm7JFwJRF0YpazO28Dk3ZFRZVg6Li3UJrVBnVZvT_9gFlu-_J1TU0X8IVWr6FkJbmJgnmxX99a9Z3mVsXuJpxpKs2JmmfGZfcqKz98aq6KO-hD8jX8MqdVFn6mlJ2XuHGc1zetyJvo0zuBciZFtCtOOxnerWCgVZgbHMOArW0EgWymsyCy8MG8Tyaaew6Y3E5E3oiO1ctg4y3qKaDtPER_LOs5upgFtaaiI8sfBNYn5Wv9Ej7enKUdqzn0K1BnEbTS6UjM5GvuPvevim-6o9u2qF4u3oyR09p9FIcbE9vutJqZQj0jU6zDgdtWkA9NOQOluIB8HKwP1dMQyU_NuYyWphRbLgiym2eNQgjDtUf-QYIhsbX09Zf4BxOea4DD0c4qPaRVABeXwHpN8OJnS75pik5GWJ5YmyP-pf03XtEtv1bC7jvolf0riwWvS71RRjoozis_5Y-w-WrQMO9CTVGK38ymerJydhKICtlSuGRG68JN8VPnaClmq8RV64UuvrZWsb9Wrw7ccvSPzbddqwKAeIOZmFj1NBcQWsQWspUpZ8oyk8OtqxPA1zhz6JQ0eYXCV5WTVkKhw9O6s40wxh0KCgoMk-Lqx2jg2BCB2cwnlVq2LypDEOnwMKjxstRJI3DdELxXN-gwd0xUe0tU0maJawn6bEQh1UvPLJLoLduDPSBReJbr6LYvV8ZGLxTXUwXYHXIK0gMf3AemZzsYKkD2psbQkzqC_lS6_gYobSLDrewqYJygGfRJxObECd7Xjl6P7tSJRYXRneuIPOn7XsQHbJUN4Ks8j2MN4EsFHFAehwbcpP7E68nx1EYkcCvxa68G7ZcThFbBwiIXTLIhQ3zGU7BMsWhV4N]--></g></svg>