<?xml version="1.0" encoding="us-ascii" standalone="no"?><svg xmlns="http://www.w3.org/2000/svg" xmlns:xlink="http://www.w3.org/1999/xlink" contentStyleType="text/css" height="1007px" preserveAspectRatio="none" style="width:1965px;height:1007px;background:#FFFFFF;" version="1.1" viewBox="0 0 1965 1007" width="1965px" zoomAndPan="magnify"><defs/><g><rect fill="#FFFFFF" height="821.8574" style="stroke:#181818;stroke-width:1.0;" width="10" x="76.5" y="93.6211"/><rect fill="#FFFFFF" height="780.2754" style="stroke:#181818;stroke-width:1.0;" width="10" x="353.5" y="134.2031"/><rect fill="#FFFFFF" height="93.873" style="stroke:#181818;stroke-width:1.0;" width="10" x="702.5" y="165.4941"/><rect fill="#FFFFFF" height="429.7832" style="stroke:#181818;stroke-width:1.0;" width="10" x="702.5" y="387.8223"/><rect fill="#FFFFFF" height="31.291" style="stroke:#181818;stroke-width:1.0;" width="10" x="1067.5" y="196.7852"/><rect fill="#FFFFFF" height="31.291" style="stroke:#181818;stroke-width:1.0;" width="10" x="1243" y="419.1133"/><rect fill="#FFFFFF" height="304.6191" style="stroke:#181818;stroke-width:1.0;" width="10" x="1384.5" y="481.6953"/><rect fill="#FFFFFF" height="93.873" style="stroke:#181818;stroke-width:1.0;" width="10" x="1782.5" y="654.1504"/><rect fill="#FFFFFF" height="31.291" style="stroke:#181818;stroke-width:1.0;" width="10" x="1893.5" y="685.4414"/><rect fill="none" height="410.7832" style="stroke:#000000;stroke-width:1.5;" width="1948" x="10" y="496.6953"/><rect fill="none" height="144.4551" style="stroke:#000000;stroke-width:1.5;" width="613.5" x="1334.5" y="611.5684"/><line style="stroke:#181818;stroke-width:0.5;stroke-dasharray:5.0,5.0;" x1="81" x2="81" y1="83.6211" y2="924.4785"/><line style="stroke:#181818;stroke-width:0.5;stroke-dasharray:5.0,5.0;" x1="358" x2="358" y1="83.6211" y2="924.4785"/><line style="stroke:#181818;stroke-width:0.5;stroke-dasharray:5.0,5.0;" x1="707" x2="707" y1="83.6211" y2="924.4785"/><line style="stroke:#181818;stroke-width:0.5;stroke-dasharray:5.0,5.0;" x1="1072.5" x2="1072.5" y1="83.6211" y2="924.4785"/><line style="stroke:#181818;stroke-width:0.5;stroke-dasharray:5.0,5.0;" x1="1247.5" x2="1247.5" y1="83.6211" y2="924.4785"/><line style="stroke:#181818;stroke-width:0.5;stroke-dasharray:5.0,5.0;" x1="1389.5" x2="1389.5" y1="83.6211" y2="924.4785"/><line style="stroke:#181818;stroke-width:0.5;stroke-dasharray:5.0,5.0;" x1="1787" x2="1787" y1="83.6211" y2="924.4785"/><line style="stroke:#181818;stroke-width:0.5;stroke-dasharray:5.0,5.0;" x1="1898" x2="1898" y1="83.6211" y2="924.4785"/><text fill="#000000" font-family="sans-serif" font-size="14" lengthAdjust="spacing" textLength="117" x="20" y="80.1074">CustomerManager</text><ellipse cx="81.5" cy="13.5" fill="#E2E2F0" rx="8" ry="8" style="stroke:#181818;stroke-width:0.5;"/><path d="M81.5,21.5 L81.5,48.5 M68.5,29.5 L94.5,29.5 M81.5,48.5 L68.5,63.5 M81.5,48.5 L94.5,63.5 " fill="none" style="stroke:#181818;stroke-width:0.5;"/><text fill="#000000" font-family="sans-serif" font-size="14" lengthAdjust="spacing" textLength="117" x="20" y="938.5859">CustomerManager</text><ellipse cx="81.5" cy="950.5996" fill="#E2E2F0" rx="8" ry="8" style="stroke:#181818;stroke-width:0.5;"/><path d="M81.5,958.5996 L81.5,985.5996 M68.5,966.5996 L94.5,966.5996 M81.5,985.5996 L68.5,1000.5996 M81.5,985.5996 L94.5,1000.5996 " fill="none" style="stroke:#181818;stroke-width:0.5;"/><rect fill="#E2E2F0" height="51.2422" rx="2.5" ry="2.5" style="stroke:#181818;stroke-width:0.5;" width="211" x="253" y="31.3789"/><text fill="#000000" font-family="sans-serif" font-size="14" font-style="italic" lengthAdjust="spacing" textLength="95" x="311" y="53.4863">&#171;presentation&#187;</text><text fill="#000000" font-family="sans-serif" font-size="14" lengthAdjust="spacing" textLength="197" x="260" y="72.1074">GetOrderedListOfCandidatesUI</text><rect fill="#E2E2F0" height="51.2422" rx="2.5" ry="2.5" style="stroke:#181818;stroke-width:0.5;" width="211" x="253" y="923.4785"/><text fill="#000000" font-family="sans-serif" font-size="14" font-style="italic" lengthAdjust="spacing" textLength="95" x="311" y="945.5859">&#171;presentation&#187;</text><text fill="#000000" font-family="sans-serif" font-size="14" lengthAdjust="spacing" textLength="197" x="260" y="964.207">GetOrderedListOfCandidatesUI</text><rect fill="#E2E2F0" height="51.2422" rx="2.5" ry="2.5" style="stroke:#181818;stroke-width:0.5;" width="261" x="577" y="31.3789"/><text fill="#000000" font-family="sans-serif" font-size="14" font-style="italic" lengthAdjust="spacing" textLength="84" x="665.5" y="53.4863">&#171;application&#187;</text><text fill="#000000" font-family="sans-serif" font-size="14" lengthAdjust="spacing" textLength="247" x="584" y="72.1074">GetOrderedListOfCandidatesController</text><rect fill="#E2E2F0" height="51.2422" rx="2.5" ry="2.5" style="stroke:#181818;stroke-width:0.5;" width="261" x="577" y="923.4785"/><text fill="#000000" font-family="sans-serif" font-size="14" font-style="italic" lengthAdjust="spacing" textLength="84" x="665.5" y="945.5859">&#171;application&#187;</text><text fill="#000000" font-family="sans-serif" font-size="14" lengthAdjust="spacing" textLength="247" x="584" y="964.207">GetOrderedListOfCandidatesController</text><rect fill="#E2E2F0" height="51.2422" rx="2.5" ry="2.5" style="stroke:#181818;stroke-width:0.5;" width="158" x="993.5" y="31.3789"/><text fill="#000000" font-family="sans-serif" font-size="14" font-style="italic" lengthAdjust="spacing" textLength="79" x="1033" y="53.4863">&#171;repository&#187;</text><text fill="#000000" font-family="sans-serif" font-size="14" lengthAdjust="spacing" textLength="144" x="1000.5" y="72.1074">JobOpeningRepository</text><rect fill="#E2E2F0" height="51.2422" rx="2.5" ry="2.5" style="stroke:#181818;stroke-width:0.5;" width="158" x="993.5" y="923.4785"/><text fill="#000000" font-family="sans-serif" font-size="14" font-style="italic" lengthAdjust="spacing" textLength="79" x="1033" y="945.5859">&#171;repository&#187;</text><text fill="#000000" font-family="sans-serif" font-size="14" lengthAdjust="spacing" textLength="144" x="1000.5" y="964.207">JobOpeningRepository</text><rect fill="#E2E2F0" height="51.2422" rx="2.5" ry="2.5" style="stroke:#181818;stroke-width:0.5;" width="173" x="1161.5" y="31.3789"/><text fill="#000000" font-family="sans-serif" font-size="14" font-style="italic" lengthAdjust="spacing" textLength="79" x="1208.5" y="53.4863">&#171;repository&#187;</text><text fill="#000000" font-family="sans-serif" font-size="14" lengthAdjust="spacing" textLength="159" x="1168.5" y="72.1074">JobApplicationRepository</text><rect fill="#E2E2F0" height="51.2422" rx="2.5" ry="2.5" style="stroke:#181818;stroke-width:0.5;" width="173" x="1161.5" y="923.4785"/><text fill="#000000" font-family="sans-serif" font-size="14" font-style="italic" lengthAdjust="spacing" textLength="79" x="1208.5" y="945.5859">&#171;repository&#187;</text><text fill="#000000" font-family="sans-serif" font-size="14" lengthAdjust="spacing" textLength="159" x="1168.5" y="964.207">JobApplicationRepository</text><rect fill="#E2E2F0" height="51.2422" rx="2.5" ry="2.5" style="stroke:#181818;stroke-width:0.5;" width="90" x="1344.5" y="31.3789"/><text fill="#000000" font-family="sans-serif" font-size="14" font-style="italic" lengthAdjust="spacing" textLength="62" x="1358.5" y="53.4863">&#171;domain&#187;</text><text fill="#000000" font-family="sans-serif" font-size="14" lengthAdjust="spacing" textLength="76" x="1351.5" y="72.1074">JobOpening</text><rect fill="#E2E2F0" height="51.2422" rx="2.5" ry="2.5" style="stroke:#181818;stroke-width:0.5;" width="90" x="1344.5" y="923.4785"/><text fill="#000000" font-family="sans-serif" font-size="14" font-style="italic" lengthAdjust="spacing" textLength="62" x="1358.5" y="945.5859">&#171;domain&#187;</text><text fill="#000000" font-family="sans-serif" font-size="14" lengthAdjust="spacing" textLength="76" x="1351.5" y="964.207">JobOpening</text><rect fill="#E2E2F0" height="51.2422" rx="2.5" ry="2.5" style="stroke:#181818;stroke-width:0.5;" width="105" x="1735" y="31.3789"/><text fill="#000000" font-family="sans-serif" font-size="14" font-style="italic" lengthAdjust="spacing" textLength="62" x="1756.5" y="53.4863">&#171;domain&#187;</text><text fill="#000000" font-family="sans-serif" font-size="14" lengthAdjust="spacing" textLength="91" x="1742" y="72.1074">JobApplication</text><rect fill="#E2E2F0" height="51.2422" rx="2.5" ry="2.5" style="stroke:#181818;stroke-width:0.5;" width="105" x="1735" y="923.4785"/><text fill="#000000" font-family="sans-serif" font-size="14" font-style="italic" lengthAdjust="spacing" textLength="62" x="1756.5" y="945.5859">&#171;domain&#187;</text><text fill="#000000" font-family="sans-serif" font-size="14" lengthAdjust="spacing" textLength="91" x="1742" y="964.207">JobApplication</text><rect fill="#E2E2F0" height="51.2422" rx="2.5" ry="2.5" style="stroke:#181818;stroke-width:0.5;" width="79" x="1859" y="31.3789"/><text fill="#000000" font-family="sans-serif" font-size="14" font-style="italic" lengthAdjust="spacing" textLength="62" x="1867.5" y="53.4863">&#171;domain&#187;</text><text fill="#000000" font-family="sans-serif" font-size="14" lengthAdjust="spacing" textLength="65" x="1866" y="72.1074">Candidate</text><rect fill="#E2E2F0" height="51.2422" rx="2.5" ry="2.5" style="stroke:#181818;stroke-width:0.5;" width="79" x="1859" y="923.4785"/><text fill="#000000" font-family="sans-serif" font-size="14" font-style="italic" lengthAdjust="spacing" textLength="62" x="1867.5" y="945.5859">&#171;domain&#187;</text><text fill="#000000" font-family="sans-serif" font-size="14" lengthAdjust="spacing" textLength="65" x="1866" y="964.207">Candidate</text><rect fill="#FFFFFF" height="821.8574" style="stroke:#181818;stroke-width:1.0;" width="10" x="76.5" y="93.6211"/><rect fill="#FFFFFF" height="780.2754" style="stroke:#181818;stroke-width:1.0;" width="10" x="353.5" y="134.2031"/><rect fill="#FFFFFF" height="93.873" style="stroke:#181818;stroke-width:1.0;" width="10" x="702.5" y="165.4941"/><rect fill="#FFFFFF" height="429.7832" style="stroke:#181818;stroke-width:1.0;" width="10" x="702.5" y="387.8223"/><rect fill="#FFFFFF" height="31.291" style="stroke:#181818;stroke-width:1.0;" width="10" x="1067.5" y="196.7852"/><rect fill="#FFFFFF" height="31.291" style="stroke:#181818;stroke-width:1.0;" width="10" x="1243" y="419.1133"/><rect fill="#FFFFFF" height="304.6191" style="stroke:#181818;stroke-width:1.0;" width="10" x="1384.5" y="481.6953"/><rect fill="#FFFFFF" height="93.873" style="stroke:#181818;stroke-width:1.0;" width="10" x="1782.5" y="654.1504"/><rect fill="#FFFFFF" height="31.291" style="stroke:#181818;stroke-width:1.0;" width="10" x="1893.5" y="685.4414"/><polygon fill="#181818" points="341.5,130.2031,351.5,134.2031,341.5,138.2031,345.5,134.2031" style="stroke:#181818;stroke-width:1.0;"/><line style="stroke:#181818;stroke-width:1.0;" x1="86.5" x2="347.5" y1="134.2031" y2="134.2031"/><text fill="#000000" font-family="sans-serif" font-size="13" font-weight="bold" lengthAdjust="spacing" textLength="7" x="93.5" y="120.2949">1</text><text fill="#000000" font-family="sans-serif" font-size="13" lengthAdjust="spacing" textLength="165" x="104.5" y="111.6494">asks to get an ordered list of</text><text fill="#000000" font-family="sans-serif" font-size="13" lengthAdjust="spacing" textLength="208" x="104.5" y="128.9404">candidates based in interview points</text><polygon fill="#181818" points="690.5,161.4941,700.5,165.4941,690.5,169.4941,694.5,165.4941" style="stroke:#181818;stroke-width:1.0;"/><line style="stroke:#181818;stroke-width:1.0;" x1="363.5" x2="696.5" y1="165.4941" y2="165.4941"/><text fill="#000000" font-family="sans-serif" font-size="13" font-weight="bold" lengthAdjust="spacing" textLength="7" x="370.5" y="160.2314">2</text><text fill="#000000" font-family="sans-serif" font-size="13" lengthAdjust="spacing" textLength="309" x="381.5" y="160.2314">jobOpeningsInAnalysisPhaseAndHadInterviewPhase()</text><polygon fill="#181818" points="1055.5,192.7852,1065.5,196.7852,1055.5,200.7852,1059.5,196.7852" style="stroke:#181818;stroke-width:1.0;"/><line style="stroke:#181818;stroke-width:1.0;" x1="712.5" x2="1061.5" y1="196.7852" y2="196.7852"/><text fill="#000000" font-family="sans-serif" font-size="13" font-weight="bold" lengthAdjust="spacing" textLength="7" x="719.5" y="191.5225">3</text><text fill="#000000" font-family="sans-serif" font-size="13" lengthAdjust="spacing" textLength="325" x="730.5" y="191.5225">findJobOpeningInAnalysisPhaseAndHadInterviewPhase()</text><polygon fill="#181818" points="723.5,224.0762,713.5,228.0762,723.5,232.0762,719.5,228.0762" style="stroke:#181818;stroke-width:1.0;"/><line style="stroke:#181818;stroke-width:1.0;stroke-dasharray:2.0,2.0;" x1="717.5" x2="1071.5" y1="228.0762" y2="228.0762"/><text fill="#000000" font-family="sans-serif" font-size="13" font-weight="bold" lengthAdjust="spacing" textLength="7" x="729.5" y="222.8135">4</text><text fill="#000000" font-family="sans-serif" font-size="13" lengthAdjust="spacing" textLength="72" x="740.5" y="222.8135">jobOpenings</text><polygon fill="#181818" points="374.5,255.3672,364.5,259.3672,374.5,263.3672,370.5,259.3672" style="stroke:#181818;stroke-width:1.0;"/><line style="stroke:#181818;stroke-width:1.0;stroke-dasharray:2.0,2.0;" x1="368.5" x2="706.5" y1="259.3672" y2="259.3672"/><text fill="#000000" font-family="sans-serif" font-size="13" font-weight="bold" lengthAdjust="spacing" textLength="7" x="380.5" y="254.1045">5</text><text fill="#000000" font-family="sans-serif" font-size="13" lengthAdjust="spacing" textLength="72" x="391.5" y="254.1045">jobOpenings</text><polygon fill="#181818" points="97.5,321.2402,87.5,325.2402,97.5,329.2402,93.5,325.2402" style="stroke:#181818;stroke-width:1.0;"/><line style="stroke:#181818;stroke-width:1.0;stroke-dasharray:2.0,2.0;" x1="91.5" x2="352.5" y1="325.2402" y2="325.2402"/><text fill="#000000" font-family="sans-serif" font-size="13" font-weight="bold" lengthAdjust="spacing" textLength="7" x="103.5" y="302.6865">6</text><text fill="#000000" font-family="sans-serif" font-size="13" lengthAdjust="spacing" textLength="163" x="114.5" y="285.3955">shows list of job openings in</text><text fill="#000000" font-family="sans-serif" font-size="13" lengthAdjust="spacing" textLength="155" x="114.5" y="302.6865">analysis phase and had an</text><text fill="#000000" font-family="sans-serif" font-size="13" lengthAdjust="spacing" textLength="199" x="114.5" y="319.9775">interview phase and asks to select</text><polygon fill="#181818" points="341.5,352.5313,351.5,356.5313,341.5,360.5313,345.5,356.5313" style="stroke:#181818;stroke-width:1.0;"/><line style="stroke:#181818;stroke-width:1.0;" x1="86.5" x2="347.5" y1="356.5313" y2="356.5313"/><text fill="#000000" font-family="sans-serif" font-size="13" font-weight="bold" lengthAdjust="spacing" textLength="7" x="93.5" y="351.2686">7</text><text fill="#000000" font-family="sans-serif" font-size="13" lengthAdjust="spacing" textLength="123" x="104.5" y="351.2686">selects a job opening</text><polygon fill="#181818" points="690.5,383.8223,700.5,387.8223,690.5,391.8223,694.5,387.8223" style="stroke:#181818;stroke-width:1.0;"/><line style="stroke:#181818;stroke-width:1.0;" x1="363.5" x2="696.5" y1="387.8223" y2="387.8223"/><text fill="#000000" font-family="sans-serif" font-size="13" font-weight="bold" lengthAdjust="spacing" textLength="7" x="370.5" y="382.5596">8</text><text fill="#000000" font-family="sans-serif" font-size="13" lengthAdjust="spacing" textLength="307" x="381.5" y="382.5596">orderCandidatesBasedOnInterviewPoints(jobOpening)</text><polygon fill="#181818" points="1231,415.1133,1241,419.1133,1231,423.1133,1235,419.1133" style="stroke:#181818;stroke-width:1.0;"/><line style="stroke:#181818;stroke-width:1.0;" x1="712.5" x2="1237" y1="419.1133" y2="419.1133"/><text fill="#000000" font-family="sans-serif" font-size="13" font-weight="bold" lengthAdjust="spacing" textLength="7" x="719.5" y="413.8506">9</text><text fill="#000000" font-family="sans-serif" font-size="13" lengthAdjust="spacing" textLength="271" x="730.5" y="413.8506">findJobApplicationsForJobOpening(jobOpening)</text><polygon fill="#181818" points="723.5,446.4043,713.5,450.4043,723.5,454.4043,719.5,450.4043" style="stroke:#181818;stroke-width:1.0;"/><line style="stroke:#181818;stroke-width:1.0;stroke-dasharray:2.0,2.0;" x1="717.5" x2="1247" y1="450.4043" y2="450.4043"/><text fill="#000000" font-family="sans-serif" font-size="13" font-weight="bold" lengthAdjust="spacing" textLength="14" x="729.5" y="445.1416">10</text><text fill="#000000" font-family="sans-serif" font-size="13" lengthAdjust="spacing" textLength="88" x="747.5" y="445.1416">jobApplications</text><polygon fill="#181818" points="1372.5,477.6953,1382.5,481.6953,1372.5,485.6953,1376.5,481.6953" style="stroke:#181818;stroke-width:1.0;"/><line style="stroke:#181818;stroke-width:1.0;" x1="712.5" x2="1378.5" y1="481.6953" y2="481.6953"/><text fill="#000000" font-family="sans-serif" font-size="13" font-weight="bold" lengthAdjust="spacing" textLength="14" x="719.5" y="476.4326">11</text><text fill="#000000" font-family="sans-serif" font-size="13" lengthAdjust="spacing" textLength="330" x="737.5" y="476.4326">orderCandidatesBasedOnInterviewPoints(jobApplications)</text><path d="M10,496.6953 L71,496.6953 L71,505.9863 L61,515.9863 L10,515.9863 L10,496.6953 " fill="#EEEEEE" style="stroke:#000000;stroke-width:1.5;"/><rect fill="none" height="410.7832" style="stroke:#000000;stroke-width:1.5;" width="1948" x="10" y="496.6953"/><text fill="#000000" font-family="sans-serif" font-size="13" font-weight="bold" lengthAdjust="spacing" textLength="16" x="25" y="511.7236">alt</text><text fill="#000000" font-family="sans-serif" font-size="11" font-weight="bold" lengthAdjust="spacing" textLength="322" x="86" y="510.5654">[job opening is in analysis phase and had interview phase]</text><line style="stroke:#181818;stroke-width:1.0;" x1="1394.5" x2="1436.5" y1="539.2773" y2="539.2773"/><line style="stroke:#181818;stroke-width:1.0;" x1="1436.5" x2="1436.5" y1="539.2773" y2="552.2773"/><line style="stroke:#181818;stroke-width:1.0;" x1="1395.5" x2="1436.5" y1="552.2773" y2="552.2773"/><polygon fill="#181818" points="1405.5,548.2773,1395.5,552.2773,1405.5,556.2773,1401.5,552.2773" style="stroke:#181818;stroke-width:1.0;"/><text fill="#000000" font-family="sans-serif" font-size="13" font-weight="bold" lengthAdjust="spacing" textLength="14" x="1401.5" y="534.0146">12</text><text fill="#000000" font-family="sans-serif" font-size="13" lengthAdjust="spacing" textLength="356" x="1419.5" y="534.0146">orderJobApplicationsBasedOnInterviewPoints(jobApplications)</text><line style="stroke:#181818;stroke-width:1.0;stroke-dasharray:2.0,2.0;" x1="1394.5" x2="1436.5" y1="583.5684" y2="583.5684"/><line style="stroke:#181818;stroke-width:1.0;stroke-dasharray:2.0,2.0;" x1="1436.5" x2="1436.5" y1="583.5684" y2="596.5684"/><line style="stroke:#181818;stroke-width:1.0;stroke-dasharray:2.0,2.0;" x1="1395.5" x2="1436.5" y1="596.5684" y2="596.5684"/><polygon fill="#181818" points="1405.5,592.5684,1395.5,596.5684,1405.5,600.5684,1401.5,596.5684" style="stroke:#181818;stroke-width:1.0;"/><text fill="#000000" font-family="sans-serif" font-size="13" font-weight="bold" lengthAdjust="spacing" textLength="14" x="1401.5" y="578.3057">13</text><text fill="#000000" font-family="sans-serif" font-size="13" lengthAdjust="spacing" textLength="114" x="1419.5" y="578.3057">orderedApplications</text><path d="M1334.5,611.5684 L1407.5,611.5684 L1407.5,620.8594 L1397.5,630.8594 L1334.5,630.8594 L1334.5,611.5684 " fill="#EEEEEE" style="stroke:#000000;stroke-width:1.5;"/><rect fill="none" height="144.4551" style="stroke:#000000;stroke-width:1.5;" width="613.5" x="1334.5" y="611.5684"/><text fill="#000000" font-family="sans-serif" font-size="13" font-weight="bold" lengthAdjust="spacing" textLength="28" x="1349.5" y="626.5967">loop</text><text fill="#000000" font-family="sans-serif" font-size="11" font-weight="bold" lengthAdjust="spacing" textLength="135" x="1422.5" y="625.4385">[for each job application]</text><polygon fill="#181818" points="1770.5,650.1504,1780.5,654.1504,1770.5,658.1504,1774.5,654.1504" style="stroke:#181818;stroke-width:1.0;"/><line style="stroke:#181818;stroke-width:1.0;" x1="1394.5" x2="1776.5" y1="654.1504" y2="654.1504"/><text fill="#000000" font-family="sans-serif" font-size="13" font-weight="bold" lengthAdjust="spacing" textLength="14" x="1401.5" y="648.8877">14</text><text fill="#000000" font-family="sans-serif" font-size="13" lengthAdjust="spacing" textLength="64" x="1419.5" y="648.8877">candidate()</text><polygon fill="#181818" points="1881.5,681.4414,1891.5,685.4414,1881.5,689.4414,1885.5,685.4414" style="stroke:#181818;stroke-width:1.0;"/><line style="stroke:#181818;stroke-width:1.0;" x1="1792.5" x2="1887.5" y1="685.4414" y2="685.4414"/><text fill="#000000" font-family="sans-serif" font-size="13" font-weight="bold" lengthAdjust="spacing" textLength="14" x="1799.5" y="680.1787">15</text><text fill="#000000" font-family="sans-serif" font-size="13" lengthAdjust="spacing" textLength="64" x="1817.5" y="680.1787">candidate()</text><polygon fill="#181818" points="1803.5,712.7324,1793.5,716.7324,1803.5,720.7324,1799.5,716.7324" style="stroke:#181818;stroke-width:1.0;"/><line style="stroke:#181818;stroke-width:1.0;stroke-dasharray:2.0,2.0;" x1="1797.5" x2="1897.5" y1="716.7324" y2="716.7324"/><text fill="#000000" font-family="sans-serif" font-size="13" font-weight="bold" lengthAdjust="spacing" textLength="14" x="1809.5" y="711.4697">16</text><text fill="#000000" font-family="sans-serif" font-size="13" lengthAdjust="spacing" textLength="56" x="1827.5" y="711.4697">candidate</text><polygon fill="#181818" points="1405.5,744.0234,1395.5,748.0234,1405.5,752.0234,1401.5,748.0234" style="stroke:#181818;stroke-width:1.0;"/><line style="stroke:#181818;stroke-width:1.0;stroke-dasharray:2.0,2.0;" x1="1399.5" x2="1786.5" y1="748.0234" y2="748.0234"/><text fill="#000000" font-family="sans-serif" font-size="13" font-weight="bold" lengthAdjust="spacing" textLength="14" x="1411.5" y="742.7607">17</text><text fill="#000000" font-family="sans-serif" font-size="13" lengthAdjust="spacing" textLength="56" x="1429.5" y="742.7607">candidate</text><polygon fill="#181818" points="723.5,782.3145,713.5,786.3145,723.5,790.3145,719.5,786.3145" style="stroke:#181818;stroke-width:1.0;"/><line style="stroke:#181818;stroke-width:1.0;stroke-dasharray:2.0,2.0;" x1="717.5" x2="1388.5" y1="786.3145" y2="786.3145"/><text fill="#000000" font-family="sans-serif" font-size="13" font-weight="bold" lengthAdjust="spacing" textLength="14" x="729.5" y="781.0518">18</text><text fill="#000000" font-family="sans-serif" font-size="13" lengthAdjust="spacing" textLength="108" x="747.5" y="781.0518">orderedCandidates</text><polygon fill="#181818" points="374.5,813.6055,364.5,817.6055,374.5,821.6055,370.5,817.6055" style="stroke:#181818;stroke-width:1.0;"/><line style="stroke:#181818;stroke-width:1.0;stroke-dasharray:2.0,2.0;" x1="368.5" x2="706.5" y1="817.6055" y2="817.6055"/><text fill="#000000" font-family="sans-serif" font-size="13" font-weight="bold" lengthAdjust="spacing" textLength="14" x="380.5" y="812.3428">19</text><text fill="#000000" font-family="sans-serif" font-size="13" lengthAdjust="spacing" textLength="108" x="398.5" y="812.3428">orderedCandidates</text><polygon fill="#181818" points="97.5,862.1875,87.5,866.1875,97.5,870.1875,93.5,866.1875" style="stroke:#181818;stroke-width:1.0;"/><line style="stroke:#181818;stroke-width:1.0;stroke-dasharray:2.0,2.0;" x1="91.5" x2="352.5" y1="866.1875" y2="866.1875"/><text fill="#000000" font-family="sans-serif" font-size="13" font-weight="bold" lengthAdjust="spacing" textLength="14" x="103.5" y="852.2793">20</text><text fill="#000000" font-family="sans-serif" font-size="13" lengthAdjust="spacing" textLength="225" x="121.5" y="843.6338">shows ordered list of candidates based</text><text fill="#000000" font-family="sans-serif" font-size="13" lengthAdjust="spacing" textLength="217" x="121.5" y="860.9248">in interview points and backs to menu</text><line style="stroke:#000000;stroke-width:1.0;stroke-dasharray:2.0,2.0;" x1="10" x2="1958" y1="875.1875" y2="875.1875"/><polygon fill="#181818" points="97.5,895.4785,87.5,899.4785,97.5,903.4785,93.5,899.4785" style="stroke:#181818;stroke-width:1.0;"/><line style="stroke:#181818;stroke-width:1.0;stroke-dasharray:2.0,2.0;" x1="91.5" x2="352.5" y1="899.4785" y2="899.4785"/><text fill="#000000" font-family="sans-serif" font-size="13" font-weight="bold" lengthAdjust="spacing" textLength="14" x="103.5" y="894.2158">21</text><text fill="#000000" font-family="sans-serif" font-size="13" lengthAdjust="spacing" textLength="115" x="121.5" y="894.2158">shows an exception</text><!--SRC=[jLR1ZjCm4BtdA-P6EPJUerMbKWae0XKXSUl5ZQUD8R6DxUooVyyaRMFZEY4jInMfYJsUzpppPknNfNFQvek5hfXqJLszALIziFYpGLdWd0jsDApECjOu9PjwZuRU2wSCh1lhL8tcCvFiICEQ6ISAeSaDl4UtDHmDya_2kkrXpIGNd3cqtpRmyA0DMfIEEQ7aSZbnvLf9PrHLeI4FJEjA52a77zL-gr4AUVoAMbb1L9zfWUa_hkrNtjdaDMSCikAgPaAEUXsowZSN6hJX5O_jO1pXw1lco_50vy3i3mjEmH4TC0dgP0eLsO8wx6JHcyEUMPeHaXw7vb7W4sX5xzRp6GFBHfcCCWqIcyFtFhHs8rUILSzMs2ybaLj9_e7npOLTDpPxFOMT1yWciI2sIHNbS12I-waR2QPyPacW-LtnoZYEOqtR_DzLDO3vZmbePKBOiSXpiALwiXVDjk2WpkYjN7UIdPC0kequwPn3oJZzxsIWvNxkKXCMAopS7KLrMcY1XLnUIlzTYVgvjsrLRgKNLLUICv-1_rW0wRRO5q4mRTyfunMNPZVaC1j4kgqAGZfH9QHnRsy5jwGdf9Fi0HchN2WW49sS1yGS2Jbe6scAKNwcyWpT9lqY_oFEbL8Q3dGPe7YNtMw2W_cQP7Wavj0VFhD1cKJYQDtuCtF0Gs-GUTFvA7ue5xywXexZaLmUqKTANnkZEB2tD0FaVZRTub-iiO_YJMelz9jIU_SV0z4L1k8RJDlphwumNHdjMN5g_3NA9iEAgkXk5dINmby5wZx9LCpJOaKtfTy0]--></g></svg>