<?xml version="1.0" encoding="us-ascii" standalone="no"?><svg xmlns="http://www.w3.org/2000/svg" xmlns:xlink="http://www.w3.org/1999/xlink" contentStyleType="text/css" height="897px" preserveAspectRatio="none" style="width:538px;height:897px;background:#FFFFFF;" version="1.1" viewBox="0 0 538 897" width="538px" zoomAndPan="magnify"><defs/><g><!--class ListCandidateUI--><g id="elem_ListCandidateUI"><rect codeLine="2" fill="#F1F1F1" height="103.8633" id="ListCandidateUI" rx="2.5" ry="2.5" style="stroke:#181818;stroke-width:0.5;" width="238" x="150" y="7"/><ellipse cx="215.25" cy="23" fill="#ADD1B2" rx="11" ry="11" style="stroke:#181818;stroke-width:1.0;"/><path d="M218.0156,18.875 Q218.1719,18.6563 218.3594,18.5469 Q218.5469,18.4375 218.7656,18.4375 Q219.1406,18.4375 219.375,18.7031 Q219.6094,18.9531 219.6094,19.5625 L219.6094,21.0156 Q219.6094,21.625 219.375,21.8906 Q219.1406,22.1563 218.7656,22.1563 Q218.4219,22.1563 218.2188,21.9531 Q218.0156,21.7656 217.9063,21.25 Q217.8594,20.8906 217.6719,20.7031 Q217.3438,20.3281 216.7344,20.1094 Q216.125,19.8906 215.5,19.8906 Q214.7344,19.8906 214.0938,20.2188 Q213.4688,20.5469 212.9688,21.2969 Q212.4844,22.0469 212.4844,23.0781 L212.4844,24.1719 Q212.4844,25.4063 213.375,26.2344 Q214.2656,27.0469 215.8594,27.0469 Q216.7969,27.0469 217.4531,26.7969 Q217.8438,26.6406 218.2656,26.2031 Q218.5313,25.9375 218.6719,25.8594 Q218.8281,25.7813 219.0313,25.7813 Q219.3594,25.7813 219.6094,26.0469 Q219.875,26.2969 219.875,26.6406 Q219.875,26.9844 219.5313,27.3906 Q219.0313,27.9688 218.2344,28.2969 Q217.1563,28.75 215.8594,28.75 Q214.3438,28.75 213.1406,28.125 Q212.1563,27.625 211.4688,26.5625 Q210.7813,25.4844 210.7813,24.2031 L210.7813,23.0469 Q210.7813,21.7188 211.3906,20.5781 Q212.0156,19.4219 213.1094,18.8125 Q214.2031,18.1875 215.4375,18.1875 Q216.1719,18.1875 216.8125,18.3594 Q217.4688,18.5156 218.0156,18.875 Z " fill="#000000"/><text fill="#000000" font-family="sans-serif" font-size="14" lengthAdjust="spacing" textLength="99" x="235.75" y="28.7969">ListCandidateUI</text><line style="stroke:#181818;stroke-width:0.5;" x1="151" x2="387" y1="39" y2="39"/><rect fill="none" height="6" style="stroke:#C82930;stroke-width:1.0;" width="6" x="158" y="50.8105"/><text fill="#000000" font-family="sans-serif" font-size="14" lengthAdjust="spacing" textLength="212" x="170" y="58.1074">ListCandidateController controller</text><line style="stroke:#181818;stroke-width:0.5;" x1="151" x2="387" y1="65.6211" y2="65.6211"/><ellipse cx="161" cy="80.4316" fill="#84BE84" rx="3" ry="3" style="stroke:#038048;stroke-width:1.0;"/><text fill="#000000" font-family="sans-serif" font-size="14" lengthAdjust="spacing" textLength="119" x="170" y="84.7285">doShow(): boolean</text><ellipse cx="161" cy="99.0527" fill="#84BE84" rx="3" ry="3" style="stroke:#038048;stroke-width:1.0;"/><text fill="#000000" font-family="sans-serif" font-size="14" lengthAdjust="spacing" textLength="109" x="170" y="103.3496">headline(): String</text></g><!--class ListCandidateController--><g id="elem_ListCandidateController"><rect codeLine="8" fill="#F1F1F1" height="103.8633" id="ListCandidateController" rx="2.5" ry="2.5" style="stroke:#181818;stroke-width:0.5;" width="452" x="43" y="252"/><ellipse cx="190.25" cy="268" fill="#ADD1B2" rx="11" ry="11" style="stroke:#181818;stroke-width:1.0;"/><path d="M193.0156,263.875 Q193.1719,263.6563 193.3594,263.5469 Q193.5469,263.4375 193.7656,263.4375 Q194.1406,263.4375 194.375,263.7031 Q194.6094,263.9531 194.6094,264.5625 L194.6094,266.0156 Q194.6094,266.625 194.375,266.8906 Q194.1406,267.1563 193.7656,267.1563 Q193.4219,267.1563 193.2188,266.9531 Q193.0156,266.7656 192.9063,266.25 Q192.8594,265.8906 192.6719,265.7031 Q192.3438,265.3281 191.7344,265.1094 Q191.125,264.8906 190.5,264.8906 Q189.7344,264.8906 189.0938,265.2188 Q188.4688,265.5469 187.9688,266.2969 Q187.4844,267.0469 187.4844,268.0781 L187.4844,269.1719 Q187.4844,270.4063 188.375,271.2344 Q189.2656,272.0469 190.8594,272.0469 Q191.7969,272.0469 192.4531,271.7969 Q192.8438,271.6406 193.2656,271.2031 Q193.5313,270.9375 193.6719,270.8594 Q193.8281,270.7813 194.0313,270.7813 Q194.3594,270.7813 194.6094,271.0469 Q194.875,271.2969 194.875,271.6406 Q194.875,271.9844 194.5313,272.3906 Q194.0313,272.9688 193.2344,273.2969 Q192.1563,273.75 190.8594,273.75 Q189.3438,273.75 188.1406,273.125 Q187.1563,272.625 186.4688,271.5625 Q185.7813,270.4844 185.7813,269.2031 L185.7813,268.0469 Q185.7813,266.7188 186.3906,265.5781 Q187.0156,264.4219 188.1094,263.8125 Q189.2031,263.1875 190.4375,263.1875 Q191.1719,263.1875 191.8125,263.3594 Q192.4688,263.5156 193.0156,263.875 Z " fill="#000000"/><text fill="#000000" font-family="sans-serif" font-size="14" lengthAdjust="spacing" textLength="149" x="210.75" y="273.7969">ListCandidateController</text><line style="stroke:#181818;stroke-width:0.5;" x1="44" x2="494" y1="284" y2="284"/><rect fill="none" height="6" style="stroke:#C82930;stroke-width:1.0;" width="6" x="51" y="295.8105"/><text fill="#000000" font-family="sans-serif" font-size="14" lengthAdjust="spacing" textLength="267" x="63" y="303.1074">CandidateRepository candidateRepository</text><line style="stroke:#181818;stroke-width:0.5;" x1="44" x2="494" y1="310.6211" y2="310.6211"/><ellipse cx="54" cy="325.4316" fill="#84BE84" rx="3" ry="3" style="stroke:#038048;stroke-width:1.0;"/><text fill="#000000" font-family="sans-serif" font-size="14" lengthAdjust="spacing" textLength="426" x="63" y="329.7285">ListCandidateController(CandidateRepository candidateRepository)</text><ellipse cx="54" cy="344.0527" fill="#84BE84" rx="3" ry="3" style="stroke:#038048;stroke-width:1.0;"/><text fill="#000000" font-family="sans-serif" font-size="14" lengthAdjust="spacing" textLength="210" x="63" y="348.3496">listCandidates(): List&lt;Candidate&gt;</text></g><!--class Candidate--><g id="elem_Candidate"><rect codeLine="14" fill="#F1F1F1" height="290.0742" id="Candidate" rx="2.5" ry="2.5" style="stroke:#181818;stroke-width:0.5;" width="524" x="7" y="600"/><ellipse cx="232.25" cy="616" fill="#ADD1B2" rx="11" ry="11" style="stroke:#181818;stroke-width:1.0;"/><path d="M235.0156,611.875 Q235.1719,611.6563 235.3594,611.5469 Q235.5469,611.4375 235.7656,611.4375 Q236.1406,611.4375 236.375,611.7031 Q236.6094,611.9531 236.6094,612.5625 L236.6094,614.0156 Q236.6094,614.625 236.375,614.8906 Q236.1406,615.1563 235.7656,615.1563 Q235.4219,615.1563 235.2188,614.9531 Q235.0156,614.7656 234.9063,614.25 Q234.8594,613.8906 234.6719,613.7031 Q234.3438,613.3281 233.7344,613.1094 Q233.125,612.8906 232.5,612.8906 Q231.7344,612.8906 231.0938,613.2188 Q230.4688,613.5469 229.9688,614.2969 Q229.4844,615.0469 229.4844,616.0781 L229.4844,617.1719 Q229.4844,618.4063 230.375,619.2344 Q231.2656,620.0469 232.8594,620.0469 Q233.7969,620.0469 234.4531,619.7969 Q234.8438,619.6406 235.2656,619.2031 Q235.5313,618.9375 235.6719,618.8594 Q235.8281,618.7813 236.0313,618.7813 Q236.3594,618.7813 236.6094,619.0469 Q236.875,619.2969 236.875,619.6406 Q236.875,619.9844 236.5313,620.3906 Q236.0313,620.9688 235.2344,621.2969 Q234.1563,621.75 232.8594,621.75 Q231.3438,621.75 230.1406,621.125 Q229.1563,620.625 228.4688,619.5625 Q227.7813,618.4844 227.7813,617.2031 L227.7813,616.0469 Q227.7813,614.7188 228.3906,613.5781 Q229.0156,612.4219 230.1094,611.8125 Q231.2031,611.1875 232.4375,611.1875 Q233.1719,611.1875 233.8125,611.3594 Q234.4688,611.5156 235.0156,611.875 Z " fill="#000000"/><text fill="#000000" font-family="sans-serif" font-size="14" lengthAdjust="spacing" textLength="65" x="252.75" y="621.7969">Candidate</text><line style="stroke:#181818;stroke-width:0.5;" x1="8" x2="530" y1="632" y2="632"/><rect fill="none" height="6" style="stroke:#C82930;stroke-width:1.0;" width="6" x="15" y="643.8105"/><text fill="#000000" font-family="sans-serif" font-size="14" lengthAdjust="spacing" textLength="123" x="27" y="651.1074">EmailAddress email</text><rect fill="none" height="6" style="stroke:#C82930;stroke-width:1.0;" width="6" x="15" y="662.4316"/><text fill="#000000" font-family="sans-serif" font-size="14" lengthAdjust="spacing" textLength="183" x="27" y="669.7285">PhoneNumber phoneNumber</text><rect fill="none" height="6" style="stroke:#C82930;stroke-width:1.0;" width="6" x="15" y="681.0527"/><text fill="#000000" font-family="sans-serif" font-size="14" lengthAdjust="spacing" textLength="75" x="27" y="688.3496">Name name</text><line style="stroke:#181818;stroke-width:0.5;" x1="8" x2="530" y1="695.8633" y2="695.8633"/><ellipse cx="18" cy="710.6738" fill="#84BE84" rx="3" ry="3" style="stroke:#038048;stroke-width:1.0;"/><text fill="#000000" font-family="sans-serif" font-size="14" lengthAdjust="spacing" textLength="498" x="27" y="714.9707">Candidate(String firstname, String surname, String email, String phoneNumber)</text><ellipse cx="18" cy="729.2949" fill="#84BE84" rx="3" ry="3" style="stroke:#038048;stroke-width:1.0;"/><text fill="#000000" font-family="sans-serif" font-size="14" lengthAdjust="spacing" textLength="206" x="27" y="733.5918">Candidate(Candidate candidate)</text><ellipse cx="18" cy="747.916" fill="#84BE84" rx="3" ry="3" style="stroke:#038048;stroke-width:1.0;"/><text fill="#000000" font-family="sans-serif" font-size="14" lengthAdjust="spacing" textLength="189" x="27" y="752.2129">emailAddress(): EmailAddress</text><ellipse cx="18" cy="766.5371" fill="#84BE84" rx="3" ry="3" style="stroke:#038048;stroke-width:1.0;"/><text fill="#000000" font-family="sans-serif" font-size="14" lengthAdjust="spacing" textLength="89" x="27" y="770.834">name(): Name</text><ellipse cx="18" cy="785.1582" fill="#84BE84" rx="3" ry="3" style="stroke:#038048;stroke-width:1.0;"/><text fill="#000000" font-family="sans-serif" font-size="14" lengthAdjust="spacing" textLength="127" x="27" y="789.4551">nameString(): String</text><ellipse cx="18" cy="803.7793" fill="#84BE84" rx="3" ry="3" style="stroke:#038048;stroke-width:1.0;"/><text fill="#000000" font-family="sans-serif" font-size="14" lengthAdjust="spacing" textLength="197" x="27" y="808.0762">phoneNumber(): PhoneNumber</text><ellipse cx="18" cy="822.4004" fill="#84BE84" rx="3" ry="3" style="stroke:#038048;stroke-width:1.0;"/><text fill="#000000" font-family="sans-serif" font-size="14" lengthAdjust="spacing" textLength="164" x="27" y="826.6973">equals(Object o): boolean</text><ellipse cx="18" cy="841.0215" fill="#84BE84" rx="3" ry="3" style="stroke:#038048;stroke-width:1.0;"/><text fill="#000000" font-family="sans-serif" font-size="14" lengthAdjust="spacing" textLength="98" x="27" y="845.3184">hashCode(): int</text><ellipse cx="18" cy="859.6426" fill="#84BE84" rx="3" ry="3" style="stroke:#038048;stroke-width:1.0;"/><text fill="#000000" font-family="sans-serif" font-size="14" lengthAdjust="spacing" textLength="197" x="27" y="863.9395">sameAs(Object other): boolean</text><ellipse cx="18" cy="878.2637" fill="#84BE84" rx="3" ry="3" style="stroke:#038048;stroke-width:1.0;"/><text fill="#000000" font-family="sans-serif" font-size="14" lengthAdjust="spacing" textLength="149" x="27" y="882.5605">identity(): EmailAddress</text></g><!--class CandidateRepository--><g id="elem_CandidateRepository"><rect codeLine="30" fill="#F1F1F1" height="122.4844" id="CandidateRepository" rx="2.5" ry="2.5" style="stroke:#181818;stroke-width:0.5;" width="385" x="76.5" y="417"/><ellipse cx="198.25" cy="433" fill="#ADD1B2" rx="11" ry="11" style="stroke:#181818;stroke-width:1.0;"/><path d="M201.0156,428.875 Q201.1719,428.6563 201.3594,428.5469 Q201.5469,428.4375 201.7656,428.4375 Q202.1406,428.4375 202.375,428.7031 Q202.6094,428.9531 202.6094,429.5625 L202.6094,431.0156 Q202.6094,431.625 202.375,431.8906 Q202.1406,432.1563 201.7656,432.1563 Q201.4219,432.1563 201.2188,431.9531 Q201.0156,431.7656 200.9063,431.25 Q200.8594,430.8906 200.6719,430.7031 Q200.3438,430.3281 199.7344,430.1094 Q199.125,429.8906 198.5,429.8906 Q197.7344,429.8906 197.0938,430.2188 Q196.4688,430.5469 195.9688,431.2969 Q195.4844,432.0469 195.4844,433.0781 L195.4844,434.1719 Q195.4844,435.4063 196.375,436.2344 Q197.2656,437.0469 198.8594,437.0469 Q199.7969,437.0469 200.4531,436.7969 Q200.8438,436.6406 201.2656,436.2031 Q201.5313,435.9375 201.6719,435.8594 Q201.8281,435.7813 202.0313,435.7813 Q202.3594,435.7813 202.6094,436.0469 Q202.875,436.2969 202.875,436.6406 Q202.875,436.9844 202.5313,437.3906 Q202.0313,437.9688 201.2344,438.2969 Q200.1563,438.75 198.8594,438.75 Q197.3438,438.75 196.1406,438.125 Q195.1563,437.625 194.4688,436.5625 Q193.7813,435.4844 193.7813,434.2031 L193.7813,433.0469 Q193.7813,431.7188 194.3906,430.5781 Q195.0156,429.4219 196.1094,428.8125 Q197.2031,428.1875 198.4375,428.1875 Q199.1719,428.1875 199.8125,428.3594 Q200.4688,428.5156 201.0156,428.875 Z " fill="#000000"/><text fill="#000000" font-family="sans-serif" font-size="14" lengthAdjust="spacing" textLength="133" x="218.75" y="438.7969">CandidateRepository</text><line style="stroke:#181818;stroke-width:0.5;" x1="77.5" x2="460.5" y1="449" y2="449"/><line style="stroke:#181818;stroke-width:0.5;" x1="77.5" x2="460.5" y1="457" y2="457"/><ellipse cx="87.5" cy="471.8105" fill="#84BE84" rx="3" ry="3" style="stroke:#038048;stroke-width:1.0;"/><text fill="#000000" font-family="sans-serif" font-size="14" lengthAdjust="spacing" textLength="143" x="96.5" y="476.1074">CandidateRepository()</text><ellipse cx="87.5" cy="490.4316" fill="#84BE84" rx="3" ry="3" style="stroke:#038048;stroke-width:1.0;"/><text fill="#000000" font-family="sans-serif" font-size="14" lengthAdjust="spacing" textLength="244" x="96.5" y="494.7285">save(Candidate candidate): Candidate</text><ellipse cx="87.5" cy="509.0527" fill="#84BE84" rx="3" ry="3" style="stroke:#038048;stroke-width:1.0;"/><text fill="#000000" font-family="sans-serif" font-size="14" lengthAdjust="spacing" textLength="348" x="96.5" y="513.3496">findByEmail(EmailAddress email): Optional&lt;Candidate&gt;</text><ellipse cx="87.5" cy="527.6738" fill="#84BE84" rx="3" ry="3" style="stroke:#038048;stroke-width:1.0;"/><text fill="#000000" font-family="sans-serif" font-size="14" lengthAdjust="spacing" textLength="359" x="96.5" y="531.9707">findByIdentity(EmailAddress email): Optional&lt;Candidate&gt;</text></g><!--link CandidateRepository to Candidate--><g id="link_CandidateRepository_Candidate"><path codeLine="37" d="M269,539.13 C269,557.46 269,572.45 269,593.84 " fill="none" id="CandidateRepository-to-Candidate" style="stroke:#181818;stroke-width:1.0;"/><polygon fill="#181818" points="269,599.84,273,590.84,269,594.84,265,590.84,269,599.84" style="stroke:#181818;stroke-width:1.0;"/><text fill="#000000" font-family="sans-serif" font-size="13" lengthAdjust="spacing" textLength="7" x="261.5734" y="561.6327">1</text><text fill="#000000" font-family="sans-serif" font-size="13" lengthAdjust="spacing" textLength="5" x="263.8711" y="588.9508">*</text></g><!--link ListCandidateController to CandidateRepository--><g id="link_ListCandidateController_CandidateRepository"><path codeLine="38" d="M269,368.14 C269,387.25 269,391.13 269,410.97 " fill="none" id="ListCandidateController-CandidateRepository" style="stroke:#181818;stroke-width:1.0;"/><polygon fill="none" points="269,356.14,265,362.14,269,368.14,273,362.14,269,356.14" style="stroke:#181818;stroke-width:1.0;"/><polygon fill="#181818" points="269,416.97,273,407.97,269,411.97,265,407.97,269,416.97" style="stroke:#181818;stroke-width:1.0;"/><text fill="#000000" font-family="sans-serif" font-size="13" lengthAdjust="spacing" textLength="7" x="261.5516" y="377.9652">1</text><text fill="#000000" font-family="sans-serif" font-size="13" lengthAdjust="spacing" textLength="7" x="261.5953" y="405.9477">1</text></g><!--link ListCandidateUI to ListCandidateController--><g id="link_ListCandidateUI_ListCandidateController"><path codeLine="39" d="M269,123.24 C269,164.59 269,204.5 269,245.83 " fill="none" id="ListCandidateUI-ListCandidateController" style="stroke:#181818;stroke-width:1.0;"/><polygon fill="none" points="269,111.24,265,117.24,269,123.24,273,117.24,269,111.24" style="stroke:#181818;stroke-width:1.0;"/><polygon fill="#181818" points="269,251.83,273,242.83,269,246.83,265,242.83,269,251.83" style="stroke:#181818;stroke-width:1.0;"/><text fill="#000000" font-family="sans-serif" font-size="13" lengthAdjust="spacing" textLength="7" x="261.5516" y="133.078">1</text><text fill="#000000" font-family="sans-serif" font-size="13" lengthAdjust="spacing" textLength="7" x="261.5297" y="240.7345">1</text></g><!--link ListCandidateUI to ListCandidateController--><g id="link_ListCandidateUI_ListCandidateController"><path codeLine="40" d="M285.16,111.44 C287.59,121.16 289.71,131.32 291,141 C295.76,176.68 295.76,186.32 291,222 C289.71,231.68 289.0452,236.0191 286.6152,245.7391 " fill="none" id="ListCandidateUI-to-ListCandidateController" style="stroke:#181818;stroke-width:1.0;stroke-dasharray:7.0,7.0;"/><polygon fill="#181818" points="285.16,251.56,291.2234,243.7989,286.3727,246.7093,283.4623,241.8586,285.16,251.56" style="stroke:#181818;stroke-width:1.0;"/><text fill="#000000" font-family="sans-serif" font-size="13" lengthAdjust="spacing" textLength="36" x="295" y="187.0283">create</text></g><!--SRC=[ZLFHQi8m57tlLuG-jNCLV9KXkB87OQXCzW6nkQuPCN59t13Plo-tTMbYBTY7afnxxpddtYILeCQGLsviIINZZ5fuNv1pGaWHWQMILYiXG9FABrtMYAbDhNwoV4gsIWcW4i4QA1DS0i8RgxdyI7wJfEfh1RIDfW-ymK4PRfK-aQgFeSO0JtOdHOuS8kGmw1PPdpmqwsnxh3NwigTSp1dJu6A06qJNjPAmFEwthfz3jyRGakw1IFT3NK-MjTCXEwwDnUZZPLx477MqRpJyBY3FOyBEfs-woO30C3OQDe1n54DyUR68-rOiE4I71yeOM4TTZk3hI8N9LjjFg2nHLxU2chfKh97XqY9adCgyoxUrwoUguGoavVRKizm_cE2ypz5Cka2MjwBVj-SqxSWmRySbUpurgbd_l5tswc2vabI45yRNBVwTtrtgMhhLJ3f9IL7CIFgG1lw6dX5cgoPzajwQJNBzrgE20TPUKJ4UpmPVyfIabGQ7fOdx_W00]--></g></svg>