<?xml version="1.0" encoding="UTF-8" standalone="no"?><svg xmlns="http://www.w3.org/2000/svg" xmlns:xlink="http://www.w3.org/1999/xlink" contentStyleType="text/css" height="1702px" preserveAspectRatio="none" style="width:3419px;height:1702px;background:#FFFFFF;" version="1.1" viewBox="0 0 3419 1702" width="3419px" zoomAndPan="magnify"><defs/><g><rect fill="#FFFFFF" height="1494.4688" style="stroke:#181818;stroke-width:1.0;" width="10" x="84.5" y="100.1563"/><rect fill="#FFFFFF" height="195.7813" style="stroke:#181818;stroke-width:1.0;" width="10" x="536.5" y="131.3125"/><rect fill="#FFFFFF" height="1237.375" style="stroke:#181818;stroke-width:1.0;" width="10" x="536.5" y="366.25"/><rect fill="#FFFFFF" height="117.4688" style="stroke:#181818;stroke-width:1.0;" width="10" x="908.5" y="170.4688"/><rect fill="#FFFFFF" height="1150.0625" style="stroke:#181818;stroke-width:1.0;" width="10" x="908.5" y="405.4063"/><rect fill="#FFFFFF" height="39.1563" style="stroke:#181818;stroke-width:1.0;" width="10" x="1158.5" y="209.625"/><rect fill="#FFFFFF" height="1071.75" style="stroke:#181818;stroke-width:1.0;" width="10" x="1377" y="444.5625"/><rect fill="#FFFFFF" height="30" style="stroke:#181818;stroke-width:1.0;" width="10" x="1550.5" y="533.875"/><rect fill="#FFFFFF" height="874.125" style="stroke:#181818;stroke-width:1.0;" width="10" x="1550.5" y="603.0313"/><rect fill="#FFFFFF" height="28" style="stroke:#181818;stroke-width:1.0;" width="10" x="1555.5" y="1324.6875"/><rect fill="#FFFFFF" height="635.3438" style="stroke:#181818;stroke-width:1.0;" width="10" x="1740.5" y="642.1875"/><rect fill="#FFFFFF" height="39.1563" style="stroke:#181818;stroke-width:1.0;" width="10" x="1740.5" y="1398.8438"/><rect fill="#FFFFFF" height="141.4688" style="stroke:#181818;stroke-width:1.0;" width="10" x="1950.5" y="681.3438"/><rect fill="#FFFFFF" height="44.1563" style="stroke:#181818;stroke-width:1.0;" width="10" x="1955.5" y="728.5"/><rect fill="#FFFFFF" height="376.4063" style="stroke:#181818;stroke-width:1.0;" width="10" x="2173" y="861.9688"/><rect fill="#FFFFFF" height="39.1563" style="stroke:#181818;stroke-width:1.0;" width="10" x="2728" y="901.125"/><rect fill="#FFFFFF" height="219.7813" style="stroke:#181818;stroke-width:1.0;" width="10" x="2925.5" y="979.4375"/><rect fill="#FFFFFF" height="91.3125" style="stroke:#181818;stroke-width:1.0;" width="10" x="3247" y="1068.75"/><line style="stroke:#181818;stroke-width:0.5;stroke-dasharray:5.0,5.0;" x1="89" x2="89" y1="90.1563" y2="1612.625"/><line style="stroke:#181818;stroke-width:0.5;stroke-dasharray:5.0,5.0;" x1="541.5" x2="541.5" y1="90.1563" y2="1612.625"/><line style="stroke:#181818;stroke-width:0.5;stroke-dasharray:5.0,5.0;" x1="710.5" x2="710.5" y1="90.1563" y2="1612.625"/><line style="stroke:#181818;stroke-width:0.5;stroke-dasharray:5.0,5.0;" x1="913.5" x2="913.5" y1="90.1563" y2="1612.625"/><line style="stroke:#181818;stroke-width:0.5;stroke-dasharray:5.0,5.0;" x1="1163.5" x2="1163.5" y1="90.1563" y2="1612.625"/><line style="stroke:#181818;stroke-width:0.5;stroke-dasharray:5.0,5.0;" x1="1381.5" x2="1381.5" y1="90.1563" y2="1612.625"/><line style="stroke:#181818;stroke-width:0.5;stroke-dasharray:5.0,5.0;" x1="1555.5" x2="1555.5" y1="487.6406" y2="1612.625"/><line style="stroke:#181818;stroke-width:0.5;stroke-dasharray:5.0,5.0;" x1="1745" x2="1745" y1="90.1563" y2="1612.625"/><line style="stroke:#181818;stroke-width:0.5;stroke-dasharray:5.0,5.0;" x1="1955" x2="1955" y1="90.1563" y2="1612.625"/><line style="stroke:#181818;stroke-width:0.5;stroke-dasharray:5.0,5.0;" x1="2178" x2="2178" y1="776.5781" y2="1612.625"/><line style="stroke:#181818;stroke-width:0.5;stroke-dasharray:5.0,5.0;" x1="2733" x2="2733" y1="90.1563" y2="1612.625"/><line style="stroke:#181818;stroke-width:0.5;stroke-dasharray:5.0,5.0;" x1="2930" x2="2930" y1="90.1563" y2="1612.625"/><line style="stroke:#181818;stroke-width:0.5;stroke-dasharray:5.0,5.0;" x1="3084.5" x2="3084.5" y1="1022.5156" y2="1612.625"/><line style="stroke:#181818;stroke-width:0.5;stroke-dasharray:5.0,5.0;" x1="3251.5" x2="3251.5" y1="90.1563" y2="1612.625"/><text fill="#000000" font-family="sans-serif" font-size="20" lengthAdjust="spacing" textLength="163" x="5" y="85.7617">CustomerManager</text><ellipse cx="89.5" cy="13.5" fill="#E2E2F0" rx="8" ry="8" style="stroke:#181818;stroke-width:0.5;"/><path d="M89.5,21.5 L89.5,48.5 M76.5,29.5 L102.5,29.5 M89.5,48.5 L76.5,63.5 M89.5,48.5 L102.5,63.5 " fill="none" style="stroke:#181818;stroke-width:0.5;"/><text fill="#000000" font-family="sans-serif" font-size="20" lengthAdjust="spacing" textLength="163" x="5" y="1632.3867">CustomerManager</text><ellipse cx="89.5" cy="1645.2813" fill="#E2E2F0" rx="8" ry="8" style="stroke:#181818;stroke-width:0.5;"/><path d="M89.5,1653.2813 L89.5,1680.2813 M76.5,1661.2813 L102.5,1661.2813 M89.5,1680.2813 L76.5,1695.2813 M89.5,1680.2813 L102.5,1695.2813 " fill="none" style="stroke:#181818;stroke-width:0.5;"/><rect fill="#E2E2F0" height="39.1563" rx="2.5" ry="2.5" style="stroke:#181818;stroke-width:0.5;" width="200" x="441.5" y="50"/><text fill="#000000" font-family="sans-serif" font-size="20" lengthAdjust="spacing" textLength="186" x="448.5" y="77.7617">PublishJobOpeningUI</text><rect fill="#E2E2F0" height="39.1563" rx="2.5" ry="2.5" style="stroke:#181818;stroke-width:0.5;" width="200" x="441.5" y="1611.625"/><text fill="#000000" font-family="sans-serif" font-size="20" lengthAdjust="spacing" textLength="186" x="448.5" y="1639.3867">PublishJobOpeningUI</text><rect fill="#E2E2F0" height="39.1563" rx="2.5" ry="2.5" style="stroke:#181818;stroke-width:0.5;" width="119" x="651.5" y="50"/><text fill="#000000" font-family="sans-serif" font-size="20" lengthAdjust="spacing" textLength="105" x="658.5" y="77.7617">JobOpening</text><rect fill="#E2E2F0" height="39.1563" rx="2.5" ry="2.5" style="stroke:#181818;stroke-width:0.5;" width="119" x="651.5" y="1611.625"/><text fill="#000000" font-family="sans-serif" font-size="20" lengthAdjust="spacing" textLength="105" x="658.5" y="1639.3867">JobOpening</text><rect fill="#E2E2F0" height="39.1563" rx="2.5" ry="2.5" style="stroke:#181818;stroke-width:0.5;" width="266" x="780.5" y="50"/><text fill="#000000" font-family="sans-serif" font-size="20" lengthAdjust="spacing" textLength="252" x="787.5" y="77.7617">PublishJobOpeningController</text><rect fill="#E2E2F0" height="39.1563" rx="2.5" ry="2.5" style="stroke:#181818;stroke-width:0.5;" width="266" x="780.5" y="1611.625"/><text fill="#000000" font-family="sans-serif" font-size="20" lengthAdjust="spacing" textLength="252" x="787.5" y="1639.3867">PublishJobOpeningController</text><rect fill="#E2E2F0" height="39.1563" rx="2.5" ry="2.5" style="stroke:#181818;stroke-width:0.5;" width="214" x="1056.5" y="50"/><text fill="#000000" font-family="sans-serif" font-size="20" lengthAdjust="spacing" textLength="200" x="1063.5" y="77.7617">JobOpeningRepository</text><rect fill="#E2E2F0" height="39.1563" rx="2.5" ry="2.5" style="stroke:#181818;stroke-width:0.5;" width="214" x="1056.5" y="1611.625"/><text fill="#000000" font-family="sans-serif" font-size="20" lengthAdjust="spacing" textLength="200" x="1063.5" y="1639.3867">JobOpeningRepository</text><rect fill="#E2E2F0" height="39.1563" rx="2.5" ry="2.5" style="stroke:#181818;stroke-width:0.5;" width="203" x="1280.5" y="50"/><text fill="#000000" font-family="sans-serif" font-size="20" lengthAdjust="spacing" textLength="189" x="1287.5" y="77.7617">FollowUpServerProxy</text><rect fill="#E2E2F0" height="39.1563" rx="2.5" ry="2.5" style="stroke:#181818;stroke-width:0.5;" width="203" x="1280.5" y="1611.625"/><text fill="#000000" font-family="sans-serif" font-size="20" lengthAdjust="spacing" textLength="189" x="1287.5" y="1639.3867">FollowUpServerProxy</text><rect fill="#E2E2F0" height="39.1563" rx="2.5" ry="2.5" style="stroke:#181818;stroke-width:0.5;" width="124" x="1493.5" y="1611.625"/><text fill="#000000" font-family="sans-serif" font-size="20" lengthAdjust="spacing" textLength="110" x="1500.5" y="1639.3867">ClientSocket</text><rect fill="#E2E2F0" height="39.1563" rx="2.5" ry="2.5" style="stroke:#181818;stroke-width:0.5;" width="153" x="1669" y="50"/><text fill="#000000" font-family="sans-serif" font-size="20" lengthAdjust="spacing" textLength="139" x="1676" y="77.7617">FollowUpServer</text><rect fill="#E2E2F0" height="39.1563" rx="2.5" ry="2.5" style="stroke:#181818;stroke-width:0.5;" width="153" x="1669" y="1611.625"/><text fill="#000000" font-family="sans-serif" font-size="20" lengthAdjust="spacing" textLength="139" x="1676" y="1639.3867">FollowUpServer</text><rect fill="#E2E2F0" height="39.1563" rx="2.5" ry="2.5" style="stroke:#181818;stroke-width:0.5;" width="235" x="1838" y="50"/><text fill="#000000" font-family="sans-serif" font-size="20" lengthAdjust="spacing" textLength="221" x="1845" y="77.7617">FollowUpMessageParser</text><rect fill="#E2E2F0" height="39.1563" rx="2.5" ry="2.5" style="stroke:#181818;stroke-width:0.5;" width="235" x="1838" y="1611.625"/><text fill="#000000" font-family="sans-serif" font-size="20" lengthAdjust="spacing" textLength="221" x="1845" y="1639.3867">FollowUpMessageParser</text><rect fill="#E2E2F0" height="39.1563" rx="2.5" ry="2.5" style="stroke:#181818;stroke-width:0.5;" width="190" x="2083" y="1611.625"/><text fill="#000000" font-family="sans-serif" font-size="20" lengthAdjust="spacing" textLength="176" x="2090" y="1639.3867">ResultEmailRequest</text><rect fill="#E2E2F0" height="39.1563" rx="2.5" ry="2.5" style="stroke:#181818;stroke-width:0.5;" width="248" x="2609" y="50"/><text fill="#000000" font-family="sans-serif" font-size="20" lengthAdjust="spacing" textLength="234" x="2616" y="77.7617">CandidateSelectionService</text><rect fill="#E2E2F0" height="39.1563" rx="2.5" ry="2.5" style="stroke:#181818;stroke-width:0.5;" width="248" x="2609" y="1611.625"/><text fill="#000000" font-family="sans-serif" font-size="20" lengthAdjust="spacing" textLength="234" x="2616" y="1639.3867">CandidateSelectionService</text><rect fill="#E2E2F0" height="39.1563" rx="2.5" ry="2.5" style="stroke:#181818;stroke-width:0.5;" width="127" x="2867" y="50"/><text fill="#000000" font-family="sans-serif" font-size="20" lengthAdjust="spacing" textLength="113" x="2874" y="77.7617">EmailService</text><rect fill="#E2E2F0" height="39.1563" rx="2.5" ry="2.5" style="stroke:#181818;stroke-width:0.5;" width="127" x="2867" y="1611.625"/><text fill="#000000" font-family="sans-serif" font-size="20" lengthAdjust="spacing" textLength="113" x="2874" y="1639.3867">EmailService</text><rect fill="#E2E2F0" height="39.1563" rx="2.5" ry="2.5" style="stroke:#181818;stroke-width:0.5;" width="110" x="3029.5" y="1611.625"/><text fill="#000000" font-family="sans-serif" font-size="20" lengthAdjust="spacing" textLength="96" x="3036.5" y="1639.3867">Notification</text><rect fill="#E2E2F0" height="39.1563" rx="2.5" ry="2.5" style="stroke:#181818;stroke-width:0.5;" width="205" x="3149.5" y="50"/><text fill="#000000" font-family="sans-serif" font-size="20" lengthAdjust="spacing" textLength="191" x="3156.5" y="77.7617">NotificationRepository</text><rect fill="#E2E2F0" height="39.1563" rx="2.5" ry="2.5" style="stroke:#181818;stroke-width:0.5;" width="205" x="3149.5" y="1611.625"/><text fill="#000000" font-family="sans-serif" font-size="20" lengthAdjust="spacing" textLength="191" x="3156.5" y="1639.3867">NotificationRepository</text><rect fill="#FFFFFF" height="1494.4688" style="stroke:#181818;stroke-width:1.0;" width="10" x="84.5" y="100.1563"/><rect fill="#FFFFFF" height="195.7813" style="stroke:#181818;stroke-width:1.0;" width="10" x="536.5" y="131.3125"/><rect fill="#FFFFFF" height="1237.375" style="stroke:#181818;stroke-width:1.0;" width="10" x="536.5" y="366.25"/><rect fill="#FFFFFF" height="117.4688" style="stroke:#181818;stroke-width:1.0;" width="10" x="908.5" y="170.4688"/><rect fill="#FFFFFF" height="1150.0625" style="stroke:#181818;stroke-width:1.0;" width="10" x="908.5" y="405.4063"/><rect fill="#FFFFFF" height="39.1563" style="stroke:#181818;stroke-width:1.0;" width="10" x="1158.5" y="209.625"/><rect fill="#FFFFFF" height="1071.75" style="stroke:#181818;stroke-width:1.0;" width="10" x="1377" y="444.5625"/><rect fill="#FFFFFF" height="30" style="stroke:#181818;stroke-width:1.0;" width="10" x="1550.5" y="533.875"/><rect fill="#FFFFFF" height="874.125" style="stroke:#181818;stroke-width:1.0;" width="10" x="1550.5" y="603.0313"/><rect fill="#FFFFFF" height="28" style="stroke:#181818;stroke-width:1.0;" width="10" x="1555.5" y="1324.6875"/><rect fill="#FFFFFF" height="635.3438" style="stroke:#181818;stroke-width:1.0;" width="10" x="1740.5" y="642.1875"/><rect fill="#FFFFFF" height="39.1563" style="stroke:#181818;stroke-width:1.0;" width="10" x="1740.5" y="1398.8438"/><rect fill="#FFFFFF" height="141.4688" style="stroke:#181818;stroke-width:1.0;" width="10" x="1950.5" y="681.3438"/><rect fill="#FFFFFF" height="44.1563" style="stroke:#181818;stroke-width:1.0;" width="10" x="1955.5" y="728.5"/><rect fill="#FFFFFF" height="376.4063" style="stroke:#181818;stroke-width:1.0;" width="10" x="2173" y="861.9688"/><rect fill="#FFFFFF" height="39.1563" style="stroke:#181818;stroke-width:1.0;" width="10" x="2728" y="901.125"/><rect fill="#FFFFFF" height="219.7813" style="stroke:#181818;stroke-width:1.0;" width="10" x="2925.5" y="979.4375"/><rect fill="#FFFFFF" height="91.3125" style="stroke:#181818;stroke-width:1.0;" width="10" x="3247" y="1068.75"/><polygon fill="#181818" points="524.5,127.3125,534.5,131.3125,524.5,135.3125,528.5,131.3125" style="stroke:#181818;stroke-width:1.0;"/><line style="stroke:#181818;stroke-width:1.0;" x1="94.5" x2="530.5" y1="131.3125" y2="131.3125"/><text fill="#000000" font-family="sans-serif" font-size="20" lengthAdjust="spacing" textLength="423" x="101.5" y="124.918">asks to display job openings in the results phase</text><polygon fill="#181818" points="896.5,166.4688,906.5,170.4688,896.5,174.4688,900.5,170.4688" style="stroke:#181818;stroke-width:1.0;"/><line style="stroke:#181818;stroke-width:1.0;" x1="546.5" x2="902.5" y1="170.4688" y2="170.4688"/><text fill="#000000" font-family="sans-serif" font-size="20" lengthAdjust="spacing" textLength="157" x="553.5" y="164.0742">getJobOpenings()</text><polygon fill="#181818" points="1146.5,205.625,1156.5,209.625,1146.5,213.625,1150.5,209.625" style="stroke:#181818;stroke-width:1.0;"/><line style="stroke:#181818;stroke-width:1.0;" x1="918.5" x2="1152.5" y1="209.625" y2="209.625"/><text fill="#000000" font-family="sans-serif" font-size="20" lengthAdjust="spacing" textLength="157" x="925.5" y="203.2305">getJobOpenings()</text><polygon fill="#181818" points="929.5,244.7813,919.5,248.7813,929.5,252.7813,925.5,248.7813" style="stroke:#181818;stroke-width:1.0;"/><line style="stroke:#181818;stroke-width:1.0;stroke-dasharray:2.0,2.0;" x1="923.5" x2="1162.5" y1="248.7813" y2="248.7813"/><text fill="#000000" font-family="sans-serif" font-size="20" lengthAdjust="spacing" textLength="109" x="935.5" y="242.3867">jobOpenings</text><polygon fill="#181818" points="557.5,283.9375,547.5,287.9375,557.5,291.9375,553.5,287.9375" style="stroke:#181818;stroke-width:1.0;"/><line style="stroke:#181818;stroke-width:1.0;stroke-dasharray:2.0,2.0;" x1="551.5" x2="912.5" y1="287.9375" y2="287.9375"/><text fill="#000000" font-family="sans-serif" font-size="20" lengthAdjust="spacing" textLength="109" x="563.5" y="281.543">jobOpenings</text><polygon fill="#181818" points="105.5,323.0938,95.5,327.0938,105.5,331.0938,101.5,327.0938" style="stroke:#181818;stroke-width:1.0;"/><line style="stroke:#181818;stroke-width:1.0;stroke-dasharray:2.0,2.0;" x1="99.5" x2="540.5" y1="327.0938" y2="327.0938"/><text fill="#000000" font-family="sans-serif" font-size="20" lengthAdjust="spacing" textLength="195" x="111.5" y="320.6992">Displays job Openings</text><polygon fill="#181818" points="524.5,362.25,534.5,366.25,524.5,370.25,528.5,366.25" style="stroke:#181818;stroke-width:1.0;"/><line style="stroke:#181818;stroke-width:1.0;" x1="94.5" x2="530.5" y1="366.25" y2="366.25"/><text fill="#000000" font-family="sans-serif" font-size="20" lengthAdjust="spacing" textLength="331" x="101.5" y="359.8555">selects job opening to pusblish results</text><polygon fill="#181818" points="896.5,401.4063,906.5,405.4063,896.5,409.4063,900.5,405.4063" style="stroke:#181818;stroke-width:1.0;"/><line style="stroke:#181818;stroke-width:1.0;" x1="546.5" x2="902.5" y1="405.4063" y2="405.4063"/><text fill="#000000" font-family="sans-serif" font-size="20" lengthAdjust="spacing" textLength="343" x="553.5" y="399.0117">publishJobOpeningResults(jobOpening)</text><polygon fill="#181818" points="1365,440.5625,1375,444.5625,1365,448.5625,1369,444.5625" style="stroke:#181818;stroke-width:1.0;"/><line style="stroke:#181818;stroke-width:1.0;" x1="918.5" x2="1371" y1="444.5625" y2="444.5625"/><text fill="#000000" font-family="sans-serif" font-size="20" lengthAdjust="spacing" textLength="331" x="925.5" y="438.168">sendResultEmailRequest(jobOpening)</text><polygon fill="#181818" points="1481.5,479.7188,1491.5,483.7188,1481.5,487.7188,1485.5,483.7188" style="stroke:#181818;stroke-width:1.0;"/><line style="stroke:#181818;stroke-width:1.0;" x1="1387" x2="1487.5" y1="483.7188" y2="483.7188"/><text fill="#000000" font-family="sans-serif" font-size="20" lengthAdjust="spacing" textLength="70" x="1394" y="477.3242">create()</text><rect fill="#E2E2F0" height="39.1563" rx="2.5" ry="2.5" style="stroke:#181818;stroke-width:0.5;" width="124" x="1493.5" y="452.5625"/><text fill="#000000" font-family="sans-serif" font-size="20" lengthAdjust="spacing" textLength="110" x="1500.5" y="480.3242">ClientSocket</text><polygon fill="#181818" points="1538.5,529.875,1548.5,533.875,1538.5,537.875,1542.5,533.875" style="stroke:#181818;stroke-width:1.0;"/><line style="stroke:#181818;stroke-width:1.0;" x1="1387" x2="1544.5" y1="533.875" y2="533.875"/><text fill="#000000" font-family="sans-serif" font-size="20" lengthAdjust="spacing" textLength="82" x="1394" y="527.4805">connect()</text><polygon fill="#181818" points="1538.5,599.0313,1548.5,603.0313,1538.5,607.0313,1542.5,603.0313" style="stroke:#181818;stroke-width:1.0;"/><line style="stroke:#181818;stroke-width:1.0;" x1="1387" x2="1544.5" y1="603.0313" y2="603.0313"/><text fill="#000000" font-family="sans-serif" font-size="20" lengthAdjust="spacing" textLength="122" x="1394" y="596.6367">send(request)</text><polygon fill="#181818" points="1728.5,638.1875,1738.5,642.1875,1728.5,646.1875,1732.5,642.1875" style="stroke:#181818;stroke-width:1.0;"/><line style="stroke:#181818;stroke-width:1.0;" x1="1560.5" x2="1734.5" y1="642.1875" y2="642.1875"/><text fill="#000000" font-family="sans-serif" font-size="20" lengthAdjust="spacing" textLength="123" x="1567.5" y="635.793">write(request)</text><polygon fill="#181818" points="1938.5,677.3438,1948.5,681.3438,1938.5,685.3438,1942.5,681.3438" style="stroke:#181818;stroke-width:1.0;"/><line style="stroke:#181818;stroke-width:1.0;" x1="1750.5" x2="1944.5" y1="681.3438" y2="681.3438"/><text fill="#000000" font-family="sans-serif" font-size="20" lengthAdjust="spacing" textLength="130" x="1757.5" y="674.9492">parse(request)</text><line style="stroke:#181818;stroke-width:1.0;" x1="1960.5" x2="2007.5" y1="715.5" y2="715.5"/><line style="stroke:#181818;stroke-width:1.0;" x1="2007.5" x2="2007.5" y1="715.5" y2="728.5"/><line style="stroke:#181818;stroke-width:1.0;" x1="1966.5" x2="2007.5" y1="728.5" y2="728.5"/><polygon fill="#181818" points="1976.5,724.5,1966.5,728.5,1976.5,732.5,1972.5,728.5" style="stroke:#181818;stroke-width:1.0;"/><text fill="#000000" font-family="sans-serif" font-size="20" lengthAdjust="spacing" textLength="130" x="1972.5" y="709.1055">parse(request)</text><polygon fill="#181818" points="2071,768.6563,2081,772.6563,2071,776.6563,2075,772.6563" style="stroke:#181818;stroke-width:1.0;"/><line style="stroke:#181818;stroke-width:1.0;" x1="1960.5" x2="2077" y1="772.6563" y2="772.6563"/><text fill="#000000" font-family="sans-serif" font-size="20" lengthAdjust="spacing" textLength="70" x="1967.5" y="766.2617">create()</text><rect fill="#E2E2F0" height="39.1563" rx="2.5" ry="2.5" style="stroke:#181818;stroke-width:0.5;" width="190" x="2083" y="741.5"/><text fill="#000000" font-family="sans-serif" font-size="20" lengthAdjust="spacing" textLength="176" x="2090" y="769.2617">ResultEmailRequest</text><polygon fill="#181818" points="1761.5,818.8125,1751.5,822.8125,1761.5,826.8125,1757.5,822.8125" style="stroke:#181818;stroke-width:1.0;"/><line style="stroke:#181818;stroke-width:1.0;" x1="1755.5" x2="1954.5" y1="822.8125" y2="822.8125"/><text fill="#000000" font-family="sans-serif" font-size="20" lengthAdjust="spacing" textLength="176" x="1767.5" y="816.418">ResultEmailRequest</text><polygon fill="#181818" points="2161,857.9688,2171,861.9688,2161,865.9688,2165,861.9688" style="stroke:#181818;stroke-width:1.0;"/><line style="stroke:#181818;stroke-width:1.0;" x1="1750.5" x2="2167" y1="861.9688" y2="861.9688"/><text fill="#000000" font-family="sans-serif" font-size="20" lengthAdjust="spacing" textLength="82" x="1757.5" y="855.5742">execute()</text><polygon fill="#181818" points="2716,897.125,2726,901.125,2716,905.125,2720,901.125" style="stroke:#181818;stroke-width:1.0;"/><line style="stroke:#181818;stroke-width:1.0;" x1="2183" x2="2722" y1="901.125" y2="901.125"/><text fill="#000000" font-family="sans-serif" font-size="20" lengthAdjust="spacing" textLength="264" x="2190" y="894.7305">selectCandidates(jobOpening)</text><polygon fill="#181818" points="2194,936.2813,2184,940.2813,2194,944.2813,2190,940.2813" style="stroke:#181818;stroke-width:1.0;"/><line style="stroke:#181818;stroke-width:1.0;" x1="2188" x2="2732" y1="940.2813" y2="940.2813"/><text fill="#000000" font-family="sans-serif" font-size="20" lengthAdjust="spacing" textLength="521" x="2200" y="933.8867">returns lists of selected candidates and rejected candidates</text><polygon fill="#181818" points="2913.5,975.4375,2923.5,979.4375,2913.5,983.4375,2917.5,979.4375" style="stroke:#181818;stroke-width:1.0;"/><line style="stroke:#181818;stroke-width:1.0;" x1="2183" x2="2919.5" y1="979.4375" y2="979.4375"/><text fill="#000000" font-family="sans-serif" font-size="20" lengthAdjust="spacing" textLength="476" x="2190" y="973.043">sendEmailToSelectedCandidates(selectedCandidates)</text><polygon fill="#181818" points="3017.5,1014.5938,3027.5,1018.5938,3017.5,1022.5938,3021.5,1018.5938" style="stroke:#181818;stroke-width:1.0;"/><line style="stroke:#181818;stroke-width:1.0;" x1="2935.5" x2="3023.5" y1="1018.5938" y2="1018.5938"/><text fill="#000000" font-family="sans-serif" font-size="20" lengthAdjust="spacing" textLength="70" x="2942.5" y="1012.1992">create()</text><rect fill="#E2E2F0" height="39.1563" rx="2.5" ry="2.5" style="stroke:#181818;stroke-width:0.5;" width="110" x="3029.5" y="987.4375"/><text fill="#000000" font-family="sans-serif" font-size="20" lengthAdjust="spacing" textLength="96" x="3036.5" y="1015.1992">Notification</text><polygon fill="#181818" points="3235,1064.75,3245,1068.75,3235,1072.75,3239,1068.75" style="stroke:#181818;stroke-width:1.0;"/><line style="stroke:#181818;stroke-width:1.0;" x1="2935.5" x2="3241" y1="1068.75" y2="1068.75"/><text fill="#000000" font-family="sans-serif" font-size="20" lengthAdjust="spacing" textLength="148" x="2942.5" y="1062.3555">save(notification)</text><line style="stroke:#181818;stroke-width:1.0;" x1="3257" x2="3299" y1="1107.9063" y2="1107.9063"/><line style="stroke:#181818;stroke-width:1.0;" x1="3299" x2="3299" y1="1107.9063" y2="1120.9063"/><line style="stroke:#181818;stroke-width:1.0;" x1="3258" x2="3299" y1="1120.9063" y2="1120.9063"/><polygon fill="#181818" points="3268,1116.9063,3258,1120.9063,3268,1124.9063,3264,1120.9063" style="stroke:#181818;stroke-width:1.0;"/><text fill="#000000" font-family="sans-serif" font-size="20" lengthAdjust="spacing" textLength="148" x="3264" y="1101.5117">save(notification)</text><polygon fill="#181818" points="2946.5,1156.0625,2936.5,1160.0625,2946.5,1164.0625,2942.5,1160.0625" style="stroke:#181818;stroke-width:1.0;"/><line style="stroke:#181818;stroke-width:1.0;" x1="2940.5" x2="3251" y1="1160.0625" y2="1160.0625"/><text fill="#000000" font-family="sans-serif" font-size="20" lengthAdjust="spacing" textLength="93" x="2952.5" y="1153.668">notification</text><polygon fill="#181818" points="2194,1195.2188,2184,1199.2188,2194,1203.2188,2190,1199.2188" style="stroke:#181818;stroke-width:1.0;"/><line style="stroke:#181818;stroke-width:1.0;" x1="2188" x2="2929.5" y1="1199.2188" y2="1199.2188"/><text fill="#000000" font-family="sans-serif" font-size="20" lengthAdjust="spacing" textLength="99" x="2200" y="1192.8242">emails sent</text><polygon fill="#181818" points="1761.5,1234.375,1751.5,1238.375,1761.5,1242.375,1757.5,1238.375" style="stroke:#181818;stroke-width:1.0;"/><line style="stroke:#181818;stroke-width:1.0;" x1="1755.5" x2="2177" y1="1238.375" y2="1238.375"/><text fill="#000000" font-family="sans-serif" font-size="20" lengthAdjust="spacing" textLength="99" x="1767.5" y="1231.9805">emails sent</text><polygon fill="#181818" points="1571.5,1273.5313,1561.5,1277.5313,1571.5,1281.5313,1567.5,1277.5313" style="stroke:#181818;stroke-width:1.0;"/><line style="stroke:#181818;stroke-width:1.0;" x1="1565.5" x2="1744.5" y1="1277.5313" y2="1277.5313"/><text fill="#000000" font-family="sans-serif" font-size="20" lengthAdjust="spacing" textLength="138" x="1577.5" y="1271.1367">write(response)</text><line style="stroke:#181818;stroke-width:1.0;" x1="1565.5" x2="1607.5" y1="1316.6875" y2="1316.6875"/><line style="stroke:#181818;stroke-width:1.0;" x1="1607.5" x2="1607.5" y1="1316.6875" y2="1329.6875"/><line style="stroke:#181818;stroke-width:1.0;" x1="1566.5" x2="1607.5" y1="1329.6875" y2="1329.6875"/><polygon fill="#181818" points="1576.5,1325.6875,1566.5,1329.6875,1576.5,1333.6875,1572.5,1329.6875" style="stroke:#181818;stroke-width:1.0;"/><text fill="#000000" font-family="sans-serif" font-size="20" lengthAdjust="spacing" textLength="51" x="1572.5" y="1310.293">recv()</text><polygon fill="#181818" points="1728.5,1394.8438,1738.5,1398.8438,1728.5,1402.8438,1732.5,1398.8438" style="stroke:#181818;stroke-width:1.0;"/><line style="stroke:#181818;stroke-width:1.0;" x1="1560.5" x2="1734.5" y1="1398.8438" y2="1398.8438"/><text fill="#000000" font-family="sans-serif" font-size="20" lengthAdjust="spacing" textLength="60" x="1567.5" y="1392.4492">close()</text><polygon fill="#181818" points="1571.5,1434,1561.5,1438,1571.5,1442,1567.5,1438" style="stroke:#181818;stroke-width:1.0;"/><line style="stroke:#181818;stroke-width:1.0;" x1="1565.5" x2="1744.5" y1="1438" y2="1438"/><text fill="#000000" font-family="sans-serif" font-size="20" lengthAdjust="spacing" textLength="156" x="1577.5" y="1431.6055">connection closed</text><polygon fill="#181818" points="1398,1473.1563,1388,1477.1563,1398,1481.1563,1394,1477.1563" style="stroke:#181818;stroke-width:1.0;"/><line style="stroke:#181818;stroke-width:1.0;" x1="1392" x2="1554.5" y1="1477.1563" y2="1477.1563"/><text fill="#000000" font-family="sans-serif" font-size="20" lengthAdjust="spacing" textLength="81" x="1404" y="1470.7617">response</text><polygon fill="#181818" points="929.5,1512.3125,919.5,1516.3125,929.5,1520.3125,925.5,1516.3125" style="stroke:#181818;stroke-width:1.0;"/><line style="stroke:#181818;stroke-width:1.0;" x1="923.5" x2="1381" y1="1516.3125" y2="1516.3125"/><text fill="#000000" font-family="sans-serif" font-size="20" lengthAdjust="spacing" textLength="81" x="935.5" y="1509.918">response</text><polygon fill="#181818" points="557.5,1551.4688,547.5,1555.4688,557.5,1559.4688,553.5,1555.4688" style="stroke:#181818;stroke-width:1.0;"/><line style="stroke:#181818;stroke-width:1.0;" x1="551.5" x2="912.5" y1="1555.4688" y2="1555.4688"/><text fill="#000000" font-family="sans-serif" font-size="20" lengthAdjust="spacing" textLength="81" x="563.5" y="1549.0742">response</text><polygon fill="#181818" points="100.5,1590.625,90.5,1594.625,100.5,1598.625,96.5,1594.625" style="stroke:#181818;stroke-width:1.0;"/><line style="stroke:#181818;stroke-width:1.0;" x1="94.5" x2="535.5" y1="1594.625" y2="1594.625"/><text fill="#000000" font-family="sans-serif" font-size="20" lengthAdjust="spacing" textLength="239" x="106.5" y="1588.2305">confirms operation success</text><!--SRC=[dPNBRjim44Nt-WeYApT0WABBBhfn6w05qWPnym4CDKxeIAGwGpb9lxupf1wKBBb5lHB4mwixJzEpTOr6NLVUF4EfIjZhjWhNteMT_Gtgm_kYq2PuL1VRbeAl0M-qqu-05qgJCdN1juCrjj4kg8lRzg6ozFJDF_nem5dtUFyrSgsTSYCGZm_-Bp9RzeE-glhF1gpM1E-WyMJPyLkInYbupIh-vRxP0Hu1Rz6_9gwHfocwhInm6YGn8J8K7y_f9GoFoymD477gRZLIXpRnSKhV0N45ljJQLdVmgmLA7ySvjzMkjAKEi8CAJB3UYGTh8AM8fdJKom6O0Tzzi7jhj0X5mAsVptBii2XYczWZsv6cCBMw-iHLLn_v_9bKyAgqr5JwZMlze7mg5IdhL7W2Zar2vdGyQO9HYBk69LX8wirIZn36EjFcNVP9QOX8CNt0iont11DNe-nXv8eISYufzf6iSF7RubCKQ-O-fqWfXhfqW-FA4aInV9GdHlBLj1I7e4_EUbgQ-RIa3gBDQ7WjLR7hemTNdlRTia0tAV4cIwIXkBna5OF00ETwTYX7tZcECgz3DqrPNlhvEhajzZQOJ9qgT9XSm2FJBsZPnGBESoc4n1tdJd8d3mliE9Z2_TSD7jXfLh98J-3a_BG42vVw633QWLSmRPGVEDaKc6GD3Gqsh8krlg22wK4N8RJeI75dSM_wVQV2Vn5c45BynE1X_duo7THx0Ueg6UFxwNUTO6QCJbvb1baNea4tJMltKaoJFiB6POigkyvBok4vqeqkyuCy6DQ0B4SWWP34DAaJ326dggvWKgQkb4EZzwrBZNS4avQ9tJjsUdy3mHp_QQhcKs8gJvEsoSQZL- -cbhEGy7BTKBz9Uk_dvhhRMqjeMYxzUehxSGaRTcwtSjdetc9Dia0nbarHQmp_tyuAaslKnUJt1m00]--></g></svg>