<?xml version="1.0" encoding="us-ascii" standalone="no"?><svg xmlns="http://www.w3.org/2000/svg" xmlns:xlink="http://www.w3.org/1999/xlink" contentStyleType="text/css" height="558px" preserveAspectRatio="none" style="width:1648px;height:558px;background:#FFFFFF;" version="1.1" viewBox="0 0 1648 558" width="1648px" zoomAndPan="magnify"><defs/><g><!--class SelectJobRequirementSpecificationUI--><g id="elem_SelectJobRequirementSpecificationUI"><rect codeLine="3" fill="#F1F1F1" height="60.582" id="SelectJobRequirementSpecificationUI" rx="2.5" ry="2.5" style="stroke:#181818;stroke-width:0.5;" width="266" x="249.01" y="7"/><ellipse cx="264.01" cy="29.291" fill="#ADD1B2" rx="11" ry="11" style="stroke:#181818;stroke-width:1.0;"/><path d="M266.7756,25.166 Q266.9319,24.9473 267.1194,24.8379 Q267.3069,24.7285 267.5256,24.7285 Q267.9006,24.7285 268.135,24.9941 Q268.3694,25.2441 268.3694,25.8535 L268.3694,27.3066 Q268.3694,27.916 268.135,28.1816 Q267.9006,28.4473 267.5256,28.4473 Q267.1819,28.4473 266.9788,28.2441 Q266.7756,28.0566 266.6663,27.541 Q266.6194,27.1816 266.4319,26.9941 Q266.1038,26.6191 265.4944,26.4004 Q264.885,26.1816 264.26,26.1816 Q263.4944,26.1816 262.8538,26.5098 Q262.2288,26.8379 261.7288,27.5879 Q261.2444,28.3379 261.2444,29.3691 L261.2444,30.4629 Q261.2444,31.6973 262.135,32.5254 Q263.0256,33.3379 264.6194,33.3379 Q265.5569,33.3379 266.2131,33.0879 Q266.6038,32.9316 267.0256,32.4941 Q267.2913,32.2285 267.4319,32.1504 Q267.5881,32.0723 267.7913,32.0723 Q268.1194,32.0723 268.3694,32.3379 Q268.635,32.5879 268.635,32.9316 Q268.635,33.2754 268.2913,33.6816 Q267.7913,34.2598 266.9944,34.5879 Q265.9163,35.041 264.6194,35.041 Q263.1038,35.041 261.9006,34.416 Q260.9163,33.916 260.2288,32.8535 Q259.5413,31.7754 259.5413,30.4941 L259.5413,29.3379 Q259.5413,28.0098 260.1506,26.8691 Q260.7756,25.7129 261.8694,25.1035 Q262.9631,24.4785 264.1975,24.4785 Q264.9319,24.4785 265.5725,24.6504 Q266.2288,24.8066 266.7756,25.166 Z " fill="#000000"/><text fill="#000000" font-family="sans-serif" font-size="12" font-style="italic" lengthAdjust="spacing" textLength="82" x="354.01" y="24.9492">&#171;presentation&#187;</text><text fill="#000000" font-family="sans-serif" font-size="14" lengthAdjust="spacing" textLength="234" x="278.01" y="43.0684">SelectJobRequirementSpecificationUI</text><line style="stroke:#181818;stroke-width:0.5;" x1="250.01" x2="514.01" y1="51.582" y2="51.582"/><line style="stroke:#181818;stroke-width:0.5;" x1="250.01" x2="514.01" y1="59.582" y2="59.582"/></g><!--class SelectJobRequirementSpecificationController--><g id="elem_SelectJobRequirementSpecificationController"><rect codeLine="4" fill="#F1F1F1" height="60.582" id="SelectJobRequirementSpecificationController" rx="2.5" ry="2.5" style="stroke:#181818;stroke-width:0.5;" width="316" x="550.01" y="7"/><ellipse cx="565.01" cy="29.291" fill="#ADD1B2" rx="11" ry="11" style="stroke:#181818;stroke-width:1.0;"/><path d="M567.7756,25.166 Q567.9319,24.9473 568.1194,24.8379 Q568.3069,24.7285 568.5256,24.7285 Q568.9006,24.7285 569.135,24.9941 Q569.3694,25.2441 569.3694,25.8535 L569.3694,27.3066 Q569.3694,27.916 569.135,28.1816 Q568.9006,28.4473 568.5256,28.4473 Q568.1819,28.4473 567.9788,28.2441 Q567.7756,28.0566 567.6663,27.541 Q567.6194,27.1816 567.4319,26.9941 Q567.1038,26.6191 566.4944,26.4004 Q565.885,26.1816 565.26,26.1816 Q564.4944,26.1816 563.8538,26.5098 Q563.2288,26.8379 562.7288,27.5879 Q562.2444,28.3379 562.2444,29.3691 L562.2444,30.4629 Q562.2444,31.6973 563.135,32.5254 Q564.0256,33.3379 565.6194,33.3379 Q566.5569,33.3379 567.2131,33.0879 Q567.6038,32.9316 568.0256,32.4941 Q568.2913,32.2285 568.4319,32.1504 Q568.5881,32.0723 568.7913,32.0723 Q569.1194,32.0723 569.3694,32.3379 Q569.635,32.5879 569.635,32.9316 Q569.635,33.2754 569.2913,33.6816 Q568.7913,34.2598 567.9944,34.5879 Q566.9163,35.041 565.6194,35.041 Q564.1038,35.041 562.9006,34.416 Q561.9163,33.916 561.2288,32.8535 Q560.5413,31.7754 560.5413,30.4941 L560.5413,29.3379 Q560.5413,28.0098 561.1506,26.8691 Q561.7756,25.7129 562.8694,25.1035 Q563.9631,24.4785 565.1975,24.4785 Q565.9319,24.4785 566.5725,24.6504 Q567.2288,24.8066 567.7756,25.166 Z " fill="#000000"/><text fill="#000000" font-family="sans-serif" font-size="12" font-style="italic" lengthAdjust="spacing" textLength="74" x="684.01" y="24.9492">&#171;application&#187;</text><text fill="#000000" font-family="sans-serif" font-size="14" lengthAdjust="spacing" textLength="284" x="579.01" y="43.0684">SelectJobRequirementSpecificationController</text><line style="stroke:#181818;stroke-width:0.5;" x1="551.01" x2="865.01" y1="51.582" y2="51.582"/><line style="stroke:#181818;stroke-width:0.5;" x1="551.01" x2="865.01" y1="59.582" y2="59.582"/></g><!--class PersistenceContext--><g id="elem_PersistenceContext"><rect codeLine="5" fill="#F1F1F1" height="48" id="PersistenceContext" rx="2.5" ry="2.5" style="stroke:#181818;stroke-width:0.5;" width="154" x="901.01" y="13.5"/><ellipse cx="916.01" cy="29.5" fill="#ADD1B2" rx="11" ry="11" style="stroke:#181818;stroke-width:1.0;"/><path d="M918.7756,25.375 Q918.9319,25.1563 919.1194,25.0469 Q919.3069,24.9375 919.5256,24.9375 Q919.9006,24.9375 920.135,25.2031 Q920.3694,25.4531 920.3694,26.0625 L920.3694,27.5156 Q920.3694,28.125 920.135,28.3906 Q919.9006,28.6563 919.5256,28.6563 Q919.1819,28.6563 918.9788,28.4531 Q918.7756,28.2656 918.6663,27.75 Q918.6194,27.3906 918.4319,27.2031 Q918.1038,26.8281 917.4944,26.6094 Q916.885,26.3906 916.26,26.3906 Q915.4944,26.3906 914.8538,26.7188 Q914.2288,27.0469 913.7288,27.7969 Q913.2444,28.5469 913.2444,29.5781 L913.2444,30.6719 Q913.2444,31.9063 914.135,32.7344 Q915.0256,33.5469 916.6194,33.5469 Q917.5569,33.5469 918.2131,33.2969 Q918.6038,33.1406 919.0256,32.7031 Q919.2913,32.4375 919.4319,32.3594 Q919.5881,32.2813 919.7913,32.2813 Q920.1194,32.2813 920.3694,32.5469 Q920.635,32.7969 920.635,33.1406 Q920.635,33.4844 920.2913,33.8906 Q919.7913,34.4688 918.9944,34.7969 Q917.9163,35.25 916.6194,35.25 Q915.1038,35.25 913.9006,34.625 Q912.9163,34.125 912.2288,33.0625 Q911.5413,31.9844 911.5413,30.7031 L911.5413,29.5469 Q911.5413,28.2188 912.1506,27.0781 Q912.7756,25.9219 913.8694,25.3125 Q914.9631,24.6875 916.1975,24.6875 Q916.9319,24.6875 917.5725,24.8594 Q918.2288,25.0156 918.7756,25.375 Z " fill="#000000"/><text fill="#000000" font-family="sans-serif" font-size="14" lengthAdjust="spacing" textLength="122" x="930.01" y="35.2969">PersistenceContext</text><line style="stroke:#181818;stroke-width:0.5;" x1="902.01" x2="1054.01" y1="45.5" y2="45.5"/><line style="stroke:#181818;stroke-width:0.5;" x1="902.01" x2="1054.01" y1="53.5" y2="53.5"/></g><!--class RepositoryFactory--><g id="elem_RepositoryFactory"><rect codeLine="6" fill="#F1F1F1" height="48" id="RepositoryFactory" rx="2.5" ry="2.5" style="stroke:#181818;stroke-width:0.5;" width="148" x="833.01" y="134.5"/><ellipse cx="848.01" cy="150.5" fill="#B4A7E5" rx="11" ry="11" style="stroke:#181818;stroke-width:1.0;"/><path d="M848.9631,147.1406 L848.9631,153.7969 L850.6819,153.7969 Q851.2913,153.7969 851.5569,154.0313 Q851.8225,154.2656 851.8225,154.6563 Q851.8225,155.0313 851.5569,155.2656 Q851.2913,155.5 850.6819,155.5 L845.5413,155.5 Q844.9319,155.5 844.6663,155.2656 Q844.4006,155.0313 844.4006,154.6406 Q844.4006,154.2656 844.6663,154.0313 Q844.9319,153.7969 845.5413,153.7969 L847.26,153.7969 L847.26,147.1406 L845.5413,147.1406 Q844.9319,147.1406 844.6663,146.9063 Q844.4006,146.6719 844.4006,146.2813 Q844.4006,145.9063 844.6663,145.6719 Q844.9319,145.4375 845.5413,145.4375 L850.6819,145.4375 Q851.2913,145.4375 851.5569,145.6719 Q851.8225,145.9063 851.8225,146.2813 Q851.8225,146.6719 851.5569,146.9063 Q851.2913,147.1406 850.6819,147.1406 L848.9631,147.1406 Z " fill="#000000"/><text fill="#000000" font-family="sans-serif" font-size="14" font-style="italic" lengthAdjust="spacing" textLength="116" x="862.01" y="156.2969">RepositoryFactory</text><line style="stroke:#181818;stroke-width:0.5;" x1="834.01" x2="980.01" y1="166.5" y2="166.5"/><line style="stroke:#181818;stroke-width:0.5;" x1="834.01" x2="980.01" y1="174.5" y2="174.5"/></g><!--class JobOpeningRepository--><g id="elem_JobOpeningRepository"><rect codeLine="7" fill="#F1F1F1" height="60.582" id="JobOpeningRepository" rx="2.5" ry="2.5" style="stroke:#181818;stroke-width:0.5;" width="177" x="932.51" y="249"/><ellipse cx="947.51" cy="271.291" fill="#B4A7E5" rx="11" ry="11" style="stroke:#181818;stroke-width:1.0;"/><path d="M948.4631,267.9316 L948.4631,274.5879 L950.1819,274.5879 Q950.7913,274.5879 951.0569,274.8223 Q951.3225,275.0566 951.3225,275.4473 Q951.3225,275.8223 951.0569,276.0566 Q950.7913,276.291 950.1819,276.291 L945.0413,276.291 Q944.4319,276.291 944.1663,276.0566 Q943.9006,275.8223 943.9006,275.4316 Q943.9006,275.0566 944.1663,274.8223 Q944.4319,274.5879 945.0413,274.5879 L946.76,274.5879 L946.76,267.9316 L945.0413,267.9316 Q944.4319,267.9316 944.1663,267.6973 Q943.9006,267.4629 943.9006,267.0723 Q943.9006,266.6973 944.1663,266.4629 Q944.4319,266.2285 945.0413,266.2285 L950.1819,266.2285 Q950.7913,266.2285 951.0569,266.4629 Q951.3225,266.6973 951.3225,267.0723 Q951.3225,267.4629 951.0569,267.6973 Q950.7913,267.9316 950.1819,267.9316 L948.4631,267.9316 Z " fill="#000000"/><text fill="#000000" font-family="sans-serif" font-size="12" font-style="italic" lengthAdjust="spacing" textLength="68" x="1000.01" y="266.9492">&#171;repository&#187;</text><text fill="#000000" font-family="sans-serif" font-size="14" font-style="italic" lengthAdjust="spacing" textLength="145" x="961.51" y="285.0684">JobOpeningRepository</text><line style="stroke:#181818;stroke-width:0.5;" x1="933.51" x2="1108.51" y1="293.582" y2="293.582"/><line style="stroke:#181818;stroke-width:0.5;" x1="933.51" x2="1108.51" y1="301.582" y2="301.582"/></g><!--class JobRequirementSpecificationRepository--><g id="elem_JobRequirementSpecificationRepository"><rect codeLine="8" fill="#F1F1F1" height="60.582" id="JobRequirementSpecificationRepository" rx="2.5" ry="2.5" style="stroke:#181818;stroke-width:0.5;" width="284" x="432.01" y="249"/><ellipse cx="447.01" cy="271.291" fill="#B4A7E5" rx="11" ry="11" style="stroke:#181818;stroke-width:1.0;"/><path d="M447.9631,267.9316 L447.9631,274.5879 L449.6819,274.5879 Q450.2913,274.5879 450.5569,274.8223 Q450.8225,275.0566 450.8225,275.4473 Q450.8225,275.8223 450.5569,276.0566 Q450.2913,276.291 449.6819,276.291 L444.5413,276.291 Q443.9319,276.291 443.6663,276.0566 Q443.4006,275.8223 443.4006,275.4316 Q443.4006,275.0566 443.6663,274.8223 Q443.9319,274.5879 444.5413,274.5879 L446.26,274.5879 L446.26,267.9316 L444.5413,267.9316 Q443.9319,267.9316 443.6663,267.6973 Q443.4006,267.4629 443.4006,267.0723 Q443.4006,266.6973 443.6663,266.4629 Q443.9319,266.2285 444.5413,266.2285 L449.6819,266.2285 Q450.2913,266.2285 450.5569,266.4629 Q450.8225,266.6973 450.8225,267.0723 Q450.8225,267.4629 450.5569,267.6973 Q450.2913,267.9316 449.6819,267.9316 L447.9631,267.9316 Z " fill="#000000"/><text fill="#000000" font-family="sans-serif" font-size="12" font-style="italic" lengthAdjust="spacing" textLength="68" x="553.01" y="266.9492">&#171;repository&#187;</text><text fill="#000000" font-family="sans-serif" font-size="14" font-style="italic" lengthAdjust="spacing" textLength="252" x="461.01" y="285.0684">JobRequirementSpecificationRepository</text><line style="stroke:#181818;stroke-width:0.5;" x1="433.01" x2="715.01" y1="293.582" y2="293.582"/><line style="stroke:#181818;stroke-width:0.5;" x1="433.01" x2="715.01" y1="301.582" y2="301.582"/></g><!--class InMemoryJobOpeningRepository--><g id="elem_InMemoryJobOpeningRepository"><rect codeLine="9" fill="#F1F1F1" height="60.582" id="InMemoryJobOpeningRepository" rx="2.5" ry="2.5" style="stroke:#181818;stroke-width:0.5;" width="237" x="1016.51" y="128"/><ellipse cx="1031.51" cy="150.291" fill="#ADD1B2" rx="11" ry="11" style="stroke:#181818;stroke-width:1.0;"/><path d="M1034.2756,146.166 Q1034.4319,145.9473 1034.6194,145.8379 Q1034.8069,145.7285 1035.0256,145.7285 Q1035.4006,145.7285 1035.635,145.9941 Q1035.8694,146.2441 1035.8694,146.8535 L1035.8694,148.3066 Q1035.8694,148.916 1035.635,149.1816 Q1035.4006,149.4473 1035.0256,149.4473 Q1034.6819,149.4473 1034.4788,149.2441 Q1034.2756,149.0566 1034.1663,148.541 Q1034.1194,148.1816 1033.9319,147.9941 Q1033.6038,147.6191 1032.9944,147.4004 Q1032.385,147.1816 1031.76,147.1816 Q1030.9944,147.1816 1030.3538,147.5098 Q1029.7288,147.8379 1029.2288,148.5879 Q1028.7444,149.3379 1028.7444,150.3691 L1028.7444,151.4629 Q1028.7444,152.6973 1029.635,153.5254 Q1030.5256,154.3379 1032.1194,154.3379 Q1033.0569,154.3379 1033.7131,154.0879 Q1034.1038,153.9316 1034.5256,153.4941 Q1034.7913,153.2285 1034.9319,153.1504 Q1035.0881,153.0723 1035.2913,153.0723 Q1035.6194,153.0723 1035.8694,153.3379 Q1036.135,153.5879 1036.135,153.9316 Q1036.135,154.2754 1035.7913,154.6816 Q1035.2913,155.2598 1034.4944,155.5879 Q1033.4163,156.041 1032.1194,156.041 Q1030.6038,156.041 1029.4006,155.416 Q1028.4163,154.916 1027.7288,153.8535 Q1027.0413,152.7754 1027.0413,151.4941 L1027.0413,150.3379 Q1027.0413,149.0098 1027.6506,147.8691 Q1028.2756,146.7129 1029.3694,146.1035 Q1030.4631,145.4785 1031.6975,145.4785 Q1032.4319,145.4785 1033.0725,145.6504 Q1033.7288,145.8066 1034.2756,146.166 Z " fill="#000000"/><text fill="#000000" font-family="sans-serif" font-size="12" font-style="italic" lengthAdjust="spacing" textLength="77" x="1109.51" y="145.9492">&#171;persistence&#187;</text><text fill="#000000" font-family="sans-serif" font-size="14" lengthAdjust="spacing" textLength="205" x="1045.51" y="164.0684">InMemoryJobOpeningRepository</text><line style="stroke:#181818;stroke-width:0.5;" x1="1017.51" x2="1252.51" y1="172.582" y2="172.582"/><line style="stroke:#181818;stroke-width:0.5;" x1="1017.51" x2="1252.51" y1="180.582" y2="180.582"/></g><!--class JpaJobOpeningRepository--><g id="elem_JpaJobOpeningRepository"><rect codeLine="10" fill="#F1F1F1" height="60.582" id="JpaJobOpeningRepository" rx="2.5" ry="2.5" style="stroke:#181818;stroke-width:0.5;" width="198" x="1289.01" y="128"/><ellipse cx="1304.01" cy="150.291" fill="#ADD1B2" rx="11" ry="11" style="stroke:#181818;stroke-width:1.0;"/><path d="M1306.7756,146.166 Q1306.9319,145.9473 1307.1194,145.8379 Q1307.3069,145.7285 1307.5256,145.7285 Q1307.9006,145.7285 1308.135,145.9941 Q1308.3694,146.2441 1308.3694,146.8535 L1308.3694,148.3066 Q1308.3694,148.916 1308.135,149.1816 Q1307.9006,149.4473 1307.5256,149.4473 Q1307.1819,149.4473 1306.9788,149.2441 Q1306.7756,149.0566 1306.6663,148.541 Q1306.6194,148.1816 1306.4319,147.9941 Q1306.1038,147.6191 1305.4944,147.4004 Q1304.885,147.1816 1304.26,147.1816 Q1303.4944,147.1816 1302.8538,147.5098 Q1302.2288,147.8379 1301.7288,148.5879 Q1301.2444,149.3379 1301.2444,150.3691 L1301.2444,151.4629 Q1301.2444,152.6973 1302.135,153.5254 Q1303.0256,154.3379 1304.6194,154.3379 Q1305.5569,154.3379 1306.2131,154.0879 Q1306.6038,153.9316 1307.0256,153.4941 Q1307.2913,153.2285 1307.4319,153.1504 Q1307.5881,153.0723 1307.7913,153.0723 Q1308.1194,153.0723 1308.3694,153.3379 Q1308.635,153.5879 1308.635,153.9316 Q1308.635,154.2754 1308.2913,154.6816 Q1307.7913,155.2598 1306.9944,155.5879 Q1305.9163,156.041 1304.6194,156.041 Q1303.1038,156.041 1301.9006,155.416 Q1300.9163,154.916 1300.2288,153.8535 Q1299.5413,152.7754 1299.5413,151.4941 L1299.5413,150.3379 Q1299.5413,149.0098 1300.1506,147.8691 Q1300.7756,146.7129 1301.8694,146.1035 Q1302.9631,145.4785 1304.1975,145.4785 Q1304.9319,145.4785 1305.5725,145.6504 Q1306.2288,145.8066 1306.7756,146.166 Z " fill="#000000"/><text fill="#000000" font-family="sans-serif" font-size="12" font-style="italic" lengthAdjust="spacing" textLength="77" x="1362.51" y="145.9492">&#171;persistence&#187;</text><text fill="#000000" font-family="sans-serif" font-size="14" lengthAdjust="spacing" textLength="166" x="1318.01" y="164.0684">JpaJobOpeningRepository</text><line style="stroke:#181818;stroke-width:0.5;" x1="1290.01" x2="1486.01" y1="172.582" y2="172.582"/><line style="stroke:#181818;stroke-width:0.5;" x1="1290.01" x2="1486.01" y1="180.582" y2="180.582"/></g><!--class InMemoryJobRequirementSpecificationRepository--><g id="elem_InMemoryJobRequirementSpecificationRepository"><rect codeLine="11" fill="#F1F1F1" height="60.582" id="InMemoryJobRequirementSpecificationRepository" rx="2.5" ry="2.5" style="stroke:#181818;stroke-width:0.5;" width="344" x="42.01" y="128"/><ellipse cx="57.01" cy="150.291" fill="#ADD1B2" rx="11" ry="11" style="stroke:#181818;stroke-width:1.0;"/><path d="M59.7756,146.166 Q59.9319,145.9473 60.1194,145.8379 Q60.3069,145.7285 60.5256,145.7285 Q60.9006,145.7285 61.135,145.9941 Q61.3694,146.2441 61.3694,146.8535 L61.3694,148.3066 Q61.3694,148.916 61.135,149.1816 Q60.9006,149.4473 60.5256,149.4473 Q60.1819,149.4473 59.9788,149.2441 Q59.7756,149.0566 59.6663,148.541 Q59.6194,148.1816 59.4319,147.9941 Q59.1038,147.6191 58.4944,147.4004 Q57.885,147.1816 57.26,147.1816 Q56.4944,147.1816 55.8538,147.5098 Q55.2288,147.8379 54.7288,148.5879 Q54.2444,149.3379 54.2444,150.3691 L54.2444,151.4629 Q54.2444,152.6973 55.135,153.5254 Q56.0256,154.3379 57.6194,154.3379 Q58.5569,154.3379 59.2131,154.0879 Q59.6038,153.9316 60.0256,153.4941 Q60.2913,153.2285 60.4319,153.1504 Q60.5881,153.0723 60.7913,153.0723 Q61.1194,153.0723 61.3694,153.3379 Q61.635,153.5879 61.635,153.9316 Q61.635,154.2754 61.2913,154.6816 Q60.7913,155.2598 59.9944,155.5879 Q58.9163,156.041 57.6194,156.041 Q56.1038,156.041 54.9006,155.416 Q53.9163,154.916 53.2288,153.8535 Q52.5413,152.7754 52.5413,151.4941 L52.5413,150.3379 Q52.5413,149.0098 53.1506,147.8691 Q53.7756,146.7129 54.8694,146.1035 Q55.9631,145.4785 57.1975,145.4785 Q57.9319,145.4785 58.5725,145.6504 Q59.2288,145.8066 59.7756,146.166 Z " fill="#000000"/><text fill="#000000" font-family="sans-serif" font-size="12" font-style="italic" lengthAdjust="spacing" textLength="77" x="188.51" y="145.9492">&#171;persistence&#187;</text><text fill="#000000" font-family="sans-serif" font-size="14" lengthAdjust="spacing" textLength="312" x="71.01" y="164.0684">InMemoryJobRequirementSpecificationRepository</text><line style="stroke:#181818;stroke-width:0.5;" x1="43.01" x2="385.01" y1="172.582" y2="172.582"/><line style="stroke:#181818;stroke-width:0.5;" x1="43.01" x2="385.01" y1="180.582" y2="180.582"/></g><!--class JpaJobRequirementSpecificationRepository--><g id="elem_JpaJobRequirementSpecificationRepository"><rect codeLine="12" fill="#F1F1F1" height="60.582" id="JpaJobRequirementSpecificationRepository" rx="2.5" ry="2.5" style="stroke:#181818;stroke-width:0.5;" width="305" x="421.51" y="128"/><ellipse cx="436.51" cy="150.291" fill="#ADD1B2" rx="11" ry="11" style="stroke:#181818;stroke-width:1.0;"/><path d="M439.2756,146.166 Q439.4319,145.9473 439.6194,145.8379 Q439.8069,145.7285 440.0256,145.7285 Q440.4006,145.7285 440.635,145.9941 Q440.8694,146.2441 440.8694,146.8535 L440.8694,148.3066 Q440.8694,148.916 440.635,149.1816 Q440.4006,149.4473 440.0256,149.4473 Q439.6819,149.4473 439.4788,149.2441 Q439.2756,149.0566 439.1663,148.541 Q439.1194,148.1816 438.9319,147.9941 Q438.6038,147.6191 437.9944,147.4004 Q437.385,147.1816 436.76,147.1816 Q435.9944,147.1816 435.3538,147.5098 Q434.7288,147.8379 434.2288,148.5879 Q433.7444,149.3379 433.7444,150.3691 L433.7444,151.4629 Q433.7444,152.6973 434.635,153.5254 Q435.5256,154.3379 437.1194,154.3379 Q438.0569,154.3379 438.7131,154.0879 Q439.1038,153.9316 439.5256,153.4941 Q439.7913,153.2285 439.9319,153.1504 Q440.0881,153.0723 440.2913,153.0723 Q440.6194,153.0723 440.8694,153.3379 Q441.135,153.5879 441.135,153.9316 Q441.135,154.2754 440.7913,154.6816 Q440.2913,155.2598 439.4944,155.5879 Q438.4163,156.041 437.1194,156.041 Q435.6038,156.041 434.4006,155.416 Q433.4163,154.916 432.7288,153.8535 Q432.0413,152.7754 432.0413,151.4941 L432.0413,150.3379 Q432.0413,149.0098 432.6506,147.8691 Q433.2756,146.7129 434.3694,146.1035 Q435.4631,145.4785 436.6975,145.4785 Q437.4319,145.4785 438.0725,145.6504 Q438.7288,145.8066 439.2756,146.166 Z " fill="#000000"/><text fill="#000000" font-family="sans-serif" font-size="12" font-style="italic" lengthAdjust="spacing" textLength="77" x="548.51" y="145.9492">&#171;persistence&#187;</text><text fill="#000000" font-family="sans-serif" font-size="14" lengthAdjust="spacing" textLength="273" x="450.51" y="164.0684">JpaJobRequirementSpecificationRepository</text><line style="stroke:#181818;stroke-width:0.5;" x1="422.51" x2="725.51" y1="172.582" y2="172.582"/><line style="stroke:#181818;stroke-width:0.5;" x1="422.51" x2="725.51" y1="180.582" y2="180.582"/></g><!--class JobOpening--><g id="elem_JobOpening"><rect codeLine="13" fill="#F1F1F1" height="60.582" id="JobOpening" rx="2.5" ry="2.5" style="stroke:#181818;stroke-width:0.5;" width="108" x="967.01" y="370"/><ellipse cx="982.01" cy="392.291" fill="#ADD1B2" rx="11" ry="11" style="stroke:#181818;stroke-width:1.0;"/><path d="M984.7756,388.166 Q984.9319,387.9473 985.1194,387.8379 Q985.3069,387.7285 985.5256,387.7285 Q985.9006,387.7285 986.135,387.9941 Q986.3694,388.2441 986.3694,388.8535 L986.3694,390.3066 Q986.3694,390.916 986.135,391.1816 Q985.9006,391.4473 985.5256,391.4473 Q985.1819,391.4473 984.9788,391.2441 Q984.7756,391.0566 984.6663,390.541 Q984.6194,390.1816 984.4319,389.9941 Q984.1038,389.6191 983.4944,389.4004 Q982.885,389.1816 982.26,389.1816 Q981.4944,389.1816 980.8538,389.5098 Q980.2288,389.8379 979.7288,390.5879 Q979.2444,391.3379 979.2444,392.3691 L979.2444,393.4629 Q979.2444,394.6973 980.135,395.5254 Q981.0256,396.3379 982.6194,396.3379 Q983.5569,396.3379 984.2131,396.0879 Q984.6038,395.9316 985.0256,395.4941 Q985.2913,395.2285 985.4319,395.1504 Q985.5881,395.0723 985.7913,395.0723 Q986.1194,395.0723 986.3694,395.3379 Q986.635,395.5879 986.635,395.9316 Q986.635,396.2754 986.2913,396.6816 Q985.7913,397.2598 984.9944,397.5879 Q983.9163,398.041 982.6194,398.041 Q981.1038,398.041 979.9006,397.416 Q978.9163,396.916 978.2288,395.8535 Q977.5413,394.7754 977.5413,393.4941 L977.5413,392.3379 Q977.5413,391.0098 978.1506,389.8691 Q978.7756,388.7129 979.8694,388.1035 Q980.9631,387.4785 982.1975,387.4785 Q982.9319,387.4785 983.5725,387.6504 Q984.2288,387.8066 984.7756,388.166 Z " fill="#000000"/><text fill="#000000" font-family="sans-serif" font-size="12" font-style="italic" lengthAdjust="spacing" textLength="56" x="1006.01" y="387.9492">&#171;domain&#187;</text><text fill="#000000" font-family="sans-serif" font-size="14" lengthAdjust="spacing" textLength="76" x="996.01" y="406.0684">JobOpening</text><line style="stroke:#181818;stroke-width:0.5;" x1="968.01" x2="1074.01" y1="414.582" y2="414.582"/><line style="stroke:#181818;stroke-width:0.5;" x1="968.01" x2="1074.01" y1="422.582" y2="422.582"/></g><!--class JobRequirementSpecification--><g id="elem_JobRequirementSpecification"><rect codeLine="14" fill="#F1F1F1" height="60.582" id="JobRequirementSpecification" rx="2.5" ry="2.5" style="stroke:#181818;stroke-width:0.5;" width="215" x="746.51" y="491"/><ellipse cx="761.51" cy="513.291" fill="#ADD1B2" rx="11" ry="11" style="stroke:#181818;stroke-width:1.0;"/><path d="M764.2756,509.166 Q764.4319,508.9473 764.6194,508.8379 Q764.8069,508.7285 765.0256,508.7285 Q765.4006,508.7285 765.635,508.9941 Q765.8694,509.2441 765.8694,509.8535 L765.8694,511.3066 Q765.8694,511.916 765.635,512.1816 Q765.4006,512.4473 765.0256,512.4473 Q764.6819,512.4473 764.4788,512.2441 Q764.2756,512.0566 764.1663,511.541 Q764.1194,511.1816 763.9319,510.9941 Q763.6038,510.6191 762.9944,510.4004 Q762.385,510.1816 761.76,510.1816 Q760.9944,510.1816 760.3538,510.5098 Q759.7288,510.8379 759.2288,511.5879 Q758.7444,512.3379 758.7444,513.3691 L758.7444,514.4629 Q758.7444,515.6973 759.635,516.5254 Q760.5256,517.3379 762.1194,517.3379 Q763.0569,517.3379 763.7131,517.0879 Q764.1038,516.9316 764.5256,516.4941 Q764.7913,516.2285 764.9319,516.1504 Q765.0881,516.0723 765.2913,516.0723 Q765.6194,516.0723 765.8694,516.3379 Q766.135,516.5879 766.135,516.9316 Q766.135,517.2754 765.7913,517.6816 Q765.2913,518.2598 764.4944,518.5879 Q763.4163,519.041 762.1194,519.041 Q760.6038,519.041 759.4006,518.416 Q758.4163,517.916 757.7288,516.8535 Q757.0413,515.7754 757.0413,514.4941 L757.0413,513.3379 Q757.0413,512.0098 757.6506,510.8691 Q758.2756,509.7129 759.3694,509.1035 Q760.4631,508.4785 761.6975,508.4785 Q762.4319,508.4785 763.0725,508.6504 Q763.7288,508.8066 764.2756,509.166 Z " fill="#000000"/><text fill="#000000" font-family="sans-serif" font-size="12" font-style="italic" lengthAdjust="spacing" textLength="56" x="839.01" y="508.9492">&#171;domain&#187;</text><text fill="#000000" font-family="sans-serif" font-size="14" lengthAdjust="spacing" textLength="183" x="775.51" y="527.0684">JobRequirementSpecification</text><line style="stroke:#181818;stroke-width:0.5;" x1="747.51" x2="960.51" y1="535.582" y2="535.582"/><line style="stroke:#181818;stroke-width:0.5;" x1="747.51" x2="960.51" y1="543.582" y2="543.582"/></g><!--link SelectJobRequirementSpecificationUI to SelectJobRequirementSpecificationController--><g id="link_SelectJobRequirementSpecificationUI_SelectJobRequirementSpecificationController"><path codeLine="16" d="M515.08,37.5 C526.64,37.5 532.19,37.5 543.75,37.5 " fill="none" id="SelectJobRequirementSpecificationUI-to-SelectJobRequirementSpecificationController" style="stroke:#181818;stroke-width:1.0;"/><polygon fill="#181818" points="549.75,37.5,540.75,33.5,544.75,37.5,540.75,41.5,549.75,37.5" style="stroke:#181818;stroke-width:1.0;"/></g><!--link SelectJobRequirementSpecificationController to PersistenceContext--><g id="link_SelectJobRequirementSpecificationController_PersistenceContext"><path codeLine="17" d="M866.21,37.5 C877.71,37.5 883.21,37.5 894.71,37.5 " fill="none" id="SelectJobRequirementSpecificationController-to-PersistenceContext" style="stroke:#181818;stroke-width:1.0;"/><polygon fill="#181818" points="900.71,37.5,891.71,33.5,895.71,37.5,891.71,41.5,900.71,37.5" style="stroke:#181818;stroke-width:1.0;"/></g><!--link PersistenceContext to RepositoryFactory--><g id="link_PersistenceContext_RepositoryFactory"><path codeLine="18" d="M964.15,61.73 C951.64,82.69 936.4043,108.2275 923.9043,129.1775 " fill="none" id="PersistenceContext-to-RepositoryFactory" style="stroke:#181818;stroke-width:1.0;"/><polygon fill="#181818" points="920.83,134.33,928.8765,128.6507,923.3919,130.0362,922.0064,124.5517,920.83,134.33" style="stroke:#181818;stroke-width:1.0;"/></g><!--link SelectJobRequirementSpecificationController to JobOpeningRepository--><g id="link_SelectJobRequirementSpecificationController_JobOpeningRepository"><path codeLine="19" d="M722.74,68.2 C740.56,101.51 773.42,155.28 815.01,189 C849.31,216.81 887.9595,235.4299 926.6595,249.8899 " fill="none" id="SelectJobRequirementSpecificationController-to-JobOpeningRepository" style="stroke:#181818;stroke-width:1.0;stroke-dasharray:7.0,7.0;"/><polygon fill="#181818" points="932.28,251.99,925.2493,245.0929,927.5963,250.24,922.4492,252.5869,932.28,251.99" style="stroke:#181818;stroke-width:1.0;"/></g><!--link SelectJobRequirementSpecificationController to JobRequirementSpecificationRepository--><g id="link_SelectJobRequirementSpecificationController_JobRequirementSpecificationRepository"><path codeLine="20" d="M549.76,65.4 C543.77,66.3 537.84,67.17 532.01,68 C419.48,84.07 99.53,43.04 24.01,128 C6,148.26 6.44,168.35 24.01,189 C75.4,249.43 280.6758,268.9066 425.8858,275.2866 " fill="none" id="SelectJobRequirementSpecificationController-to-JobRequirementSpecificationRepository" style="stroke:#181818;stroke-width:1.0;stroke-dasharray:7.0,7.0;"/><polygon fill="#181818" points="431.88,275.55,423.0643,271.1588,426.8848,275.3305,422.7131,279.1511,431.88,275.55" style="stroke:#181818;stroke-width:1.0;"/></g><!--link RepositoryFactory to JobOpeningRepository--><g id="link_RepositoryFactory_JobOpeningRepository"><path codeLine="21" d="M929.26,182.73 C947.4,201.67 968.9894,224.1973 988.5894,244.6573 " fill="none" id="RepositoryFactory-to-JobOpeningRepository" style="stroke:#181818;stroke-width:1.0;"/><polygon fill="#181818" points="992.74,248.99,989.4026,239.7238,989.2812,245.3794,983.6256,245.258,992.74,248.99" style="stroke:#181818;stroke-width:1.0;"/></g><!--link RepositoryFactory to JobRequirementSpecificationRepository--><g id="link_RepositoryFactory_JobRequirementSpecificationRepository"><path codeLine="22" d="M842.41,182.59 C789.45,201.51 719.7901,226.401 662.4201,246.901 " fill="none" id="RepositoryFactory-to-JobRequirementSpecificationRepository" style="stroke:#181818;stroke-width:1.0;"/><polygon fill="#181818" points="656.77,248.92,666.5911,249.6583,661.4784,247.2375,663.8992,242.1248,656.77,248.92" style="stroke:#181818;stroke-width:1.0;"/></g><!--link SelectJobRequirementSpecificationController to JobOpening--><g id="link_SelectJobRequirementSpecificationController_JobOpening"><path codeLine="23" d="M866.28,65.7 C871.92,66.5 877.51,67.27 883.01,68 C951.84,77.11 1458.33,76.6 1505.01,128 C1641.11,277.87 1233.6228,363.6009 1081.0928,389.8909 " fill="none" id="SelectJobRequirementSpecificationController-to-JobOpening" style="stroke:#181818;stroke-width:1.0;stroke-dasharray:7.0,7.0;"/><polygon fill="#181818" points="1075.18,390.91,1084.7286,393.3232,1080.1073,390.0607,1083.3698,385.4394,1075.18,390.91" style="stroke:#181818;stroke-width:1.0;"/></g><!--link JobOpeningRepository to JobOpening--><g id="link_JobOpeningRepository_JobOpening"><path codeLine="24" d="M1021.01,310.22 C1021.01,328.4 1021.01,345.56 1021.01,363.74 " fill="none" id="JobOpeningRepository-to-JobOpening" style="stroke:#181818;stroke-width:1.0;"/><polygon fill="#181818" points="1021.01,369.74,1025.01,360.74,1021.01,364.74,1017.01,360.74,1021.01,369.74" style="stroke:#181818;stroke-width:1.0;"/></g><!--link JobRequirementSpecificationRepository to JobRequirementSpecification--><g id="link_JobRequirementSpecificationRepository_JobRequirementSpecification"><path codeLine="25" d="M608.62,310.17 C662.47,356.32 761.1246,440.885 814.9146,486.995 " fill="none" id="JobRequirementSpecificationRepository-to-JobRequirementSpecification" style="stroke:#181818;stroke-width:1.0;"/><polygon fill="#181818" points="819.47,490.9,815.2403,482.0057,815.6739,487.6459,810.0337,488.0795,819.47,490.9" style="stroke:#181818;stroke-width:1.0;"/></g><!--link JpaJobOpeningRepository to JobOpeningRepository--><g id="link_JpaJobOpeningRepository_JobOpeningRepository"><path codeLine="26" d="M1296.82,189.07 C1239.61,207.62 1183.3328,225.8694 1126.6328,244.2494 " fill="none" id="JpaJobOpeningRepository-to-JobOpeningRepository" style="stroke:#181818;stroke-width:1.0;"/><polygon fill="none" points="1109.51,249.8,1128.483,249.957,1124.7826,238.5418,1109.51,249.8" style="stroke:#181818;stroke-width:1.0;"/></g><!--link InMemoryJobOpeningRepository to JobOpeningRepository--><g id="link_InMemoryJobOpeningRepository_JobOpeningRepository"><path codeLine="27" d="M1106.54,189.22 C1089.12,207.4 1079.3834,217.5633 1061.9634,235.7433 " fill="none" id="InMemoryJobOpeningRepository-to-JobOpeningRepository" style="stroke:#181818;stroke-width:1.0;"/><polygon fill="none" points="1049.51,248.74,1066.2956,239.8944,1057.6311,231.5922,1049.51,248.74" style="stroke:#181818;stroke-width:1.0;"/></g><!--link InMemoryJobRequirementSpecificationRepository to JobRequirementSpecificationRepository--><g id="link_InMemoryJobRequirementSpecificationRepository_JobRequirementSpecificationRepository"><path codeLine="28" d="M303.46,189.07 C358.75,207.34 412.3598,225.0597 467.6198,243.3297 " fill="none" id="InMemoryJobRequirementSpecificationRepository-to-JobRequirementSpecificationRepository" style="stroke:#181818;stroke-width:1.0;"/><polygon fill="none" points="484.71,248.98,469.5033,237.6329,465.7364,249.0264,484.71,248.98" style="stroke:#181818;stroke-width:1.0;"/></g><!--link JpaJobRequirementSpecificationRepository to JobRequirementSpecificationRepository--><g id="link_JpaJobRequirementSpecificationRepository_JobRequirementSpecificationRepository"><path codeLine="29" d="M574.01,189.22 C574.01,207.4 574.01,212.56 574.01,230.74 " fill="none" id="JpaJobRequirementSpecificationRepository-to-JobRequirementSpecificationRepository" style="stroke:#181818;stroke-width:1.0;"/><polygon fill="none" points="574.01,248.74,580.01,230.74,568.01,230.74,574.01,248.74" style="stroke:#181818;stroke-width:1.0;"/></g><!--link JobOpening to JobRequirementSpecification--><g id="link_JobOpening_JobRequirementSpecification"><path codeLine="30" d="M979.3,431.22 C953.7,449.46 925.916,469.2576 900.366,487.4676 " fill="none" id="JobOpening-to-JobRequirementSpecification" style="stroke:#181818;stroke-width:1.0;"/><polygon fill="#181818" points="895.48,490.95,905.1306,488.9838,899.5517,488.048,900.4874,482.4691,895.48,490.95" style="stroke:#181818;stroke-width:1.0;"/></g><!--SRC=[dLDDQyCm3BtxL-IsavFxABaC1YsCbPR-0CrLEuE_PhkmGd_yr6maAOaN9oTZwKdlMNvw-epHXUUgSWfCl6XL2giheI04VfHmzg0PQwx57XMAkB4VE_owI8yQJTmx5F8a1KHfpM5Th5REOw144wZhtD8NQwAtIg6d5k2S-ekt7RReWmmHZS0x5hyZatJu4mWiTkXiaD7wwok8-z7B4UcxGoFDkKCHXsylHF60JabCb_ygN9itr1H84Bhk0Mt9ni4CT8yWIsEQSNbvgvO0Hwj1cdukrRSFPZasulKSox0vzgBM8ruQXWfEoA6nvb2LPJrgloLDfh-C3SGsJnWLa8Hcq2oV01ir-wD8bcVF2RaijLcStn8Z-NTziygoPDzonvozgNDwTkixDS0V]--></g></svg>