<?xml version="1.0" encoding="us-ascii" standalone="no"?><svg xmlns="http://www.w3.org/2000/svg" xmlns:xlink="http://www.w3.org/1999/xlink" contentStyleType="text/css" height="558px" preserveAspectRatio="none" style="width:1647px;height:558px;background:#FFFFFF;" version="1.1" viewBox="0 0 1647 558" width="1647px" zoomAndPan="magnify"><defs/><g><!--class SelectJobRequirementSpecificationForJobOpeningUI--><g id="elem_SelectJobRequirementSpecificationForJobOpeningUI"><rect codeLine="3" fill="#F1F1F1" height="60.582" id="SelectJobRequirementSpecificationForJobOpeningUI" rx="2.5" ry="2.5" style="stroke:#181818;stroke-width:0.5;" width="364" x="77.83" y="7"/><ellipse cx="92.83" cy="29.291" fill="#ADD1B2" rx="11" ry="11" style="stroke:#181818;stroke-width:1.0;"/><path d="M95.5956,25.166 Q95.7519,24.9473 95.9394,24.8379 Q96.1269,24.7285 96.3456,24.7285 Q96.7206,24.7285 96.955,24.9941 Q97.1894,25.2441 97.1894,25.8535 L97.1894,27.3066 Q97.1894,27.916 96.955,28.1816 Q96.7206,28.4473 96.3456,28.4473 Q96.0019,28.4473 95.7988,28.2441 Q95.5956,28.0566 95.4863,27.541 Q95.4394,27.1816 95.2519,26.9941 Q94.9238,26.6191 94.3144,26.4004 Q93.705,26.1816 93.08,26.1816 Q92.3144,26.1816 91.6738,26.5098 Q91.0488,26.8379 90.5488,27.5879 Q90.0644,28.3379 90.0644,29.3691 L90.0644,30.4629 Q90.0644,31.6973 90.955,32.5254 Q91.8456,33.3379 93.4394,33.3379 Q94.3769,33.3379 95.0331,33.0879 Q95.4238,32.9316 95.8456,32.4941 Q96.1113,32.2285 96.2519,32.1504 Q96.4081,32.0723 96.6113,32.0723 Q96.9394,32.0723 97.1894,32.3379 Q97.455,32.5879 97.455,32.9316 Q97.455,33.2754 97.1113,33.6816 Q96.6113,34.2598 95.8144,34.5879 Q94.7363,35.041 93.4394,35.041 Q91.9238,35.041 90.7206,34.416 Q89.7363,33.916 89.0488,32.8535 Q88.3613,31.7754 88.3613,30.4941 L88.3613,29.3379 Q88.3613,28.0098 88.9706,26.8691 Q89.5956,25.7129 90.6894,25.1035 Q91.7831,24.4785 93.0175,24.4785 Q93.7519,24.4785 94.3925,24.6504 Q95.0488,24.8066 95.5956,25.166 Z " fill="#000000"/><text fill="#000000" font-family="sans-serif" font-size="12" font-style="italic" lengthAdjust="spacing" textLength="82" x="231.83" y="24.9492">&#171;presentation&#187;</text><text fill="#000000" font-family="sans-serif" font-size="14" lengthAdjust="spacing" textLength="332" x="106.83" y="43.0684">SelectJobRequirementSpecificationForJobOpeningUI</text><line style="stroke:#181818;stroke-width:0.5;" x1="78.83" x2="440.83" y1="51.582" y2="51.582"/><line style="stroke:#181818;stroke-width:0.5;" x1="78.83" x2="440.83" y1="59.582" y2="59.582"/></g><!--class SelectJobRequirementSpecificationForJobOpeningController--><g id="elem_SelectJobRequirementSpecificationForJobOpeningController"><rect codeLine="4" fill="#F1F1F1" height="60.582" id="SelectJobRequirementSpecificationForJobOpeningController" rx="2.5" ry="2.5" style="stroke:#181818;stroke-width:0.5;" width="414" x="476.83" y="7"/><ellipse cx="491.83" cy="29.291" fill="#ADD1B2" rx="11" ry="11" style="stroke:#181818;stroke-width:1.0;"/><path d="M494.5956,25.166 Q494.7519,24.9473 494.9394,24.8379 Q495.1269,24.7285 495.3456,24.7285 Q495.7206,24.7285 495.955,24.9941 Q496.1894,25.2441 496.1894,25.8535 L496.1894,27.3066 Q496.1894,27.916 495.955,28.1816 Q495.7206,28.4473 495.3456,28.4473 Q495.0019,28.4473 494.7988,28.2441 Q494.5956,28.0566 494.4863,27.541 Q494.4394,27.1816 494.2519,26.9941 Q493.9238,26.6191 493.3144,26.4004 Q492.705,26.1816 492.08,26.1816 Q491.3144,26.1816 490.6738,26.5098 Q490.0488,26.8379 489.5488,27.5879 Q489.0644,28.3379 489.0644,29.3691 L489.0644,30.4629 Q489.0644,31.6973 489.955,32.5254 Q490.8456,33.3379 492.4394,33.3379 Q493.3769,33.3379 494.0331,33.0879 Q494.4238,32.9316 494.8456,32.4941 Q495.1113,32.2285 495.2519,32.1504 Q495.4081,32.0723 495.6113,32.0723 Q495.9394,32.0723 496.1894,32.3379 Q496.455,32.5879 496.455,32.9316 Q496.455,33.2754 496.1113,33.6816 Q495.6113,34.2598 494.8144,34.5879 Q493.7363,35.041 492.4394,35.041 Q490.9238,35.041 489.7206,34.416 Q488.7363,33.916 488.0488,32.8535 Q487.3613,31.7754 487.3613,30.4941 L487.3613,29.3379 Q487.3613,28.0098 487.9706,26.8691 Q488.5956,25.7129 489.6894,25.1035 Q490.7831,24.4785 492.0175,24.4785 Q492.7519,24.4785 493.3925,24.6504 Q494.0488,24.8066 494.5956,25.166 Z " fill="#000000"/><text fill="#000000" font-family="sans-serif" font-size="12" font-style="italic" lengthAdjust="spacing" textLength="74" x="659.83" y="24.9492">&#171;application&#187;</text><text fill="#000000" font-family="sans-serif" font-size="14" lengthAdjust="spacing" textLength="382" x="505.83" y="43.0684">SelectJobRequirementSpecificationForJobOpeningController</text><line style="stroke:#181818;stroke-width:0.5;" x1="477.83" x2="889.83" y1="51.582" y2="51.582"/><line style="stroke:#181818;stroke-width:0.5;" x1="477.83" x2="889.83" y1="59.582" y2="59.582"/></g><!--class PersistenceContext--><g id="elem_PersistenceContext"><rect codeLine="5" fill="#F1F1F1" height="48" id="PersistenceContext" rx="2.5" ry="2.5" style="stroke:#181818;stroke-width:0.5;" width="154" x="925.83" y="13.5"/><ellipse cx="940.83" cy="29.5" fill="#ADD1B2" rx="11" ry="11" style="stroke:#181818;stroke-width:1.0;"/><path d="M943.5956,25.375 Q943.7519,25.1563 943.9394,25.0469 Q944.1269,24.9375 944.3456,24.9375 Q944.7206,24.9375 944.955,25.2031 Q945.1894,25.4531 945.1894,26.0625 L945.1894,27.5156 Q945.1894,28.125 944.955,28.3906 Q944.7206,28.6563 944.3456,28.6563 Q944.0019,28.6563 943.7987,28.4531 Q943.5956,28.2656 943.4862,27.75 Q943.4394,27.3906 943.2519,27.2031 Q942.9237,26.8281 942.3144,26.6094 Q941.705,26.3906 941.08,26.3906 Q940.3144,26.3906 939.6737,26.7188 Q939.0487,27.0469 938.5487,27.7969 Q938.0644,28.5469 938.0644,29.5781 L938.0644,30.6719 Q938.0644,31.9063 938.955,32.7344 Q939.8456,33.5469 941.4394,33.5469 Q942.3769,33.5469 943.0331,33.2969 Q943.4237,33.1406 943.8456,32.7031 Q944.1112,32.4375 944.2519,32.3594 Q944.4081,32.2813 944.6112,32.2813 Q944.9394,32.2813 945.1894,32.5469 Q945.455,32.7969 945.455,33.1406 Q945.455,33.4844 945.1112,33.8906 Q944.6112,34.4688 943.8144,34.7969 Q942.7362,35.25 941.4394,35.25 Q939.9237,35.25 938.7206,34.625 Q937.7362,34.125 937.0487,33.0625 Q936.3612,31.9844 936.3612,30.7031 L936.3612,29.5469 Q936.3612,28.2188 936.9706,27.0781 Q937.5956,25.9219 938.6894,25.3125 Q939.7831,24.6875 941.0175,24.6875 Q941.7519,24.6875 942.3925,24.8594 Q943.0487,25.0156 943.5956,25.375 Z " fill="#000000"/><text fill="#000000" font-family="sans-serif" font-size="14" lengthAdjust="spacing" textLength="122" x="954.83" y="35.2969">PersistenceContext</text><line style="stroke:#181818;stroke-width:0.5;" x1="926.83" x2="1078.83" y1="45.5" y2="45.5"/><line style="stroke:#181818;stroke-width:0.5;" x1="926.83" x2="1078.83" y1="53.5" y2="53.5"/></g><!--class RepositoryFactory--><g id="elem_RepositoryFactory"><rect codeLine="6" fill="#F1F1F1" height="48" id="RepositoryFactory" rx="2.5" ry="2.5" style="stroke:#181818;stroke-width:0.5;" width="148" x="832.83" y="134.5"/><ellipse cx="847.83" cy="150.5" fill="#B4A7E5" rx="11" ry="11" style="stroke:#181818;stroke-width:1.0;"/><path d="M848.7831,147.1406 L848.7831,153.7969 L850.5019,153.7969 Q851.1112,153.7969 851.3769,154.0313 Q851.6425,154.2656 851.6425,154.6563 Q851.6425,155.0313 851.3769,155.2656 Q851.1112,155.5 850.5019,155.5 L845.3612,155.5 Q844.7519,155.5 844.4862,155.2656 Q844.2206,155.0313 844.2206,154.6406 Q844.2206,154.2656 844.4862,154.0313 Q844.7519,153.7969 845.3612,153.7969 L847.08,153.7969 L847.08,147.1406 L845.3612,147.1406 Q844.7519,147.1406 844.4862,146.9063 Q844.2206,146.6719 844.2206,146.2813 Q844.2206,145.9063 844.4862,145.6719 Q844.7519,145.4375 845.3612,145.4375 L850.5019,145.4375 Q851.1112,145.4375 851.3769,145.6719 Q851.6425,145.9063 851.6425,146.2813 Q851.6425,146.6719 851.3769,146.9063 Q851.1112,147.1406 850.5019,147.1406 L848.7831,147.1406 Z " fill="#000000"/><text fill="#000000" font-family="sans-serif" font-size="14" font-style="italic" lengthAdjust="spacing" textLength="116" x="861.83" y="156.2969">RepositoryFactory</text><line style="stroke:#181818;stroke-width:0.5;" x1="833.83" x2="979.83" y1="166.5" y2="166.5"/><line style="stroke:#181818;stroke-width:0.5;" x1="833.83" x2="979.83" y1="174.5" y2="174.5"/></g><!--class JobOpeningRepository--><g id="elem_JobOpeningRepository"><rect codeLine="7" fill="#F1F1F1" height="60.582" id="JobOpeningRepository" rx="2.5" ry="2.5" style="stroke:#181818;stroke-width:0.5;" width="177" x="932.33" y="249"/><ellipse cx="947.33" cy="271.291" fill="#B4A7E5" rx="11" ry="11" style="stroke:#181818;stroke-width:1.0;"/><path d="M948.2831,267.9316 L948.2831,274.5879 L950.0019,274.5879 Q950.6112,274.5879 950.8769,274.8223 Q951.1425,275.0566 951.1425,275.4473 Q951.1425,275.8223 950.8769,276.0566 Q950.6112,276.291 950.0019,276.291 L944.8612,276.291 Q944.2519,276.291 943.9862,276.0566 Q943.7206,275.8223 943.7206,275.4316 Q943.7206,275.0566 943.9862,274.8223 Q944.2519,274.5879 944.8612,274.5879 L946.58,274.5879 L946.58,267.9316 L944.8612,267.9316 Q944.2519,267.9316 943.9862,267.6973 Q943.7206,267.4629 943.7206,267.0723 Q943.7206,266.6973 943.9862,266.4629 Q944.2519,266.2285 944.8612,266.2285 L950.0019,266.2285 Q950.6112,266.2285 950.8769,266.4629 Q951.1425,266.6973 951.1425,267.0723 Q951.1425,267.4629 950.8769,267.6973 Q950.6112,267.9316 950.0019,267.9316 L948.2831,267.9316 Z " fill="#000000"/><text fill="#000000" font-family="sans-serif" font-size="12" font-style="italic" lengthAdjust="spacing" textLength="68" x="999.83" y="266.9492">&#171;repository&#187;</text><text fill="#000000" font-family="sans-serif" font-size="14" font-style="italic" lengthAdjust="spacing" textLength="145" x="961.33" y="285.0684">JobOpeningRepository</text><line style="stroke:#181818;stroke-width:0.5;" x1="933.33" x2="1108.33" y1="293.582" y2="293.582"/><line style="stroke:#181818;stroke-width:0.5;" x1="933.33" x2="1108.33" y1="301.582" y2="301.582"/></g><!--class JobRequirementSpecificationRepository--><g id="elem_JobRequirementSpecificationRepository"><rect codeLine="8" fill="#F1F1F1" height="60.582" id="JobRequirementSpecificationRepository" rx="2.5" ry="2.5" style="stroke:#181818;stroke-width:0.5;" width="284" x="431.83" y="249"/><ellipse cx="446.83" cy="271.291" fill="#B4A7E5" rx="11" ry="11" style="stroke:#181818;stroke-width:1.0;"/><path d="M447.7831,267.9316 L447.7831,274.5879 L449.5019,274.5879 Q450.1113,274.5879 450.3769,274.8223 Q450.6425,275.0566 450.6425,275.4473 Q450.6425,275.8223 450.3769,276.0566 Q450.1113,276.291 449.5019,276.291 L444.3613,276.291 Q443.7519,276.291 443.4863,276.0566 Q443.2206,275.8223 443.2206,275.4316 Q443.2206,275.0566 443.4863,274.8223 Q443.7519,274.5879 444.3613,274.5879 L446.08,274.5879 L446.08,267.9316 L444.3613,267.9316 Q443.7519,267.9316 443.4863,267.6973 Q443.2206,267.4629 443.2206,267.0723 Q443.2206,266.6973 443.4863,266.4629 Q443.7519,266.2285 444.3613,266.2285 L449.5019,266.2285 Q450.1113,266.2285 450.3769,266.4629 Q450.6425,266.6973 450.6425,267.0723 Q450.6425,267.4629 450.3769,267.6973 Q450.1113,267.9316 449.5019,267.9316 L447.7831,267.9316 Z " fill="#000000"/><text fill="#000000" font-family="sans-serif" font-size="12" font-style="italic" lengthAdjust="spacing" textLength="68" x="552.83" y="266.9492">&#171;repository&#187;</text><text fill="#000000" font-family="sans-serif" font-size="14" font-style="italic" lengthAdjust="spacing" textLength="252" x="460.83" y="285.0684">JobRequirementSpecificationRepository</text><line style="stroke:#181818;stroke-width:0.5;" x1="432.83" x2="714.83" y1="293.582" y2="293.582"/><line style="stroke:#181818;stroke-width:0.5;" x1="432.83" x2="714.83" y1="301.582" y2="301.582"/></g><!--class InMemoryJobOpeningRepository--><g id="elem_InMemoryJobOpeningRepository"><rect codeLine="9" fill="#F1F1F1" height="60.582" id="InMemoryJobOpeningRepository" rx="2.5" ry="2.5" style="stroke:#181818;stroke-width:0.5;" width="237" x="1016.33" y="128"/><ellipse cx="1031.33" cy="150.291" fill="#ADD1B2" rx="11" ry="11" style="stroke:#181818;stroke-width:1.0;"/><path d="M1034.0956,146.166 Q1034.2519,145.9473 1034.4394,145.8379 Q1034.6269,145.7285 1034.8456,145.7285 Q1035.2206,145.7285 1035.455,145.9941 Q1035.6894,146.2441 1035.6894,146.8535 L1035.6894,148.3066 Q1035.6894,148.916 1035.455,149.1816 Q1035.2206,149.4473 1034.8456,149.4473 Q1034.5019,149.4473 1034.2988,149.2441 Q1034.0956,149.0566 1033.9863,148.541 Q1033.9394,148.1816 1033.7519,147.9941 Q1033.4238,147.6191 1032.8144,147.4004 Q1032.205,147.1816 1031.58,147.1816 Q1030.8144,147.1816 1030.1738,147.5098 Q1029.5488,147.8379 1029.0488,148.5879 Q1028.5644,149.3379 1028.5644,150.3691 L1028.5644,151.4629 Q1028.5644,152.6973 1029.455,153.5254 Q1030.3456,154.3379 1031.9394,154.3379 Q1032.8769,154.3379 1033.5331,154.0879 Q1033.9238,153.9316 1034.3456,153.4941 Q1034.6113,153.2285 1034.7519,153.1504 Q1034.9081,153.0723 1035.1113,153.0723 Q1035.4394,153.0723 1035.6894,153.3379 Q1035.955,153.5879 1035.955,153.9316 Q1035.955,154.2754 1035.6113,154.6816 Q1035.1113,155.2598 1034.3144,155.5879 Q1033.2363,156.041 1031.9394,156.041 Q1030.4238,156.041 1029.2206,155.416 Q1028.2363,154.916 1027.5488,153.8535 Q1026.8613,152.7754 1026.8613,151.4941 L1026.8613,150.3379 Q1026.8613,149.0098 1027.4706,147.8691 Q1028.0956,146.7129 1029.1894,146.1035 Q1030.2831,145.4785 1031.5175,145.4785 Q1032.2519,145.4785 1032.8925,145.6504 Q1033.5488,145.8066 1034.0956,146.166 Z " fill="#000000"/><text fill="#000000" font-family="sans-serif" font-size="12" font-style="italic" lengthAdjust="spacing" textLength="77" x="1109.33" y="145.9492">&#171;persistence&#187;</text><text fill="#000000" font-family="sans-serif" font-size="14" lengthAdjust="spacing" textLength="205" x="1045.33" y="164.0684">InMemoryJobOpeningRepository</text><line style="stroke:#181818;stroke-width:0.5;" x1="1017.33" x2="1252.33" y1="172.582" y2="172.582"/><line style="stroke:#181818;stroke-width:0.5;" x1="1017.33" x2="1252.33" y1="180.582" y2="180.582"/></g><!--class JpaJobOpeningRepository--><g id="elem_JpaJobOpeningRepository"><rect codeLine="10" fill="#F1F1F1" height="60.582" id="JpaJobOpeningRepository" rx="2.5" ry="2.5" style="stroke:#181818;stroke-width:0.5;" width="198" x="1288.83" y="128"/><ellipse cx="1303.83" cy="150.291" fill="#ADD1B2" rx="11" ry="11" style="stroke:#181818;stroke-width:1.0;"/><path d="M1306.5956,146.166 Q1306.7519,145.9473 1306.9394,145.8379 Q1307.1269,145.7285 1307.3456,145.7285 Q1307.7206,145.7285 1307.955,145.9941 Q1308.1894,146.2441 1308.1894,146.8535 L1308.1894,148.3066 Q1308.1894,148.916 1307.955,149.1816 Q1307.7206,149.4473 1307.3456,149.4473 Q1307.0019,149.4473 1306.7988,149.2441 Q1306.5956,149.0566 1306.4863,148.541 Q1306.4394,148.1816 1306.2519,147.9941 Q1305.9238,147.6191 1305.3144,147.4004 Q1304.705,147.1816 1304.08,147.1816 Q1303.3144,147.1816 1302.6738,147.5098 Q1302.0488,147.8379 1301.5488,148.5879 Q1301.0644,149.3379 1301.0644,150.3691 L1301.0644,151.4629 Q1301.0644,152.6973 1301.955,153.5254 Q1302.8456,154.3379 1304.4394,154.3379 Q1305.3769,154.3379 1306.0331,154.0879 Q1306.4238,153.9316 1306.8456,153.4941 Q1307.1113,153.2285 1307.2519,153.1504 Q1307.4081,153.0723 1307.6113,153.0723 Q1307.9394,153.0723 1308.1894,153.3379 Q1308.455,153.5879 1308.455,153.9316 Q1308.455,154.2754 1308.1113,154.6816 Q1307.6113,155.2598 1306.8144,155.5879 Q1305.7363,156.041 1304.4394,156.041 Q1302.9238,156.041 1301.7206,155.416 Q1300.7363,154.916 1300.0488,153.8535 Q1299.3613,152.7754 1299.3613,151.4941 L1299.3613,150.3379 Q1299.3613,149.0098 1299.9706,147.8691 Q1300.5956,146.7129 1301.6894,146.1035 Q1302.7831,145.4785 1304.0175,145.4785 Q1304.7519,145.4785 1305.3925,145.6504 Q1306.0488,145.8066 1306.5956,146.166 Z " fill="#000000"/><text fill="#000000" font-family="sans-serif" font-size="12" font-style="italic" lengthAdjust="spacing" textLength="77" x="1362.33" y="145.9492">&#171;persistence&#187;</text><text fill="#000000" font-family="sans-serif" font-size="14" lengthAdjust="spacing" textLength="166" x="1317.83" y="164.0684">JpaJobOpeningRepository</text><line style="stroke:#181818;stroke-width:0.5;" x1="1289.83" x2="1485.83" y1="172.582" y2="172.582"/><line style="stroke:#181818;stroke-width:0.5;" x1="1289.83" x2="1485.83" y1="180.582" y2="180.582"/></g><!--class InMemoryJobRequirementSpecificationRepository--><g id="elem_InMemoryJobRequirementSpecificationRepository"><rect codeLine="11" fill="#F1F1F1" height="60.582" id="InMemoryJobRequirementSpecificationRepository" rx="2.5" ry="2.5" style="stroke:#181818;stroke-width:0.5;" width="344" x="41.83" y="128"/><ellipse cx="56.83" cy="150.291" fill="#ADD1B2" rx="11" ry="11" style="stroke:#181818;stroke-width:1.0;"/><path d="M59.5956,146.166 Q59.7519,145.9473 59.9394,145.8379 Q60.1269,145.7285 60.3456,145.7285 Q60.7206,145.7285 60.955,145.9941 Q61.1894,146.2441 61.1894,146.8535 L61.1894,148.3066 Q61.1894,148.916 60.955,149.1816 Q60.7206,149.4473 60.3456,149.4473 Q60.0019,149.4473 59.7988,149.2441 Q59.5956,149.0566 59.4863,148.541 Q59.4394,148.1816 59.2519,147.9941 Q58.9238,147.6191 58.3144,147.4004 Q57.705,147.1816 57.08,147.1816 Q56.3144,147.1816 55.6738,147.5098 Q55.0488,147.8379 54.5488,148.5879 Q54.0644,149.3379 54.0644,150.3691 L54.0644,151.4629 Q54.0644,152.6973 54.955,153.5254 Q55.8456,154.3379 57.4394,154.3379 Q58.3769,154.3379 59.0331,154.0879 Q59.4238,153.9316 59.8456,153.4941 Q60.1113,153.2285 60.2519,153.1504 Q60.4081,153.0723 60.6113,153.0723 Q60.9394,153.0723 61.1894,153.3379 Q61.455,153.5879 61.455,153.9316 Q61.455,154.2754 61.1113,154.6816 Q60.6113,155.2598 59.8144,155.5879 Q58.7363,156.041 57.4394,156.041 Q55.9238,156.041 54.7206,155.416 Q53.7363,154.916 53.0488,153.8535 Q52.3613,152.7754 52.3613,151.4941 L52.3613,150.3379 Q52.3613,149.0098 52.9706,147.8691 Q53.5956,146.7129 54.6894,146.1035 Q55.7831,145.4785 57.0175,145.4785 Q57.7519,145.4785 58.3925,145.6504 Q59.0488,145.8066 59.5956,146.166 Z " fill="#000000"/><text fill="#000000" font-family="sans-serif" font-size="12" font-style="italic" lengthAdjust="spacing" textLength="77" x="188.33" y="145.9492">&#171;persistence&#187;</text><text fill="#000000" font-family="sans-serif" font-size="14" lengthAdjust="spacing" textLength="312" x="70.83" y="164.0684">InMemoryJobRequirementSpecificationRepository</text><line style="stroke:#181818;stroke-width:0.5;" x1="42.83" x2="384.83" y1="172.582" y2="172.582"/><line style="stroke:#181818;stroke-width:0.5;" x1="42.83" x2="384.83" y1="180.582" y2="180.582"/></g><!--class JpaJobRequirementSpecificationRepository--><g id="elem_JpaJobRequirementSpecificationRepository"><rect codeLine="12" fill="#F1F1F1" height="60.582" id="JpaJobRequirementSpecificationRepository" rx="2.5" ry="2.5" style="stroke:#181818;stroke-width:0.5;" width="305" x="421.33" y="128"/><ellipse cx="436.33" cy="150.291" fill="#ADD1B2" rx="11" ry="11" style="stroke:#181818;stroke-width:1.0;"/><path d="M439.0956,146.166 Q439.2519,145.9473 439.4394,145.8379 Q439.6269,145.7285 439.8456,145.7285 Q440.2206,145.7285 440.455,145.9941 Q440.6894,146.2441 440.6894,146.8535 L440.6894,148.3066 Q440.6894,148.916 440.455,149.1816 Q440.2206,149.4473 439.8456,149.4473 Q439.5019,149.4473 439.2988,149.2441 Q439.0956,149.0566 438.9863,148.541 Q438.9394,148.1816 438.7519,147.9941 Q438.4238,147.6191 437.8144,147.4004 Q437.205,147.1816 436.58,147.1816 Q435.8144,147.1816 435.1738,147.5098 Q434.5488,147.8379 434.0488,148.5879 Q433.5644,149.3379 433.5644,150.3691 L433.5644,151.4629 Q433.5644,152.6973 434.455,153.5254 Q435.3456,154.3379 436.9394,154.3379 Q437.8769,154.3379 438.5331,154.0879 Q438.9238,153.9316 439.3456,153.4941 Q439.6113,153.2285 439.7519,153.1504 Q439.9081,153.0723 440.1113,153.0723 Q440.4394,153.0723 440.6894,153.3379 Q440.955,153.5879 440.955,153.9316 Q440.955,154.2754 440.6113,154.6816 Q440.1113,155.2598 439.3144,155.5879 Q438.2363,156.041 436.9394,156.041 Q435.4238,156.041 434.2206,155.416 Q433.2363,154.916 432.5488,153.8535 Q431.8613,152.7754 431.8613,151.4941 L431.8613,150.3379 Q431.8613,149.0098 432.4706,147.8691 Q433.0956,146.7129 434.1894,146.1035 Q435.2831,145.4785 436.5175,145.4785 Q437.2519,145.4785 437.8925,145.6504 Q438.5488,145.8066 439.0956,146.166 Z " fill="#000000"/><text fill="#000000" font-family="sans-serif" font-size="12" font-style="italic" lengthAdjust="spacing" textLength="77" x="548.33" y="145.9492">&#171;persistence&#187;</text><text fill="#000000" font-family="sans-serif" font-size="14" lengthAdjust="spacing" textLength="273" x="450.33" y="164.0684">JpaJobRequirementSpecificationRepository</text><line style="stroke:#181818;stroke-width:0.5;" x1="422.33" x2="725.33" y1="172.582" y2="172.582"/><line style="stroke:#181818;stroke-width:0.5;" x1="422.33" x2="725.33" y1="180.582" y2="180.582"/></g><!--class JobOpening--><g id="elem_JobOpening"><rect codeLine="13" fill="#F1F1F1" height="60.582" id="JobOpening" rx="2.5" ry="2.5" style="stroke:#181818;stroke-width:0.5;" width="108" x="966.83" y="370"/><ellipse cx="981.83" cy="392.291" fill="#ADD1B2" rx="11" ry="11" style="stroke:#181818;stroke-width:1.0;"/><path d="M984.5956,388.166 Q984.7519,387.9473 984.9394,387.8379 Q985.1269,387.7285 985.3456,387.7285 Q985.7206,387.7285 985.955,387.9941 Q986.1894,388.2441 986.1894,388.8535 L986.1894,390.3066 Q986.1894,390.916 985.955,391.1816 Q985.7206,391.4473 985.3456,391.4473 Q985.0019,391.4473 984.7987,391.2441 Q984.5956,391.0566 984.4862,390.541 Q984.4394,390.1816 984.2519,389.9941 Q983.9237,389.6191 983.3144,389.4004 Q982.705,389.1816 982.08,389.1816 Q981.3144,389.1816 980.6737,389.5098 Q980.0487,389.8379 979.5487,390.5879 Q979.0644,391.3379 979.0644,392.3691 L979.0644,393.4629 Q979.0644,394.6973 979.955,395.5254 Q980.8456,396.3379 982.4394,396.3379 Q983.3769,396.3379 984.0331,396.0879 Q984.4237,395.9316 984.8456,395.4941 Q985.1112,395.2285 985.2519,395.1504 Q985.4081,395.0723 985.6112,395.0723 Q985.9394,395.0723 986.1894,395.3379 Q986.455,395.5879 986.455,395.9316 Q986.455,396.2754 986.1112,396.6816 Q985.6112,397.2598 984.8144,397.5879 Q983.7362,398.041 982.4394,398.041 Q980.9237,398.041 979.7206,397.416 Q978.7362,396.916 978.0487,395.8535 Q977.3612,394.7754 977.3612,393.4941 L977.3612,392.3379 Q977.3612,391.0098 977.9706,389.8691 Q978.5956,388.7129 979.6894,388.1035 Q980.7831,387.4785 982.0175,387.4785 Q982.7519,387.4785 983.3925,387.6504 Q984.0487,387.8066 984.5956,388.166 Z " fill="#000000"/><text fill="#000000" font-family="sans-serif" font-size="12" font-style="italic" lengthAdjust="spacing" textLength="56" x="1005.83" y="387.9492">&#171;domain&#187;</text><text fill="#000000" font-family="sans-serif" font-size="14" lengthAdjust="spacing" textLength="76" x="995.83" y="406.0684">JobOpening</text><line style="stroke:#181818;stroke-width:0.5;" x1="967.83" x2="1073.83" y1="414.582" y2="414.582"/><line style="stroke:#181818;stroke-width:0.5;" x1="967.83" x2="1073.83" y1="422.582" y2="422.582"/></g><!--class JobRequirementSpecification--><g id="elem_JobRequirementSpecification"><rect codeLine="14" fill="#F1F1F1" height="60.582" id="JobRequirementSpecification" rx="2.5" ry="2.5" style="stroke:#181818;stroke-width:0.5;" width="215" x="746.33" y="491"/><ellipse cx="761.33" cy="513.291" fill="#ADD1B2" rx="11" ry="11" style="stroke:#181818;stroke-width:1.0;"/><path d="M764.0956,509.166 Q764.2519,508.9473 764.4394,508.8379 Q764.6269,508.7285 764.8456,508.7285 Q765.2206,508.7285 765.455,508.9941 Q765.6894,509.2441 765.6894,509.8535 L765.6894,511.3066 Q765.6894,511.916 765.455,512.1816 Q765.2206,512.4473 764.8456,512.4473 Q764.5019,512.4473 764.2987,512.2441 Q764.0956,512.0566 763.9862,511.541 Q763.9394,511.1816 763.7519,510.9941 Q763.4237,510.6191 762.8144,510.4004 Q762.205,510.1816 761.58,510.1816 Q760.8144,510.1816 760.1737,510.5098 Q759.5487,510.8379 759.0487,511.5879 Q758.5644,512.3379 758.5644,513.3691 L758.5644,514.4629 Q758.5644,515.6973 759.455,516.5254 Q760.3456,517.3379 761.9394,517.3379 Q762.8769,517.3379 763.5331,517.0879 Q763.9237,516.9316 764.3456,516.4941 Q764.6112,516.2285 764.7519,516.1504 Q764.9081,516.0723 765.1112,516.0723 Q765.4394,516.0723 765.6894,516.3379 Q765.955,516.5879 765.955,516.9316 Q765.955,517.2754 765.6112,517.6816 Q765.1112,518.2598 764.3144,518.5879 Q763.2362,519.041 761.9394,519.041 Q760.4237,519.041 759.2206,518.416 Q758.2362,517.916 757.5487,516.8535 Q756.8612,515.7754 756.8612,514.4941 L756.8612,513.3379 Q756.8612,512.0098 757.4706,510.8691 Q758.0956,509.7129 759.1894,509.1035 Q760.2831,508.4785 761.5175,508.4785 Q762.2519,508.4785 762.8925,508.6504 Q763.5487,508.8066 764.0956,509.166 Z " fill="#000000"/><text fill="#000000" font-family="sans-serif" font-size="12" font-style="italic" lengthAdjust="spacing" textLength="56" x="838.83" y="508.9492">&#171;domain&#187;</text><text fill="#000000" font-family="sans-serif" font-size="14" lengthAdjust="spacing" textLength="183" x="775.33" y="527.0684">JobRequirementSpecification</text><line style="stroke:#181818;stroke-width:0.5;" x1="747.33" x2="960.33" y1="535.582" y2="535.582"/><line style="stroke:#181818;stroke-width:0.5;" x1="747.33" x2="960.33" y1="543.582" y2="543.582"/></g><!--link SelectJobRequirementSpecificationForJobOpeningUI to SelectJobRequirementSpecificationForJobOpeningController--><g id="link_SelectJobRequirementSpecificationForJobOpeningUI_SelectJobRequirementSpecificationForJobOpeningController"><path codeLine="16" d="M442.02,37.5 C453.51,37.5 459,37.5 470.5,37.5 " fill="none" id="SelectJobRequirementSpecificationForJobOpeningUI-to-SelectJobRequirementSpecificationForJobOpeningController" style="stroke:#181818;stroke-width:1.0;"/><polygon fill="#181818" points="476.5,37.5,467.5,33.5,471.5,37.5,467.5,41.5,476.5,37.5" style="stroke:#181818;stroke-width:1.0;"/></g><!--link SelectJobRequirementSpecificationForJobOpeningController to PersistenceContext--><g id="link_SelectJobRequirementSpecificationForJobOpeningController_PersistenceContext"><path codeLine="17" d="M890.99,37.5 C902.5,37.5 908,37.5 919.51,37.5 " fill="none" id="SelectJobRequirementSpecificationForJobOpeningController-to-PersistenceContext" style="stroke:#181818;stroke-width:1.0;"/><polygon fill="#181818" points="925.51,37.5,916.51,33.5,920.51,37.5,916.51,41.5,925.51,37.5" style="stroke:#181818;stroke-width:1.0;"/></g><!--link PersistenceContext to RepositoryFactory--><g id="link_PersistenceContext_RepositoryFactory"><path codeLine="18" d="M984.09,61.73 C967.18,82.69 946.1872,108.71 929.2872,129.66 " fill="none" id="PersistenceContext-to-RepositoryFactory" style="stroke:#181818;stroke-width:1.0;"/><polygon fill="#181818" points="925.52,134.33,934.2841,129.8365,928.6593,130.4384,928.0575,124.8136,925.52,134.33" style="stroke:#181818;stroke-width:1.0;"/></g><!--link SelectJobRequirementSpecificationForJobOpeningController to JobOpeningRepository--><g id="link_SelectJobRequirementSpecificationForJobOpeningController_JobOpeningRepository"><path codeLine="19" d="M703.4,68.03 C726.64,101.19 768.16,154.82 814.83,189 C850.14,214.87 888.4917,233.1015 926.7217,247.8415 " fill="none" id="SelectJobRequirementSpecificationForJobOpeningController-to-JobOpeningRepository" style="stroke:#181818;stroke-width:1.0;stroke-dasharray:7.0,7.0;"/><polygon fill="#181818" points="932.32,250,925.3615,243.0301,927.6548,248.2013,922.4836,250.4945,932.32,250" style="stroke:#181818;stroke-width:1.0;"/></g><!--link SelectJobRequirementSpecificationForJobOpeningController to JobRequirementSpecificationRepository--><g id="link_SelectJobRequirementSpecificationForJobOpeningController_JobRequirementSpecificationRepository"><path codeLine="20" d="M476.71,65.78 C283.88,91.3 25.74,125.82 23.83,128 C6,148.42 6.27,168.35 23.83,189 C75.22,249.43 280.4958,268.9066 425.7058,275.2866 " fill="none" id="SelectJobRequirementSpecificationForJobOpeningController-to-JobRequirementSpecificationRepository" style="stroke:#181818;stroke-width:1.0;stroke-dasharray:7.0,7.0;"/><polygon fill="#181818" points="431.7,275.55,422.8843,271.1588,426.7048,275.3305,422.5331,279.1511,431.7,275.55" style="stroke:#181818;stroke-width:1.0;"/></g><!--link RepositoryFactory to JobOpeningRepository--><g id="link_RepositoryFactory_JobOpeningRepository"><path codeLine="21" d="M929.08,182.73 C947.23,201.67 968.8083,224.1983 988.4183,244.6583 " fill="none" id="RepositoryFactory-to-JobOpeningRepository" style="stroke:#181818;stroke-width:1.0;"/><polygon fill="#181818" points="992.57,248.99,989.2302,239.7247,989.1102,245.3803,983.4547,245.2603,992.57,248.99" style="stroke:#181818;stroke-width:1.0;"/></g><!--link RepositoryFactory to JobRequirementSpecificationRepository--><g id="link_RepositoryFactory_JobRequirementSpecificationRepository"><path codeLine="22" d="M842.23,182.59 C789.27,201.51 719.6202,226.4014 662.2402,246.9014 " fill="none" id="RepositoryFactory-to-JobRequirementSpecificationRepository" style="stroke:#181818;stroke-width:1.0;"/><polygon fill="#181818" points="656.59,248.92,666.4111,249.6589,661.2985,247.2378,663.7196,242.1252,656.59,248.92" style="stroke:#181818;stroke-width:1.0;"/></g><!--link SelectJobRequirementSpecificationForJobOpeningController to JobOpening--><g id="link_SelectJobRequirementSpecificationForJobOpeningController_JobOpening"><path codeLine="23" d="M890.97,66.01 C896.65,66.69 902.28,67.36 907.83,68 C974.05,75.69 1460.11,78.56 1504.83,128 C1640.64,278.14 1233.3433,363.7034 1080.8833,389.9134 " fill="none" id="SelectJobRequirementSpecificationForJobOpeningController-to-JobOpening" style="stroke:#181818;stroke-width:1.0;stroke-dasharray:7.0,7.0;"/><polygon fill="#181818" points="1074.97,390.93,1084.5176,393.3473,1079.8977,390.0829,1083.1622,385.463,1074.97,390.93" style="stroke:#181818;stroke-width:1.0;"/></g><!--link JobOpeningRepository to JobOpening--><g id="link_JobOpeningRepository_JobOpening"><path codeLine="24" d="M1020.83,310.22 C1020.83,328.4 1020.83,345.56 1020.83,363.74 " fill="none" id="JobOpeningRepository-to-JobOpening" style="stroke:#181818;stroke-width:1.0;"/><polygon fill="#181818" points="1020.83,369.74,1024.83,360.74,1020.83,364.74,1016.83,360.74,1020.83,369.74" style="stroke:#181818;stroke-width:1.0;"/></g><!--link JobRequirementSpecificationRepository to JobRequirementSpecification--><g id="link_JobRequirementSpecificationRepository_JobRequirementSpecification"><path codeLine="25" d="M608.45,310.17 C662.29,356.32 760.9443,440.8855 814.7443,486.9955 " fill="none" id="JobRequirementSpecificationRepository-to-JobRequirementSpecification" style="stroke:#181818;stroke-width:1.0;"/><polygon fill="#181818" points="819.3,490.9,815.0694,482.006,815.5036,487.6462,809.8634,488.0803,819.3,490.9" style="stroke:#181818;stroke-width:1.0;"/></g><!--link JpaJobOpeningRepository to JobOpeningRepository--><g id="link_JpaJobOpeningRepository_JobOpeningRepository"><path codeLine="26" d="M1296.64,189.07 C1239.43,207.62 1183.1525,225.8685 1126.4625,244.2485 " fill="none" id="JpaJobOpeningRepository-to-JobOpeningRepository" style="stroke:#181818;stroke-width:1.0;"/><polygon fill="none" points="1109.34,249.8,1128.313,249.9561,1124.6121,238.541,1109.34,249.8" style="stroke:#181818;stroke-width:1.0;"/></g><!--link InMemoryJobOpeningRepository to JobOpeningRepository--><g id="link_InMemoryJobOpeningRepository_JobOpeningRepository"><path codeLine="27" d="M1106.36,189.22 C1088.95,207.4 1079.1996,217.5597 1061.7896,235.7397 " fill="none" id="InMemoryJobOpeningRepository-to-JobOpeningRepository" style="stroke:#181818;stroke-width:1.0;"/><polygon fill="none" points="1049.34,248.74,1066.1231,239.8896,1057.4562,231.5899,1049.34,248.74" style="stroke:#181818;stroke-width:1.0;"/></g><!--link InMemoryJobRequirementSpecificationRepository to JobRequirementSpecificationRepository--><g id="link_InMemoryJobRequirementSpecificationRepository_JobRequirementSpecificationRepository"><path codeLine="28" d="M303.28,189.07 C358.57,207.34 412.1798,225.0597 467.4398,243.3297 " fill="none" id="InMemoryJobRequirementSpecificationRepository-to-JobRequirementSpecificationRepository" style="stroke:#181818;stroke-width:1.0;"/><polygon fill="none" points="484.53,248.98,469.3233,237.6329,465.5564,249.0264,484.53,248.98" style="stroke:#181818;stroke-width:1.0;"/></g><!--link JpaJobRequirementSpecificationRepository to JobRequirementSpecificationRepository--><g id="link_JpaJobRequirementSpecificationRepository_JobRequirementSpecificationRepository"><path codeLine="29" d="M573.83,189.22 C573.83,207.4 573.83,212.56 573.83,230.74 " fill="none" id="JpaJobRequirementSpecificationRepository-to-JobRequirementSpecificationRepository" style="stroke:#181818;stroke-width:1.0;"/><polygon fill="none" points="573.83,248.74,579.83,230.74,567.83,230.74,573.83,248.74" style="stroke:#181818;stroke-width:1.0;"/></g><!--link JobOpening to JobRequirementSpecification--><g id="link_JobOpening_JobRequirementSpecification"><path codeLine="30" d="M979.12,431.22 C953.52,449.46 925.7467,469.2585 900.1867,487.4685 " fill="none" id="JobOpening-to-JobRequirementSpecification" style="stroke:#181818;stroke-width:1.0;"/><polygon fill="#181818" points="895.3,490.95,904.951,488.9856,899.3722,488.0488,900.309,482.47,895.3,490.95" style="stroke:#181818;stroke-width:1.0;"/></g><!--SRC=[hLJBQiCm4BphAtphIVQz15yAWGHAIq8_G5KswO8UMqc15lBnLTnYEzYgPRSd8UtipkngfBkt4CZVLnKfOS9Pgr9QNKablES752SdD6FDjjY30XcszdK7xsTqeC64FO748qeHq9grTJ7wH63Gd5usnMf53dn4DT6wNbJdmPhWh5BWOZr1f7v0RRbdS1vz02FXYeMFm30kxYWa53iWwp5OzxaMyhhqOXr7XueShjr4YXjqIcyw_LlXnZo2ZWS9GkeQQ5Es96QWUmHP6jECozDRjH5mi5gWwSTITVjWDjjWl5vi9hROXP5qn7B3eu97vD1_YtdBiXwrx9yhJjyv6xJHD3Ug9WdDeFcdsR3HftEhcEMPVK8xIxrJpY-9-Vpw6MIbPSc-vCuy-ztFgTbz1bC3_080]--></g></svg>