<?xml version="1.0" encoding="us-ascii" standalone="no"?><svg xmlns="http://www.w3.org/2000/svg" xmlns:xlink="http://www.w3.org/1999/xlink" contentStyleType="text/css" height="497px" preserveAspectRatio="none" style="width:1063px;height:497px;background:#FFFFFF;" version="1.1" viewBox="0 0 1063 497" width="1063px" zoomAndPan="magnify"><defs/><g><!--class ExecuteInterviewEvaluationUI--><g id="elem_ExecuteInterviewEvaluationUI"><rect codeLine="3" fill="#F1F1F1" height="48" id="ExecuteInterviewEvaluationUI" rx="2.5" ry="2.5" style="stroke:#181818;stroke-width:0.5;" width="215" x="7" y="25.5"/><ellipse cx="22" cy="41.5" fill="#ADD1B2" rx="11" ry="11" style="stroke:#181818;stroke-width:1.0;"/><path d="M24.7656,37.375 Q24.9219,37.1563 25.1094,37.0469 Q25.2969,36.9375 25.5156,36.9375 Q25.8906,36.9375 26.125,37.2031 Q26.3594,37.4531 26.3594,38.0625 L26.3594,39.5156 Q26.3594,40.125 26.125,40.3906 Q25.8906,40.6563 25.5156,40.6563 Q25.1719,40.6563 24.9688,40.4531 Q24.7656,40.2656 24.6563,39.75 Q24.6094,39.3906 24.4219,39.2031 Q24.0938,38.8281 23.4844,38.6094 Q22.875,38.3906 22.25,38.3906 Q21.4844,38.3906 20.8438,38.7188 Q20.2188,39.0469 19.7188,39.7969 Q19.2344,40.5469 19.2344,41.5781 L19.2344,42.6719 Q19.2344,43.9063 20.125,44.7344 Q21.0156,45.5469 22.6094,45.5469 Q23.5469,45.5469 24.2031,45.2969 Q24.5938,45.1406 25.0156,44.7031 Q25.2813,44.4375 25.4219,44.3594 Q25.5781,44.2813 25.7813,44.2813 Q26.1094,44.2813 26.3594,44.5469 Q26.625,44.7969 26.625,45.1406 Q26.625,45.4844 26.2813,45.8906 Q25.7813,46.4688 24.9844,46.7969 Q23.9063,47.25 22.6094,47.25 Q21.0938,47.25 19.8906,46.625 Q18.9063,46.125 18.2188,45.0625 Q17.5313,43.9844 17.5313,42.7031 L17.5313,41.5469 Q17.5313,40.2188 18.1406,39.0781 Q18.7656,37.9219 19.8594,37.3125 Q20.9531,36.6875 22.1875,36.6875 Q22.9219,36.6875 23.5625,36.8594 Q24.2188,37.0156 24.7656,37.375 Z " fill="#000000"/><text fill="#000000" font-family="sans-serif" font-size="14" lengthAdjust="spacing" textLength="183" x="36" y="47.2969">ExecuteInterviewEvaluationUI</text><line style="stroke:#181818;stroke-width:0.5;" x1="8" x2="221" y1="57.5" y2="57.5"/><line style="stroke:#181818;stroke-width:0.5;" x1="8" x2="221" y1="65.5" y2="65.5"/></g><!--class ExecuteInterviewEvaluationController--><g id="elem_ExecuteInterviewEvaluationController"><rect codeLine="4" fill="#F1F1F1" height="85.2422" id="ExecuteInterviewEvaluationController" rx="2.5" ry="2.5" style="stroke:#181818;stroke-width:0.5;" width="265" x="257" y="7"/><ellipse cx="272" cy="23" fill="#ADD1B2" rx="11" ry="11" style="stroke:#181818;stroke-width:1.0;"/><path d="M274.7656,18.875 Q274.9219,18.6563 275.1094,18.5469 Q275.2969,18.4375 275.5156,18.4375 Q275.8906,18.4375 276.125,18.7031 Q276.3594,18.9531 276.3594,19.5625 L276.3594,21.0156 Q276.3594,21.625 276.125,21.8906 Q275.8906,22.1563 275.5156,22.1563 Q275.1719,22.1563 274.9688,21.9531 Q274.7656,21.7656 274.6563,21.25 Q274.6094,20.8906 274.4219,20.7031 Q274.0938,20.3281 273.4844,20.1094 Q272.875,19.8906 272.25,19.8906 Q271.4844,19.8906 270.8438,20.2188 Q270.2188,20.5469 269.7188,21.2969 Q269.2344,22.0469 269.2344,23.0781 L269.2344,24.1719 Q269.2344,25.4063 270.125,26.2344 Q271.0156,27.0469 272.6094,27.0469 Q273.5469,27.0469 274.2031,26.7969 Q274.5938,26.6406 275.0156,26.2031 Q275.2813,25.9375 275.4219,25.8594 Q275.5781,25.7813 275.7813,25.7813 Q276.1094,25.7813 276.3594,26.0469 Q276.625,26.2969 276.625,26.6406 Q276.625,26.9844 276.2813,27.3906 Q275.7813,27.9688 274.9844,28.2969 Q273.9063,28.75 272.6094,28.75 Q271.0938,28.75 269.8906,28.125 Q268.9063,27.625 268.2188,26.5625 Q267.5313,25.4844 267.5313,24.2031 L267.5313,23.0469 Q267.5313,21.7188 268.1406,20.5781 Q268.7656,19.4219 269.8594,18.8125 Q270.9531,18.1875 272.1875,18.1875 Q272.9219,18.1875 273.5625,18.3594 Q274.2188,18.5156 274.7656,18.875 Z " fill="#000000"/><text fill="#000000" font-family="sans-serif" font-size="14" lengthAdjust="spacing" textLength="233" x="286" y="28.7969">ExecuteInterviewEvaluationController</text><line style="stroke:#181818;stroke-width:0.5;" x1="258" x2="521" y1="39" y2="39"/><line style="stroke:#181818;stroke-width:0.5;" x1="258" x2="521" y1="47" y2="47"/><text fill="#000000" font-family="sans-serif" font-size="14" lengthAdjust="spacing" textLength="196" x="263" y="66.1074">jobOpeningsInInterviewPhase()</text><text fill="#000000" font-family="sans-serif" font-size="14" lengthAdjust="spacing" textLength="253" x="263" y="84.7285">executeInterviewEvaluation(jobOpening)</text></g><!--class ExecuteInterviewEvaluationService--><g id="elem_ExecuteInterviewEvaluationService"><rect codeLine="8" fill="#F1F1F1" height="66.6211" id="ExecuteInterviewEvaluationService" rx="2.5" ry="2.5" style="stroke:#181818;stroke-width:0.5;" width="368" x="557.5" y="16"/><ellipse cx="628.25" cy="32" fill="#ADD1B2" rx="11" ry="11" style="stroke:#181818;stroke-width:1.0;"/><path d="M631.0156,27.875 Q631.1719,27.6563 631.3594,27.5469 Q631.5469,27.4375 631.7656,27.4375 Q632.1406,27.4375 632.375,27.7031 Q632.6094,27.9531 632.6094,28.5625 L632.6094,30.0156 Q632.6094,30.625 632.375,30.8906 Q632.1406,31.1563 631.7656,31.1563 Q631.4219,31.1563 631.2188,30.9531 Q631.0156,30.7656 630.9063,30.25 Q630.8594,29.8906 630.6719,29.7031 Q630.3438,29.3281 629.7344,29.1094 Q629.125,28.8906 628.5,28.8906 Q627.7344,28.8906 627.0938,29.2188 Q626.4688,29.5469 625.9688,30.2969 Q625.4844,31.0469 625.4844,32.0781 L625.4844,33.1719 Q625.4844,34.4063 626.375,35.2344 Q627.2656,36.0469 628.8594,36.0469 Q629.7969,36.0469 630.4531,35.7969 Q630.8438,35.6406 631.2656,35.2031 Q631.5313,34.9375 631.6719,34.8594 Q631.8281,34.7813 632.0313,34.7813 Q632.3594,34.7813 632.6094,35.0469 Q632.875,35.2969 632.875,35.6406 Q632.875,35.9844 632.5313,36.3906 Q632.0313,36.9688 631.2344,37.2969 Q630.1563,37.75 628.8594,37.75 Q627.3438,37.75 626.1406,37.125 Q625.1563,36.625 624.4688,35.5625 Q623.7813,34.4844 623.7813,33.2031 L623.7813,32.0469 Q623.7813,30.7188 624.3906,29.5781 Q625.0156,28.4219 626.1094,27.8125 Q627.2031,27.1875 628.4375,27.1875 Q629.1719,27.1875 629.8125,27.3594 Q630.4688,27.5156 631.0156,27.875 Z " fill="#000000"/><text fill="#000000" font-family="sans-serif" font-size="14" lengthAdjust="spacing" textLength="218" x="648.75" y="37.7969">ExecuteInterviewEvaluationService</text><line style="stroke:#181818;stroke-width:0.5;" x1="558.5" x2="924.5" y1="48" y2="48"/><line style="stroke:#181818;stroke-width:0.5;" x1="558.5" x2="924.5" y1="56" y2="56"/><text fill="#000000" font-family="sans-serif" font-size="14" lengthAdjust="spacing" textLength="356" x="563.5" y="75.1074">executeInterviewEvaluation(jobOpening, jobApplications)</text></g><!--class JobOpeningRepository--><g id="elem_JobOpeningRepository"><rect codeLine="11" fill="#F1F1F1" height="66.6211" id="JobOpeningRepository" rx="2.5" ry="2.5" style="stroke:#181818;stroke-width:0.5;" width="177" x="14" y="161"/><ellipse cx="29" cy="177" fill="#B4A7E5" rx="11" ry="11" style="stroke:#181818;stroke-width:1.0;"/><path d="M29.9531,173.6406 L29.9531,180.2969 L31.6719,180.2969 Q32.2813,180.2969 32.5469,180.5313 Q32.8125,180.7656 32.8125,181.1563 Q32.8125,181.5313 32.5469,181.7656 Q32.2813,182 31.6719,182 L26.5313,182 Q25.9219,182 25.6563,181.7656 Q25.3906,181.5313 25.3906,181.1406 Q25.3906,180.7656 25.6563,180.5313 Q25.9219,180.2969 26.5313,180.2969 L28.25,180.2969 L28.25,173.6406 L26.5313,173.6406 Q25.9219,173.6406 25.6563,173.4063 Q25.3906,173.1719 25.3906,172.7813 Q25.3906,172.4063 25.6563,172.1719 Q25.9219,171.9375 26.5313,171.9375 L31.6719,171.9375 Q32.2813,171.9375 32.5469,172.1719 Q32.8125,172.4063 32.8125,172.7813 Q32.8125,173.1719 32.5469,173.4063 Q32.2813,173.6406 31.6719,173.6406 L29.9531,173.6406 Z " fill="#000000"/><text fill="#000000" font-family="sans-serif" font-size="14" font-style="italic" lengthAdjust="spacing" textLength="145" x="43" y="182.7969">JobOpeningRepository</text><line style="stroke:#181818;stroke-width:0.5;" x1="15" x2="190" y1="193" y2="193"/><line style="stroke:#181818;stroke-width:0.5;" x1="15" x2="190" y1="201" y2="201"/><text fill="#000000" font-family="sans-serif" font-size="14" lengthAdjust="spacing" textLength="139" x="20" y="220.1074">findInInterviewPhase()</text></g><!--class JobApplicationRepository--><g id="elem_JobApplicationRepository"><rect codeLine="14" fill="#F1F1F1" height="85.2422" id="JobApplicationRepository" rx="2.5" ry="2.5" style="stroke:#181818;stroke-width:0.5;" width="364" x="226.5" y="152"/><ellipse cx="324.25" cy="168" fill="#B4A7E5" rx="11" ry="11" style="stroke:#181818;stroke-width:1.0;"/><path d="M325.2031,164.6406 L325.2031,171.2969 L326.9219,171.2969 Q327.5313,171.2969 327.7969,171.5313 Q328.0625,171.7656 328.0625,172.1563 Q328.0625,172.5313 327.7969,172.7656 Q327.5313,173 326.9219,173 L321.7813,173 Q321.1719,173 320.9063,172.7656 Q320.6406,172.5313 320.6406,172.1406 Q320.6406,171.7656 320.9063,171.5313 Q321.1719,171.2969 321.7813,171.2969 L323.5,171.2969 L323.5,164.6406 L321.7813,164.6406 Q321.1719,164.6406 320.9063,164.4063 Q320.6406,164.1719 320.6406,163.7813 Q320.6406,163.4063 320.9063,163.1719 Q321.1719,162.9375 321.7813,162.9375 L326.9219,162.9375 Q327.5313,162.9375 327.7969,163.1719 Q328.0625,163.4063 328.0625,163.7813 Q328.0625,164.1719 327.7969,164.4063 Q327.5313,164.6406 326.9219,164.6406 L325.2031,164.6406 Z " fill="#000000"/><text fill="#000000" font-family="sans-serif" font-size="14" font-style="italic" lengthAdjust="spacing" textLength="160" x="344.75" y="173.7969">JobApplicationRepository</text><line style="stroke:#181818;stroke-width:0.5;" x1="227.5" x2="589.5" y1="184" y2="184"/><line style="stroke:#181818;stroke-width:0.5;" x1="227.5" x2="589.5" y1="192" y2="192"/><text fill="#000000" font-family="sans-serif" font-size="14" lengthAdjust="spacing" textLength="352" x="232.5" y="211.1074">findByJobOpeningAndWithInterviewAnswer(jobOpening)</text><text fill="#000000" font-family="sans-serif" font-size="14" lengthAdjust="spacing" textLength="128" x="232.5" y="229.7285">save(jobApplication)</text></g><!--class JobOpening--><g id="elem_JobOpening"><rect codeLine="18" fill="#F1F1F1" height="66.6211" id="JobOpening" rx="2.5" ry="2.5" style="stroke:#181818;stroke-width:0.5;" width="232" x="625.5" y="161"/><ellipse cx="699.25" cy="177" fill="#ADD1B2" rx="11" ry="11" style="stroke:#181818;stroke-width:1.0;"/><path d="M702.0156,172.875 Q702.1719,172.6563 702.3594,172.5469 Q702.5469,172.4375 702.7656,172.4375 Q703.1406,172.4375 703.375,172.7031 Q703.6094,172.9531 703.6094,173.5625 L703.6094,175.0156 Q703.6094,175.625 703.375,175.8906 Q703.1406,176.1563 702.7656,176.1563 Q702.4219,176.1563 702.2188,175.9531 Q702.0156,175.7656 701.9063,175.25 Q701.8594,174.8906 701.6719,174.7031 Q701.3438,174.3281 700.7344,174.1094 Q700.125,173.8906 699.5,173.8906 Q698.7344,173.8906 698.0938,174.2188 Q697.4688,174.5469 696.9688,175.2969 Q696.4844,176.0469 696.4844,177.0781 L696.4844,178.1719 Q696.4844,179.4063 697.375,180.2344 Q698.2656,181.0469 699.8594,181.0469 Q700.7969,181.0469 701.4531,180.7969 Q701.8438,180.6406 702.2656,180.2031 Q702.5313,179.9375 702.6719,179.8594 Q702.8281,179.7813 703.0313,179.7813 Q703.3594,179.7813 703.6094,180.0469 Q703.875,180.2969 703.875,180.6406 Q703.875,180.9844 703.5313,181.3906 Q703.0313,181.9688 702.2344,182.2969 Q701.1563,182.75 699.8594,182.75 Q698.3438,182.75 697.1406,182.125 Q696.1563,181.625 695.4688,180.5625 Q694.7813,179.4844 694.7813,178.2031 L694.7813,177.0469 Q694.7813,175.7188 695.3906,174.5781 Q696.0156,173.4219 697.1094,172.8125 Q698.2031,172.1875 699.4375,172.1875 Q700.1719,172.1875 700.8125,172.3594 Q701.4688,172.5156 702.0156,172.875 Z " fill="#000000"/><text fill="#000000" font-family="sans-serif" font-size="14" lengthAdjust="spacing" textLength="76" x="719.75" y="182.7969">JobOpening</text><line style="stroke:#181818;stroke-width:0.5;" x1="626.5" x2="856.5" y1="193" y2="193"/><line style="stroke:#181818;stroke-width:0.5;" x1="626.5" x2="856.5" y1="201" y2="201"/><text fill="#000000" font-family="sans-serif" font-size="14" lengthAdjust="spacing" textLength="220" x="631.5" y="220.1074">evaluateInterview(interviewAnswer)</text></g><!--class JobApplication--><g id="elem_JobApplication"><rect codeLine="21" fill="#F1F1F1" height="66.6211" id="JobApplication" rx="2.5" ry="2.5" style="stroke:#181818;stroke-width:0.5;" width="123" x="895" y="161"/><ellipse cx="910" cy="177" fill="#ADD1B2" rx="11" ry="11" style="stroke:#181818;stroke-width:1.0;"/><path d="M912.7656,172.875 Q912.9219,172.6563 913.1094,172.5469 Q913.2969,172.4375 913.5156,172.4375 Q913.8906,172.4375 914.125,172.7031 Q914.3594,172.9531 914.3594,173.5625 L914.3594,175.0156 Q914.3594,175.625 914.125,175.8906 Q913.8906,176.1563 913.5156,176.1563 Q913.1719,176.1563 912.9688,175.9531 Q912.7656,175.7656 912.6563,175.25 Q912.6094,174.8906 912.4219,174.7031 Q912.0938,174.3281 911.4844,174.1094 Q910.875,173.8906 910.25,173.8906 Q909.4844,173.8906 908.8438,174.2188 Q908.2188,174.5469 907.7188,175.2969 Q907.2344,176.0469 907.2344,177.0781 L907.2344,178.1719 Q907.2344,179.4063 908.125,180.2344 Q909.0156,181.0469 910.6094,181.0469 Q911.5469,181.0469 912.2031,180.7969 Q912.5938,180.6406 913.0156,180.2031 Q913.2813,179.9375 913.4219,179.8594 Q913.5781,179.7813 913.7813,179.7813 Q914.1094,179.7813 914.3594,180.0469 Q914.625,180.2969 914.625,180.6406 Q914.625,180.9844 914.2813,181.3906 Q913.7813,181.9688 912.9844,182.2969 Q911.9063,182.75 910.6094,182.75 Q909.0938,182.75 907.8906,182.125 Q906.9063,181.625 906.2188,180.5625 Q905.5313,179.4844 905.5313,178.2031 L905.5313,177.0469 Q905.5313,175.7188 906.1406,174.5781 Q906.7656,173.4219 907.8594,172.8125 Q908.9531,172.1875 910.1875,172.1875 Q910.9219,172.1875 911.5625,172.3594 Q912.2188,172.5156 912.7656,172.875 Z " fill="#000000"/><text fill="#000000" font-family="sans-serif" font-size="14" lengthAdjust="spacing" textLength="91" x="924" y="182.7969">JobApplication</text><line style="stroke:#181818;stroke-width:0.5;" x1="896" x2="1017" y1="193" y2="193"/><line style="stroke:#181818;stroke-width:0.5;" x1="896" x2="1017" y1="201" y2="201"/><text fill="#000000" font-family="sans-serif" font-size="14" lengthAdjust="spacing" textLength="111" x="901" y="220.1074">interviewAnswer()</text></g><!--class InterviewModelSpecification--><g id="elem_InterviewModelSpecification"><rect codeLine="24" fill="#F1F1F1" height="66.6211" id="InterviewModelSpecification" rx="2.5" ry="2.5" style="stroke:#181818;stroke-width:0.5;" width="205" x="419" y="297"/><ellipse cx="434" cy="313" fill="#ADD1B2" rx="11" ry="11" style="stroke:#181818;stroke-width:1.0;"/><path d="M436.7656,308.875 Q436.9219,308.6563 437.1094,308.5469 Q437.2969,308.4375 437.5156,308.4375 Q437.8906,308.4375 438.125,308.7031 Q438.3594,308.9531 438.3594,309.5625 L438.3594,311.0156 Q438.3594,311.625 438.125,311.8906 Q437.8906,312.1563 437.5156,312.1563 Q437.1719,312.1563 436.9688,311.9531 Q436.7656,311.7656 436.6563,311.25 Q436.6094,310.8906 436.4219,310.7031 Q436.0938,310.3281 435.4844,310.1094 Q434.875,309.8906 434.25,309.8906 Q433.4844,309.8906 432.8438,310.2188 Q432.2188,310.5469 431.7188,311.2969 Q431.2344,312.0469 431.2344,313.0781 L431.2344,314.1719 Q431.2344,315.4063 432.125,316.2344 Q433.0156,317.0469 434.6094,317.0469 Q435.5469,317.0469 436.2031,316.7969 Q436.5938,316.6406 437.0156,316.2031 Q437.2813,315.9375 437.4219,315.8594 Q437.5781,315.7813 437.7813,315.7813 Q438.1094,315.7813 438.3594,316.0469 Q438.625,316.2969 438.625,316.6406 Q438.625,316.9844 438.2813,317.3906 Q437.7813,317.9688 436.9844,318.2969 Q435.9063,318.75 434.6094,318.75 Q433.0938,318.75 431.8906,318.125 Q430.9063,317.625 430.2188,316.5625 Q429.5313,315.4844 429.5313,314.2031 L429.5313,313.0469 Q429.5313,311.7188 430.1406,310.5781 Q430.7656,309.4219 431.8594,308.8125 Q432.9531,308.1875 434.1875,308.1875 Q434.9219,308.1875 435.5625,308.3594 Q436.2188,308.5156 436.7656,308.875 Z " fill="#000000"/><text fill="#000000" font-family="sans-serif" font-size="14" lengthAdjust="spacing" textLength="173" x="448" y="318.7969">InterviewModelSpecification</text><line style="stroke:#181818;stroke-width:0.5;" x1="420" x2="623" y1="329" y2="329"/><line style="stroke:#181818;stroke-width:0.5;" x1="420" x2="623" y1="337" y2="337"/><text fill="#000000" font-family="sans-serif" font-size="14" lengthAdjust="spacing" textLength="165" x="425" y="356.1074">evaluate(interviewAnswer)</text></g><!--class Interview--><g id="elem_Interview"><rect codeLine="27" fill="#F1F1F1" height="66.6211" id="Interview" rx="2.5" ry="2.5" style="stroke:#181818;stroke-width:0.5;" width="198" x="858.5" y="297"/><ellipse cx="925.75" cy="313" fill="#ADD1B2" rx="11" ry="11" style="stroke:#181818;stroke-width:1.0;"/><path d="M928.5156,308.875 Q928.6719,308.6563 928.8594,308.5469 Q929.0469,308.4375 929.2656,308.4375 Q929.6406,308.4375 929.875,308.7031 Q930.1094,308.9531 930.1094,309.5625 L930.1094,311.0156 Q930.1094,311.625 929.875,311.8906 Q929.6406,312.1563 929.2656,312.1563 Q928.9219,312.1563 928.7188,311.9531 Q928.5156,311.7656 928.4063,311.25 Q928.3594,310.8906 928.1719,310.7031 Q927.8438,310.3281 927.2344,310.1094 Q926.625,309.8906 926,309.8906 Q925.2344,309.8906 924.5938,310.2188 Q923.9688,310.5469 923.4688,311.2969 Q922.9844,312.0469 922.9844,313.0781 L922.9844,314.1719 Q922.9844,315.4063 923.875,316.2344 Q924.7656,317.0469 926.3594,317.0469 Q927.2969,317.0469 927.9531,316.7969 Q928.3438,316.6406 928.7656,316.2031 Q929.0313,315.9375 929.1719,315.8594 Q929.3281,315.7813 929.5313,315.7813 Q929.8594,315.7813 930.1094,316.0469 Q930.375,316.2969 930.375,316.6406 Q930.375,316.9844 930.0313,317.3906 Q929.5313,317.9688 928.7344,318.2969 Q927.6563,318.75 926.3594,318.75 Q924.8438,318.75 923.6406,318.125 Q922.6563,317.625 921.9688,316.5625 Q921.2813,315.4844 921.2813,314.2031 L921.2813,313.0469 Q921.2813,311.7188 921.8906,310.5781 Q922.5156,309.4219 923.6094,308.8125 Q924.7031,308.1875 925.9375,308.1875 Q926.6719,308.1875 927.3125,308.3594 Q927.9688,308.5156 928.5156,308.875 Z " fill="#000000"/><text fill="#000000" font-family="sans-serif" font-size="14" lengthAdjust="spacing" textLength="55" x="946.25" y="318.7969">Interview</text><line style="stroke:#181818;stroke-width:0.5;" x1="859.5" x2="1055.5" y1="329" y2="329"/><line style="stroke:#181818;stroke-width:0.5;" x1="859.5" x2="1055.5" y1="337" y2="337"/><text fill="#000000" font-family="sans-serif" font-size="14" lengthAdjust="spacing" textLength="186" x="864.5" y="356.1074">inputStreamOrResourceFile()</text></g><!--class RequirementProcess--><g id="elem_RequirementProcess"><rect codeLine="30" fill="#F1F1F1" height="66.6211" id="RequirementProcess" rx="2.5" ry="2.5" style="stroke:#181818;stroke-width:0.5;" width="164" x="659.5" y="297"/><ellipse cx="674.5" cy="313" fill="#ADD1B2" rx="11" ry="11" style="stroke:#181818;stroke-width:1.0;"/><path d="M677.2656,308.875 Q677.4219,308.6563 677.6094,308.5469 Q677.7969,308.4375 678.0156,308.4375 Q678.3906,308.4375 678.625,308.7031 Q678.8594,308.9531 678.8594,309.5625 L678.8594,311.0156 Q678.8594,311.625 678.625,311.8906 Q678.3906,312.1563 678.0156,312.1563 Q677.6719,312.1563 677.4688,311.9531 Q677.2656,311.7656 677.1563,311.25 Q677.1094,310.8906 676.9219,310.7031 Q676.5938,310.3281 675.9844,310.1094 Q675.375,309.8906 674.75,309.8906 Q673.9844,309.8906 673.3438,310.2188 Q672.7188,310.5469 672.2188,311.2969 Q671.7344,312.0469 671.7344,313.0781 L671.7344,314.1719 Q671.7344,315.4063 672.625,316.2344 Q673.5156,317.0469 675.1094,317.0469 Q676.0469,317.0469 676.7031,316.7969 Q677.0938,316.6406 677.5156,316.2031 Q677.7813,315.9375 677.9219,315.8594 Q678.0781,315.7813 678.2813,315.7813 Q678.6094,315.7813 678.8594,316.0469 Q679.125,316.2969 679.125,316.6406 Q679.125,316.9844 678.7813,317.3906 Q678.2813,317.9688 677.4844,318.2969 Q676.4063,318.75 675.1094,318.75 Q673.5938,318.75 672.3906,318.125 Q671.4063,317.625 670.7188,316.5625 Q670.0313,315.4844 670.0313,314.2031 L670.0313,313.0469 Q670.0313,311.7188 670.6406,310.5781 Q671.2656,309.4219 672.3594,308.8125 Q673.4531,308.1875 674.6875,308.1875 Q675.4219,308.1875 676.0625,308.3594 Q676.7188,308.5156 677.2656,308.875 Z " fill="#000000"/><text fill="#000000" font-family="sans-serif" font-size="14" lengthAdjust="spacing" textLength="132" x="688.5" y="318.7969">RequirementProcess</text><line style="stroke:#181818;stroke-width:0.5;" x1="660.5" x2="822.5" y1="329" y2="329"/><line style="stroke:#181818;stroke-width:0.5;" x1="660.5" x2="822.5" y1="337" y2="337"/><text fill="#000000" font-family="sans-serif" font-size="14" lengthAdjust="spacing" textLength="105" x="665.5" y="356.1074">interviewPhase()</text></g><!--class Phase--><g id="elem_Phase"><rect codeLine="33" fill="#F1F1F1" height="66.6211" id="Phase" rx="2.5" ry="2.5" style="stroke:#181818;stroke-width:0.5;" width="119" x="682" y="424"/><ellipse cx="718.15" cy="440" fill="#ADD1B2" rx="11" ry="11" style="stroke:#181818;stroke-width:1.0;"/><path d="M720.9156,435.875 Q721.0719,435.6563 721.2594,435.5469 Q721.4469,435.4375 721.6656,435.4375 Q722.0406,435.4375 722.275,435.7031 Q722.5094,435.9531 722.5094,436.5625 L722.5094,438.0156 Q722.5094,438.625 722.275,438.8906 Q722.0406,439.1563 721.6656,439.1563 Q721.3219,439.1563 721.1188,438.9531 Q720.9156,438.7656 720.8063,438.25 Q720.7594,437.8906 720.5719,437.7031 Q720.2438,437.3281 719.6344,437.1094 Q719.025,436.8906 718.4,436.8906 Q717.6344,436.8906 716.9938,437.2188 Q716.3688,437.5469 715.8688,438.2969 Q715.3844,439.0469 715.3844,440.0781 L715.3844,441.1719 Q715.3844,442.4063 716.275,443.2344 Q717.1656,444.0469 718.7594,444.0469 Q719.6969,444.0469 720.3531,443.7969 Q720.7438,443.6406 721.1656,443.2031 Q721.4313,442.9375 721.5719,442.8594 Q721.7281,442.7813 721.9313,442.7813 Q722.2594,442.7813 722.5094,443.0469 Q722.775,443.2969 722.775,443.6406 Q722.775,443.9844 722.4313,444.3906 Q721.9313,444.9688 721.1344,445.2969 Q720.0563,445.75 718.7594,445.75 Q717.2438,445.75 716.0406,445.125 Q715.0563,444.625 714.3688,443.5625 Q713.6813,442.4844 713.6813,441.2031 L713.6813,440.0469 Q713.6813,438.7188 714.2906,437.5781 Q714.9156,436.4219 716.0094,435.8125 Q717.1031,435.1875 718.3375,435.1875 Q719.0719,435.1875 719.7125,435.3594 Q720.3688,435.5156 720.9156,435.875 Z " fill="#000000"/><text fill="#000000" font-family="sans-serif" font-size="14" lengthAdjust="spacing" textLength="40" x="736.85" y="445.7969">Phase</text><line style="stroke:#181818;stroke-width:0.5;" x1="683" x2="800" y1="456" y2="456"/><line style="stroke:#181818;stroke-width:0.5;" x1="683" x2="800" y1="464" y2="464"/><text fill="#000000" font-family="sans-serif" font-size="14" lengthAdjust="spacing" textLength="107" x="688" y="483.1074">setStatus(status)</text></g><!--link ExecuteInterviewEvaluationUI to ExecuteInterviewEvaluationController--><g id="link_ExecuteInterviewEvaluationUI_ExecuteInterviewEvaluationController"><path codeLine="38" d="M222.19,49.5 C233.74,49.5 239.28,49.5 250.83,49.5 " fill="none" id="ExecuteInterviewEvaluationUI-to-ExecuteInterviewEvaluationController" style="stroke:#181818;stroke-width:1.0;"/><polygon fill="#181818" points="256.83,49.5,247.83,45.5,251.83,49.5,247.83,53.5,256.83,49.5" style="stroke:#181818;stroke-width:1.0;"/></g><!--link ExecuteInterviewEvaluationController to JobOpeningRepository--><g id="link_ExecuteInterviewEvaluationController_JobOpeningRepository"><path codeLine="39" d="M306.1,92.05 C262.08,113.99 214.21,137.8335 173.22,158.2635 " fill="none" id="ExecuteInterviewEvaluationController-to-JobOpeningRepository" style="stroke:#181818;stroke-width:1.0;"/><polygon fill="#181818" points="167.85,160.94,177.6893,160.5053,172.325,158.7096,174.1206,153.3453,167.85,160.94" style="stroke:#181818;stroke-width:1.0;"/></g><!--link ExecuteInterviewEvaluationController to JobApplicationRepository--><g id="link_ExecuteInterviewEvaluationController_JobApplicationRepository"><path codeLine="40" d="M395.05,92.25 C397.54,111.04 399.701,127.2321 402.191,146.0021 " fill="none" id="ExecuteInterviewEvaluationController-to-JobApplicationRepository" style="stroke:#181818;stroke-width:1.0;"/><polygon fill="#181818" points="402.98,151.95,405.7617,142.5021,402.3225,146.9934,397.8312,143.5542,402.98,151.95" style="stroke:#181818;stroke-width:1.0;"/></g><!--link ExecuteInterviewEvaluationController to ExecuteInterviewEvaluationService--><g id="link_ExecuteInterviewEvaluationController_ExecuteInterviewEvaluationService"><path codeLine="41" d="M522.19,49.5 C533.9,49.5 539.6,49.5 551.31,49.5 " fill="none" id="ExecuteInterviewEvaluationController-to-ExecuteInterviewEvaluationService" style="stroke:#181818;stroke-width:1.0;"/><polygon fill="#181818" points="557.31,49.5,548.31,45.5,552.31,49.5,548.31,53.5,557.31,49.5" style="stroke:#181818;stroke-width:1.0;"/></g><!--link ExecuteInterviewEvaluationService to JobApplicationRepository--><g id="link_ExecuteInterviewEvaluationService_JobApplicationRepository"><path codeLine="42" d="M665.52,83.13 C618.01,103.53 561.8832,127.6326 510.8832,149.5326 " fill="none" id="ExecuteInterviewEvaluationService-to-JobApplicationRepository" style="stroke:#181818;stroke-width:1.0;"/><polygon fill="#181818" points="505.37,151.9,515.2181,152.0243,509.9643,149.9271,512.0615,144.6734,505.37,151.9" style="stroke:#181818;stroke-width:1.0;"/></g><!--link ExecuteInterviewEvaluationService to JobOpening--><g id="link_ExecuteInterviewEvaluationService_JobOpening"><path codeLine="43" d="M741.5,83.31 C741.5,106.56 741.5,131.63 741.5,154.85 " fill="none" id="ExecuteInterviewEvaluationService-to-JobOpening" style="stroke:#181818;stroke-width:1.0;"/><polygon fill="#181818" points="741.5,160.85,745.5,151.85,741.5,155.85,737.5,151.85,741.5,160.85" style="stroke:#181818;stroke-width:1.0;"/></g><!--link ExecuteInterviewEvaluationService to JobApplication--><g id="link_ExecuteInterviewEvaluationService_JobApplication"><path codeLine="44" d="M790.56,83.13 C825.51,106.37 867.3044,134.1767 902.2844,157.4467 " fill="none" id="ExecuteInterviewEvaluationService-to-JobApplication" style="stroke:#181818;stroke-width:1.0;"/><polygon fill="#181818" points="907.28,160.77,902.0021,152.4547,903.117,158.0006,897.5711,159.1155,907.28,160.77" style="stroke:#181818;stroke-width:1.0;"/></g><!--link JobOpening to InterviewModelSpecification--><g id="link_JobOpening_InterviewModelSpecification"><path codeLine="45" d="M687.96,228.11 C653.62,249.03 614.3342,272.9586 580.0242,293.8586 " fill="none" id="JobOpening-to-InterviewModelSpecification" style="stroke:#181818;stroke-width:1.0;"/><polygon fill="#181818" points="574.9,296.98,584.6672,295.714,579.1701,294.3788,580.5053,288.8818,574.9,296.98" style="stroke:#181818;stroke-width:1.0;"/></g><!--link JobOpening to RequirementProcess--><g id="link_JobOpening_RequirementProcess"><path codeLine="46" d="M741.5,228.28 C741.5,249.05 741.5,269.8 741.5,290.59 " fill="none" id="JobOpening-to-RequirementProcess" style="stroke:#181818;stroke-width:1.0;"/><polygon fill="#181818" points="741.5,296.59,745.5,287.59,741.5,291.59,737.5,287.59,741.5,296.59" style="stroke:#181818;stroke-width:1.0;"/></g><!--link RequirementProcess to Phase--><g id="link_RequirementProcess_Phase"><path codeLine="47" d="M741.5,364.02 C741.5,382.39 741.5,399.29 741.5,417.71 " fill="none" id="RequirementProcess-to-Phase" style="stroke:#181818;stroke-width:1.0;"/><polygon fill="#181818" points="741.5,423.71,745.5,414.71,741.5,418.71,737.5,414.71,741.5,423.71" style="stroke:#181818;stroke-width:1.0;"/></g><!--link JobApplication to Interview--><g id="link_JobApplication_Interview"><path codeLine="48" d="M956.74,228.28 C956.9,249.05 957.0567,269.8002 957.2067,290.5902 " fill="none" id="JobApplication-to-Interview" style="stroke:#181818;stroke-width:1.0;"/><polygon fill="#181818" points="957.25,296.59,961.185,287.5614,957.2139,291.5901,953.1852,287.6191,957.25,296.59" style="stroke:#181818;stroke-width:1.0;"/></g><!--SRC=[dLFFJy8m5BxthzZDcOZSFP2WWGGJ0u4OpxLxG4tNrhuM9CJ_tT6oZMt09hiiU_r-l7vxxsvjhSQdVbyBAgrBnIDJQPy9YjXBE5qPcXBYFwFH3p1dOI8jc0s7xMX3XQEMA_a-QOMyA6cD4W9Cj2THzdofpwa6oUKA9x8WpDOK8Rxt2BWe5fVa0FrjzLyS2WpstPKV3YqEjHQS-IFChVY1jgGCejS2F0Uja5jbTi5XoMLouLerWHE7SoBFkz9aA9CFRjU5wb3Y5amZ3AGRYAkzLrCg5OznXEkNUSIyQj6WdqW7YHeXksgEBaJVL09YeO7nPOMQkrytBMHoF-timXgWwTJC0PKp3CPSb247sXo-7JUGWhGpenWWrlgj_fb0yhM0GyXSg7KOet_bG4AkRKFK6tHQ1T9fNtgPshb9-nVxx9XrL1YqxnLfHTpQI8r-JE4cFrBo_UcLqQn3ctD4cYMFzCD3giPLD_87]--></g></svg>