<?xml version="1.0" encoding="us-ascii" standalone="no"?><svg xmlns="http://www.w3.org/2000/svg" xmlns:xlink="http://www.w3.org/1999/xlink" contentStyleType="text/css" height="435px" preserveAspectRatio="none" style="width:591px;height:435px;background:#FFFFFF;" version="1.1" viewBox="0 0 591 435" width="591px" zoomAndPan="magnify"><defs/><g><rect fill="#FFFFFF" height="240.3672" style="stroke:#181818;stroke-width:1.0;" width="10" x="31.5" y="93.6211"/><rect fill="#FFFFFF" height="217.0762" style="stroke:#181818;stroke-width:1.0;" width="10" x="208.5" y="116.9121"/><rect fill="#FFFFFF" height="93.873" style="stroke:#181818;stroke-width:1.0;" width="10" x="359" y="208.8242"/><rect fill="#FFFFFF" height="31.291" style="stroke:#181818;stroke-width:1.0;" width="10" x="516" y="240.1152"/><line style="stroke:#181818;stroke-width:0.5;stroke-dasharray:5.0,5.0;" x1="36" x2="36" y1="83.6211" y2="351.9883"/><line style="stroke:#181818;stroke-width:0.5;stroke-dasharray:5.0,5.0;" x1="213" x2="213" y1="83.6211" y2="351.9883"/><line style="stroke:#181818;stroke-width:0.5;stroke-dasharray:5.0,5.0;" x1="363.5" x2="363.5" y1="165.2227" y2="351.9883"/><line style="stroke:#181818;stroke-width:0.5;stroke-dasharray:5.0,5.0;" x1="520.5" x2="520.5" y1="83.6211" y2="351.9883"/><text fill="#000000" font-family="sans-serif" font-size="14" lengthAdjust="spacing" textLength="57" x="5" y="80.1074">Operator</text><ellipse cx="36.5" cy="13.5" fill="#E2E2F0" rx="8" ry="8" style="stroke:#181818;stroke-width:0.5;"/><path d="M36.5,21.5 L36.5,48.5 M23.5,29.5 L49.5,29.5 M36.5,48.5 L23.5,63.5 M36.5,48.5 L49.5,63.5 " fill="none" style="stroke:#181818;stroke-width:0.5;"/><text fill="#000000" font-family="sans-serif" font-size="14" lengthAdjust="spacing" textLength="57" x="5" y="366.0957">Operator</text><ellipse cx="36.5" cy="378.1094" fill="#E2E2F0" rx="8" ry="8" style="stroke:#181818;stroke-width:0.5;"/><path d="M36.5,386.1094 L36.5,413.1094 M23.5,394.1094 L49.5,394.1094 M36.5,413.1094 L23.5,428.1094 M36.5,413.1094 L49.5,428.1094 " fill="none" style="stroke:#181818;stroke-width:0.5;"/><text fill="#000000" font-family="sans-serif" font-size="14" lengthAdjust="spacing" textLength="99" x="161" y="80.1074">ListCandidateUI</text><path d="M193,37 L193,61 M193,49 L210,49 " fill="none" style="stroke:#181818;stroke-width:0.5;"/><ellipse cx="222" cy="49" fill="#E2E2F0" rx="12" ry="12" style="stroke:#181818;stroke-width:0.5;"/><text fill="#000000" font-family="sans-serif" font-size="14" lengthAdjust="spacing" textLength="99" x="161" y="366.0957">ListCandidateUI</text><path d="M193,373.6094 L193,397.6094 M193,385.6094 L210,385.6094 " fill="none" style="stroke:#181818;stroke-width:0.5;"/><ellipse cx="222" cy="385.6094" fill="#E2E2F0" rx="12" ry="12" style="stroke:#181818;stroke-width:0.5;"/><text fill="#000000" font-family="sans-serif" font-size="14" lengthAdjust="spacing" textLength="149" x="286.5" y="366.0957">ListCandidateController</text><ellipse cx="364" cy="385.6094" fill="#E2E2F0" rx="12" ry="12" style="stroke:#181818;stroke-width:0.5;"/><polygon fill="#181818" points="360,373.6094,366,368.6094,364,373.6094,366,378.6094,360,373.6094" style="stroke:#181818;stroke-width:1.0;"/><text fill="#000000" font-family="sans-serif" font-size="14" lengthAdjust="spacing" textLength="133" x="451.5" y="80.1074">CandidateRepository</text><path d="M503,29 C503,19 521,19 521,19 C521,19 539,19 539,29 L539,55 C539,65 521,65 521,65 C521,65 503,65 503,55 L503,29 " fill="#E2E2F0" style="stroke:#181818;stroke-width:1.5;"/><path d="M503,29 C503,39 521,39 521,39 C521,39 539,39 539,29 " fill="none" style="stroke:#181818;stroke-width:1.5;"/><text fill="#000000" font-family="sans-serif" font-size="14" lengthAdjust="spacing" textLength="133" x="451.5" y="366.0957">CandidateRepository</text><path d="M503,379.6094 C503,369.6094 521,369.6094 521,369.6094 C521,369.6094 539,369.6094 539,379.6094 L539,405.6094 C539,415.6094 521,415.6094 521,415.6094 C521,415.6094 503,415.6094 503,405.6094 L503,379.6094 " fill="#E2E2F0" style="stroke:#181818;stroke-width:1.5;"/><path d="M503,379.6094 C503,389.6094 521,389.6094 521,389.6094 C521,389.6094 539,389.6094 539,379.6094 " fill="none" style="stroke:#181818;stroke-width:1.5;"/><rect fill="#FFFFFF" height="240.3672" style="stroke:#181818;stroke-width:1.0;" width="10" x="31.5" y="93.6211"/><rect fill="#FFFFFF" height="217.0762" style="stroke:#181818;stroke-width:1.0;" width="10" x="208.5" y="116.9121"/><rect fill="#FFFFFF" height="93.873" style="stroke:#181818;stroke-width:1.0;" width="10" x="359" y="208.8242"/><rect fill="#FFFFFF" height="31.291" style="stroke:#181818;stroke-width:1.0;" width="10" x="516" y="240.1152"/><polygon fill="#181818" points="196.5,112.9121,206.5,116.9121,196.5,120.9121,200.5,116.9121" style="stroke:#181818;stroke-width:1.0;"/><line style="stroke:#181818;stroke-width:1.0;" x1="41.5" x2="202.5" y1="116.9121" y2="116.9121"/><text fill="#000000" font-family="sans-serif" font-size="13" lengthAdjust="spacing" textLength="148" x="48.5" y="111.6494">asks to list all candidates</text><polygon fill="#181818" points="274.5,144.2031,284.5,148.2031,274.5,152.2031,278.5,148.2031" style="stroke:#181818;stroke-width:1.0;"/><line style="stroke:#181818;stroke-width:1.0;" x1="218.5" x2="280.5" y1="148.2031" y2="148.2031"/><text fill="#000000" font-family="sans-serif" font-size="13" lengthAdjust="spacing" textLength="44" x="225.5" y="142.9404">create()</text><text fill="#000000" font-family="sans-serif" font-size="14" lengthAdjust="spacing" textLength="149" x="286.5" y="172.0195">ListCandidateController</text><ellipse cx="364" cy="140.9121" fill="#E2E2F0" rx="12" ry="12" style="stroke:#181818;stroke-width:0.5;"/><polygon fill="#181818" points="360,128.9121,366,123.9121,364,128.9121,366,133.9121,360,128.9121" style="stroke:#181818;stroke-width:1.0;"/><polygon fill="#181818" points="347,204.8242,357,208.8242,347,212.8242,351,208.8242" style="stroke:#181818;stroke-width:1.0;"/><line style="stroke:#181818;stroke-width:1.0;" x1="218.5" x2="353" y1="208.8242" y2="208.8242"/><text fill="#000000" font-family="sans-serif" font-size="13" lengthAdjust="spacing" textLength="118" x="225.5" y="203.5615">showAllCandidates()</text><polygon fill="#181818" points="504,236.1152,514,240.1152,504,244.1152,508,240.1152" style="stroke:#181818;stroke-width:1.0;"/><line style="stroke:#181818;stroke-width:1.0;" x1="369" x2="510" y1="240.1152" y2="240.1152"/><text fill="#000000" font-family="sans-serif" font-size="13" lengthAdjust="spacing" textLength="71" x="376" y="234.8525">candidates()</text><polygon fill="#181818" points="380,267.4063,370,271.4063,380,275.4063,376,271.4063" style="stroke:#181818;stroke-width:1.0;"/><line style="stroke:#181818;stroke-width:1.0;stroke-dasharray:2.0,2.0;" x1="374" x2="520" y1="271.4063" y2="271.4063"/><text fill="#000000" font-family="sans-serif" font-size="13" lengthAdjust="spacing" textLength="98" x="386" y="266.1436">list of candidates</text><polygon fill="#181818" points="229.5,298.6973,219.5,302.6973,229.5,306.6973,225.5,302.6973" style="stroke:#181818;stroke-width:1.0;"/><line style="stroke:#181818;stroke-width:1.0;stroke-dasharray:2.0,2.0;" x1="223.5" x2="363" y1="302.6973" y2="302.6973"/><text fill="#000000" font-family="sans-serif" font-size="13" lengthAdjust="spacing" textLength="98" x="235.5" y="297.4346">list of candidates</text><polygon fill="#181818" points="47.5,329.9883,37.5,333.9883,47.5,337.9883,43.5,333.9883" style="stroke:#181818;stroke-width:1.0;"/><line style="stroke:#181818;stroke-width:1.0;stroke-dasharray:2.0,2.0;" x1="41.5" x2="212.5" y1="333.9883" y2="333.9883"/><text fill="#000000" font-family="sans-serif" font-size="13" lengthAdjust="spacing" textLength="108" x="53.5" y="328.7256">display candidates</text><!--SRC=[XP5D2i8m48NtESNGbHQyW0j1kYe8Wj03Z4d4O6XA9YgzlPEKDi4Vt8GaxttpPXAKmNau3jfZt211HzeBSNRtNg4VeJeO2WtsoYWCkckhv6c5T7tmphxfpNHhjK- -V1IiuXb9GxMOJtfmP3XsdCpplH0eWtdmRcecBh3PSIfisNWZ20uinm9Q2tB6gC1QmMP6SWDrpR3qckNL-aDbZQxkkRTswOBObYiManHKh37xO_cIpUWoL_PktjFJEEvIJgFqjn95-FmaVzZSUHexKfGobQ71ulY3upSiJ_4ZNW00]--></g></svg>